<svg width="12" height="12" viewBox="0 0 12 12" fill="none" xmlns="http://www.w3.org/2000/svg">
  <path
    d="M4.96051 5.20035C4.11359 4.88487 3.31921 4.38667 2.63788 3.70531C2.41058 3.47803 2.20129 3.23743 2.01025 2.9859C2.58441 2.22711 3.37006 1.63721 4.27942 1.30392C4.25684 1.53305 4.2453 1.76524 4.2453 2.00009C4.2453 3.14435 4.50183 4.22946 4.96051 5.20035Z"
    fill="black"
  />
  <path
    d="M4.69934 6.16954C3.68854 5.80737 2.73987 5.2215 1.93079 4.41241C1.76611 4.24776 1.6095 4.07661 1.46118 3.89969C1.16516 4.53828 1 5.24985 1 6C1 6.23027 1.01556 6.45691 1.04572 6.67892C1.35742 6.72873 1.67609 6.75464 2 6.75464C2.96356 6.75464 3.87744 6.54527 4.69934 6.16954Z"
    fill="black"
  />
  <path
    d="M8.2948 2.63783C7.6134 3.31923 7.11517 4.1136 6.79968 4.96057C7.77057 4.50191 8.85571 4.24536 10 4.24536C10.2348 4.24536 10.467 4.25693 10.6961 4.27948C10.3649 3.37556 9.78003 2.59393 9.02783 2.02071C8.77179 2.20052 8.52667 2.40598 8.2948 2.63783Z"
    fill="black"
  />
  <path
    d="M5.2453 2.00009C5.2453 2.96367 5.45465 3.87762 5.83044 4.69955C6.19263 3.68863 6.77856 2.73988 7.58771 1.93073C7.75525 1.7632 7.92792 1.60756 8.10522 1.46349C7.46539 1.16605 6.75208 1 6 1C5.76971 1 5.54309 1.01556 5.32104 1.04572C5.27124 1.35747 5.2453 1.67616 5.2453 2.00009Z"
    fill="black"
  />
  <path
    d="M2 7.75464C3.14429 7.75464 4.22931 7.49812 5.2002 7.03944C4.8847 7.88631 4.38654 8.68059 3.7052 9.36192C3.47699 9.59012 3.23486 9.79826 2.98132 9.98628C2.22473 9.41243 1.63647 8.62813 1.30389 7.72054C1.53302 7.74309 1.7652 7.75464 2 7.75464Z"
    fill="black"
  />
  <path
    d="M4.41229 10.069C5.22137 9.25992 5.80731 8.31125 6.16949 7.3004C6.54529 8.12236 6.7547 9.03632 6.7547 9.99991C6.7547 10.3238 6.72876 10.6425 6.67896 10.9543C6.45691 10.9844 6.23029 11 6 11C5.24908 11 4.5368 10.8345 3.89771 10.5379C4.07513 10.3907 4.24689 10.2345 4.41229 10.069Z"
    fill="black"
  />
  <path
    d="M10.5382 8.10153C10.8346 7.46263 11 6.75064 11 6C11 5.76973 10.9844 5.54309 10.9543 5.32108C10.6426 5.27127 10.3239 5.24536 10 5.24536C9.03644 5.24536 8.12256 5.45473 7.30066 5.83046C8.31146 6.19263 9.26013 6.7785 10.0692 7.58759C10.2349 7.7533 10.3912 7.92484 10.5382 8.10153Z"
    fill="black"
  />
  <path
    d="M9.987 9.0177C9.41309 9.77477 8.62854 10.3633 7.72058 10.6961C7.74316 10.4669 7.7547 10.2348 7.7547 9.99991C7.7547 8.85565 7.49817 7.77054 7.03949 6.79965C7.88641 7.11513 8.68079 7.61333 9.36212 8.29469C9.59106 8.52364 9.79938 8.76541 9.987 9.0177Z"
    fill="black"
  />
</svg>
