<svg width="16" height="16" viewBox="0 0 16 16" fill="none" xmlns="http://www.w3.org/2000/svg">
  <path
    d="M9.09456 5.885C9.144 5.66522 9.20377 5.43804 9.27513 5.20624C9.64263 4.01239 10.2948 2.77194 11.3345 1.8437C11.9666 2.18677 12.5399 2.62435 13.0355 3.13747C11.7418 3.57978 10.6462 4.34386 9.79716 5.14938C9.54393 5.38963 9.30903 5.63705 9.09456 5.885Z"
    fill="black"
  />
  <path
    d="M6.66648 10.9733C6.60936 11.0289 6.55124 11.0842 6.49214 11.139C5.63305 11.9371 4.52685 12.6909 3.22542 13.1192C3.74203 13.6012 4.33167 14.006 4.97595 14.3151C5.75015 13.4464 6.2552 12.3955 6.55606 11.3803C6.59681 11.2428 6.63353 11.1069 6.66648 10.9733Z"
    fill="black"
  />
  <path
    d="M6.24608 14.7786C6.80659 14.9232 7.39431 15.0002 7.99999 15.0002C8.09301 15.0002 8.18561 14.9983 8.27774 14.9948C8.57994 13.7799 8.49763 12.5258 8.23324 11.424C8.17236 11.1703 8.10266 10.928 8.02725 10.6993C7.96415 11.0382 7.8811 11.3884 7.77635 11.7419C7.47819 12.748 6.99166 13.8245 6.24608 14.7786Z"
    fill="black"
  />
  <path
    d="M11.5486 14.0353C10.9554 14.3849 10.3061 14.6494 9.61756 14.8123C9.85058 13.5134 9.73545 12.2297 9.47085 11.127C9.38941 10.7876 9.29259 10.4605 9.18511 10.1508C9.3507 10.3035 9.51754 10.4688 9.68258 10.6465C10.5169 11.5447 11.2531 12.7027 11.5486 14.0353Z"
    fill="black"
  />
  <path
    d="M12.6529 13.2301C13.2217 12.7237 13.7074 12.1258 14.0868 11.4596C13.1449 10.3174 11.8335 9.61283 10.574 9.22511C10.3246 9.14834 10.0806 9.08498 9.84535 9.03347C10.1049 9.26034 10.3641 9.51012 10.6151 9.78028C11.4503 10.6794 12.2371 11.8491 12.6529 13.2301Z"
    fill="black"
  />
  <path
    d="M15.0001 8.00008C15.0001 8.76365 14.8778 9.49867 14.6518 10.1866C13.5622 9.07588 12.202 8.39458 10.9484 8.0087C10.7752 7.95537 10.6027 7.90729 10.4319 7.86427C10.7496 7.74595 11.0992 7.63686 11.4738 7.54699C12.5566 7.28716 13.7864 7.20319 14.9816 7.48718C14.9938 7.65654 15.0001 7.82758 15.0001 8.00008Z"
    fill="black"
  />
  <path
    d="M10.1487 6.6133C10.4736 6.49854 10.8184 6.39539 11.1768 6.30938C12.2481 6.05232 13.4902 5.93633 14.7512 6.14361C14.5609 5.44996 14.2666 4.79936 13.886 4.20962C12.6226 4.53968 11.5275 5.26213 10.6732 6.07269C10.4839 6.25223 10.309 6.43369 10.1487 6.6133Z"
    fill="black"
  />
  <path
    d="M10.0598 1.30795C9.40854 1.10776 8.71685 1 7.99999 1C7.92316 1 7.84662 1.00124 7.77038 1.00369C7.25936 2.38531 7.30577 3.86588 7.59847 5.1449C7.65668 5.39925 7.72382 5.64226 7.79682 5.87173C7.8635 5.53351 7.95023 5.18419 8.05871 4.83179C8.42367 3.6462 9.05289 2.36516 10.0598 1.30795Z"
    fill="black"
  />
  <path
    d="M4.84076 8.72398C5.07719 8.66987 5.30383 8.60805 5.51889 8.54097C5.19695 8.47921 4.86526 8.3995 4.53061 8.30033C3.40591 7.96704 2.19339 7.39836 1.16198 6.49559C1.05584 6.9802 0.999908 7.48361 0.999908 8.00008C0.999908 8.22386 1.01041 8.44518 1.03094 8.66358C2.31541 9.05415 3.66347 8.9934 4.84076 8.72398Z"
    fill="black"
  />
  <path
    d="M4.89222 7.08004C5.1423 7.15414 5.3869 7.21491 5.62257 7.26393C5.36068 7.03986 5.09896 6.79288 4.84524 6.52545C4.03819 5.67481 3.27275 4.57661 2.83082 3.27976C2.32665 3.83155 1.90966 4.46436 1.60164 5.15637C2.52914 6.12771 3.73388 6.73678 4.89222 7.08004Z"
    fill="black"
  />
  <path
    d="M5.76855 5.64946C6.06364 5.96048 6.36391 6.23288 6.6526 6.46516C6.54058 6.13751 6.44046 5.79 6.3578 5.42882C6.06889 4.16634 5.97741 2.66975 6.37677 1.18916C5.46229 1.4063 4.61728 1.80283 3.88098 2.33954C4.19873 3.64394 4.9373 4.77331 5.76855 5.64946Z"
    fill="black"
  />
  <path
    d="M5.12468 9.96465C5.48403 9.88241 5.82984 9.78289 6.15603 9.67155C5.99385 9.84944 5.81702 10.029 5.62592 10.2066C4.74105 11.0285 3.60395 11.7552 2.29625 12.0592C1.86391 11.4528 1.52587 10.7745 1.30353 10.0457C2.6454 10.3261 3.98109 10.2264 5.12468 9.96465Z"
    fill="black"
  />
</svg>
