<svg viewBox="0 0 21 28" xmlns="http://www.w3.org/2000/svg">
  <path
    d="M19.6 0H1.4A1.4 1.4 0 000 1.4v25.2A1.4 1.4 0 001.4 28h18.2a1.4 1.4 0 001.4-1.4V1.4A1.4 1.4 0 0019.6 0z"
  />
  <path
    fill="#fff"
    d="M3.5 13h14a.5.5 0 010 1h-14a.5.5 0 010-1zm0 3h9a.5.5 0 010 1h-9a.5.5 0 010-1zm0 3h11a.5.5 0 010 1h-11a.5.5 0 010-1zm0 3h7a.5.5 0 010 1h-7a.5.5 0 010-1z"
    opacity=".5"
  />
  <path
    fill="#fff"
    fill-rule="evenodd"
    d="M6.05 9c-.34 0-.6-.11-.78-.33C5.09 8.45 5 8.16 5 7.8V5H4V4h1V3h1v1h1v1H6v2.6c0 .147.037.25.11.31.073.06.187.09.34.09H7v1h-.95zM9 9H8V7h1V6H8V4h1v1.5l1 .5 1-.5V4h1v2h-1v1h1v2h-1V7.5L10 7l-1 .5V9zm5.27-.33c.18.22.44.33.78.33H16V8h-.55c-.153 0-.267-.03-.34-.09-.073-.06-.11-.163-.11-.31V5h1V4h-1V3h-1v1h-1v1h1v2.8c0 .36.09.65.27.87z"
    clip-rule="evenodd"
  />
</svg>
