<svg viewBox="0 0 21 28" xmlns="http://www.w3.org/2000/svg">
  <path
    d="M19.6 0H1.4C0.626801 0 0 0.626801 0 1.4V26.6C0 27.3732 0.626801 28 1.4 28H19.6C20.3732 28 21 27.3732 21 26.6V1.4C21 0.626801 20.3732 0 19.6 0Z"
  />
  <g opacity="0.5">
    <path d="M3 14H18V13H3V14Z" fill="#fff" />
    <path d="M3 17H18V16H3V17Z" fill="#fff" />
    <path d="M18 20H3V19H18V20Z" fill="#fff" />
    <path d="M3 23H11V22H3V23Z" fill="#fff" />
  </g>
  <path
    fill-rule="evenodd"
    clip-rule="evenodd"
    d="M6.55 8.99961C6.21 8.99961 5.95 8.88961 5.77 8.66961C5.59 8.44961 5.5 8.15961 5.5 7.79961V4.9998H4.5V3.99961H5.5V3H6.5V3.99961H7.5V4.9998H6.5V7.6C6.5 7.74667 6.53667 7.85 6.61 7.91C6.68333 7.97 6.79667 8 6.95 8L7.5 8.00039V9L6.55 8.99961ZM9.5 8.99982H8.5V6.99982H9.5V5.99982H8.5V3.99982H9.5V5.49982L10.5 5.99982L11.5 5.49982V3.99982H12.5V5.99982H11.5V6.99982H12.5V8.99982H11.5V7.49982L10.5 6.99982L9.5 7.49982V8.99982ZM14.77 8.66961C14.95 8.88961 15.21 8.99961 15.55 8.99961L16.5 9V8.00039L15.95 8C15.7967 8 15.6833 7.97 15.61 7.91C15.5367 7.85 15.5 7.74667 15.5 7.6V4.9998H16.5V3.99961H15.5V3H14.5V3.99961H13.5V4.9998H14.5V7.79961C14.5 8.15961 14.59 8.44961 14.77 8.66961Z"
    fill="#fff"
  />
</svg>
