<svg viewBox="0 0 34 40" xmlns="http://www.w3.org/2000/svg">
  <path
    d="M32 0H2C0.89543 0 0 0.89543 0 2V38C0 39.1046 0.89543 40 2 40H32C33.1046 40 34 39.1046 34 38V2C34 0.89543 33.1046 0 32 0Z"
  />
  <path
    opacity="0.6"
    fill-rule="evenodd"
    clip-rule="evenodd"
    d="M8 20H26V19H8V20ZM8 24H26V23H8V24ZM26 28H8V27H26V28ZM8 32H17V31H8V32Z"
    fill="white"
  />
  <path
    fill-rule="evenodd"
    clip-rule="evenodd"
    d="M13.05 11.9996C12.71 11.9996 12.45 11.8896 12.27 11.6696C12.09 11.4496 12 11.1596 12 10.7996V7.9998H11V6.99961H12V6H13V6.99961H14V7.9998H13V10.6C13 10.7467 13.0367 10.85 13.11 10.91C13.1833 10.97 13.2967 11 13.45 11L14 11.0004V12L13.05 11.9996ZM16 11.9998H15V9.99982H16V8.99982H15V6.99982H16V8.49982L17 8.99982L18 8.49982V6.99982H19V8.99982H18V9.99982H19V11.9998H18V10.4998L17 9.99982L16 10.4998V11.9998ZM21.27 11.6696C21.45 11.8896 21.71 11.9996 22.05 11.9996L23 12V11.0004L22.45 11C22.2967 11 22.1833 10.97 22.11 10.91C22.0367 10.85 22 10.7467 22 10.6V7.9998H23V6.99961H22V6H21V6.99961H20V7.9998H21V10.7996C21 11.1596 21.09 11.4496 21.27 11.6696Z"
    fill="white"
  />
</svg>
