<svg viewBox="0 0 24 28" xmlns="http://www.w3.org/2000/svg">
  <rect width="24" height="28" rx="2" />
  <g opacity="0.5">
    <path d="M5 14H19V13H5V14Z" fill="white" />
    <path d="M5 17H19V16H5V17Z" fill="white" />
    <path d="M19 20H5V19H19V20Z" fill="white" />
    <path d="M5 23H12V22H5V23Z" fill="white" />
  </g>
  <path
    fill-rule="evenodd"
    clip-rule="evenodd"
    d="M8.05 8.99961C7.71 8.99961 7.45 8.88961 7.27 8.66961C7.09 8.44961 7 8.15961 7 7.79961V4.9998H6V3.99961H7V3H8V3.99961H9V4.9998H8V7.6C8 7.74667 8.03667 7.85 8.11 7.91C8.18333 7.97 8.29667 8 8.45 8L9 8.00039V9L8.05 8.99961ZM11 8.99982H10V6.99982H11V5.99982H10V3.99982H11V5.49982L12 5.99982L13 5.49982V3.99982H14V5.99982H13V6.99982H14V8.99982H13V7.49982L12 6.99982L11 7.49982V8.99982ZM16.27 8.66961C16.45 8.88961 16.71 8.99961 17.05 8.99961L18 9V8.00039L17.45 8C17.2967 8 17.1833 7.97 17.11 7.91C17.0367 7.85 17 7.74667 17 7.6V4.9998H18V3.99961H17V3H16V3.99961H15V4.9998H16V7.79961C16 8.15961 16.09 8.44961 16.27 8.66961Z"
    fill="white"
  />
</svg>
