<svg width="200" height="120" viewBox="0 0 200 120" fill="none" xmlns="http://www.w3.org/2000/svg">
  <rect
    x="30"
    y="18"
    width="88"
    height="8"
    transform="rotate(90 30 18)"
    fill="#004166"
    fill-opacity="0.2"
  />
  <rect
    x="48"
    y="18"
    width="88"
    height="8"
    transform="rotate(90 48 18)"
    fill="#004166"
    fill-opacity="0.2"
  />
  <rect
    x="66"
    y="18"
    width="88"
    height="8"
    transform="rotate(90 66 18)"
    fill="#004166"
    fill-opacity="0.2"
  />
  <rect
    x="84"
    y="18"
    width="88"
    height="8"
    transform="rotate(90 84 18)"
    fill="#004166"
    fill-opacity="0.2"
  />
  <rect
    x="102"
    y="18"
    width="88"
    height="8"
    transform="rotate(90 102 18)"
    fill="#004166"
    fill-opacity="0.2"
  />
  <rect
    x="120"
    y="18"
    width="88"
    height="8"
    transform="rotate(90 120 18)"
    fill="#004166"
    fill-opacity="0.2"
  />
  <rect
    x="138"
    y="18"
    width="88"
    height="8"
    transform="rotate(90 138 18)"
    fill="#004166"
    fill-opacity="0.2"
  />
  <rect
    x="156"
    y="18"
    width="88"
    height="8"
    transform="rotate(90 156 18)"
    fill="#004166"
    fill-opacity="0.2"
  />
  <rect
    x="174"
    y="18"
    width="88"
    height="8"
    transform="rotate(90 174 18)"
    fill="#004166"
    fill-opacity="0.2"
  />
  <g opacity="0.4">
    <rect x="174" y="33" width="58" height="44" transform="rotate(90 174 33)" fill="#0078D2" />
  </g>
  <g opacity="0.4">
    <rect x="120" y="67" width="24" height="98" transform="rotate(90 120 67)" fill="#0078D2" />
  </g>
  <g opacity="0.4">
    <rect x="66" y="33" width="24" height="44" transform="rotate(90 66 33)" fill="#0078D2" />
  </g>
  <g opacity="0.4">
    <rect x="120" y="33" width="24" height="44" transform="rotate(90 120 33)" fill="#0078D2" />
  </g>
</svg>
