<svg width="16" height="16" viewBox="0 0 16 16" fill="none" xmlns="http://www.w3.org/2000/svg">
  <path
    fill-rule="evenodd"
    clip-rule="evenodd"
    d="M14 7C14 9.61244 12.3304 11.8349 10 12.6586V13H12V15H4V13H6V12.6586C3.66962 11.8349 2 9.61244 2 7C2 3.68629 4.68629 1 8 1C11.3137 1 14 3.68629 14 7ZM8 8.00008C8.02511 8.00008 8.05001 7.99915 8.07465 7.99733L9.00019 9.06844L10.0683 8.0003L8.99725 7.0748C8.99908 7.05013 9 7.02521 9 7.00008C9 6.44779 8.55229 6.00008 8 6.00008C7.92487 6.00008 7.85166 6.00836 7.78126 6.02407L6.13869 4.60474L5.60462 5.1388L7.02398 6.78141C7.00828 6.85179 7 6.92496 7 7.00008C7 7.55236 7.44772 8.00008 8 8.00008Z"
    fill="black"
  />
</svg>
