<svg width="12" height="12" viewBox="0 0 12 12" fill="none" xmlns="http://www.w3.org/2000/svg">
  <path
    fill-rule="evenodd"
    clip-rule="evenodd"
    d="M10.5 5.5C10.5 7.26686 9.48172 8.79588 8 9.53224V10H9V11H3V10H4V9.53224C2.51828 8.79588 1.5 7.26686 1.5 5.5C1.5 3.01472 3.51471 1 6 1C8.48529 1 10.5 3.01472 10.5 5.5ZM6 6.50002C6.08868 6.50002 6.17465 6.48848 6.25653 6.46681L6.83081 7.11514L7.60199 6.34396L6.9613 5.77646C6.98651 5.68866 7 5.59592 7 5.50002C7 4.94772 6.55228 4.50002 6 4.50002C5.86145 4.50002 5.72949 4.52818 5.60953 4.57912L4.22644 3.354L3.84085 3.73959L5.07123 5.12865C5.02527 5.24347 5 5.36879 5 5.50002C5 6.05231 5.44772 6.50002 6 6.50002Z"
    fill="black"
  />
</svg>
