<svg width="24" height="24" viewBox="0 0 24 24" fill="none" xmlns="http://www.w3.org/2000/svg">
  <path
    fill-rule="evenodd"
    clip-rule="evenodd"
    d="M15 18.4879C18.4956 17.2524 21 13.9187 21 10C21 5.02944 16.9706 1 12 1C7.02944 1 3 5.02944 3 10C3 13.9187 5.50442 17.2524 9 18.4879V20H7V22H17V20H15V18.4879ZM12.6432 11.8945L14.071 13.4854L15.4853 12.0712L13.9003 10.6255C13.965 10.4288 14 10.2186 14 10.0002C14 8.89559 13.1046 8.00016 12 8.00016C11.7167 8.00016 11.4471 8.05906 11.2029 8.16529L8.08913 5.3252L7.38202 6.0323L10.186 9.15662C10.0666 9.41294 9.99998 9.69876 9.99998 10.0002C9.99998 11.1047 10.8954 12.0002 12 12.0002C12.225 12.0002 12.4413 11.963 12.6432 11.8945Z"
    fill="black"
  />
</svg>
