<svg width="12" height="12" viewBox="0 0 12 12" fill="none" xmlns="http://www.w3.org/2000/svg">
  <path
    fill-rule="evenodd"
    clip-rule="evenodd"
    d="M6 11C8.76142 11 11 8.76142 11 6C11 3.23858 8.76142 1 6 1C3.23858 1 1 3.23858 1 6C1 8.76142 3.23858 11 6 11ZM9.87398 7C9.95625 6.68038 10 6.3453 10 6C10 5.6547 9.95625 5.31962 9.87398 5H8.404C8.46512 5.32425 8.5 5.65892 8.5 6.00004C8.5 6.34113 8.46513 6.67577 8.40402 7H9.87398ZM7.38273 7H4.61727C4.54278 6.673 4.5 6.33762 4.5 6.00004C4.5 5.66243 4.54279 5.32702 4.61729 5H7.38271C7.45721 5.32702 7.5 5.66243 7.5 6.00004C7.5 6.33762 7.45722 6.673 7.38273 7ZM8.12831 4H9.46487C8.96676 3.13891 8.15687 2.48075 7.18957 2.17986C7.36104 2.43245 7.53267 2.71357 7.69246 3.01716C7.85193 3.32016 8.0019 3.64992 8.12831 4ZM6 2.25167C6.25489 2.56741 6.54795 2.98968 6.80754 3.48291C6.8951 3.64928 6.97799 3.82206 7.05394 4H4.94606C5.02201 3.82206 5.1049 3.64928 5.19246 3.48291C5.45205 2.98968 5.74511 2.56741 6 2.25167ZM7.05397 8C6.97801 8.17797 6.89511 8.35078 6.80754 8.51716C6.54795 9.01039 6.25489 9.43266 6 9.7484C5.7451 9.43266 5.45205 9.01039 5.19246 8.51716C5.10489 8.35078 5.02199 8.17797 4.94603 8H7.05397ZM7.18963 9.82012C7.36108 9.56755 7.53269 9.28647 7.69246 8.98291C7.85194 8.6799 8.00192 8.3501 8.12834 8H9.46487C8.96677 8.86107 8.15691 9.51922 7.18963 9.82012ZM3.5 6.00004C3.5 5.65892 3.53488 5.32425 3.596 5H2.12602C2.04375 5.31962 2 5.6547 2 6C2 6.3453 2.04375 6.68038 2.12602 7H3.59598C3.53487 6.67577 3.5 6.34113 3.5 6.00004ZM4.30754 3.01716C4.46733 2.71357 4.63896 2.43245 4.81043 2.17986C3.84313 2.48075 3.03324 3.13891 2.53513 4H3.87169C3.9981 3.64992 4.14807 3.32016 4.30754 3.01716ZM2.53513 8H3.87166C3.99808 8.3501 4.14806 8.6799 4.30754 8.98291C4.46731 9.28647 4.63892 9.56755 4.81037 9.82012C3.84309 9.51922 3.03323 8.86107 2.53513 8Z"
    fill="black"
  />
</svg>
