<svg
  width="200"
  height="120"
  viewBox="0 0 200 120"
  fill="none"
  xmlns="http://www.w3.org/2000/svg"
>
  <path
    d="M0 4C0 1.79086 1.79086 0 4 0H196C198.209 0 200 1.79086 200 4V116C200 118.209 198.209 120 196 120H4C1.79086 120 0 118.209 0 116V4Z"
    fill="var(--color-bg-default)"
  />
  <rect
    x="21"
    y="16"
    width="158"
    height="88"
    stroke="var(--color-bg-border)"
    stroke-width="2"
    stroke-dasharray="4 4"
  />
  <rect
    x="77"
    y="75"
    width="46"
    height="14"
    rx="2"
    fill="var(--color-bg-link)"
  />
  <path
    fill-rule="evenodd"
    clip-rule="evenodd"
    d="M105.778 45.8787C104.607 44.7071 102.707 44.7071 101.536 45.8787L94.4645 52.9497C92.5118 54.9024 92.5118 58.0682 94.4645 60.0208C96.4171 61.9734 99.5829 61.9734 101.536 60.0208L107.219 54.3374L108.633 55.7516L102.95 61.435C100.216 64.1687 95.7839 64.1687 93.0503 61.435C90.3166 58.7014 90.3166 54.2692 93.0503 51.5355L100.121 44.4645C102.074 42.5118 105.24 42.5118 107.192 44.4645C109.145 46.4171 109.145 49.5829 107.192 51.5355L100.132 58.596C98.9604 59.7676 97.0609 59.7676 95.8893 58.596C94.7177 57.4244 94.7177 55.5249 95.8893 54.3533L102.243 48L103.657 49.4142L97.3035 55.7676C96.913 56.1581 96.913 56.7912 97.3035 57.1818C97.694 57.5723 98.3272 57.5723 98.7177 57.1818L105.778 50.1213C106.95 48.9497 106.95 47.0503 105.778 45.8787Z"
    fill="var(--color-bg-border)"
  />
</svg>
