<svg viewBox="0 0 24 28" xmlns="http://www.w3.org/2000/svg">
  <rect width="24" height="28" rx="2" />
  <path
    fill-rule="evenodd"
    clip-rule="evenodd"
    d="M9 7.75C9 8.17 8.87 8.48333 8.61 8.69C8.35667 8.89667 7.98667 9 7.5 9H6V8H7.45C7.63 8 7.76667 7.96333 7.86 7.89C7.95333 7.81 8 7.69667 8 7.55V7.45C8 7.15 7.85667 7 7.57 7H7.2C6.73333 7 6.53333 6.9 6.3 6.7C6.07333 6.49333 6 6.17 6 5.73V5.26C6 4.81333 6.08667 4.49333 6.34 4.3C6.59333 4.1 7.00667 4 7.5 4H9V5H7.55C7.38333 5 7.25 5.04 7.15 5.12C7.05 5.19333 7 5.30333 7 5.45V5.56C7 5.71333 7.04333 5.82667 7.13 5.9C7.22333 5.97333 7.34 6 7.48 6H7.63C8.07667 6 8.41667 6.12 8.65 6.34C8.88333 6.55333 9 6.87333 9 7.3V7.75ZM10 4H11V7H12V4H13V7L12 9H11L10 7V4ZM16.25 9C16.5433 9 16.7933 8.93333 17 8.8V9C17 10 16.84 10 16 10H14.5V11H17C17.5523 11 18 10.5523 18 10V4H15.7C15.12 4 14.69 4.12667 14.41 4.38C14.1367 4.63333 14 5.04 14 5.6V7.4C14 7.96667 14.1367 8.37667 14.41 8.63C14.6833 8.87667 15.1133 9 15.7 9H16.25ZM16.84 7.83C16.7333 7.94333 16.57 8 16.35 8H15.75C15.5033 8 15.3167 7.94333 15.19 7.83C15.0633 7.71667 15 7.55667 15 7.35V5.65C15 5.44333 15.0633 5.28333 15.19 5.17C15.3167 5.05667 15.5033 5 15.75 5H17V7.45C17 7.58333 16.9467 7.71 16.84 7.83Z"
    fill="white"
  />
  <path
    opacity="0.6"
    d="M11 14H13V14.5H17.1338C17.3067 14.2011 17.6299 14 18 14C18.5523 14 19 14.4477 19 15C19 15.5523 18.5523 16 18 16C17.6299 16 17.3067 15.7989 17.1338 15.5H15.4657C17.289 16.6513 18.5 18.6842 18.5 21V22H19V24H17V22H17.5V21C17.5 18.3039 15.5601 16.0609 13 15.5907V16H11V15.5907C8.43988 16.0609 6.5 18.3039 6.5 21V22H7V24H5V22H5.5V21C5.5 18.6842 6.71102 16.6513 8.53431 15.5H6.86622C6.69331 15.7989 6.37014 16 6 16C5.44772 16 5 15.5523 5 15C5 14.4477 5.44772 14 6 14C6.37014 14 6.69331 14.2011 6.86622 14.5H11V14Z"
    fill="white"
  />
</svg>
