<svg viewBox="0 0 34 40" xmlns="http://www.w3.org/2000/svg">
  <path
    d="M32 0H2C0.89543 0 0 0.89543 0 2V38C0 39.1046 0.89543 40 2 40H32C33.1046 40 34 39.1046 34 38V2C34 0.89543 33.1046 0 32 0Z"
  />
  <g opacity="0.6">
    <path
      d="M19 18H15V19.5H10.9064C10.747 19.1592 10.4011 18.9231 10 18.9231C9.44772 18.9231 9 19.3708 9 19.9231C9 20.4754 9.44772 20.9231 10 20.9231C10.3374 20.9231 10.6358 20.756 10.8169 20.5H13.233C11.4497 21.7088 10.2778 23.7517 10.2778 26.0684V28H9V32H13V28H11.2778V26.0684C11.2778 23.6116 12.826 21.5165 15 20.7054V22H19V20.7054C21.174 21.5165 22.7222 23.6116 22.7222 26.0684V28H21V32H25V28H23.7222V26.0684C23.7222 23.7517 22.5503 21.7088 20.767 20.5H23.1338C23.3067 20.7989 23.6299 21 24 21C24.5523 21 25 20.5523 25 20C25 19.4477 24.5523 19 24 19C23.6299 19 23.3067 19.2011 23.1338 19.5H19V18Z"
      fill="white"
    />
  </g>
  <path
    fill-rule="evenodd"
    clip-rule="evenodd"
    d="M14 10.75C14 11.17 13.87 11.4833 13.61 11.69C13.3567 11.8967 12.9867 12 12.5 12H11V11H12.45C12.63 11 12.7667 10.9633 12.86 10.89C12.9533 10.81 13 10.6967 13 10.55V10.45C13 10.15 12.8567 10 12.57 10H12.2C11.7333 10 11.5333 9.9 11.3 9.7C11.0733 9.49333 11 9.17 11 8.73V8.26C11 7.81333 11.0867 7.49333 11.34 7.3C11.5933 7.1 12.0067 7 12.5 7H14V8H12.55C12.3833 8 12.25 8.04 12.15 8.12C12.05 8.19333 12 8.30333 12 8.45V8.56C12 8.71333 12.0433 8.82667 12.13 8.9C12.2233 8.97333 12.34 9 12.48 9H12.63C13.0767 9 13.4167 9.12 13.65 9.34C13.8833 9.55333 14 9.87333 14 10.3V10.75ZM15 7H16V10H17V7H18V10L17 12H16L15 10V7ZM21.25 12C21.5433 12 21.7933 11.9333 22 11.8V12C22 13 21.84 13 21 13H19.5V14H22C22.5523 14 23 13.5523 23 13V7H20.7C20.12 7 19.69 7.12667 19.41 7.38C19.1367 7.63333 19 8.04 19 8.6V10.4C19 10.9667 19.1367 11.3767 19.41 11.63C19.6833 11.8767 20.1133 12 20.7 12H21.25ZM21.84 10.83C21.7333 10.9433 21.57 11 21.35 11H20.75C20.5033 11 20.3167 10.9433 20.19 10.83C20.0633 10.7167 20 10.5567 20 10.35V8.65C20 8.44333 20.0633 8.28333 20.19 8.17C20.3167 8.05667 20.5033 8 20.75 8H22V10.45C22 10.5833 21.9467 10.71 21.84 10.83Z"
    fill="white"
  />
</svg>
