<svg width="24" height="24" viewBox="0 0 24 24" xmlns="http://www.w3.org/2000/svg">
  <path d="M9 9H7V11H9V9Z" fill="black" />
  <path d="M15 9H17V11H15V9Z" fill="black" />
  <path
    d="M16.0264 12.7718C15.0174 17.0764 8.98186 17.0735 7.97354 12.7778L6.02646 13.2348C7.51814 19.5897 16.4826 19.589 17.9736 13.2282L16.0264 12.7718Z"
    fill="black"
  />
  <path
    fill-rule="evenodd"
    clip-rule="evenodd"
    d="M24 12C24 18.6274 18.6274 24 12 24C5.37258 24 0 18.6274 0 12C0 5.37258 5.37258 0 12 0C18.6274 0 24 5.37258 24 12ZM22 12C22 17.5228 17.5228 22 12 22C6.47715 22 2 17.5228 2 12C2 6.47715 6.47715 2 12 2C17.5228 2 22 6.47715 22 12Z"
    fill="black"
  />
</svg>
