<svg viewBox="0 0 12 12" xmlns="http://www.w3.org/2000/svg">
  <path d="M5 4.5H4V5.5H5V4.5Z" />
  <path d="M7 4.5H8V5.5H7V4.5Z" />
  <path
    d="M7.51493 6.37872C7.3315 7.11236 6.69386 7.49978 5.99986 7.49997C5.30569 7.50016 4.66832 7.11298 4.48503 6.38093L3.51497 6.62381C3.83168 7.88875 4.94431 8.50026 6.00014 8.49997C7.05614 8.49968 8.1685 7.88742 8.48507 6.62128L7.51493 6.37872Z"
  />
  <path
    fill-rule="evenodd"
    clip-rule="evenodd"
    d="M11 6C11 8.76142 8.76142 11 6 11C3.23858 11 1 8.76142 1 6C1 3.23858 3.23858 1 6 1C8.76142 1 11 3.23858 11 6ZM10 6C10 8.20914 8.20914 10 6 10C3.79086 10 2 8.20914 2 6C2 3.79086 3.79086 2 6 2C8.20914 2 10 3.79086 10 6Z"
  />
</svg>
