<svg width="12" height="12" viewBox="0 0 12 12" xmlns="http://www.w3.org/2000/svg">
  <path
    d="M6.95601 7.76808C7.25382 7.60705 7.50614 7.3734 7.68954 7.08882L8.5217 7.62511C8.33652 7.91245 8.10427 8.165 7.83577 8.37274C7.70737 8.47208 7.57068 8.56118 7.42687 8.63893C6.98237 8.87927 6.48436 9.00344 5.97906 8.99991C5.47375 8.99639 4.97752 8.86528 4.53642 8.61875C4.39372 8.539 4.25828 8.448 4.13128 8.34687C3.8657 8.13541 3.637 7.87964 3.45586 7.58974L4.29542 7.06512C4.47483 7.35224 4.72386 7.58939 5.0194 7.75456C5.31494 7.91973 5.64741 8.00757 5.98597 8.00994C6.32452 8.0123 6.65819 7.92911 6.95601 7.76808Z"
    fill="black"
  />
  <path d="M5 5H4V6H5V5Z" fill="black" />
  <path d="M7 5H8V6H7V5Z" fill="black" />
  <path
    fill-rule="evenodd"
    clip-rule="evenodd"
    d="M11 6C11 8.76142 8.76142 11 6 11C3.23858 11 1 8.76142 1 6C1 3.23858 3.23858 1 6 1C8.76142 1 11 3.23858 11 6ZM10 6C10 8.20914 8.20914 10 6 10C3.79086 10 2 8.20914 2 6C2 3.79086 3.79086 2 6 2C8.20914 2 10 3.79086 10 6Z"
    fill="black"
  />
</svg>
