<svg width="16" height="16" viewBox="0 0 16 16" xmlns="http://www.w3.org/2000/svg">
  <path
    d="M16 8C16 12.4183 12.4183 16 8 16C3.58172 16 0 12.4183 0 8C0 3.58172 3.58172 0 8 0C12.4183 0 16 3.58172 16 8ZM2 8C2 11.3137 4.68629 14 8 14C11.3137 14 14 11.3137 14 8C14 4.68629 11.3137 2 8 2C4.68629 2 2 4.68629 2 8Z"
    fill="black"
  />
  <path
    d="M4.56165 10.044C4.91471 10.6379 5.4156 11.1302 6.01551 11.473C6.61542 11.8158 7.29389 11.9974 7.98483 12C8.67576 12.0026 9.35559 11.8262 9.95808 11.488C10.5606 11.1497 11.0652 10.6612 11.4227 10.07L10.0619 9.24699C9.84652 9.60316 9.54254 9.89746 9.17958 10.1012C8.81663 10.305 8.40709 10.4112 7.99086 10.4097C7.57463 10.4081 7.1659 10.2987 6.80451 10.0922C6.44311 9.8857 6.14137 9.5891 5.92868 9.23131L4.56165 10.044Z"
    fill="black"
  />
  <path d="M9 6H11V8H9V6Z" fill="black" />
  <path d="M5 6H7V8H5V6Z" fill="black" />
</svg>
