<svg viewBox="0 0 12 12" xmlns="http://www.w3.org/2000/svg">
<path fill-rule="evenodd" clip-rule="evenodd" d="M1 6C1 3.24294 3.24294 1 6 1C8.75706 1 11 3.24294 11 6C11 8.75706 8.75706 11 6 11C3.24294 11 1 8.75706 1 6ZM1.83333 6C1.83333 8.29746 3.70253 10.1667 6 10.1667C8.29746 10.1667 10.1667 8.29746 10.1667 6C10.1667 3.70253 8.29746 1.83333 6 1.83333C3.70253 1.83333 1.83333 3.70253 1.83333 6ZM6.00033 7.66665C6.51323 7.66665 7.00741 7.4806 7.39224 7.14307L7.70515 6.86831L8.25487 7.49453L7.94176 7.76939C7.40516 8.24038 6.71577 8.49999 6.00033 8.49999C5.2847 8.49999 4.59592 8.2412 4.06074 7.77143L3.74763 7.49667L4.29745 6.87045L4.61056 7.14521C4.99366 7.48141 5.48723 7.66665 6.00033 7.66665ZM3.91643 4.75H4.74977V5.58333H3.91643V4.75ZM8.08333 4.75H7.25V5.58333H8.08333V4.75Z" />
</svg>
