<svg viewBox="0 0 16 16" xmlns="http://www.w3.org/2000/svg">
<path fill-rule="evenodd" clip-rule="evenodd" d="M1 8C1 4.14012 4.14012 1 8 1C11.8599 1 15 4.14012 15 8C15 11.8599 11.8599 15 8 15C4.14012 15 1 11.8599 1 8ZM2.16667 8C2.16667 11.2165 4.78355 13.8333 8 13.8333C11.2165 13.8333 13.8333 11.2165 13.8333 8C13.8333 4.78355 11.2165 2.16667 8 2.16667C4.78355 2.16667 2.16667 4.78355 2.16667 8ZM8.00014 10.3333C8.7182 10.3333 9.41006 10.0729 9.94881 9.60032L10.3869 9.21566L11.1565 10.0924L10.7181 10.4772C9.9669 11.1366 9.00175 11.5 8.00014 11.5C6.99825 11.5 6.03396 11.1377 5.28471 10.48L4.84635 10.0954L5.61611 9.21865L6.05446 9.60331C6.5908 10.074 7.2818 10.3333 8.00014 10.3333ZM5.08333 6.25H6.25V7.41667H5.08333V6.25ZM10.9167 6.25H9.75V7.41667H10.9167V6.25Z" />
</svg>
