<svg viewBox="0 0 24 24" xmlns="http://www.w3.org/2000/svg">
<path d="M15.3407 14.7434C14.4171 15.5535 13.2311 16 12.0001 16C10.7687 16 9.58411 15.5554 8.66467 14.7485L7.91321 14.0891L6.59363 15.592L7.34509 16.2515C8.62952 17.3789 10.2826 18 12.0001 18C13.7172 18 15.3717 17.377 16.6595 16.2466L17.411 15.5869L16.0917 14.084L15.3407 14.7434Z" />
<path d="M12 0C5.38306 0 0 5.38306 0 12C0 18.6169 5.38306 24 12 24C18.6169 24 24 18.6169 24 12C24 5.38306 18.6169 0 12 0ZM12 22C6.48608 22 2 17.5139 2 12C2 6.48608 6.48608 2 12 2C17.5139 2 22 6.48608 22 12C22 17.5139 17.5139 22 12 22Z" />
<path d="M7 9H9V11H7V9Z" />
<path d="M15 9H17V11H15V9Z" />
</svg>
