<svg
  width="200"
  height="120"
  viewBox="0 0 200 120"
  fill="none"
  xmlns="http://www.w3.org/2000/svg"
>
  <path
    d="M0 4C0 1.79086 1.79086 0 4 0H196C198.209 0 200 1.79086 200 4V116C200 118.209 198.209 120 196 120H4C1.79086 120 0 118.209 0 116V4Z"
    fill="var(--color-bg-secondary)"
  />
  <rect
    x="30"
    y="40"
    width="140"
    height="40"
    rx="4"
    fill="var(--color-bg-default)"
  />
  <path
    d="M51.1055 55.7324H47.4668V67H45.9902V55.7324H42.3604V54.3965H51.1055V55.7324ZM65.0713 62.8604H58.7168C58.7402 63.8623 59.0098 64.6357 59.5254 65.1807C60.041 65.7256 60.75 65.998 61.6523 65.998C62.666 65.998 63.5977 65.6641 64.4473 64.9961V66.3496C63.6562 66.9238 62.6104 67.2109 61.3096 67.2109C60.0381 67.2109 59.0391 66.8037 58.3125 65.9893C57.5859 65.1689 57.2227 64.0176 57.2227 62.5352C57.2227 61.1348 57.6182 59.9951 58.4092 59.1162C59.2061 58.2314 60.1934 57.7891 61.3711 57.7891C62.5488 57.7891 63.46 58.1699 64.1045 58.9316C64.749 59.6934 65.0713 60.751 65.0713 62.1045V62.8604ZM63.5947 61.6387C63.5889 60.8066 63.3867 60.1592 62.9883 59.6963C62.5957 59.2334 62.0479 59.002 61.3447 59.002C60.665 59.002 60.0879 59.2451 59.6133 59.7314C59.1387 60.2178 58.8457 60.8535 58.7344 61.6387H63.5947ZM78.7734 58L75.75 62.5527L78.7207 67H77.042L75.2754 64.082C75.1641 63.9004 75.0322 63.6719 74.8799 63.3965H74.8447C74.8154 63.4492 74.6777 63.6777 74.4316 64.082L72.6299 67H70.9688L74.0361 62.5879L71.1006 58H72.7793L74.5195 61.0762C74.6484 61.3047 74.7744 61.5391 74.8975 61.7793H74.9326L77.1826 58H78.7734ZM89.5752 66.9121C89.2354 67.0996 88.7871 67.1934 88.2305 67.1934C86.6543 67.1934 85.8662 66.3145 85.8662 64.5566V59.2305H84.3193V58H85.8662V55.8027L87.3076 55.3369V58H89.5752V59.2305H87.3076V64.3018C87.3076 64.9053 87.4102 65.3359 87.6152 65.5938C87.8203 65.8516 88.1602 65.9805 88.6348 65.9805C88.998 65.9805 89.3115 65.8809 89.5752 65.6816V66.9121Z"
    fill="var(--color-bg-link)"
  />
  <path d="M96 72H95V48H96V72Z" fill="var(--color-typo-secondary)" />
</svg>
