<svg width="24" height="24" viewBox="0 0 24 24" fill="none" xmlns="http://www.w3.org/2000/svg">
<path d="M0 4.07077C0.235834 4.33995 0.490641 4.62643 0.768005 4.93252C0.996466 4.67852 1.25519 4.40579 1.53286 4.12459C2.25581 3.39246 3.16941 2.54096 4.16623 1.70165C4.84872 1.12699 5.58888 0.541948 6.34739 0H10.2327C8.81366 0.63191 7.06846 1.87253 5.4544 3.23156C4.50383 4.03192 3.63531 4.84188 2.95598 5.52984C2.61813 5.87199 2.34045 6.17061 2.12655 6.41477C2.23412 6.53538 2.33459 6.64923 2.43124 6.75875C2.92599 7.31941 3.32042 7.76638 4.0535 8.42386C5.01737 9.28833 6.47098 10.4327 7.69763 11.3342C7.77392 11.2312 7.85018 11.1271 7.93201 11.0155C8.05955 10.8415 8.20147 10.6479 8.38132 10.4065C9.02047 9.54864 9.88806 8.43109 11.0589 7.15345C12.9859 5.05062 15.7209 2.52879 19.6049 0H23.2251L23.2817 0.0990541C18.1295 3.04316 14.7503 6.08558 12.5334 8.50469C11.4239 9.71538 10.6006 10.7754 9.98511 11.6014C9.84112 11.7947 9.68868 12.0023 9.54815 12.1937C9.47309 12.2959 9.40135 12.3936 9.33613 12.482C10.8458 13.4794 12.4215 14.3484 14.0432 15.028C14.9509 15.4084 15.8716 15.729 16.802 15.9796C16.9892 15.4488 17.2454 14.8793 17.5424 14.3015C18.054 13.3062 18.7235 12.2163 19.4813 11.1434C20.7835 9.29979 22.4017 7.42827 24 6.16595V8.843C23.003 9.83068 22 11.0442 21.1149 12.2972C20.4017 13.307 19.7832 14.3169 19.3211 15.2158C19.1038 15.6386 18.9285 16.0228 18.7946 16.361C19.2828 16.4139 19.854 16.4605 20.4474 16.4985C21.2918 16.5525 22.9716 16.6261 24 16.6581V18.6589C23.4572 18.6425 22.7376 18.6146 22.0465 18.5837C22.2195 19.1542 22.4482 19.8055 22.7268 20.4427C23.0493 21.1802 23.5378 21.9619 24 22.5381V24H22.6145C21.9077 23.1723 21.2653 22.0922 20.8943 21.244C20.4618 20.2548 20.1387 19.2443 19.9359 18.4685C18.9365 18.3973 17.9298 18.2957 17.2956 18.1577C16.5911 18.0044 15.8946 17.8145 15.2075 17.5923C15.616 18.7156 16.1714 20.009 16.7741 21.1852C17.2658 22.1449 17.7665 22.9815 18.216 23.5635C18.3565 23.7454 18.4823 23.8897 18.5915 24H16.0803C15.7083 23.4262 15.3406 22.7734 14.9942 22.0973C14.0698 20.2934 13.2238 18.1795 12.809 16.6741C10.8788 15.8218 9.03419 14.7357 7.30307 13.5152C6.58152 13.0064 5.69723 12.347 4.83942 11.6733C4.96031 12.6464 5.09754 13.7353 5.35997 14.9719C5.8722 17.3856 6.86861 20.391 9.17482 24H6.82736C4.84228 20.6392 3.90839 17.766 3.40354 15.3871C3.11822 14.0426 2.97184 12.8636 2.85005 11.8827L2.83891 11.793C2.72874 10.9064 2.64092 10.2418 2.50437 9.71824C1.80758 9.07478 1.34521 8.55189 0.856138 7.99881C0.616531 7.72784 0.370429 7.44953 0.0872316 7.14626C0.0579466 7.1149 0.0288703 7.08372 0 7.05271V4.07077Z" fill="black"/>
<path d="M0 17.5279V24H1.59955L1.77381 23.9202C1.24618 23.076 0.677903 21.5517 0.360486 19.9154C0.214812 19.1644 0.0957062 18.3616 0 17.5279Z" fill="black"/>
</svg>
