<svg
  width="200"
  height="120"
  viewBox="0 0 200 120"
  fill="none"
  xmlns="http://www.w3.org/2000/svg"
>
  <path
    d="M0 4C0 1.79086 1.79086 0 4 0H196C198.209 0 200 1.79086 200 4V116C200 118.209 198.209 120 196 120H4C1.79086 120 0 118.209 0 116V4Z"
    fill="var(--color-bg-default)"
  />
  <rect
    x="34"
    y="36"
    width="36"
    height="48"
    rx="2"
    fill="var(--color-bg-link)"
  />
  <path
    d="M67.6 36H36.4C35.0745 36 34 37.0745 34 38.4V81.6C34 82.9255 35.0745 84 36.4 84H67.6C68.9255 84 70 82.9255 70 81.6V38.4C70 37.0745 68.9255 36 67.6 36Z"
    fill="var(--color-control-bg-ghost)"
    fill-opacity="0.07"
  />
  <path
    d="M46.1429 65.6057C45.7657 65.8686 45.3086 66 44.7714 66H43.9143C42.9086 66 42.1714 65.7886 41.7029 65.3657C41.2343 64.9314 41 64.2286 41 63.2571V60.1714C41 59.2114 41.2343 58.5143 41.7029 58.08C42.1829 57.6457 43.0229 57.4286 44.0171 57.4286H46.1429V54H47.8571V66H46.1429V65.6057ZM45.0286 64.2857C45.4057 64.2857 45.6857 64.1886 45.8686 63.9943C46.0514 63.7886 46.1429 63.5714 46.1429 63.3429V59.1429H44C43.5771 59.1429 43.2571 59.24 43.04 59.4343C42.8229 59.6286 42.7143 59.9029 42.7143 60.2571V63.1714C42.7143 63.5257 42.8229 63.8 43.04 63.9943C43.2571 64.1886 43.5771 64.2857 44 64.2857H45.0286Z"
    fill="var(--color-bg-default)"
  />
  <path
    d="M56.4286 63.2571C56.4286 64.2171 56.1886 64.9143 55.7086 65.3486C55.24 65.7829 54.5086 66 53.5143 66L52.4857 66C51.4914 66 50.7543 65.7829 50.2743 65.3486C49.8057 64.9143 49.5714 64.2171 49.5714 63.2571V60.1714C49.5714 59.2114 49.8057 58.5143 50.2743 58.08C50.7543 57.6457 51.4914 57.4286 52.4857 57.4286L53.5143 57.4286C54.5086 57.4286 55.24 57.6457 55.7086 58.08C56.1886 58.5143 56.4286 59.2114 56.4286 60.1714V63.2571ZM54.7143 60.2571C54.7143 59.9029 54.6057 59.6286 54.3886 59.4343C54.1714 59.24 53.8514 59.1429 53.4286 59.1429H52.5714C52.1486 59.1429 51.8286 59.24 51.6114 59.4343C51.3943 59.6286 51.2857 59.9029 51.2857 60.2571V63.1714C51.2857 63.5257 51.3943 63.8 51.6114 63.9943C51.8286 64.1886 52.1486 64.2857 52.5714 64.2857H53.4286C53.8514 64.2857 54.1714 64.1886 54.3886 63.9943C54.6057 63.8 54.7143 63.5257 54.7143 63.1714V60.2571Z"
    fill="var(--color-bg-default)"
  />
  <path
    d="M61.0743 66C60.0686 66 59.3314 65.7886 58.8629 65.3657C58.3943 64.9314 58.16 64.2286 58.16 63.2571V60.1714C58.16 59.2114 58.3943 58.5143 58.8629 58.08C59.3429 57.6457 60.08 57.4286 61.0743 57.4286H63.2857V59.1429H61.1429C60.72 59.1429 60.4 59.24 60.1829 59.4343C59.9657 59.6286 59.8571 59.9029 59.8571 60.2571V63.1714C59.8571 63.5257 59.9657 63.8 60.1829 63.9943C60.4 64.1886 60.72 64.2857 61.1429 64.2857H63.2857V66H61.0743Z"
    fill="var(--color-bg-default)"
  />
  <path
    d="M163.6 36H132.4C131.075 36 130 37.0745 130 38.4V81.6C130 82.9255 131.075 84 132.4 84H163.6C164.925 84 166 82.9255 166 81.6V38.4C166 37.0745 164.925 36 163.6 36Z"
    fill="var(--color-bg-warning)"
  />
  <path
    fill-rule="evenodd"
    clip-rule="evenodd"
    d="M141.4 55.3333V54H139.64V55.3333H141.4ZM139.464 64.5467C139.358 64.6267 139.212 64.6667 139.024 64.6667H137V66H139.57C140.109 66 140.549 65.8667 140.89 65.6C141.23 65.3422 141.4 64.9867 141.4 64.5333V56.6667H137.88V58H139.64V64.2667C139.64 64.3822 139.581 64.4756 139.464 64.5467ZM144.568 56.9867V56.6667H143.16V66H144.938V63.3333H147.208C148.229 63.3333 148.98 63.1644 149.461 62.8267C149.954 62.4889 150.2 61.9467 150.2 61.2V58.8C150.2 58.0444 149.959 57.5022 149.478 57.1733C148.997 56.8356 148.241 56.6667 147.208 56.6667H145.976C145.401 56.6667 144.932 56.7733 144.568 56.9867ZM145.202 58.24C145.389 58.08 145.677 58 146.064 58H147.12C147.554 58 147.883 58.0756 148.106 58.2267C148.329 58.3778 148.44 58.5911 148.44 58.8667V61.1333C148.44 61.4089 148.329 61.6222 148.106 61.7733C147.883 61.9244 147.554 62 147.12 62H144.938L144.92 58.7333C144.92 58.5556 145.014 58.3911 145.202 58.24ZM155.92 63.3333C156.436 63.3333 156.876 63.2444 157.24 63.0667V63.3333C157.24 64.6667 157.24 64.6667 155.48 64.6667H152.84V66H157.24C158.212 66 159 65.403 159 64.6667V56.6667H154.952C153.931 56.6667 153.174 56.8356 152.682 57.1733C152.201 57.5111 151.96 58.0533 151.96 58.8V61.2C151.96 61.9556 152.201 62.5022 152.682 62.84C153.163 63.1689 153.919 63.3333 154.952 63.3333H155.92ZM156.958 61.7733C156.771 61.9244 156.483 62 156.096 62H155.04C154.606 62 154.277 61.9244 154.054 61.7733C153.831 61.6222 153.72 61.4089 153.72 61.1333V58.8667C153.72 58.5911 153.831 58.3778 154.054 58.2267C154.277 58.0756 154.606 58 155.04 58H157.24V61.2667C157.24 61.4444 157.146 61.6133 156.958 61.7733Z"
    fill="var(--color-bg-default)"
  />
  <path
    d="M115.6 36H84.4C83.0745 36 82 37.0745 82 38.4V81.6C82 82.9255 83.0745 84 84.4 84H115.6C116.925 84 118 82.9255 118 81.6V38.4C118 37.0745 116.925 36 115.6 36Z"
    fill="var(--color-control-typo-placeholder)"
  />
  <path
    d="M104 56.64C104 57.2 103.973 57.62 103.92 57.9C103.867 58.1667 103.747 58.44 103.56 58.72L101.04 61V63H99V60.5L101.92 57.58C101.973 57.3933 102 57.14 102 56.82V56.3C102 55.8867 101.88 55.5667 101.64 55.34C101.4 55.1133 101.033 55 100.54 55H98V53H100.3C102.54 53 104 54 104 56V56.64ZM101 65V67H99V65H101Z"
    fill="var(--color-bg-default)"
  />
</svg>
