<svg viewBox="0 0 34 40" xmlns="http://www.w3.org/2000/svg">
  <path
    d="M32 0H2C0.89543 0 0 0.89543 0 2V38C0 39.1046 0.89543 40 2 40H32C33.1046 40 34 39.1046 34 38V2C34 0.89543 33.1046 0 32 0Z"
  />
  <path
    d="M12.5 7.38195C12.2346 7.14443 11.8842 7 11.5 7C11.2472 7 11.009 7.06255 10.8 7.17301V7H10V12H11V8.5C11 8.22386 11.2239 8 11.5 8C11.7761 8 12 8.22386 12 8.5V12H13V8.5C13 8.22386 13.2239 8 13.5 8C13.7761 8 14 8.22386 14 8.5V12H15V8.41L14.9972 8.40771C14.9495 7.62226 14.2974 7 13.5 7C13.1158 7 12.7654 7.14443 12.5 7.38195Z"
    fill="white"
  />
  <path
    d="M19 10.75C19 11.17 18.87 11.4833 18.61 11.69C18.3567 11.8967 17.9867 12 17.5 12H16V11H17.45C17.63 11 17.7667 10.9633 17.86 10.89C17.9533 10.81 18 10.6967 18 10.55V10.45C18 10.15 17.8567 10 17.57 10H17.2C16.7333 10 16.5333 9.9 16.3 9.7C16.0733 9.49333 16 9.17 16 8.73V8.26C16 7.81333 16.0867 7.49333 16.34 7.3C16.5933 7.1 17.0067 7 17.5 7H19V8H17.55C17.3833 8 17.25 8.04 17.15 8.12C17.05 8.19333 17 8.30333 17 8.45V8.56C17 8.71333 17.0433 8.82667 17.13 8.9C17.2233 8.97333 17.34 9 17.48 9H17.63C18.0767 9 18.4167 9.12 18.65 9.34C18.8833 9.55333 19 9.87333 19 10.3V10.75Z"
    fill="white"
  />
  <path
    fill-rule="evenodd"
    clip-rule="evenodd"
    d="M23 11.8C22.7933 11.9333 22.5433 12 22.25 12H21.7C21.1133 12 20.6833 11.8767 20.41 11.63C20.1367 11.3767 20 10.9667 20 10.4V8.6C20 8.04 20.1367 7.63333 20.41 7.38C20.69 7.12667 21.12 7 21.7 7H24V13C24 13.5523 23.5523 14 23 14H20.5V13H22C22.84 13 23 13 23 12V11.8ZM22.35 11C22.57 11 22.7333 10.9433 22.84 10.83C22.9467 10.71 23 10.5833 23 10.45V8H21.75C21.5033 8 21.3167 8.05667 21.19 8.17C21.0633 8.28333 21 8.44333 21 8.65V10.35C21 10.5567 21.0633 10.7167 21.19 10.83C21.3167 10.9433 21.5033 11 21.75 11H22.35Z"
    fill="white"
  />
  <g opacity="0.6">
    <path
      fill-rule="evenodd"
      clip-rule="evenodd"
      d="M8 19H26V31H8V19ZM9 20.7071V29.2929L13.2929 25L9 20.7071ZM14 25.7071L9.70711 30H24.2929L20 25.7071L17 28.7071L14 25.7071ZM20.7071 25L25 29.2929V20.7071L20.7071 25ZM24.2929 20H9.70711L17 27.2929L24.2929 20Z"
      fill="white"
    />
  </g>
</svg>
