<svg viewBox="0 0 24 28" xmlns="http://www.w3.org/2000/svg">
  <rect width="24" height="28" rx="2" />
  <path
    d="M7.5 4.38195C7.23462 4.14443 6.88418 4 6.5 4C6.24718 4 6.00897 4.06255 5.8 4.17301V4H5V9H6V5.5C6 5.22386 6.22386 5 6.5 5C6.77614 5 7 5.22386 7 5.5V9H8V5.5C8 5.22386 8.22386 5 8.5 5C8.77614 5 9 5.22386 9 5.5V9H10V5.41L9.99721 5.40771C9.94953 4.62226 9.29744 4 8.5 4C8.11582 4 7.76538 4.14443 7.5 4.38195Z"
    fill="white"
  />
  <path
    d="M14 7.75C14 8.17 13.87 8.48333 13.61 8.69C13.3567 8.89667 12.9867 9 12.5 9H11V8H12.45C12.63 8 12.7667 7.96333 12.86 7.89C12.9533 7.81 13 7.69667 13 7.55V7.45C13 7.15 12.8567 7 12.57 7H12.2C11.7333 7 11.5333 6.9 11.3 6.7C11.0733 6.49333 11 6.17 11 5.73V5.26C11 4.81333 11.0867 4.49333 11.34 4.3C11.5933 4.1 12.0067 4 12.5 4H14V5H12.55C12.3833 5 12.25 5.04 12.15 5.12C12.05 5.19333 12 5.30333 12 5.45V5.56C12 5.71333 12.0433 5.82667 12.13 5.9C12.2233 5.97333 12.34 6 12.48 6H12.63C13.0767 6 13.4167 6.12 13.65 6.34C13.8833 6.55333 14 6.87333 14 7.3V7.75Z"
    fill="white"
  />
  <path
    fill-rule="evenodd"
    clip-rule="evenodd"
    d="M18 8.8C17.7933 8.93333 17.5433 9 17.25 9H16.7C16.1133 9 15.6833 8.87667 15.41 8.63C15.1367 8.37667 15 7.96667 15 7.4V5.6C15 5.04 15.1367 4.63333 15.41 4.38C15.69 4.12667 16.12 4 16.7 4H19V10C19 10.5523 18.5523 11 18 11H15.5V10H17C17.84 10 18 10 18 9V8.8ZM17.35 8C17.57 8 17.7333 7.94333 17.84 7.83C17.9467 7.71 18 7.58333 18 7.45V5H16.75C16.5033 5 16.3167 5.05667 16.19 5.17C16.0633 5.28333 16 5.44333 16 5.65V7.35C16 7.55667 16.0633 7.71667 16.19 7.83C16.3167 7.94333 16.5033 8 16.75 8H17.35Z"
    fill="white"
  />
  <path
    opacity="0.6"
    fill-rule="evenodd"
    clip-rule="evenodd"
    d="M5 13H19V24H5V13ZM6.70711 14L12 19.2929L17.2929 14H6.70711ZM18 14.7071L14.2071 18.5L18 22.2929V14.7071ZM17.2929 23L13.5 19.2071L12 20.7071L10.5 19.2071L6.70711 23H17.2929ZM6 22.2929V14.7071L9.79289 18.5L6 22.2929Z"
    fill="white"
  />
</svg>
