<svg width="12" height="12" viewBox="0 0 12 12" fill="none" xmlns="http://www.w3.org/2000/svg">
  <path
    d="M6 1.00111C5.96456 1.00037 6.03561 1 6 1C5.96439 1 6.03544 1.00037 6 1.00111C5.45184 1.74526 4.6632 2.71695 4.28546 4H7.71454C7.3368 2.71695 6.54816 1.74526 6 1.00111Z"
    fill="black"
  />
  <path
    d="M8.7483 4C8.45975 2.87574 7.96527 1.9531 7.49087 1.22604C8.87929 1.65918 10.0078 2.68131 10.584 4H8.7483Z"
    fill="black"
  />
  <path
    d="M7.93087 5H4.06913C4.0246 5.31697 4 5.65001 4 6.00001C4 6.35 4.0246 6.68303 4.06912 7H7.93088C7.9754 6.68303 8 6.35 8 6.00001C8 5.65001 7.9754 5.31697 7.93087 5Z"
    fill="black"
  />
  <path
    d="M8.93829 7C8.97813 6.68025 9 6.34696 9 6.00001C9 5.65305 8.97813 5.31975 8.93829 5H10.9C10.9656 5.32311 11 5.65753 11 6C11 6.34247 10.9656 6.67689 10.9 7H8.93829Z"
    fill="black"
  />
  <path
    d="M7.71454 8H4.28546C4.66319 9.28304 5.45184 10.2547 6 10.9989C6.03544 10.9996 5.96438 11 6 11C6.03562 11 5.96456 10.9996 6 10.9989C6.54816 10.2547 7.33681 9.28304 7.71454 8Z"
    fill="black"
  />
  <path
    d="M7.49089 10.7739C7.96528 10.0469 8.45976 9.12425 8.7483 8H10.584C10.0078 9.31868 8.8793 10.3408 7.49089 10.7739Z"
    fill="black"
  />
  <path
    d="M1.41604 4C1.9922 2.68131 3.12071 1.65918 4.50913 1.22604C4.03473 1.9531 3.54025 2.87574 3.2517 4H1.41604Z"
    fill="black"
  />
  <path
    d="M1.10002 5H3.06171C3.02187 5.31975 3 5.65305 3 6.00001C3 6.34696 3.02187 6.68025 3.06171 7H1.10002C1.03443 6.67689 1 6.34247 1 6C1 5.65753 1.03443 5.32311 1.10002 5Z"
    fill="black"
  />
  <path
    d="M1.41604 8H3.2517C3.54024 9.12425 4.03472 10.0469 4.50911 10.7739C3.1207 10.3408 1.9922 9.31868 1.41604 8Z"
    fill="black"
  />
</svg>
