<svg width="20" height="20" viewBox="0 0 20 20" fill="none" xmlns="http://www.w3.org/2000/svg">
  <path
    d="M11.6341 0C12.7896 1.26624 13.9293 3.28687 14.5409 5.86713H19.1679C17.8342 2.81464 15.0206 0.556641 11.6341 0Z"
    fill="black"
  />
  <path
    d="M10 1.18237C10.8638 2.06171 11.8782 3.66577 12.4786 5.86713H7.52142C8.12177 3.66577 9.13623 2.06171 10 1.18237Z"
    fill="black"
  />
  <path
    d="M13 9.86713C13 9.16669 12.9553 8.49933 12.8748 7.86713H7.12524C7.04468 8.49933 7 9.16669 7 9.86713C7 10.5665 7.04816 11.2339 7.13428 11.8671H12.8657C12.9518 11.2339 13 10.5665 13 9.86713Z"
    fill="black"
  />
  <path
    d="M12.4462 13.8671H7.55383C8.16614 16.0018 9.17493 17.5891 10 18.4963C10.8251 17.5891 11.8339 16.0018 12.4462 13.8671Z"
    fill="black"
  />
  <path
    d="M5.11829 11.8671C5.04175 11.2266 5 10.5593 5 9.86713C5 9.1759 5.03912 8.50848 5.11157 7.86713H0.200073C0.0689087 8.51337 0 9.18219 0 9.86713C0 10.5521 0.0688477 11.2209 0.200012 11.8671H5.11829Z"
    fill="black"
  />
  <path
    d="M0.832092 13.8671H5.48413C6.13214 16.4744 7.32843 18.4946 8.43445 19.7453C5.01733 19.2081 2.1748 16.9402 0.832092 13.8671Z"
    fill="black"
  />
  <path
    d="M14.5159 13.8671H19.1679C17.8252 16.9402 14.9827 19.2081 11.5656 19.7453C12.6716 18.4946 13.8679 16.4744 14.5159 13.8671Z"
    fill="black"
  />
  <path
    d="M19.8 11.8671H14.8817C14.9583 11.2266 15 10.5593 15 9.86713C15 9.1759 14.9609 8.50848 14.8884 7.86713H19.7999C19.9311 8.51337 20 9.18219 20 9.86713C20 10.5521 19.9312 11.2209 19.8 11.8671Z"
    fill="black"
  />
  <path
    d="M8.36591 0C7.21045 1.26624 6.07068 3.28687 5.45911 5.86713H0.832092C2.16583 2.81464 4.97937 0.556641 8.36591 0Z"
    fill="black"
  />
</svg>
