<svg width="16" height="16" viewBox="0 0 16 16" fill="none" xmlns="http://www.w3.org/2000/svg">
  <path
    d="M9.22907 1.10755C9.63429 1.60944 10.0491 2.19052 10.43 2.83233C10.8205 3.49036 11.1799 4.2199 11.456 5H14.3264C13.3716 2.99019 11.4873 1.50752 9.22907 1.10755Z"
    fill="black"
  />
  <path
    d="M8 1.20572C8.50539 1.76861 9.0687 2.49796 9.57002 3.34269C9.87753 3.86085 10.1585 4.417 10.3885 5H5.61152C5.84148 4.417 6.12247 3.86085 6.42998 3.34269C6.9313 2.49796 7.49462 1.76861 8 1.20572Z"
    fill="black"
  />
  <path
    d="M10.7217 6H5.27826C5.10257 6.64783 5 7.31896 5 8.00001C5 8.68104 5.10256 9.35217 5.27825 10H10.7217C10.8974 9.35217 11 8.68104 11 8.00001C11 7.31896 10.8974 6.64783 10.7217 6Z"
    fill="black"
  />
  <path
    d="M10.3885 11H5.61151C5.84147 11.583 6.12247 12.1392 6.42998 12.6573C6.9313 13.5021 7.49462 14.2314 8 14.7943C8.50539 14.2314 9.0687 13.5021 9.57002 12.6573C9.87753 12.1392 10.1585 11.583 10.3885 11Z"
    fill="black"
  />
  <path
    d="M9.22908 14.8925C9.63429 14.3906 10.0491 13.8095 10.43 13.1677C10.8205 12.5097 11.1799 11.7801 11.456 11H14.3264C13.3716 13.0098 11.4873 14.4925 9.22908 14.8925Z"
    fill="black"
  />
  <path
    d="M11.754 10C11.9095 9.35583 12 8.68577 12 8.00001C12 7.31424 11.9095 6.64417 11.754 6H14.7101C14.8987 6.63371 15 7.30503 15 8C15 8.69497 14.8987 9.36629 14.7101 10H11.754Z"
    fill="black"
  />
  <path
    d="M5.57002 2.83233C5.95092 2.19052 6.36571 1.60944 6.77093 1.10754C4.51267 1.50752 2.62839 2.99019 1.67363 5H4.54398C4.82009 4.2199 5.1795 3.49036 5.57002 2.83233Z"
    fill="black"
  />
  <path
    d="M1.28988 6H4.24599C4.09047 6.64417 4 7.31424 4 8.00001C4 8.68577 4.09047 9.35583 4.24599 10H1.28988C1.10128 9.36629 1 8.69497 1 8C1 7.30503 1.10128 6.63371 1.28988 6Z"
    fill="black"
  />
  <path
    d="M1.67363 11H4.54398C4.82009 11.7801 5.17949 12.5097 5.57002 13.1677C5.95091 13.8095 6.36571 14.3906 6.77092 14.8925C4.51266 14.4925 2.62839 13.0098 1.67363 11Z"
    fill="black"
  />
</svg>
