<svg width="16" height="16" viewBox="0 0 16 16" fill="none" xmlns="http://www.w3.org/2000/svg">
  <path
    d="M7.48712 0C6.45618 0.624741 4.83939 1.68588 3.47647 2.83438C2.59421 3.57787 2.0834 4.15416 1.79977 4.52582C2.7507 5.46289 3.87369 6.44727 5.05301 7.30917C5.69348 6.23679 6.9715 4.52194 8.99594 2.68486C9.9953 1.77798 11.2029 0.850174 12.4013 0H15.9815C14.2007 1.14087 11.957 2.69859 10.34 4.16594C8.35422 5.9679 7.20639 7.58394 6.7225 8.41475C7.31561 8.76442 7.9093 9.06544 8.48987 9.29767C9.46121 9.6862 10.3213 9.98714 11.0983 10.2188C11.4952 9.13667 12.3075 7.50288 13.6651 5.97319C14.5108 5.0202 15.3226 4.24007 16 3.6489V6.40048C15.729 6.67726 15.4478 6.97754 15.1609 7.30072C14.0664 8.53406 13.3979 9.83694 13.0562 10.6971C14.1558 10.9001 15.0911 10.9524 16 10.9436V12.9432C15.7527 12.9453 15.5036 12.9433 15.2508 12.9359L15.2715 12.9767C15.5096 13.4447 15.7628 13.9162 16 14.3335V16H14.6613C14.2872 15.3929 13.8582 14.6095 13.4889 13.8835C13.2796 13.4719 13.0826 13.0656 12.9191 12.704C12.2419 12.5881 11.5137 12.4219 10.7094 12.1888C10.8641 12.6576 11.0484 13.1637 11.2611 13.6761C11.6061 14.5074 12.0099 15.3163 12.4591 16H10.1422C9.86835 15.4822 9.62576 14.9533 9.41385 14.4427C8.94775 13.3197 8.60477 12.223 8.39438 11.4072C8.18347 11.327 7.96777 11.2429 7.74707 11.1546C6.37189 10.6045 4.9758 9.74643 3.67874 8.78058C3.89691 9.93744 4.27408 11.392 4.91669 13.0726C5.27847 14.0188 5.78943 15.0475 6.31442 16H4.04993C3.67422 15.2645 3.32458 14.5088 3.04858 13.7869C1.8765 10.7215 1.51154 8.30978 1.42035 6.91791C0.907501 6.45354 0.430298 5.99243 0 5.55333V2.56738C0.12265 2.71881 0.260345 2.88277 0.412537 3.05754C0.810486 2.5757 1.38086 1.98491 2.18768 1.30501C2.72882 0.848984 3.30359 0.408173 3.86871 0H7.48712Z"
    fill="black"
  />
  <path
    d="M1.49622 16C1.0192 15.0508 0.624176 14.024 0.406494 12.9478C0.227203 12.0612 0.0938416 11.1811 0 10.333V16H1.49622Z"
    fill="black"
  />
</svg>
