<svg viewBox="0 0 420 280">
  <path
    fillRule="evenodd"
    clipRule="evenodd"
    d="M216.973 13.5C216.973 14.8807 215.854 16 214.473 16C213.092 16 211.973 14.8807 211.973 13.5C211.973 12.1193 213.092 11 214.473 11C215.854 11 216.973 12.1193 216.973 13.5ZM215.973 13.5C215.973 14.3284 215.301 15 214.473 15C213.644 15 212.973 14.3284 212.973 13.5C212.973 12.6716 213.644 12 214.473 12C215.301 12 215.973 12.6716 215.973 13.5Z"
  />
  <path
    fillRule="evenodd"
    clipRule="evenodd"
    d="M116.973 33.5C116.973 34.8807 115.854 36 114.473 36C113.092 36 111.973 34.8807 111.973 33.5C111.973 32.1193 113.092 31 114.473 31C115.854 31 116.973 32.1193 116.973 33.5ZM115.973 33.5C115.973 34.3284 115.301 35 114.473 35C113.644 35 112.973 34.3284 112.973 33.5C112.973 32.6716 113.644 32 114.473 32C115.301 32 115.973 32.6716 115.973 33.5Z"
  />
  <path
    fillRule="evenodd"
    clipRule="evenodd"
    d="M228.473 163C229.854 163 230.973 161.881 230.973 160.5C230.973 159.119 229.854 158 228.473 158C227.092 158 225.973 159.119 225.973 160.5C225.973 161.881 227.092 163 228.473 163ZM228.473 162C229.301 162 229.973 161.328 229.973 160.5C229.973 159.672 229.301 159 228.473 159C227.644 159 226.973 159.672 226.973 160.5C226.973 161.328 227.644 162 228.473 162Z"
  />
  <path
    fillRule="evenodd"
    clipRule="evenodd"
    d="M147.973 113.5C147.973 114.881 146.854 116 145.473 116C144.092 116 142.973 114.881 142.973 113.5C142.973 112.119 144.092 111 145.473 111C146.854 111 147.973 112.119 147.973 113.5ZM146.973 113.5C146.973 114.328 146.301 115 145.473 115C144.644 115 143.973 114.328 143.973 113.5C143.973 112.672 144.644 112 145.473 112C146.301 112 146.973 112.672 146.973 113.5Z"
  />
  <path
    fillRule="evenodd"
    clipRule="evenodd"
    d="M278.473 174C279.854 174 280.973 172.881 280.973 171.5C280.973 170.119 279.854 169 278.473 169C277.092 169 275.973 170.119 275.973 171.5C275.973 172.881 277.092 174 278.473 174ZM278.473 173C279.301 173 279.973 172.328 279.973 171.5C279.973 170.672 279.301 170 278.473 170C277.644 170 276.973 170.672 276.973 171.5C276.973 172.328 277.644 173 278.473 173Z"
  />
  <path
    fillRule="evenodd"
    clipRule="evenodd"
    d="M340.973 44.5C340.973 45.8807 339.854 47 338.473 47C337.092 47 335.973 45.8807 335.973 44.5C335.973 43.1193 337.092 42 338.473 42C339.854 42 340.973 43.1193 340.973 44.5ZM339.973 44.5C339.973 45.3284 339.301 46 338.473 46C337.644 46 336.973 45.3284 336.973 44.5C336.973 43.6716 337.644 43 338.473 43C339.301 43 339.973 43.6716 339.973 44.5Z"
  />
  <path
    fillRule="evenodd"
    clipRule="evenodd"
    d="M80.4729 158C81.8536 158 82.9729 156.881 82.9729 155.5C82.9729 154.119 81.8536 153 80.4729 153C79.0922 153 77.9729 154.119 77.9729 155.5C77.9729 156.881 79.0922 158 80.4729 158ZM80.4729 157C81.3013 157 81.9729 156.328 81.9729 155.5C81.9729 154.672 81.3013 154 80.4729 154C79.6445 154 78.9729 154.672 78.9729 155.5C78.9729 156.328 79.6445 157 80.4729 157Z"
  />
  <path
    d="M249.417 52.006L250.611 47.8671C250.687 47.6018 250.964 47.4487 251.229 47.5252C251.495 47.6017 251.648 47.8788 251.571 48.1441L250.378 52.283C249.871 54.0421 248.344 55.3152 246.523 55.4977C245.108 55.6394 243.922 56.6281 243.528 57.9943L242.335 62.1332C242.259 62.3985 241.982 62.5516 241.716 62.4751C241.451 62.3986 241.298 62.1215 241.374 61.8562L242.567 57.7173C243.075 55.9582 244.602 54.6851 246.423 54.5026C247.838 54.3609 249.024 53.3722 249.417 52.006Z"
  />
  <path
    d="M123.913 152.051L122.721 155.699C122.202 157.29 122.758 159.034 124.103 160.03C125.793 161.282 126.493 163.476 125.84 165.475L124.648 169.123C124.562 169.386 124.28 169.529 124.018 169.443C123.755 169.358 123.612 169.075 123.698 168.813L124.889 165.165C125.409 163.574 124.852 161.83 123.508 160.834C121.817 159.582 121.117 157.388 121.77 155.389L122.962 151.741C123.048 151.478 123.33 151.335 123.593 151.421C123.855 151.506 123.998 151.789 123.913 152.051Z"
  />
  <path
    d="M352.144 208.097L355.599 209.767C355.848 209.887 356.147 209.783 356.267 209.534C356.387 209.285 356.283 208.986 356.035 208.866L352.579 207.196C350.685 206.281 348.418 206.68 346.95 208.187C345.783 209.386 343.98 209.704 342.473 208.976L339.018 207.306C338.769 207.185 338.47 207.29 338.35 207.538C338.23 207.787 338.334 208.086 338.583 208.206L342.038 209.876C343.932 210.791 346.199 210.392 347.667 208.885C348.834 207.686 350.638 207.368 352.144 208.097Z"
  />
  <path
    d="M339.087 87.3679L336.262 89.9662C335.031 91.0991 334.662 92.8928 335.348 94.4193C336.209 96.3385 335.746 98.5936 334.198 100.018L331.374 102.616C331.17 102.803 330.854 102.79 330.667 102.587C330.48 102.384 330.493 102.067 330.697 101.88L333.521 99.282C334.752 98.1491 335.121 96.3554 334.435 94.8289C333.574 92.9097 334.037 90.6545 335.585 89.2302L338.41 86.632C338.613 86.445 338.929 86.4582 339.116 86.6614C339.303 86.8646 339.29 87.1809 339.087 87.3679Z"
  />
  <path
    d="M297.675 144.924L298.531 141.183C298.593 140.914 298.861 140.746 299.13 140.807C299.4 140.869 299.568 141.137 299.506 141.406L298.65 145.147C298.181 147.198 296.452 148.718 294.358 148.921C292.693 149.083 291.317 150.292 290.944 151.923L290.088 155.664C290.026 155.934 289.758 156.102 289.489 156.04C289.22 155.979 289.051 155.71 289.113 155.441L289.969 151.7C290.439 149.65 292.168 148.129 294.261 147.926C295.927 147.764 297.302 146.555 297.675 144.924Z"
  />
  <path
    d="M46.1979 173.568L49.7223 175.086C51.2589 175.748 53.0469 175.353 54.1611 174.105C55.5618 172.535 57.8098 172.038 59.7417 172.871L63.2661 174.389C63.5197 174.499 63.6367 174.793 63.5274 175.046C63.4181 175.3 63.124 175.417 62.8704 175.308L59.346 173.789C57.8093 173.127 56.0213 173.522 54.9072 174.771C53.5064 176.34 51.2585 176.837 49.3265 176.005L45.8021 174.486C45.5485 174.377 45.4315 174.082 45.5408 173.829C45.6501 173.575 45.9443 173.458 46.1979 173.568Z"
  />
  <path
    d="M251.169 156.396L250.341 152.648C250.282 152.378 250.015 152.208 249.745 152.268C249.476 152.327 249.305 152.594 249.365 152.864L250.192 156.611C250.646 158.665 252.363 160.199 254.455 160.418C256.119 160.593 257.485 161.813 257.845 163.447L258.673 167.194C258.732 167.464 258.999 167.634 259.269 167.575C259.538 167.515 259.709 167.248 259.649 166.979L258.822 163.231C258.368 161.177 256.651 159.643 254.559 159.424C252.895 159.249 251.529 158.029 251.169 156.396Z"
  />
  <path
    d="M77.7058 84.4163C77.553 85.7705 78.7851 86.8689 80.1129 86.5622L80.2173 86.5381C82.2362 86.0719 84.0797 87.8096 83.7336 89.8525C83.5066 91.1918 84.7153 92.331 86.0389 92.0254C88.0578 91.5592 89.9013 93.2968 89.5551 95.3397C89.3282 96.679 90.5368 97.8183 91.8604 97.5126C93.8793 97.0464 95.7228 98.784 95.3767 100.827C95.1497 102.166 96.3583 103.305 97.6819 103C99.7008 102.534 101.544 104.271 101.198 106.314C100.971 107.654 102.18 108.793 103.503 108.487L103.608 108.463C105.608 108.001 107.464 109.656 107.234 111.695L107.065 113.188C107.034 113.462 106.787 113.659 106.512 113.628C106.238 113.597 106.041 113.35 106.072 113.075L106.24 111.583C106.393 110.229 105.161 109.131 103.833 109.437L103.728 109.461C101.71 109.928 99.8661 108.19 100.212 106.147C100.439 104.808 99.2306 103.669 97.907 103.974C95.8881 104.44 94.0446 102.703 94.3907 100.66C94.6176 99.3205 93.409 98.1813 92.0854 98.487C90.0665 98.9532 88.223 97.2155 88.5692 95.1726C88.7961 93.8333 87.5875 92.6941 86.2639 92.9997C84.245 93.4659 82.4015 91.7283 82.7476 89.6854C82.9746 88.346 81.766 87.2068 80.4423 87.5125L80.3379 87.5366C78.3378 87.9985 76.482 86.344 76.7121 84.3042L76.8804 82.812C76.9114 82.5376 77.1589 82.3403 77.4333 82.3713C77.7077 82.4022 77.9051 82.6497 77.8741 82.9242L77.7058 84.4163Z"
  />
  <path
    d="M306.406 17.128C305.65 15.9941 306.243 14.4535 307.564 14.1181L309.019 13.7485C309.287 13.6805 309.448 13.4085 309.381 13.1408C309.313 12.8732 309.04 12.7113 308.773 12.7792L307.317 13.1488C305.328 13.654 304.436 15.9747 305.574 17.6827L305.634 17.7719C306.387 18.9022 305.748 20.4353 304.415 20.6961C302.382 21.0939 301.407 23.4323 302.556 25.1564C303.31 26.2867 302.671 27.8198 301.338 28.0806C299.304 28.4784 298.33 30.8168 299.479 32.5409C300.233 33.6712 299.594 35.2043 298.261 35.4651C296.227 35.8629 295.253 38.2013 296.402 39.9254C297.156 41.0557 296.517 42.5888 295.183 42.8496C293.15 43.2474 292.176 45.5858 293.325 47.3099L293.384 47.3991C294.14 48.533 293.548 50.0736 292.227 50.409L290.772 50.7786C290.504 50.8466 290.342 51.1187 290.41 51.3863C290.478 51.6539 290.75 51.8158 291.018 51.7479L292.473 51.3783C294.463 50.8731 295.355 48.5524 294.216 46.8444L294.157 46.7552C293.403 45.6249 294.042 44.0918 295.375 43.831C297.409 43.4332 298.383 41.0948 297.234 39.3707C296.481 38.2404 297.119 36.7073 298.453 36.4465C300.486 36.0487 301.461 33.7103 300.311 31.9862C299.558 30.8559 300.197 29.3228 301.53 29.062C303.563 28.6642 304.538 26.3258 303.388 24.6017C302.635 23.4714 303.274 21.9383 304.607 21.6775C306.64 21.2797 307.615 18.9413 306.466 17.2172L306.406 17.128Z"
  />
  <path
    d="M372.131 122.137C370.889 121.575 369.465 122.41 369.349 123.768L369.34 123.874C369.163 125.939 366.943 127.159 365.105 126.202C363.9 125.574 362.445 126.374 362.329 127.728C362.152 129.792 359.932 131.012 358.094 130.055C356.889 129.427 355.434 130.227 355.318 131.581C355.141 133.645 352.921 134.865 351.083 133.908C349.878 133.281 348.423 134.081 348.307 135.434C348.13 137.498 345.91 138.719 344.072 137.761C342.868 137.134 341.412 137.934 341.296 139.287L341.287 139.394C341.112 141.439 338.967 142.697 337.097 141.851L335.728 141.232C335.477 141.118 335.365 140.822 335.479 140.57C335.593 140.319 335.889 140.207 336.14 140.321L337.509 140.94C338.75 141.501 340.174 140.666 340.291 139.309L340.3 139.202C340.477 137.137 342.697 135.917 344.534 136.874C345.739 137.502 347.195 136.702 347.311 135.349C347.487 133.284 349.708 132.064 351.545 133.021C352.75 133.649 354.206 132.849 354.321 131.495C354.498 129.431 356.718 128.211 358.556 129.168C359.761 129.796 361.216 128.996 361.332 127.642C361.509 125.578 363.729 124.358 365.567 125.315C366.772 125.942 368.227 125.142 368.343 123.789L368.352 123.682C368.528 121.637 370.672 120.379 372.543 121.225L373.911 121.844C374.163 121.958 374.274 122.254 374.16 122.506C374.047 122.757 373.75 122.869 373.499 122.755L372.131 122.137Z"
  />
  <path
    d="M152.92 18.0712C151.575 17.8539 150.849 16.3717 151.501 15.1754L152.22 13.8572C152.353 13.6148 152.263 13.311 152.021 13.1788C151.779 13.0465 151.475 13.1358 151.343 13.3782L150.623 14.6964C149.64 16.4984 150.734 18.7311 152.761 19.0584L152.866 19.0755C154.208 19.2922 154.897 20.8034 154.181 21.9579C153.089 23.719 154.14 26.024 156.186 26.3545C157.527 26.5711 158.216 28.0823 157.5 29.2369C156.408 30.9979 157.459 33.3029 159.505 33.6334C160.846 33.85 161.535 35.3612 160.819 36.5158C159.728 38.2769 160.779 40.5819 162.824 40.9123C164.165 41.129 164.854 42.6402 164.139 43.7947C163.047 45.5558 164.098 47.8608 166.143 48.1912L166.249 48.2083C167.594 48.4257 168.321 49.9079 167.668 51.1042L166.949 52.4224C166.817 52.6648 166.906 52.9685 167.148 53.1008C167.391 53.2331 167.694 53.1438 167.827 52.9013L168.546 51.5832C169.529 49.7812 168.435 47.5485 166.409 47.2211L166.303 47.204C164.962 46.9874 164.273 45.4762 164.988 44.3216C166.08 42.5606 165.029 40.2556 162.984 39.9251C161.643 39.7085 160.953 38.1973 161.669 37.0427C162.761 35.2816 161.71 32.9766 159.664 32.6462C158.323 32.4295 157.634 30.9183 158.35 29.7638C159.442 28.0027 158.391 25.6977 156.345 25.3673C155.004 25.1506 154.315 23.6394 155.031 22.4848C156.123 20.7238 155.071 18.4188 153.026 18.0883L152.92 18.0712Z"
  />
  <path
    fillRule="evenodd"
    clipRule="evenodd"
    d="M206.13 75.3284C206.516 76.2506 205.913 77.4851 204.622 78.7438C206.912 80.5436 208.49 83.2084 208.863 86.246C210.104 86.707 210.973 87.7666 210.973 89C210.973 90.4743 209.732 91.7002 208.097 91.9524C206.402 96.0589 202.358 98.9489 197.64 98.9489C191.394 98.9489 186.331 93.8858 186.331 87.6403C186.331 84.4998 187.611 81.6584 189.678 79.6093C190.991 78.2039 193.203 76.7367 195.888 75.6148C200.76 73.579 205.346 73.4508 206.13 75.3284ZM194.96 91.7046C193.938 92.8178 192.795 93.817 191.55 94.6809C193.182 96.094 195.311 96.9489 197.64 96.9489C201.521 96.9489 204.851 94.5733 206.248 91.1893L206.678 90.1476L207.792 89.9758C208.701 89.8355 208.973 89.2547 208.973 89C208.973 88.7753 208.8 88.3559 208.167 88.1209L207.027 87.6974L206.878 86.4901C206.552 83.839 205.11 81.5327 203.036 80.0549C202.143 80.6942 201.096 81.3133 199.934 81.8728C199.56 83.7875 198.918 85.606 198.048 87.2878C197.115 86.1664 195.746 85.7036 194.696 86.2532C193.432 86.9157 193.112 88.7982 193.981 90.4579C194.242 90.9556 194.58 91.3767 194.96 91.7046Z"
  />
  <path
    d="M112.973 219C112.973 221.209 111.182 223 108.973 223C106.764 223 104.973 221.209 104.973 219C104.973 216.791 106.764 215 108.973 215C111.182 215 112.973 216.791 112.973 219Z"
  />
  <path
    d="M335.973 253C335.973 255.209 334.182 257 331.973 257C329.764 257 327.973 255.209 327.973 253C327.973 250.791 329.764 249 331.973 249C334.182 249 335.973 250.791 335.973 253Z"
  />
  <path
    fillRule="evenodd"
    clipRule="evenodd"
    d="M263.897 84.9442C258.001 84.594 253.498 84.3267 252.473 92.5C251.832 97.6058 250.268 98.9632 248.974 100.086C247.655 101.232 246.616 102.133 247.124 106.517C245.344 106.748 243.504 106.882 241.624 106.882C228.674 106.882 221.247 105.58 215.97 104.252C214.645 103.919 213.451 103.583 212.328 103.261L211.768 103.1L211.767 103.1C210.854 102.838 209.978 102.586 209.123 102.361C207.054 101.816 205.059 101.411 202.735 101.331C199.151 101.206 196.581 101.283 194.815 101.434C193.932 101.509 193.241 101.604 192.72 101.704C192.226 101.798 191.808 101.911 191.523 102.054L191.543 102.093C190.824 102.189 190.16 102.352 189.578 102.557C180.729 105.671 160.285 133.385 159.98 137.121C159.877 138.377 160.911 139.948 162.607 141.647C162.32 141.874 162.083 142.175 161.93 142.57C161.356 144.05 160.826 146.361 160.351 149.065C159.872 151.789 159.439 154.979 159.074 158.256C158.344 164.805 157.881 171.756 157.881 176.107C157.881 180.506 158.739 186.116 159.657 191.37C159.893 192.723 160.133 194.051 160.364 195.33C161.04 199.072 161.642 202.406 161.867 204.77C161.912 205.251 161.829 205.958 161.584 206.896C161.343 207.818 160.964 208.894 160.476 210.085C159.499 212.466 158.115 215.234 156.616 218.026C155.119 220.815 153.52 223.606 152.118 226.034L151.541 227.033C150.392 229.019 149.411 230.715 148.809 231.856C147.419 234.491 143.812 241.882 140.517 249.03C138.869 252.606 137.294 256.132 136.109 258.981C135.518 260.404 135.02 261.668 134.658 262.69C134.31 263.673 134.05 264.535 133.998 265.101C133.909 266.089 134.055 266.907 134.432 267.554C134.816 268.21 135.376 268.581 135.911 268.779C136.431 268.971 136.939 269.005 137.294 268.999C137.476 268.996 137.63 268.982 137.741 268.969C137.776 268.965 137.806 268.96 137.833 268.956H165.312C165.822 268.956 166.25 268.573 166.306 268.066C166.497 266.337 165.811 265.016 165.138 264.046C164.929 263.744 164.687 263.431 164.484 263.169C164.383 263.039 164.292 262.921 164.219 262.823C164.065 262.616 163.969 262.468 163.91 262.362C163.949 262.289 164.005 262.196 164.081 262.078C164.335 261.685 164.742 261.144 165.296 260.453C166.182 259.347 167.39 257.925 168.836 256.222L168.839 256.219C169.194 255.801 169.564 255.365 169.947 254.913C173.819 250.346 178.973 244.174 183.891 237.199C191.997 225.704 195.312 215.717 197.017 209.551C201.362 214.93 206.736 223.696 210.065 230.919C214.074 239.617 219.916 252.67 221.629 257.827C222.051 259.096 222.114 259.91 222.114 260.622C222.114 260.782 222.11 260.95 222.106 261.127L222.105 261.13C222.09 261.723 222.073 262.413 222.204 263.205C222.382 264.274 223.065 265.083 223.71 265.626C224.365 266.177 225.095 266.554 225.595 266.742C225.675 266.772 225.759 266.792 225.844 266.801C230.864 267.32 238.423 267.318 244.686 267.19C245.594 267.171 246.476 267.15 247.32 267.127C248.006 267.675 248.874 268 249.814 268H290.131C292.228 268 293.968 266.382 294.121 264.291L299.66 188.291C299.829 185.973 297.994 184 295.671 184H244.275C241.951 184 240.117 185.973 240.286 188.291L244.101 240.643L243.753 239.748L243.751 239.743L243.75 239.74C243.366 238.755 242.973 237.746 242.573 236.721C239.131 227.896 235.137 217.801 231.749 210.696C225.131 196.814 209.246 169.345 201.685 157.149C201.597 157.006 201.474 156.888 201.328 156.806L201.19 156.728C201.863 156.252 202.445 152.073 203.193 146.699C203.647 143.435 204.163 139.73 204.797 136.147C209.583 137.283 216.133 138.253 223.278 137.941C235.726 137.396 251.173 132.366 262.538 125.924C263.656 125.966 264.873 125.965 266.197 125.917C283.088 125.305 296.965 115.738 292.973 103.5C290.791 96.812 288.134 95.6309 286.122 94.7367C284.452 93.9947 283.227 93.4503 283.088 90.1202C282.842 84.2458 279.308 83.0907 273.473 84.5C270.107 85.313 266.829 85.1183 263.897 84.9442ZM281.519 266H290.131C291.18 266 292.05 265.191 292.126 264.145L297.665 188.145C297.75 186.987 296.833 186 295.671 186H244.275C243.113 186 242.196 186.987 242.28 188.145L247.82 264.145C247.896 265.191 248.766 266 249.814 266H259.062C257.142 250.369 255.251 232.791 254.417 219.419C253.991 212.582 253.837 206.799 254.107 202.93C254.24 201.026 254.482 199.459 254.911 198.458C255.119 197.975 255.455 197.416 256.042 197.147C256.727 196.834 257.388 197.062 257.864 197.404C258.738 198.032 259.362 199.254 259.856 200.661C260.37 202.126 260.815 204.017 261.204 206.23C261.983 210.662 262.559 216.515 262.978 223.124C263.797 236.04 264.023 251.945 263.964 266H276.981C276.929 251.946 277.127 236.044 277.843 223.132C278.21 216.525 278.714 210.677 279.394 206.251C279.734 204.041 280.123 202.156 280.57 200.699C280.794 199.97 281.039 199.325 281.312 198.79C281.579 198.266 281.905 197.783 282.319 197.443C282.75 197.09 283.426 196.799 284.137 197.171C284.695 197.463 284.987 198.043 285.159 198.501C285.529 199.486 285.739 201.037 285.855 202.939C286.091 206.799 285.957 212.575 285.584 219.411C284.855 232.784 283.2 250.366 281.519 266ZM278.981 266H279.507C281.195 250.324 282.857 232.683 283.587 219.302C283.96 212.475 284.087 206.797 283.859 203.061C283.749 201.254 283.56 200.004 283.322 199.304C283.252 199.408 283.176 199.538 283.093 199.699C282.891 200.096 282.685 200.623 282.482 201.285C282.075 202.61 281.705 204.387 281.371 206.555C280.705 210.885 280.206 216.658 279.84 223.243C279.126 236.101 278.929 251.961 278.981 266ZM261.077 266H261.964C262.023 251.962 261.797 236.105 260.982 223.251C260.565 216.668 259.994 210.9 259.234 206.576C258.853 204.412 258.431 202.641 257.968 201.323C257.538 200.095 257.125 199.42 256.808 199.121C256.79 199.156 256.77 199.198 256.749 199.247C256.465 199.909 256.235 201.175 256.103 203.07C255.842 206.797 255.988 212.468 256.413 219.294C257.248 232.676 259.148 250.32 261.077 266ZM163.794 143.293C163.8 143.278 163.842 143.163 164.155 143.081C167.599 146.065 172.579 149.267 176.762 151.757C182.169 154.975 192.065 156.666 197.49 156.955C198.415 157.464 199.296 157.955 200.12 158.421C207.72 170.701 223.411 197.855 229.944 211.557C233.294 218.583 237.262 228.608 240.71 237.447C241.099 238.445 241.482 239.427 241.856 240.388L241.883 240.458C242.853 242.949 243.766 245.294 244.593 247.386L245.825 264.291C245.847 264.592 245.902 264.883 245.986 265.161C245.638 265.169 245.285 265.177 244.927 265.184L244.645 265.19C238.437 265.317 231.071 265.316 226.187 264.825C225.868 264.69 225.406 264.44 224.999 264.097C224.531 263.703 224.245 263.283 224.177 262.877C224.08 262.289 224.09 261.851 224.104 261.306C224.109 261.098 224.114 260.875 224.114 260.622C224.114 259.722 224.025 258.693 223.527 257.197C221.77 251.909 215.871 238.738 211.881 230.081C208.243 222.189 202.204 212.465 197.564 207.085C200.728 191.295 197.847 178.971 195.886 174.591C195.66 174.087 195.068 173.862 194.564 174.087C194.06 174.313 193.835 174.905 194.06 175.409C195.883 179.48 198.826 191.851 195.375 207.788C195.356 207.876 195.349 207.963 195.353 208.048C193.762 213.988 190.62 224.186 182.256 236.047C177.392 242.945 172.287 249.061 168.422 253.62C168.045 254.065 167.678 254.496 167.325 254.912L167.323 254.914C165.875 256.62 164.641 258.071 163.735 259.202C163.173 259.904 162.714 260.509 162.402 260.991C162.248 261.229 162.109 261.468 162.012 261.692C161.941 261.858 161.786 262.244 161.892 262.669C162.022 263.192 162.35 263.661 162.615 264.018C162.735 264.179 162.849 264.325 162.959 264.467L162.96 264.468C163.138 264.698 163.31 264.919 163.495 265.186C163.88 265.74 164.183 266.311 164.294 266.956H137.751C137.738 266.956 137.726 266.957 137.713 266.957C137.705 266.957 137.696 266.958 137.687 266.958C137.645 266.961 137.603 266.966 137.561 266.974L137.557 266.975L137.556 266.976C137.555 266.976 137.554 266.976 137.679 267.597L137.554 266.976C137.544 266.977 137.525 266.98 137.498 266.984C137.443 266.99 137.36 266.998 137.26 267C137.05 267.003 136.811 266.98 136.604 266.903C136.412 266.832 136.264 266.724 136.159 266.545C136.049 266.356 135.927 265.984 135.99 265.282C136.016 265.003 136.186 264.368 136.544 263.357C136.888 262.384 137.371 261.157 137.956 259.749C139.126 256.934 140.69 253.433 142.334 249.867C145.623 242.73 149.213 235.377 150.578 232.789C151.16 231.686 152.117 230.032 153.27 228.038L153.273 228.033L153.294 227.996C153.475 227.684 153.66 227.363 153.85 227.034C155.253 224.605 156.866 221.79 158.378 218.972C159.889 216.158 161.311 213.32 162.326 210.844C162.834 209.606 163.248 208.44 163.519 207.402C163.786 206.379 163.936 205.406 163.858 204.581C163.624 202.125 162.999 198.664 162.317 194.891L162.317 194.886C162.089 193.626 161.855 192.33 161.627 191.026C160.707 185.759 159.881 180.31 159.881 176.107C159.881 171.857 160.336 164.985 161.061 158.478C161.424 155.228 161.852 152.082 162.321 149.411C162.793 146.72 163.297 144.576 163.794 143.293ZM216.384 130.864C218.556 131.005 220.84 131.045 223.191 130.943C237.087 130.334 254.993 123.926 266.194 116.309C271.836 112.472 274.616 109.784 275.924 107.828C276.567 106.865 276.837 106.105 276.93 105.491C277.024 104.879 276.953 104.345 276.819 103.805C276.796 103.711 276.737 103.593 276.445 103.476C276.124 103.348 275.639 103.277 275.012 103.284C273.771 103.298 272.306 103.611 271.336 103.904L270.33 104.208L270.076 103.188C270.013 102.931 269.827 102.547 269.525 102.29C269.272 102.074 268.888 101.9 268.226 102.066C267.996 102.124 267.616 102.262 267.051 102.492C266.645 102.657 266.176 102.855 265.639 103.082C265.446 103.164 265.243 103.25 265.032 103.338C263.449 104.006 261.417 104.845 259.051 105.665C254.324 107.305 248.23 108.882 241.624 108.882C229.723 108.882 222.369 107.794 217.037 106.566C216 113.209 214.999 123.815 216.384 130.864ZM223.278 132.941C233.212 132.506 245.056 129.215 255.211 124.629C256.253 125.042 257.484 125.371 258.947 125.597C248.155 131.207 234.375 135.453 223.191 135.943C219.709 136.095 216.375 135.932 213.333 135.595C213.156 134.64 213.02 133.622 212.922 132.561C216.113 132.924 219.617 133.101 223.278 132.941ZM163.832 262.53C163.832 262.53 163.834 262.522 163.841 262.504C163.837 262.521 163.833 262.53 163.832 262.53Z"
  />
</svg>
