<svg
  width="200"
  height="120"
  viewBox="0 0 200 120"
  fill="none"
  xmlns="http://www.w3.org/2000/svg"
>
  <path
    d="M0 4C0 1.79086 1.79086 0 4 0H196C198.209 0 200 1.79086 200 4V116C200 118.209 198.209 120 196 120H4C1.79086 120 0 118.209 0 116V4Z"
    fill="var(--color-bg-default)"
  />
  <rect
    x="46"
    y="13"
    width="108"
    height="20"
    rx="4"
    fill="var(--color-bg-ghost)"
  />
  <path
    d="M137 21L141.5 26L146 21H137Z"
    fill="var(--color-control-typo-placeholder)"
  />
  <rect
    x="46"
    y="33"
    width="108"
    height="72"
    rx="4"
    fill="var(--color-bg-default)"
  />
  <path
    d="M74.3833 73.4649C75.1019 72.6011 75.6017 71.577 75.8404 70.4793C76.0791 69.3817 76.0497 68.2427 75.7547 67.1588C75.4596 66.0749 74.9077 65.0779 74.1455 64.2522C73.3833 63.4265 72.4333 62.7964 71.3758 62.4152C70.3184 62.0339 69.1846 61.9128 68.0703 62.062C66.9561 62.2111 65.8942 62.6263 64.9745 63.2722C64.0548 63.9182 63.3043 64.776 62.7866 65.7731C62.2688 66.7701 61.999 67.8771 62 69.0004C62.0004 70.6333 62.5763 72.2139 63.6267 73.4649L63.6167 73.4734C63.6517 73.5154 63.6917 73.5514 63.7277 73.5929C63.7728 73.6444 63.8213 73.6929 63.8678 73.7429C64.0079 73.8949 64.152 74.0408 64.3031 74.1778C64.3492 74.2198 64.3967 74.2588 64.4432 74.2988C64.6034 74.4368 64.768 74.5678 64.9386 74.6898C64.9606 74.7048 64.9806 74.7243 65.0026 74.7398V74.7338C66.1745 75.5578 67.5725 76 69.0055 76C70.4385 76 71.8365 75.5578 73.0084 74.7338V74.7398C73.0304 74.7243 73.0499 74.7048 73.0724 74.6898C73.2425 74.5673 73.4077 74.4368 73.5678 74.2988C73.6143 74.2588 73.6618 74.2193 73.7079 74.1778C73.859 74.0403 74.0031 73.8949 74.1432 73.7429C74.1897 73.6929 74.2377 73.6444 74.2833 73.5929C74.3188 73.5514 74.3593 73.5154 74.3944 73.4729L74.3833 73.4649ZM69.005 65.0008C69.4503 65.0008 69.8857 65.1328 70.2559 65.38C70.6262 65.6272 70.9148 65.9785 71.0852 66.3896C71.2556 66.8007 71.3002 67.2531 71.2134 67.6895C71.1265 68.1259 70.912 68.5268 70.5971 68.8414C70.2822 69.156 69.881 69.3703 69.4443 69.4571C69.0075 69.5439 68.5548 69.4994 68.1434 69.3291C67.7319 69.1588 67.3803 68.8704 67.1329 68.5005C66.8855 68.1305 66.7534 67.6955 66.7534 67.2506C66.7534 66.6539 66.9906 66.0817 67.4129 65.6597C67.8351 65.2378 68.4078 65.0008 69.005 65.0008ZM65.0056 73.4649C65.0143 72.8085 65.2813 72.1818 65.7489 71.7206C66.2164 71.2593 66.8469 71.0005 67.5039 71.0002H70.5061C71.1631 71.0005 71.7936 71.2593 72.2612 71.7206C72.7287 72.1818 72.9957 72.8085 73.0044 73.4649C71.907 74.453 70.4822 74.9998 69.005 74.9998C67.5278 74.9998 66.103 74.453 65.0056 73.4649Z"
    fill="var(--color-control-typo-placeholder)"
  />
  <rect
    x="85"
    y="66"
    width="49"
    height="5"
    fill="var(--color-control-typo-placeholder)"
  />
  <path
    d="M74.3833 93.4649C75.1019 92.6011 75.6017 91.577 75.8404 90.4793C76.0791 89.3817 76.0497 88.2427 75.7547 87.1588C75.4596 86.0749 74.9077 85.0779 74.1455 84.2522C73.3833 83.4265 72.4333 82.7964 71.3758 82.4152C70.3184 82.0339 69.1846 81.9128 68.0703 82.062C66.9561 82.2111 65.8942 82.6263 64.9745 83.2722C64.0548 83.9182 63.3043 84.776 62.7866 85.7731C62.2688 86.7701 61.999 87.8771 62 89.0004C62.0004 90.6333 62.5763 92.2139 63.6267 93.4649L63.6167 93.4734C63.6517 93.5154 63.6917 93.5514 63.7277 93.5929C63.7728 93.6444 63.8213 93.6929 63.8678 93.7429C64.0079 93.8949 64.152 94.0408 64.3031 94.1778C64.3492 94.2198 64.3967 94.2588 64.4432 94.2988C64.6034 94.4368 64.768 94.5678 64.9386 94.6898C64.9606 94.7048 64.9806 94.7243 65.0026 94.7398V94.7338C66.1745 95.5578 67.5725 96 69.0055 96C70.4385 96 71.8365 95.5578 73.0084 94.7338V94.7398C73.0304 94.7243 73.0499 94.7048 73.0724 94.6898C73.2425 94.5673 73.4077 94.4368 73.5678 94.2988C73.6143 94.2588 73.6618 94.2193 73.7079 94.1778C73.859 94.0403 74.0031 93.8949 74.1432 93.7429C74.1897 93.6929 74.2377 93.6444 74.2833 93.5929C74.3188 93.5514 74.3593 93.5154 74.3944 93.4729L74.3833 93.4649ZM69.005 85.0008C69.4503 85.0008 69.8857 85.1328 70.2559 85.38C70.6262 85.6272 70.9148 85.9785 71.0852 86.3896C71.2556 86.8007 71.3002 87.2531 71.2134 87.6895C71.1265 88.1259 70.912 88.5268 70.5971 88.8414C70.2822 89.156 69.881 89.3703 69.4443 89.4571C69.0075 89.5439 68.5548 89.4994 68.1434 89.3291C67.7319 89.1588 67.3803 88.8704 67.1329 88.5005C66.8855 88.1305 66.7534 87.6955 66.7534 87.2506C66.7534 86.6539 66.9906 86.0817 67.4129 85.6597C67.8351 85.2378 68.4078 85.0008 69.005 85.0008ZM65.0056 93.4649C65.0143 92.8085 65.2813 92.1818 65.7489 91.7206C66.2164 91.2593 66.8469 91.0005 67.5039 91.0002H70.5061C71.1631 91.0005 71.7936 91.2593 72.2612 91.7206C72.7287 92.1818 72.9957 92.8085 73.0044 93.4649C71.907 94.453 70.4822 94.9998 69.005 94.9998C67.5278 94.9998 66.103 94.453 65.0056 93.4649Z"
    fill="var(--color-control-typo-placeholder)"
  />
  <rect
    x="85"
    y="86"
    width="49"
    height="5"
    fill="var(--color-control-typo-placeholder)"
  />
  <path
    d="M74.3833 53.4649C75.1019 52.6011 75.6017 51.577 75.8404 50.4793C76.0791 49.3817 76.0497 48.2427 75.7547 47.1588C75.4596 46.0749 74.9077 45.0779 74.1455 44.2522C73.3833 43.4265 72.4333 42.7964 71.3758 42.4152C70.3184 42.0339 69.1846 41.9128 68.0703 42.062C66.9561 42.2111 65.8942 42.6263 64.9745 43.2722C64.0548 43.9182 63.3043 44.776 62.7866 45.7731C62.2688 46.7701 61.999 47.8771 62 49.0004C62.0004 50.6333 62.5763 52.2139 63.6267 53.4649L63.6167 53.4734C63.6517 53.5154 63.6917 53.5514 63.7277 53.5929C63.7728 53.6444 63.8213 53.6929 63.8678 53.7429C64.0079 53.8949 64.152 54.0408 64.3031 54.1778C64.3492 54.2198 64.3967 54.2588 64.4432 54.2988C64.6034 54.4368 64.768 54.5678 64.9386 54.6898C64.9606 54.7048 64.9806 54.7243 65.0026 54.7398V54.7338C66.1745 55.5578 67.5725 56 69.0055 56C70.4385 56 71.8365 55.5578 73.0084 54.7338V54.7398C73.0304 54.7243 73.0499 54.7048 73.0724 54.6898C73.2425 54.5673 73.4077 54.4368 73.5678 54.2988C73.6143 54.2588 73.6618 54.2193 73.7079 54.1778C73.859 54.0403 74.0031 53.8949 74.1432 53.7429C74.1897 53.6929 74.2377 53.6444 74.2833 53.5929C74.3188 53.5514 74.3593 53.5154 74.3944 53.4729L74.3833 53.4649ZM69.005 45.0008C69.4503 45.0008 69.8857 45.1328 70.2559 45.38C70.6262 45.6272 70.9148 45.9785 71.0852 46.3896C71.2556 46.8007 71.3002 47.2531 71.2134 47.6895C71.1265 48.1259 70.912 48.5268 70.5971 48.8414C70.2822 49.156 69.881 49.3703 69.4443 49.4571C69.0075 49.5439 68.5548 49.4994 68.1434 49.3291C67.7319 49.1588 67.3803 48.8704 67.1329 48.5005C66.8855 48.1305 66.7534 47.6955 66.7534 47.2506C66.7534 46.6539 66.9906 46.0817 67.4129 45.6597C67.8351 45.2378 68.4078 45.0008 69.005 45.0008ZM65.0056 53.4649C65.0143 52.8085 65.2813 52.1818 65.7489 51.7206C66.2164 51.2593 66.8469 51.0005 67.5039 51.0002H70.5061C71.1631 51.0005 71.7936 51.2593 72.2612 51.7206C72.7287 52.1818 72.9957 52.8085 73.0044 53.4649C71.907 54.453 70.4822 54.9998 69.005 54.9998C67.5278 54.9998 66.103 54.453 65.0056 53.4649Z"
    fill="var(--color-control-typo-placeholder)"
  />
  <rect
    x="85"
    y="46"
    width="49"
    height="5"
    fill="var(--color-control-typo-placeholder)"
  />
  <rect
    x="46.5"
    y="33.5"
    width="107"
    height="71"
    rx="3.5"
    stroke="var(--color-bg-border)"
  />
</svg>
