<svg viewBox="0 0 30 40" xmlns="http://www.w3.org/2000/svg">
  <path
    d="M28 0H2C0.89543 0 0 0.89543 0 2V38C0 39.1046 0.89543 40 2 40H28C29.1046 40 30 39.1046 30 38V2C30 0.89543 29.1046 0 28 0Z"
  />
  <path
    opacity="0.6"
    d="M7 17H9.28571V19.2857H7V17ZM7 21.5714H9.28571V23.8571H7V21.5714ZM7 26.1429H9.28571V28.4286H7V26.1429ZM7 30.7143H9.28571V33H7V30.7143ZM11.5714 17H13.8571V19.2857H11.5714V17ZM11.5714 21.5714H13.8571V23.8571H11.5714V21.5714ZM11.5714 26.1429H13.8571V28.4286H11.5714V26.1429ZM11.5714 30.7143H13.8571V33H11.5714V30.7143ZM16.1429 17H18.4286V19.2857H16.1429V17ZM16.1429 21.5714H18.4286V23.8571H16.1429V21.5714ZM16.1429 26.1429H18.4286V28.4286H16.1429V26.1429ZM16.1429 30.7143H18.4286V33H16.1429V30.7143ZM20.7143 17H23V19.2857H20.7143V17ZM20.7143 21.5714H23V23.8571H20.7143V21.5714ZM20.7143 26.1429H23V28.4286H20.7143V26.1429ZM20.7143 30.7143H23V33H20.7143V30.7143ZM9.28571 19.2857H11.5714V21.5714H9.28571V19.2857ZM9.28571 23.8571H11.5714V26.1429H9.28571V23.8571ZM9.28571 28.4286H11.5714V30.7143H9.28571V28.4286ZM13.8571 19.2857H16.1429V21.5714H13.8571V19.2857ZM13.8571 23.8571H16.1429V26.1429H13.8571V23.8571ZM13.8571 28.4286H16.1429V30.7143H13.8571V28.4286ZM18.4286 19.2857H20.7143V21.5714H18.4286V19.2857ZM18.4286 23.8571H20.7143V26.1429H18.4286V23.8571ZM18.4286 28.4286H20.7143V30.7143H18.4286V28.4286Z"
    fill="#fff"
  />
  <path
    fill-rule="evenodd"
    clip-rule="evenodd"
    d="M8.8 7V7.24C9.00667 7.08 9.27333 7 9.6 7H10.3C10.8867 7 11.3167 7.12667 11.59 7.38C11.8633 7.62667 12 8.03333 12 8.6V10.4C12 10.96 11.86 11.3667 11.58 11.62C11.3067 11.8733 10.88 12 10.3 12H9.01V14H8V7H8.8ZM9.65 8C9.43 8 9.26667 8.06 9.16 8.18C9.05333 8.29333 9 8.41667 9 8.55L9.01 11H10.25C10.4967 11 10.6833 10.9433 10.81 10.83C10.9367 10.7167 11 10.5567 11 10.35V8.65C11 8.44333 10.9367 8.28333 10.81 8.17C10.6833 8.05667 10.4967 8 10.25 8H9.65ZM14 7V7.24C14.2067 7.08 14.4733 7 14.8 7H15.4C15.94 7 16.34 7.12667 16.6 7.38C16.8667 7.63333 17 8.04 17 8.6V12H16V8.65C16 8.45 15.94 8.29333 15.82 8.18C15.7067 8.06 15.55 8 15.35 8H14.65C14.43 8 14.2667 8.06 14.16 8.18C14.0533 8.29333 14 8.41667 14 8.55V12H13V7H14ZM20.25 12C20.5433 12 20.7933 11.9333 21 11.8V12C21 13 21 13 20 13H18.5V14H21C21.5523 14 22 13.5523 22 13V7H19.7C19.12 7 18.69 7.12667 18.41 7.38C18.1367 7.63333 18 8.04 18 8.6V10.4C18 10.9667 18.1367 11.3767 18.41 11.63C18.6833 11.8767 19.1133 12 19.7 12H20.25ZM20.84 10.83C20.7333 10.9433 20.57 11 20.35 11H19.75C19.5033 11 19.3167 10.9433 19.19 10.83C19.0633 10.7167 19 10.5567 19 10.35V8.65C19 8.44333 19.0633 8.28333 19.19 8.17C19.3167 8.05667 19.5033 8 19.75 8H21V10.45C21 10.5833 20.9467 10.71 20.84 10.83Z"
    fill="#fff"
  />
</svg>
