<svg viewBox="0 0 34 40" xmlns="http://www.w3.org/2000/svg">
  <path
    d="M32 0H2C0.89543 0 0 0.89543 0 2V38C0 39.1046 0.89543 40 2 40H32C33.1046 40 34 39.1046 34 38V2C34 0.89543 33.1046 0 32 0Z"
  />
  <path
    opacity="0.6"
    d="M9 17H11.2857V19.2857H9V17ZM9 21.5714H11.2857V23.8571H9V21.5714ZM9 26.1429H11.2857V28.4286H9V26.1429ZM9 30.7143H11.2857V33H9V30.7143ZM13.5714 17H15.8571V19.2857H13.5714V17ZM13.5714 21.5714H15.8571V23.8571H13.5714V21.5714ZM13.5714 26.1429H15.8571V28.4286H13.5714V26.1429ZM13.5714 30.7143H15.8571V33H13.5714V30.7143ZM18.1429 17H20.4286V19.2857H18.1429V17ZM18.1429 21.5714H20.4286V23.8571H18.1429V21.5714ZM18.1429 26.1429H20.4286V28.4286H18.1429V26.1429ZM18.1429 30.7143H20.4286V33H18.1429V30.7143ZM22.7143 17H25V19.2857H22.7143V17ZM22.7143 21.5714H25V23.8571H22.7143V21.5714ZM22.7143 26.1429H25V28.4286H22.7143V26.1429ZM22.7143 30.7143H25V33H22.7143V30.7143ZM11.2857 19.2857H13.5714V21.5714H11.2857V19.2857ZM11.2857 23.8571H13.5714V26.1429H11.2857V23.8571ZM11.2857 28.4286H13.5714V30.7143H11.2857V28.4286ZM15.8571 19.2857H18.1429V21.5714H15.8571V19.2857ZM15.8571 23.8571H18.1429V26.1429H15.8571V23.8571ZM15.8571 28.4286H18.1429V30.7143H15.8571V28.4286ZM20.4286 19.2857H22.7143V21.5714H20.4286V19.2857ZM20.4286 23.8571H22.7143V26.1429H20.4286V23.8571ZM20.4286 28.4286H22.7143V30.7143H20.4286V28.4286Z"
    fill="white"
  />
  <path
    fill-rule="evenodd"
    clip-rule="evenodd"
    d="M10.8 7V7.24C11.0067 7.08 11.2733 7 11.6 7H12.3C12.8867 7 13.3167 7.12667 13.59 7.38C13.8633 7.62667 14 8.03333 14 8.6V10.4C14 10.96 13.86 11.3667 13.58 11.62C13.3067 11.8733 12.88 12 12.3 12H11.01V14H10V7H10.8ZM11.65 8C11.43 8 11.2667 8.06 11.16 8.18C11.0533 8.29333 11 8.41667 11 8.55L11.01 11H12.25C12.4967 11 12.6833 10.9433 12.81 10.83C12.9367 10.7167 13 10.5567 13 10.35V8.65C13 8.44333 12.9367 8.28333 12.81 8.17C12.6833 8.05667 12.4967 8 12.25 8H11.65ZM16 7V7.24C16.2067 7.08 16.4733 7 16.8 7H17.4C17.94 7 18.34 7.12667 18.6 7.38C18.8667 7.63333 19 8.04 19 8.6V12H18V8.65C18 8.45 17.94 8.29333 17.82 8.18C17.7067 8.06 17.55 8 17.35 8H16.65C16.43 8 16.2667 8.06 16.16 8.18C16.0533 8.29333 16 8.41667 16 8.55V12H15V7H16ZM22.25 12C22.5433 12 22.7933 11.9333 23 11.8V12C23 13 23 13 22 13H20.5V14H23C23.5523 14 24 13.5523 24 13V7H21.7C21.12 7 20.69 7.12667 20.41 7.38C20.1367 7.63333 20 8.04 20 8.6V10.4C20 10.9667 20.1367 11.3767 20.41 11.63C20.6833 11.8767 21.1133 12 21.7 12H22.25ZM22.84 10.83C22.7333 10.9433 22.57 11 22.35 11H21.75C21.5033 11 21.3167 10.9433 21.19 10.83C21.0633 10.7167 21 10.5567 21 10.35V8.65C21 8.44333 21.0633 8.28333 21.19 8.17C21.3167 8.05667 21.5033 8 21.75 8H23V10.45C23 10.5833 22.9467 10.71 22.84 10.83Z"
    fill="white"
  />
</svg>
