<svg viewBox="0 0 21 28" xmlns="http://www.w3.org/2000/svg">
  <path
    d="M19.6 0H1.4A1.4 1.4 0 000 1.4v25.2A1.4 1.4 0 001.4 28h18.2a1.4 1.4 0 001.4-1.4V1.4A1.4 1.4 0 0019.6 0z"
  />
  <path
    fill="#fff"
    d="M5 13h3v3H5v-3zm0 6h3v3H5v-3zm6-6h3v3h-3v-3zm0 6h3v3h-3v-3zm-3-3h3v3H8v-3zm0 6h3v3H8v-3zm6-6h3v3h-3v-3zm0 6h3v3h-3v-3z"
    opacity=".6"
  />
  <path
    fill="#fff"
    fill-rule="evenodd"
    d="M4.8 4v.24c.207-.16.473-.24.8-.24h.7c.587 0 1.017.127 1.29.38.273.247.41.653.41 1.22v1.8c0 .56-.14.967-.42 1.22-.273.253-.7.38-1.28.38H5.01v2H4V4h.8zm.85 1c-.22 0-.383.06-.49.18a.53.53 0 00-.16.37L5.01 8h1.24c.247 0 .433-.057.56-.17.127-.113.19-.273.19-.48v-1.7c0-.207-.063-.367-.19-.48-.127-.113-.313-.17-.56-.17h-.6zM10 4v.24c.207-.16.473-.24.8-.24h.6c.54 0 .94.127 1.2.38.267.253.4.66.4 1.22V9h-1V5.65c0-.2-.06-.357-.18-.47-.113-.12-.27-.18-.47-.18h-.7c-.22 0-.383.06-.49.18a.53.53 0 00-.16.37V9H9V4h1zm6.25 5c.293 0 .543-.067.75-.2V9c0 1 0 1-1 1h-1.5v1H17a1 1 0 001-1V4h-2.3c-.58 0-1.01.127-1.29.38-.273.253-.41.66-.41 1.22v1.8c0 .567.137.977.41 1.23.273.247.703.37 1.29.37h.55zm.59-1.17c-.107.113-.27.17-.49.17h-.6c-.247 0-.433-.057-.56-.17-.127-.113-.19-.273-.19-.48v-1.7c0-.207.063-.367.19-.48.127-.113.313-.17.56-.17H17v2.45c0 .133-.053.26-.16.38z"
    clip-rule="evenodd"
  />
</svg>
