<svg viewBox="0 0 24 28" xmlns="http://www.w3.org/2000/svg">
  <rect width="24" height="28" rx="2" />
  <path
    opacity="0.6"
    d="M6 13H9V16H6V13ZM6 19H9V22H6V19ZM12 13H15V16H12V13ZM12 19H15V22H12V19ZM9 16H12V19H9V16ZM9 22H12V25H9V22ZM15 16H18V19H15V16ZM15 22H18V25H15V22Z"
    fill="white"
  />
  <path
    fill-rule="evenodd"
    clip-rule="evenodd"
    d="M5.8 4V4.24C6.00667 4.08 6.27333 4 6.6 4H7.3C7.88667 4 8.31667 4.12667 8.59 4.38C8.86333 4.62667 9 5.03333 9 5.6V7.4C9 7.96 8.86 8.36667 8.58 8.62C8.30667 8.87333 7.88 9 7.3 9H6.01V11H5V4H5.8ZM6.65 5C6.43 5 6.26667 5.06 6.16 5.18C6.05333 5.29333 6 5.41667 6 5.55L6.01 8H7.25C7.49667 8 7.68333 7.94333 7.81 7.83C7.93667 7.71667 8 7.55667 8 7.35V5.65C8 5.44333 7.93667 5.28333 7.81 5.17C7.68333 5.05667 7.49667 5 7.25 5H6.65ZM11 4V4.24C11.2067 4.08 11.4733 4 11.8 4H12.4C12.94 4 13.34 4.12667 13.6 4.38C13.8667 4.63333 14 5.04 14 5.6V9H13V5.65C13 5.45 12.94 5.29333 12.82 5.18C12.7067 5.06 12.55 5 12.35 5H11.65C11.43 5 11.2667 5.06 11.16 5.18C11.0533 5.29333 11 5.41667 11 5.55V9H10V4H11ZM17.25 9C17.5433 9 17.7933 8.93333 18 8.8V9C18 10 18 10 17 10H15.5V11H18C18.5523 11 19 10.5523 19 10V4H16.7C16.12 4 15.69 4.12667 15.41 4.38C15.1367 4.63333 15 5.04 15 5.6V7.4C15 7.96667 15.1367 8.37667 15.41 8.63C15.6833 8.87667 16.1133 9 16.7 9H17.25ZM17.84 7.83C17.7333 7.94333 17.57 8 17.35 8H16.75C16.5033 8 16.3167 7.94333 16.19 7.83C16.0633 7.71667 16 7.55667 16 7.35V5.65C16 5.44333 16.0633 5.28333 16.19 5.17C16.3167 5.05667 16.5033 5 16.75 5H18V7.45C18 7.58333 17.9467 7.71 17.84 7.83Z"
    fill="white"
  />
</svg>
