<svg viewBox="0 0 16 16" xmlns="http://www.w3.org/2000/svg">
  <path
    d="M7.993 1.333A6.663 6.663 0 001.333 8c0 3.68 2.98 6.667 6.66 6.667A6.67 6.67 0 0014.667 8a6.67 6.67 0 00-6.674-6.667zm4.62 4h-1.966a10.435 10.435 0 00-.92-2.373 5.353 5.353 0 012.886 2.373zM8 2.693c.553.8.987 1.687 1.273 2.64H6.727c.286-.953.72-1.84 1.273-2.64zm-5.16 6.64A5.494 5.494 0 012.667 8c0-.46.066-.907.173-1.333h2.253C5.04 7.107 5 7.547 5 8c0 .453.04.893.093 1.333H2.84zm.547 1.334h1.966c.214.833.52 1.633.92 2.373a5.325 5.325 0 01-2.886-2.373zm1.966-5.334H3.387A5.325 5.325 0 016.273 2.96c-.4.74-.706 1.54-.92 2.373zM8 13.307a9.39 9.39 0 01-1.273-2.64h2.546A9.39 9.39 0 018 13.307zm1.56-3.974H6.44c-.06-.44-.107-.88-.107-1.333 0-.453.047-.9.107-1.333h3.12c.06.433.107.88.107 1.333 0 .453-.047.893-.107 1.333zm.167 3.707c.4-.74.706-1.54.92-2.373h1.966a5.353 5.353 0 01-2.886 2.373zm1.18-3.707C10.96 8.893 11 8.453 11 8c0-.453-.04-.893-.093-1.333h2.253c.107.426.173.873.173 1.333 0 .46-.066.907-.173 1.333h-2.253z"
  />
</svg>
