<svg viewBox="0 0 420 280">
  <path
    fillRule="evenodd"
    clipRule="evenodd"
    d="M206.973 13.5C206.973 14.8807 205.854 16 204.473 16C203.092 16 201.973 14.8807 201.973 13.5C201.973 12.1193 203.092 11 204.473 11C205.854 11 206.973 12.1193 206.973 13.5ZM205.973 13.5C205.973 14.3284 205.301 15 204.473 15C203.644 15 202.973 14.3284 202.973 13.5C202.973 12.6716 203.644 12 204.473 12C205.301 12 205.973 12.6716 205.973 13.5Z"
    fill="var(--color-typo-primary)"
  />
  <path
    fillRule="evenodd"
    clipRule="evenodd"
    d="M116.973 43.5C116.973 44.8807 115.854 46 114.473 46C113.092 46 111.973 44.8807 111.973 43.5C111.973 42.1193 113.092 41 114.473 41C115.854 41 116.973 42.1193 116.973 43.5ZM115.973 43.5C115.973 44.3284 115.301 45 114.473 45C113.644 45 112.973 44.3284 112.973 43.5C112.973 42.6716 113.644 42 114.473 42C115.301 42 115.973 42.6716 115.973 43.5Z"
    fill="var(--color-typo-primary)"
  />
  <path
    fillRule="evenodd"
    clipRule="evenodd"
    d="M258.473 123C259.854 123 260.973 121.881 260.973 120.5C260.973 119.119 259.854 118 258.473 118C257.092 118 255.973 119.119 255.973 120.5C255.973 121.881 257.092 123 258.473 123ZM258.473 122C259.301 122 259.973 121.328 259.973 120.5C259.973 119.672 259.301 119 258.473 119C257.644 119 256.973 119.672 256.973 120.5C256.973 121.328 257.644 122 258.473 122Z"
    fill="var(--color-typo-primary)"
  />
  <path
    fillRule="evenodd"
    clipRule="evenodd"
    d="M147.973 123.5C147.973 124.881 146.854 126 145.473 126C144.092 126 142.973 124.881 142.973 123.5C142.973 122.119 144.092 121 145.473 121C146.854 121 147.973 122.119 147.973 123.5ZM146.973 123.5C146.973 124.328 146.301 125 145.473 125C144.644 125 143.973 124.328 143.973 123.5C143.973 122.672 144.644 122 145.473 122C146.301 122 146.973 122.672 146.973 123.5Z"
    fill="var(--color-typo-primary)"
  />
  <path
    fillRule="evenodd"
    clipRule="evenodd"
    d="M344.473 233C345.854 233 346.973 231.881 346.973 230.5C346.973 229.119 345.854 228 344.473 228C343.092 228 341.973 229.119 341.973 230.5C341.973 231.881 343.092 233 344.473 233ZM344.473 232C345.301 232 345.973 231.328 345.973 230.5C345.973 229.672 345.301 229 344.473 229C343.644 229 342.973 229.672 342.973 230.5C342.973 231.328 343.644 232 344.473 232Z"
    fill="var(--color-typo-primary)"
  />
  <path
    fillRule="evenodd"
    clipRule="evenodd"
    d="M340.973 54.5C340.973 55.8807 339.854 57 338.473 57C337.092 57 335.973 55.8807 335.973 54.5C335.973 53.1193 337.092 52 338.473 52C339.854 52 340.973 53.1193 340.973 54.5ZM339.973 54.5C339.973 55.3284 339.301 56 338.473 56C337.644 56 336.973 55.3284 336.973 54.5C336.973 53.6716 337.644 53 338.473 53C339.301 53 339.973 53.6716 339.973 54.5Z"
    fill="var(--color-typo-primary)"
  />
  <path
    fillRule="evenodd"
    clipRule="evenodd"
    d="M80.4729 168C81.8536 168 82.9729 166.881 82.9729 165.5C82.9729 164.119 81.8536 163 80.4729 163C79.0922 163 77.9729 164.119 77.9729 165.5C77.9729 166.881 79.0922 168 80.4729 168ZM80.4729 167C81.3013 167 81.9729 166.328 81.9729 165.5C81.9729 164.672 81.3013 164 80.4729 164C79.6445 164 78.9729 164.672 78.9729 165.5C78.9729 166.328 79.6445 167 80.4729 167Z"
    fill="var(--color-typo-primary)"
  />
  <path
    d="M242.417 40.0061L243.611 35.8672C243.687 35.6018 243.964 35.4487 244.229 35.5252C244.495 35.6017 244.648 35.8788 244.571 36.1442L243.378 40.283C242.871 42.0421 241.344 43.3152 239.523 43.4977C238.108 43.6394 236.922 44.6282 236.528 45.9943L235.335 50.1332C235.259 50.3985 234.982 50.5516 234.716 50.4751C234.451 50.3986 234.298 50.1215 234.374 49.8562L235.567 45.7173C236.075 43.9583 237.602 42.6852 239.423 42.5027C240.838 42.3609 242.024 41.3722 242.417 40.0061Z"
    fill="var(--color-typo-primary)"
  />
  <path
    d="M123.913 162.051L122.721 165.699C122.202 167.29 122.758 169.034 124.103 170.03C125.793 171.282 126.493 173.475 125.84 175.475L124.648 179.123C124.562 179.386 124.28 179.529 124.018 179.443C123.755 179.358 123.612 179.075 123.698 178.813L124.889 175.165C125.409 173.574 124.852 171.83 123.508 170.834C121.817 169.582 121.117 167.388 121.77 165.389L122.962 161.741C123.048 161.478 123.33 161.335 123.593 161.421C123.855 161.506 123.998 161.789 123.913 162.051Z"
    fill="var(--color-typo-primary)"
  />
  <path
    d="M336.262 99.9662L339.087 97.3679C339.29 97.1809 339.303 96.8646 339.116 96.6614C338.929 96.4582 338.613 96.445 338.41 96.6319L335.585 99.2302C334.037 100.654 333.574 102.91 334.435 104.829C335.121 106.355 334.752 108.149 333.521 109.282L330.697 111.88C330.493 112.067 330.48 112.383 330.667 112.587C330.854 112.79 331.17 112.803 331.374 112.616L334.198 110.018C335.746 108.594 336.209 106.338 335.348 104.419C334.662 102.893 335.031 101.099 336.262 99.9662Z"
    fill="var(--color-typo-primary)"
  />
  <path
    d="M46.1979 183.567L49.7223 185.086C51.2589 185.748 53.0469 185.353 54.1611 184.105C55.5618 182.535 57.8098 182.038 59.7417 182.871L63.2661 184.389C63.5197 184.499 63.6367 184.793 63.5274 185.046C63.4181 185.3 63.124 185.417 62.8704 185.308L59.346 183.789C57.8093 183.127 56.0213 183.522 54.9072 184.77C53.5064 186.34 51.2585 186.837 49.3265 186.005L45.8021 184.486C45.5485 184.377 45.4315 184.082 45.5408 183.829C45.6501 183.575 45.9443 183.458 46.1979 183.567Z"
    fill="var(--color-typo-primary)"
  />
  <path
    d="M81.1766 95.5532C79.8268 95.7406 78.6973 94.537 78.9698 93.2018L79.2701 91.7305C79.3254 91.46 79.1508 91.1958 78.8802 91.1406C78.6097 91.0854 78.3456 91.26 78.2903 91.5305L77.99 93.0018C77.5795 95.013 79.2809 96.826 81.3141 96.5437L81.4203 96.529C82.7658 96.3422 83.8684 97.5844 83.5233 98.8982C82.9969 100.902 84.6786 102.797 86.731 102.512C88.0765 102.325 89.1791 103.567 88.834 104.881C88.3076 106.885 89.9893 108.78 92.0417 108.495C93.3872 108.308 94.4898 109.55 94.1446 110.864C93.6183 112.868 95.3 114.763 97.3523 114.478C98.6979 114.291 99.8004 115.533 99.4553 116.847C98.9289 118.851 100.611 120.746 102.663 120.461L102.769 120.446C104.119 120.259 105.249 121.463 104.976 122.798L104.676 124.269C104.62 124.54 104.795 124.804 105.066 124.859C105.336 124.914 105.6 124.74 105.655 124.469L105.956 122.998C106.366 120.987 104.665 119.174 102.632 119.456L102.526 119.471C101.18 119.657 100.077 118.415 100.423 117.101C100.949 115.097 99.2672 113.203 97.2148 113.488C95.8693 113.674 94.7667 112.432 95.1118 111.118C95.6382 109.114 93.9565 107.22 91.9042 107.505C90.5586 107.691 89.4561 106.449 89.8012 105.135C90.3275 103.131 88.6458 101.237 86.5935 101.522C85.2479 101.708 84.1454 100.466 84.4905 99.1523C85.0169 97.1482 83.3351 95.2536 81.2828 95.5385L81.1766 95.5532Z"
    fill="var(--color-typo-primary)"
  />
  <path
    d="M307.564 24.118C306.243 24.4534 305.65 25.9941 306.406 27.128L306.466 27.2171C307.615 28.9412 306.64 31.2797 304.607 31.6774C303.274 31.9382 302.635 33.4713 303.388 34.6017C304.538 36.3257 303.563 38.6642 301.53 39.0619C300.197 39.3227 299.558 40.8558 300.311 41.9862C301.461 43.7102 300.486 46.0487 298.453 46.4465C297.119 46.7072 296.481 48.2404 297.234 49.3707C298.383 51.0947 297.409 53.4332 295.375 53.831C294.042 54.0918 293.403 55.6249 294.157 56.7552L294.216 56.8444C295.355 58.5524 294.463 60.873 292.473 61.3782L291.018 61.7478C290.75 61.8158 290.478 61.6539 290.41 61.3862C290.342 61.1186 290.504 60.8465 290.772 60.7786L292.227 60.409C293.548 60.0736 294.14 58.5329 293.384 57.399L293.325 57.3099C292.176 55.5858 293.15 53.2473 295.183 52.8496C296.517 52.5888 297.156 51.0557 296.402 49.9253C295.253 48.2013 296.227 45.8628 298.261 45.4651C299.594 45.2043 300.233 43.6712 299.479 42.5408C298.33 40.8168 299.304 38.4783 301.338 38.0805C302.671 37.8198 303.31 36.2866 302.556 35.1563C301.407 33.4323 302.382 31.0938 304.415 30.696C305.748 30.4352 306.387 28.9021 305.634 27.7718L305.574 27.6826C304.436 25.9746 305.328 23.654 307.317 23.1488L308.773 22.7792C309.04 22.7112 309.313 22.8731 309.381 23.1408C309.448 23.4084 309.287 23.6805 309.019 23.7484L307.564 24.118Z"
    fill="var(--color-typo-primary)"
  />
  <path
    d="M369.349 133.768C369.465 132.41 370.889 131.575 372.131 132.136L373.499 132.755C373.75 132.869 374.047 132.757 374.16 132.506C374.274 132.254 374.163 131.958 373.911 131.844L372.543 131.225C370.672 130.379 368.528 131.637 368.352 133.682L368.343 133.789C368.227 135.142 366.772 135.942 365.567 135.315C363.729 134.358 361.509 135.578 361.332 137.642C361.216 138.996 359.761 139.796 358.556 139.168C356.719 138.211 354.498 139.431 354.321 141.495C354.206 142.849 352.75 143.649 351.545 143.021C349.708 142.064 347.487 143.284 347.311 145.349C347.195 146.702 345.739 147.502 344.534 146.874C342.697 145.917 340.477 147.137 340.3 149.202L340.291 149.309C340.174 150.666 338.75 151.501 337.509 150.94L336.14 150.321C335.889 150.207 335.593 150.319 335.479 150.57C335.365 150.822 335.477 151.118 335.728 151.232L337.097 151.851C338.967 152.697 341.112 151.439 341.287 149.394L341.296 149.287C341.412 147.934 342.868 147.134 344.072 147.761C345.91 148.719 348.13 147.498 348.307 145.434C348.423 144.08 349.878 143.281 351.083 143.908C352.921 144.865 355.141 143.645 355.318 141.581C355.434 140.227 356.889 139.427 358.094 140.055C359.932 141.012 362.152 139.792 362.329 137.728C362.445 136.374 363.9 135.574 365.105 136.202C366.943 137.159 369.163 135.939 369.34 133.874L369.349 133.768Z"
    fill="var(--color-typo-primary)"
  />
  <path
    d="M151.501 25.1754C150.849 26.3717 151.575 27.8539 152.92 28.0713L153.026 28.0884C155.071 28.4188 156.123 30.7238 155.031 32.4849C154.315 33.6394 155.004 35.1506 156.345 35.3673C158.391 35.6977 159.442 38.0027 158.35 39.7638C157.634 40.9184 158.323 42.4296 159.664 42.6462C161.71 42.9767 162.761 45.2817 161.669 47.0427C160.953 48.1973 161.643 49.7085 162.984 49.9251C165.029 50.2556 166.08 52.5606 164.988 54.3217C164.273 55.4762 164.962 56.9874 166.303 57.2041L166.409 57.2212C168.435 57.5485 169.529 59.7812 168.546 61.5832L167.827 62.9014C167.694 63.1438 167.391 63.2331 167.148 63.1008C166.906 62.9686 166.817 62.6648 166.949 62.4224L167.668 61.1042C168.321 59.9079 167.594 58.4257 166.249 58.2084L166.143 58.1913C164.098 57.8608 163.047 55.5558 164.139 53.7947C164.854 52.6402 164.165 51.129 162.824 50.9123C160.779 50.5819 159.728 48.2769 160.819 46.5158C161.535 45.3613 160.846 43.8501 159.505 43.6334C157.459 43.303 156.408 40.9979 157.5 39.2369C158.216 38.0823 157.527 36.5711 156.186 36.3545C154.14 36.024 153.089 33.719 154.181 31.958C154.897 30.8034 154.208 29.2922 152.866 29.0756L152.761 29.0585C150.734 28.7311 149.64 26.4984 150.623 24.6964L151.343 23.3782C151.475 23.1358 151.779 23.0465 152.021 23.1788C152.263 23.3111 152.353 23.6148 152.22 23.8572L151.501 25.1754Z"
    fill="var(--color-typo-primary)"
  />
  <path
    d="M322.973 190C325.182 190 326.973 188.209 326.973 186C326.973 183.791 325.182 182 322.973 182C320.764 182 318.973 183.791 318.973 186C318.973 188.209 320.764 190 322.973 190Z"
    fill="var(--color-typo-primary)"
  />
  <path
    d="M78.9729 223C81.182 223 82.9729 221.209 82.9729 219C82.9729 216.791 81.182 215 78.9729 215C76.7638 215 74.9729 216.791 74.9729 219C74.9729 221.209 76.7638 223 78.9729 223Z"
    fill="var(--color-typo-primary)"
  />
  <path
    fillRule="evenodd"
    clipRule="evenodd"
    d="M207.874 92.479C207.939 91.9952 207.973 91.5015 207.973 91C207.973 84.9249 203.048 80 196.973 80C190.898 80 185.973 84.9249 185.973 91C185.973 97.0751 190.898 102 196.973 102C198.305 102 199.581 101.763 200.762 101.33C199.797 103.679 199.265 106.251 199.265 108.948C199.265 120.023 208.242 129 219.317 129C229.813 129 238.426 120.935 239.296 110.663C240.956 110.598 242.275 109.599 242.275 108.375C242.275 107.12 240.887 106.1 239.166 106.084C237.997 97.9116 231.901 91.3289 223.983 89.4418L223.981 89.4414C222.494 89.087 220.942 88.8983 219.346 88.896L219.317 88.896C218.785 88.896 218.258 88.9167 217.737 88.9573C214.088 89.2417 210.714 90.5026 207.874 92.479ZM214.565 116.155C212.394 118.521 209.913 120.596 207.184 122.316C210.39 125.226 214.646 127 219.317 127C228.765 127 236.52 119.74 237.303 110.495L237.453 108.734L239.218 108.665C239.673 108.647 240.003 108.505 240.18 108.375C239.992 108.237 239.634 108.088 239.147 108.084L237.429 108.067L237.186 106.367C236.16 99.1978 230.92 93.3872 224.056 91.5245C224.056 91.6031 224.056 91.6817 224.056 91.7604C224.056 97.7308 222.607 103.363 220.04 108.323C218.386 106.335 215.958 105.514 214.098 106.489C211.856 107.663 211.288 111.001 212.83 113.944C213.292 114.827 213.891 115.574 214.565 116.155ZM240.292 108.478C240.295 108.485 240.298 108.489 240.298 108.489C240.299 108.489 240.298 108.488 240.297 108.486L240.296 108.484C240.295 108.482 240.294 108.48 240.292 108.478ZM240.295 108.266L240.293 108.271C240.297 108.265 240.299 108.262 240.298 108.262C240.298 108.262 240.297 108.263 240.295 108.266Z"
    fill="var(--color-typo-primary)"
  />
  <path
    fillRule="evenodd"
    clipRule="evenodd"
    d="M141.512 223.625C124.973 215.55 109.789 215.382 102.386 224.826C94.7029 234.627 97.3976 252.233 107.785 270H325.766C331.434 260.894 333.272 252.222 329.796 247.007C326.644 242.277 319.772 241.364 311.441 243.747C310.727 243.952 310.002 244.18 309.268 244.432C309.422 243.682 309.562 242.933 309.687 242.188C312.388 226.067 308.213 211.453 298.288 206.281C288.854 201.366 276.843 206.344 267.584 217.683C267.063 218.321 266.55 218.98 266.047 219.658C265.841 218.823 265.611 218.025 265.357 217.265C263.807 212.634 261.372 209.451 258.139 208.374C254.479 207.156 250.339 208.816 246.294 212.634C249.719 205.154 251.774 196.465 251.986 187.164C252.052 184.279 251.937 181.445 251.657 178.68C261.452 179.995 274.385 175.132 282.473 163C289.341 152.698 291.296 133.386 291.461 123.816C291.475 123.014 290.993 122.296 290.254 121.983L288.473 121.227V116.893C288.695 116.61 288.881 116.276 289.031 115.975C289.283 115.472 289.523 114.875 289.73 114.278C289.938 113.678 290.12 113.057 290.251 112.501C290.377 111.965 290.473 111.42 290.473 111C290.473 108.561 288.826 106.433 287.196 104.999C286.358 104.262 285.468 103.656 284.673 103.229C284.276 103.015 283.89 102.839 283.536 102.715C283.2 102.596 282.826 102.5 282.473 102.5C282.45 102.5 282.425 102.5 282.4 102.501L281.952 100.607C286.148 97.4989 288.973 91.6736 288.973 85C288.973 75.0589 282.705 67 274.973 67C267.241 67 260.973 75.0589 260.973 85C260.973 94.9411 267.241 103 274.973 103C276.115 103 277.225 102.824 278.288 102.492L279.489 107.57L279.266 107.793C278.422 108.637 277.087 110.967 278.615 113.514C279.244 114.562 279.824 115.325 280.306 115.858C280.54 116.117 280.764 116.337 280.973 116.513V118.045L277.789 116.695C276.461 116.131 274.988 117.115 274.958 118.557C274.661 132.783 271.084 151.137 258.973 153C248.042 154.682 237.311 145.206 232.95 141.355C232.576 141.025 232.249 140.737 231.973 140.5L232.105 140.801C226.654 136.782 220.376 134.431 213.656 134.278C192.556 133.798 174.823 155.168 173.083 182.538C166.927 188.426 162.679 198.539 161.265 210.597C161.164 211.461 161.077 212.335 161.005 213.218C160.389 212.555 159.777 211.926 159.172 211.334C153.619 205.902 148.606 203.546 145.472 205.563C142.257 207.632 141.651 213.898 143.277 222.268C143.438 223.092 143.62 223.937 143.823 224.8C143.05 224.391 142.279 223.999 141.512 223.625ZM286.473 120.379L282.973 118.894V115.382L282.42 115.105C282.407 115.097 282.184 114.952 281.79 114.517C281.406 114.092 280.902 113.438 280.33 112.486C279.865 111.711 279.857 110.969 280.024 110.371C280.049 110.401 280.074 110.432 280.099 110.461C280.462 110.886 281.097 111.5 281.973 111.5C282.657 111.5 283.087 111.055 283.307 110.715C283.527 110.373 283.66 109.965 283.745 109.608C283.92 108.88 283.973 108.045 283.973 107.5C283.973 106.484 283.634 105.502 283.374 104.812C283.485 104.865 283.603 104.924 283.726 104.99C284.384 105.344 285.15 105.863 285.875 106.501C287.37 107.817 288.473 109.439 288.473 111C288.473 111.18 288.423 111.539 288.304 112.043C288.19 112.526 288.028 113.08 287.841 113.622C287.652 114.166 287.444 114.678 287.243 115.081C287.142 115.283 287.049 115.443 286.969 115.562C286.899 115.666 286.857 115.71 286.848 115.719L286.473 116.019V120.379ZM324.641 268C327.059 263.933 328.616 260.062 329.243 256.68C329.921 253.025 329.481 250.141 328.132 248.116C326.83 246.163 324.633 244.936 321.51 244.582C318.358 244.225 314.392 244.786 309.918 246.324C309.239 246.557 308.487 246.409 307.947 245.935C307.408 245.46 307.164 244.733 307.309 244.03C309.004 235.785 308.839 227.929 307.056 221.552C305.27 215.165 301.92 210.429 297.363 208.055C293.023 205.794 287.965 205.869 282.753 208.092C277.518 210.324 272.213 214.702 267.654 220.849C267.192 221.471 266.414 221.771 265.654 221.619C264.895 221.466 264.292 220.889 264.106 220.137C262.689 214.404 260.261 211.189 257.507 210.272C255.76 209.69 253.705 209.956 251.343 211.298C248.963 212.65 246.419 215.023 243.907 218.339C243.406 219 242.55 219.284 241.754 219.052C240.958 218.821 240.387 218.122 240.319 217.296C239.937 212.647 239 208.771 237.626 205.915C236.248 203.05 234.534 201.405 232.678 200.787C230.735 200.14 228.392 200.544 225.685 202.322C222.972 204.103 220.105 207.145 217.356 211.287C216.923 211.939 216.149 212.278 215.376 212.156C214.602 212.033 213.972 211.47 213.762 210.716C210.911 200.452 206.264 191.986 200.827 186.393C195.384 180.794 189.343 178.241 183.539 179.198C178.252 180.07 173.525 183.786 169.871 189.824C166.221 195.855 163.759 204.038 162.999 213.381C162.934 214.171 162.409 214.848 161.66 215.108C160.911 215.368 160.08 215.16 159.54 214.579C156.484 211.29 153.656 209.004 151.287 207.805C148.869 206.58 147.405 206.698 146.555 207.245C145.601 207.858 144.708 209.436 144.468 212.576C144.235 215.616 144.662 219.636 145.769 224.342C145.949 225.105 145.666 225.903 145.045 226.383C144.425 226.862 143.581 226.935 142.888 226.568C134.362 222.06 126.255 219.725 119.454 219.652C112.681 219.579 107.349 221.736 103.96 226.059C100.563 230.393 99.3215 236.637 100.293 244.17C101.225 251.401 104.179 259.624 108.94 268H324.641ZM274.973 99C279.618 99 284.973 93.7258 284.973 85C284.973 76.2742 279.618 71 274.973 71C270.327 71 264.973 76.2742 264.973 85C264.973 93.7258 270.327 99 274.973 99Z"
    fill="var(--color-typo-primary)"
  />
</svg>
