<svg width="200" height="120" viewBox="0 0 200 120" fill="none" xmlns="http://www.w3.org/2000/svg">
  <rect width="200" height="120" fill="#ECF1F4" />
  <path
    d="M0 4C0 1.79086 1.79086 0 4 0H196C198.209 0 200 1.79086 200 4V116C200 118.209 198.209 120 196 120H4C1.79086 120 0 118.209 0 116V4Z"
    fill="#ECF1F4"
  />
  <rect x="25" y="9" width="149" height="103" rx="4" fill="white" />
  <circle cx="69.5" cy="77.5" r="7.5" fill="#0078D2" />
  <circle cx="39.5" cy="77.5" r="2.5" fill="#002033" fill-opacity="0.3" />
  <circle cx="99.5" cy="77.5" r="2.5" fill="#002033" fill-opacity="0.3" />
  <circle cx="129.5" cy="77.5" r="2.5" fill="#002033" fill-opacity="0.3" />
  <circle cx="159.5" cy="77.5" r="2.5" fill="#002033" fill-opacity="0.3" />
  <circle cx="99.5" cy="48.5" r="2.5" fill="#002033" fill-opacity="0.3" />
  <circle cx="99.5" cy="99.5" r="2.5" fill="#002033" fill-opacity="0.3" />
  <circle cx="129.5" cy="48.5" r="2.5" fill="#002033" fill-opacity="0.3" />
  <circle cx="159.5" cy="48.5" r="2.5" fill="#002033" fill-opacity="0.3" />
  <circle cx="129.5" cy="99.5" r="2.5" fill="#002033" fill-opacity="0.3" />
  <circle cx="159.5" cy="99.5" r="2.5" fill="#002033" fill-opacity="0.3" />
  <circle cx="69.5" cy="48.5" r="2.5" fill="#002033" fill-opacity="0.3" />
  <circle cx="69.5" cy="99.5" r="2.5" fill="#002033" fill-opacity="0.3" />
  <circle cx="39.5" cy="48.5" r="2.5" fill="#002033" fill-opacity="0.3" />
  <circle cx="39.5" cy="99.5" r="2.5" fill="#002033" fill-opacity="0.3" />
  <rect x="62" y="19" width="75" height="12" rx="3" fill="#002033" fill-opacity="0.35" />
  <rect x="37" y="19" width="11" height="12" rx="3" fill="#002033" fill-opacity="0.35" />
  <rect x="151" y="19" width="11" height="12" rx="3" fill="#002033" fill-opacity="0.35" />
</svg>
