<svg viewBox="0 0 201 201" xmlns="http://www.w3.org/2000/svg" fill="currentColor"><path fill-rule="evenodd" clip-rule="evenodd" d="M100.453 10.453a11.99 11.99 0 009.982-5.337c1.92-2.871 4.9-5.645 8.299-5.03 41.678 7.542 74.544 40.407 82.085 82.086.615 3.398-2.158 6.379-5.03 8.299a11.988 11.988 0 00-5.336 9.982c0 4.162 2.119 7.83 5.337 9.981 2.87 1.92 5.644 4.901 5.029 8.3-7.541 41.678-40.407 74.543-82.085 82.085-3.4.615-6.38-2.159-8.3-5.029a11.99 11.99 0 00-9.981-5.337 11.99 11.99 0 00-9.982 5.337c-1.92 2.871-4.9 5.644-8.3 5.03-41.678-7.543-74.543-40.408-82.085-82.087-.615-3.398 2.159-6.379 5.03-8.299a11.987 11.987 0 005.337-9.98c0-4.164-2.12-7.83-5.337-9.983-2.871-1.92-5.645-4.9-5.03-8.3C7.628 40.494 40.493 7.629 82.172.087c3.398-.615 6.379 2.159 8.299 5.03a11.99 11.99 0 009.982 5.337z"/></svg>