<svg width="16" height="16" viewBox="0 0 16 16" xmlns="http://www.w3.org/2000/svg" fill="currentColor"><path fill-rule="evenodd" clip-rule="evenodd" d="M5.25 1h1.5l.443 1.18a3.996 3.996 0 011.517.878l1.245-.208.75 1.3-.801.974a4.014 4.014 0 010 1.752l.801.974-.75 1.3-1.245-.208c-.43.396-.946.699-1.517.877L6.75 11h-1.5l-.443-1.18a3.996 3.996 0 01-1.517-.878l-1.245.208-.75-1.3.801-.974a4.014 4.014 0 010-1.752l-.801-.974.75-1.3 1.245.208c.43-.396.946-.699 1.517-.877L5.25 1zM6 8a2 2 0 100-4 2 2 0 000 4z"/><path fill-rule="evenodd" clip-rule="evenodd" d="M12.5 8h-1l-.377 1.13c-.441.135-.84.369-1.17.676l-1.167-.239-.5.866.79.891a3.009 3.009 0 000 1.352l-.79.891.5.866 1.168-.239c.33.307.728.541 1.17.676L11.5 16h1l.377-1.13c.441-.135.84-.369 1.17-.676l1.167.239.5-.866-.79-.892a3.007 3.007 0 000-1.35l.79-.892-.5-.866-1.168.239a2.997 2.997 0 00-1.17-.676L12.5 8zm-.5 5a1 1 0 100-2 1 1 0 000 2z"/></svg>