<svg viewBox="0 0 24 28" xmlns="http://www.w3.org/2000/svg">
  <rect width="24" height="28" rx="2" />
  <path
    opacity="0.6"
    fill-rule="evenodd"
    clip-rule="evenodd"
    d="M6 12H5V13V25H6H18H19V13V12H14V13H18V24H6V13V12ZM7 12H9H10V13H12V14H10V15H12V16H10V17V18H11V22H8V18H9V17H7V16H9V15H7V14H9V13H7V12ZM10 19H9V21H10V19Z"
    fill="white"
  />
  <path
    d="M6 8V5.01H5V4H6V4.5C6.22 4.32 6.68667 4 7 4H9V5H7.65C7.43667 5 7.27667 5.07 7.17 5.21C7.06333 5.34333 7.00667 5.48 7 5.62V8H8V9H5V8H6Z"
    fill="white"
  />
  <path
    d="M13.95 9C13.8633 9 13.7667 8.97333 13.66 8.92C13.56 8.86667 13.4733 8.79333 13.4 8.7C13.2467 8.9 13.0433 9 12.79 9H11.45C10.9433 9 10.5733 8.9 10.34 8.7C10.1133 8.49333 10 8.14333 10 7.65V7.55C10 6.51667 10.4867 6 11.46 6H13V5.65C13 5.44333 12.9367 5.28333 12.81 5.17C12.6833 5.05667 12.4967 5 12.25 5H10.5V4H12.3C12.88 4 13.3067 4.12667 13.58 4.38C13.86 4.63333 14 5.04 14 5.6V8C14 8.1 14.0367 8.17667 14.11 8.23C14.19 8.27667 14.32 8.3 14.5 8.3V9H13.95ZM12.54 8C12.74 8 12.8667 7.95333 12.92 7.86C12.9733 7.76667 13 7.64667 13 7.5V7H11.6C11.4267 7 11.2833 7.05667 11.17 7.17C11.0567 7.28333 11 7.42667 11 7.6V7.5C11 7.67333 11.04 7.8 11.12 7.88C11.2 7.96 11.3267 8 11.5 8H12.54Z"
    fill="white"
  />
  <path
    d="M16 8V5.01H15V4H16V4.5C16.22 4.32 16.6867 4 17 4H19V5H17.65C17.4367 5 17.2767 5.07 17.17 5.21C17.0633 5.34333 17.0067 5.48 17 5.62V8H18V9H15V8H16Z"
    fill="white"
  />
</svg>
