<svg viewBox="0 0 21 28" xmlns="http://www.w3.org/2000/svg">
  <path
    d="M19.6 0H1.4C0.626801 0 0 0.626801 0 1.4V26.6C0 27.3732 0.626801 28 1.4 28H19.6C20.3732 28 21 27.3732 21 26.6V1.4C21 0.626801 20.3732 0 19.6 0Z"
  />
  <path
    opacity="0.6"
    fill-rule="evenodd"
    clip-rule="evenodd"
    d="M5 12H4V13V25H5H16H17V13V12H13V13H16V24H5V13V12ZM6 12H8H9V13H11V14H9V15H11V16H9V17V18H10V22H7V18H8V17H6V16H8V15H6V14H8V13H6V12ZM9 19H8V21H9V19Z"
    fill="#fff"
  />
  <path
    d="M4.5 8V5.01H3.5V4H4.5V4.5C4.72 4.32 5.18667 4 5.5 4H7.5V5H6.15C5.93667 5 5.77667 5.07 5.67 5.21C5.56333 5.34333 5.50667 5.48 5.5 5.62V8H6.5V9H3.5V8H4.5Z"
    fill="#fff"
  />
  <path
    d="M12.45 9C12.3633 9 12.2667 8.97333 12.16 8.92C12.06 8.86667 11.9733 8.79333 11.9 8.7C11.7467 8.9 11.5433 9 11.29 9H9.95C9.44333 9 9.07333 8.9 8.84 8.7C8.61333 8.49333 8.5 8.14333 8.5 7.65V7.55C8.5 6.51667 8.98667 6 9.96 6H11.5V5.65C11.5 5.44333 11.4367 5.28333 11.31 5.17C11.1833 5.05667 10.9967 5 10.75 5H9V4H10.8C11.38 4 11.8067 4.12667 12.08 4.38C12.36 4.63333 12.5 5.04 12.5 5.6V8C12.5 8.1 12.5367 8.17667 12.61 8.23C12.69 8.27667 12.82 8.3 13 8.3V9H12.45ZM11.04 8C11.24 8 11.3667 7.95333 11.42 7.86C11.4733 7.76667 11.5 7.64667 11.5 7.5V7H10.1C9.92667 7 9.78333 7.05667 9.67 7.17C9.55667 7.28333 9.5 7.42667 9.5 7.6V7.5C9.5 7.67333 9.54 7.8 9.62 7.88C9.7 7.96 9.82667 8 10 8H11.04Z"
    fill="#fff"
  />
  <path
    d="M14.5 8V5.01H13.5V4H14.5V4.5C14.72 4.32 15.1867 4 15.5 4H17.5V5H16.15C15.9367 5 15.7767 5.07 15.67 5.21C15.5633 5.34333 15.5067 5.48 15.5 5.62V8H16.5V9H13.5V8H14.5Z"
    fill="#fff"
  />
</svg>
