<svg viewBox="0 0 34 40" xmlns="http://www.w3.org/2000/svg">
  <path
    d="M32 0H2C0.89543 0 0 0.89543 0 2V38C0 39.1046 0.89543 40 2 40H32C33.1046 40 34 39.1046 34 38V2C34 0.89543 33.1046 0 32 0Z"
  />
  <path
    d="M11 11V8.01H10V7H11V7.5C11.22 7.32 11.6867 7 12 7H14V8H12.65C12.4367 8 12.2767 8.07 12.17 8.21C12.0633 8.34333 12.0067 8.48 12 8.62V11H13V12H10V11H11Z"
    fill="white"
  />
  <path
    d="M18.95 12C18.8633 12 18.7667 11.9733 18.66 11.92C18.56 11.8667 18.4733 11.7933 18.4 11.7C18.2467 11.9 18.0433 12 17.79 12H16.45C15.9433 12 15.5733 11.9 15.34 11.7C15.1133 11.4933 15 11.1433 15 10.65V10.55C15 9.51667 15.4867 9 16.46 9H18V8.65C18 8.44333 17.9367 8.28333 17.81 8.17C17.6833 8.05667 17.4967 8 17.25 8H15.5V7H17.3C17.88 7 18.3067 7.12667 18.58 7.38C18.86 7.63333 19 8.04 19 8.6V11C19 11.1 19.0367 11.1767 19.11 11.23C19.19 11.2767 19.32 11.3 19.5 11.3V12H18.95ZM17.54 11C17.74 11 17.8667 10.9533 17.92 10.86C17.9733 10.7667 18 10.6467 18 10.5V10H16.6C16.4267 10 16.2833 10.0567 16.17 10.17C16.0567 10.2833 16 10.4267 16 10.6V10.5C16 10.6733 16.04 10.8 16.12 10.88C16.2 10.96 16.3267 11 16.5 11H17.54Z"
    fill="white"
  />
  <path
    d="M21 11V8.01H20V7H21V7.5C21.22 7.32 21.6867 7 22 7H24V8H22.65C22.4367 8 22.2767 8.07 22.17 8.21C22.0633 8.34333 22.0067 8.48 22 8.62V11H23V12H20V11H21Z"
    fill="white"
  />
  <path
    opacity="0.6"
    fill-rule="evenodd"
    clip-rule="evenodd"
    d="M10 17H9V18V33H10H24H25V18V17H18V18H24V32H10V18V17ZM12 17H14H15V18H17V19H15V20H17V21H15V22H17V23H15V24H17V25H15V26H16V30H13V26H14V24H12V23H14V22H12V21H14V20H12V19H14V18H12V17ZM15 27H14V29H15V27Z"
    fill="white"
  />
</svg>
