<svg
  width="200"
  height="120"
  viewBox="0 0 200 120"
  fill="none"
  xmlns="http://www.w3.org/2000/svg"
>
  <path
    d="M0 4C0 1.79086 1.79086 0 4 0H196C198.209 0 200 1.79086 200 4V116C200 118.209 198.209 120 196 120H4C1.79086 120 0 118.209 0 116V4Z"
    fill="white"
  />
  <path
    fill-rule="evenodd"
    clip-rule="evenodd"
    d="M33.9789 33L27.9998 27.0572L29.0635 26L33.9789 30.8856L38.8944 26L39.958 27.0572L33.9789 33Z"
    fill="#002033"
    fill-opacity="0.3"
  />
  <rect
    x="56.4009"
    y="26"
    width="114.599"
    height="7"
    fill="#002033"
    fill-opacity="0.35"
  />
  <path
    fill-rule="evenodd"
    clip-rule="evenodd"
    d="M33.9791 53L39.9582 58.9428L38.8945 60L33.9791 55.1144L29.0636 60L28 58.9428L33.9791 53Z"
    fill="#0078D2"
  />
  <rect
    width="114.599"
    height="7"
    transform="translate(56.4009 53)"
    fill="#0078D2"
  />
  <rect x="56.4009" y="53" width="114.599" height="7" fill="#0078D2" />
  <rect width="114" height="30" transform="translate(57 64)" fill="#0078D2" />
  <rect x="57" y="64" width="114" height="30" fill="#DEE4E8" />
</svg>
