<svg width="24" height="24" viewBox="0 0 24 24" fill="none" xmlns="http://www.w3.org/2000/svg">
  <path d="M7 11H5V13H7V11Z" fill="black" />
  <path d="M8 14H10V16H8V14Z" fill="black" />
  <path d="M13 17H11V19H13V17Z" fill="black" />
  <path
    fill-rule="evenodd"
    clip-rule="evenodd"
    d="M4 2C2.89543 2 2 2.89543 2 4V20C2 21.1046 2.89543 22 4 22H20C21.1046 22 22 21.1046 22 20V4C22 2.89543 21.1046 2 20 2H4ZM20 4H4V8H20V4ZM4 20V10H20V20H4Z"
    fill="black"
  />
  <path d="M11 11H13V13H11V11Z" fill="black" />
  <path d="M14 14H16V16H14V14Z" fill="black" />
  <path d="M17 17H19V19H17V17Z" fill="black" />
  <path d="M17 11H19V13H17V11Z" fill="black" />
  <path d="M5 17H7V19H5V17Z" fill="black" />
</svg>
