<svg viewBox="0 0 24 28" xmlns="http://www.w3.org/2000/svg">
  <rect width="24" height="28" rx="2" />
  <path
    fill-rule="evenodd"
    clip-rule="evenodd"
    d="M11.5915 14.5002L5 14.5002V22.5002H7.08817C7.18803 23.0938 7.467 23.6632 7.9251 24.1213C9.09667 25.2929 10.9962 25.2929 12.1677 24.1213C12.6258 23.6632 12.9048 23.0938 13.0047 22.5002H19V14.5002H16.5918L14.0917 12L11.5915 14.5002ZM15.9127 15.2353L14.0917 17.0563L12.2706 15.2353L14.0917 13.4142L15.9127 15.2353ZM17.3267 15.2355L14.0917 18.4705L11.1213 15.5002L6 15.5002L6 21.5002H7.08811C7.18791 20.9064 7.46691 20.3369 7.9251 19.8787C9.09667 18.7071 10.9962 18.7071 12.1677 19.8787C12.6259 20.3369 12.9049 20.9064 13.0047 21.5002H18V15.5002H17.063L17.3267 15.2355ZM11.4606 20.5858C10.6796 19.8047 9.41326 19.8047 8.63221 20.5858C7.85116 21.3668 7.85116 22.6332 8.63221 23.4142C9.41326 24.1953 10.6796 24.1953 11.4606 23.4142C12.2417 22.6332 12.2417 21.3668 11.4606 20.5858Z"
    fill="#DADDE1"
  />
  <path
    fill-rule="evenodd"
    clip-rule="evenodd"
    d="M15 8.77C14.78 8.92333 14.5133 9 14.2 9H13.7C13.1133 9 12.6833 8.87667 12.41 8.63C12.1367 8.37667 12 7.96667 12 7.4V5.6C12 5.04 12.1367 4.63333 12.41 4.38C12.69 4.12667 13.18 4 13.76 4H15V2H16V9H15V8.77ZM14.35 8C14.57 8 14.7333 7.94333 14.84 7.83C14.9467 7.71 15 7.58333 15 7.45V5H13.75C13.5033 5 13.3167 5.05667 13.19 5.17C13.0633 5.28333 13 5.44333 13 5.65V7.35C13 7.55667 13.0633 7.71667 13.19 7.83C13.3167 7.94333 13.5033 8 13.75 8H14.35Z"
    fill="white"
  />
  <path d="M5 4H4V7L5 9H6L7 7V4H6V7H5V4Z" fill="white" />
  <path
    d="M17 9H18V7.5L19 7L20 7.5V9H21V7H20V6H21V4H20V5.5L19 6L18 5.5V4H17V6H18V7H17V9Z"
    fill="white"
  />
  <path
    d="M11 7.75C11 8.17 10.87 8.48333 10.61 8.69C10.3567 8.89667 9.98667 9 9.5 9H8V8H9.45C9.63 8 9.76667 7.96333 9.86 7.89C9.95333 7.81 10 7.69667 10 7.55V7.45C10 7.15 9.85667 7 9.57 7H9.2C8.73333 7 8.53333 6.9 8.3 6.7C8.07333 6.49333 8 6.17 8 5.73V5.26C8 4.81333 8.08667 4.49333 8.34 4.3C8.59333 4.1 9.00667 4 9.5 4H11V5H9.55C9.38333 5 9.25 5.04 9.15 5.12C9.05 5.19333 9 5.30333 9 5.45V5.56C9 5.71333 9.04333 5.82667 9.13 5.9C9.22333 5.97333 9.34 6 9.48 6H9.63C10.0767 6 10.4167 6.12 10.65 6.34C10.8833 6.55333 11 6.87333 11 7.3V7.75Z"
    fill="white"
  />
</svg>
