<svg viewBox="0 0 34 40" xmlns="http://www.w3.org/2000/svg">
  <path
    d="M32 0H2C0.89543 0 0 0.89543 0 2V38C0 39.1046 0.89543 40 2 40H32C33.1046 40 34 39.1046 34 38V2C34 0.89543 33.1046 0 32 0Z"
  />
  <g opacity="0.6">
    <path
      fill-rule="evenodd"
      clip-rule="evenodd"
      d="M23.999 20.9488L19.0503 16L14.6025 20.4478L8 20.4478V30.4478H10.3681C10.4654 31.3177 10.8476 32.1618 11.5147 32.829C13.0768 34.3911 15.6095 34.3911 17.1716 32.829C17.8387 32.1618 18.2209 31.3177 18.3182 30.4478H26V20.4478H23.5L24 20.9478L23.999 20.9488ZM22.5858 20.9497L19.0503 24.4853L15.5147 20.9497L19.0503 17.4142L22.5858 20.9497ZM23.502 21.4478L19.0503 25.8995L14.5986 21.4478L9 21.4478L9 29.4478H10.3813C10.4968 28.6153 10.8746 27.8122 11.5147 27.1721C13.0768 25.61 15.6095 25.61 17.1716 27.1721C17.8117 27.8122 18.1895 28.6153 18.305 29.4478H25V21.4478H23.502ZM16.4645 27.8792C15.2929 26.7076 13.3934 26.7076 12.2218 27.8792C11.0503 29.0508 11.0503 30.9503 12.2218 32.1218C13.3934 33.2934 15.2929 33.2934 16.4645 32.1219C17.636 30.9503 17.636 29.0508 16.4645 27.8792Z"
      fill="white"
    />
  </g>
  <path
    fill-rule="evenodd"
    clip-rule="evenodd"
    d="M20 11.77C19.78 11.9233 19.5133 12 19.2 12H18.7C18.1133 12 17.6833 11.8767 17.41 11.63C17.1367 11.3767 17 10.9667 17 10.4V8.6C17 8.04 17.1367 7.63333 17.41 7.38C17.69 7.12667 18.18 7 18.76 7H20V5H21V12H20V11.77ZM19.35 11C19.57 11 19.7333 10.9433 19.84 10.83C19.9467 10.71 20 10.5833 20 10.45V8H18.75C18.5033 8 18.3167 8.05667 18.19 8.17C18.0633 8.28333 18 8.44333 18 8.65V10.35C18 10.5567 18.0633 10.7167 18.19 10.83C18.3167 10.9433 18.5033 11 18.75 11H19.35Z"
    fill="white"
  />
  <path d="M10 7H9V10L10 12H11L12 10V7H11V10H10V7Z" fill="white" />
  <path
    d="M22 12H23V10.5L24 10L25 10.5V12H26V10H25V9H26V7H25V8.5L24 9L23 8.5V7H22V9H23V10H22V12Z"
    fill="white"
  />
  <path
    d="M16 10.75C16 11.17 15.87 11.4833 15.61 11.69C15.3567 11.8967 14.9867 12 14.5 12H13V11H14.45C14.63 11 14.7667 10.9633 14.86 10.89C14.9533 10.81 15 10.6967 15 10.55V10.45C15 10.15 14.8567 10 14.57 10H14.2C13.7333 10 13.5333 9.9 13.3 9.7C13.0733 9.49333 13 9.17 13 8.73V8.26C13 7.81333 13.0867 7.49333 13.34 7.3C13.5933 7.1 14.0067 7 14.5 7H16V8H14.55C14.3833 8 14.25 8.04 14.15 8.12C14.05 8.19333 14 8.30333 14 8.45V8.56C14 8.71333 14.0433 8.82667 14.13 8.9C14.2233 8.97333 14.34 9 14.48 9H14.63C15.0767 9 15.4167 9.12 15.65 9.34C15.8833 9.55333 16 9.87333 16 10.3V10.75Z"
    fill="white"
  />
</svg>
