<svg width="12" height="12" viewBox="0 0 12 12" fill="none" xmlns="http://www.w3.org/2000/svg">
  <path
    d="M8 3C8 3.58018 7.75296 4.10266 7.35833 4.46799L9.26965 8.01758C9.34474 8.006 9.42167 8 9.5 8C10.3284 8 11 8.67157 11 9.5C11 10.3284 10.3284 11 9.5 11C8.67157 11 8 10.3284 8 9.5C8 9.11189 8.1474 8.7582 8.38928 8.49187L6.47808 4.9425C6.32489 4.98007 6.16477 5 6 5C5.83522 5 5.67509 4.98007 5.5219 4.9425L3.61071 8.49185C3.85259 8.75819 4 9.11188 4 9.5C4 10.3284 3.32843 11 2.5 11C1.67157 11 1 10.3284 1 9.5C1 8.67157 1.67157 8 2.5 8C2.57833 8 2.65525 8.006 2.73033 8.01757L4.64166 4.46797C4.24704 4.10265 4 3.58017 4 3C4 1.89543 4.89543 1 6 1C7.10457 1 8 1.89543 8 3Z"
    fill="black"
  />
</svg>
