<svg width="16" height="16" viewBox="0 0 16 16" fill="none" xmlns="http://www.w3.org/2000/svg">
  <path
    d="M11 4C11 4.76204 10.7159 5.45773 10.2478 5.98689L12.4773 10.0001L12.5 10C13.8807 10 15 11.1193 15 12.5C15 13.8807 13.8807 15 12.5 15C11.1193 15 10 13.8807 10 12.5C10 11.8545 10.2447 11.2661 10.6463 10.8225L8.49968 6.95857C8.33718 6.98582 8.17024 7 8 7C7.82976 7 7.66284 6.98582 7.50034 6.95858L5.3537 10.8225C5.75534 11.2661 6 11.8545 6 12.5C6 13.8807 4.88071 15 3.5 15C2.11929 15 1 13.8807 1 12.5C1 11.1193 2.11929 10 3.5 10C3.50757 10 3.51513 10 3.52269 10.0001L5.75224 5.98691C5.28413 5.45774 5 4.76205 5 4C5 2.34315 6.34315 1 8 1C9.65685 1 11 2.34315 11 4Z"
    fill="black"
  />
</svg>
