<svg width="24" height="24" viewBox="0 0 24 24" fill="none" xmlns="http://www.w3.org/2000/svg">
  <path
    d="M16 7C16 8.05565 15.5911 9.01579 14.923 9.73065L18.3247 15.0763C18.5418 15.0264 18.7678 15 19 15C20.6569 15 22 16.3431 22 18C22 19.6569 20.6569 21 19 21C17.3431 21 16 19.6569 16 18C16 17.3023 16.2382 16.6601 16.6377 16.1505L13.2362 10.8053C12.8469 10.9317 12.4314 11 12 11C11.5685 11 11.1531 10.9317 10.7637 10.8053L7.36224 16.1505C7.76178 16.6601 8 17.3022 8 18C8 19.6569 6.65685 21 5 21C3.34315 21 2 19.6569 2 18C2 16.3431 3.34315 15 5 15C5.23217 15 5.45819 15.0264 5.67521 15.0763L9.07701 9.73061C8.40892 9.01576 8 8.05563 8 7C8 4.79086 9.79086 3 12 3C14.2091 3 16 4.79086 16 7Z"
    fill="black"
  />
</svg>
