<svg width="16" height="16" viewBox="0 0 16 16" fill="none" xmlns="http://www.w3.org/2000/svg">
  <path
    d="M6.00002 7.99998L3.78228 9.2804L0.567263 8.41894L0.308444 9.38487L2.55753 9.9875L0.571826 11.134L1.57183 12.866L3.55757 11.7195L2.9549 13.9686L3.92082 14.2275L4.78233 11.0124L7.00006 9.73201V12.2928L4.64649 14.6464L5.35361 15.3535L7.00006 13.7071V16H9.00006V13.7071L10.6465 15.3535L11.3536 14.6464L9.00006 12.2929V9.73206L11.2177 11.0124L12.0792 14.2275L13.0452 13.9687L12.4425 11.7195L14.4282 12.866L15.4282 11.134L13.4425 9.98751L15.6916 9.38487L15.4328 8.41895L12.2178 9.2804L10 7.99998L12.2177 6.71959L15.4328 7.58103L15.6916 6.6151L13.4425 6.01248L15.4282 4.86601L14.4282 3.13395L12.4425 4.28041L13.0452 2.03132L12.0792 1.7725L11.2178 4.98751L9.00006 6.26791V3.70711L11.3536 1.35356L10.6465 0.646448L9.00006 2.2929V0H7.00006V2.29294L5.35361 0.646452L4.64649 1.35355L7.00006 3.70717V6.26795L4.78228 4.98752L3.92081 1.7725L2.95489 2.03132L3.55753 4.28041L1.57182 3.13396L0.571823 4.86601L2.55757 6.01248L0.308441 6.61511L0.567249 7.58104L3.78233 6.7196L6.00002 7.99998Z"
    fill="black"
  />
</svg>
