<svg width="12" height="12" viewBox="0 0 12 12" fill="none" xmlns="http://www.w3.org/2000/svg">
  <path
    d="M3.52515 10.7678L5.50003 8.79292V6.98734L3.93637 7.89011L3.2135 10.5879L2.24759 10.3291L2.71161 8.59721L0.948792 9.61499L0.448792 8.74896L2.21158 7.73122L0.479797 7.2672L0.738617 6.30127L3.43631 7.02411L5 6.12131L3.43637 5.21854L0.738586 5.94141L0.479767 4.97548L2.21161 4.51143L0.448761 3.49365L0.948761 2.62762L2.71158 3.64539L2.24756 1.91362L3.21347 1.6548L3.93634 4.35249L5.50003 5.25529V3.44975L3.52515 1.47487L4.23227 0.767761L5.50003 2.03554V0H6.50003V2.03554L7.76779 0.767761L8.47491 1.47487L6.50003 3.44975V5.25528L8.06366 4.35251L8.78653 1.6548L9.75244 1.91362L9.28842 3.6454L10.8411 2.74896L11.3411 3.61499L9.78839 4.51144L11.5202 4.97548L11.2614 5.94141L8.56366 5.21855L7 6.12131L8.56369 7.02411L11.2614 6.30127L11.5202 7.2672L9.78845 7.73123L11.3411 8.62762L10.8411 9.49365L9.28842 8.59723L9.75244 10.3291L8.78653 10.5879L8.06366 7.89011L6.50003 6.98735V8.79292L8.47491 10.7678L7.76779 11.4749L6.50003 10.2071V12H5.50003V10.2071L4.23227 11.4749L3.52515 10.7678Z"
    fill="black"
  />
</svg>
