<svg width="24" height="24" viewBox="0 0 24 24" fill="none" xmlns="http://www.w3.org/2000/svg">
  <path
    d="M5.63146 14.3818L2.71815 16.0638L3.71815 17.7958L6.63138 16.1139L5.83274 19.0945L6.79867 19.3533L7.85613 15.4068L11 13.5917L11 17.2218L8.11089 20.1109L8.81799 20.818L11 18.636L11 22L13 22L13 18.636L15.182 20.818L15.8891 20.1109L13 17.2218L13 13.5916L16.1438 15.4067L17.2013 19.3533L18.1672 19.0945L17.3685 16.1138L20.2818 17.7958L21.2818 16.0638L18.3686 14.3818L21.3492 13.5832L21.0904 12.6172L17.1438 13.6747L14 11.8596L17.1438 10.0445L21.0904 11.102L21.3492 10.1361L18.3686 9.33741L21.0387 7.79583L20.0387 6.06378L17.3686 7.60535L18.1672 4.62472L17.2013 4.36591L16.1438 8.31245L13 10.1276L13 6.49735L15.889 3.60828L15.1819 2.90117L13 5.08314L13 2L11 2L11 5.08316L8.81797 2.90117L8.11086 3.60828L11 6.49738L11 10.1275L7.85613 8.31245L6.79865 4.36589L5.83273 4.62471L6.63139 7.60535L3.96133 6.06379L2.96133 7.79584L5.6314 9.3374L2.65075 10.1361L2.90957 11.102L6.85614 10.0445L9.99999 11.8596L6.85621 13.6747L2.90958 12.6172L2.65076 13.5831L5.63146 14.3818Z"
    fill="black"
  />
</svg>
