<svg
  width="200"
  height="120"
  viewBox="0 0 200 120"
  fill="none"
  xmlns="http://www.w3.org/2000/svg"
>
  <rect width="200" height="120" fill="var(--color-bg-ghost)" />
  <path
    d="M0 4C0 1.79086 1.79086 0 4 0H196C198.209 0 200 1.79086 200 4V116C200 118.209 198.209 120 196 120H4C1.79086 120 0 118.209 0 116V4Z"
    fill="var(--color-bg-default)"
  />
  <mask id="path-2-inside-1_1885_15895" fill="var(--color-bg-default)">
    <path
      d="M100 41C104.012 41 107.922 42.2702 111.168 44.6287C114.414 46.9871 116.83 50.3127 118.07 54.1287C119.31 57.9447 119.31 62.0553 118.07 65.8713C116.83 69.6873 114.414 73.0129 111.168 75.3713C107.922 77.7298 104.012 79 100 79C95.9876 79 92.0782 77.7298 88.8321 75.3713C85.586 73.0129 83.1698 69.6873 81.9299 65.8713C80.69 62.0553 80.69 57.9447 81.9299 54.1287L86.7919 55.7084C85.8856 58.4977 85.8856 61.5023 86.7919 64.2916C87.6982 67.0808 89.4643 69.5116 91.837 71.2355C94.2097 72.9593 97.0672 73.8878 100 73.8878C102.933 73.8878 105.79 72.9593 108.163 71.2355C110.536 69.5116 112.302 67.0808 113.208 64.2916C114.114 61.5023 114.114 58.4977 113.208 55.7084C112.302 52.9192 110.536 50.4884 108.163 48.7645C105.79 47.0407 102.933 46.1122 100 46.1122V41Z"
    />
  </mask>
  <path
    d="M100 41C104.012 41 107.922 42.2702 111.168 44.6287C114.414 46.9871 116.83 50.3127 118.07 54.1287C119.31 57.9447 119.31 62.0553 118.07 65.8713C116.83 69.6873 114.414 73.0129 111.168 75.3713C107.922 77.7298 104.012 79 100 79C95.9876 79 92.0782 77.7298 88.8321 75.3713C85.586 73.0129 83.1698 69.6873 81.9299 65.8713C80.69 62.0553 80.69 57.9447 81.9299 54.1287L86.7919 55.7084C85.8856 58.4977 85.8856 61.5023 86.7919 64.2916C87.6982 67.0808 89.4643 69.5116 91.837 71.2355C94.2097 72.9593 97.0672 73.8878 100 73.8878C102.933 73.8878 105.79 72.9593 108.163 71.2355C110.536 69.5116 112.302 67.0808 113.208 64.2916C114.114 61.5023 114.114 58.4977 113.208 55.7084C112.302 52.9192 110.536 50.4884 108.163 48.7645C105.79 47.0407 102.933 46.1122 100 46.1122V41Z"
    stroke="var(--color-bg-link)"
    stroke-width="8"
    mask="url(#path-2-inside-1_1885_15895)"
  />
  <mask id="path-3-inside-2_1885_15895" fill="var(--color-bg-default)">
    <path
      d="M119 60C119 70.4934 110.493 79 100 79C89.5066 79 81 70.4934 81 60C81 49.5066 89.5066 41 100 41C110.493 41 119 49.5066 119 60ZM86.1122 60C86.1122 67.67 92.33 73.8878 100 73.8878C107.67 73.8878 113.888 67.67 113.888 60C113.888 52.33 107.67 46.1122 100 46.1122C92.33 46.1122 86.1122 52.33 86.1122 60Z"
    />
  </mask>
  <path
    d="M119 60C119 70.4934 110.493 79 100 79C89.5066 79 81 70.4934 81 60C81 49.5066 89.5066 41 100 41C110.493 41 119 49.5066 119 60ZM86.1122 60C86.1122 67.67 92.33 73.8878 100 73.8878C107.67 73.8878 113.888 67.67 113.888 60C113.888 52.33 107.67 46.1122 100 46.1122C92.33 46.1122 86.1122 52.33 86.1122 60Z"
    stroke="var(--color-bg-stripe)"
    stroke-width="8"
    mask="url(#path-3-inside-2_1885_15895)"
  />
</svg>
