<svg
  width="200"
  height="120"
  viewBox="0 0 200 120"
  fill="none"
  xmlns="http://www.w3.org/2000/svg"
>
  <path
    d="M0 4C0 1.79086 1.79086 0 4 0H196C198.209 0 200 1.79086 200 4V116C200 118.209 198.209 120 196 120H4C1.79086 120 0 118.209 0 116V4Z"
    fill="var(--color-bg-default)"
  />
  <path
    d="M58.0137 72H55.2891L53.0625 66.1113H44.1562L42.0615 72H39.3223L47.3789 50.9941H49.9277L58.0137 72ZM52.2568 63.8994L48.9609 54.9492C48.8535 54.6562 48.7461 54.1875 48.6387 53.543H48.5801C48.4824 54.1387 48.3701 54.6074 48.2432 54.9492L44.9766 63.8994H52.2568ZM75.2666 72H72.8643V69.6562H72.8057C71.7607 71.4531 70.2227 72.3516 68.1914 72.3516C66.6973 72.3516 65.5254 71.9561 64.6758 71.165C63.8359 70.374 63.416 69.3242 63.416 68.0156C63.416 65.2129 65.0664 63.582 68.3672 63.123L72.8643 62.4932C72.8643 59.9443 71.834 58.6699 69.7734 58.6699C67.9668 58.6699 66.3359 59.2852 64.8809 60.5156V58.0547C66.3555 57.1172 68.0547 56.6484 69.9785 56.6484C73.5039 56.6484 75.2666 58.5137 75.2666 62.2441V72ZM72.8643 64.4121L69.2461 64.9102C68.1328 65.0664 67.293 65.3447 66.7266 65.7451C66.1602 66.1357 65.877 66.834 65.877 67.8398C65.877 68.5723 66.1357 69.1729 66.6533 69.6416C67.1807 70.1006 67.8789 70.3301 68.748 70.3301C69.9395 70.3301 70.9209 69.915 71.6924 69.085C72.4736 68.2451 72.8643 67.1855 72.8643 65.9062V64.4121Z"
    fill="var(--color-bg-link)"
  />
  <path
    d="M108.211 74H106.031L104.25 69.2891H97.125L95.4492 74H93.2578L99.7031 57.1953H101.742L108.211 74ZM103.605 67.5195L100.969 60.3594C100.883 60.125 100.797 59.75 100.711 59.2344H100.664C100.586 59.7109 100.496 60.0859 100.395 60.3594L97.7812 67.5195H103.605ZM122.013 74H120.091V72.125H120.045C119.209 73.5625 117.978 74.2812 116.353 74.2812C115.158 74.2812 114.22 73.9648 113.541 73.332C112.869 72.6992 112.533 71.8594 112.533 70.8125C112.533 68.5703 113.853 67.2656 116.494 66.8984L120.091 66.3945C120.091 64.3555 119.267 63.3359 117.619 63.3359C116.173 63.3359 114.869 63.8281 113.705 64.8125V62.8438C114.884 62.0938 116.244 61.7188 117.783 61.7188C120.603 61.7188 122.013 63.2109 122.013 66.1953V74ZM120.091 67.9297L117.197 68.3281C116.306 68.4531 115.634 68.6758 115.181 68.9961C114.728 69.3086 114.502 69.8672 114.502 70.6719C114.502 71.2578 114.709 71.7383 115.123 72.1133C115.545 72.4805 116.103 72.6641 116.798 72.6641C117.752 72.6641 118.537 72.332 119.154 71.668C119.779 70.9961 120.091 70.1484 120.091 69.125V67.9297Z"
    fill="var(--color-bg-link)"
  />
  <path
    d="M152.408 75H150.773L149.438 71.4668H144.094L142.837 75H141.193L146.027 62.3965H147.557L152.408 75ZM148.954 70.1396L146.977 64.7695C146.912 64.5938 146.848 64.3125 146.783 63.9258H146.748C146.689 64.2832 146.622 64.5645 146.546 64.7695L144.586 70.1396H148.954ZM162.76 75H161.319V73.5938H161.283C160.656 74.6719 159.734 75.2109 158.515 75.2109C157.618 75.2109 156.915 74.9736 156.405 74.499C155.902 74.0244 155.65 73.3945 155.65 72.6094C155.65 70.9277 156.64 69.9492 158.62 69.6738L161.319 69.2959C161.319 67.7666 160.7 67.002 159.464 67.002C158.38 67.002 157.402 67.3711 156.529 68.1094V66.6328C157.413 66.0703 158.433 65.7891 159.587 65.7891C161.702 65.7891 162.76 66.9082 162.76 69.1465V75ZM161.319 70.4473L159.148 70.7461C158.48 70.8398 157.976 71.0068 157.636 71.2471C157.296 71.4814 157.126 71.9004 157.126 72.5039C157.126 72.9434 157.281 73.3037 157.592 73.585C157.908 73.8604 158.327 73.998 158.849 73.998C159.564 73.998 160.153 73.749 160.615 73.251C161.084 72.7471 161.319 72.1113 161.319 71.3438V70.4473Z"
    fill="var(--color-bg-link)"
  />
</svg>
