<svg width="12" height="12" viewBox="0 0 12 12" fill="none" xmlns="http://www.w3.org/2000/svg">
  <path
    d="M3.1239 0H0V2.04252C0.110404 2.16675 0.225614 2.29404 0.345245 2.42369C0.644045 2.08674 1.04124 1.71046 1.47913 1.32879C1.97651 0.895265 2.54584 0.438185 3.1239 0Z"
    fill="black"
  />
  <path
    d="M4.81884 0C4.57328 0.172696 4.32145 0.354437 4.06886 0.541513C3.38886 1.04516 2.70909 1.58328 2.13619 2.08263C1.66848 2.4903 1.28952 2.85714 1.0387 3.14974C1.41442 3.53 1.8192 3.91916 2.24458 4.30241C2.76165 4.76828 3.30348 5.22019 3.85537 5.63445C4.44184 4.75505 5.4893 3.50308 6.84501 2.25248C7.68397 1.47855 8.6498 0.696932 9.70874 0H4.81884Z"
    fill="black"
  />
  <path
    d="M11.665 0C10.1132 0.821704 8.6978 1.90383 7.52305 2.9875C6.19434 4.2132 5.19716 5.41879 4.67151 6.21304C5.44982 6.73127 6.23371 7.15371 6.98338 7.41609C7.47696 7.58884 7.95579 7.72975 8.41847 7.84426C8.82277 6.82001 9.96736 4.78787 12 3.07151V0H11.665Z"
    fill="black"
  />
  <path
    d="M12 4.42108C10.5981 5.78676 9.76219 7.24424 9.41264 8.0562C10.3602 8.22613 11.2274 8.29113 12 8.30598V4.42108Z"
    fill="black"
  />
  <path
    d="M12 9.30654C11.7062 9.30092 11.3981 9.2884 11.0765 9.2662C11.176 9.58004 11.3172 9.95007 11.505 10.3323C11.6463 10.6201 11.8111 10.9086 12 11.1822V9.30654Z"
    fill="black"
  />
  <path
    d="M11.3581 12C11.0542 11.6011 10.8061 11.1776 10.6074 10.7733C10.313 10.174 10.1168 9.59523 10.0061 9.15915C9.3021 9.06641 8.54836 8.9222 7.75386 8.70368C8.06781 9.64438 8.58722 10.9054 9.28893 12H11.3581Z"
    fill="black"
  />
  <path
    d="M8.12097 12C7.3535 10.6565 6.84121 9.21573 6.59554 8.33957C5.13289 7.8148 3.61951 6.7837 2.27437 5.65397C2.30811 6.70492 2.53091 8.30119 3.25431 9.77698C3.7015 10.6893 4.10108 11.4265 4.43045 12H8.12097Z"
    fill="black"
  />
  <path
    d="M3.24239 12C2.9687 11.5161 2.66306 10.9437 2.33538 10.2752C1.30115 8.1653 1.20817 5.80303 1.29041 4.78522C0.831224 4.36011 0.397589 3.93106 0 3.51619C0 6.35313 -4.67874e-07 9.17419 1.00583e-07 12H3.24239Z"
    fill="black"
  />
</svg>
