<svg viewBox="0 0 12 12" xmlns="http://www.w3.org/2000/svg">
  <path
    fill-rule="evenodd"
    clip-rule="evenodd"
    d="M2 2C2 1.5 2.5 1 3 1H6.5C6.74848 1 6.87348 1 6.98036 1.044C7.08854 1.08854 7.17817 1.17817 7.35851 1.35851L9.6216 3.6216C9.8164 3.8164 9.91092 3.91092 9.95678 4.025C10 4.13251 10 4.2574 10 4.5V10C10 10.5 9.5 11 9 11H3C2.5 11 2 10.5 2 10V2ZM9 4L7 2V3.5C7 3.77614 7.22386 4 7.5 4H9ZM4.23223 6.43934L4.93934 5.73223L6 6.79289L7.06066 5.73223L7.76777 6.43934L6.70711 7.5L7.76777 8.56066L7.06066 9.26777L6 8.20711L4.93934 9.26777L4.23223 8.56066L5.29289 7.5L4.23223 6.43934Z"
  />
</svg>
