<svg viewBox="0 0 24 24" xmlns="http://www.w3.org/2000/svg">
<path fill-rule="evenodd" clip-rule="evenodd" d="M4.01 4C4.01 2.9 4.9 2 6 2H13.5858C13.851 2 14.1054 2.10536 14.2929 2.29289L19.7071 7.70711C19.8946 7.89464 20 8.149 20 8.41421V20C20 21.1 19.1 22 18 22H5.99C4.89 22 4 21.1 4 20L4.01 4ZM13 3.5V8C13 8.55228 13.4477 9 14 9H18.5L13 3.5ZM12.7 15.8142L14.1142 14.4L15.5284 15.8142L16.9426 14.4L18.3568 15.8142L16.9426 17.2285L18.3568 18.6427L16.9426 20.0569L15.5284 18.6427L14.1142 20.0569L12.7 18.6427L14.1142 17.2285L12.7 15.8142Z"/>
</svg>
