<svg viewBox="0 0 24 28" xmlns="http://www.w3.org/2000/svg">
  <rect width="24" height="28" rx="2" />
  <path
    opacity="0.7"
    fill-rule="evenodd"
    clip-rule="evenodd"
    d="M17 12L9 14V22H7.5C6.67157 22 6 22.6716 6 23.5C6 24.3284 6.67157 25 7.5 25H8C9.10455 25 10 24.1046 10 23V17.75L16 16.25V20H14.5C13.6716 20 13 20.6716 13 21.5C13 22.3284 13.6716 23 14.5 23H15C16.1046 23 17 22.1046 17 21V12ZM16 14.25L10 15.75V16.75L16 15.25V14.25Z"
    fill="white"
  />
  <path
    d="M19 7.42C19 7.97333 18.8658 8.37667 18.5973 8.63C18.3289 8.87667 17.8926 9 17.2886 9H16V8H17.26C17.515 8 17.6992 7.94333 17.82 7.83C17.9408 7.71 18 7.52333 18 7.27V6.72C18 6.5 17.9342 6.32667 17.8 6.2C17.6658 6.06667 17.4915 6 17.27 6H16.3121V5H17.2886C17.4966 5 17.6711 4.93333 17.8121 4.8C17.953 4.66667 18.0235 4.49 18.0235 4.27V3.72C18.0235 3.46667 17.9631 3.28333 17.8423 3.17C17.7282 3.05667 17.5436 3 17.2886 3H16V2H17.1678C17.7383 2 18.1678 2.12667 18.4564 2.38C18.7517 2.62667 18.8993 3.02 18.8993 3.56V4.19C18.8993 4.70333 18.7148 5.24 18.3456 5.5C18.7819 5.74 19 6.15 19 6.73V7.42Z"
    fill="white"
  />
  <path
    fill-rule="evenodd"
    clip-rule="evenodd"
    d="M11.8 4V4.24C12.0067 4.08 12.2733 4 12.6 4H13.3C13.8867 4 14.3167 4.12667 14.59 4.38C14.8633 4.62667 15 5.03333 15 5.6V7.4C15 7.96 14.86 8.36667 14.58 8.62C14.3067 8.87333 13.88 9 13.3 9H12.01V11H11V4H11.8ZM12.65 5C12.43 5 12.2667 5.06 12.16 5.18C12.0533 5.29333 12 5.41667 12 5.55L12.01 8H13.25C13.4967 8 13.6833 7.94333 13.81 7.83C13.9367 7.71667 14 7.55667 14 7.35V5.65C14 5.44333 13.9367 5.28333 13.81 5.17C13.6833 5.05667 13.4967 5 13.25 5H12.65Z"
    fill="white"
  />
  <path
    d="M6.5 4C6.88418 4 7.23462 4.14443 7.5 4.38195C7.76538 4.14443 8.11582 4 8.5 4C9.29744 4 9.94953 4.62226 9.99721 5.40771L10 5.41V9H9V5.5C9 5.22386 8.77614 5 8.5 5C8.22386 5 8 5.22386 8 5.5V9H7V5.5C7 5.22386 6.77614 5 6.5 5C6.22386 5 6 5.22386 6 5.5V9H5V4H5.8V4.17301C6.00897 4.06255 6.24718 4 6.5 4Z"
    fill="white"
  />
</svg>
