<svg viewBox="0 0 30 40" xmlns="http://www.w3.org/2000/svg">
  <path
    d="M28 0H2C0.89543 0 0 0.89543 0 2V38C0 39.1046 0.89543 40 2 40H28C29.1046 40 30 39.1046 30 38V2C30 0.89543 29.1046 0 28 0Z"
  />
  <path
    opacity="0.6"
    fill-rule="evenodd"
    clip-rule="evenodd"
    d="M20 17L11.2727 19.1429V28.7857H9.63636C8.73262 28.7857 8 29.5053 8 30.3929C8 31.2805 8.73262 32 9.63636 32H10.1818C11.3868 32 12.3636 31.0406 12.3636 29.8571V23.1607L18.9091 21.5536V26.6429H17.2727C16.369 26.6429 15.6364 27.3624 15.6364 28.25C15.6364 29.1376 16.369 29.8571 17.2727 29.8571H17.8182C19.0231 29.8571 20 28.8978 20 27.7143V17ZM18.9091 19.4107L12.3636 21.0179V22.0893L18.9091 20.4821V19.4107Z"
    fill="#fff"
  />
  <path
    d="M22 10.42C22 10.9733 21.8658 11.3767 21.5973 11.63C21.3289 11.8767 20.8926 12 20.2886 12H19V11H20.26C20.515 11 20.6992 10.9433 20.82 10.83C20.9408 10.71 21 10.5233 21 10.27V9.72C21 9.5 20.9342 9.32667 20.8 9.2C20.6658 9.06667 20.4915 9 20.27 9H19.3121V8H20.2886C20.4966 8 20.6711 7.93333 20.8121 7.8C20.953 7.66667 21.0235 7.49 21.0235 7.27V6.72C21.0235 6.46667 20.9631 6.28333 20.8423 6.17C20.7282 6.05667 20.5436 6 20.2886 6H19V5H20.1678C20.7383 5 21.1678 5.12667 21.4564 5.38C21.7517 5.62667 21.8993 6.02 21.8993 6.56V7.19C21.8993 7.70333 21.7148 8.24 21.3456 8.5C21.7819 8.74 22 9.15 22 9.73V10.42Z"
    fill="#fff"
  />
  <path
    fill-rule="evenodd"
    clip-rule="evenodd"
    d="M14.8 7V7.24C15.0067 7.08 15.2733 7 15.6 7H16.3C16.8867 7 17.3167 7.12667 17.59 7.38C17.8633 7.62667 18 8.03333 18 8.6V10.4C18 10.96 17.86 11.3667 17.58 11.62C17.3067 11.8733 16.88 12 16.3 12H15.01V14H14V7H14.8ZM15.65 8C15.43 8 15.2667 8.06 15.16 8.18C15.0533 8.29333 15 8.41667 15 8.55L15.01 11H16.25C16.4967 11 16.6833 10.9433 16.81 10.83C16.9367 10.7167 17 10.5567 17 10.35V8.65C17 8.44333 16.9367 8.28333 16.81 8.17C16.6833 8.05667 16.4967 8 16.25 8H15.65Z"
    fill="#fff"
  />
  <path
    d="M9.5 7C9.88418 7 10.2346 7.14443 10.5 7.38195C10.7654 7.14443 11.1158 7 11.5 7C12.2974 7 12.9495 7.62226 12.9972 8.40771L13 8.41V12H12V8.5C12 8.22386 11.7761 8 11.5 8C11.2239 8 11 8.22386 11 8.5V12H10V8.5C10 8.22386 9.77614 8 9.5 8C9.22386 8 9 8.22386 9 8.5V12H8V7H8.8V7.17301C9.00897 7.06255 9.24718 7 9.5 7Z"
    fill="#fff"
  />
</svg>
