<svg viewBox="0 0 34 40" xmlns="http://www.w3.org/2000/svg">
  <path
    d="M32 0H2C0.89543 0 0 0.89543 0 2V38C0 39.1046 0.89543 40 2 40H32C33.1046 40 34 39.1046 34 38V2C34 0.89543 33.1046 0 32 0Z"
  />
  <path
    d="M24 10.42C24 10.9733 23.8658 11.3767 23.5973 11.63C23.3289 11.8767 22.8926 12 22.2886 12H21V11H22.26C22.515 11 22.6992 10.9433 22.82 10.83C22.9408 10.71 23 10.5233 23 10.27V9.72C23 9.5 22.9342 9.32667 22.8 9.2C22.6658 9.06667 22.4915 9 22.27 9H21.3121V8H22.2886C22.4966 8 22.6711 7.93333 22.8121 7.8C22.953 7.66667 23.0235 7.49 23.0235 7.27V6.72C23.0235 6.46667 22.9631 6.28333 22.8423 6.17C22.7282 6.05667 22.5436 6 22.2886 6H21V5H22.1678C22.7383 5 23.1678 5.12667 23.4564 5.38C23.7517 5.62667 23.8993 6.02 23.8993 6.56V7.19C23.8993 7.70333 23.7148 8.24 23.3456 8.5C23.7819 8.74 24 9.15 24 9.73V10.42Z"
    fill="white"
  />
  <path
    fill-rule="evenodd"
    clip-rule="evenodd"
    d="M16.8 7V7.24C17.0067 7.08 17.2733 7 17.6 7H18.3C18.8867 7 19.3167 7.12667 19.59 7.38C19.8633 7.62667 20 8.03333 20 8.6V10.4C20 10.96 19.86 11.3667 19.58 11.62C19.3067 11.8733 18.88 12 18.3 12H17.01V14H16V7H16.8ZM17.65 8C17.43 8 17.2667 8.06 17.16 8.18C17.0533 8.29333 17 8.41667 17 8.55L17.01 11H18.25C18.4967 11 18.6833 10.9433 18.81 10.83C18.9367 10.7167 19 10.5567 19 10.35V8.65C19 8.44333 18.9367 8.28333 18.81 8.17C18.6833 8.05667 18.4967 8 18.25 8H17.65Z"
    fill="white"
  />
  <path
    d="M11.5 7C11.8842 7 12.2346 7.14443 12.5 7.38195C12.7654 7.14443 13.1158 7 13.5 7C14.2974 7 14.9495 7.62226 14.9972 8.40771L15 8.41V12H14V8.5C14 8.22386 13.7761 8 13.5 8C13.2239 8 13 8.22386 13 8.5V12H12V8.5C12 8.22386 11.7761 8 11.5 8C11.2239 8 11 8.22386 11 8.5V12H10V7H10.8V7.17301C11.009 7.06255 11.2472 7 11.5 7Z"
    fill="white"
  />
  <path
    opacity="0.6"
    fill-rule="evenodd"
    clip-rule="evenodd"
    d="M23 17L12.2727 19.1429V28.7857H10.6364C9.73262 28.7857 9 29.5053 9 30.3929C9 31.2805 9.73262 32 10.6364 32H11.1818C12.3868 32 13.3636 31.0406 13.3636 29.8571V23.1607L21.9091 21.5536V26.6429H20.2727C19.369 26.6429 18.6364 27.3624 18.6364 28.25C18.6364 29.1376 19.369 29.8571 20.2727 29.8571H20.8182C22.0231 29.8571 23 28.8978 23 27.7143V17ZM21.9091 19.4107L13.3636 21.0179V22.0893L21.9091 20.4821V19.4107Z"
    fill="white"
  />
</svg>
