<svg viewBox="0 0 21 28" xmlns="http://www.w3.org/2000/svg">
  <path
    d="M19.6 0H1.4C0.626801 0 0 0.626801 0 1.4V26.6C0 27.3732 0.626801 28 1.4 28H19.6C20.3732 28 21 27.3732 21 26.6V1.4C21 0.626801 20.3732 0 19.6 0Z"
  />
  <path
    opacity="0.7"
    fill-rule="evenodd"
    clip-rule="evenodd"
    d="M15 12L8 14V22H6.5C5.67157 22 5 22.6716 5 23.5C5 24.3284 5.67157 25 6.5 25H7C8.10455 25 9 24.1046 9 23V17.75L14 16.25V20H12.5C11.6716 20 11 20.6716 11 21.5C11 22.3284 11.6716 23 12.5 23H13C14.1046 23 15 22.1046 15 21V12ZM14 14.25L9 15.75V16.75L14 15.25V14.25Z"
    fill="#fff"
  />
  <path
    d="M17.5 7.42C17.5 7.97333 17.3658 8.37667 17.0973 8.63C16.8289 8.87667 16.3926 9 15.7886 9H14.5V8H15.76C16.015 8 16.1992 7.94333 16.32 7.83C16.4408 7.71 16.5 7.52333 16.5 7.27V6.72C16.5 6.5 16.4342 6.32667 16.3 6.2C16.1658 6.06667 15.9915 6 15.77 6H14.8121V5H15.7886C15.9966 5 16.1711 4.93333 16.3121 4.8C16.453 4.66667 16.5235 4.49 16.5235 4.27V3.72C16.5235 3.46667 16.4631 3.28333 16.3423 3.17C16.2282 3.05667 16.0436 3 15.7886 3H14.5V2H15.6678C16.2383 2 16.6678 2.12667 16.9564 2.38C17.2517 2.62667 17.3993 3.02 17.3993 3.56V4.19C17.3993 4.70333 17.2148 5.24 16.8456 5.5C17.2819 5.74 17.5 6.15 17.5 6.73V7.42Z"
    fill="#fff"
  />
  <path
    fill-rule="evenodd"
    clip-rule="evenodd"
    d="M10.3 4V4.24C10.5067 4.08 10.7733 4 11.1 4H11.8C12.3867 4 12.8167 4.12667 13.09 4.38C13.3633 4.62667 13.5 5.03333 13.5 5.6V7.4C13.5 7.96 13.36 8.36667 13.08 8.62C12.8067 8.87333 12.38 9 11.8 9H10.51V11H9.5V4H10.3ZM11.15 5C10.93 5 10.7667 5.06 10.66 5.18C10.5533 5.29333 10.5 5.41667 10.5 5.55L10.51 8H11.75C11.9967 8 12.1833 7.94333 12.31 7.83C12.4367 7.71667 12.5 7.55667 12.5 7.35V5.65C12.5 5.44333 12.4367 5.28333 12.31 5.17C12.1833 5.05667 11.9967 5 11.75 5H11.15Z"
    fill="#fff"
  />
  <path
    d="M5 4C5.38418 4 5.73462 4.14443 6 4.38195C6.26538 4.14443 6.61582 4 7 4C7.79744 4 8.44953 4.62226 8.49721 5.40771L8.5 5.41V9H7.5V5.5C7.5 5.22386 7.27614 5 7 5C6.72386 5 6.5 5.22386 6.5 5.5V9H5.5V5.5C5.5 5.22386 5.27614 5 5 5C4.72386 5 4.5 5.22386 4.5 5.5V9H3.5V4H4.3V4.17301C4.50897 4.06255 4.74718 4 5 4Z"
    fill="#fff"
  />
</svg>
