<svg
  width="200"
  height="120"
  viewBox="0 0 200 120"
  fill="none"
  xmlns="http://www.w3.org/2000/svg"
>
  <g clip-path="url(#clip0_1889_15888)">
    <path
      d="M0 4C0 1.79086 1.79086 0 4 0H196C198.209 0 200 1.79086 200 4V116C200 118.209 198.209 120 196 120H4C1.79086 120 0 118.209 0 116V4Z"
      fill="var(--color-bg-secondary)"
    />
    <path
      d="M31 -5H169V91C169 93.2091 167.209 95 165 95H35C32.7909 95 31 93.2091 31 91V-5Z"
      fill="var(--color-bg-default)"
    />
    <path
      d="M31.5 -4.5H168.5V91C168.5 92.933 166.933 94.5 165 94.5H35C33.067 94.5 31.5 92.933 31.5 91V-4.5Z"
      stroke="var(--color-bg-border)"
    />
    <rect
      x="44.5"
      y="56.5"
      width="109"
      height="22"
      rx="1.5"
      fill="var(--color-bg-link)"
      stroke="var(--color-bg-link)"
    />
    <path
      fill-rule="evenodd"
      clip-rule="evenodd"
      d="M102.149 63.5874C101.503 62.9414 100.456 62.9414 99.8098 63.5874L95.9105 67.4868C94.8337 68.5635 94.8337 70.3093 95.9105 71.3861C96.9872 72.4628 98.733 72.4628 99.8098 71.3861L102.554 68.6419C102.769 68.4266 103.118 68.4266 103.334 68.6419C103.549 68.8573 103.549 69.2064 103.334 69.4218L100.59 72.1659C99.0822 73.6734 96.6381 73.6734 95.1306 72.1659C93.6231 70.6585 93.6231 68.2144 95.1306 66.7069L99.0299 62.8076C100.107 61.7308 101.852 61.7308 102.929 62.8076C104.006 63.8843 104.006 65.6301 102.929 66.7069L99.0358 70.6004C98.3897 71.2464 97.3422 71.2464 96.6962 70.6004C96.0501 69.9543 96.0501 68.9068 96.6962 68.2608L99.8098 65.1472C100.025 64.9318 100.374 64.9318 100.59 65.1472C100.805 65.3625 100.805 65.7117 100.59 65.927L97.476 69.0406C97.2607 69.256 97.2607 69.6051 97.476 69.8205C97.6914 70.0358 98.0406 70.0358 98.2559 69.8205L102.149 65.927C102.795 65.281 102.795 64.2335 102.149 63.5874Z"
      fill="var(--color-bg-default)"
    />
    <rect
      x="45"
      y="-20"
      width="108"
      height="60"
      stroke="var(--color-bg-border)"
      stroke-width="2"
      stroke-dasharray="4 4"
    />
  </g>
  <defs>
    <clipPath id="clip0_1889_15888">
      <rect width="200" height="120" fill="var(--color-bg-default)" />
    </clipPath>
  </defs>
</svg>
