<svg viewBox="0 0 420 176">
  <path
    fillRule="evenodd"
    clipRule="evenodd"
    d="M405.5 5C406.88 5 408 3.88071 408 2.5C408 1.11929 406.88 0 405.5 0C404.119 0 403 1.11929 403 2.5C403 3.88071 404.119 5 405.5 5ZM405.5 4C406.328 4 407 3.32843 407 2.5C407 1.67157 406.328 1 405.5 1C404.671 1 404 1.67157 404 2.5C404 3.32843 404.671 4 405.5 4Z"
  />
  <path
    fillRule="evenodd"
    clipRule="evenodd"
    d="M14.9314 19.2815C14.4998 21.729 12.1659 23.3632 9.71836 22.9317C7.27083 22.5001 5.63658 20.1661 6.06814 17.7186C6.49971 15.2711 8.83367 13.6368 11.2812 14.0684C13.7287 14.5 15.363 16.8339 14.9314 19.2815ZM9.92055 18.9056L10.4415 15.9512L11.4263 16.1248L10.9054 19.0793L9.92055 18.9056ZM10.7317 20.0641L9.7469 19.8904L9.57325 20.8752L10.5581 21.0489L10.7317 20.0641Z"
  />
  <path
    fillRule="evenodd"
    clipRule="evenodd"
    d="M26.0626 116C26.1187 117.011 26.2117 118.011 26.3406 119H25.9997C26.1804 143.209 47.2029 162 78.9997 162C111.158 162 132 142.364 132 114C132 113.146 131.982 112.304 131.946 111.472C131.982 110.656 132 109.832 132 109C132 82.0811 114.125 66 90.9997 66C77.0116 66 67.6246 72.4964 63.0129 80.9757L62.9997 81H61.517L63.9997 57H125V23H33.9997L27.9997 101H28.3843L27.9997 106H60.9997C64.071 99.9478 70.8699 96 78.9997 96C88.3233 96 94.9 101.774 95.8744 111.446C94.8535 121.251 87.6914 128 77.9997 128C69.1472 128 62.445 122.762 60.9997 114H25.9997C26.0047 114.671 26.0258 115.338 26.0626 116ZM64.19 83H58.7822L62.196 50H123V25H35.8518L30.1595 99H59.8198C63.5097 92.8144 70.7182 89 78.9997 89C84.5187 89 89.3179 90.8648 92.7342 94.4122C96.1453 97.9541 97.9997 102.987 97.9997 109C97.9997 121.116 89.6799 130 77.9997 130C73.1758 130 68.8256 128.569 65.4616 125.839C62.4884 123.425 60.374 120.068 59.3699 116H28.0663C29.3531 137.85 48.8844 155 78.9997 155C94.6731 155 107.411 150.22 116.208 142.162C124.991 134.117 130 122.668 130 109C130 95.9972 125.692 85.7789 118.755 78.8171C111.812 71.8497 102.092 68 90.9997 68C77.6852 68 68.9931 74.1472 64.7577 81.9538L64.19 83Z"
  />
  <path
    d="M208.188 74.5245C207.054 73.7686 207.008 72.1186 208.098 71.3009L209.3 70.4C209.521 70.2343 209.565 69.9209 209.4 69.7C209.234 69.4791 208.921 69.4343 208.7 69.6L207.498 70.5009C205.856 71.7326 205.925 74.2179 207.633 75.3565L207.722 75.416C208.853 76.1695 208.853 77.8304 207.722 78.5839C205.998 79.7333 205.998 82.2666 207.722 83.416C208.853 84.1695 208.853 85.8304 207.722 86.5839C205.998 87.7333 205.998 90.2666 207.722 91.416C208.853 92.1695 208.853 93.8304 207.722 94.5839C205.998 95.7333 205.998 98.2666 207.722 99.416C208.853 100.17 208.853 101.83 207.722 102.584C205.998 103.733 205.998 106.267 207.722 107.416L207.812 107.475C208.945 108.231 208.991 109.881 207.901 110.699L206.7 111.6C206.479 111.766 206.434 112.079 206.6 112.3C206.765 112.521 207.079 112.566 207.3 112.4L208.501 111.499C210.143 110.267 210.074 107.782 208.366 106.643L208.277 106.584C207.147 105.83 207.147 104.17 208.277 103.416C210.001 102.267 210.001 99.7333 208.277 98.5839C207.147 97.8304 207.147 96.1695 208.277 95.416C210.001 94.2666 210.001 91.7333 208.277 90.5839C207.147 89.8304 207.147 88.1695 208.277 87.416C210.001 86.2666 210.001 83.7333 208.277 82.5839C207.147 81.8304 207.147 80.1695 208.277 79.416C210.001 78.2666 210.001 75.7333 208.277 74.5839L208.188 74.5245Z"
  />
  <path
    fillRule="evenodd"
    clipRule="evenodd"
    d="M193.186 118.431C189.847 111.174 188 100.597 188 87C188 73.4551 189.845 63.3481 193.21 56.5517C196.621 49.6636 201.719 46 208 46C214.28 46 219.378 49.6636 222.789 56.5517C226.155 63.3481 228 73.4551 228 87C228 100.597 226.152 111.174 222.814 118.431C219.466 125.707 214.408 130 208 130C201.591 130 196.533 125.707 193.186 118.431ZM208 128C197.676 128 190.466 114.793 190.021 89.507C190.466 64.4163 197.677 53 208 53C218.323 53 225.534 64.4163 225.978 89.5068C225.534 114.792 218.323 128 208 128Z"
  />
  <path
    fillRule="evenodd"
    clipRule="evenodd"
    d="M151 87C151 87.8416 151.008 88.677 151.024 89.5062C151.008 90.3305 151 91.1617 151 92C151 135.179 172.77 162 208 162C243.139 162 265 135.088 265 92C265 91.16 264.991 90.3271 264.975 89.5011L264.975 89.5061C264.991 88.677 265 87.8416 265 87C265 43.731 242.958 19 208 19C173.041 19 151 43.731 151 87ZM263 87C263 65.6845 257.571 49.1974 248.087 38.0715C238.637 26.9852 224.976 21 208 21C191.024 21 177.362 26.9852 167.912 38.0715C158.429 49.1974 153 65.6845 153 87C153 108.276 158.364 125.283 167.84 136.93C177.277 148.529 190.938 155 208 155C225.013 155 238.675 148.509 248.126 136.896C257.614 125.236 263 108.228 263 87Z"
  />
  <path
    fillRule="evenodd"
    clipRule="evenodd"
    d="M351 77.5C351 78.8807 349.88 80 348.5 80C347.119 80 346 78.8807 346 77.5C346 76.1193 347.119 75 348.5 75C349.88 75 351 76.1193 351 77.5ZM350 77.5C350 78.3284 349.328 79 348.5 79C347.671 79 347 78.3284 347 77.5C347 76.6716 347.671 76 348.5 76C349.328 76 350 76.6716 350 77.5Z"
  />
  <path
    fillRule="evenodd"
    clipRule="evenodd"
    d="M328.711 118.484C325.105 111.219 323 100.627 323 87C323 73.4235 325.103 63.3012 328.739 56.4968C332.412 49.6217 337.755 46 344 46C350.28 46 355.378 49.6636 358.789 56.5517C362.155 63.3481 364 73.4551 364 87C364 100.597 362.152 111.174 358.814 118.431C355.466 125.707 350.408 130 344 130C337.631 130 332.321 125.756 328.711 118.484ZM344 128C354.323 128 361.534 114.793 361.978 89.507C361.534 64.4163 354.323 53 344 53C333.677 53 325.528 64.4163 325.024 89.5067C325.528 114.792 333.676 128 344 128Z"
  />
  <path
    fillRule="evenodd"
    clipRule="evenodd"
    d="M401 87C401 87.8399 400.991 88.6735 400.975 89.5011C400.991 90.3271 401 91.16 401 92C401 135.088 379.139 162 344 162C308.77 162 286 135.179 286 92C286 91.1616 286.008 90.3302 286.026 89.5058C286.008 88.6768 286 87.8416 286 87C286 43.731 309.041 19 344 19C378.958 19 401 43.731 401 87ZM399 87C399 65.6845 393.571 49.1974 384.087 38.0715C374.637 26.9852 360.976 21 344 21C327.019 21 313.098 26.989 303.396 38.0902C293.668 49.2216 288 65.7056 288 87C288 108.255 293.604 125.259 303.324 136.911C313.013 148.525 326.933 155 344 155C361.013 155 374.675 148.509 384.126 136.896C393.614 125.236 399 108.228 399 87Z"
  />
  <path
    fillRule="evenodd"
    clipRule="evenodd"
    d="M294.718 30.9317C297.166 31.3632 299.5 29.729 299.931 27.2815C300.363 24.8339 298.729 22.5 296.281 22.0684C293.834 21.6368 291.5 23.2711 291.068 25.7186C290.637 28.1661 292.271 30.5001 294.718 30.9317ZM295.441 23.9512L294.921 26.9056L295.905 27.0793L296.426 24.1248L295.441 23.9512ZM294.747 27.8904L295.732 28.0641L295.558 29.0489L294.573 28.8752L294.747 27.8904Z"
  />
  <path
    fillRule="evenodd"
    clipRule="evenodd"
    d="M401.931 166.719C402.363 169.166 400.729 171.5 398.281 171.932C395.834 172.363 393.5 170.729 393.068 168.281C392.637 165.834 394.271 163.5 396.718 163.068C399.166 162.637 401.5 164.271 401.931 166.719ZM397.094 168.079L396.573 165.125L397.558 164.951L398.079 167.906L397.094 168.079ZM398.253 168.89L397.268 169.064L397.442 170.049L398.426 169.875L398.253 168.89Z"
  />
  <path
    fillRule="evenodd"
    clipRule="evenodd"
    d="M150.281 149.932C152.729 149.5 154.363 147.166 153.931 144.719C153.5 142.271 151.166 140.637 148.718 141.068C146.271 141.5 144.637 143.834 145.068 146.281C145.5 148.729 147.834 150.363 150.281 149.932ZM148.573 143.125L149.094 146.079L150.079 145.906L149.558 142.951L148.573 143.125ZM149.268 147.064L150.253 146.89L150.426 147.875L149.441 148.049L149.268 147.064Z"
  />
  <path
    fillRule="evenodd"
    clipRule="evenodd"
    d="M132 69.5C132 70.8807 130.881 72 129.5 72C128.119 72 127 70.8807 127 69.5C127 68.1193 128.119 67 129.5 67C130.881 67 132 68.1193 132 69.5ZM131 69.5C131 70.3284 130.328 71 129.5 71C128.671 71 128 70.3284 128 69.5C128 68.6716 128.671 68 129.5 68C130.328 68 131 68.6716 131 69.5Z"
  />
  <path
    fillRule="evenodd"
    clipRule="evenodd"
    d="M303.5 166C304.88 166 306 164.881 306 163.5C306 162.119 304.88 161 303.5 161C302.119 161 301 162.119 301 163.5C301 164.881 302.119 166 303.5 166ZM303.5 165C304.328 165 305 164.328 305 163.5C305 162.672 304.328 162 303.5 162C302.671 162 302 162.672 302 163.5C302 164.328 302.671 165 303.5 165Z"
  />
  <path
    fillRule="evenodd"
    clipRule="evenodd"
    d="M194 10.5C194 11.8807 192.88 13 191.5 13C190.119 13 189 11.8807 189 10.5C189 9.11929 190.119 8 191.5 8C192.88 8 194 9.11929 194 10.5ZM193 10.5C193 11.3284 192.328 12 191.5 12C190.671 12 190 11.3284 190 10.5C190 9.67157 190.671 9 191.5 9C192.328 9 193 9.67157 193 10.5Z"
  />
  <path
    fillRule="evenodd"
    clipRule="evenodd"
    d="M15.4997 161C16.8804 161 17.9997 159.881 17.9997 158.5C17.9997 157.119 16.8804 156 15.4997 156C14.119 156 12.9997 157.119 12.9997 158.5C12.9997 159.881 14.119 161 15.4997 161ZM15.4997 160C16.3281 160 16.9997 159.328 16.9997 158.5C16.9997 157.672 16.3281 157 15.4997 157C14.6712 157 13.9997 157.672 13.9997 158.5C13.9997 159.328 14.6712 160 15.4997 160Z"
  />
  <path
    d="M118.475 6.18814C119.231 5.05426 120.881 5.00846 121.699 6.09867L122.6 7.29997C122.765 7.52089 123.079 7.56566 123.3 7.39997C123.521 7.23429 123.565 6.92089 123.4 6.69997L122.499 5.49867C121.267 3.8565 118.782 3.92548 117.643 5.63344L117.584 5.72262C116.83 6.85291 115.169 6.85291 114.416 5.72262C113.266 3.9986 110.733 3.9986 109.584 5.72262C108.83 6.85291 107.169 6.85291 106.416 5.72262C105.266 3.9986 102.733 3.9986 101.584 5.72262C100.83 6.85291 99.1693 6.85291 98.4158 5.72262C97.2664 3.9986 94.7331 3.9986 93.5837 5.72262C92.8302 6.85291 91.1693 6.85291 90.4158 5.72262C89.2664 3.9986 86.7331 3.9986 85.5837 5.72262L85.5243 5.8118C84.7683 6.94569 83.1184 6.99148 82.3007 5.90127L81.3997 4.69997C81.234 4.47906 80.9206 4.43429 80.6997 4.59997C80.4788 4.76566 80.434 5.07906 80.5997 5.29997L81.5007 6.50127C82.7323 8.14345 85.2177 8.07446 86.3563 6.3665L86.4158 6.27732C87.1693 5.14703 88.8302 5.14703 89.5837 6.27732C90.7331 8.00135 93.2664 8.00135 94.4158 6.27732C95.1693 5.14703 96.8302 5.14703 97.5837 6.27732C98.7331 8.00135 101.266 8.00135 102.416 6.27732C103.169 5.14703 104.83 5.14703 105.584 6.27732C106.733 8.00135 109.266 8.00135 110.416 6.27732C111.169 5.14703 112.83 5.14703 113.584 6.27732C114.733 8.00135 117.266 8.00135 118.416 6.27732L118.475 6.18814Z"
  />
  <path
    d="M365.699 172.099C364.881 171.008 363.231 171.054 362.475 172.188L362.416 172.277C361.266 174.001 358.733 174.001 357.584 172.277C356.83 171.147 355.169 171.147 354.416 172.277C353.266 174.001 350.733 174.001 349.584 172.277C348.83 171.147 347.169 171.147 346.416 172.277C345.266 174.001 342.733 174.001 341.584 172.277C340.83 171.147 339.169 171.147 338.416 172.277C337.266 174.001 334.733 174.001 333.584 172.277C332.83 171.147 331.169 171.147 330.416 172.277L330.356 172.367C329.218 174.074 326.732 174.143 325.501 172.501L324.6 171.3C324.434 171.079 324.479 170.766 324.7 170.6C324.921 170.434 325.234 170.479 325.4 170.7L326.301 171.901C327.118 172.991 328.768 172.946 329.524 171.812L329.584 171.723C330.733 169.999 333.266 169.999 334.416 171.723C335.169 172.853 336.83 172.853 337.584 171.723C338.733 169.999 341.266 169.999 342.416 171.723C343.169 172.853 344.83 172.853 345.584 171.723C346.733 169.999 349.266 169.999 350.416 171.723C351.169 172.853 352.83 172.853 353.584 171.723C354.733 169.999 357.266 169.999 358.416 171.723C359.169 172.853 360.83 172.853 361.584 171.723L361.643 171.633C362.782 169.925 365.267 169.856 366.499 171.499L367.4 172.7C367.565 172.921 367.521 173.234 367.3 173.4C367.079 173.566 366.766 173.521 366.6 173.3L365.699 172.099Z"
  />
  <path
    d="M13.5292 61.5946C12.4607 60.7488 12.5494 59.1006 13.7026 58.3744L14.9733 57.5743C15.207 57.4272 15.2772 57.1185 15.13 56.8848C14.9829 56.6511 14.6742 56.581 14.4405 56.7281L13.1698 57.5282C11.4327 58.622 11.299 61.1047 12.9086 62.3787L12.9926 62.4452C14.0578 63.2883 13.9225 64.9437 12.7346 65.6026C10.9227 66.6077 10.7163 69.1326 12.341 70.4186C13.4061 71.2617 13.2708 72.9171 12.0829 73.576C10.271 74.5811 10.0646 77.106 11.6893 78.392C12.7545 79.2351 12.6192 80.8905 11.4313 81.5494C9.61934 82.5545 9.41298 85.0795 11.0377 86.3654C12.1028 87.2085 11.9675 88.8639 10.7796 89.5229C8.96769 90.5279 8.76133 93.0529 10.386 94.3388L10.47 94.4054C11.5386 95.2511 11.4498 96.8994 10.2966 97.6255L9.02593 98.4256C8.79226 98.5728 8.7221 98.8815 8.86924 99.1151C9.01638 99.3488 9.3251 99.419 9.55877 99.2718L10.8295 98.4717C12.5665 97.3779 12.7002 94.8952 11.0907 93.6213L11.0066 93.5547C9.94148 92.7116 10.0768 91.0563 11.2647 90.3973C13.0766 89.3922 13.283 86.8673 11.6583 85.5813C10.5931 84.7382 10.7284 83.0829 11.9163 82.4239C13.7283 81.4188 13.9346 78.8939 12.3099 77.6079C11.2448 76.7648 11.3801 75.1094 12.568 74.4505C14.3799 73.4454 14.5863 70.9205 12.9616 69.6345C11.8964 68.7914 12.0317 67.136 13.2197 66.4771C15.0316 65.472 15.2379 62.947 13.6133 61.6611L13.5292 61.5946Z"
  />
  <path
    d="M409.859 32.9991C410.052 31.65 408.853 30.5157 407.517 30.783L407.411 30.804C405.38 31.2104 403.588 29.419 403.995 27.3872C404.261 26.0552 403.087 24.8807 401.755 25.1471C399.723 25.5535 397.931 23.7621 398.338 21.7304C398.604 20.3983 397.43 19.2239 396.098 19.4903C394.066 19.8966 392.275 18.1053 392.681 16.0735C392.947 14.7415 391.773 13.567 390.441 13.8334C388.409 14.2398 386.618 12.4484 387.024 10.4167C387.29 9.0846 386.116 7.91017 384.784 8.17658L384.679 8.1976C382.666 8.60017 380.86 6.89156 381.15 4.85947L381.363 3.37294C381.402 3.09957 381.655 2.90962 381.928 2.94867C382.202 2.98773 382.392 3.24099 382.353 3.51436L382.14 5.00089C381.947 6.34996 383.146 7.48428 384.483 7.21702L384.588 7.196C386.62 6.78964 388.411 8.58099 388.005 10.6128C387.738 11.9448 388.913 13.1193 390.245 12.8529C392.277 12.4465 394.068 14.2378 393.662 16.2696C393.395 17.6017 394.57 18.7761 395.902 18.5097C397.933 18.1033 399.725 19.8947 399.318 21.9265C399.052 23.2585 400.226 24.433 401.558 24.1666C403.59 23.7602 405.382 25.5516 404.975 27.5833C404.709 28.9154 405.883 30.0898 407.215 29.8234L407.32 29.8024C409.333 29.3998 411.139 31.1084 410.849 33.1405L410.637 34.6271C410.598 34.9004 410.344 35.0904 410.071 35.0513C409.798 35.0123 409.608 34.759 409.647 34.4856L409.859 32.9991Z"
  />
  <path
    d="M279.5 60.3074V56C279.5 55.7239 279.724 55.5 280 55.5C280.276 55.5 280.5 55.7239 280.5 56V60.3074C280.5 62.1381 279.385 63.7843 277.685 64.4642C276.365 64.9923 275.5 66.2708 275.5 67.6926V72C275.5 72.2761 275.276 72.5 275 72.5C274.724 72.5 274.5 72.2761 274.5 72V67.6926C274.5 65.8619 275.614 64.2157 277.314 63.5358C278.634 63.0077 279.5 61.7292 279.5 60.3074Z"
  />
  <path
    d="M49.1347 174.896L45.152 173.256C43.8374 172.714 42.985 171.427 42.9996 170.005C43.0184 168.175 41.9208 166.517 40.2281 165.82L36.2454 164.179C35.9901 164.074 35.6978 164.195 35.5927 164.451C35.4875 164.706 35.6092 164.998 35.8645 165.104L39.8472 166.744C41.1618 167.286 42.0142 168.573 41.9996 169.995C41.9808 171.825 43.0784 173.483 44.7711 174.18L48.7538 175.821C49.0091 175.926 49.3013 175.805 49.4065 175.549C49.5117 175.294 49.39 175.002 49.1347 174.896Z"
  />
  <path
    d="M415.5 115.307V111C415.5 110.724 415.724 110.5 416 110.5C416.276 110.5 416.5 110.724 416.5 111V115.307C416.5 117.138 415.385 118.784 413.685 119.464C412.365 119.992 411.5 121.271 411.5 122.693V127C411.5 127.276 411.276 127.5 411 127.5C410.724 127.5 410.5 127.276 410.5 127V122.693C410.5 120.862 411.614 119.216 413.314 118.536C414.634 118.008 415.5 116.729 415.5 115.307Z"
  />
  <path
    d="M245.135 162.57C246.483 162.118 247.42 160.891 247.501 159.472C247.605 157.644 248.811 156.064 250.547 155.482L254.631 154.112C254.893 154.024 255.176 154.165 255.264 154.427C255.352 154.689 255.211 154.972 254.949 155.06L250.865 156.43C249.517 156.882 248.58 158.109 248.499 159.528C248.395 161.356 247.188 162.936 245.453 163.518L241.369 164.888C241.107 164.976 240.824 164.835 240.736 164.573C240.648 164.311 240.789 164.028 241.051 163.94L245.135 162.57Z"
  />
</svg>
