<svg width="16" height="16" viewBox="0 0 16 16" fill="none" xmlns="http://www.w3.org/2000/svg">
  <path
    fill-rule="evenodd"
    clip-rule="evenodd"
    d="M6.00002 1C5.44773 1 5.00002 1.44772 5.00002 2C5.00002 2.55228 5.44773 3 6.00002 3V7L4.48242 9.42815L11.0162 8.6259L10 7V3C10.5523 3 11 2.55228 11 2C11 1.44772 10.5523 1 10 1H6.00002ZM11.601 9.5616L3.80039 10.5194L2.14752 13.164C1.64798 13.9633 2.22259 15 3.16511 15H12.8349C13.7774 15 14.3521 13.9633 13.8525 13.164L11.601 9.5616ZM6 13C6 13.5523 5.55228 14 5 14C4.44772 14 4 13.5523 4 13C4 12.4477 4.44772 12 5 12C5.55228 12 6 12.4477 6 13ZM7.5 12C7.77614 12 8 11.7761 8 11.5C8 11.2239 7.77614 11 7.5 11C7.22386 11 7 11.2239 7 11.5C7 11.7761 7.22386 12 7.5 12ZM9 13.5C9 13.7761 8.77614 14 8.5 14C8.22386 14 8 13.7761 8 13.5C8 13.2239 8.22386 13 8.5 13C8.77614 13 9 13.2239 9 13.5ZM11 13C11.5523 13 12 12.5523 12 12C12 11.4477 11.5523 11 11 11C10.4477 11 10 11.4477 10 12C10 12.5523 10.4477 13 11 13Z"
    fill="black"
  />
</svg>
