<svg width="12" height="12" viewBox="0 0 12 12" fill="none" xmlns="http://www.w3.org/2000/svg">
  <path
    fill-rule="evenodd"
    clip-rule="evenodd"
    d="M4.5 5.36489V1.99948C4.22173 1.99948 4.01926 1.77614 4.01926 1.5C4.01926 1.22386 4.22173 1 4.5 1H7.5C7.77827 1 8 1.22386 8 1.5C8 1.77614 7.77827 2 7.5 2V5.46472L8.00977 6.12866L3.51844 6.80444L4.5 5.36489ZM2.72942 7.93459L8.64879 7.04396L10.3635 9.5C10.7514 10.1667 10.2665 11 9.49079 11H2.50921C1.73348 11 1.24864 10.1667 1.63651 9.5L2.72942 7.93459ZM4.5 10C4.77614 10 5 9.77614 5 9.5C5 9.22386 4.77614 9 4.5 9C4.22386 9 4 9.22386 4 9.5C4 9.77614 4.22386 10 4.5 10ZM7 10C7.55229 10 8 9.55229 8 9C8 8.44771 7.55229 8 7 8C6.44772 8 6 8.44771 6 9C6 9.55229 6.44772 10 7 10Z"
    fill="black"
  />
</svg>
