<svg viewBox="0 0 30 40" xmlns="http://www.w3.org/2000/svg">
  <path
    d="M28 0H2C0.89543 0 0 0.89543 0 2V38C0 39.1046 0.89543 40 2 40H28C29.1046 40 30 39.1046 30 38V2C30 0.89543 29.1046 0 28 0Z"
  />
  <path
    opacity="0.6"
    fill-rule="evenodd"
    clip-rule="evenodd"
    d="M8.5 18L8 18V18.5V27.6667L10 25L15 30L19 27L22 29.25C22 29.25 22 18.6417 22 18.5C22 18.3583 22 18 22 18C22 18 21.6344 18 21.5 18C21.3656 18 8.5 18 8.5 18ZM8 31.5V29.3333L10.1082 26.5224L14.9062 31.3204L19 28.25L22 30.5V31.5C22 31.6406 22 32 22 32C22 32 21.6356 32 21.5 32H8.5C8.347 32 8 32 8 32C8 32 8 31.6231 8 31.5ZM7 18.5V29V31.5V32C7 32.2768 7.00001 33 7.00001 33C7.00001 33 7.72447 33 8 33H8.5H21.5H22C22.2822 33 23 33 23 33C23 33 23 32.2701 23 32V31.5V30C23 30 23 18.9254 23 18.5C23 18.0746 23 17 23 17C23 17 21.903 17 21.5 17C21.097 17 8.5 17 8.5 17C8 17 7 17 7 17C7 17 7 18 7 18.5ZM16 22.5C16 21.6716 16.6716 21 17.5 21C18.3284 21 19 21.6716 19 22.5C19 23.3284 18.3284 24 17.5 24C16.6716 24 16 23.3284 16 22.5ZM17.5 20C16.1193 20 15 21.1193 15 22.5C15 23.8807 16.1193 25 17.5 25C18.8807 25 20 23.8807 20 22.5C20 21.1193 18.8807 20 17.5 20Z"
    fill="#fff"
  />
  <path
    fill-rule="evenodd"
    clip-rule="evenodd"
    d="M8.5 11.77C8.72 11.9233 8.98667 12 9.3 12H9.8C10.3867 12 10.8167 11.8767 11.09 11.63C11.3633 11.3767 11.5 10.9667 11.5 10.4V8.6C11.5 8.04 11.3633 7.63333 11.09 7.38C10.81 7.12667 10.32 7 9.74 7H8.5V5H7.5V12H8.5V11.77ZM9.15 11C8.93 11 8.76667 10.9433 8.66 10.83C8.55333 10.71 8.5 10.5833 8.5 10.45V8H9.75C9.99667 8 10.1833 8.05667 10.31 8.17C10.4367 8.28333 10.5 8.44333 10.5 8.65V10.35C10.5 10.5567 10.4367 10.7167 10.31 10.83C10.1833 10.9433 9.99667 11 9.75 11H9.15Z"
    fill="#fff"
  />
  <path
    d="M14 7C14.3842 7 14.7346 7.14443 15 7.38195C15.2654 7.14443 15.6158 7 16 7C16.7974 7 17.4495 7.62226 17.4972 8.40771L17.5 8.41V12H16.5V8.5C16.5 8.22386 16.2761 8 16 8C15.7239 8 15.5 8.22386 15.5 8.5V12H14.5V8.5C14.5 8.22386 14.2761 8 14 8C13.7239 8 13.5 8.22386 13.5 8.5V12H12.5V7H13.3V7.17301C13.509 7.06255 13.7472 7 14 7Z"
    fill="#fff"
  />
  <path
    fill-rule="evenodd"
    clip-rule="evenodd"
    d="M19.3 7.24V7H18.5V14H19.51V12H20.8C21.38 12 21.8067 11.8733 22.08 11.62C22.36 11.3667 22.5 10.96 22.5 10.4V8.6C22.5 8.03333 22.3633 7.62667 22.09 7.38C21.8167 7.12667 21.3867 7 20.8 7H20.1C19.7733 7 19.5067 7.08 19.3 7.24ZM19.66 8.18C19.7667 8.06 19.93 8 20.15 8H20.75C20.9967 8 21.1833 8.05667 21.31 8.17C21.4367 8.28333 21.5 8.44333 21.5 8.65V10.35C21.5 10.5567 21.4367 10.7167 21.31 10.83C21.1833 10.9433 20.9967 11 20.75 11H19.51L19.5 8.55C19.5 8.41667 19.5533 8.29333 19.66 8.18Z"
    fill="#fff"
  />
</svg>
