<svg viewBox="0 0 34 40" xmlns="http://www.w3.org/2000/svg">
  <path
    d="M32 0H2C0.89543 0 0 0.89543 0 2V38C0 39.1046 0.89543 40 2 40H32C33.1046 40 34 39.1046 34 38V2C34 0.89543 33.1046 0 32 0Z"
  />
  <path
    opacity="0.6"
    fill-rule="evenodd"
    clip-rule="evenodd"
    d="M9.5 18L9 18V18.5V27.6667L12 25L18 30L22 27L25 29.25C25 29.25 25 18.6417 25 18.5C25 18.3583 25 18 25 18C25 18 24.6344 18 24.5 18C24.3656 18 9.5 18 9.5 18ZM9 31.5V29.3333L12 26.5224L17.9062 31.3204L22 28.25L25 30.5V31.5C25 31.6406 25 32 25 32C25 32 24.6356 32 24.5 32H9.5C9.347 32 9 32 9 32C9 32 9 31.6231 9 31.5ZM8 18.5V29V31.5V32C8 32.2768 8.00001 33 8.00001 33C8.00001 33 8.72447 33 9 33H9.5H24.5H25C25.2822 33 26 33 26 33C26 33 26 32.2701 26 32V31.5V30C26 30 26 18.9254 26 18.5C26 18.0746 26 17 26 17C26 17 24.903 17 24.5 17C24.097 17 9.5 17 9.5 17C9 17 8 17 8 17C8 17 8 18 8 18.5ZM18 22.5C18 21.6716 18.6716 21 19.5 21C20.3284 21 21 21.6716 21 22.5C21 23.3284 20.3284 24 19.5 24C18.6716 24 18 23.3284 18 22.5ZM19.5 20C18.1193 20 17 21.1193 17 22.5C17 23.8807 18.1193 25 19.5 25C20.8807 25 22 23.8807 22 22.5C22 21.1193 20.8807 20 19.5 20Z"
    fill="white"
  />
  <path
    fill-rule="evenodd"
    clip-rule="evenodd"
    d="M10 11.77C10.22 11.9233 10.4867 12 10.8 12H11.3C11.8867 12 12.3167 11.8767 12.59 11.63C12.8633 11.3767 13 10.9667 13 10.4V8.6C13 8.04 12.8633 7.63333 12.59 7.38C12.31 7.12667 11.82 7 11.24 7H10V5H9V12H10V11.77ZM10.65 11C10.43 11 10.2667 10.9433 10.16 10.83C10.0533 10.71 10 10.5833 10 10.45V8H11.25C11.4967 8 11.6833 8.05667 11.81 8.17C11.9367 8.28333 12 8.44333 12 8.65V10.35C12 10.5567 11.9367 10.7167 11.81 10.83C11.6833 10.9433 11.4967 11 11.25 11H10.65Z"
    fill="white"
  />
  <path
    d="M15.5 7C15.8842 7 16.2346 7.14443 16.5 7.38195C16.7654 7.14443 17.1158 7 17.5 7C18.2974 7 18.9495 7.62226 18.9972 8.40771L19 8.41V12H18V8.5C18 8.22386 17.7761 8 17.5 8C17.2239 8 17 8.22386 17 8.5V12H16V8.5C16 8.22386 15.7761 8 15.5 8C15.2239 8 15 8.22386 15 8.5V12H14V7H14.8V7.17301C15.009 7.06255 15.2472 7 15.5 7Z"
    fill="white"
  />
  <path
    fill-rule="evenodd"
    clip-rule="evenodd"
    d="M20.8 7.24V7H20V14H21.01V12H22.3C22.88 12 23.3067 11.8733 23.58 11.62C23.86 11.3667 24 10.96 24 10.4V8.6C24 8.03333 23.8633 7.62667 23.59 7.38C23.3167 7.12667 22.8867 7 22.3 7H21.6C21.2733 7 21.0067 7.08 20.8 7.24ZM21.16 8.18C21.2667 8.06 21.43 8 21.65 8H22.25C22.4967 8 22.6833 8.05667 22.81 8.17C22.9367 8.28333 23 8.44333 23 8.65V10.35C23 10.5567 22.9367 10.7167 22.81 10.83C22.6833 10.9433 22.4967 11 22.25 11H21.01L21 8.55C21 8.41667 21.0533 8.29333 21.16 8.18Z"
    fill="white"
  />
</svg>
