<svg viewBox="0 0 21 28" xmlns="http://www.w3.org/2000/svg">
  <path
    d="M19.6 0H1.4A1.4 1.4 0 000 1.4v25.2A1.4 1.4 0 001.4 28h18.2a1.4 1.4 0 001.4-1.4V1.4A1.4 1.4 0 0019.6 0z"
  />
  <path
    fill="#fff"
    fill-rule="evenodd"
    d="M6.5 14a.5.5 0 00-.5.5v6.167L8 19l4.5 4h2a.5.5 0 00.5-.5v-8a.5.5 0 00-.5-.5h-8zM6 22.5v-.167l2.108-1.81L11 23H6.5a.5.5 0 01-.5-.5zm-1-8V23a1 1 0 001 1h9a1 1 0 001-1v-8.5a1.5 1.5 0 00-1.5-1.5h-8A1.5 1.5 0 005 14.5zm5 3a1.5 1.5 0 113 0 1.5 1.5 0 01-3 0zm1.5-2.5a2.5 2.5 0 100 5 2.5 2.5 0 000-5z"
    clip-rule="evenodd"
    opacity=".6"
  />
  <path
    fill="#fff"
    fill-rule="evenodd"
    d="M4 8.77c.22.153.487.23.8.23h.5c.587 0 1.017-.123 1.29-.37.273-.253.41-.663.41-1.23V5.6c0-.56-.137-.967-.41-1.22C6.31 4.127 5.82 4 5.24 4H4V2H3v7h1v-.23zM4.65 8c-.22 0-.383-.057-.49-.17A.566.566 0 014 7.45V5h1.25c.247 0 .433.057.56.17.127.113.19.273.19.48v1.7c0 .207-.063.367-.19.48-.127.113-.313.17-.56.17h-.6z"
    clip-rule="evenodd"
  />
  <path
    fill="#fff"
    d="M9.5 4c.384 0 .735.144 1 .382a1.5 1.5 0 012.497 1.026L13 5.41V9h-1V5.5a.5.5 0 00-1 0V9h-1V5.5a.5.5 0 00-1 0V9H8V4h.8v.173c.209-.11.447-.173.7-.173z"
  />
  <path
    fill="#fff"
    fill-rule="evenodd"
    d="M14.8 4.24V4H14v7h1.01V9h1.29c.58 0 1.007-.127 1.28-.38.28-.253.42-.66.42-1.22V5.6c0-.567-.137-.973-.41-1.22-.273-.253-.703-.38-1.29-.38h-.7c-.327 0-.593.08-.8.24zm.36.94c.107-.12.27-.18.49-.18h.6c.247 0 .433.057.56.17.127.113.19.273.19.48v1.7c0 .207-.063.367-.19.48-.127.113-.313.17-.56.17h-1.24L15 5.55a.53.53 0 01.16-.37z"
    clip-rule="evenodd"
  />
</svg>
