<svg viewBox="0 0 24 28" xmlns="http://www.w3.org/2000/svg">
  <rect width="24" height="28" rx="2" />
  <path
    opacity="0.6"
    fill-rule="evenodd"
    clip-rule="evenodd"
    d="M6.5 14C6.35778 14 6 14 6 14C6 14 6 14.3661 6 14.5V20.6667L9 18L15.5 24H18V14.5C18 14.3578 18 14 18 14C18 14 17.6339 14 17.5 14H6.5ZM6 23.5V22.3333L9 19.5224L14 24H6.5C6.34938 24 6 24 6 24C6 24 6 23.6255 6 23.5ZM5 14.5V22V23.5V24C5 24.2762 5 25 5 25C5 25 5.7239 25 6 25H6.5H17.5H18C18.2464 25 19 25 19 25C19 25 19 24.3058 19 24V23.5V23V14.5C19 14.1158 19 13 19 13C19 13 17.9443 13 17.5 13H6.5C6.05575 13 5 13 5 13C5 13 5 14.1158 5 14.5ZM13 17.5C13 16.6716 13.6716 16 14.5 16C15.3284 16 16 16.6716 16 17.5C16 18.3284 15.3284 19 14.5 19C13.6716 19 13 18.3284 13 17.5ZM14.5 15C13.1193 15 12 16.1193 12 17.5C12 18.8807 13.1193 20 14.5 20C15.8807 20 17 18.8807 17 17.5C17 16.1193 15.8807 15 14.5 15Z"
    fill="white"
  />
  <path
    fill-rule="evenodd"
    clip-rule="evenodd"
    d="M6 8.77C6.22 8.92333 6.48667 9 6.8 9H7.3C7.88667 9 8.31667 8.87667 8.59 8.63C8.86333 8.37667 9 7.96667 9 7.4V5.6C9 5.04 8.86333 4.63333 8.59 4.38C8.31 4.12667 7.82 4 7.24 4H6V2H5V9H6V8.77ZM6.65 8C6.43 8 6.26667 7.94333 6.16 7.83C6.05333 7.71 6 7.58333 6 7.45V5H7.25C7.49667 5 7.68333 5.05667 7.81 5.17C7.93667 5.28333 8 5.44333 8 5.65V7.35C8 7.55667 7.93667 7.71667 7.81 7.83C7.68333 7.94333 7.49667 8 7.25 8H6.65Z"
    fill="white"
  />
  <path
    d="M11.5 4C11.8842 4 12.2346 4.14443 12.5 4.38195C12.7654 4.14443 13.1158 4 13.5 4C14.2974 4 14.9495 4.62226 14.9972 5.40771L15 5.41V9H14V5.5C14 5.22386 13.7761 5 13.5 5C13.2239 5 13 5.22386 13 5.5V9H12V5.5C12 5.22386 11.7761 5 11.5 5C11.2239 5 11 5.22386 11 5.5V9H10V4H10.8V4.17301C11.009 4.06255 11.2472 4 11.5 4Z"
    fill="white"
  />
  <path
    fill-rule="evenodd"
    clip-rule="evenodd"
    d="M16.8 4.24V4H16V11H17.01V9H18.3C18.88 9 19.3067 8.87333 19.58 8.62C19.86 8.36667 20 7.96 20 7.4V5.6C20 5.03333 19.8633 4.62667 19.59 4.38C19.3167 4.12667 18.8867 4 18.3 4H17.6C17.2733 4 17.0067 4.08 16.8 4.24ZM17.16 5.18C17.2667 5.06 17.43 5 17.65 5H18.25C18.4967 5 18.6833 5.05667 18.81 5.17C18.9367 5.28333 19 5.44333 19 5.65V7.35C19 7.55667 18.9367 7.71667 18.81 7.83C18.6833 7.94333 18.4967 8 18.25 8H17.01L17 5.55C17 5.41667 17.0533 5.29333 17.16 5.18Z"
    fill="white"
  />
</svg>
