<svg width="208" height="128" viewBox="0 0 208 128" fill="none" xmlns="http://www.w3.org/2000/svg">
  <g filter="url(#filter0_d_1885_15915)">
    <path
      d="M4 4C4 1.79086 5.79086 0 8 0H200C202.209 0 204 1.79086 204 4V116C204 118.209 202.209 120 200 120H8C5.79086 120 4 118.209 4 116V4Z"
      fill="#ECF1F4"
    />
    <rect x="24" y="40" width="160" height="40" rx="4" fill="white" />
    <g opacity="0.5">
      <path
        d="M36.7106 60L39.357 57.3536L38.6499 56.6465L34.7964 60.5L38.6499 64.3536L39.357 63.6465L36.7106 61H44V60H36.7106Z"
        fill="#00395C"
        fill-opacity="0.8"
      />
    </g>
    <path
      d="M73.1758 66H72.0547V57.5303C71.9681 57.6169 71.8405 57.7171 71.6719 57.8311C71.5078 57.9404 71.321 58.0498 71.1113 58.1592C70.9062 58.2686 70.6875 58.3711 70.4551 58.4668C70.2272 58.5625 70.0039 58.6377 69.7852 58.6924V57.5576C70.0312 57.4893 70.291 57.3981 70.5645 57.2842C70.8424 57.1657 71.1136 57.0358 71.3779 56.8945C71.6468 56.7487 71.8997 56.5983 72.1367 56.4434C72.3737 56.2839 72.5788 56.1289 72.752 55.9785H73.1758V66Z"
      fill="#00395C"
      fill-opacity="0.8"
    />
    <rect x="88" y="44" width="32" height="32" rx="4" fill="#004269" fill-opacity="0.07" />
    <path
      d="M105.504 58.7676C105.504 58.4668 105.456 58.2048 105.36 57.9814C105.269 57.7581 105.142 57.5736 104.978 57.4277C104.818 57.2773 104.629 57.1657 104.41 57.0928C104.191 57.0199 103.954 56.9834 103.699 56.9834C103.48 56.9834 103.266 57.013 103.057 57.0723C102.847 57.1315 102.642 57.2135 102.441 57.3184C102.245 57.4232 102.054 57.5485 101.867 57.6943C101.685 57.8402 101.514 58.002 101.354 58.1797V56.9766C101.669 56.6712 102.02 56.4388 102.407 56.2793C102.799 56.1152 103.275 56.0332 103.836 56.0332C104.237 56.0332 104.608 56.0924 104.95 56.2109C105.292 56.3249 105.588 56.4935 105.839 56.7168C106.09 56.9401 106.285 57.2158 106.427 57.5439C106.573 57.8721 106.646 58.248 106.646 58.6719C106.646 59.0592 106.6 59.4102 106.509 59.7246C106.422 60.0391 106.288 60.3353 106.105 60.6133C105.928 60.8913 105.702 61.1579 105.429 61.4131C105.155 61.6683 104.834 61.9281 104.465 62.1924C104.005 62.5205 103.624 62.8008 103.323 63.0332C103.027 63.2656 102.79 63.4844 102.612 63.6895C102.439 63.89 102.316 64.0928 102.243 64.2979C102.175 64.4984 102.141 64.7308 102.141 64.9951H107.021V66H100.972V65.5146C100.972 65.0954 101.017 64.7262 101.108 64.4072C101.2 64.0882 101.35 63.7852 101.56 63.498C101.769 63.2109 102.043 62.9238 102.38 62.6367C102.722 62.3496 103.139 62.026 103.631 61.666C103.986 61.4108 104.283 61.167 104.52 60.9346C104.761 60.7021 104.955 60.4697 105.101 60.2373C105.246 60.0049 105.349 59.7702 105.408 59.5332C105.472 59.2917 105.504 59.0365 105.504 58.7676Z"
      fill="#00395C"
      fill-opacity="0.8"
    />
    <path
      d="M132.972 66.1504C132.762 66.1504 132.582 66.0752 132.432 65.9248C132.286 65.7744 132.213 65.5944 132.213 65.3848C132.213 65.1751 132.286 64.9951 132.432 64.8447C132.582 64.6898 132.762 64.6123 132.972 64.6123C133.186 64.6123 133.368 64.6898 133.519 64.8447C133.669 64.9951 133.744 65.1751 133.744 65.3848C133.744 65.5944 133.669 65.7744 133.519 65.9248C133.368 66.0752 133.186 66.1504 132.972 66.1504ZM136.007 66.1504C135.797 66.1504 135.617 66.0752 135.467 65.9248C135.321 65.7744 135.248 65.5944 135.248 65.3848C135.248 65.1751 135.321 64.9951 135.467 64.8447C135.617 64.6898 135.797 64.6123 136.007 64.6123C136.221 64.6123 136.403 64.6898 136.554 64.8447C136.704 64.9951 136.779 65.1751 136.779 65.3848C136.779 65.5944 136.704 65.7744 136.554 65.9248C136.403 66.0752 136.221 66.1504 136.007 66.1504ZM139.042 66.1504C138.832 66.1504 138.652 66.0752 138.502 65.9248C138.356 65.7744 138.283 65.5944 138.283 65.3848C138.283 65.1751 138.356 64.9951 138.502 64.8447C138.652 64.6898 138.832 64.6123 139.042 64.6123C139.256 64.6123 139.438 64.6898 139.589 64.8447C139.739 64.9951 139.814 65.1751 139.814 65.3848C139.814 65.5944 139.739 65.7744 139.589 65.9248C139.438 66.0752 139.256 66.1504 139.042 66.1504Z"
      fill="#00395C"
      fill-opacity="0.8"
    />
    <path
      d="M171.289 60L168.643 62.6464L169.35 63.3535L173.204 59.5L169.35 55.6464L168.643 56.3535L171.289 59L164 59L164 60L171.289 60Z"
      fill="#00395C"
      fill-opacity="0.8"
    />
  </g>
  <defs>
    <filter
      id="filter0_d_1885_15915"
      x="0"
      y="0"
      width="208"
      height="128"
      filterUnits="userSpaceOnUse"
      color-interpolation-filters="sRGB"
    >
      <feFlood flood-opacity="0" result="BackgroundImageFix" />
      <feColorMatrix
        in="SourceAlpha"
        type="matrix"
        values="0 0 0 0 0 0 0 0 0 0 0 0 0 0 0 0 0 0 127 0"
        result="hardAlpha"
      />
      <feOffset dy="4" />
      <feGaussianBlur stdDeviation="2" />
      <feComposite in2="hardAlpha" operator="out" />
      <feColorMatrix type="matrix" values="0 0 0 0 0 0 0 0 0 0 0 0 0 0 0 0 0 0 0.25 0" />
      <feBlend mode="normal" in2="BackgroundImageFix" result="effect1_dropShadow_1885_15915" />
      <feBlend
        mode="normal"
        in="SourceGraphic"
        in2="effect1_dropShadow_1885_15915"
        result="shape"
      />
    </filter>
  </defs>
</svg>
