<svg width="16" height="16" viewBox="0 0 16 16" fill="none" xmlns="http://www.w3.org/2000/svg">
  <path
    fill-rule="evenodd"
    clip-rule="evenodd"
    d="M14 13C14 15 11.3137 16 8 16C4.68629 16 2 15 2 13V3C2 1 4.68629 0 8 0C11.3137 0 14 1 14 3V13ZM12 3.01538V3C12 2.99767 12.0004 2.99401 12.0004 2.99401C12.0014 2.98528 12.0019 2.98035 11.9741 2.94601C11.9178 2.87652 11.7603 2.72976 11.4061 2.56664C10.6795 2.23205 9.4981 2 8 2C6.5019 2 5.32049 2.23205 4.59391 2.56664C4.23968 2.72976 4.08217 2.87652 4.02591 2.94601C3.9981 2.98035 3.99864 2.98528 3.9996 2.99401C3.9996 2.99401 4 2.99767 4 3V3.01538C4.00186 3.02197 4.00801 3.03189 4.02591 3.05399C4.08217 3.12348 4.23968 3.27024 4.59391 3.43336C5.32049 3.76795 6.5019 4 8 4C9.4981 4 10.6795 3.76795 11.4061 3.43336C11.7603 3.27024 11.9178 3.12348 11.9741 3.05399C11.992 3.03189 11.9981 3.02197 12 3.01538ZM12 5.35483C10.9385 5.78494 9.53671 6 8 6C6.46329 6 5.06151 5.78494 4 5.35483V10.6452C5.06151 10.2151 6.46329 10 8 10C9.53671 10 10.9385 10.2151 12 10.6452V5.35483ZM12 12.9846V13C12 13.0023 12.0004 13.006 12.0004 13.006C12.0014 13.0147 12.0019 13.0196 11.9741 13.054C11.9178 13.1235 11.7603 13.2702 11.4061 13.4334C10.6795 13.7679 9.4981 14 8 14C6.5019 14 5.32049 13.7679 4.59391 13.4334C4.23968 13.2702 4.08217 13.1235 4.02591 13.054C3.9981 13.0196 3.99864 13.0147 3.9996 13.006C3.9996 13.006 4 13.0023 4 13V12.9846C4.00186 12.978 4.00801 12.9681 4.02591 12.946C4.08217 12.8765 4.23968 12.7298 4.59391 12.5666C5.32049 12.2321 6.5019 12 8 12C9.4981 12 10.6795 12.2321 11.4061 12.5666C11.7603 12.7298 11.9178 12.8765 11.9741 12.946C11.992 12.9681 11.9981 12.978 12 12.9846Z"
    fill="black"
  />
</svg>
