<svg width="12" height="12" viewBox="0 0 12 12" fill="none" xmlns="http://www.w3.org/2000/svg">
  <path
    fill-rule="evenodd"
    clip-rule="evenodd"
    d="M10 9V3C10 1.89543 8.20914 1 6 1C3.79086 1 2 1.89543 2 3V9C2 10.1046 3.79086 11 6 11C8.20914 11 10 10.1046 10 9ZM8.99326 3.02431C8.98517 3.04405 8.96582 3.08105 8.92218 3.13264C8.83099 3.24046 8.65979 3.38049 8.38123 3.51979C7.82349 3.79866 6.98297 4 6 4C5.017 4 4.17651 3.79866 3.61877 3.51979C3.34021 3.38049 3.16901 3.24046 3.07782 3.13264C3.06317 3.11533 3.05127 3.09966 3.0416 3.08572C3.03253 3.07268 3.02545 3.06116 3.01993 3.05125C3.01379 3.04024 3.00958 3.03122 3.00674 3.02431C3.00278 3.01457 3.00125 3.00839 3.00064 3.00545C3.00006 3.00261 3 3.00107 3 3L3.00015 2.99756L3.00064 2.99455C3.00125 2.99161 3.00278 2.98543 3.00674 2.97569C3.00894 2.97032 3.01196 2.96368 3.01608 2.95583C3.02151 2.94551 3.02881 2.93309 3.03857 2.91867C3.04877 2.90367 3.06161 2.88652 3.07782 2.86736C3.16901 2.75954 3.34021 2.61951 3.61877 2.48021C4.17651 2.20134 5.017 2 6 2C6.98297 2 7.82349 2.20134 8.38123 2.48021C8.65979 2.61951 8.83099 2.75954 8.92218 2.86736C8.96582 2.91895 8.98517 2.95595 8.99326 2.97569C8.99722 2.98543 8.99875 2.99161 8.99936 2.99455C8.99982 2.99684 8.99997 2.99829 9 2.99933L8.99988 3.00226L8.99936 3.00545C8.99875 3.00839 8.99722 3.01457 8.99326 3.02431ZM9 4.32291C8.26706 4.73811 7.1947 5 6 5C4.8053 5 3.73294 4.73811 3 4.32291V7.67709C3.73294 7.26189 4.8053 7 6 7C7.1947 7 8.26706 7.26189 9 7.67709V4.32291ZM9 9C8.99997 8.99944 8.99994 8.99818 8.99982 8.9973L8.99936 8.99455C8.99875 8.99161 8.99722 8.98543 8.99326 8.97569L8.99078 8.97C8.98938 8.96681 8.9877 8.96329 8.98578 8.95944C8.97943 8.94693 8.97015 8.93098 8.95673 8.91185C8.94736 8.89853 8.93597 8.88367 8.92218 8.86736C8.83099 8.75954 8.65979 8.61951 8.38123 8.48021C7.82349 8.20134 6.98297 8 6 8C5.017 8 4.17651 8.20134 3.61877 8.48021C3.34021 8.61951 3.16901 8.75954 3.07782 8.86736C3.03418 8.91895 3.01483 8.95595 3.00674 8.97569C3.00278 8.98543 3.00125 8.99161 3.00064 8.99455L3.00018 8.99712L3 9C3 9.00107 3.00006 9.00261 3.00064 9.00545C3.00125 9.00839 3.00278 9.01457 3.00674 9.02431C3.01483 9.04405 3.03418 9.08105 3.07782 9.13264C3.16901 9.24046 3.34021 9.38049 3.61877 9.51979C4.17651 9.79866 5.017 10 6 10C6.98297 10 7.82349 9.79866 8.38123 9.51979C8.65979 9.38049 8.83099 9.24046 8.92218 9.13264C8.96582 9.08105 8.98517 9.04405 8.99326 9.02431L8.99606 9.01694L8.99738 9.01291L8.99869 9.00835L8.99936 9.00545L8.99988 9.00226L9 9Z"
    fill="black"
  />
</svg>
