<svg width="24" height="24" viewBox="0 0 24 24" fill="none" xmlns="http://www.w3.org/2000/svg">
  <path
    fill-rule="evenodd"
    clip-rule="evenodd"
    d="M12 1C9.99539 1 8.12044 1.29894 6.70033 1.82496C5.38626 2.31171 4 3.18509 4 4.5V19.5C4 20.8149 5.38626 21.6883 6.70033 22.175C8.12044 22.7011 9.99539 23 12 23C14.0046 23 15.8796 22.7011 17.2997 22.175C18.602 21.6926 19.9753 20.8305 19.9997 19.5351L20 19.5V4.45312C19.9676 3.16421 18.5981 2.30593 17.2997 1.82496C15.8796 1.29894 14.0046 1 12 1ZM6.47316 4.5C6.47316 4.4313 6.60094 4.05204 7.73475 3.63206C8.76252 3.25136 10.2693 2.98948 12 2.98948C13.7307 2.98948 15.2375 3.25136 16.2653 3.63206C17.3991 4.05204 17.5268 4.4313 17.5268 4.5C17.5268 4.5687 17.3991 4.94796 16.2653 5.36794C15.2375 5.74864 13.7307 6.01052 12 6.01052C10.2693 6.01052 8.76252 5.74864 7.73475 5.36794C6.60094 4.94796 6.47316 4.5687 6.47316 4.5ZM18 6.87806C17.7698 6.98951 17.5336 7.0884 17.2997 7.17504C15.8796 7.70106 14.0046 8 12 8C9.99539 8 8.12044 7.70106 6.70033 7.17504C6.46643 7.0884 6.23025 6.98951 6 6.87806V17.1219C6.23025 17.0105 6.46643 16.9116 6.70033 16.825C8.12044 16.2989 9.99539 16 12 16C14.0046 16 15.8796 16.2989 17.2997 16.825C17.5336 16.9116 17.7698 17.0105 18 17.1219V6.87806ZM6.47316 19.5C6.47316 19.4313 6.60094 19.052 7.73475 18.6321C8.76252 18.2514 10.2693 17.9895 12 17.9895C13.7307 17.9895 15.2375 18.2514 16.2653 18.6321C17.3991 19.052 17.5268 19.4313 17.5268 19.5C17.5268 19.5687 17.3991 19.948 16.2653 20.3679C15.2375 20.7486 13.7307 21.0105 12 21.0105C10.2693 21.0105 8.76252 20.7486 7.73475 20.3679C6.60094 19.948 6.47316 19.5687 6.47316 19.5Z"
    fill="black"
  />
</svg>
