<svg width="24" height="24" viewBox="0 0 24 24" fill="none" xmlns="http://www.w3.org/2000/svg">
  <path
    d="M16 2C16 1.44772 16.4477 1 17 1C17.5523 1 18 1.44772 18 2H20C20.5523 2 21 2.44772 21 3C21 3.55228 20.5523 4 20 4H4C3.44772 4 3 3.55228 3 3C3 2.44772 3.44772 2 4 2H16Z"
    fill="black"
  />
  <path
    fill-rule="evenodd"
    clip-rule="evenodd"
    d="M5 12C4.44772 12 4 12.4477 4 13C4 13.5523 4.44772 14 5 14V20H4C3.44772 20 3 20.4477 3 21C3 21.5523 3.44772 22 4 22H20C20.5523 22 21 21.5523 21 21C21 20.4477 20.5523 20 20 20H19V14C19.5523 14 20 13.5523 20 13C20 12.4477 19.5523 12 19 12V5H5V12ZM9 13.9779C9 13.4703 9.18212 12.7053 9.65196 11.6995C10.107 10.7254 10.7427 9.71342 11.4262 8.76668C11.6182 8.50068 11.8108 8.24425 12 8C12.1892 8.24425 12.3818 8.50068 12.5738 8.76668C13.2573 9.71342 13.893 10.7254 14.348 11.6995C14.8179 12.7053 15 13.4703 15 13.9779C15 15.7406 13.7024 17 12 17C10.2976 17 9 15.7406 9 13.9779Z"
    fill="black"
  />
</svg>
