<svg width="16" height="16" viewBox="0 0 16 16" fill="none" xmlns="http://www.w3.org/2000/svg">
  <path
    fill-rule="evenodd"
    clip-rule="evenodd"
    d="M9 2C9 1.44772 9.44772 1 10 1C10.5523 1 11 1.44772 11 2H12C12.5523 2 13 2.44772 13 3C13 3.55228 12.5523 4 12 4H4C3.44772 4 3 3.55228 3 3C3 2.44772 3.44772 2 4 2H9ZM4 5H12V8C12.5523 8 13 8.44772 13 9C13 9.55229 12.5523 10 12 10V13C12.5523 13 13 13.4477 13 14C13 14.5523 12.5523 15 12 15H4C3.44772 15 3 14.5523 3 14C3 13.4477 3.44772 13 4 13L4 10C3.44772 10 3 9.55229 3 9C3 8.44772 3.44772 8 4 8V5ZM6 10.9852C6 10.6469 6.12141 10.1368 6.43464 9.46633C6.738 8.81693 7.16181 8.14228 7.61747 7.51112C7.7455 7.33378 7.87389 7.16283 8 7C8.12611 7.16283 8.2545 7.33378 8.38253 7.51112C8.83819 8.14228 9.262 8.81693 9.56536 9.46633C9.87858 10.1368 10 10.6469 10 10.9852C10 12.1604 9.1349 13 8 13C6.8651 13 6 12.1604 6 10.9852Z"
    fill="black"
  />
</svg>
