<svg width="12" height="12" viewBox="0 0 12 12" fill="none" xmlns="http://www.w3.org/2000/svg">
  <path
    d="M3 1C2.44772 1 2 1.44772 2 2C2 2.55228 2.44772 3 3 3H9C9.55228 3 10 2.55228 10 2C10 1.44772 9.55228 1 9 1H3Z"
    fill="black"
  />
  <path
    fill-rule="evenodd"
    clip-rule="evenodd"
    d="M3 9C2.44772 9 2 9.44771 2 10C2 10.5523 2.44772 11 3 11H9C9.55228 11 10 10.5523 10 10C10 9.44771 9.55228 9 9 9V4H3V9ZM6 8C6.55228 8 7 7.55228 7 7C7 6.44772 6.55228 6 6 6C5.44772 6 5 6.44772 5 7C5 7.55228 5.44772 8 6 8Z"
    fill="black"
  />
</svg>
