<svg viewBox="0 0 16 16" xmlns="http://www.w3.org/2000/svg">
  <path
    fill-rule="evenodd"
    clip-rule="evenodd"
    d="M1.3335 2.00016C1.3335 1.63197 1.63197 1.3335 2.00016 1.3335H14.0002C14.3684 1.3335 14.6668 1.63197 14.6668 2.00016V14.0002C14.6668 14.3684 14.3684 14.6668 14.0002 14.6668H2.00016C1.63197 14.6668 1.3335 14.3684 1.3335 14.0002V2.00016ZM2.66683 6.66683V9.3335H7.3335V6.66683H2.66683ZM8.66683 6.66683V9.3335H13.3335V6.66683H8.66683ZM13.3335 5.3335H8.66683V2.66683H13.3335V5.3335ZM7.3335 2.66683V5.3335H2.66683V2.66683H7.3335ZM13.3335 10.6668H8.66683V13.3335H13.3335V10.6668ZM7.3335 13.3335V10.6668H2.66683V13.3335H7.3335Z"
  />
</svg>
