<svg viewBox="0 0 24 28" xmlns="http://www.w3.org/2000/svg">
  <rect width="24" height="28" rx="2" />
  <path
    d="M7.5 4.38195C7.23462 4.14443 6.88418 4 6.5 4C6.24718 4 6.00897 4.06255 5.8 4.17301V4H5V9H6V5.5C6 5.22386 6.22386 5 6.5 5C6.77614 5 7 5.22386 7 5.5V9H8V5.5C8 5.22386 8.22386 5 8.5 5C8.77614 5 9 5.22386 9 5.5V9H10V5.41L9.99721 5.40771C9.94953 4.62226 9.29744 4 8.5 4C8.11582 4 7.76538 4.14443 7.5 4.38195Z"
    fill="white"
  />
  <path
    fill-rule="evenodd"
    clip-rule="evenodd"
    d="M15 7.4C15 7.96 14.86 8.36667 14.58 8.62C14.3067 8.87333 13.88 9 13.3 9L12.7 9C12.12 9 11.69 8.87333 11.41 8.62C11.1367 8.36667 11 7.96 11 7.4V5.6C11 5.04 11.1367 4.63333 11.41 4.38C11.69 4.12667 12.12 4 12.7 4H13.3C13.88 4 14.3067 4.12667 14.58 4.38C14.86 4.63333 15 5.04 15 5.6V7.4ZM14 5.65C14 5.44333 13.9367 5.28333 13.81 5.17C13.6833 5.05667 13.4967 5 13.25 5H12.75C12.5033 5 12.3167 5.05667 12.19 5.17C12.0633 5.28333 12 5.44333 12 5.65V7.35C12 7.55667 12.0633 7.71667 12.19 7.83C12.3167 7.94333 12.5033 8 12.75 8H13.25C13.4967 8 13.6833 7.94333 13.81 7.83C13.9367 7.71667 14 7.55667 14 7.35V5.65Z"
    fill="white"
  />
  <path d="M16 4H17V7H18V4H19V7L18 9H17L16 7V4Z" fill="white" />
  <path
    opacity="0.6"
    fill-rule="evenodd"
    clip-rule="evenodd"
    d="M19 12V25H5V12H19ZM16 24H18V22H16V24ZM16 21H18V19H16V21ZM15 19V24.0556H9V19H15ZM15 18H9V12.9444H15V18ZM16 18H18V16H16V18ZM16 15H18V13H16V15ZM8 16V18H6V16H8ZM6 21V19H8V21H6ZM6 22V24H8V22H6ZM8 15V13H6V15H8Z"
    fill="white"
  />
</svg>
