<svg viewBox="0 0 30 40" xmlns="http://www.w3.org/2000/svg">
  <path
    d="M28 0H2C0.89543 0 0 0.89543 0 2V38C0 39.1046 0.89543 40 2 40H28C29.1046 40 30 39.1046 30 38V2C30 0.89543 29.1046 0 28 0Z"
  />
  <path
    opacity="0.6"
    fill-rule="evenodd"
    clip-rule="evenodd"
    d="M23 17V33H7V17H23ZM20.1765 17.8889H22.0588V18.8824H20.1765V17.8889ZM20.1765 32.1111H22.0588V31.1176H20.1765V32.1111ZM20.1765 30.1765H22.0588V28.2941H20.1765V30.1765ZM20.1765 27.3529H22.0588V25.4706H20.1765V27.3529ZM19.2353 25.4706V32.1111H10.7647V25.4706H19.2353ZM19.2353 24.5294H10.7647V17.8889H19.2353V24.5294ZM20.1765 24.5294H22.0588V22.6471H20.1765V24.5294ZM20.1765 21.7059H22.0588V19.8235H20.1765V21.7059ZM9.82353 22.6471V24.5294H7.94118V22.6471H9.82353ZM7.94118 27.3529V25.4706H9.82353V27.3529H7.94118ZM7.94118 28.2941V30.1765H9.82353V28.2941H7.94118ZM7.94118 32.1111V31.1176H9.82353V32.1111H7.94118ZM9.82353 21.7059V19.8235H7.94118V21.7059H9.82353ZM7.94118 17.8889V18.8824H9.82353V17.8889H7.94118Z"
    fill="#fff"
  />
  <path
    d="M10.5 7.38195C10.2346 7.14443 9.88418 7 9.5 7C9.24718 7 9.00897 7.06255 8.8 7.17301V7H8V12H9V8.5C9 8.22386 9.22386 8 9.5 8C9.77614 8 10 8.22386 10 8.5V12H11V8.5C11 8.22386 11.2239 8 11.5 8C11.7761 8 12 8.22386 12 8.5V12H13V8.41L12.9972 8.40771C12.9495 7.62226 12.2974 7 11.5 7C11.1158 7 10.7654 7.14443 10.5 7.38195Z"
    fill="#fff"
  />
  <path
    fill-rule="evenodd"
    clip-rule="evenodd"
    d="M18 10.4C18 10.96 17.86 11.3667 17.58 11.62C17.3067 11.8733 16.88 12 16.3 12L15.7 12C15.12 12 14.69 11.8733 14.41 11.62C14.1367 11.3667 14 10.96 14 10.4V8.6C14 8.04 14.1367 7.63333 14.41 7.38C14.69 7.12667 15.12 7 15.7 7H16.3C16.88 7 17.3067 7.12667 17.58 7.38C17.86 7.63333 18 8.04 18 8.6V10.4ZM17 8.65C17 8.44333 16.9367 8.28333 16.81 8.17C16.6833 8.05667 16.4967 8 16.25 8H15.75C15.5033 8 15.3167 8.05667 15.19 8.17C15.0633 8.28333 15 8.44333 15 8.65V10.35C15 10.5567 15.0633 10.7167 15.19 10.83C15.3167 10.9433 15.5033 11 15.75 11H16.25C16.4967 11 16.6833 10.9433 16.81 10.83C16.9367 10.7167 17 10.5567 17 10.35V8.65Z"
    fill="#fff"
  />
  <path d="M19 7H20V10H21V7H22V10L21 12H20L19 10V7Z" fill="#fff" />
</svg>
