<svg viewBox="0 0 34 40" xmlns="http://www.w3.org/2000/svg">
  <path
    d="M32 0H2C0.89543 0 0 0.89543 0 2V38C0 39.1046 0.89543 40 2 40H32C33.1046 40 34 39.1046 34 38V2C34 0.89543 33.1046 0 32 0Z"
  />
  <path
    opacity="0.6"
    fill-rule="evenodd"
    clip-rule="evenodd"
    d="M25 17V33H9V17H25ZM22.1765 17.8889H24.0588V18.8824H22.1765V17.8889ZM22.1765 32.1111H24.0588V31.1176H22.1765V32.1111ZM22.1765 30.1765H24.0588V28.2941H22.1765V30.1765ZM22.1765 27.3529H24.0588V25.4706H22.1765V27.3529ZM21.2353 25.4706V32.1111H12.7647V25.4706H21.2353ZM21.2353 24.5294H12.7647V17.8889H21.2353V24.5294ZM22.1765 24.5294H24.0588V22.6471H22.1765V24.5294ZM22.1765 21.7059H24.0588V19.8235H22.1765V21.7059ZM11.8235 22.6471V24.5294H9.94118V22.6471H11.8235ZM9.94118 27.3529V25.4706H11.8235V27.3529H9.94118ZM9.94118 28.2941V30.1765H11.8235V28.2941H9.94118ZM9.94118 32.1111V31.1176H11.8235V32.1111H9.94118ZM11.8235 21.7059V19.8235H9.94118V21.7059H11.8235ZM9.94118 17.8889V18.8824H11.8235V17.8889H9.94118Z"
    fill="white"
  />
  <path
    d="M12.5 7.38195C12.2346 7.14443 11.8842 7 11.5 7C11.2472 7 11.009 7.06255 10.8 7.17301V7H10V12H11V8.5C11 8.22386 11.2239 8 11.5 8C11.7761 8 12 8.22386 12 8.5V12H13V8.5C13 8.22386 13.2239 8 13.5 8C13.7761 8 14 8.22386 14 8.5V12H15V8.41L14.9972 8.40771C14.9495 7.62226 14.2974 7 13.5 7C13.1158 7 12.7654 7.14443 12.5 7.38195Z"
    fill="white"
  />
  <path
    fill-rule="evenodd"
    clip-rule="evenodd"
    d="M20 10.4C20 10.96 19.86 11.3667 19.58 11.62C19.3067 11.8733 18.88 12 18.3 12L17.7 12C17.12 12 16.69 11.8733 16.41 11.62C16.1367 11.3667 16 10.96 16 10.4V8.6C16 8.04 16.1367 7.63333 16.41 7.38C16.69 7.12667 17.12 7 17.7 7H18.3C18.88 7 19.3067 7.12667 19.58 7.38C19.86 7.63333 20 8.04 20 8.6V10.4ZM19 8.65C19 8.44333 18.9367 8.28333 18.81 8.17C18.6833 8.05667 18.4967 8 18.25 8H17.75C17.5033 8 17.3167 8.05667 17.19 8.17C17.0633 8.28333 17 8.44333 17 8.65V10.35C17 10.5567 17.0633 10.7167 17.19 10.83C17.3167 10.9433 17.5033 11 17.75 11H18.25C18.4967 11 18.6833 10.9433 18.81 10.83C18.9367 10.7167 19 10.5567 19 10.35V8.65Z"
    fill="white"
  />
  <path d="M21 7H22V10H23V7H24V10L23 12H22L21 10V7Z" fill="white" />
</svg>
