<svg
  width="200"
  height="120"
  viewBox="0 0 200 120"
  fill="none"
  xmlns="http://www.w3.org/2000/svg"
>
  <path
    d="M0 4C0 1.79086 1.79086 0 4 0H196C198.209 0 200 1.79086 200 4V116C200 118.209 198.209 120 196 120H4C1.79086 120 0 118.209 0 116V4Z"
    fill="var(--color-bg-default)"
  />
  <rect
    x="32.5"
    y="15.5"
    width="33"
    height="17.5455"
    rx="8.77273"
    stroke="var(--color-control-bg-border-default)"
  />
  <circle
    cx="41.2727"
    cy="24.2727"
    r="7.72727"
    fill="var(--color-control-bg-border-default)"
  />
  <rect
    x="32.5"
    y="87.5"
    width="33"
    height="17.5455"
    rx="8.77273"
    stroke="var(--color-control-bg-border-default)"
  />
  <circle
    cx="41.2727"
    cy="96.2727"
    r="7.72727"
    fill="var(--color-control-bg-border-default)"
  />
  <rect
    x="32"
    y="51"
    width="34"
    height="18.5455"
    rx="9.27273"
    fill="var(--color-bg-link)"
  />
  <circle
    cx="56.7273"
    cy="60.2727"
    r="7.72727"
    fill="var(--color-bg-default)"
  />
  <rect
    x="78"
    y="57"
    width="70"
    height="7"
    fill="var(--color-control-typo-placeholder)"
  />
  <rect x="78" y="21" width="90" height="7" fill="var(--color-bg-system)" />
  <rect x="78" y="93" width="90" height="7" fill="var(--color-bg-system)" />
</svg>
