<svg width="16" height="16" viewBox="0 0 16 16" xmlns="http://www.w3.org/2000/svg">
  <path
    d="M11 13.5321L10.8044 14.309C10.2176 14.5341 9.74889 14.7053 9.39985 14.8231C9.05044 14.9412 8.64444 15 8.18186 15C7.47149 15 6.91895 14.8309 6.52487 14.4951C6.13079 14.1579 5.93369 13.7306 5.93369 13.2122C5.93369 13.0116 5.948 12.8052 5.97773 12.5949C6.00772 12.3843 6.05539 12.1472 6.12063 11.8822L6.85396 9.36016C6.9192 9.11866 6.97466 8.88984 7.01907 8.67345C7.06411 8.4584 7.08582 8.26055 7.08582 8.08244C7.08582 7.76036 7.01719 7.53507 6.88056 7.40841C6.74393 7.28211 6.48322 7.21799 6.09617 7.21799C5.90659 7.21799 5.71175 7.24749 5.51314 7.30454C5.31366 7.36184 5.14315 7.41718 5 7.46863L5.1961 6.6911C5.67649 6.50104 6.13569 6.3383 6.57493 6.20322C7.01418 6.06778 7.42921 6 7.82178 6C8.52726 6 9.07164 6.16567 9.45392 6.49702C9.83621 6.82861 10.0273 7.25846 10.0273 7.78815C10.0273 7.89775 10.0147 8.09085 9.98777 8.36685C9.96142 8.64346 9.91236 8.89691 9.84085 9.12743L9.11066 11.6394C9.05081 11.8411 8.99699 12.0718 8.95019 12.3313C8.90189 12.5891 8.8788 12.7861 8.8788 12.9183C8.8788 13.2518 8.95534 13.4796 9.10878 13.6006C9.26335 13.7217 9.52958 13.7819 9.90772 13.7819C10.0853 13.7819 10.2872 13.7513 10.5117 13.6912C10.7355 13.6311 10.8988 13.5783 11 13.5321Z"
    fill="black"
  />
  <path
    d="M11 2.5C11 3.32843 10.3284 4 9.5 4C8.67157 4 8 3.32843 8 2.5C8 1.67157 8.67157 1 9.5 1C10.3284 1 11 1.67157 11 2.5Z"
    fill="black"
  />
</svg>
