<svg width="24" height="24" viewBox="0 0 24 24" xmlns="http://www.w3.org/2000/svg">
  <path
    d="M16 19.7166L15.7392 20.9251C14.9568 21.2752 14.3318 21.5417 13.8665 21.7248C13.4006 21.9086 12.8593 22 12.2425 22C11.2953 22 10.5586 21.737 10.0332 21.2145C9.50773 20.69 9.24492 20.0253 9.24492 19.219C9.24492 18.9069 9.26399 18.5858 9.30364 18.2587C9.34362 17.9312 9.40719 17.5623 9.49418 17.1501L10.4719 13.2269C10.5589 12.8512 10.6329 12.4953 10.6921 12.1587C10.7521 11.8242 10.7811 11.5164 10.7811 11.2393C10.7811 10.7383 10.6896 10.3879 10.5074 10.1909C10.3252 9.99439 9.97763 9.89464 9.46156 9.89464C9.20879 9.89464 8.949 9.94054 8.68419 10.0293C8.41821 10.1184 8.19087 10.2045 8 10.2845L8.26146 9.07504C8.90199 8.7794 9.51425 8.52624 10.0999 8.31612C10.6856 8.10544 11.2389 8 11.7624 8C12.703 8 13.4289 8.25771 13.9386 8.77314C14.4483 9.28895 14.7031 9.9576 14.7031 10.7816C14.7031 10.952 14.6863 11.2524 14.6504 11.6818C14.6152 12.112 14.5498 12.5063 14.4545 12.8649L13.4809 16.7723C13.4011 17.0862 13.3293 17.445 13.2669 17.8487C13.2025 18.2498 13.1717 18.5562 13.1717 18.7618C13.1717 19.2806 13.2738 19.6349 13.4784 19.8232C13.6845 20.0115 14.0394 20.1052 14.5436 20.1052C14.7803 20.1052 15.0497 20.0576 15.3489 19.9641C15.6474 19.8706 15.865 19.7885 16 19.7166Z"
    fill="black"
  />
  <path
    d="M16 4C16 5.10457 15.1046 6 14 6C12.8954 6 12 5.10457 12 4C12 2.89543 12.8954 2 14 2C15.1046 2 16 2.89543 16 4Z"
    fill="black"
  />
</svg>
