<svg width="12" height="12" viewBox="0 0 12 12" xmlns="http://www.w3.org/2000/svg">
  <path
    d="M7.8696 10.4626L8 9.8583C7.9325 9.89424 7.82368 9.93529 7.67447 9.98204C7.52483 10.0288 7.39017 10.0526 7.27181 10.0526C7.01972 10.0526 6.84223 10.0057 6.73918 9.91159C6.63689 9.81743 6.58587 9.64032 6.58587 9.3809C6.58587 9.27811 6.60126 9.12489 6.63346 8.92435C6.66466 8.72248 6.70054 8.54309 6.74044 8.38616L7.22723 6.43245C7.27491 6.25315 7.30761 6.05602 7.32518 5.84088C7.34316 5.62622 7.35153 5.47602 7.35153 5.39078C7.35153 4.9788 7.22414 4.64447 6.96928 4.38657C6.71443 4.12886 6.3515 4 5.88119 4C5.61947 4 5.34279 4.05272 5.04996 4.15806C4.75713 4.26312 4.451 4.3897 4.13073 4.53752L4 5.14227C4.09544 5.10225 4.2091 5.05921 4.34209 5.01464C4.4745 4.97027 4.6044 4.94732 4.73078 4.94732C4.98881 4.94732 5.16262 4.9972 5.25371 5.09543C5.34479 5.19394 5.39054 5.36917 5.39054 5.61967C5.39054 5.7582 5.37607 5.91209 5.34605 6.07935C5.31644 6.24765 5.27947 6.42562 5.23597 6.61346L4.74709 8.57504C4.70359 8.78117 4.67181 8.96559 4.65182 9.12934C4.632 9.2929 4.62246 9.45343 4.62246 9.6095C4.62246 10.0127 4.75386 10.345 5.01658 10.6073C5.2793 10.8685 5.64766 11 6.12124 11C6.42963 11 6.70029 10.9543 6.93323 10.8624C7.16592 10.7708 7.47841 10.6376 7.8696 10.4626Z"
    fill="black"
  />
  <path
    d="M8 2C8 2.55228 7.55228 3 7 3C6.44772 3 6 2.55228 6 2C6 1.44772 6.44772 1 7 1C7.55228 1 8 1.44772 8 2Z"
    fill="black"
  />
</svg>
