<svg width="32" height="32" viewBox="0 0 32 32" fill="none" xmlns="http://www.w3.org/2000/svg">
  <path
    d="M0.5 6.7125C0.5 5.31328 0.50067 4.30352 0.584532 3.51993C0.667415 2.74548 0.826865 2.2507 1.10577 1.86041C1.31402 1.569 1.569 1.31402 1.86041 1.10577C2.2507 0.826865 2.74548 0.667415 3.51993 0.584532C4.30352 0.50067 5.31328 0.5 6.7125 0.5H25.2875C26.6867 0.5 27.6965 0.50067 28.4801 0.584532C29.2545 0.667415 29.7493 0.826865 30.1396 1.10577C30.431 1.31402 30.686 1.569 30.8942 1.86041C31.1731 2.2507 31.3326 2.74548 31.4155 3.51993C31.4993 4.30352 31.5 5.31328 31.5 6.7125V25.2875C31.5 26.6867 31.4993 27.6965 31.4155 28.4801C31.3326 29.2545 31.1731 29.7493 30.8942 30.1396C30.686 30.431 30.431 30.686 30.1396 30.8942C29.7493 31.1731 29.2545 31.3326 28.4801 31.4155C27.6965 31.4993 26.6867 31.5 25.2875 31.5H6.7125C5.31328 31.5 4.30352 31.4993 3.51993 31.4155C2.74548 31.3326 2.2507 31.1731 1.86041 30.8942C1.569 30.686 1.31402 30.431 1.10577 30.1396C0.826865 29.7493 0.667415 29.2545 0.584532 28.4801C0.50067 27.6965 0.5 26.6867 0.5 25.2875V6.7125Z"
    fill="url(#paint0_linear)"
    stroke="url(#paint1_angular)"
  />
  <g filter="url(#filter0_dd)">
    <path
      d="M20.3533 19.3163C19.5582 19.9758 18.432 20.2667 16.9818 20.2667C14.42 20.2667 12.7732 18.0116 12.7732 15.4667C12.7732 12.9217 14.42 10.6667 16.9818 10.6667C18.4008 10.6667 19.5143 10.9479 20.3066 11.5796L22.8437 7.77707C21.2471 6.45131 19.0907 5.86667 16.6158 5.86667C11.3093 5.86667 7.46667 9.89867 7.46667 15.4667C7.46667 21.0347 11.3093 25.0667 16.6158 25.0667C19.1374 25.0667 21.3286 24.459 22.9333 23.0804L20.3533 19.3163Z"
      fill="white"
    />
  </g>
  <defs>
    <filter
      id="filter0_dd"
      x="7.21667"
      y="5.74167"
      width="15.9667"
      height="19.7"
      filterUnits="userSpaceOnUse"
      color-interpolation-filters="sRGB"
    >
      <feFlood flood-opacity="0" result="BackgroundImageFix" />
      <feColorMatrix
        in="SourceAlpha"
        type="matrix"
        values="0 0 0 0 0 0 0 0 0 0 0 0 0 0 0 0 0 0 127 0"
      />
      <feOffset dy="0.0625" />
      <feGaussianBlur stdDeviation="0.0625" />
      <feColorMatrix type="matrix" values="0 0 0 0 0 0 0 0 0 0 0 0 0 0 0 0 0 0 0.16 0" />
      <feBlend mode="normal" in2="BackgroundImageFix" result="effect1_dropShadow" />
      <feColorMatrix
        in="SourceAlpha"
        type="matrix"
        values="0 0 0 0 0 0 0 0 0 0 0 0 0 0 0 0 0 0 127 0"
      />
      <feOffset dy="0.125" />
      <feGaussianBlur stdDeviation="0.125" />
      <feColorMatrix type="matrix" values="0 0 0 0 0 0 0 0 0 0 0 0 0 0 0 0 0 0 0.18 0" />
      <feBlend mode="normal" in2="effect1_dropShadow" result="effect2_dropShadow" />
      <feBlend mode="normal" in="SourceGraphic" in2="effect2_dropShadow" result="shape" />
    </filter>
    <linearGradient
      id="paint0_linear"
      x1="15.9629"
      y1="2.3888"
      x2="3.64218"
      y2="21.8728"
      gradientUnits="userSpaceOnUse"
    >
      <stop stop-color="#29B0FF" />
      <stop offset="1" stop-color="#0078D2" />
    </linearGradient>
    <radialGradient
      id="paint1_angular"
      cx="0"
      cy="0"
      r="1"
      gradientUnits="userSpaceOnUse"
      gradientTransform="translate(15.7333 17.4667) rotate(35.1222) scale(19.2356)"
    >
      <stop offset="0.0688356" stop-color="white" stop-opacity="0.5" />
      <stop offset="0.467174" stop-color="#8FD6FF" stop-opacity="0.5" />
      <stop offset="0.804525" stop-color="#47B0FF" stop-opacity="0.5" />
    </radialGradient>
  </defs>
</svg>
