<svg width="32" height="32" viewBox="0 0 32 32" fill="none" xmlns="http://www.w3.org/2000/svg">
  <path
    d="M1 10.74C1 8.49685 1.00134 6.8938 1.13412 5.65317C1.26493 4.43083 1.51394 3.6779 1.93196 3.09293C2.25233 2.64461 2.64461 2.25233 3.09293 1.93196C3.6779 1.51394 4.43083 1.26493 5.65317 1.13412C6.8938 1.00134 8.49685 1 10.74 1H21.26C23.5031 1 25.1062 1.00134 26.3468 1.13412C27.5692 1.26493 28.3221 1.51394 28.9071 1.93196C29.3554 2.25233 29.7477 2.64461 30.068 3.09293C30.4861 3.6779 30.7351 4.43083 30.8659 5.65317C30.9987 6.8938 31 8.49685 31 10.74V21.26C31 23.5031 30.9987 25.1062 30.8659 26.3468C30.7351 27.5692 30.4861 28.3221 30.068 28.9071C29.7477 29.3554 29.3554 29.7477 28.9071 30.068C28.3221 30.4861 27.5692 30.7351 26.3468 30.8659C25.1062 30.9987 23.5031 31 21.26 31H10.74C8.49685 31 6.8938 30.9987 5.65317 30.8659C4.43083 30.7351 3.6779 30.4861 3.09293 30.068C2.64461 29.7477 2.25233 29.3554 1.93196 28.9071C1.51394 28.3221 1.26493 27.5692 1.13412 26.3468C1.00134 25.1062 1 23.5031 1 21.26V10.74Z"
    fill="url(#paint0_linear)"
    stroke="url(#paint1_angular)"
    stroke-width="2"
  />
  <g filter="url(#filter0_dd)">
    <path
      d="M20.3533 19.3163C19.5582 19.9758 18.4319 20.2667 16.9818 20.2667C14.42 20.2667 12.7732 18.0116 12.7732 15.4667C12.7732 12.9217 14.42 10.6667 16.9818 10.6667C18.4008 10.6667 19.5143 10.9479 20.3066 11.5796L22.8437 7.77707C21.2471 6.45131 19.0907 5.86667 16.6158 5.86667C11.3093 5.86667 7.46667 9.89867 7.46667 15.4667C7.46667 21.0347 11.3093 25.0667 16.6158 25.0667C19.1373 25.0667 21.3286 24.459 22.9333 23.0804L20.3533 19.3163Z"
      fill="white"
    />
  </g>
  <defs>
    <filter
      id="filter0_dd"
      x="3.46667"
      y="3.86667"
      width="23.4667"
      height="27.2"
      filterUnits="userSpaceOnUse"
      color-interpolation-filters="sRGB"
    >
      <feFlood flood-opacity="0" result="BackgroundImageFix" />
      <feColorMatrix
        in="SourceAlpha"
        type="matrix"
        values="0 0 0 0 0 0 0 0 0 0 0 0 0 0 0 0 0 0 127 0"
      />
      <feOffset dy="1" />
      <feGaussianBlur stdDeviation="1" />
      <feColorMatrix type="matrix" values="0 0 0 0 0 0 0 0 0 0 0 0 0 0 0 0 0 0 0.16 0" />
      <feBlend mode="normal" in2="BackgroundImageFix" result="effect1_dropShadow" />
      <feColorMatrix
        in="SourceAlpha"
        type="matrix"
        values="0 0 0 0 0 0 0 0 0 0 0 0 0 0 0 0 0 0 127 0"
      />
      <feOffset dy="2" />
      <feGaussianBlur stdDeviation="2" />
      <feColorMatrix type="matrix" values="0 0 0 0 0 0 0 0 0 0 0 0 0 0 0 0 0 0 0.18 0" />
      <feBlend mode="normal" in2="effect1_dropShadow" result="effect2_dropShadow" />
      <feBlend mode="normal" in="SourceGraphic" in2="effect2_dropShadow" result="shape" />
    </filter>
    <linearGradient
      id="paint0_linear"
      x1="15.9629"
      y1="2.3888"
      x2="3.64218"
      y2="21.8728"
      gradientUnits="userSpaceOnUse"
    >
      <stop stop-color="#29B0FF" />
      <stop offset="1" stop-color="#0078D2" />
    </linearGradient>
    <radialGradient
      id="paint1_angular"
      cx="0"
      cy="0"
      r="1"
      gradientUnits="userSpaceOnUse"
      gradientTransform="translate(15.7333 17.4667) rotate(35.1222) scale(19.2356)"
    >
      <stop offset="0.0688356" stop-color="white" stop-opacity="0.9" />
      <stop offset="0.467174" stop-color="#8FD6FF" stop-opacity="0.7" />
      <stop offset="0.804525" stop-color="#47B0FF" stop-opacity="0.7" />
    </radialGradient>
  </defs>
</svg>
