<svg width="24" height="24" viewBox="0 0 24 24" fill="none" xmlns="http://www.w3.org/2000/svg">
  <path
    d="M13.3444 17.9778C10.2 16.3667 7.62222 13.8 6.02222 10.6556L8.77371 8.6036C9.09322 8.36532 9.24072 7.96006 9.14912 7.57216L8.0152 2.77018C7.90862 2.31884 7.50572 2 7.04197 2H3.11111C2.5 2 2 2.5 2 3.11111C2 13.5444 10.4556 22 20.8889 22C21.5 22 22 21.5 22 20.8889V16.9567C22 16.4935 21.682 16.091 21.2315 15.9838L16.4299 14.8414C16.041 14.7489 15.6343 14.8969 15.3958 15.2177L13.3444 17.9778Z"
    fill="black"
  />
</svg>
