<svg width="12" height="12" viewBox="0 0 12 12" fill="none" xmlns="http://www.w3.org/2000/svg">
  <path
    d="M6.67222 8.98889C5.1 8.18333 3.81111 6.9 3.01111 5.32778L4.12371 4.49804C4.44322 4.25977 4.59072 3.85451 4.49912 3.4666L4.09853 1.77018C3.99196 1.31884 3.58905 1 3.1253 1H1.55556C1.25 1 1 1.25 1 1.55556C1 6.77222 5.22778 11 10.4444 11C10.75 11 11 10.75 11 10.4444V8.87332C11 8.4102 10.682 8.00767 10.2315 7.90048L8.53545 7.49696C8.14653 7.40442 7.73987 7.55242 7.50139 7.87328L6.67222 8.98889Z"
    fill="black"
  />
</svg>
