<svg width="16" height="16" viewBox="0 0 16 16" xmlns="http://www.w3.org/2000/svg">
  <path
    d="M8.94111 12.1844C6.74 11.0567 4.93556 9.26 3.81556 7.05889L5.58371 5.74027C5.90322 5.50199 6.05072 5.09673 5.95912 4.70882L5.2652 1.77018C5.15862 1.31884 4.75572 1 4.29197 1H1.77778C1.35 1 1 1.35 1 1.77778C1 9.08111 6.91889 15 14.2222 15C14.65 15 15 14.65 15 14.2222V11.7067C15 11.2435 14.682 10.841 14.2315 10.7338L11.2932 10.0347C10.9043 9.9422 10.4976 10.0902 10.2592 10.4111L8.94111 12.1844Z"
  />
</svg>
