<svg width="200" height="120" viewBox="0 0 200 120" fill="none" xmlns="http://www.w3.org/2000/svg">
  <path
    d="M0 4C0 1.79086 1.79086 0 4 0H196C198.209 0 200 1.79086 200 4V116C200 118.209 198.209 120 196 120H4C1.79086 120 0 118.209 0 116V4Z"
    fill="white"
  />
  <path
    d="M4 1H196V-1H4V1ZM199 4V116H201V4H199ZM196 119H4V121H196V119ZM1 116V4H-1V116H1ZM4 119C2.34314 119 1 117.657 1 116H-1C-1 118.761 1.23857 121 4 121V119ZM199 116C199 117.657 197.657 119 196 119V121C198.761 121 201 118.761 201 116H199ZM196 1C197.657 1 199 2.34314 199 4H201C201 1.23858 198.761 -1 196 -1V1ZM4 -1C1.23858 -1 -1 1.23858 -1 4H1C1 2.34315 2.34315 1 4 1V-1Z"
    fill="#004166"
    fill-opacity="0.2"
  />
  <rect x="34.5" y="34.5" width="15" height="15" rx="3.5" stroke="#004269" stroke-opacity="0.28" />
  <rect x="34.5" y="70.5" width="15" height="15" rx="3.5" stroke="#004269" stroke-opacity="0.28" />
  <rect x="72" y="34" width="16" height="16" rx="4" fill="#004269" fill-opacity="0.07" />
  <path
    fill-rule="evenodd"
    clip-rule="evenodd"
    d="M76.2284 40.9284L75.2 42.1541L79.4898 45.7537L85.6606 38.3997L84.4349 37.3713L79.2926 43.4996L76.2284 40.9284Z"
    fill="#002033"
    fill-opacity="0.26"
  />
  <rect x="110" y="34" width="16" height="16" rx="4" fill="#004269" fill-opacity="0.07" />
  <rect x="110.5" y="34.5" width="15" height="15" rx="3.5" stroke="#004269" stroke-opacity="0.28" />
  <path
    fill-rule="evenodd"
    clip-rule="evenodd"
    d="M114.228 40.9284L113.2 42.1541L117.49 45.7537L123.661 38.3997L122.435 37.3713L117.293 43.4996L114.228 40.9284Z"
    fill="#00395C"
    fill-opacity="0.8"
  />
  <rect x="148" y="34" width="16" height="16" rx="4" fill="#0078D2" />
  <path
    fill-rule="evenodd"
    clip-rule="evenodd"
    d="M152.028 41.1284L151 42.354L155.29 45.9536L161.461 38.5996L160.235 37.5712L155.093 43.6995L152.028 41.1284Z"
    fill="white"
  />
  <rect x="148" y="70" width="16" height="16" rx="4" fill="#0078D2" />
  <path d="M152.5 77H159.5V79H152.5V77Z" fill="white" />
  <rect x="110" y="70" width="16" height="16" rx="4" fill="#004269" fill-opacity="0.07" />
  <rect x="110.5" y="70.5" width="15" height="15" rx="3.5" stroke="#004269" stroke-opacity="0.28" />
  <path d="M114.5 77H121.5V79H114.5V77Z" fill="#00395C" fill-opacity="0.8" />
  <path d="M115 77.5H121V78.5H115V77.5Z" stroke="#004269" stroke-opacity="0.28" />
  <rect x="72" y="70" width="16" height="16" rx="4" fill="#004269" fill-opacity="0.07" />
  <path d="M76.5 77H83.5V79H76.5V77Z" fill="#002033" fill-opacity="0.26" />
</svg>
