<svg
  width="656"
  height="205"
  viewBox="0 0 656 205"
  fill="none"
  xmlns="http://www.w3.org/2000/svg"
>
  <rect width="205" height="205" transform="translate(0.5)" fill="white" />
  <rect x="32" y="30.5" width="144" height="144" stroke="#FF6B82" />
  <path
    fill-rule="evenodd"
    clip-rule="evenodd"
    d="M37.5 31H38.5V174H37.5V31ZM49.5 31H50.5V174H49.5V31ZM62.5 31H61.5V174H62.5V31ZM73.5 31H74.5V174H73.5V31ZM86.5 31H85.5V174H86.5V31ZM97.5 31H98.5V174H97.5V31ZM110.5 31H109.5V174H110.5V31ZM121.5 31H122.5V174H121.5V31ZM134.5 31H133.5V174H134.5V31ZM145.5 31H146.5V174H145.5V31ZM158.5 31H157.5V174H158.5V31ZM169.5 31H170.5V174H169.5V31ZM44.5 31H43.5V174H44.5V31ZM55.5 31H56.5V174H55.5V31ZM68.5 31H67.5V174H68.5V31ZM79.5 31H80.5V174H79.5V31ZM92.5 31H91.5V174H92.5V31ZM103.5 31H104.5V174H103.5V31ZM116.5 31H115.5V174H116.5V31ZM127.5 31H128.5V174H127.5V31ZM140.5 31H139.5V174H140.5V31ZM151.5 31H152.5V174H151.5V31ZM164.5 31H163.5V174H164.5V31Z"
    fill="#F7E5E5"
  />
  <path
    fill-rule="evenodd"
    clip-rule="evenodd"
    d="M32.5 169V168H175.5V169H32.5ZM32.5 157V156H175.5V157H32.5ZM32.5 144V145H175.5V144H32.5ZM32.5 133V132H175.5V133H32.5ZM32.5 120V121H175.5V120H32.5ZM32.5 109V108H175.5V109H32.5ZM32.5 96V97L175.5 97V96L32.5 96ZM32.5 85V84L175.5 84V85L32.5 85ZM32.5 72V73L175.5 73V72L32.5 72ZM32.5 61V60L175.5 60V61L32.5 61ZM32.5 48V49L175.5 49V48L32.5 48ZM32.5 37V36H175.5V37H32.5ZM32.5 162V163H175.5V162H32.5ZM32.5 151V150H175.5V151H32.5ZM32.5 138V139H175.5V138H32.5ZM32.5 127V126H175.5V127H32.5ZM32.5 114V115H175.5V114H32.5ZM32.5 103V102L175.5 102V103L32.5 103ZM32.5 90V91L175.5 91V90L32.5 90ZM32.5 79V78L175.5 78V79L32.5 79ZM32.5 66V67L175.5 67V66L32.5 66ZM32.5 55V54L175.5 54V55L32.5 55ZM32.5 42V43L175.5 43V42L32.5 42Z"
    fill="#F7E5E5"
  />
  <path
    fill-rule="evenodd"
    clip-rule="evenodd"
    d="M186.5 30H181.5V31H183.5V174H181.5V175H186.5V174H184.5V31H186.5V30Z"
    fill="#FF6B82"
  />
  <path
    fill-rule="evenodd"
    clip-rule="evenodd"
    d="M26.5 96H21.5V97H23.5V108H21.5V109H23.5H24.5H26.5V108H24.5V97H26.5V96Z"
    fill="#FF6B82"
  />
  <path
    d="M193.388 106H188.993V105.067L190.932 103.188C191.426 102.709 191.78 102.312 191.991 101.996C192.203 101.677 192.309 101.337 192.309 100.976C192.309 100.604 192.198 100.318 191.977 100.116C191.758 99.9111 191.446 99.8086 191.039 99.8086C190.443 99.8086 189.874 100.076 189.33 100.609V99.5205C189.906 99.0941 190.575 98.8809 191.337 98.8809C191.994 98.8809 192.512 99.0469 192.89 99.3789C193.267 99.7077 193.456 100.185 193.456 100.81C193.456 101.229 193.339 101.641 193.104 102.045C192.87 102.445 192.419 102.971 191.752 103.622L190.312 105.004V105.028H193.388V106ZM199.301 104.311H198.427V106H197.362V104.311H194.179V103.578L197.216 98.998H198.427V103.456H199.301V104.311ZM197.362 103.456V100.746C197.362 100.554 197.369 100.339 197.382 100.102H197.362C197.323 100.206 197.243 100.365 197.123 100.58L195.219 103.456H197.362Z"
    fill="#FF6B82"
  />
  <path
    d="M18.3877 106H13.9932V105.067L15.9316 103.188C16.4264 102.709 16.7796 102.312 16.9912 101.996C17.2028 101.677 17.3086 101.337 17.3086 100.976C17.3086 100.604 17.1979 100.318 16.9766 100.116C16.7585 99.9111 16.446 99.8086 16.0391 99.8086C15.4434 99.8086 14.8737 100.076 14.3301 100.609V99.5205C14.9062 99.0941 15.5752 98.8809 16.3369 98.8809C16.9945 98.8809 17.512 99.0469 17.8896 99.3789C18.2673 99.7077 18.4561 100.185 18.4561 100.81C18.4561 101.229 18.3389 101.641 18.1045 102.045C17.8701 102.445 17.4193 102.971 16.752 103.622L15.3115 105.004V105.028H18.3877V106Z"
    fill="#FF6B82"
  />
  <path
    d="M103.999 54L95.5 62.5L129.193 96H55.5V109H129.193L95.5 142.5L103.999 151L152 102.5L103.999 54Z"
    fill="black"
  />
  <rect
    x="24.5"
    y="96"
    width="121"
    height="13"
    fill="#FF6B82"
    fill-opacity="0.4"
  />
  <rect width="205" height="205" transform="translate(225.5)" fill="white" />
  <rect x="280" y="53.5" width="96" height="96" stroke="#FF6B82" />
  <path
    fill-rule="evenodd"
    clip-rule="evenodd"
    d="M285.5 54H286.5V149H285.5V54ZM297.5 54H298.5V149H297.5V54ZM310.5 54H309.5V149H310.5V54ZM321.5 54H322.5V149H321.5V54ZM334.5 54H333.5V149H334.5V54ZM345.5 54H346.5V149H345.5V54ZM358.5 54H357.5V149H358.5V54ZM369.5 54H370.5V149H369.5V54ZM292.5 54H291.5V149H292.5V54ZM303.5 54H304.5V149H303.5V54ZM316.5 54H315.5V149H316.5V54ZM327.5 54H328.5V149H327.5V54ZM340.5 54H339.5V149H340.5V54ZM351.5 54H352.5V149H351.5V54ZM364.5 54H363.5V149H364.5V54Z"
    fill="#F7E5E5"
  />
  <path
    fill-rule="evenodd"
    clip-rule="evenodd"
    d="M280.5 144V143H375.5V144H280.5ZM280.5 132V131H375.5V132H280.5ZM280.5 119V120H375.5V119H280.5ZM280.5 108V107H375.5V108H280.5ZM280.5 95V96H375.5V95H280.5ZM280.5 84V83H375.5V84H280.5ZM280.5 71V72H375.5V71H280.5ZM280.5 60V59H375.5V60H280.5ZM280.5 137V138H375.5V137H280.5ZM280.5 126V125H375.5V126H280.5ZM280.5 113V114H375.5V113H280.5ZM280.5 102V101H375.5V102H280.5ZM280.5 89V90H375.5V89H280.5ZM280.5 78V77H375.5V78H280.5ZM280.5 65V66H375.5V65H280.5Z"
    fill="#F7E5E5"
  />
  <path
    fill-rule="evenodd"
    clip-rule="evenodd"
    d="M383.5 54H381.5V55H383.5V148H381.5V149H383.5H384.5H386.5V148H384.5V55H386.5V54H384.5H383.5Z"
    fill="#FF6B82"
  />
  <path
    fill-rule="evenodd"
    clip-rule="evenodd"
    d="M274.5 95H269.5V96H271.5V107H269.5V108H271.5H272.5H274.5V107H272.5V96H274.5V95Z"
    fill="#FF6B82"
  />
  <path
    d="M393.515 106H389.345V105.062H390.868V100.111L389.306 100.526V99.54L392.001 98.8662V105.062H393.515V106ZM398.778 99.0811V100.062C398.43 99.877 398.064 99.7842 397.68 99.7842C397.084 99.7842 396.607 100.025 396.249 100.507C395.891 100.989 395.712 101.635 395.712 102.445H395.731C396.047 101.859 396.568 101.566 397.294 101.566C397.89 101.566 398.363 101.765 398.715 102.162C399.066 102.559 399.242 103.09 399.242 103.754C399.242 104.451 399.024 105.019 398.588 105.458C398.155 105.897 397.605 106.117 396.938 106.117C396.199 106.117 395.619 105.837 395.199 105.277C394.779 104.717 394.569 103.931 394.569 102.919C394.569 101.692 394.843 100.712 395.39 99.9795C395.94 99.2471 396.667 98.8809 397.572 98.8809C398.08 98.8809 398.482 98.9476 398.778 99.0811ZM396.952 102.455C396.601 102.455 396.314 102.579 396.093 102.826C395.875 103.07 395.766 103.36 395.766 103.695C395.766 104.115 395.875 104.475 396.093 104.774C396.311 105.071 396.601 105.219 396.962 105.219C397.304 105.219 397.58 105.09 397.792 104.833C398.004 104.573 398.109 104.244 398.109 103.847C398.109 103.41 398.008 103.07 397.807 102.826C397.605 102.579 397.32 102.455 396.952 102.455Z"
    fill="#FF6B82"
  />
  <path
    d="M266.388 105H261.993V104.067L263.932 102.188C264.426 101.709 264.78 101.312 264.991 100.996C265.203 100.677 265.309 100.337 265.309 99.9756C265.309 99.6045 265.198 99.318 264.977 99.1162C264.758 98.9111 264.446 98.8086 264.039 98.8086C263.443 98.8086 262.874 99.0755 262.33 99.6094V98.5205C262.906 98.0941 263.575 97.8809 264.337 97.8809C264.994 97.8809 265.512 98.0469 265.89 98.3789C266.267 98.7077 266.456 99.1846 266.456 99.8096C266.456 100.229 266.339 100.641 266.104 101.045C265.87 101.445 265.419 101.971 264.752 102.622L263.312 104.004V104.028H266.388V105Z"
    fill="#FF6B82"
  />
  <path
    d="M341.403 95L321.5 76L330.5 67.5L364 101.5L330.5 135.5L321.5 127L341.403 108H291.5V95H341.403Z"
    fill="black"
  />
  <rect
    x="272.5"
    y="95"
    width="85"
    height="13"
    fill="#FF6B82"
    fill-opacity="0.4"
  />
  <rect width="205" height="205" transform="translate(450.5)" fill="white" />
  <rect x="517" y="65.5" width="72" height="72" stroke="#EB5757" />
  <path
    fill-rule="evenodd"
    clip-rule="evenodd"
    d="M522.5 66H523.5V137H522.5V66ZM534.5 66H535.5V137H534.5V66ZM547.5 66H546.5V137H547.5V66ZM558.5 66H559.5V137H558.5V66ZM571.5 66H570.5V137H571.5V66ZM582.5 66H583.5V137H582.5V66ZM529.5 66H528.5V137H529.5V66ZM540.5 66H541.5V137H540.5V66ZM553.5 66H552.5V137H553.5V66ZM564.5 66H565.5V137H564.5V66ZM577.5 66H576.5V137H577.5V66Z"
    fill="#F7E5E5"
  />
  <path
    fill-rule="evenodd"
    clip-rule="evenodd"
    d="M517.5 132V131H588.5V132H517.5ZM517.5 120V119H588.5V120H517.5ZM517.5 107V108H588.5V107H517.5ZM517.5 96V95H588.5V96H517.5ZM517.5 83V84H588.5V83H517.5ZM517.5 72V71H588.5V72H517.5ZM517.5 125V126H588.5V125H517.5ZM517.5 114V113H588.5V114H517.5ZM517.5 101V102H588.5V101H517.5ZM517.5 90V89H588.5V90H517.5ZM517.5 77V78H588.5V77H517.5Z"
    fill="#F7E5E5"
  />
  <path
    fill-rule="evenodd"
    clip-rule="evenodd"
    d="M596.5 66H594.5V67H596.5V136H594.5V137H596.5H597.5H599.5V136H597.5V67H599.5V66H597.5H596.5Z"
    fill="#FF6B82"
  />
  <path
    fill-rule="evenodd"
    clip-rule="evenodd"
    d="M511.5 101H506.5V102H508.5V107H506.5V108H508.5H509.5H511.5V107H509.5V102H511.5V101Z"
    fill="#FF6B82"
  />
  <path
    d="M606.515 106H602.345V105.062H603.868V100.111L602.306 100.526V99.54L605.001 98.8662V105.062H606.515V106ZM611.944 106H607.55V105.067L609.488 103.188C609.983 102.709 610.336 102.312 610.548 101.996C610.759 101.677 610.865 101.337 610.865 100.976C610.865 100.604 610.755 100.318 610.533 100.116C610.315 99.9111 610.003 99.8086 609.596 99.8086C609 99.8086 608.43 100.076 607.887 100.609V99.5205C608.463 99.0941 609.132 98.8809 609.894 98.8809C610.551 98.8809 611.069 99.0469 611.446 99.3789C611.824 99.7077 612.013 100.185 612.013 100.81C612.013 101.229 611.896 101.641 611.661 102.045C611.427 102.445 610.976 102.971 610.309 103.622L608.868 105.004V105.028H611.944V106Z"
    fill="#FF6B82"
  />
  <path
    d="M503.515 108H499.345V107.062H500.868V102.111L499.306 102.526V101.54L502.001 100.866V107.062H503.515V108Z"
    fill="#FF6B82"
  />
  <path
    d="M566.5 108H528.5V101H566.5L551 86.5L554 83L577 104.5L554 126L551 123L566.5 108Z"
    fill="black"
  />
  <rect
    x="509.5"
    y="101"
    width="63"
    height="7"
    fill="#FF6B82"
    fill-opacity="0.4"
  />
</svg>
