<svg
  width="656"
  height="205"
  viewBox="0 0 656 205"
  fill="none"
  xmlns="http://www.w3.org/2000/svg"
>
  <rect width="205" height="205" transform="translate(0.5)" fill="white" />
  <rect x="32" y="30.5" width="144" height="144" stroke="#FF6B82" />
  <path
    fill-rule="evenodd"
    clip-rule="evenodd"
    d="M37.5 31H38.5V174H37.5V31ZM49.5 31H50.5V174H49.5V31ZM62.5 31H61.5V174H62.5V31ZM73.5 31H74.5V174H73.5V31ZM86.5 31H85.5V174H86.5V31ZM97.5 31H98.5V174H97.5V31ZM110.5 31H109.5V174H110.5V31ZM121.5 31H122.5V174H121.5V31ZM134.5 31H133.5V174H134.5V31ZM145.5 31H146.5V174H145.5V31ZM158.5 31H157.5V174H158.5V31ZM169.5 31H170.5V174H169.5V31ZM44.5 31H43.5V174H44.5V31ZM55.5 31H56.5V174H55.5V31ZM68.5 31H67.5V174H68.5V31ZM79.5 31H80.5V174H79.5V31ZM92.5 31H91.5V174H92.5V31ZM103.5 31H104.5V174H103.5V31ZM116.5 31H115.5V174H116.5V31ZM127.5 31H128.5V174H127.5V31ZM140.5 31H139.5V174H140.5V31ZM151.5 31H152.5V174H151.5V31ZM164.5 31H163.5V174H164.5V31Z"
    fill="#F7E5E5"
  />
  <path
    fill-rule="evenodd"
    clip-rule="evenodd"
    d="M32.5 169V168H175.5V169H32.5ZM32.5 157V156H175.5V157H32.5ZM32.5 144V145H175.5V144H32.5ZM32.5 133V132H175.5V133H32.5ZM32.5 120V121H175.5V120H32.5ZM32.5 109V108H175.5V109H32.5ZM32.5 96V97L175.5 97V96L32.5 96ZM32.5 85V84L175.5 84V85L32.5 85ZM32.5 72V73L175.5 73V72L32.5 72ZM32.5 61V60L175.5 60V61L32.5 61ZM32.5 48V49L175.5 49V48L32.5 48ZM32.5 37V36H175.5V37H32.5ZM32.5 162V163H175.5V162H32.5ZM32.5 151V150H175.5V151H32.5ZM32.5 138V139H175.5V138H32.5ZM32.5 127V126H175.5V127H32.5ZM32.5 114V115H175.5V114H32.5ZM32.5 103V102L175.5 102V103L32.5 103ZM32.5 90V91L175.5 91V90L32.5 90ZM32.5 79V78L175.5 78V79L32.5 79ZM32.5 66V67L175.5 67V66L32.5 66ZM32.5 55V54L175.5 54V55L32.5 55ZM32.5 42V43L175.5 43V42L32.5 42Z"
    fill="#F7E5E5"
  />
  <path
    d="M152.5 42H55.5C48.9 42 43.5 47.4 43.5 54V163L67.5 139H152.5C159.1 139 164.5 133.6 164.5 127V54C164.5 47.4 159.1 42 152.5 42Z"
    stroke="#FF6B82"
    stroke-width="2"
  />
  <rect x="141" y="42.5" width="23" height="23" rx="11.5" stroke="#FF6B82" />
  <rect x="141" y="115.5" width="23" height="23" rx="11.5" stroke="#FF6B82" />
  <rect x="44" y="42.5" width="23" height="23" rx="11.5" stroke="#FF6B82" />
  <rect width="205" height="205" transform="translate(225.5)" fill="white" />
  <rect x="257" y="30.5" width="144" height="144" stroke="#FF6B82" />
  <path
    fill-rule="evenodd"
    clip-rule="evenodd"
    d="M262.5 31H263.5V174H262.5V31ZM274.5 31H275.5V174H274.5V31ZM287.5 31H286.5V174H287.5V31ZM298.5 31H299.5V174H298.5V31ZM311.5 31H310.5V174H311.5V31ZM322.5 31H323.5V174H322.5V31ZM335.5 31H334.5V174H335.5V31ZM346.5 31H347.5V174H346.5V31ZM359.5 31H358.5V174H359.5V31ZM370.5 31H371.5V174H370.5V31ZM383.5 31H382.5V174H383.5V31ZM394.5 31H395.5V174H394.5V31ZM269.5 31H268.5V174H269.5V31ZM280.5 31H281.5V174H280.5V31ZM293.5 31H292.5V174H293.5V31ZM304.5 31H305.5V174H304.5V31ZM317.5 31H316.5V174H317.5V31ZM328.5 31H329.5V174H328.5V31ZM341.5 31H340.5V174H341.5V31ZM352.5 31H353.5V174H352.5V31ZM365.5 31H364.5V174H365.5V31ZM376.5 31H377.5V174H376.5V31ZM389.5 31H388.5V174H389.5V31Z"
    fill="#F7E5E5"
  />
  <path
    fill-rule="evenodd"
    clip-rule="evenodd"
    d="M257.5 169V168H400.5V169H257.5ZM257.5 157V156H400.5V157H257.5ZM257.5 144V145H400.5V144H257.5ZM257.5 133V132H400.5V133H257.5ZM257.5 120V121H400.5V120H257.5ZM257.5 109V108H400.5V109H257.5ZM257.5 96V97L400.5 97V96L257.5 96ZM257.5 85V84L400.5 84V85L257.5 85ZM257.5 72V73L400.5 73V72L257.5 72ZM257.5 61V60L400.5 60V61L257.5 61ZM257.5 48V49L400.5 49V48L257.5 48ZM257.5 37V36H400.5V37H257.5ZM257.5 162V163H400.5V162H257.5ZM257.5 151V150H400.5V151H257.5ZM257.5 138V139H400.5V138H257.5ZM257.5 127V126H400.5V127H257.5ZM257.5 114V115H400.5V114H257.5ZM257.5 103V102L400.5 102V103L257.5 103ZM257.5 90V91L400.5 91V90L257.5 90ZM257.5 79V78L400.5 78V79L257.5 79ZM257.5 66V67L400.5 67V66L257.5 66ZM257.5 55V54L400.5 54V55L257.5 55ZM257.5 42V43L400.5 43V42L257.5 42Z"
    fill="#F7E5E5"
  />
  <path
    fill-rule="evenodd"
    clip-rule="evenodd"
    d="M274.5 48C271.186 48 268.5 50.6863 268.5 54V127C268.5 130.314 271.186 133 274.5 133H322.5V144H304.5V157H353.5V144H335.5V133H383.5C386.814 133 389.5 130.314 389.5 127V54C389.5 50.6863 386.814 48 383.5 48H274.5ZM376.5 61H281.5V120H376.5V61Z"
    stroke="#FF6B82"
    stroke-width="2"
  />
  <rect x="269" y="48.5" width="11" height="11" rx="5.5" stroke="#FF6B82" />
  <rect x="378" y="48.5" width="11" height="11" rx="5.5" stroke="#FF6B82" />
  <rect x="378" y="121.5" width="11" height="11" rx="5.5" stroke="#FF6B82" />
  <rect x="269" y="121.5" width="11" height="11" rx="5.5" stroke="#FF6B82" />
  <rect width="205" height="205" transform="translate(450.5)" fill="white" />
  <rect x="482" y="30.5" width="144" height="144" stroke="#FF6B82" />
  <path
    fill-rule="evenodd"
    clip-rule="evenodd"
    d="M487.5 31H488.5V174H487.5V31ZM499.5 31H500.5V174H499.5V31ZM512.5 31H511.5V174H512.5V31ZM523.5 31H524.5V174H523.5V31ZM536.5 31H535.5V174H536.5V31ZM547.5 31H548.5V174H547.5V31ZM560.5 31H559.5V174H560.5V31ZM571.5 31H572.5V174H571.5V31ZM584.5 31H583.5V174H584.5V31ZM595.5 31H596.5V174H595.5V31ZM608.5 31H607.5V174H608.5V31ZM619.5 31H620.5V174H619.5V31ZM494.5 31H493.5V174H494.5V31ZM505.5 31H506.5V174H505.5V31ZM518.5 31H517.5V174H518.5V31ZM529.5 31H530.5V174H529.5V31ZM542.5 31H541.5V174H542.5V31ZM553.5 31H554.5V174H553.5V31ZM566.5 31H565.5V174H566.5V31ZM577.5 31H578.5V174H577.5V31ZM590.5 31H589.5V174H590.5V31ZM601.5 31H602.5V174H601.5V31ZM614.5 31H613.5V174H614.5V31Z"
    fill="#F7E5E5"
  />
  <path
    fill-rule="evenodd"
    clip-rule="evenodd"
    d="M482.5 169V168H625.5V169H482.5ZM482.5 157V156H625.5V157H482.5ZM482.5 144V145H625.5V144H482.5ZM482.5 133V132H625.5V133H482.5ZM482.5 120V121H625.5V120H482.5ZM482.5 109V108H625.5V109H482.5ZM482.5 96V97L625.5 97V96L482.5 96ZM482.5 85V84L625.5 84V85L482.5 85ZM482.5 72V73L625.5 73V72L482.5 72ZM482.5 61V60L625.5 60V61L482.5 61ZM482.5 48V49L625.5 49V48L482.5 48ZM482.5 37V36H625.5V37H482.5ZM482.5 162V163H625.5V162H482.5ZM482.5 151V150H625.5V151H482.5ZM482.5 138V139H625.5V138H482.5ZM482.5 127V126H625.5V127H482.5ZM482.5 114V115H625.5V114H482.5ZM482.5 103V102L625.5 102V103L482.5 103ZM482.5 90V91L625.5 91V90L482.5 90ZM482.5 79V78L625.5 78V79L482.5 79ZM482.5 66V67L625.5 67V66L482.5 66ZM482.5 55V54L625.5 54V55L482.5 55ZM482.5 42V43L625.5 43V42L482.5 42Z"
    fill="#F7E5E5"
  />
  <path
    d="M499.5 139H536.5V126H499.5V139ZM499.5 66V79H608.5V66H499.5ZM499.5 109H572.5V96H499.5V109Z"
    stroke="#EB5757"
    stroke-width="2"
  />
</svg>
