<svg
  width="522"
  height="243"
  viewBox="0 0 522 243"
  fill="none"
  xmlns="http://www.w3.org/2000/svg"
>
  <rect width="251" height="243" fill="white" />
  <rect x="53.5" y="29.5" width="144" height="144" stroke="#FF6B82" />
  <path
    fill-rule="evenodd"
    clip-rule="evenodd"
    d="M59 30H60V173H59V30ZM71 30H72V173H71V30ZM84 30H83V173H84V30ZM95 30H96V173H95V30ZM108 30H107V173H108V30ZM119 30H120V173H119V30ZM132 30H131V173H132V30ZM143 30H144V173H143V30ZM156 30H155V173H156V30ZM167 30H168V173H167V30ZM180 30H179V173H180V30ZM191 30H192V173H191V30ZM66 30H65V173H66V30ZM77 30H78V173H77V30ZM90 30H89V173H90V30ZM101 30H102V173H101V30ZM114 30H113V173H114V30ZM125 30H126V173H125V30ZM138 30H137V173H138V30ZM149 30H150V173H149V30ZM162 30H161V173H162V30ZM173 30H174V173H173V30ZM186 30H185V173H186V30Z"
    fill="#F7E5E5"
  />
  <path
    fill-rule="evenodd"
    clip-rule="evenodd"
    d="M54 168V167H197V168H54ZM54 156V155H197V156H54ZM54 143V144H197V143H54ZM54 132V131H197V132H54ZM54 119V120H197V119H54ZM54 108V107H197V108H54ZM54 95V96L197 96V95L54 95ZM54 84V83L197 83V84L54 84ZM54 71V72L197 72V71L54 71ZM54 60V59L197 59V60L54 60ZM54 47V48L197 48V47L54 47ZM54 36V35H197V36H54ZM54 161V162H197V161H54ZM54 150V149H197V150H54ZM54 137V138H197V137H54ZM54 126V125H197V126H54ZM54 113V114H197V113H54ZM54 102V101L197 101V102L54 102ZM54 89V90L197 90V89L54 89ZM54 78V77L197 77V78L54 78ZM54 65V66L197 66V65L54 65ZM54 54V53L197 53V54L54 54ZM54 41V42L197 42V41L54 41Z"
    fill="#F7E5E5"
  />
  <rect x="71" y="59" width="109" height="13" fill="black" />
  <path d="M107 53H113V47H138V53H144V59H107V53Z" fill="black" />
  <path
    fill-rule="evenodd"
    clip-rule="evenodd"
    d="M83 72H168V144H162V150H156V156H95V150H89V144H83V72ZM132 84H143V131H132V84ZM119 84H108V131H119V84Z"
    fill="black"
  />
  <rect x="89" y="150" width="6" height="6" fill="black" fill-opacity="0.37" />
  <rect x="156" y="150" width="6" height="6" fill="black" fill-opacity="0.37" />
  <rect x="83" y="144" width="6" height="6" fill="black" fill-opacity="0.92" />
  <rect x="162" y="144" width="6" height="6" fill="black" fill-opacity="0.92" />
  <rect x="107" y="47" width="6" height="6" fill="black" fill-opacity="0.87" />
  <rect x="138" y="47" width="6" height="6" fill="black" fill-opacity="0.87" />
  <path
    d="M76.5 205C76.5 196.163 83.6634 189 92.5 189H155.5C164.337 189 171.5 196.163 171.5 205C171.5 213.837 164.337 221 155.5 221H92.5C83.6634 221 76.5 213.837 76.5 205Z"
    fill="#24C38E"
  />
  <path
    d="M101.038 211H99.0898L97.0801 207.404C97.0208 207.295 96.9548 207.14 96.8818 206.939H96.8545C96.8135 207.04 96.7451 207.195 96.6494 207.404L94.5781 211H92.6162L95.8291 206.071L92.876 201.197H94.8652L96.6357 204.506C96.7497 204.725 96.8522 204.943 96.9434 205.162H96.9639C97.096 204.875 97.21 204.647 97.3057 204.479L99.1445 201.197H100.977L97.9551 206.058L101.038 211ZM106.418 211.164C105.005 211.164 103.873 210.706 103.021 209.79C102.173 208.874 101.749 207.682 101.749 206.215C101.749 204.638 102.182 203.38 103.048 202.441C103.914 201.503 105.09 201.033 106.575 201.033C107.951 201.033 109.059 201.489 109.897 202.4C110.741 203.312 111.162 204.504 111.162 205.976C111.162 207.575 110.731 208.84 109.87 209.77C109.009 210.699 107.858 211.164 106.418 211.164ZM106.493 202.462C105.595 202.462 104.864 202.797 104.299 203.467C103.738 204.137 103.458 205.019 103.458 206.112C103.458 207.201 103.731 208.079 104.278 208.744C104.825 209.41 105.541 209.742 106.425 209.742C107.364 209.742 108.104 209.425 108.646 208.792C109.189 208.159 109.46 207.272 109.46 206.133C109.46 204.962 109.196 204.057 108.667 203.419C108.143 202.781 107.418 202.462 106.493 202.462ZM114.58 207.445V211H112.96V201.197H115.934C117.059 201.197 117.932 201.459 118.552 201.983C119.172 202.507 119.481 203.246 119.481 204.198C119.481 205.151 119.158 205.93 118.511 206.536C117.864 207.142 116.989 207.445 115.886 207.445H114.58ZM114.58 202.537V206.119H115.633C116.33 206.119 116.861 205.957 117.226 205.634C117.59 205.31 117.772 204.854 117.772 204.267C117.772 203.114 117.103 202.537 115.763 202.537H114.58ZM125.189 211.164C123.777 211.164 122.644 210.706 121.792 209.79C120.944 208.874 120.521 207.682 120.521 206.215C120.521 204.638 120.953 203.38 121.819 202.441C122.685 201.503 123.861 201.033 125.347 201.033C126.723 201.033 127.83 201.489 128.669 202.4C129.512 203.312 129.934 204.504 129.934 205.976C129.934 207.575 129.503 208.84 128.642 209.77C127.78 210.699 126.63 211.164 125.189 211.164ZM125.265 202.462C124.367 202.462 123.635 202.797 123.07 203.467C122.51 204.137 122.229 205.019 122.229 206.112C122.229 207.201 122.503 208.079 123.05 208.744C123.597 209.41 124.312 209.742 125.196 209.742C126.135 209.742 126.876 209.425 127.418 208.792C127.96 208.159 128.231 207.272 128.231 206.133C128.231 204.962 127.967 204.057 127.438 203.419C126.914 202.781 126.19 202.462 125.265 202.462ZM142.977 211H131.731V201.197H133.358V209.578H136.544V201.197H138.164V209.578H141.35V201.197H142.977V211ZM149.457 211.164C148.044 211.164 146.912 210.706 146.06 209.79C145.212 208.874 144.788 207.682 144.788 206.215C144.788 204.638 145.221 203.38 146.087 202.441C146.953 201.503 148.129 201.033 149.614 201.033C150.991 201.033 152.098 201.489 152.937 202.4C153.78 203.312 154.201 204.504 154.201 205.976C154.201 207.575 153.771 208.84 152.909 209.77C152.048 210.699 150.897 211.164 149.457 211.164ZM149.532 202.462C148.634 202.462 147.903 202.797 147.338 203.467C146.777 204.137 146.497 205.019 146.497 206.112C146.497 207.201 146.771 208.079 147.317 208.744C147.864 209.41 148.58 209.742 149.464 209.742C150.403 209.742 151.143 209.425 151.686 208.792C152.228 208.159 152.499 207.272 152.499 206.133C152.499 204.962 152.235 204.057 151.706 203.419C151.182 202.781 150.457 202.462 149.532 202.462Z"
    fill="#FAFAFA"
  />
  <rect width="251" height="243" transform="translate(271)" fill="white" />
  <rect x="324.5" y="29.5" width="144" height="144" stroke="#FF6B82" />
  <path
    fill-rule="evenodd"
    clip-rule="evenodd"
    d="M330 30H331V173H330V30ZM342 30H343V173H342V30ZM355 30H354V173H355V30ZM366 30H367V173H366V30ZM379 30H378V173H379V30ZM390 30H391V173H390V30ZM403 30H402V173H403V30ZM414 30H415V173H414V30ZM427 30H426V173H427V30ZM438 30H439V173H438V30ZM451 30H450V173H451V30ZM462 30H463V173H462V30ZM337 30H336V173H337V30ZM348 30H349V173H348V30ZM361 30H360V173H361V30ZM372 30H373V173H372V30ZM385 30H384V173H385V30ZM396 30H397V173H396V30ZM409 30H408V173H409V30ZM420 30H421V173H420V30ZM433 30H432V173H433V30ZM444 30H445V173H444V30ZM457 30H456V173H457V30Z"
    fill="#F7E5E5"
  />
  <path
    fill-rule="evenodd"
    clip-rule="evenodd"
    d="M325 168V167H468V168H325ZM325 156V155H468V156H325ZM325 143V144H468V143H325ZM325 132V131H468V132H325ZM325 119V120H468V119H325ZM325 108V107H468V108H325ZM325 95V96L468 96V95L325 95ZM325 84V83L468 83V84L325 84ZM325 71V72L468 72V71L325 71ZM325 60V59L468 59V60L325 60ZM325 47V48L468 48V47L325 47ZM325 36V35H468V36H325ZM325 161V162H468V161H325ZM325 150V149H468V150H325ZM325 137V138H468V137H325ZM325 126V125H468V126H325ZM325 113V114H468V113H325ZM325 102V101L468 101V102L325 102ZM325 89V90L468 90V89L325 89ZM325 78V77L468 77V78L325 78ZM325 65V66L468 66V65L325 65ZM325 54V53L468 53V54L325 54ZM325 41V42L468 42V41L325 41Z"
    fill="#F7E5E5"
  />
  <rect x="348" y="65" width="97" height="7" fill="black" />
  <path d="M378 53H384V47H409V53H415V59H378V53Z" fill="black" />
  <path
    fill-rule="evenodd"
    clip-rule="evenodd"
    d="M433 72H360V144V150H366V156H427V150H433V144V72ZM414 78H379V137H414V78Z"
    fill="black"
  />
  <rect x="360" y="150" width="6" height="6" fill="black" fill-opacity="0.86" />
  <rect x="427" y="150" width="6" height="6" fill="black" fill-opacity="0.72" />
  <rect x="354" y="144" width="6" height="6" fill="black" fill-opacity="0.66" />
  <rect x="379" y="78" width="11" height="6" fill="black" fill-opacity="0.84" />
  <rect x="390" y="78" width="13" height="6" fill="black" />
  <rect x="390" y="84" width="6" height="47" fill="black" fill-opacity="0.64" />
  <rect x="396" y="84" width="7" height="47" fill="black" fill-opacity="0.5" />
  <rect x="390" y="131" width="13" height="6" fill="black" />
  <rect
    x="379"
    y="131"
    width="11"
    height="6"
    fill="black"
    fill-opacity="0.74"
  />
  <rect
    x="403"
    y="131"
    width="11"
    height="6"
    fill="black"
    fill-opacity="0.74"
  />
  <rect x="403" y="78" width="11" height="6" fill="black" fill-opacity="0.84" />
  <rect x="354" y="150" width="6" height="6" fill="black" fill-opacity="0.13" />
  <rect x="433" y="144" width="6" height="6" fill="black" fill-opacity="0.62" />
  <rect x="433" y="72" width="6" height="72" fill="black" fill-opacity="0.73" />
  <rect x="433" y="150" width="6" height="6" fill="black" fill-opacity="0.12" />
  <rect x="378" y="47" width="6" height="6" fill="black" fill-opacity="0.87" />
  <rect x="409" y="47" width="6" height="6" fill="black" fill-opacity="0.87" />
  <rect x="439" y="72" width="12" height="6" fill="black" fill-opacity="0.13" />
  <rect x="445" y="65" width="6" height="7" fill="black" fill-opacity="0.73" />
  <rect x="445" y="59" width="6" height="6" fill="black" fill-opacity="0.6" />
  <rect x="348" y="59" width="97" height="6" fill="black" fill-opacity="0.86" />
  <rect x="342" y="59" width="6" height="6" fill="black" fill-opacity="0.7" />
  <rect x="342" y="65" width="6" height="7" fill="black" fill-opacity="0.76" />
  <rect x="342" y="72" width="6" height="6" fill="black" fill-opacity="0.06" />
  <rect x="348" y="72" width="6" height="6" fill="black" fill-opacity="0.14" />
  <rect x="354" y="72" width="6" height="6" fill="black" fill-opacity="0.76" />
  <rect x="354" y="78" width="6" height="66" fill="black" fill-opacity="0.72" />
  <path
    d="M357.5 205C357.5 196.163 364.663 189 373.5 189H423.5C432.337 189 439.5 196.163 439.5 205C439.5 213.837 432.337 221 423.5 221H373.5C364.663 221 357.5 213.837 357.5 205Z"
    fill="#FF4443"
  />
  <path
    d="M382.619 211H380.985V202.653H376.337V211H374.71V201.197H382.619V211ZM392.367 211H390.74V202.599H388.361C388.029 204.964 387.767 206.636 387.575 207.616C387.384 208.591 387.19 209.312 386.994 209.776C386.798 210.237 386.532 210.581 386.194 210.809C385.857 211.032 385.454 211.144 384.984 211.144C384.583 211.144 384.235 211.091 383.938 210.986V209.599C384.157 209.713 384.401 209.77 384.67 209.77C384.948 209.77 385.208 209.608 385.449 209.284C385.691 208.961 385.937 208.12 386.188 206.762C386.443 205.399 386.723 203.544 387.028 201.197H392.367V211ZM398.848 211.164C397.435 211.164 396.302 210.706 395.45 209.79C394.603 208.874 394.179 207.682 394.179 206.215C394.179 204.638 394.612 203.38 395.478 202.441C396.343 201.503 397.519 201.033 399.005 201.033C400.381 201.033 401.489 201.489 402.327 202.4C403.17 203.312 403.592 204.504 403.592 205.976C403.592 207.575 403.161 208.84 402.3 209.77C401.438 210.699 400.288 211.164 398.848 211.164ZM398.923 202.462C398.025 202.462 397.294 202.797 396.729 203.467C396.168 204.137 395.888 205.019 395.888 206.112C395.888 207.201 396.161 208.079 396.708 208.744C397.255 209.41 397.97 209.742 398.854 209.742C399.793 209.742 400.534 209.425 401.076 208.792C401.618 208.159 401.89 207.272 401.89 206.133C401.89 204.962 401.625 204.057 401.097 203.419C400.573 202.781 399.848 202.462 398.923 202.462ZM412.718 211H410.77L408.76 207.404C408.701 207.295 408.634 207.14 408.562 206.939H408.534C408.493 207.04 408.425 207.195 408.329 207.404L406.258 211H404.296L407.509 206.071L404.556 201.197H406.545L408.315 204.506C408.429 204.725 408.532 204.943 408.623 205.162H408.644C408.776 204.875 408.89 204.647 408.985 204.479L410.824 201.197H412.656L409.635 206.058L412.718 211ZM418.098 211.164C416.685 211.164 415.552 210.706 414.7 209.79C413.853 208.874 413.429 207.682 413.429 206.215C413.429 204.638 413.862 203.38 414.728 202.441C415.593 201.503 416.769 201.033 418.255 201.033C419.631 201.033 420.739 201.489 421.577 202.4C422.42 203.312 422.842 204.504 422.842 205.976C422.842 207.575 422.411 208.84 421.55 209.77C420.688 210.699 419.538 211.164 418.098 211.164ZM418.173 202.462C417.275 202.462 416.544 202.797 415.979 203.467C415.418 204.137 415.138 205.019 415.138 206.112C415.138 207.201 415.411 208.079 415.958 208.744C416.505 209.41 417.22 209.742 418.104 209.742C419.043 209.742 419.784 209.425 420.326 208.792C420.868 208.159 421.14 207.272 421.14 206.133C421.14 204.962 420.875 204.057 420.347 203.419C419.823 202.781 419.098 202.462 418.173 202.462Z"
    fill="#FAFAFA"
  />
</svg>
