<svg
  width="704"
  height="116"
  viewBox="0 0 704 116"
  fill="none"
  xmlns="http://www.w3.org/2000/svg"
>
  <path d="M89 23V24L79 24V23H89Z" fill="black" />
  <path d="M86 26V27L79 27V26L86 26Z" fill="black" />
  <path d="M83 30V29H79V30H83Z" fill="black" />
  <path d="M53 23V24L43 24V23H53Z" fill="black" />
  <path d="M50 29V30H43V29H50Z" fill="black" />
  <path d="M47 27V26H43V27H47Z" fill="black" />
  <path d="M7.5 21.5H11.5V25.5H7.5V21.5Z" fill="#EB6D00" />
  <path d="M7.5 26.5H11.5V30.5H7.5V26.5Z" fill="#EB6D00" />
  <path d="M12.5 21.5H16.5V25.5H12.5V21.5Z" fill="#EB6D00" />
  <path d="M12.5 26.5H16.5V30.5H12.5V26.5Z" fill="#EB6D00" />
  <path d="M78 47H90V49H78V47Z" fill="black" />
  <path d="M78 51H86V53H78V51Z" fill="black" />
  <path d="M82 55H78V57H82V55Z" fill="black" />
  <path d="M42 47H54V49H42V47Z" fill="black" />
  <path d="M42 55H50V57H42V55Z" fill="black" />
  <path d="M46 51H42V53H46V51Z" fill="black" />
  <path d="M11 45H5V51H11V45Z" fill="black" />
  <path d="M11 53H5V59H11V53Z" fill="black" />
  <path d="M13 45H19V51H13V45Z" fill="black" />
  <path d="M19 53H13V59H19V53Z" fill="black" />
  <path
    d="M75 90H81V88H75V90ZM75 78V80H93V78H75ZM75 85H87V83H75V85Z"
    fill="black"
  />
  <path
    d="M39 85H45V83H39V85ZM39 78V80H57V78H39ZM39 90H51V88H39V90Z"
    fill="black"
  />
  <path d="M3 75H11V83H3V75Z" fill="black" />
  <path d="M3 85H11V93H3V85Z" fill="black" />
  <path d="M13 75H21V83H13V75Z" fill="black" />
  <path d="M13 85H21V93H13V85Z" fill="black" />
  <path d="M197 23V24L187 24V23H197Z" fill="black" />
  <path d="M195 26V27L189 27V26L195 26Z" fill="black" />
  <path d="M194 30V29H190V30H194Z" fill="black" />
  <path d="M161 23V24L151 24V23H161Z" fill="black" />
  <path d="M159 29V30H153V29H159Z" fill="black" />
  <path d="M158 27V26H154V27H158Z" fill="black" />
  <path d="M186 47H198V49H186V47Z" fill="black" />
  <path d="M188 51H196V53H188V51Z" fill="black" />
  <path d="M194 55H190V57H194V55Z" fill="black" />
  <path d="M150 47H162V49H150V47Z" fill="black" />
  <path d="M152 55H160V57H152V55Z" fill="black" />
  <path d="M158 51H154V53H158V51Z" fill="black" />
  <path
    d="M190 90H194V88H190V90ZM183 78V80H201V78H183ZM186 85H198V83H186V85Z"
    fill="black"
  />
  <path
    d="M154 85H158V83H154V85ZM147 78V80H165V78H147ZM150 90H162V88H150V90Z"
    fill="black"
  />
  <path d="M119 23V24L115 24V23H119Z" fill="black" />
  <path d="M122 27V26L115 26V27L122 27Z" fill="black" />
  <path d="M125 30V29L115 29V30L125 30Z" fill="black" />
  <path d="M118 49H114V47H118V49Z" fill="black" />
  <path d="M114 51V53H122V51H114Z" fill="black" />
  <path d="M114 57H126V55H114V57Z" fill="black" />
  <path
    d="M111 80H117V78H111V80ZM111 88V90H129V88H111ZM111 85H123V83H111V85Z"
    fill="black"
  />
  <path d="M230 23V24L226 24V23H230Z" fill="black" />
  <path d="M231 27V26L225 26V27L231 27Z" fill="black" />
  <path d="M233 30V29L223 29V30L233 30Z" fill="black" />
  <path d="M262 21H263V24H262V23H259V22H262V21Z" fill="#EB6D00" />
  <path d="M259 27V26H265V25H266V28H265V27H259Z" fill="#EB6D00" />
  <path d="M262 30H269V31H262V30Z" fill="#EB6D00" />
  <path d="M269 26H267V27H269V26Z" fill="#EB6D00" />
  <path d="M259 30H260V29H261V32H260V31H259V30Z" fill="#EB6D00" />
  <path d="M264 22H269V23H264V22Z" fill="#EB6D00" />
  <path d="M230 49H226V47H230V49Z" fill="black" />
  <path d="M224 51V53H232V51H224Z" fill="black" />
  <path d="M222 57H234V55H222V57Z" fill="black" />
  <path
    d="M339.786 24.2143L341 23L339 21L337.786 22.2143L339.786 24.2143Z"
    fill="black"
  />
  <path
    d="M339.214 24.7857L337.214 22.7857L331 29V31H333L339.214 24.7857Z"
    fill="black"
  />
  <g clip-path="url(#clip0)">
    <path
      d="M369.434 24.9548L368.828 25.5603L372.364 29.5996L378.021 23.439L377.314 22.7319L372.364 28.1796L369.434 24.9548Z"
      fill="black"
    />
    <path
      d="M366.673 24.8874L366 25.5603L369.536 29.5996L370.249 28.8273L366.673 24.8874Z"
      fill="black"
    />
    <path
      d="M372.293 26.6137L375.617 23.0147L374.91 22.3076L371.488 25.7287L372.293 26.6137Z"
      fill="black"
    />
  </g>
  <path
    fill-rule="evenodd"
    clip-rule="evenodd"
    d="M409.453 28.1599C408.775 28.6865 407.924 29 407 29C404.791 29 403 27.2091 403 25C403 22.7909 404.791 21 407 21C409.209 21 411 22.7909 411 25C411 25.9244 410.686 26.7755 410.16 27.4528L413.004 30.2969L412.297 31.004L409.453 28.1599ZM410 25C410 26.6569 408.657 28 407 28C405.343 28 404 26.6569 404 25C404 23.3431 405.343 22 407 22C408.657 22 410 23.3431 410 25Z"
    fill="black"
  />
  <path
    d="M342 49L339 46L337.586 47.4142L340.586 50.4142L342 49Z"
    fill="black"
  />
  <path
    d="M339.879 51.1213L336.879 48.1213L330 55V58H333L339.879 51.1213Z"
    fill="black"
  />
  <path
    d="M365.414 50.4998L364 51.914L368.243 56.6598L369.647 55.1608L365.414 50.4998Z"
    fill="black"
  />
  <path
    d="M375.738 48.6613L372.389 52.2353L370.935 50.6354L374.324 47.2471L375.738 48.6613Z"
    fill="black"
  />
  <path
    d="M368.243 51.914L369.555 50.6021L372.485 53.8298L378.6 47.281L379.981 48.6613L372.485 56.6598L368.243 51.914Z"
    fill="black"
  />
  <path
    fill-rule="evenodd"
    clip-rule="evenodd"
    d="M409.618 55.0317C408.732 55.6424 407.658 56 406.5 56C403.462 56 401 53.5376 401 50.5C401 47.4624 403.462 45 406.5 45C409.538 45 412 47.4624 412 50.5C412 51.6575 411.642 52.7314 411.032 53.6174L415.001 57.5868L413.587 59.001L409.618 55.0317ZM410 50.5C410 52.433 408.433 54 406.5 54C404.567 54 403 52.433 403 50.5C403 48.567 404.567 47 406.5 47C408.433 47 410 48.567 410 50.5Z"
    fill="black"
  />
  <path
    d="M368.037 83.0949L366.657 84.4753L372.314 90.6304L382.92 79.5255L381.506 78.1113L372.314 87.8005L368.037 83.0949Z"
    fill="black"
  />
  <path
    d="M361 84.4753L362.414 83.0611L362.456 83.1025L368.067 89.1538L366.657 90.6304L361 84.4753Z"
    fill="black"
  />
  <path
    d="M372.215 84.8112L377.263 79.5255L375.849 78.1113L370.74 83.2203L372.215 84.8112Z"
    fill="black"
  />
  <path
    d="M327 89.2496V92.9996H330.75L341.81 81.9396L338.06 78.1896L327 89.2496ZM344.71 79.0396C345.1 78.6496 345.1 78.0196 344.71 77.6296L342.37 75.2896C341.98 74.8996 341.35 74.8996 340.96 75.2896L339.13 77.1196L342.88 80.8696L344.71 79.0396Z"
    fill="black"
  />
  <path
    fill-rule="evenodd"
    clip-rule="evenodd"
    d="M410.049 87.4633C408.787 88.4274 407.211 89 405.5 89C401.358 89 398 85.6421 398 81.5C398 77.3579 401.358 74 405.5 74C409.642 74 413 77.3579 413 81.5C413 83.2105 412.427 84.7873 411.463 86.0491L418.006 92.5913L416.591 94.0055L410.049 87.4633ZM411 81.5C411 84.5376 408.538 87 405.5 87C402.462 87 400 84.5376 400 81.5C400 78.4624 402.462 76 405.5 76C408.538 76 411 78.4624 411 81.5Z"
    fill="black"
  />
  <path
    d="M440.657 22.2822C441.092 21.8907 441.596 21.576 442.147 21.356C443.19 20.9398 444.343 20.8869 445.42 21.2059C446.497 21.5249 447.435 22.1971 448.083 23.1143C448.731 24.0314 449.052 25.1401 448.993 26.2617C448.934 27.3832 448.5 28.4523 447.759 29.2967C447.019 30.1411 446.016 30.7116 444.911 30.9163C443.807 31.1209 442.666 30.9479 441.672 30.4249C440.678 29.902 439.889 29.0597 439.432 28.0337L440.345 27.6274C440.968 29.0255 442.37 30 444 30C446.209 30 448 28.2091 448 26C448 23.7909 446.209 22 444 22C442.958 22 442.008 22.3987 441.296 23.052L442.5 24.5L438.5 25L439.591 21L440.657 22.2822Z"
    fill="black"
  />
  <path
    d="M439.853 46.3606L438.5 44.5L437 50H442.5L441.029 47.9778C441.86 47.3633 442.888 47 444 47C446.761 47 449 49.2386 449 52C449 54.7614 446.761 57 444 57C441.963 57 440.21 55.7818 439.431 54.0342L437.605 54.8472C438.245 56.2836 439.349 57.4628 440.741 58.1949C442.132 58.927 443.73 59.1693 445.276 58.8828C446.822 58.5963 448.226 57.7976 449.263 56.6154C450.3 55.4333 450.908 53.9365 450.99 52.3664C451.073 50.7962 450.624 49.244 449.717 47.96C448.809 46.676 447.496 45.7348 445.988 45.2883C444.481 44.8417 442.867 44.9157 441.406 45.4983C440.85 45.7201 440.329 46.0106 439.853 46.3606Z"
    fill="black"
  />
  <path
    d="M437.11 76.7528L434.75 74L433.75 81H440.75L438.413 78.2739C439.855 76.8669 441.826 76 444 76C448.418 76 452 79.5817 452 84C452 88.4183 448.418 92 444 92C440.741 92 437.937 90.0509 436.69 87.2547L434.865 88.0674C435.778 90.1194 437.356 91.804 439.344 92.8499C441.332 93.8957 443.614 94.2419 445.822 93.8326C448.031 93.4232 450.037 92.2822 451.518 90.5935C452.999 88.9047 453.869 86.7665 453.986 84.5234C454.104 82.2803 453.463 80.0629 452.166 78.2286C450.87 76.3942 448.994 75.0498 446.84 74.4118C444.686 73.7739 442.381 73.8796 440.294 74.7119C439.104 75.1866 438.025 75.882 437.11 76.7528Z"
    fill="black"
  />
  <path
    d="M514.59 81.17L509.41 76L508 77.41L513.17 82.58L514.59 81.17ZM518.5 76L520.54 78.04L508 90.59L509.41 92L521.96 79.46L524 81.5V76H518.5ZM518.83 85.41L517.42 86.82L520.55 89.95L518.5 92H524V86.5L521.96 88.54L518.83 85.41Z"
    fill="#EB6D00"
  />
  <path
    d="M696.953 52.653C696.98 52.4397 697 52.2263 697 51.9997C697 51.773 696.98 51.5597 696.953 51.3463L698.36 50.2463C698.487 50.1463 698.52 49.9663 698.44 49.8197L697.107 47.513C697.027 47.3663 696.847 47.313 696.7 47.3663L695.04 48.033C694.693 47.7663 694.32 47.5463 693.913 47.3797L693.66 45.613C693.64 45.453 693.5 45.333 693.333 45.333H690.667C690.5 45.333 690.36 45.453 690.34 45.613L690.087 47.3797C689.68 47.5463 689.307 47.773 688.96 48.033L687.3 47.3663C687.147 47.3063 686.973 47.3663 686.893 47.513L685.56 49.8197C685.473 49.9663 685.513 50.1463 685.64 50.2463L687.047 51.3463C687.02 51.5597 687 51.7797 687 51.9997C687 52.2197 687.02 52.4397 687.047 52.653L685.64 53.753C685.513 53.853 685.48 54.033 685.56 54.1797L686.893 56.4863C686.973 56.633 687.153 56.6863 687.3 56.633L688.96 55.9663C689.307 56.233 689.68 56.453 690.087 56.6197L690.34 58.3863C690.36 58.5463 690.5 58.6663 690.667 58.6663H693.333C693.5 58.6663 693.64 58.5463 693.66 58.3863L693.913 56.6197C694.32 56.453 694.693 56.2263 695.04 55.9663L696.7 56.633C696.853 56.693 697.027 56.633 697.107 56.4863L698.44 54.1797C698.52 54.033 698.487 53.853 698.36 53.753L696.953 52.653ZM692 54.333C690.713 54.333 689.667 53.2863 689.667 51.9997C689.667 50.713 690.713 49.6663 692 49.6663C693.287 49.6663 694.333 50.713 694.333 51.9997C694.333 53.2863 693.287 54.333 692 54.333Z"
    fill="black"
  />
  <path
    d="M696.461 26.588C696.485 26.396 696.503 26.204 696.503 26C696.503 25.796 696.485 25.604 696.461 25.412L697.727 24.422C697.841 24.332 697.871 24.17 697.799 24.038L696.599 21.962C696.527 21.83 696.365 21.782 696.233 21.83L694.739 22.43C694.427 22.19 694.091 21.992 693.725 21.842L693.497 20.252C693.479 20.108 693.353 20 693.203 20H690.803C690.653 20 690.527 20.108 690.509 20.252L690.281 21.842C689.915 21.992 689.579 22.196 689.267 22.43L687.773 21.83C687.635 21.776 687.479 21.83 687.407 21.962L686.207 24.038C686.129 24.17 686.165 24.332 686.279 24.422L687.545 25.412C687.521 25.604 687.503 25.802 687.503 26C687.503 26.198 687.521 26.396 687.545 26.588L686.279 27.578C686.165 27.668 686.135 27.83 686.207 27.962L687.407 30.038C687.479 30.17 687.641 30.218 687.773 30.17L689.267 29.57C689.579 29.81 689.915 30.008 690.281 30.158L690.509 31.748C690.527 31.892 690.653 32 690.803 32H693.203C693.353 32 693.479 31.892 693.497 31.748L693.725 30.158C694.091 30.008 694.427 29.804 694.739 29.57L696.233 30.17C696.371 30.224 696.527 30.17 696.599 30.038L697.799 27.962C697.871 27.83 697.841 27.668 697.727 27.578L696.461 26.588ZM692.003 28.1C690.845 28.1 689.903 27.158 689.903 26C689.903 24.842 690.845 23.9 692.003 23.9C693.161 23.9 694.103 24.842 694.103 26C694.103 27.158 693.161 28.1 692.003 28.1Z"
    fill="black"
  />
  <path
    fill-rule="evenodd"
    clip-rule="evenodd"
    d="M546.181 88.2554L539.287 82.4702L538 84.0036L546.426 91.0743L557.997 77.2855L556.465 76L546.181 88.2554Z"
    fill="black"
  />
  <path
    d="M584 85.4142L591.778 93.1924L593.192 91.7782L585.414 84L593.192 76.2218L591.778 74.8076L584 82.5858L576.222 74.8076L574.808 76.2218L582.586 84L574.808 91.7782L576.222 93.1924L584 85.4142Z"
    fill="#EB3333"
  />
  <path
    d="M620 74C614.48 74 610 78.48 610 84C610 89.52 614.48 94 620 94C625.52 94 630 89.52 630 84C630 78.48 625.52 74 620 74ZM612 84C612 79.58 615.58 76 620 76C621.85 76 623.55 76.63 624.9 77.69L613.69 88.9C612.63 87.55 612 85.85 612 84ZM620 92C618.15 92 616.45 91.37 615.1 90.31L626.31 79.1C627.37 80.45 628 82.15 628 84C628 88.42 624.42 92 620 92Z"
    fill="#EB3333"
  />
  <path
    fill-rule="evenodd"
    clip-rule="evenodd"
    d="M649 91C649 92.1 649.9 93 651 93H661C662.1 93 663 92.1 663 91V78H665V76H659V75C659 74.4477 658.552 74 658 74H654C653.448 74 653 74.4477 653 75V76H647V78H649V91ZM655 80V89H653V80H655ZM659 89V80H657V89H659Z"
    fill="#EB3333"
  />
  <path
    d="M699.43 84.98C699.47 84.66 699.5 84.34 699.5 84C699.5 83.66 699.47 83.34 699.43 83.02L701.54 81.37C701.73 81.22 701.78 80.95 701.66 80.73L699.66 77.27C699.54 77.05 699.27 76.97 699.05 77.05L696.56 78.05C696.04 77.65 695.48 77.32 694.87 77.07L694.49 74.42C694.46 74.18 694.25 74 694 74H690C689.75 74 689.54 74.18 689.51 74.42L689.13 77.07C688.52 77.32 687.96 77.66 687.44 78.05L684.95 77.05C684.72 76.96 684.46 77.05 684.34 77.27L682.34 80.73C682.21 80.95 682.27 81.22 682.46 81.37L684.57 83.02C684.53 83.34 684.5 83.67 684.5 84C684.5 84.33 684.53 84.66 684.57 84.98L682.46 86.63C682.27 86.78 682.22 87.05 682.34 87.27L684.34 90.73C684.46 90.95 684.73 91.03 684.95 90.95L687.44 89.95C687.96 90.35 688.52 90.68 689.13 90.93L689.51 93.58C689.54 93.82 689.75 94 690 94H694C694.25 94 694.46 93.82 694.49 93.58L694.87 90.93C695.48 90.68 696.04 90.34 696.56 89.95L699.05 90.95C699.28 91.04 699.54 90.95 699.66 90.73L701.66 87.27C701.78 87.05 701.73 86.78 701.54 86.63L699.43 84.98ZM692 87.5C690.07 87.5 688.5 85.93 688.5 84C688.5 82.07 690.07 80.5 692 80.5C693.93 80.5 695.5 82.07 695.5 84C695.5 85.93 693.93 87.5 692 87.5Z"
    fill="black"
  />
  <path
    d="M580.164 29.1557L580.85 29.8496L584 26.6996L587.149 29.849L587.15 29.8498L587.85 29.1499L584.7 25.9997L587.85 22.8497L587.143 22.1426L584.001 25.3004L580.851 22.1504L580.15 22.8496L583.302 26.002L580.164 29.1557Z"
    fill="#EB3333"
  />
  <path
    fill-rule="evenodd"
    clip-rule="evenodd"
    d="M546.606 28.7934L543.461 25.93L542.787 26.6694L546.703 30.2339L552.822 22.9406L552.056 22.2979L546.606 28.7934Z"
    fill="black"
  />
  <path
    fill-rule="evenodd"
    clip-rule="evenodd"
    d="M546.799 54.4169L543.124 51.0789L541.779 52.5593L546.994 57.2959L554.733 48.0727L553.201 46.7871L546.799 54.4169Z"
    fill="black"
  />
  <path
    fill-rule="evenodd"
    clip-rule="evenodd"
    d="M579.757 46.3428L578.343 47.757L582.586 51.9996L578.343 56.2423L579.757 57.6565L584 53.4138L588.243 57.6565L589.657 56.2423L585.414 51.9996L589.657 47.757L588.243 46.3428L584 50.5854L579.757 46.3428Z"
    fill="#EB3333"
  />
  <path
    fill-rule="evenodd"
    clip-rule="evenodd"
    d="M627 52C627 55.866 623.866 59 620 59C616.134 59 613 55.866 613 52C613 48.134 616.134 45 620 45C623.866 45 627 48.134 627 52ZM625 52C625 54.7614 622.761 57 620 57C618.981 57 618.033 56.6951 617.243 56.1716L624.172 49.2426C624.695 50.033 625 50.9809 625 52ZM615.828 54.7574L622.757 47.8284C621.967 47.3049 621.019 47 620 47C617.239 47 615 49.2386 615 52C615 53.0191 615.305 53.967 615.828 54.7574Z"
    fill="#EB3333"
  />
  <path
    fill-rule="evenodd"
    clip-rule="evenodd"
    d="M655 45C654.448 45 654 45.4477 654 46V47H650V48H651V57C651 58.1046 651.895 59 653 59H659C660.105 59 661 58.1046 661 57V48H662V47H658V46C658 45.4477 657.552 45 657 45H655ZM654 50H655V56H654V50ZM658 50H657V56H658V50Z"
    fill="#EB3333"
  />
  <path
    fill-rule="evenodd"
    clip-rule="evenodd"
    d="M625 26C625 28.7614 622.761 31 620 31C617.239 31 615 28.7614 615 26C615 23.2386 617.239 21 620 21C622.761 21 625 23.2386 625 26ZM623.571 26C623.571 27.9724 621.972 29.5714 620 29.5714C619.272 29.5714 618.595 29.3537 618.03 28.9797L622.98 24.0304C623.354 24.595 623.571 25.2721 623.571 26ZM617.02 27.9696L621.97 23.0203C621.405 22.6463 620.728 22.4286 620 22.4286C618.028 22.4286 616.429 24.0276 616.429 26C616.429 26.7279 616.646 27.405 617.02 27.9696Z"
    fill="#EB3333"
  />
  <path
    fill-rule="evenodd"
    clip-rule="evenodd"
    d="M654 22C654 21.4477 654.448 21 655 21H657C657.552 21 658 21.4477 658 22H661V23H660V30C660 30.5523 659.552 31 659 31H653C652.448 31 652 30.5523 652 30V23H651V22H654ZM655 24H654V29H655V24ZM658 24H657V29H658V24Z"
    fill="#EB3333"
  />
  <path
    d="M515.29 49.87L511.41 46L510 47.41L513.87 51.28L515.29 49.87ZM517.5 46L519.04 47.54L510 56.59L511.41 58L520.46 48.96L522 50.5V46H517.5ZM518.13 52.71L516.72 54.12L519.05 56.45L517.5 58H522V53.5L520.46 55.04L518.13 52.71Z"
    fill="black"
  />
  <path
    d="M517.5 21L521 21V24.5L519.604 23.1036L511.707 31.0001L511 30.293L518.897 22.3965L517.5 21Z"
    fill="black"
  />
  <path
    d="M511.707 21L515.293 24.5859L514.586 25.293L511 21.7071L511.707 21Z"
    fill="black"
  />
  <path
    d="M519.604 28.8965L517.414 26.707L516.707 27.4141L518.896 29.6036L517.5 31H521V27.5L519.604 28.8965Z"
    fill="black"
  />
  <path
    d="M470.75 74L473.11 76.7528C474.025 75.882 475.105 75.1866 476.294 74.7119C478.381 73.8796 480.686 73.7739 482.84 74.4118C484.994 75.0498 486.87 76.3942 488.166 78.2286C489.362 79.92 490 81.9373 490 84H488C488 79.5817 484.418 76 480 76C477.826 76 475.855 76.8669 474.413 78.2739L476.75 81H469.75L470.75 74Z"
    fill="black"
  />
  <path
    d="M489 94L486.64 91.2472C485.725 92.118 484.646 92.8134 483.456 93.2881C481.369 94.1204 479.064 94.2261 476.91 93.5882C474.756 92.9502 472.88 91.6058 471.584 89.7714C470.388 88.08 469.75 86.0627 469.75 84H471.75C471.75 88.4183 475.332 92 479.75 92C481.924 92 483.895 91.1331 485.337 89.7261L483 87H490L489 94Z"
    fill="black"
  />
  <path
    d="M475.853 46.3606L474.5 44.5L473 50H478.5L477.029 47.9778C477.86 47.3633 478.888 47 480 47C482.419 47 484.437 48.7178 484.9 51H486.928C486.771 49.9115 486.359 48.8686 485.717 47.96C484.809 46.676 483.496 45.7348 481.988 45.2883C480.481 44.8417 478.867 44.9157 477.406 45.4983C476.85 45.7201 476.329 46.0106 475.853 46.3606Z"
    fill="black"
  />
  <path
    d="M474.283 56.04C473.641 55.1314 473.229 54.0885 473.072 53H475.1C475.563 55.2822 477.581 57 480 57C481.112 57 482.14 56.6367 482.971 56.0222L481.5 54H487L485.5 59.5L484.147 57.6394C483.671 57.9894 483.15 58.2799 482.594 58.5017C481.133 59.0843 479.519 59.1583 478.012 58.7117C476.504 58.2652 475.191 57.3241 474.283 56.04Z"
    fill="black"
  />
  <path
    d="M475.5 21L476.68 22.3764C477.138 21.941 477.677 21.5933 478.272 21.356C479.315 20.9398 480.468 20.8869 481.545 21.2059C482.622 21.5249 483.56 22.1971 484.208 23.1143C484.61 23.6833 484.886 24.3261 485.024 25H484V25.0039C483.557 23.2767 481.99 22 480.125 22C479.038 22 478.053 22.4335 477.332 23.1369L478.5 24.5H475L475.5 21Z"
    fill="black"
  />
  <path
    d="M475.917 28.8857C475.515 28.3167 475.239 27.6739 475.102 27H476.127C476.571 28.7252 478.137 30 480.001 30C481.087 30 482.073 29.5665 482.794 28.8631L481.626 27.5H485.126L484.626 31L483.446 29.6236C482.988 30.059 482.448 30.4067 481.853 30.644C480.81 31.0602 479.657 31.1131 478.58 30.7941C477.504 30.4751 476.566 29.8029 475.917 28.8857Z"
    fill="black"
  />
  <path d="M262 45H261V46H257V48H261V49H262V45Z" fill="#EB6D00" />
  <path d="M263 46H271V48H263V46Z" fill="#EB6D00" />
  <path d="M257 51H266V50H267V54H266V53H257V51Z" fill="#EB6D00" />
  <path d="M262 56H271V58H262V56Z" fill="#EB6D00" />
  <path d="M260 56H257V58H260V59H261V55H260V56Z" fill="#EB6D00" />
  <path d="M271 51H268V53H271V51Z" fill="#EB6D00" />
  <path d="M267 75H265V77H254V79H265V80H267V75Z" fill="#EB6D00" />
  <path d="M269 77H274V79H269V77Z" fill="#EB6D00" />
  <path d="M258 86V85H254V83H258V81H260V86H258Z" fill="#EB6D00" />
  <path d="M272 89H254V91H272V92H274V87H272V89Z" fill="#EB6D00" />
  <path d="M274 83H262V85H274V83Z" fill="#EB6D00" />
  <path
    d="M305 22H295V22.5858C295 22.851 295.105 23.1054 295.293 23.2929L298.707 26.7071C298.895 26.8946 299 27.149 299 27.4142V31L301 30V27.4142C301 27.149 301.105 26.8946 301.293 26.7071L304.707 23.2929C304.895 23.1054 305 22.851 305 22.5858V22Z"
    fill="#EB6D00"
  />
  <path
    d="M306 46H294V47.2759C294 47.7438 294.164 48.1968 294.464 48.5563L298.536 53.4437C298.836 53.8032 299 54.2562 299 54.7241V59L301 58V54.7241C301 54.2562 301.164 53.8032 301.464 53.4437L305.536 48.5563C305.836 48.1968 306 47.7438 306 47.2759V46Z"
    fill="#EB6D00"
  />
  <path
    d="M310 74H290V76.2396C290 76.7294 290.18 77.2022 290.505 77.5683L297.495 85.4317C297.82 85.7978 298 86.2706 298 86.7604V95L302 93V86.7604C302 86.2706 302.18 85.7978 302.505 85.4317L309.495 77.5683C309.82 77.2022 310 76.7294 310 76.2396V74Z"
    fill="#EB6D00"
  />
  <path
    d="M230 78H226V80H230V78ZM237 90V88H219V90H237ZM234 83H222V85H234V83Z"
    fill="black"
  />
  <defs>
    <clipPath id="clip0">
      <rect width="12" height="12" fill="white" transform="translate(366 20)" />
    </clipPath>
  </defs>
</svg>
