<svg
  width="516"
  height="265"
  viewBox="0 0 516 265"
  fill="none"
  xmlns="http://www.w3.org/2000/svg"
>
  <rect width="250" height="265" fill="white" />
  <rect x="53.5" y="42.5" width="144" height="144" stroke="#FF6B82" />
  <path
    fill-rule="evenodd"
    clip-rule="evenodd"
    d="M59 43H60V186H59V43ZM71 43H72V186H71V43ZM84 43H83V186H84V43ZM95 43H96V186H95V43ZM108 43H107V186H108V43ZM119 43H120V186H119V43ZM132 43H131V186H132V43ZM143 43H144V186H143V43ZM156 43H155V186H156V43ZM167 43H168V186H167V43ZM180 43H179V186H180V43ZM191 43H192V186H191V43ZM66 43H65V186H66V43ZM77 43H78V186H77V43ZM90 43H89V186H90V43ZM101 43H102V186H101V43ZM114 43H113V186H114V43ZM125 43H126V186H125V43ZM138 43H137V186H138V43ZM149 43H150V186H149V43ZM162 43H161V186H162V43ZM173 43H174V186H173V43ZM186 43H185V186H186V43Z"
    fill="#F7E5E5"
  />
  <path
    fill-rule="evenodd"
    clip-rule="evenodd"
    d="M54 181V180H197V181H54ZM54 169V168H197V169H54ZM54 156V157H197V156H54ZM54 145V144H197V145H54ZM54 132V133H197V132H54ZM54 121V120H197V121H54ZM54 108V109L197 109V108L54 108ZM54 97V96L197 96V97L54 97ZM54 84V85L197 85V84L54 84ZM54 73V72L197 72V73L54 73ZM54 60V61L197 61V60L54 60ZM54 49V48H197V49H54ZM54 174V175H197V174H54ZM54 163V162H197V163H54ZM54 150V151H197V150H54ZM54 139V138H197V139H54ZM54 126V127H197V126H54ZM54 115V114L197 114V115L54 115ZM54 102V103L197 103V102L54 102ZM54 91V90L197 90V91L54 91ZM54 78V79L197 79V78L54 78ZM54 67V66L197 66V67L54 67ZM54 54V55L197 55V54L54 54Z"
    fill="#F7E5E5"
  />
  <path
    d="M125.5 121C142.069 121 152.5 103.622 152.5 88C152.5 72.3782 150.5 55 125.5 55C100.5 55 98.5 72.3782 98.5 88C98.5 103.622 108.931 121 125.5 121Z"
    fill="#002033"
  />
  <path
    d="M119.5 133C86.5 133 71.5 145.319 71.5 181L179.5 181C179.5 141 158.5 133 131.5 133H119.5Z"
    fill="#002033"
  />
  <path
    d="M76.5 219C76.5 210.163 83.6634 203 92.5 203H155.5C164.337 203 171.5 210.163 171.5 219C171.5 227.837 164.337 235 155.5 235H92.5C83.6634 235 76.5 227.837 76.5 219Z"
    fill="#24C38E"
  />
  <path
    d="M101.038 225H99.0898L97.0801 221.404C97.0208 221.295 96.9548 221.14 96.8818 220.939H96.8545C96.8135 221.04 96.7451 221.195 96.6494 221.404L94.5781 225H92.6162L95.8291 220.071L92.876 215.197H94.8652L96.6357 218.506C96.7497 218.725 96.8522 218.943 96.9434 219.162H96.9639C97.096 218.875 97.21 218.647 97.3057 218.479L99.1445 215.197H100.977L97.9551 220.058L101.038 225ZM106.418 225.164C105.005 225.164 103.873 224.706 103.021 223.79C102.173 222.874 101.749 221.682 101.749 220.215C101.749 218.638 102.182 217.38 103.048 216.441C103.914 215.503 105.09 215.033 106.575 215.033C107.951 215.033 109.059 215.489 109.897 216.4C110.741 217.312 111.162 218.504 111.162 219.976C111.162 221.575 110.731 222.84 109.87 223.77C109.009 224.699 107.858 225.164 106.418 225.164ZM106.493 216.462C105.595 216.462 104.864 216.797 104.299 217.467C103.738 218.137 103.458 219.019 103.458 220.112C103.458 221.201 103.731 222.079 104.278 222.744C104.825 223.41 105.541 223.742 106.425 223.742C107.364 223.742 108.104 223.425 108.646 222.792C109.189 222.159 109.46 221.272 109.46 220.133C109.46 218.962 109.196 218.057 108.667 217.419C108.143 216.781 107.418 216.462 106.493 216.462ZM114.58 221.445V225H112.96V215.197H115.934C117.059 215.197 117.932 215.459 118.552 215.983C119.172 216.507 119.481 217.246 119.481 218.198C119.481 219.151 119.158 219.93 118.511 220.536C117.864 221.142 116.989 221.445 115.886 221.445H114.58ZM114.58 216.537V220.119H115.633C116.33 220.119 116.861 219.957 117.226 219.634C117.59 219.31 117.772 218.854 117.772 218.267C117.772 217.114 117.103 216.537 115.763 216.537H114.58ZM125.189 225.164C123.777 225.164 122.644 224.706 121.792 223.79C120.944 222.874 120.521 221.682 120.521 220.215C120.521 218.638 120.953 217.38 121.819 216.441C122.685 215.503 123.861 215.033 125.347 215.033C126.723 215.033 127.83 215.489 128.669 216.4C129.512 217.312 129.934 218.504 129.934 219.976C129.934 221.575 129.503 222.84 128.642 223.77C127.78 224.699 126.63 225.164 125.189 225.164ZM125.265 216.462C124.367 216.462 123.635 216.797 123.07 217.467C122.51 218.137 122.229 219.019 122.229 220.112C122.229 221.201 122.503 222.079 123.05 222.744C123.597 223.41 124.312 223.742 125.196 223.742C126.135 223.742 126.876 223.425 127.418 222.792C127.96 222.159 128.231 221.272 128.231 220.133C128.231 218.962 127.967 218.057 127.438 217.419C126.914 216.781 126.19 216.462 125.265 216.462ZM142.977 225H131.731V215.197H133.358V223.578H136.544V215.197H138.164V223.578H141.35V215.197H142.977V225ZM149.457 225.164C148.044 225.164 146.912 224.706 146.06 223.79C145.212 222.874 144.788 221.682 144.788 220.215C144.788 218.638 145.221 217.38 146.087 216.441C146.953 215.503 148.129 215.033 149.614 215.033C150.991 215.033 152.098 215.489 152.937 216.4C153.78 217.312 154.201 218.504 154.201 219.976C154.201 221.575 153.771 222.84 152.909 223.77C152.048 224.699 150.897 225.164 149.457 225.164ZM149.532 216.462C148.634 216.462 147.903 216.797 147.338 217.467C146.777 218.137 146.497 219.019 146.497 220.112C146.497 221.201 146.771 222.079 147.317 222.744C147.864 223.41 148.58 223.742 149.464 223.742C150.403 223.742 151.143 223.425 151.686 222.792C152.228 222.159 152.499 221.272 152.499 220.133C152.499 218.962 152.235 218.057 151.706 217.419C151.182 216.781 150.457 216.462 149.532 216.462Z"
    fill="#FAFAFA"
  />
  <rect width="251" height="265" transform="translate(265)" fill="white" />
  <rect x="318.5" y="42.5" width="144" height="144" stroke="#FF6B82" />
  <path
    fill-rule="evenodd"
    clip-rule="evenodd"
    d="M324 43H325V186H324V43ZM336 43H337V186H336V43ZM349 43H348V186H349V43ZM360 43H361V186H360V43ZM373 43H372V186H373V43ZM384 43H385V186H384V43ZM397 43H396V186H397V43ZM408 43H409V186H408V43ZM421 43H420V186H421V43ZM432 43H433V186H432V43ZM445 43H444V186H445V43ZM456 43H457V186H456V43ZM331 43H330V186H331V43ZM342 43H343V186H342V43ZM355 43H354V186H355V43ZM366 43H367V186H366V43ZM379 43H378V186H379V43ZM390 43H391V186H390V43ZM403 43H402V186H403V43ZM414 43H415V186H414V43ZM427 43H426V186H427V43ZM438 43H439V186H438V43ZM451 43H450V186H451V43Z"
    fill="#F7E5E5"
  />
  <path
    fill-rule="evenodd"
    clip-rule="evenodd"
    d="M319 181V180H462V181H319ZM319 169V168H462V169H319ZM319 156V157H462V156H319ZM319 145V144H462V145H319ZM319 132V133H462V132H319ZM319 121V120H462V121H319ZM319 108V109L462 109V108L319 108ZM319 97V96L462 96V97L319 97ZM319 84V85L462 85V84L319 84ZM319 73V72L462 72V73L319 73ZM319 60V61L462 61V60L319 60ZM319 49V48H462V49H319ZM319 174V175H462V174H319ZM319 163V162H462V163H319ZM319 150V151H462V150H319ZM319 139V138H462V139H319ZM319 126V127H462V126H319ZM319 115V114L462 114V115L319 115ZM319 102V103L462 103V102L319 102ZM319 91V90L462 90V91L319 91ZM319 78V79L462 79V78L319 78ZM319 67V66L462 66V67L319 67ZM319 54V55L462 55V54L319 54Z"
    fill="#F7E5E5"
  />
  <path
    d="M410.338 139.074C409.869 133.913 410.049 130.312 410.049 125.597C412.392 124.37 416.592 116.553 417.301 109.949C419.144 109.798 422.05 108.006 422.9 100.928C423.359 97.1278 421.536 94.9893 420.425 94.3171C423.424 85.3247 429.652 57.5058 408.906 54.631C406.771 50.8919 401.303 49 394.198 49C365.772 49.5218 362.343 70.4036 368.575 94.3171C367.467 94.9893 365.644 97.1278 366.1 100.928C366.954 108.006 369.856 109.798 371.699 109.949C372.405 116.55 376.771 124.37 379.122 125.597C379.122 130.312 379.298 133.913 378.829 139.074C373.205 154.152 335.253 149.92 333.5 179H455.5C453.75 149.92 415.962 154.152 410.338 139.074Z"
    fill="#002033"
  />
  <path
    d="M351.5 219C351.5 210.163 358.663 203 367.5 203H417.5C426.337 203 433.5 210.163 433.5 219C433.5 227.837 426.337 235 417.5 235H367.5C358.663 235 351.5 227.837 351.5 219Z"
    fill="#FF4443"
  />
  <path
    d="M376.619 225H374.985V216.653H370.337V225H368.71V215.197H376.619V225ZM386.367 225H384.74V216.599H382.361C382.029 218.964 381.767 220.636 381.575 221.616C381.384 222.591 381.19 223.312 380.994 223.776C380.798 224.237 380.532 224.581 380.194 224.809C379.857 225.032 379.454 225.144 378.984 225.144C378.583 225.144 378.235 225.091 377.938 224.986V223.599C378.157 223.713 378.401 223.77 378.67 223.77C378.948 223.77 379.208 223.608 379.449 223.284C379.691 222.961 379.937 222.12 380.188 220.762C380.443 219.399 380.723 217.544 381.028 215.197H386.367V225ZM392.848 225.164C391.435 225.164 390.302 224.706 389.45 223.79C388.603 222.874 388.179 221.682 388.179 220.215C388.179 218.638 388.612 217.38 389.478 216.441C390.343 215.503 391.519 215.033 393.005 215.033C394.381 215.033 395.489 215.489 396.327 216.4C397.17 217.312 397.592 218.504 397.592 219.976C397.592 221.575 397.161 222.84 396.3 223.77C395.438 224.699 394.288 225.164 392.848 225.164ZM392.923 216.462C392.025 216.462 391.294 216.797 390.729 217.467C390.168 218.137 389.888 219.019 389.888 220.112C389.888 221.201 390.161 222.079 390.708 222.744C391.255 223.41 391.97 223.742 392.854 223.742C393.793 223.742 394.534 223.425 395.076 222.792C395.618 222.159 395.89 221.272 395.89 220.133C395.89 218.962 395.625 218.057 395.097 217.419C394.573 216.781 393.848 216.462 392.923 216.462ZM406.718 225H404.77L402.76 221.404C402.701 221.295 402.634 221.14 402.562 220.939H402.534C402.493 221.04 402.425 221.195 402.329 221.404L400.258 225H398.296L401.509 220.071L398.556 215.197H400.545L402.315 218.506C402.429 218.725 402.532 218.943 402.623 219.162H402.644C402.776 218.875 402.89 218.647 402.985 218.479L404.824 215.197H406.656L403.635 220.058L406.718 225ZM412.098 225.164C410.685 225.164 409.552 224.706 408.7 223.79C407.853 222.874 407.429 221.682 407.429 220.215C407.429 218.638 407.862 217.38 408.728 216.441C409.593 215.503 410.769 215.033 412.255 215.033C413.631 215.033 414.739 215.489 415.577 216.4C416.42 217.312 416.842 218.504 416.842 219.976C416.842 221.575 416.411 222.84 415.55 223.77C414.688 224.699 413.538 225.164 412.098 225.164ZM412.173 216.462C411.275 216.462 410.544 216.797 409.979 217.467C409.418 218.137 409.138 219.019 409.138 220.112C409.138 221.201 409.411 222.079 409.958 222.744C410.505 223.41 411.22 223.742 412.104 223.742C413.043 223.742 413.784 223.425 414.326 222.792C414.868 222.159 415.14 221.272 415.14 220.133C415.14 218.962 414.875 218.057 414.347 217.419C413.823 216.781 413.098 216.462 412.173 216.462Z"
    fill="#FAFAFA"
  />
</svg>
