<svg viewBox="0 0 12 12" xmlns="http://www.w3.org/2000/svg">
    <path d="M6 5.54545C6.58937 5.54545 7.1546 5.30601 7.57135 4.87979C7.9881 4.45357 8.22222 3.87549 8.22222 3.27273C8.22222 2.66996 7.9881 2.09189 7.57135 1.66567C7.1546 1.23945 6.58937 1 6 1C5.41063 1 4.8454 1.23945 4.42865 1.66567C4.0119 2.09189 3.77778 2.66996 3.77778 3.27273C3.77778 3.87549 4.0119 4.45357 4.42865 4.87979C4.8454 5.30601 5.41063 5.54545 6 5.54545ZM6 6.90909C9.11111 6.90909 10 8.51455 10 11H2C2 8.51455 2.88889 6.90909 6 6.90909Z"/>
</svg>
