<svg viewBox="0 0 24 24" xmlns="http://www.w3.org/2000/svg">
  <g fill-rule="evenodd" clip-rule="evenodd">
    <path
      d="M9.568 2h-2l-.59 1.574a5.328 5.328 0 00-2.023 1.17l-1.66-.277-1 1.732 1.068 1.3a5.351 5.351 0 000 2.336l-1.068 1.299 1 1.732 1.66-.276a5.342 5.342 0 002.023 1.169l.59 1.574h2l.59-1.574a5.327 5.327 0 002.023-1.17l1.66.277 1-1.732-1.068-1.299a5.35 5.35 0 000-2.337L14.842 6.2l-1-1.732-1.66.276a5.327 5.327 0 00-2.023-1.168L9.569 2zm1.667 6.667a2.667 2.667 0 11-5.333 0 2.667 2.667 0 015.333 0z"
    />
    <path
      d="M15.902 11.333h1.333l.502 1.507c.59.18 1.12.492 1.56.901l1.557-.318.666 1.154-1.053 1.189a4.014 4.014 0 010 1.801l1.054 1.189-.667 1.155-1.557-.32c-.44.41-.97.723-1.56.902L17.235 22h-1.333l-.503-1.507a3.997 3.997 0 01-1.559-.901l-1.557.319-.667-1.155 1.054-1.189a4.013 4.013 0 010-1.801l-1.054-1.189.667-1.155 1.557.32c.44-.41.97-.722 1.56-.902l.502-1.507zm2 5.334a1.333 1.333 0 11-2.667 0 1.333 1.333 0 012.667 0z"
    />
  </g>
</svg>
