<svg viewBox="0 0 30 40" xmlns="http://www.w3.org/2000/svg">
  <path
    d="M28 0H2C0.89543 0 0 0.89543 0 2V38C0 39.1046 0.89543 40 2 40H28C29.1046 40 30 39.1046 30 38V2C30 0.89543 29.1046 0 28 0Z"
  />
  <path
    opacity="0.6"
    fill-rule="evenodd"
    clip-rule="evenodd"
    d="M20 17L11.2727 19.1429V28.7857H9.63636C8.73262 28.7857 8 29.5053 8 30.3929C8 31.2805 8.73262 32 9.63636 32H10.1818C11.3868 32 12.3636 31.0406 12.3636 29.8571V23.1607L18.9091 21.5536V26.6429H17.2727C16.369 26.6429 15.6364 27.3624 15.6364 28.25C15.6364 29.1376 16.369 29.8571 17.2727 29.8571H17.8182C19.0231 29.8571 20 28.8978 20 27.7143V17ZM18.9091 19.4107L12.3636 21.0179V22.0893L18.9091 20.4821V19.4107Z"
    fill="#fff"
  />
  <path d="M9 7H8V10L9 12H10L10.5 11L11 12H12L13 10V7H12V10H11V8H10V10H9V7Z" fill="#fff" />
  <path d="M19 7H20V10H21V7H22V10L21 12H20L19 10V7Z" fill="#fff" />
  <path
    fill-rule="evenodd"
    clip-rule="evenodd"
    d="M17.66 11.92C17.7667 11.9733 17.8633 12 17.95 12H18.5V11.3C18.32 11.3 18.19 11.2767 18.11 11.23C18.0367 11.1767 18 11.1 18 11V8.6C18 8.04 17.86 7.63333 17.58 7.38C17.3067 7.12667 16.88 7 16.3 7H14.5V8H16.25C16.4967 8 16.6833 8.05667 16.81 8.17C16.9367 8.28333 17 8.44333 17 8.65V9H15.46C14.4867 9 14 9.51667 14 10.55V10.65C14 11.1433 14.1133 11.4933 14.34 11.7C14.5733 11.9 14.9433 12 15.45 12H16.79C17.0433 12 17.2467 11.9 17.4 11.7C17.4733 11.7933 17.56 11.8667 17.66 11.92ZM16.92 10.86C16.8667 10.9533 16.74 11 16.54 11H15.5C15.3267 11 15.2 10.96 15.12 10.88C15.0486 10.8086 15.009 10.6999 15.0014 10.554C15.0106 10.4012 15.0668 10.2732 15.17 10.17C15.2833 10.0567 15.4267 10 15.6 10H17V10.5C17 10.6467 16.9733 10.7667 16.92 10.86Z"
    fill="#fff"
  />
</svg>
