<svg viewBox="0 0 24 28" xmlns="http://www.w3.org/2000/svg">
  <rect width="24" height="28" rx="2" />
  <path
    opacity="0.7"
    fill-rule="evenodd"
    clip-rule="evenodd"
    d="M17 12L9 14V22H7.5C6.67157 22 6 22.6716 6 23.5C6 24.3284 6.67157 25 7.5 25H8C9.10455 25 10 24.1046 10 23V17.75L16 16.25V20H14.5C13.6716 20 13 20.6716 13 21.5C13 22.3284 13.6716 23 14.5 23H15C16.1046 23 17 22.1046 17 21V12ZM16 14.25L10 15.75V16.75L16 15.25V14.25Z"
    fill="white"
  />
  <path d="M6 4H5V7L6 9H7L7.5 8L8 9H9L10 7V4H9V7H8V5H7V7H6V4Z" fill="white" />
  <path d="M16 4H17V7H18V4H19V7L18 9H17L16 7V4Z" fill="white" />
  <path
    fill-rule="evenodd"
    clip-rule="evenodd"
    d="M14.66 8.92C14.7667 8.97333 14.8633 9 14.95 9H15.5V8.3C15.32 8.3 15.19 8.27667 15.11 8.23C15.0367 8.17667 15 8.1 15 8V5.6C15 5.04 14.86 4.63333 14.58 4.38C14.3067 4.12667 13.88 4 13.3 4H11.5V5H13.25C13.4967 5 13.6833 5.05667 13.81 5.17C13.9367 5.28333 14 5.44333 14 5.65V6H12.46C11.4867 6 11 6.51667 11 7.55V7.65C11 8.14333 11.1133 8.49333 11.34 8.7C11.5733 8.9 11.9433 9 12.45 9H13.79C14.0433 9 14.2467 8.9 14.4 8.7C14.4733 8.79333 14.56 8.86667 14.66 8.92ZM13.92 7.86C13.8667 7.95333 13.74 8 13.54 8H12.5C12.3267 8 12.2 7.96 12.12 7.88C12.0486 7.80856 12.009 7.69989 12.0014 7.55401C12.0106 7.40115 12.0668 7.27315 12.17 7.17C12.2833 7.05667 12.4267 7 12.6 7H14V7.5C14 7.64667 13.9733 7.76667 13.92 7.86Z"
    fill="white"
  />
</svg>
