<svg viewBox="0 0 21 28" xmlns="http://www.w3.org/2000/svg">
  <path
    d="M19.6 0H1.4C0.626801 0 0 0.626801 0 1.4V26.6C0 27.3732 0.626801 28 1.4 28H19.6C20.3732 28 21 27.3732 21 26.6V1.4C21 0.626801 20.3732 0 19.6 0Z"
  />
  <path
    opacity="0.7"
    fill-rule="evenodd"
    clip-rule="evenodd"
    d="M15 12L8 14V22H6.5C5.67157 22 5 22.6716 5 23.5C5 24.3284 5.67157 25 6.5 25H7C8.10455 25 9 24.1046 9 23V17.75L14 16.25V20H12.5C11.6716 20 11 20.6716 11 21.5C11 22.3284 11.6716 23 12.5 23H13C14.1046 23 15 22.1046 15 21V12ZM14 14.25L9 15.75V16.75L14 15.25V14.25Z"
    fill="#fff"
  />
  <path d="M4.5 4H3.5V7L4.5 9H5.5L6 8L6.5 9H7.5L8.5 7V4H7.5V7H6.5V5H5.5V7H4.5V4Z" fill="#fff" />
  <path d="M14.5 4H15.5V7H16.5V4H17.5V7L16.5 9H15.5L14.5 7V4Z" fill="#fff" />
  <path
    fill-rule="evenodd"
    clip-rule="evenodd"
    d="M13.16 8.92C13.2667 8.97333 13.3633 9 13.45 9H14V8.3C13.82 8.3 13.69 8.27667 13.61 8.23C13.5367 8.17667 13.5 8.1 13.5 8V5.6C13.5 5.04 13.36 4.63333 13.08 4.38C12.8067 4.12667 12.38 4 11.8 4H10V5H11.75C11.9967 5 12.1833 5.05667 12.31 5.17C12.4367 5.28333 12.5 5.44333 12.5 5.65V6H10.96C9.98667 6 9.5 6.51667 9.5 7.55V7.65C9.5 8.14333 9.61333 8.49333 9.84 8.7C10.0733 8.9 10.4433 9 10.95 9H12.29C12.5433 9 12.7467 8.9 12.9 8.7C12.9733 8.79333 13.06 8.86667 13.16 8.92ZM12.42 7.86C12.3667 7.95333 12.24 8 12.04 8H11C10.8267 8 10.7 7.96 10.62 7.88C10.5486 7.80856 10.509 7.69989 10.5014 7.55401C10.5106 7.40115 10.5668 7.27315 10.67 7.17C10.7833 7.05667 10.9267 7 11.1 7H12.5V7.5C12.5 7.64667 12.4733 7.76667 12.42 7.86Z"
    fill="#fff"
  />
</svg>
