<svg viewBox="0 0 33 40" xmlns="http://www.w3.org/2000/svg">
  <path
    d="M31 0H2C0.89543 0 0 0.89543 0 2V38C0 39.1046 0.89543 40 2 40H31C32.1046 40 33 39.1046 33 38V2C33 0.89543 32.1046 0 31 0Z"
  />
  <path
    opacity="0.6"
    fill-rule="evenodd"
    clip-rule="evenodd"
    d="M23 17L12.2727 19.1429V28.7857H10.6364C9.73262 28.7857 9 29.5053 9 30.3929C9 31.2805 9.73262 32 10.6364 32H11.1818C12.3868 32 13.3636 31.0406 13.3636 29.8571V23.1607L21.9091 21.5536V26.6429H20.2727C19.369 26.6429 18.6364 27.3624 18.6364 28.25C18.6364 29.1376 19.369 29.8571 20.2727 29.8571H20.8182C22.0231 29.8571 23 28.8978 23 27.7143V17ZM21.9091 19.4107L13.3636 21.0179V22.0893L21.9091 20.4821V19.4107Z"
    fill="white"
  />
  <path
    d="M11 7H10V10L11 12H12L12.5 11L13 12H14L15 10V7H14V10H13V8H12V10H11V7Z"
    fill="white"
  />
  <path d="M21 7H22V10H23V7H24V10L23 12H22L21 10V7Z" fill="white" />
  <path
    fill-rule="evenodd"
    clip-rule="evenodd"
    d="M19.66 11.92C19.7667 11.9733 19.8633 12 19.95 12H20.5V11.3C20.32 11.3 20.19 11.2767 20.11 11.23C20.0367 11.1767 20 11.1 20 11V8.6C20 8.04 19.86 7.63333 19.58 7.38C19.3067 7.12667 18.88 7 18.3 7H16.5V8H18.25C18.4967 8 18.6833 8.05667 18.81 8.17C18.9367 8.28333 19 8.44333 19 8.65V9H17.46C16.4867 9 16 9.51667 16 10.55V10.65C16 11.1433 16.1133 11.4933 16.34 11.7C16.5733 11.9 16.9433 12 17.45 12H18.79C19.0433 12 19.2467 11.9 19.4 11.7C19.4733 11.7933 19.56 11.8667 19.66 11.92ZM18.92 10.86C18.8667 10.9533 18.74 11 18.54 11H17.5C17.3267 11 17.2 10.96 17.12 10.88C17.0486 10.8086 17.009 10.6999 17.0014 10.554C17.0106 10.4012 17.0668 10.2732 17.17 10.17C17.2833 10.0567 17.4267 10 17.6 10H19V10.5C19 10.6467 18.9733 10.7667 18.92 10.86Z"
    fill="white"
  />
</svg>
