<svg viewBox="0 0 21 28" xmlns="http://www.w3.org/2000/svg">
  <path
    d="M19.6 0H1.4C0.626801 0 0 0.626801 0 1.4V26.6C0 27.3732 0.626801 28 1.4 28H19.6C20.3732 28 21 27.3732 21 26.6V1.4C21 0.626801 20.3732 0 19.6 0Z"
  />
  <path
    fill-rule="evenodd"
    clip-rule="evenodd"
    d="M16.35 3C16.2433 3 16.1567 3.03 16.09 3.09C16.03 3.14333 16 3.21333 16 3.3V4H17V5H16V8H17V9H14V8H15V5H14V4H15V3.1C15 2.76 15.0967 2.49333 15.29 2.3C15.4833 2.1 15.7333 2 16.04 2H17.5V3L16.35 3ZM4.8 4V4.24C5.00667 4.08 5.27333 4 5.6 4H6.3C6.88667 4 7.31667 4.12667 7.59 4.38C7.86333 4.62667 8 5.03333 8 5.6V7.4C8 7.96 7.86 8.36667 7.58 8.62C7.30667 8.87333 6.88 9 6.3 9H5.01V11H4V4H4.8ZM5.65 5C5.43 5 5.26667 5.06 5.16 5.18C5.05333 5.29333 5 5.41667 5 5.55L5.01 8H6.25C6.49667 8 6.68333 7.94333 6.81 7.83C6.93667 7.71667 7 7.55667 7 7.35V5.65C7 5.44333 6.93667 5.28333 6.81 5.17C6.68333 5.05667 6.49667 5 6.25 5H5.65ZM11.2 9C11.5133 9 11.78 8.92333 12 8.77V9H13V2H12V4H10.76C10.18 4 9.69 4.12667 9.41 4.38C9.13667 4.63333 9 5.04 9 5.6V7.4C9 7.96667 9.13667 8.37667 9.41 8.63C9.68333 8.87667 10.1133 9 10.7 9H11.2ZM11.84 7.83C11.7333 7.94333 11.57 8 11.35 8H10.75C10.5033 8 10.3167 7.94333 10.19 7.83C10.0633 7.71667 10 7.55667 10 7.35V5.65C10 5.44333 10.0633 5.28333 10.19 5.17C10.3167 5.05667 10.5033 5 10.75 5H12V7.45C12 7.58333 11.9467 7.71 11.84 7.83Z"
    fill="white"
  />
  <path
    opacity="0.7"
    d="M10.5344 13.1466C10.8264 13.2794 10.7657 13.4514 10.6759 14.264C10.5841 15.1021 10.2766 16.6332 9.68424 18.1393C9.09119 19.643 8.21132 21.1205 7.44449 22.2141C6.67832 23.3083 6.02261 24.0193 5.52259 24.43C5.02064 24.8407 4.67373 24.9503 4.44698 24.9865C4.22216 25.0226 4.12009 24.9865 4.05937 24.8762C3.99864 24.7665 3.97732 24.5858 4.02965 24.3652C4.08068 24.1471 4.20278 23.8916 4.54905 23.5644C4.89854 23.236 5.47027 22.8341 6.2681 22.4609C7.06593 22.087 8.08793 21.7405 8.9271 21.5031C9.76628 21.2669 10.42 21.1385 10.9924 21.0382C11.5661 20.9373 12.0564 20.8656 12.537 20.8282C13.0177 20.7933 13.4893 20.7933 13.9492 20.8282C14.4092 20.8656 14.8588 20.9373 15.2484 21.0295C15.636 21.1205 15.9642 21.2295 16.2504 21.404C16.5359 21.576 16.782 21.8134 16.9041 22.0789C17.0282 22.3425 17.0282 22.6353 16.9254 22.8441C16.8234 23.0541 16.6179 23.1812 16.3834 23.2554C16.1483 23.327 15.8828 23.3451 15.5649 23.2554C15.2484 23.1631 14.8789 22.9625 14.4912 22.6983C14.103 22.4334 13.6934 22.105 13.1624 21.5947C12.6301 21.0843 11.975 20.392 11.4233 19.7171C10.8716 19.0423 10.42 18.3861 10.1132 17.8296C9.80762 17.2731 9.64354 16.8176 9.51046 16.3621C9.37738 15.9053 9.27531 15.4498 9.23461 15.0398C9.19391 14.6297 9.21264 14.264 9.25399 13.9717C9.29469 13.6813 9.35735 13.4607 9.45878 13.3143C9.56085 13.1709 9.70491 13.0962 9.80698 13.06C9.90905 13.0239 9.97107 13.0239 10.0318 13.0145C10.0925 13.0052 10.1532 12.9871 10.2469 13.0145C10.3361 13.0407 10.4543 13.1105 10.5725 13.1815"
    stroke="white"
    stroke-miterlimit="10"
    stroke-linejoin="round"
  />
</svg>
