<svg viewBox="0 0 34 40" xmlns="http://www.w3.org/2000/svg">
  <path
    d="M32 0H2C0.89543 0 0 0.89543 0 2V38C0 39.1046 0.89543 40 2 40H32C33.1046 40 34 39.1046 34 38V2C34 0.89543 33.1046 0 32 0Z"
  />
  <path
    opacity="0.6"
    d="M17.0423 17.1833C17.4017 17.3492 17.327 17.5642 17.2165 18.5799C17.1036 19.6276 16.7251 21.5415 15.996 23.4241C15.2661 25.3037 14.1832 27.1506 13.2394 28.5176C12.2964 29.8854 11.4894 30.7742 10.874 31.2875C10.2562 31.8008 9.8292 31.9379 9.55012 31.9831C9.27343 32.0283 9.14781 31.9831 9.07307 31.8452C8.99833 31.7081 8.97209 31.4822 9.03649 31.2065C9.0993 30.9339 9.24958 30.6145 9.67575 30.2056C10.1059 29.7951 10.8096 29.2926 11.7915 28.8261C12.7735 28.3587 14.0313 27.9256 15.0641 27.6288C16.097 27.3336 16.9016 27.1732 17.6061 27.0478C18.3121 26.9216 18.9156 26.832 19.5071 26.7853C20.0987 26.7416 20.6791 26.7416 21.2452 26.7853C21.8113 26.832 22.3647 26.9216 22.8442 27.0369C23.3212 27.1506 23.7251 27.2869 24.0774 27.505C24.4288 27.72 24.7317 28.0168 24.882 28.3486C25.0347 28.6781 25.0347 29.0442 24.9082 29.3051C24.7826 29.5676 24.5298 29.7265 24.2411 29.8192C23.9517 29.9088 23.6249 29.9314 23.2338 29.8192C22.8442 29.7039 22.3894 29.4531 21.9123 29.1228C21.4345 28.7918 20.9304 28.3813 20.2768 27.7433C19.6216 27.1054 18.8154 26.24 18.1364 25.3964C17.4574 24.5528 16.9016 23.7326 16.5239 23.037C16.1478 22.3414 15.9459 21.772 15.7821 21.2026C15.6183 20.6317 15.4927 20.0623 15.4426 19.5497C15.3925 19.0372 15.4156 18.5799 15.4664 18.2146C15.5165 17.8516 15.5937 17.5759 15.7185 17.3928C15.8441 17.2137 16.0214 17.1202 16.1471 17.075C16.2727 17.0299 16.349 17.0299 16.4237 17.0182C16.4985 17.0065 16.5732 16.9839 16.6885 17.0182C16.7982 17.0509 16.9437 17.1381 17.0892 17.2269"
    stroke="white"
    stroke-miterlimit="10"
    stroke-linejoin="round"
  />
  <path
    fill-rule="evenodd"
    clip-rule="evenodd"
    d="M22.35 6C22.2433 6 22.1567 6.03 22.09 6.09C22.03 6.14333 22 6.21333 22 6.3V7H23V8H22V11H23V12H20V11H21V8H20V7H21V6.1C21 5.76 21.0967 5.49333 21.29 5.3C21.4833 5.1 21.7333 5 22.04 5H23.5V6L22.35 6ZM10.8 7V7.24C11.0067 7.08 11.2733 7 11.6 7H12.3C12.8867 7 13.3167 7.12667 13.59 7.38C13.8633 7.62667 14 8.03333 14 8.6V10.4C14 10.96 13.86 11.3667 13.58 11.62C13.3067 11.8733 12.88 12 12.3 12H11.01V14H10V7H10.8ZM11.65 8C11.43 8 11.2667 8.06 11.16 8.18C11.0533 8.29333 11 8.41667 11 8.55L11.01 11H12.25C12.4967 11 12.6833 10.9433 12.81 10.83C12.9367 10.7167 13 10.5567 13 10.35V8.65C13 8.44333 12.9367 8.28333 12.81 8.17C12.6833 8.05667 12.4967 8 12.25 8H11.65ZM17.2 12C17.5133 12 17.78 11.9233 18 11.77V12H19V5H18V7H16.76C16.18 7 15.69 7.12667 15.41 7.38C15.1367 7.63333 15 8.04 15 8.6V10.4C15 10.9667 15.1367 11.3767 15.41 11.63C15.6833 11.8767 16.1133 12 16.7 12H17.2ZM17.84 10.83C17.7333 10.9433 17.57 11 17.35 11H16.75C16.5033 11 16.3167 10.9433 16.19 10.83C16.0633 10.7167 16 10.5567 16 10.35V8.65C16 8.44333 16.0633 8.28333 16.19 8.17C16.3167 8.05667 16.5033 8 16.75 8H18V10.45C18 10.5833 17.9467 10.71 17.84 10.83Z"
    fill="white"
  />
</svg>
