<svg viewBox="0 0 30 40" xmlns="http://www.w3.org/2000/svg">
  <path
    d="M28 0H2C0.89543 0 0 0.89543 0 2V38C0 39.1046 0.89543 40 2 40H28C29.1046 40 30 39.1046 30 38V2C30 0.89543 29.1046 0 28 0Z"
  />
  <path
    fill-rule="evenodd"
    clip-rule="evenodd"
    d="M20.35 5C20.2433 5 20.1567 5.03 20.09 5.09C20.03 5.14333 20 5.21333 20 5.3V6H21V7H20V10H21V11H18V10H19V7H18V6H19V5.1C19 4.76 19.0967 4.49333 19.29 4.3C19.4833 4.1 19.7333 4 20.04 4H21.5V5L20.35 5ZM8.8 6V6.24C9.00667 6.08 9.27333 6 9.6 6H10.3C10.8867 6 11.3167 6.12667 11.59 6.38C11.8633 6.62667 12 7.03333 12 7.6V9.4C12 9.96 11.86 10.3667 11.58 10.62C11.3067 10.8733 10.88 11 10.3 11H9.01V13H8V6H8.8ZM9.65 7C9.43 7 9.26667 7.06 9.16 7.18C9.05333 7.29333 9 7.41667 9 7.55L9.01 10H10.25C10.4967 10 10.6833 9.94333 10.81 9.83C10.9367 9.71667 11 9.55667 11 9.35V7.65C11 7.44333 10.9367 7.28333 10.81 7.17C10.6833 7.05667 10.4967 7 10.25 7H9.65ZM15.2 11C15.5133 11 15.78 10.9233 16 10.77V11H17V4H16V6H14.76C14.18 6 13.69 6.12667 13.41 6.38C13.1367 6.63333 13 7.04 13 7.6V9.4C13 9.96667 13.1367 10.3767 13.41 10.63C13.6833 10.8767 14.1133 11 14.7 11H15.2ZM15.84 9.83C15.7333 9.94333 15.57 10 15.35 10H14.75C14.5033 10 14.3167 9.94333 14.19 9.83C14.0633 9.71667 14 9.55667 14 9.35V7.65C14 7.44333 14.0633 7.28333 14.19 7.17C14.3167 7.05667 14.5033 7 14.75 7H16V9.45C16 9.58333 15.9467 9.71 15.84 9.83Z"
    fill="white"
  />
  <path
    opacity="0.7"
    d="M15.5397 18.1711C15.8766 18.3259 15.8065 18.5266 15.7029 19.4746C15.5971 20.4524 15.2423 22.2387 14.5587 23.9959C13.8745 25.7501 12.8592 27.4739 11.9744 28.7498C11.0904 30.0264 10.3338 30.8559 9.75684 31.335C9.17766 31.8141 8.77738 31.9421 8.51574 31.9842C8.25634 32.0264 8.13857 31.9842 8.0685 31.8555C7.99843 31.7276 7.97383 31.5168 8.03421 31.2594C8.0931 31.0049 8.23398 30.7069 8.63352 30.3252C9.03678 29.9421 9.69646 29.4731 10.617 29.0377C11.5376 28.6015 12.7168 28.1972 13.6851 27.9203C14.6534 27.6447 15.4077 27.495 16.0682 27.3779C16.7301 27.2601 17.2959 27.1765 17.8504 27.1329C18.405 27.0922 18.9492 27.0922 19.4799 27.1329C20.0106 27.1765 20.5294 27.2601 20.9789 27.3677C21.4261 27.4739 21.8048 27.6011 22.135 27.8047C22.4645 28.0053 22.7485 28.2823 22.8894 28.592C23.0325 28.8995 23.0325 29.2412 22.914 29.4848C22.7962 29.7298 22.5592 29.8781 22.2886 29.9646C22.0172 30.0482 21.7109 30.0693 21.3441 29.9646C20.9789 29.857 20.5525 29.6229 20.1053 29.3147C19.6573 29.0057 19.1847 28.6225 18.572 28.0271C17.9578 27.4317 17.2019 26.624 16.5654 25.8366C15.9288 25.0493 15.4077 24.2838 15.0537 23.6345C14.7011 22.9853 14.5118 22.4539 14.3582 21.9224C14.2047 21.3895 14.0869 20.8581 14.0399 20.3797C13.993 19.9014 14.0146 19.4746 14.0623 19.1336C14.1093 18.7949 14.1816 18.5375 14.2986 18.3667C14.4164 18.1994 14.5826 18.1122 14.7004 18.07C14.8181 18.0279 14.8897 18.0279 14.9598 18.017C15.0298 18.0061 15.0999 17.985 15.208 18.017C15.3108 18.0475 15.4473 18.1289 15.5837 18.2118"
    stroke="white"
    stroke-miterlimit="10"
    stroke-linejoin="round"
  />
</svg>
