<svg viewBox="0 0 24 28" xmlns="http://www.w3.org/2000/svg">
  <rect width="24" height="28" rx="2" />
  <path
    fill-rule="evenodd"
    clip-rule="evenodd"
    d="M17.35 3C17.2433 3 17.1567 3.03 17.09 3.09C17.03 3.14333 17 3.21333 17 3.3V4H18V5H17V8H18V9H15V8H16V5H15V4H16V3.1C16 2.76 16.0967 2.49333 16.29 2.3C16.4833 2.1 16.7333 2 17.04 2H18.5V3L17.35 3ZM5.8 4V4.24C6.00667 4.08 6.27333 4 6.6 4H7.3C7.88667 4 8.31667 4.12667 8.59 4.38C8.86333 4.62667 9 5.03333 9 5.6V7.4C9 7.96 8.86 8.36667 8.58 8.62C8.30667 8.87333 7.88 9 7.3 9H6.01V11H5V4H5.8ZM6.65 5C6.43 5 6.26667 5.06 6.16 5.18C6.05333 5.29333 6 5.41667 6 5.55L6.01 8H7.25C7.49667 8 7.68333 7.94333 7.81 7.83C7.93667 7.71667 8 7.55667 8 7.35V5.65C8 5.44333 7.93667 5.28333 7.81 5.17C7.68333 5.05667 7.49667 5 7.25 5H6.65ZM12.2 9C12.5133 9 12.78 8.92333 13 8.77V9H14V2H13V4H11.76C11.18 4 10.69 4.12667 10.41 4.38C10.1367 4.63333 10 5.04 10 5.6V7.4C10 7.96667 10.1367 8.37667 10.41 8.63C10.6833 8.87667 11.1133 9 11.7 9H12.2ZM12.84 7.83C12.7333 7.94333 12.57 8 12.35 8H11.75C11.5033 8 11.3167 7.94333 11.19 7.83C11.0633 7.71667 11 7.55667 11 7.35V5.65C11 5.44333 11.0633 5.28333 11.19 5.17C11.3167 5.05667 11.5033 5 11.75 5H13V7.45C13 7.58333 12.9467 7.71 12.84 7.83Z"
    fill="white"
  />
  <path
    opacity="0.7"
    d="M12.5344 13.1466C12.8264 13.2794 12.7657 13.4514 12.6759 14.264C12.5841 15.1021 12.2766 16.6332 11.6842 18.1393C11.0912 19.643 10.2113 21.1205 9.44449 22.2141C8.67832 23.3083 8.02261 24.0193 7.52259 24.43C7.02064 24.8407 6.67373 24.9503 6.44698 24.9865C6.22216 25.0226 6.12009 24.9865 6.05937 24.8762C5.99864 24.7665 5.97732 24.5858 6.02965 24.3652C6.08068 24.1471 6.20278 23.8916 6.54905 23.5644C6.89854 23.236 7.47027 22.8341 8.2681 22.4609C9.06593 22.087 10.0879 21.7405 10.9271 21.5031C11.7663 21.2669 12.42 21.1385 12.9924 21.0382C13.5661 20.9373 14.0564 20.8656 14.537 20.8282C15.0177 20.7933 15.4893 20.7933 15.9492 20.8282C16.4092 20.8656 16.8588 20.9373 17.2484 21.0295C17.636 21.1205 17.9642 21.2295 18.2504 21.404C18.5359 21.576 18.782 21.8134 18.9041 22.0789C19.0282 22.3425 19.0282 22.6353 18.9254 22.8441C18.8234 23.0541 18.6179 23.1812 18.3834 23.2554C18.1483 23.327 17.8828 23.3451 17.5649 23.2554C17.2484 23.1631 16.8789 22.9625 16.4912 22.6983C16.103 22.4334 15.6934 22.105 15.1624 21.5947C14.6301 21.0843 13.975 20.392 13.4233 19.7171C12.8716 19.0423 12.42 18.3861 12.1132 17.8296C11.8076 17.2731 11.6435 16.8176 11.5105 16.3621C11.3774 15.9053 11.2753 15.4498 11.2346 15.0398C11.1939 14.6297 11.2126 14.264 11.254 13.9717C11.2947 13.6813 11.3574 13.4607 11.4588 13.3143C11.5608 13.1709 11.7049 13.0962 11.807 13.06C11.909 13.0239 11.9711 13.0239 12.0318 13.0145C12.0925 13.0052 12.1532 12.9871 12.2469 13.0145C12.3361 13.0407 12.4543 13.1105 12.5725 13.1815"
    stroke="white"
    stroke-miterlimit="10"
    stroke-linejoin="round"
  />
</svg>
