<svg
  width="200"
  height="120"
  viewBox="0 0 200 120"
  fill="none"
  xmlns="http://www.w3.org/2000/svg"
>
  <rect width="200" height="120" fill="var(--color-bg-secondary)" />
  <path
    d="M0 4C0 1.79086 1.79086 0 4 0H196C198.209 0 200 1.79086 200 4V116C200 118.209 198.209 120 196 120H4C1.79086 120 0 118.209 0 116V4Z"
    fill="var(--color-bg-secondary)"
  />
  <rect
    x="25"
    y="9"
    width="149"
    height="103"
    rx="4"
    fill="var(--color-bg-default)"
  />
  <circle cx="69.5" cy="77.5" r="7.5" fill="var(--color-bg-link)" />
  <circle cx="39.5" cy="77.5" r="2.5" fill="var(--color-typo-ghost)" />
  <circle cx="99.5" cy="77.5" r="2.5" fill="var(--color-typo-ghost)" />
  <circle cx="129.5" cy="77.5" r="2.5" fill="var(--color-typo-ghost)" />
  <circle cx="159.5" cy="77.5" r="2.5" fill="var(--color-typo-ghost)" />
  <circle cx="99.5" cy="48.5" r="2.5" fill="var(--color-typo-ghost)" />
  <circle cx="99.5" cy="99.5" r="2.5" fill="var(--color-typo-ghost)" />
  <circle cx="129.5" cy="48.5" r="2.5" fill="var(--color-typo-ghost)" />
  <circle cx="159.5" cy="48.5" r="2.5" fill="var(--color-typo-ghost)" />
  <circle cx="129.5" cy="99.5" r="2.5" fill="var(--color-typo-ghost)" />
  <circle cx="159.5" cy="99.5" r="2.5" fill="var(--color-typo-ghost)" />
  <circle cx="69.5" cy="48.5" r="2.5" fill="var(--color-typo-ghost)" />
  <circle cx="69.5" cy="99.5" r="2.5" fill="var(--color-typo-ghost)" />
  <circle cx="39.5" cy="48.5" r="2.5" fill="var(--color-typo-ghost)" />
  <circle cx="39.5" cy="99.5" r="2.5" fill="var(--color-typo-ghost)" />
  <rect
    x="62"
    y="19"
    width="75"
    height="12"
    rx="3"
    fill="var(---color-control-typo-placeholder)"
  />
  <rect
    x="37"
    y="19"
    width="11"
    height="12"
    rx="3"
    fill="var(---color-control-typo-placeholder)"
  />
  <rect
    x="151"
    y="19"
    width="11"
    height="12"
    rx="3"
    fill="var(---color-control-typo-placeholder)"
  />
</svg>
