<svg width="12" height="12" viewBox="0 0 12 12" fill="none" xmlns="http://www.w3.org/2000/svg">
  <path
    d="M8.88155 4.96141C9.61396 5.11901 9.92081 5.99517 9.44675 6.57529L9.42222 6.60532C9.20933 6.86583 9.14137 7.21578 9.24127 7.53703L9.25796 7.59069C9.47674 8.29425 8.88701 8.98544 8.15778 8.88015L8.04967 8.86454C7.72585 8.81778 7.3996 8.93204 7.1757 9.17062L7.10095 9.25027C6.59675 9.78752 5.70465 9.61529 5.43667 8.92896L5.41623 8.87662C5.29387 8.56323 5.02242 8.33215 4.69352 8.26138L4.65561 8.25322C3.9232 8.09563 3.61635 7.21946 4.0904 6.63934L4.11494 6.60932C4.32783 6.3488 4.39579 5.99885 4.29589 5.6776L4.2792 5.62394C4.06042 4.92038 4.65014 4.22919 5.37937 4.33448L5.48748 4.35009C5.81131 4.39685 6.13756 4.28259 6.36146 4.04401L6.4362 3.96437C6.9404 3.42711 7.83251 3.59934 8.10049 4.28567L8.12092 4.33801C8.24329 4.6514 8.51474 4.88249 8.84364 4.95326L8.88155 4.96141Z"
    fill="black"
  />
  <path
    fill-rule="evenodd"
    clip-rule="evenodd"
    d="M11 6.00001C11 8.76144 8.76144 11 6.00001 11C3.23858 11 1 8.76144 1 6.00001C1 3.23858 3.23858 1 6.00001 1C8.76144 1 11 3.23858 11 6.00001ZM7.42238 2.26956C7.93509 2.02645 8.53685 2.34824 8.61936 2.90963L8.73185 3.67508C8.77214 3.94924 8.94441 4.18617 9.19279 4.30904L9.25045 4.33756L9.25433 4.3384C9.54774 4.40153 9.79853 4.53664 9.99779 4.71831C10.1239 4.80679 10.2184 4.92454 10.2785 5.05628C10.621 5.60795 10.6251 6.3551 10.16 6.92434L10.1318 6.95884C9.98378 7.13995 9.93653 7.38323 10.006 7.60656L10.0252 7.6682C10.3757 8.79553 9.43078 9.90304 8.26232 9.73433L8.13813 9.71639C7.91301 9.68389 7.6862 9.76332 7.53055 9.92918L7.44468 10.0207C6.63679 10.8815 5.20735 10.6056 4.77797 9.50584L4.75449 9.44571C4.66942 9.22785 4.48071 9.0672 4.25206 9.018L4.20851 9.00863C4.10764 8.98693 4.01182 8.95672 3.92139 8.91903L3.42346 8.91569C2.85734 8.91188 2.45532 8.36291 2.62258 7.82204L2.85583 7.0678C2.93707 6.80508 2.88527 6.51925 2.71699 6.30175L2.23485 5.67862C1.89162 5.235 2.06841 4.58619 2.58926 4.37804L3.33292 4.08084C3.58673 3.97941 3.77572 3.76138 3.8401 3.49574L4.02891 2.71672C4.16158 2.16934 4.78286 1.90289 5.27088 2.18408L5.94013 2.56969C6.18023 2.70804 6.47293 2.71975 6.72332 2.60102L7.42238 2.26956Z"
    fill="black"
  />
</svg>
