<svg width="16" height="16" viewBox="0 0 16 16" fill="none" xmlns="http://www.w3.org/2000/svg">
  <path
    d="M12.2854 6.36274C13.4065 6.60397 13.8762 7.94514 13.1506 8.83314L13.113 8.8791C12.7872 9.27788 12.6831 9.81355 12.836 10.3053L12.8616 10.3874C13.1965 11.4644 12.2938 12.5224 11.1775 12.3613L11.012 12.3374C10.5163 12.2658 10.0169 12.4407 9.67422 12.8059L9.5598 12.9278C8.788 13.7502 7.42243 13.4866 7.01223 12.436L6.98095 12.3559C6.79364 11.8761 6.37813 11.5224 5.87467 11.4141L5.81663 11.4016C4.69552 11.1604 4.22582 9.81919 4.95146 8.93119L4.98903 8.88523C5.31489 8.48645 5.41893 7.95078 5.26601 7.45902L5.24046 7.37688C4.90557 6.29992 5.80828 5.24191 6.92453 5.40308L7.09001 5.42697C7.5857 5.49854 8.0851 5.32364 8.42783 4.95845L8.54225 4.83653C9.31404 4.01413 10.6796 4.27777 11.0898 5.32836L11.1211 5.40848C11.3084 5.8882 11.7239 6.24192 12.2274 6.35025L12.2854 6.36274Z"
    fill="black"
  />
  <path
    fill-rule="evenodd"
    clip-rule="evenodd"
    d="M15 8.00008C15 11.8661 11.866 15.0002 7.99996 15.0002C4.13392 15.0002 0.999878 11.8661 0.999878 8.00008C0.999878 4.13404 4.13392 1 7.99996 1C11.866 1 15 4.13404 15 8.00008ZM9.9913 2.7774C10.7091 2.43704 11.5516 2.88755 11.6671 3.67351L11.8246 4.74515C11.881 5.12898 12.1222 5.46068 12.4699 5.6327L12.5506 5.67264L12.556 5.6738C12.9668 5.76219 13.3179 5.95134 13.5969 6.20569C13.7735 6.32956 13.9058 6.49441 13.9898 6.67885C14.4695 7.45119 14.4752 8.49721 13.824 9.29416L13.7845 9.34246C13.5773 9.59601 13.5111 9.93661 13.6084 10.2493L13.6352 10.3356C14.126 11.9139 12.8031 13.4644 11.1672 13.2282L10.9934 13.2031C10.6782 13.1576 10.3607 13.2688 10.1427 13.501L10.0225 13.6291C8.89146 14.8343 6.89023 14.4479 6.28908 12.9083L6.25621 12.8241C6.13712 12.5191 5.87293 12.2942 5.55281 12.2253L5.49184 12.2122C5.35062 12.1818 5.21646 12.1395 5.08986 12.0868L4.39276 12.0821C3.60017 12.0767 3.03735 11.3082 3.27152 10.551L3.59806 9.495C3.71181 9.12719 3.63928 8.72702 3.40368 8.42252L2.72869 7.55013C2.24815 6.92906 2.49567 6.02072 3.22487 5.7293L4.266 5.31322C4.62133 5.17121 4.88593 4.86597 4.97606 4.49407L5.24039 3.40344C5.42613 2.63709 6.29594 2.26405 6.97917 2.65773L7.91612 3.19759C8.25227 3.39128 8.66206 3.40767 9.0126 3.24146L9.9913 2.7774Z"
    fill="black"
  />
</svg>
