<svg viewBox="0 0 34 40" xmlns="http://www.w3.org/2000/svg">
  <path
    d="M32 0H2C0.89543 0 0 0.89543 0 2V38C0 39.1046 0.89543 40 2 40H32C33.1046 40 34 39.1046 34 38V2C34 0.89543 33.1046 0 32 0Z"
  />
  <path
    opacity="0.6"
    fill-rule="evenodd"
    clip-rule="evenodd"
    d="M9.5 18L9 18V18.5V27.6667L12 25L18 30L22 27L25 29.25C25 29.25 25 18.6417 25 18.5C25 18.3583 25 18 25 18C25 18 24.6344 18 24.5 18C24.3656 18 9.5 18 9.5 18ZM9 31.5V29.3333L12 26.5224L17.9062 31.3204L22 28.25L25 30.5V31.5C25 31.6406 25 32 25 32C25 32 24.6356 32 24.5 32H9.5C9.347 32 9 32 9 32C9 32 9 31.6231 9 31.5ZM8 18.5V29V31.5V32C8 32.2768 8.00001 33 8.00001 33C8.00001 33 8.72447 33 9 33H9.5H24.5H25C25.2822 33 26 33 26 33C26 33 26 32.2701 26 32V31.5V30C26 30 26 18.9254 26 18.5C26 18.0746 26 17 26 17C26 17 24.903 17 24.5 17C24.097 17 9.5 17 9.5 17C9 17 8 17 8 17C8 17 8 18 8 18.5ZM18 22.5C18 21.6716 18.6716 21 19.5 21C20.3284 21 21 21.6716 21 22.5C21 23.3284 20.3284 24 19.5 24C18.6716 24 18 23.3284 18 22.5ZM19.5 20C18.1193 20 17 21.1193 17 22.5C17 23.8807 18.1193 25 19.5 25C20.8807 25 22 23.8807 22 22.5C22 21.1193 20.8807 20 19.5 20Z"
    fill="white"
  />
  <path d="M15 6V5H14V6H15Z" fill="white" />
  <path d="M13 7V8H14V11H13V12H16V11H15V7H13Z" fill="white" />
  <path
    d="M19.09 6.09C19.1567 6.03 19.2433 6 19.35 6L20.5 6V5H19.04C18.7333 5 18.4833 5.1 18.29 5.3C18.0967 5.49333 18 5.76 18 6.1V7H17V8H18V11H17V12H20V11H19V8H20V7H19V6.3C19 6.21333 19.03 6.14333 19.09 6.09Z"
    fill="white"
  />
  <path
    d="M23.09 6.09C23.1567 6.03 23.2433 6 23.35 6L24.5 6V5H23.04C22.7333 5 22.4833 5.1 22.29 5.3C22.0967 5.49333 22 5.76 22 6.1V7H21V8H22V11H21V12H24V11H23V8H24V7H23V6.3C23 6.21333 23.03 6.14333 23.09 6.09Z"
    fill="white"
  />
  <path
    d="M11.05 11.9996C10.71 11.9996 10.45 11.8896 10.27 11.6696C10.09 11.4496 10 11.1596 10 10.7996V7.9998H9V6.99961H10V6H11V6.99961H12V7.9998H11V10.6C11 10.7467 11.0367 10.85 11.11 10.91C11.1833 10.97 11.2967 11 11.45 11L12 11.0004V12L11.05 11.9996Z"
    fill="white"
  />
</svg>
