<svg
  width="818"
  height="185"
  viewBox="0 0 818 185"
  fill="none"
  xmlns="http://www.w3.org/2000/svg"
>
  <rect
    x="196.5"
    y="37.5"
    width="63"
    height="27"
    rx="3.5"
    stroke="#004269"
    stroke-opacity="0.28"
  />
  <path d="M196 37H198V65H196V37Z" fill="#F56600" />
  <path
    d="M213.426 49H212.193C212.12 48.6454 211.993 48.3338 211.81 48.0653C211.631 47.7969 211.413 47.5715 211.154 47.3892C210.899 47.2036 210.616 47.0644 210.304 46.9716C209.992 46.8788 209.668 46.8324 209.33 46.8324C208.713 46.8324 208.155 46.9882 207.654 47.2997C207.157 47.6113 206.761 48.0703 206.466 48.6768C206.174 49.2834 206.028 50.0275 206.028 50.9091C206.028 51.7907 206.174 52.5348 206.466 53.1413C206.761 53.7479 207.157 54.2069 207.654 54.5185C208.155 54.83 208.713 54.9858 209.33 54.9858C209.668 54.9858 209.992 54.9394 210.304 54.8466C210.616 54.7538 210.899 54.6162 211.154 54.4339C211.413 54.2483 211.631 54.0213 211.81 53.7528C211.993 53.4811 212.12 53.1695 212.193 52.8182H213.426C213.333 53.3385 213.164 53.8042 212.919 54.2152C212.674 54.6262 212.369 54.9759 212.004 55.2642C211.64 55.5492 211.23 55.7663 210.776 55.9155C210.326 56.0646 209.843 56.1392 209.33 56.1392C208.461 56.1392 207.689 55.9271 207.013 55.5028C206.337 55.0786 205.805 54.4754 205.417 53.6932C205.029 52.911 204.835 51.983 204.835 50.9091C204.835 49.8352 205.029 48.9072 205.417 48.125C205.805 47.3428 206.337 46.7396 207.013 46.3153C207.689 45.8911 208.461 45.679 209.33 45.679C209.843 45.679 210.326 45.7536 210.776 45.9027C211.23 46.0518 211.64 46.2706 212.004 46.5589C212.369 46.844 212.674 47.192 212.919 47.603C213.164 48.0107 213.333 48.4763 213.426 49ZM218.362 56.1591C217.672 56.1591 217.067 55.995 216.547 55.6669C216.03 55.3388 215.626 54.8797 215.334 54.2898C215.046 53.6998 214.901 53.0104 214.901 52.2216C214.901 51.4261 215.046 50.7318 215.334 50.1385C215.626 49.5452 216.03 49.0845 216.547 48.7564C217.067 48.4283 217.672 48.2642 218.362 48.2642C219.051 48.2642 219.654 48.4283 220.171 48.7564C220.692 49.0845 221.096 49.5452 221.384 50.1385C221.676 50.7318 221.822 51.4261 221.822 52.2216C221.822 53.0104 221.676 53.6998 221.384 54.2898C221.096 54.8797 220.692 55.3388 220.171 55.6669C219.654 55.995 219.051 56.1591 218.362 56.1591ZM218.362 55.1051C218.885 55.1051 219.316 54.9709 219.654 54.7024C219.992 54.4339 220.243 54.081 220.405 53.6435C220.567 53.206 220.649 52.732 220.649 52.2216C220.649 51.7112 220.567 51.2356 220.405 50.7947C220.243 50.3539 219.992 49.9976 219.654 49.7259C219.316 49.4541 218.885 49.3182 218.362 49.3182C217.838 49.3182 217.407 49.4541 217.069 49.7259C216.731 49.9976 216.481 50.3539 216.318 50.7947C216.156 51.2356 216.075 51.7112 216.075 52.2216C216.075 52.732 216.156 53.206 216.318 53.6435C216.481 54.081 216.731 54.4339 217.069 54.7024C217.407 54.9709 217.838 55.1051 218.362 55.1051ZM223.613 56V48.3636H224.746V49.517H224.826C224.965 49.1392 225.217 48.8326 225.582 48.5973C225.946 48.362 226.357 48.2443 226.815 48.2443C226.901 48.2443 227.009 48.246 227.138 48.2493C227.267 48.2526 227.365 48.2576 227.431 48.2642V49.4574C227.391 49.4474 227.3 49.4325 227.158 49.4126C227.018 49.3894 226.871 49.3778 226.715 49.3778C226.344 49.3778 226.013 49.4557 225.721 49.6115C225.433 49.764 225.204 49.9761 225.035 50.2479C224.869 50.5163 224.786 50.8229 224.786 51.1676V56H223.613ZM231.791 56.1591C231.055 56.1591 230.421 55.9967 229.887 55.6719C229.357 55.3438 228.947 54.8864 228.659 54.2997C228.374 53.7098 228.232 53.0237 228.232 52.2415C228.232 51.4593 228.374 50.7699 228.659 50.1733C228.947 49.5734 229.348 49.1061 229.862 48.7713C230.379 48.4332 230.982 48.2642 231.672 48.2642C232.07 48.2642 232.462 48.3305 232.85 48.4631C233.238 48.5956 233.591 48.8111 233.909 49.1094C234.227 49.4044 234.481 49.7955 234.67 50.2827C234.859 50.7699 234.953 51.3698 234.953 52.0824V52.5795H229.067V51.5653H233.76C233.76 51.1345 233.674 50.75 233.501 50.4119C233.332 50.0739 233.09 49.8071 232.776 49.6115C232.464 49.416 232.096 49.3182 231.672 49.3182C231.205 49.3182 230.8 49.4342 230.459 49.6662C230.121 49.8949 229.861 50.1932 229.678 50.5611C229.496 50.929 229.405 51.3234 229.405 51.7443V52.4205C229.405 52.9972 229.504 53.486 229.703 53.8871C229.905 54.2848 230.185 54.5881 230.543 54.7969C230.901 55.0024 231.317 55.1051 231.791 55.1051C232.099 55.1051 232.378 55.062 232.626 54.9759C232.878 54.8864 233.095 54.7538 233.278 54.5781C233.46 54.3991 233.601 54.1771 233.7 53.9119L234.834 54.2301C234.714 54.6146 234.514 54.9527 234.232 55.2443C233.951 55.5327 233.603 55.758 233.188 55.9205C232.774 56.0795 232.308 56.1591 231.791 56.1591ZM240.675 56V48.3636H241.849V56H240.675ZM241.272 47.0909C241.043 47.0909 240.846 47.013 240.68 46.8572C240.518 46.7015 240.437 46.5142 240.437 46.2955C240.437 46.0767 240.518 45.8894 240.68 45.7337C240.846 45.5779 241.043 45.5 241.272 45.5C241.501 45.5 241.696 45.5779 241.859 45.7337C242.024 45.8894 242.107 46.0767 242.107 46.2955C242.107 46.5142 242.024 46.7015 241.859 46.8572C241.696 47.013 241.501 47.0909 241.272 47.0909ZM247.16 56.1392C246.576 56.1392 246.051 56.0232 245.584 55.7912C245.116 55.5592 244.742 55.241 244.46 54.8366C244.178 54.4323 244.024 53.9716 243.998 53.4545H245.191C245.237 53.9152 245.446 54.2964 245.817 54.598C246.192 54.8963 246.639 55.0455 247.16 55.0455C247.577 55.0455 247.948 54.9477 248.273 54.7521C248.601 54.5566 248.858 54.2881 249.044 53.9467C249.233 53.602 249.327 53.2126 249.327 52.7784C249.327 52.3343 249.229 51.9382 249.034 51.5902C248.842 51.2389 248.577 50.9621 248.238 50.7599C247.9 50.5578 247.514 50.455 247.08 50.4517C246.769 50.4484 246.449 50.4964 246.121 50.5959C245.792 50.692 245.522 50.8163 245.31 50.9688L244.157 50.8295L244.773 45.8182H250.063V46.9119H245.807L245.449 49.9148H245.509C245.718 49.7491 245.98 49.6115 246.295 49.5021C246.609 49.3928 246.938 49.3381 247.279 49.3381C247.902 49.3381 248.457 49.4872 248.944 49.7855C249.435 50.0805 249.819 50.4848 250.098 50.9986C250.38 51.5123 250.52 52.099 250.52 52.7585C250.52 53.4081 250.375 53.9882 250.083 54.4986C249.795 55.0057 249.397 55.4067 248.89 55.7017C248.383 55.9934 247.806 56.1392 247.16 56.1392Z"
    fill="#00395C"
    fill-opacity="0.8"
  />
  <rect
    x="268.5"
    y="37.5"
    width="62"
    height="27"
    rx="3.5"
    stroke="#004269"
    stroke-opacity="0.28"
  />
  <path d="M268 37H270V65H268V37Z" fill="#F56600" />
  <path
    d="M285.426 49H284.193C284.12 48.6454 283.993 48.3338 283.81 48.0653C283.631 47.7969 283.413 47.5715 283.154 47.3892C282.899 47.2036 282.616 47.0644 282.304 46.9716C281.992 46.8788 281.668 46.8324 281.33 46.8324C280.713 46.8324 280.155 46.9882 279.654 47.2997C279.157 47.6113 278.761 48.0703 278.466 48.6768C278.174 49.2834 278.028 50.0275 278.028 50.9091C278.028 51.7907 278.174 52.5348 278.466 53.1413C278.761 53.7479 279.157 54.2069 279.654 54.5185C280.155 54.83 280.713 54.9858 281.33 54.9858C281.668 54.9858 281.992 54.9394 282.304 54.8466C282.616 54.7538 282.899 54.6162 283.154 54.4339C283.413 54.2483 283.631 54.0213 283.81 53.7528C283.993 53.4811 284.12 53.1695 284.193 52.8182H285.426C285.333 53.3385 285.164 53.8042 284.919 54.2152C284.674 54.6262 284.369 54.9759 284.004 55.2642C283.64 55.5492 283.23 55.7663 282.776 55.9155C282.326 56.0646 281.843 56.1392 281.33 56.1392C280.461 56.1392 279.689 55.9271 279.013 55.5028C278.337 55.0786 277.805 54.4754 277.417 53.6932C277.029 52.911 276.835 51.983 276.835 50.9091C276.835 49.8352 277.029 48.9072 277.417 48.125C277.805 47.3428 278.337 46.7396 279.013 46.3153C279.689 45.8911 280.461 45.679 281.33 45.679C281.843 45.679 282.326 45.7536 282.776 45.9027C283.23 46.0518 283.64 46.2706 284.004 46.5589C284.369 46.844 284.674 47.192 284.919 47.603C285.164 48.0107 285.333 48.4763 285.426 49ZM290.362 56.1591C289.672 56.1591 289.067 55.995 288.547 55.6669C288.03 55.3388 287.626 54.8797 287.334 54.2898C287.046 53.6998 286.901 53.0104 286.901 52.2216C286.901 51.4261 287.046 50.7318 287.334 50.1385C287.626 49.5452 288.03 49.0845 288.547 48.7564C289.067 48.4283 289.672 48.2642 290.362 48.2642C291.051 48.2642 291.654 48.4283 292.171 48.7564C292.692 49.0845 293.096 49.5452 293.384 50.1385C293.676 50.7318 293.822 51.4261 293.822 52.2216C293.822 53.0104 293.676 53.6998 293.384 54.2898C293.096 54.8797 292.692 55.3388 292.171 55.6669C291.654 55.995 291.051 56.1591 290.362 56.1591ZM290.362 55.1051C290.885 55.1051 291.316 54.9709 291.654 54.7024C291.992 54.4339 292.243 54.081 292.405 53.6435C292.567 53.206 292.649 52.732 292.649 52.2216C292.649 51.7112 292.567 51.2356 292.405 50.7947C292.243 50.3539 291.992 49.9976 291.654 49.7259C291.316 49.4541 290.885 49.3182 290.362 49.3182C289.838 49.3182 289.407 49.4541 289.069 49.7259C288.731 49.9976 288.481 50.3539 288.318 50.7947C288.156 51.2356 288.075 51.7112 288.075 52.2216C288.075 52.732 288.156 53.206 288.318 53.6435C288.481 54.081 288.731 54.4339 289.069 54.7024C289.407 54.9709 289.838 55.1051 290.362 55.1051ZM295.613 56V48.3636H296.746V49.517H296.826C296.965 49.1392 297.217 48.8326 297.582 48.5973C297.946 48.362 298.357 48.2443 298.815 48.2443C298.901 48.2443 299.009 48.246 299.138 48.2493C299.267 48.2526 299.365 48.2576 299.431 48.2642V49.4574C299.391 49.4474 299.3 49.4325 299.158 49.4126C299.018 49.3894 298.871 49.3778 298.715 49.3778C298.344 49.3778 298.013 49.4557 297.721 49.6115C297.433 49.764 297.204 49.9761 297.035 50.2479C296.869 50.5163 296.786 50.8229 296.786 51.1676V56H295.613ZM303.791 56.1591C303.055 56.1591 302.421 55.9967 301.887 55.6719C301.357 55.3438 300.947 54.8864 300.659 54.2997C300.374 53.7098 300.232 53.0237 300.232 52.2415C300.232 51.4593 300.374 50.7699 300.659 50.1733C300.947 49.5734 301.348 49.1061 301.862 48.7713C302.379 48.4332 302.982 48.2642 303.672 48.2642C304.07 48.2642 304.462 48.3305 304.85 48.4631C305.238 48.5956 305.591 48.8111 305.909 49.1094C306.227 49.4044 306.481 49.7955 306.67 50.2827C306.859 50.7699 306.953 51.3698 306.953 52.0824V52.5795H301.067V51.5653H305.76C305.76 51.1345 305.674 50.75 305.501 50.4119C305.332 50.0739 305.09 49.8071 304.776 49.6115C304.464 49.416 304.096 49.3182 303.672 49.3182C303.205 49.3182 302.8 49.4342 302.459 49.6662C302.121 49.8949 301.861 50.1932 301.678 50.5611C301.496 50.929 301.405 51.3234 301.405 51.7443V52.4205C301.405 52.9972 301.504 53.486 301.703 53.8871C301.905 54.2848 302.185 54.5881 302.543 54.7969C302.901 55.0024 303.317 55.1051 303.791 55.1051C304.099 55.1051 304.378 55.062 304.626 54.9759C304.878 54.8864 305.095 54.7538 305.278 54.5781C305.46 54.3991 305.601 54.1771 305.7 53.9119L306.834 54.2301C306.714 54.6146 306.514 54.9527 306.232 55.2443C305.951 55.5327 305.603 55.758 305.188 55.9205C304.774 56.0795 304.308 56.1591 303.791 56.1591ZM312.675 56V48.3636H313.849V56H312.675ZM313.272 47.0909C313.043 47.0909 312.846 47.013 312.68 46.8572C312.518 46.7015 312.437 46.5142 312.437 46.2955C312.437 46.0767 312.518 45.8894 312.68 45.7337C312.846 45.5779 313.043 45.5 313.272 45.5C313.501 45.5 313.696 45.5779 313.859 45.7337C314.024 45.8894 314.107 46.0767 314.107 46.2955C314.107 46.5142 314.024 46.7015 313.859 46.8572C313.696 47.013 313.501 47.0909 313.272 47.0909ZM316.296 56L320.85 46.9915V46.9119H315.6V45.8182H322.123V46.9716L317.589 56H316.296Z"
    fill="#00395C"
    fill-opacity="0.8"
  />
  <rect
    x="339.5"
    y="37.5"
    width="63"
    height="27"
    rx="3.5"
    stroke="#004269"
    stroke-opacity="0.28"
  />
  <path d="M339 37H341V65H339V37Z" fill="#F56600" />
  <path
    d="M356.426 49H355.193C355.12 48.6454 354.993 48.3338 354.81 48.0653C354.631 47.7969 354.413 47.5715 354.154 47.3892C353.899 47.2036 353.616 47.0644 353.304 46.9716C352.992 46.8788 352.668 46.8324 352.33 46.8324C351.713 46.8324 351.155 46.9882 350.654 47.2997C350.157 47.6113 349.761 48.0703 349.466 48.6768C349.174 49.2834 349.028 50.0275 349.028 50.9091C349.028 51.7907 349.174 52.5348 349.466 53.1413C349.761 53.7479 350.157 54.2069 350.654 54.5185C351.155 54.83 351.713 54.9858 352.33 54.9858C352.668 54.9858 352.992 54.9394 353.304 54.8466C353.616 54.7538 353.899 54.6162 354.154 54.4339C354.413 54.2483 354.631 54.0213 354.81 53.7528C354.993 53.4811 355.12 53.1695 355.193 52.8182H356.426C356.333 53.3385 356.164 53.8042 355.919 54.2152C355.674 54.6262 355.369 54.9759 355.004 55.2642C354.64 55.5492 354.23 55.7663 353.776 55.9155C353.326 56.0646 352.843 56.1392 352.33 56.1392C351.461 56.1392 350.689 55.9271 350.013 55.5028C349.337 55.0786 348.805 54.4754 348.417 53.6932C348.029 52.911 347.835 51.983 347.835 50.9091C347.835 49.8352 348.029 48.9072 348.417 48.125C348.805 47.3428 349.337 46.7396 350.013 46.3153C350.689 45.8911 351.461 45.679 352.33 45.679C352.843 45.679 353.326 45.7536 353.776 45.9027C354.23 46.0518 354.64 46.2706 355.004 46.5589C355.369 46.844 355.674 47.192 355.919 47.603C356.164 48.0107 356.333 48.4763 356.426 49ZM361.362 56.1591C360.672 56.1591 360.067 55.995 359.547 55.6669C359.03 55.3388 358.626 54.8797 358.334 54.2898C358.046 53.6998 357.901 53.0104 357.901 52.2216C357.901 51.4261 358.046 50.7318 358.334 50.1385C358.626 49.5452 359.03 49.0845 359.547 48.7564C360.067 48.4283 360.672 48.2642 361.362 48.2642C362.051 48.2642 362.654 48.4283 363.171 48.7564C363.692 49.0845 364.096 49.5452 364.384 50.1385C364.676 50.7318 364.822 51.4261 364.822 52.2216C364.822 53.0104 364.676 53.6998 364.384 54.2898C364.096 54.8797 363.692 55.3388 363.171 55.6669C362.654 55.995 362.051 56.1591 361.362 56.1591ZM361.362 55.1051C361.885 55.1051 362.316 54.9709 362.654 54.7024C362.992 54.4339 363.243 54.081 363.405 53.6435C363.567 53.206 363.649 52.732 363.649 52.2216C363.649 51.7112 363.567 51.2356 363.405 50.7947C363.243 50.3539 362.992 49.9976 362.654 49.7259C362.316 49.4541 361.885 49.3182 361.362 49.3182C360.838 49.3182 360.407 49.4541 360.069 49.7259C359.731 49.9976 359.481 50.3539 359.318 50.7947C359.156 51.2356 359.075 51.7112 359.075 52.2216C359.075 52.732 359.156 53.206 359.318 53.6435C359.481 54.081 359.731 54.4339 360.069 54.7024C360.407 54.9709 360.838 55.1051 361.362 55.1051ZM366.613 56V48.3636H367.746V49.517H367.826C367.965 49.1392 368.217 48.8326 368.582 48.5973C368.946 48.362 369.357 48.2443 369.815 48.2443C369.901 48.2443 370.009 48.246 370.138 48.2493C370.267 48.2526 370.365 48.2576 370.431 48.2642V49.4574C370.391 49.4474 370.3 49.4325 370.158 49.4126C370.018 49.3894 369.871 49.3778 369.715 49.3778C369.344 49.3778 369.013 49.4557 368.721 49.6115C368.433 49.764 368.204 49.9761 368.035 50.2479C367.869 50.5163 367.786 50.8229 367.786 51.1676V56H366.613ZM374.791 56.1591C374.055 56.1591 373.421 55.9967 372.887 55.6719C372.357 55.3438 371.947 54.8864 371.659 54.2997C371.374 53.7098 371.232 53.0237 371.232 52.2415C371.232 51.4593 371.374 50.7699 371.659 50.1733C371.947 49.5734 372.348 49.1061 372.862 48.7713C373.379 48.4332 373.982 48.2642 374.672 48.2642C375.07 48.2642 375.462 48.3305 375.85 48.4631C376.238 48.5956 376.591 48.8111 376.909 49.1094C377.227 49.4044 377.481 49.7955 377.67 50.2827C377.859 50.7699 377.953 51.3698 377.953 52.0824V52.5795H372.067V51.5653H376.76C376.76 51.1345 376.674 50.75 376.501 50.4119C376.332 50.0739 376.09 49.8071 375.776 49.6115C375.464 49.416 375.096 49.3182 374.672 49.3182C374.205 49.3182 373.8 49.4342 373.459 49.6662C373.121 49.8949 372.861 50.1932 372.678 50.5611C372.496 50.929 372.405 51.3234 372.405 51.7443V52.4205C372.405 52.9972 372.504 53.486 372.703 53.8871C372.905 54.2848 373.185 54.5881 373.543 54.7969C373.901 55.0024 374.317 55.1051 374.791 55.1051C375.099 55.1051 375.378 55.062 375.626 54.9759C375.878 54.8864 376.095 54.7538 376.278 54.5781C376.46 54.3991 376.601 54.1771 376.7 53.9119L377.834 54.2301C377.714 54.6146 377.514 54.9527 377.232 55.2443C376.951 55.5327 376.603 55.758 376.188 55.9205C375.774 56.0795 375.308 56.1591 374.791 56.1591ZM383.675 56V48.3636H384.849V56H383.675ZM384.272 47.0909C384.043 47.0909 383.846 47.013 383.68 46.8572C383.518 46.7015 383.437 46.5142 383.437 46.2955C383.437 46.0767 383.518 45.8894 383.68 45.7337C383.846 45.5779 384.043 45.5 384.272 45.5C384.501 45.5 384.696 45.5779 384.859 45.7337C385.024 45.8894 385.107 46.0767 385.107 46.2955C385.107 46.5142 385.024 46.7015 384.859 46.8572C384.696 47.013 384.501 47.0909 384.272 47.0909ZM390.219 45.679C390.637 45.6823 391.055 45.7618 391.472 45.9176C391.89 46.0734 392.271 46.3319 392.616 46.6932C392.96 47.0511 393.237 47.54 393.446 48.1598C393.655 48.7796 393.759 49.5568 393.759 50.4915C393.759 51.3963 393.673 52.2 393.501 52.9027C393.331 53.602 393.086 54.192 392.765 54.6726C392.447 55.1532 392.059 55.5178 391.601 55.7663C391.147 56.0149 390.634 56.1392 390.06 56.1392C389.49 56.1392 388.981 56.0265 388.534 55.8011C388.09 55.5724 387.725 55.2559 387.44 54.8516C387.158 54.4439 386.978 53.9716 386.898 53.4347H388.111C388.221 53.902 388.438 54.2881 388.763 54.593C389.091 54.8946 389.523 55.0455 390.06 55.0455C390.846 55.0455 391.465 54.7024 391.92 54.0163C392.377 53.3303 392.606 52.3608 392.606 51.108H392.526C392.34 51.3864 392.12 51.6267 391.865 51.8288C391.61 52.031 391.326 52.1868 391.015 52.2962C390.703 52.4055 390.372 52.4602 390.02 52.4602C389.437 52.4602 388.902 52.3161 388.415 52.0277C387.931 51.736 387.543 51.3366 387.251 50.8295C386.963 50.3191 386.819 49.7358 386.819 49.0795C386.819 48.4564 386.958 47.8864 387.236 47.3693C387.518 46.849 387.912 46.4347 388.42 46.1264C388.93 45.8182 389.53 45.669 390.219 45.679ZM390.219 46.7727C389.802 46.7727 389.425 46.8771 389.091 47.0859C388.759 47.2914 388.496 47.5698 388.3 47.9212C388.108 48.2692 388.012 48.6553 388.012 49.0795C388.012 49.5038 388.105 49.8899 388.29 50.2379C388.479 50.5826 388.736 50.8577 389.061 51.0632C389.389 51.2654 389.762 51.3665 390.18 51.3665C390.494 51.3665 390.788 51.3052 391.059 51.1825C391.331 51.0566 391.568 50.8859 391.77 50.6705C391.976 50.4517 392.137 50.2048 392.253 49.9297C392.369 49.6513 392.427 49.3613 392.427 49.0597C392.427 48.6619 392.331 48.2891 392.138 47.9411C391.949 47.593 391.688 47.3113 391.353 47.0959C391.021 46.8804 390.644 46.7727 390.219 46.7727Z"
    fill="#00395C"
    fill-opacity="0.8"
  />
  <rect
    x="196.5"
    y="85.5"
    width="82"
    height="27"
    rx="3.5"
    stroke="#004269"
    stroke-opacity="0.28"
  />
  <path d="M196 85H198V113H196V85Z" fill="#F5B800" />
  <path
    d="M205.233 104V93.8182H208.673C209.469 93.8182 210.122 93.9541 210.632 94.2259C211.143 94.4943 211.52 94.8639 211.766 95.3345C212.011 95.8052 212.134 96.3404 212.134 96.9403C212.134 97.5402 212.011 98.0722 211.766 98.5362C211.52 99.0002 211.144 99.3648 210.637 99.63C210.13 99.8918 209.482 100.023 208.693 100.023H205.909V98.9091H208.653C209.197 98.9091 209.634 98.8295 209.966 98.6705C210.301 98.5114 210.543 98.286 210.692 97.9943C210.844 97.6993 210.92 97.348 210.92 96.9403C210.92 96.5327 210.844 96.1764 210.692 95.8714C210.539 95.5665 210.296 95.3312 209.961 95.1655C209.626 94.9964 209.184 94.9119 208.634 94.9119H206.466V104H205.233ZM210.026 99.4261L212.531 104H211.099L208.634 99.4261H210.026ZM213.631 94.9119V93.8182H221.268V94.9119H218.066V104H216.833V94.9119H213.631ZM223.767 93.8182L226.392 98.054H226.472L229.097 93.8182H230.548L227.347 98.9091L230.548 104H229.097L226.472 99.8438H226.392L223.767 104H222.315L225.597 98.9091L222.315 93.8182H223.767ZM235.673 101.912V100.898L240.147 93.8182H240.883V95.3892H240.386L237.005 100.739V100.818H243.031V101.912H235.673ZM240.465 104V101.604V101.131V93.8182H241.639V104H240.465ZM248.215 104.139C247.466 104.139 246.828 103.935 246.301 103.528C245.774 103.117 245.371 102.522 245.093 101.743C244.814 100.961 244.675 100.016 244.675 98.9091C244.675 97.8087 244.814 96.8691 245.093 96.0902C245.374 95.308 245.779 94.7114 246.306 94.3004C246.836 93.8861 247.472 93.679 248.215 93.679C248.957 93.679 249.592 93.8861 250.119 94.3004C250.649 94.7114 251.054 95.308 251.332 96.0902C251.614 96.8691 251.755 97.8087 251.755 98.9091C251.755 100.016 251.615 100.961 251.337 101.743C251.059 102.522 250.656 103.117 250.129 103.528C249.602 103.935 248.964 104.139 248.215 104.139ZM248.215 103.045C248.957 103.045 249.534 102.687 249.945 101.972C250.356 101.256 250.561 100.235 250.561 98.9091C250.561 98.0275 250.467 97.2768 250.278 96.657C250.092 96.0372 249.824 95.5649 249.473 95.2401C249.125 94.9152 248.705 94.7528 248.215 94.7528C247.479 94.7528 246.904 95.1158 246.49 95.8416C246.075 96.5642 245.868 97.5866 245.868 98.9091C245.868 99.7907 245.961 100.54 246.147 101.156C246.332 101.773 246.599 102.242 246.947 102.563C247.298 102.885 247.721 103.045 248.215 103.045ZM257.025 104.139C256.607 104.133 256.189 104.053 255.772 103.901C255.354 103.748 254.973 103.491 254.628 103.13C254.283 102.765 254.007 102.273 253.798 101.653C253.589 101.03 253.485 100.248 253.485 99.3068C253.485 98.4053 253.569 97.6065 253.738 96.9105C253.907 96.2112 254.153 95.6229 254.474 95.1456C254.796 94.665 255.183 94.3004 255.637 94.0518C256.095 93.8033 256.61 93.679 257.184 93.679C257.754 93.679 258.261 93.7933 258.705 94.022C259.152 94.2474 259.517 94.5623 259.799 94.9666C260.08 95.371 260.263 95.8366 260.346 96.3636H259.132C259.02 95.9062 258.801 95.5268 258.476 95.2251C258.151 94.9235 257.721 94.7727 257.184 94.7727C256.395 94.7727 255.773 95.1158 255.319 95.8018C254.868 96.4879 254.641 97.4508 254.638 98.6903H254.718C254.903 98.4086 255.124 98.1683 255.379 97.9695C255.637 97.7673 255.922 97.6115 256.234 97.5021C256.546 97.3928 256.875 97.3381 257.223 97.3381C257.807 97.3381 258.34 97.4839 258.824 97.7756C259.308 98.0639 259.696 98.4633 259.988 98.9737C260.279 99.4808 260.425 100.062 260.425 100.719C260.425 101.348 260.284 101.925 260.002 102.449C259.721 102.969 259.325 103.384 258.814 103.692C258.307 103.997 257.711 104.146 257.025 104.139ZM257.025 103.045C257.442 103.045 257.817 102.941 258.148 102.732C258.483 102.523 258.746 102.243 258.939 101.892C259.134 101.541 259.232 101.15 259.232 100.719C259.232 100.298 259.137 99.915 258.949 99.5703C258.763 99.2223 258.506 98.9455 258.178 98.7401C257.853 98.5346 257.482 98.4318 257.064 98.4318C256.749 98.4318 256.456 98.4948 256.184 98.6207C255.913 98.7434 255.674 98.9124 255.468 99.1278C255.266 99.3433 255.107 99.5902 254.991 99.8686C254.875 100.144 254.817 100.434 254.817 100.739C254.817 101.143 254.912 101.521 255.1 101.872C255.293 102.223 255.555 102.507 255.886 102.722C256.221 102.938 256.6 103.045 257.025 103.045ZM265.701 104.139C264.952 104.139 264.314 103.935 263.787 103.528C263.26 103.117 262.857 102.522 262.579 101.743C262.301 100.961 262.161 100.016 262.161 98.9091C262.161 97.8087 262.301 96.8691 262.579 96.0902C262.861 95.308 263.265 94.7114 263.792 94.3004C264.322 93.8861 264.959 93.679 265.701 93.679C266.444 93.679 267.078 93.8861 267.605 94.3004C268.136 94.7114 268.54 95.308 268.818 96.0902C269.1 96.8691 269.241 97.8087 269.241 98.9091C269.241 100.016 269.102 100.961 268.823 101.743C268.545 102.522 268.142 103.117 267.615 103.528C267.088 103.935 266.45 104.139 265.701 104.139ZM265.701 103.045C266.444 103.045 267.02 102.687 267.431 101.972C267.842 101.256 268.048 100.235 268.048 98.9091C268.048 98.0275 267.953 97.2768 267.764 96.657C267.579 96.0372 267.31 95.5649 266.959 95.2401C266.611 94.9152 266.192 94.7528 265.701 94.7528C264.965 94.7528 264.39 95.1158 263.976 95.8416C263.562 96.5642 263.355 97.5866 263.355 98.9091C263.355 99.7907 263.447 100.54 263.633 101.156C263.819 101.773 264.085 102.242 264.433 102.563C264.785 102.885 265.207 103.045 265.701 103.045Z"
    fill="#00395C"
    fill-opacity="0.8"
  />
  <rect
    x="287.5"
    y="85.5"
    width="80"
    height="27"
    rx="3.5"
    stroke="#004269"
    stroke-opacity="0.28"
  />
  <path d="M287 85H289V113H287V85Z" fill="#F5B800" />
  <path
    d="M296.233 104V93.8182H299.673C300.469 93.8182 301.122 93.9541 301.632 94.2259C302.143 94.4943 302.52 94.8639 302.766 95.3345C303.011 95.8052 303.134 96.3404 303.134 96.9403C303.134 97.5402 303.011 98.0722 302.766 98.5362C302.52 99.0002 302.144 99.3648 301.637 99.63C301.13 99.8918 300.482 100.023 299.693 100.023H296.909V98.9091H299.653C300.197 98.9091 300.634 98.8295 300.966 98.6705C301.301 98.5114 301.543 98.286 301.692 97.9943C301.844 97.6993 301.92 97.348 301.92 96.9403C301.92 96.5327 301.844 96.1764 301.692 95.8714C301.539 95.5665 301.296 95.3312 300.961 95.1655C300.626 94.9964 300.184 94.9119 299.634 94.9119H297.466V104H296.233ZM301.026 99.4261L303.531 104H302.099L299.634 99.4261H301.026ZM304.631 94.9119V93.8182H312.268V94.9119H309.066V104H307.833V94.9119H304.631ZM314.767 93.8182L317.392 98.054H317.472L320.097 93.8182H321.548L318.347 98.9091L321.548 104H320.097L317.472 99.8438H317.392L314.767 104H313.315L316.597 98.9091L313.315 93.8182H314.767ZM326.673 101.912V100.898L331.147 93.8182H331.883V95.3892H331.386L328.005 100.739V100.818H334.031V101.912H326.673ZM331.465 104V101.604V101.131V93.8182H332.639V104H331.465ZM339.215 104.139C338.466 104.139 337.828 103.935 337.301 103.528C336.774 103.117 336.371 102.522 336.093 101.743C335.814 100.961 335.675 100.016 335.675 98.9091C335.675 97.8087 335.814 96.8691 336.093 96.0902C336.374 95.308 336.779 94.7114 337.306 94.3004C337.836 93.8861 338.472 93.679 339.215 93.679C339.957 93.679 340.592 93.8861 341.119 94.3004C341.649 94.7114 342.054 95.308 342.332 96.0902C342.614 96.8691 342.755 97.8087 342.755 98.9091C342.755 100.016 342.615 100.961 342.337 101.743C342.059 102.522 341.656 103.117 341.129 103.528C340.602 103.935 339.964 104.139 339.215 104.139ZM339.215 103.045C339.957 103.045 340.534 102.687 340.945 101.972C341.356 101.256 341.561 100.235 341.561 98.9091C341.561 98.0275 341.467 97.2768 341.278 96.657C341.092 96.0372 340.824 95.5649 340.473 95.2401C340.125 94.9152 339.705 94.7528 339.215 94.7528C338.479 94.7528 337.904 95.1158 337.49 95.8416C337.075 96.5642 336.868 97.5866 336.868 98.9091C336.868 99.7907 336.961 100.54 337.147 101.156C337.332 101.773 337.599 102.242 337.947 102.563C338.298 102.885 338.721 103.045 339.215 103.045ZM344.689 104L349.243 94.9915V94.9119H343.993V93.8182H350.515V94.9716L345.981 104H344.689ZM355.471 104.139C354.722 104.139 354.084 103.935 353.557 103.528C353.03 103.117 352.627 102.522 352.349 101.743C352.07 100.961 351.931 100.016 351.931 98.9091C351.931 97.8087 352.07 96.8691 352.349 96.0902C352.63 95.308 353.035 94.7114 353.562 94.3004C354.092 93.8861 354.728 93.679 355.471 93.679C356.213 93.679 356.848 93.8861 357.375 94.3004C357.905 94.7114 358.309 95.308 358.588 96.0902C358.87 96.8691 359.01 97.8087 359.01 98.9091C359.01 100.016 358.871 100.961 358.593 101.743C358.314 102.522 357.912 103.117 357.385 103.528C356.858 103.935 356.22 104.139 355.471 104.139ZM355.471 103.045C356.213 103.045 356.79 102.687 357.201 101.972C357.612 101.256 357.817 100.235 357.817 98.9091C357.817 98.0275 357.723 97.2768 357.534 96.657C357.348 96.0372 357.08 95.5649 356.729 95.2401C356.381 94.9152 355.961 94.7528 355.471 94.7528C354.735 94.7528 354.16 95.1158 353.746 95.8416C353.331 96.5642 353.124 97.5866 353.124 98.9091C353.124 99.7907 353.217 100.54 353.403 101.156C353.588 101.773 353.855 102.242 354.203 102.563C354.554 102.885 354.977 103.045 355.471 103.045Z"
    fill="#00395C"
    fill-opacity="0.8"
  />
  <rect
    x="376.5"
    y="85.5"
    width="81"
    height="27"
    rx="3.5"
    stroke="#004269"
    stroke-opacity="0.28"
  />
  <path d="M376 85H378V113H376V85Z" fill="#F5B800" />
  <path
    d="M385.233 104V93.8182H388.673C389.469 93.8182 390.122 93.9541 390.632 94.2259C391.143 94.4943 391.52 94.8639 391.766 95.3345C392.011 95.8052 392.134 96.3404 392.134 96.9403C392.134 97.5402 392.011 98.0722 391.766 98.5362C391.52 99.0002 391.144 99.3648 390.637 99.63C390.13 99.8918 389.482 100.023 388.693 100.023H385.909V98.9091H388.653C389.197 98.9091 389.634 98.8295 389.966 98.6705C390.301 98.5114 390.543 98.286 390.692 97.9943C390.844 97.6993 390.92 97.348 390.92 96.9403C390.92 96.5327 390.844 96.1764 390.692 95.8714C390.539 95.5665 390.296 95.3312 389.961 95.1655C389.626 94.9964 389.184 94.9119 388.634 94.9119H386.466V104H385.233ZM390.026 99.4261L392.531 104H391.099L388.634 99.4261H390.026ZM393.631 94.9119V93.8182H401.268V94.9119H398.066V104H396.833V94.9119H393.631ZM403.767 93.8182L406.392 98.054H406.472L409.097 93.8182H410.548L407.347 98.9091L410.548 104H409.097L406.472 99.8438H406.392L403.767 104H402.315L405.597 98.9091L402.315 93.8182H403.767ZM415.673 101.912V100.898L420.147 93.8182H420.883V95.3892H420.386L417.005 100.739V100.818H423.031V101.912H415.673ZM420.465 104V101.604V101.131V93.8182H421.639V104H420.465ZM428.215 104.139C427.466 104.139 426.828 103.935 426.301 103.528C425.774 103.117 425.371 102.522 425.093 101.743C424.814 100.961 424.675 100.016 424.675 98.9091C424.675 97.8087 424.814 96.8691 425.093 96.0902C425.374 95.308 425.779 94.7114 426.306 94.3004C426.836 93.8861 427.472 93.679 428.215 93.679C428.957 93.679 429.592 93.8861 430.119 94.3004C430.649 94.7114 431.054 95.308 431.332 96.0902C431.614 96.8691 431.755 97.8087 431.755 98.9091C431.755 100.016 431.615 100.961 431.337 101.743C431.059 102.522 430.656 103.117 430.129 103.528C429.602 103.935 428.964 104.139 428.215 104.139ZM428.215 103.045C428.957 103.045 429.534 102.687 429.945 101.972C430.356 101.256 430.561 100.235 430.561 98.9091C430.561 98.0275 430.467 97.2768 430.278 96.657C430.092 96.0372 429.824 95.5649 429.473 95.2401C429.125 94.9152 428.705 94.7528 428.215 94.7528C427.479 94.7528 426.904 95.1158 426.49 95.8416C426.075 96.5642 425.868 97.5866 425.868 98.9091C425.868 99.7907 425.961 100.54 426.147 101.156C426.332 101.773 426.599 102.242 426.947 102.563C427.298 102.885 427.721 103.045 428.215 103.045ZM436.905 104.139C436.222 104.139 435.619 104.018 435.096 103.776C434.575 103.531 434.169 103.195 433.877 102.767C433.586 102.336 433.442 101.846 433.445 101.295C433.442 100.865 433.526 100.467 433.699 100.102C433.871 99.7344 434.106 99.4278 434.404 99.1825C434.706 98.9339 435.042 98.7765 435.414 98.7102V98.6506C434.926 98.5246 434.539 98.2512 434.25 97.8303C433.962 97.406 433.819 96.9238 433.823 96.3835C433.819 95.8665 433.95 95.4041 434.216 94.9964C434.481 94.5888 434.845 94.2673 435.309 94.032C435.777 93.7966 436.309 93.679 436.905 93.679C437.495 93.679 438.022 93.7966 438.486 94.032C438.95 94.2673 439.315 94.5888 439.58 94.9964C439.848 95.4041 439.984 95.8665 439.988 96.3835C439.984 96.9238 439.837 97.406 439.545 97.8303C439.257 98.2512 438.874 98.5246 438.397 98.6506V98.7102C438.765 98.7765 439.096 98.9339 439.391 99.1825C439.686 99.4278 439.921 99.7344 440.097 100.102C440.273 100.467 440.362 100.865 440.365 101.295C440.362 101.846 440.213 102.336 439.918 102.767C439.626 103.195 439.22 103.531 438.7 103.776C438.183 104.018 437.585 104.139 436.905 104.139ZM436.905 103.045C437.366 103.045 437.764 102.971 438.098 102.822C438.433 102.673 438.692 102.462 438.874 102.19C439.056 101.919 439.149 101.6 439.152 101.236C439.149 100.851 439.05 100.512 438.854 100.217C438.658 99.9216 438.392 99.6896 438.054 99.5206C437.719 99.3516 437.336 99.267 436.905 99.267C436.471 99.267 436.083 99.3516 435.742 99.5206C435.404 99.6896 435.137 99.9216 434.941 100.217C434.749 100.512 434.655 100.851 434.658 101.236C434.655 101.6 434.743 101.919 434.922 102.19C435.104 102.462 435.364 102.673 435.702 102.822C436.04 102.971 436.441 103.045 436.905 103.045ZM436.905 98.2131C437.27 98.2131 437.593 98.1402 437.875 97.9943C438.16 97.8485 438.383 97.6446 438.546 97.3828C438.708 97.121 438.791 96.8144 438.794 96.4631C438.791 96.1184 438.71 95.8184 438.551 95.5632C438.392 95.3047 438.171 95.1058 437.89 94.9666C437.608 94.8241 437.28 94.7528 436.905 94.7528C436.524 94.7528 436.191 94.8241 435.906 94.9666C435.621 95.1058 435.4 95.3047 435.245 95.5632C435.089 95.8184 435.013 96.1184 435.016 96.4631C435.013 96.8144 435.091 97.121 435.25 97.3828C435.412 97.6446 435.636 97.8485 435.921 97.9943C436.206 98.1402 436.534 98.2131 436.905 98.2131ZM445.592 104.139C444.843 104.139 444.205 103.935 443.678 103.528C443.151 103.117 442.748 102.522 442.47 101.743C442.191 100.961 442.052 100.016 442.052 98.9091C442.052 97.8087 442.191 96.8691 442.47 96.0902C442.751 95.308 443.156 94.7114 443.683 94.3004C444.213 93.8861 444.849 93.679 445.592 93.679C446.334 93.679 446.969 93.8861 447.496 94.3004C448.026 94.7114 448.431 95.308 448.709 96.0902C448.991 96.8691 449.132 97.8087 449.132 98.9091C449.132 100.016 448.992 100.961 448.714 101.743C448.436 102.522 448.033 103.117 447.506 103.528C446.979 103.935 446.341 104.139 445.592 104.139ZM445.592 103.045C446.334 103.045 446.911 102.687 447.322 101.972C447.733 101.256 447.938 100.235 447.938 98.9091C447.938 98.0275 447.844 97.2768 447.655 96.657C447.469 96.0372 447.201 95.5649 446.85 95.2401C446.502 94.9152 446.082 94.7528 445.592 94.7528C444.856 94.7528 444.281 95.1158 443.867 95.8416C443.452 96.5642 443.245 97.5866 443.245 98.9091C443.245 99.7907 443.338 100.54 443.524 101.156C443.709 101.773 443.976 102.242 444.324 102.563C444.675 102.885 445.098 103.045 445.592 103.045Z"
    fill="#00395C"
    fill-opacity="0.8"
  />
  <rect
    x="466.5"
    y="85.5"
    width="82"
    height="27"
    rx="3.5"
    stroke="#004269"
    stroke-opacity="0.28"
  />
  <path d="M466 85H468V113H466V85Z" fill="#F5B800" />
  <path
    d="M475.233 104V93.8182H478.673C479.469 93.8182 480.122 93.9541 480.632 94.2259C481.143 94.4943 481.52 94.8639 481.766 95.3345C482.011 95.8052 482.134 96.3404 482.134 96.9403C482.134 97.5402 482.011 98.0722 481.766 98.5362C481.52 99.0002 481.144 99.3648 480.637 99.63C480.13 99.8918 479.482 100.023 478.693 100.023H475.909V98.9091H478.653C479.197 98.9091 479.634 98.8295 479.966 98.6705C480.301 98.5114 480.543 98.286 480.692 97.9943C480.844 97.6993 480.92 97.348 480.92 96.9403C480.92 96.5327 480.844 96.1764 480.692 95.8714C480.539 95.5665 480.296 95.3312 479.961 95.1655C479.626 94.9964 479.184 94.9119 478.634 94.9119H476.466V104H475.233ZM480.026 99.4261L482.531 104H481.099L478.634 99.4261H480.026ZM483.631 94.9119V93.8182H491.268V94.9119H488.066V104H486.833V94.9119H483.631ZM493.767 93.8182L496.392 98.054H496.472L499.097 93.8182H500.548L497.347 98.9091L500.548 104H499.097L496.472 99.8438H496.392L493.767 104H492.315L495.597 98.9091L492.315 93.8182H493.767ZM505.673 101.912V100.898L510.147 93.8182H510.883V95.3892H510.386L507.005 100.739V100.818H513.031V101.912H505.673ZM510.465 104V101.604V101.131V93.8182H511.639V104H510.465ZM518.215 104.139C517.466 104.139 516.828 103.935 516.301 103.528C515.774 103.117 515.371 102.522 515.093 101.743C514.814 100.961 514.675 100.016 514.675 98.9091C514.675 97.8087 514.814 96.8691 515.093 96.0902C515.374 95.308 515.779 94.7114 516.306 94.3004C516.836 93.8861 517.472 93.679 518.215 93.679C518.957 93.679 519.592 93.8861 520.119 94.3004C520.649 94.7114 521.054 95.308 521.332 96.0902C521.614 96.8691 521.755 97.8087 521.755 98.9091C521.755 100.016 521.615 100.961 521.337 101.743C521.059 102.522 520.656 103.117 520.129 103.528C519.602 103.935 518.964 104.139 518.215 104.139ZM518.215 103.045C518.957 103.045 519.534 102.687 519.945 101.972C520.356 101.256 520.561 100.235 520.561 98.9091C520.561 98.0275 520.467 97.2768 520.278 96.657C520.092 96.0372 519.824 95.5649 519.473 95.2401C519.125 94.9152 518.705 94.7528 518.215 94.7528C517.479 94.7528 516.904 95.1158 516.49 95.8416C516.075 96.5642 515.868 97.5866 515.868 98.9091C515.868 99.7907 515.961 100.54 516.147 101.156C516.332 101.773 516.599 102.242 516.947 102.563C517.298 102.885 517.721 103.045 518.215 103.045ZM526.885 93.679C527.303 93.6823 527.721 93.7618 528.138 93.9176C528.556 94.0734 528.937 94.3319 529.282 94.6932C529.626 95.0511 529.903 95.54 530.112 96.1598C530.321 96.7796 530.425 97.5568 530.425 98.4915C530.425 99.3963 530.339 100.2 530.167 100.903C529.998 101.602 529.752 102.192 529.431 102.673C529.113 103.153 528.725 103.518 528.267 103.766C527.813 104.015 527.3 104.139 526.726 104.139C526.156 104.139 525.647 104.027 525.2 103.801C524.756 103.572 524.391 103.256 524.106 102.852C523.824 102.444 523.644 101.972 523.564 101.435H524.777C524.887 101.902 525.104 102.288 525.429 102.593C525.757 102.895 526.189 103.045 526.726 103.045C527.512 103.045 528.132 102.702 528.586 102.016C529.043 101.33 529.272 100.361 529.272 99.108H529.192C529.007 99.3864 528.786 99.6267 528.531 99.8288C528.276 100.031 527.992 100.187 527.681 100.296C527.369 100.406 527.038 100.46 526.686 100.46C526.103 100.46 525.568 100.316 525.081 100.028C524.597 99.736 524.209 99.3366 523.917 98.8295C523.629 98.3191 523.485 97.7358 523.485 97.0795C523.485 96.4564 523.624 95.8864 523.902 95.3693C524.184 94.849 524.578 94.4347 525.086 94.1264C525.596 93.8182 526.196 93.669 526.885 93.679ZM526.885 94.7727C526.468 94.7727 526.092 94.8771 525.757 95.0859C525.425 95.2914 525.162 95.5698 524.966 95.9212C524.774 96.2692 524.678 96.6553 524.678 97.0795C524.678 97.5038 524.771 97.8899 524.956 98.2379C525.145 98.5826 525.402 98.8577 525.727 99.0632C526.055 99.2654 526.428 99.3665 526.846 99.3665C527.16 99.3665 527.454 99.3052 527.725 99.1825C527.997 99.0566 528.234 98.8859 528.436 98.6705C528.642 98.4517 528.803 98.2048 528.919 97.9297C529.035 97.6513 529.093 97.3613 529.093 97.0597C529.093 96.6619 528.997 96.2891 528.804 95.9411C528.615 95.593 528.354 95.3113 528.019 95.0959C527.687 94.8804 527.31 94.7727 526.885 94.7727ZM535.701 104.139C534.952 104.139 534.314 103.935 533.787 103.528C533.26 103.117 532.857 102.522 532.579 101.743C532.301 100.961 532.161 100.016 532.161 98.9091C532.161 97.8087 532.301 96.8691 532.579 96.0902C532.861 95.308 533.265 94.7114 533.792 94.3004C534.322 93.8861 534.959 93.679 535.701 93.679C536.444 93.679 537.078 93.8861 537.605 94.3004C538.136 94.7114 538.54 95.308 538.818 96.0902C539.1 96.8691 539.241 97.8087 539.241 98.9091C539.241 100.016 539.102 100.961 538.823 101.743C538.545 102.522 538.142 103.117 537.615 103.528C537.088 103.935 536.45 104.139 535.701 104.139ZM535.701 103.045C536.444 103.045 537.02 102.687 537.431 101.972C537.842 101.256 538.048 100.235 538.048 98.9091C538.048 98.0275 537.953 97.2768 537.764 96.657C537.579 96.0372 537.31 95.5649 536.959 95.2401C536.611 94.9152 536.192 94.7528 535.701 94.7528C534.965 94.7528 534.39 95.1158 533.976 95.8416C533.562 96.5642 533.355 97.5866 533.355 98.9091C533.355 99.7907 533.447 100.54 533.633 101.156C533.819 101.773 534.085 102.242 534.433 102.563C534.785 102.885 535.207 103.045 535.701 103.045Z"
    fill="#00395C"
    fill-opacity="0.8"
  />
  <rect
    x="196.5"
    y="133.5"
    width="46"
    height="27"
    rx="3.5"
    stroke="#004269"
    stroke-opacity="0.28"
  />
  <path d="M196 133H198V161H196V133Z" fill="#B4D50B" />
  <path
    d="M205.233 152V141.818H206.466V146.352H211.895V141.818H213.128V152H211.895V147.446H206.466V152H205.233ZM218.738 152H215.596V141.818H218.877C219.865 141.818 220.71 142.022 221.413 142.43C222.116 142.834 222.654 143.416 223.029 144.175C223.403 144.93 223.591 145.835 223.591 146.889C223.591 147.95 223.402 148.863 223.024 149.629C222.646 150.391 222.096 150.978 221.373 151.388C220.651 151.796 219.772 152 218.738 152ZM216.829 150.906H218.659C219.501 150.906 220.198 150.744 220.752 150.419C221.305 150.094 221.718 149.632 221.99 149.032C222.261 148.432 222.397 147.718 222.397 146.889C222.397 146.067 222.263 145.36 221.995 144.766C221.726 144.17 221.325 143.712 220.792 143.394C220.258 143.073 219.593 142.912 218.798 142.912H216.829V150.906ZM228.801 152H225.659V141.818H228.94C229.928 141.818 230.773 142.022 231.475 142.43C232.178 142.834 232.717 143.416 233.091 144.175C233.466 144.93 233.653 145.835 233.653 146.889C233.653 147.95 233.464 148.863 233.086 149.629C232.708 150.391 232.158 150.978 231.436 151.388C230.713 151.796 229.835 152 228.801 152ZM226.892 150.906H228.721C229.563 150.906 230.261 150.744 230.814 150.419C231.368 150.094 231.78 149.632 232.052 149.032C232.324 148.432 232.46 147.718 232.46 146.889C232.46 146.067 232.326 145.36 232.057 144.766C231.789 144.17 231.388 143.712 230.854 143.394C230.32 143.073 229.656 142.912 228.86 142.912H226.892V150.906Z"
    fill="#00395C"
    fill-opacity="0.8"
  />
  <rect
    x="251.5"
    y="133.5"
    width="43"
    height="27"
    rx="3.5"
    stroke="#004269"
    stroke-opacity="0.28"
  />
  <path d="M251 133H253V161H251V133Z" fill="#B4D50B" />
  <path
    d="M265.801 144.364C265.741 143.86 265.5 143.469 265.075 143.19C264.651 142.912 264.131 142.773 263.514 142.773C263.063 142.773 262.669 142.846 262.331 142.991C261.996 143.137 261.734 143.338 261.545 143.593C261.36 143.848 261.267 144.138 261.267 144.463C261.267 144.735 261.332 144.969 261.461 145.164C261.594 145.356 261.763 145.517 261.968 145.646C262.174 145.772 262.389 145.877 262.614 145.96C262.84 146.039 263.047 146.104 263.236 146.153L264.27 146.432C264.535 146.501 264.83 146.598 265.155 146.72C265.483 146.843 265.796 147.01 266.094 147.222C266.396 147.431 266.645 147.7 266.84 148.028C267.036 148.356 267.134 148.759 267.134 149.236C267.134 149.786 266.989 150.283 266.701 150.727C266.416 151.171 265.998 151.524 265.448 151.786C264.901 152.048 264.237 152.179 263.455 152.179C262.725 152.179 262.094 152.061 261.56 151.826C261.03 151.591 260.612 151.263 260.308 150.842C260.006 150.421 259.835 149.932 259.795 149.375H261.068C261.101 149.759 261.231 150.078 261.456 150.33C261.685 150.578 261.973 150.764 262.321 150.886C262.672 151.006 263.05 151.065 263.455 151.065C263.925 151.065 264.348 150.989 264.722 150.837C265.097 150.681 265.393 150.465 265.612 150.19C265.831 149.912 265.94 149.587 265.94 149.216C265.94 148.878 265.846 148.603 265.657 148.391C265.468 148.179 265.219 148.006 264.911 147.874C264.603 147.741 264.27 147.625 263.912 147.526L262.659 147.168C261.864 146.939 261.234 146.612 260.77 146.188C260.306 145.764 260.074 145.209 260.074 144.523C260.074 143.953 260.228 143.455 260.536 143.031C260.848 142.604 261.265 142.272 261.789 142.037C262.316 141.798 262.904 141.679 263.554 141.679C264.21 141.679 264.794 141.797 265.304 142.032C265.814 142.264 266.219 142.582 266.517 142.987C266.819 143.391 266.978 143.85 266.994 144.364H265.801ZM274.729 144.364C274.669 143.86 274.427 143.469 274.003 143.19C273.579 142.912 273.058 142.773 272.442 142.773C271.991 142.773 271.597 142.846 271.259 142.991C270.924 143.137 270.662 143.338 270.473 143.593C270.288 143.848 270.195 144.138 270.195 144.463C270.195 144.735 270.259 144.969 270.389 145.164C270.521 145.356 270.69 145.517 270.896 145.646C271.101 145.772 271.317 145.877 271.542 145.96C271.767 146.039 271.975 146.104 272.164 146.153L273.198 146.432C273.463 146.501 273.758 146.598 274.083 146.72C274.411 146.843 274.724 147.01 275.022 147.222C275.324 147.431 275.572 147.7 275.768 148.028C275.963 148.356 276.061 148.759 276.061 149.236C276.061 149.786 275.917 150.283 275.629 150.727C275.344 151.171 274.926 151.524 274.376 151.786C273.829 152.048 273.164 152.179 272.382 152.179C271.653 152.179 271.022 152.061 270.488 151.826C269.958 151.591 269.54 151.263 269.235 150.842C268.934 150.421 268.763 149.932 268.723 149.375H269.996C270.029 149.759 270.158 150.078 270.384 150.33C270.612 150.578 270.901 150.764 271.249 150.886C271.6 151.006 271.978 151.065 272.382 151.065C272.853 151.065 273.276 150.989 273.65 150.837C274.025 150.681 274.321 150.465 274.54 150.19C274.759 149.912 274.868 149.587 274.868 149.216C274.868 148.878 274.774 148.603 274.585 148.391C274.396 148.179 274.147 148.006 273.839 147.874C273.531 147.741 273.198 147.625 272.84 147.526L271.587 147.168C270.791 146.939 270.162 146.612 269.698 146.188C269.234 145.764 269.002 145.209 269.002 144.523C269.002 143.953 269.156 143.455 269.464 143.031C269.776 142.604 270.193 142.272 270.717 142.037C271.244 141.798 271.832 141.679 272.482 141.679C273.138 141.679 273.721 141.797 274.232 142.032C274.742 142.264 275.146 142.582 275.445 142.987C275.746 143.391 275.905 143.85 275.922 144.364H274.729ZM281.23 152H278.088V141.818H281.37C282.357 141.818 283.203 142.022 283.905 142.43C284.608 142.834 285.146 143.416 285.521 144.175C285.895 144.93 286.083 145.835 286.083 146.889C286.083 147.95 285.894 148.863 285.516 149.629C285.138 150.391 284.588 150.978 283.865 151.388C283.143 151.796 282.265 152 281.23 152ZM279.321 150.906H281.151C281.993 150.906 282.69 150.744 283.244 150.419C283.797 150.094 284.21 149.632 284.482 149.032C284.754 148.432 284.89 147.718 284.89 146.889C284.89 146.067 284.755 145.36 284.487 144.766C284.218 144.17 283.817 143.712 283.284 143.394C282.75 143.073 282.086 142.912 281.29 142.912H279.321V150.906Z"
    fill="#00395C"
    fill-opacity="0.8"
  />
</svg>
