<svg
  width="200"
  height="120"
  viewBox="0 0 200 120"
  fill="none"
  xmlns="http://www.w3.org/2000/svg"
>
  <path
    d="M0 4C0 1.79086 1.79086 0 4 0H196C198.209 0 200 1.79086 200 4V116C200 118.209 198.209 120 196 120H4C1.79086 120 0 118.209 0 116V4Z"
    fill="var(--color-bg-default)"
  />
  <path
    fill-rule="evenodd"
    clip-rule="evenodd"
    d="M106.476 17.8083C106.476 18.2547 106.114 18.6165 105.667 18.6165C105.22 18.6165 104.857 18.2547 104.857 17.8083C104.857 17.3619 105.22 17 105.667 17C106.114 17 106.476 17.3619 106.476 17.8083ZM106.152 17.8083C106.152 18.0761 105.935 18.2932 105.667 18.2932C105.398 18.2932 105.181 18.0761 105.181 17.8083C105.181 17.5404 105.398 17.3233 105.667 17.3233C105.935 17.3233 106.152 17.5404 106.152 17.8083Z"
    fill="var(--color-typo-secondary)"
  />
  <path
    fill-rule="evenodd"
    clip-rule="evenodd"
    d="M77.3333 27.5075C77.3333 27.9539 76.9708 28.3158 76.5238 28.3158C76.0767 28.3158 75.7142 27.9539 75.7142 27.5075C75.7142 27.0611 76.0767 26.6992 76.5238 26.6992C76.9708 26.6992 77.3333 27.0611 77.3333 27.5075ZM77.0095 27.5075C77.0095 27.7754 76.792 27.9925 76.5238 27.9925C76.2555 27.9925 76.038 27.7754 76.038 27.5075C76.038 27.2397 76.2555 27.0226 76.5238 27.0226C76.792 27.0226 77.0095 27.2397 77.0095 27.5075Z"
    fill="var(--color-typo-secondary)"
  />
  <path
    fill-rule="evenodd"
    clip-rule="evenodd"
    d="M123.152 53.2105C123.599 53.2105 123.962 52.8487 123.962 52.4023C123.962 51.9559 123.599 51.594 123.152 51.594C122.705 51.594 122.343 51.9559 122.343 52.4023C122.343 52.8487 122.705 53.2105 123.152 53.2105ZM123.152 52.8872C123.421 52.8872 123.638 52.6701 123.638 52.4023C123.638 52.1344 123.421 51.9173 123.152 51.9173C122.884 51.9173 122.667 52.1344 122.667 52.4023C122.667 52.6701 122.884 52.8872 123.152 52.8872Z"
    fill="var(--color-typo-secondary)"
  />
  <path
    fill-rule="evenodd"
    clip-rule="evenodd"
    d="M87.3714 53.3722C87.3714 53.8186 87.0089 54.1804 86.5619 54.1804C86.1148 54.1804 85.7523 53.8186 85.7523 53.3722C85.7523 52.9258 86.1148 52.5639 86.5619 52.5639C87.0089 52.5639 87.3714 52.9258 87.3714 53.3722ZM87.0476 53.3722C87.0476 53.64 86.8301 53.8571 86.5619 53.8571C86.2936 53.8571 86.0761 53.64 86.0761 53.3722C86.0761 53.1043 86.2936 52.8872 86.5619 52.8872C86.8301 52.8872 87.0476 53.1043 87.0476 53.3722Z"
    fill="var(--color-typo-secondary)"
  />
  <path
    fill-rule="evenodd"
    clip-rule="evenodd"
    d="M151 88.7744C151.447 88.7744 151.809 88.4126 151.809 87.9662C151.809 87.5198 151.447 87.1579 151 87.1579C150.553 87.1579 150.19 87.5198 150.19 87.9662C150.19 88.4126 150.553 88.7744 151 88.7744ZM151 88.4511C151.268 88.4511 151.486 88.234 151.486 87.9662C151.486 87.6983 151.268 87.4812 151 87.4812C150.732 87.4812 150.514 87.6983 150.514 87.9662C150.514 88.234 150.732 88.4511 151 88.4511Z"
    fill="var(--color-typo-secondary)"
  />
  <path
    fill-rule="evenodd"
    clip-rule="evenodd"
    d="M146.629 34.297C146.629 34.7434 146.266 35.1053 145.819 35.1053C145.372 35.1053 145.009 34.7434 145.009 34.297C145.009 33.8506 145.372 33.4887 145.819 33.4887C146.266 33.4887 146.629 33.8506 146.629 34.297ZM146.305 34.297C146.305 34.5648 146.087 34.782 145.819 34.782C145.551 34.782 145.333 34.5648 145.333 34.297C145.333 34.0292 145.551 33.812 145.819 33.812C146.087 33.812 146.305 34.0292 146.305 34.297Z"
    fill="var(--color-typo-secondary)"
  />
  <path
    fill-rule="evenodd"
    clip-rule="evenodd"
    d="M65.5142 67.7594C65.9613 67.7594 66.3238 67.3975 66.3238 66.9511C66.3238 66.5047 65.9613 66.1429 65.5142 66.1429C65.0672 66.1429 64.7047 66.5047 64.7047 66.9511C64.7047 67.3975 65.0672 67.7594 65.5142 67.7594ZM65.5142 67.4361C65.7825 67.4361 66 67.219 66 66.9511C66 66.6833 65.7825 66.4662 65.5142 66.4662C65.246 66.4662 65.0285 66.6833 65.0285 66.9511C65.0285 67.219 65.246 67.4361 65.5142 67.4361Z"
    fill="var(--color-typo-secondary)"
  />
  <path
    fill-rule="evenodd"
    clip-rule="evenodd"
    d="M49.8095 53.6955C49.8095 54.1419 49.447 54.5038 49 54.5038C48.5529 54.5038 48.1904 54.1419 48.1904 53.6955C48.1904 53.2491 48.5529 52.8872 49 52.8872C49.447 52.8872 49.8095 53.2491 49.8095 53.6955ZM49.4857 53.6955C49.4857 53.9633 49.2682 54.1804 49 54.1804C48.7317 54.1804 48.5142 53.9633 48.5142 53.6955C48.5142 53.4276 48.7317 53.2105 49 53.2105C49.2682 53.2105 49.4857 53.4276 49.4857 53.6955Z"
    fill="var(--color-typo-secondary)"
  />
  <path
    d="M120.039 18.6218L119.606 19.9456C119.463 20.3826 119.068 20.6886 118.609 20.7184C118.017 20.7567 117.508 21.1507 117.324 21.7134L116.891 23.0372C116.863 23.122 116.91 23.2133 116.995 23.241C117.08 23.2687 117.171 23.2224 117.199 23.1375L117.632 21.8138C117.775 21.3768 118.17 21.0708 118.629 21.041C119.221 21.0027 119.73 20.6086 119.914 20.046L120.347 18.7222C120.375 18.6374 120.328 18.5461 120.243 18.5184C120.158 18.4907 120.067 18.537 120.039 18.6218Z"
    fill="var(--color-typo-secondary)"
  />
  <path
    d="M142.329 44.7077L143.244 43.8677C143.31 43.8072 143.314 43.7049 143.253 43.6392C143.193 43.5735 143.09 43.5693 143.025 43.6297L142.11 44.4698C141.609 44.9302 141.459 45.6594 141.738 46.2798C141.96 46.7734 141.84 47.3533 141.442 47.7196L140.527 48.5596C140.461 48.6201 140.457 48.7223 140.518 48.788C140.578 48.8537 140.68 48.858 140.746 48.7976L141.661 47.9575C142.162 47.497 142.312 46.7679 142.033 46.1474C141.811 45.6539 141.93 45.074 142.329 44.7077Z"
    fill="var(--color-typo-secondary)"
  />
  <path
    d="M50.0055 43.6124L50.6196 44.6911C50.8873 45.1615 51.4264 45.408 51.9579 45.3031C52.6262 45.1713 53.304 45.4812 53.6406 46.0725L54.2546 47.1512C54.2988 47.2288 54.2716 47.3275 54.1939 47.3716C54.1161 47.4158 54.0173 47.3886 53.9731 47.311L53.3591 46.2323C53.0914 45.7619 52.5523 45.5154 52.0207 45.6203C51.3524 45.7521 50.6746 45.4422 50.338 44.8509L49.724 43.7722C49.6798 43.6946 49.707 43.5959 49.7848 43.5518C49.8625 43.5076 49.9613 43.5348 50.0055 43.6124Z"
    fill="var(--color-typo-secondary)"
  />
  <path
    d="M65.7421 44.3368C65.305 44.3973 64.9393 44.0082 65.0275 43.5765L65.1248 43.1008C65.1427 43.0134 65.0861 42.928 64.9985 42.9101C64.9109 42.8923 64.8254 42.9487 64.8075 43.0362L64.7103 43.5119C64.5773 44.1621 65.1283 44.7482 65.7866 44.657L65.821 44.6522C66.2567 44.5918 66.6137 44.9934 66.502 45.4182C66.3315 46.0662 66.8761 46.6787 67.5407 46.5866C67.9764 46.5262 68.3334 46.9278 68.2216 47.3526C68.0512 48.0005 68.5957 48.6131 69.2603 48.521C69.696 48.4606 70.053 48.8622 69.9413 49.287C69.7708 49.9349 70.3154 50.5474 70.98 50.4553C71.4157 50.3949 71.7727 50.7965 71.6609 51.2213C71.4905 51.8692 72.035 52.4818 72.6996 52.3897L72.734 52.3849C73.1711 52.3243 73.5368 52.7135 73.4486 53.1452L73.3513 53.6208C73.3334 53.7083 73.39 53.7937 73.4776 53.8116C73.5652 53.8294 73.6507 53.773 73.6686 53.6855L73.7658 53.2098C73.8988 52.5596 73.3478 51.9734 72.6895 52.0647L72.6551 52.0694C72.2194 52.1298 71.8624 51.7282 71.9741 51.3035C72.1446 50.6555 71.6 50.043 70.9354 50.1351C70.4997 50.1955 70.1427 49.7939 70.2545 49.3691C70.4249 48.7212 69.8804 48.1086 69.2158 48.2007C68.7801 48.2611 68.4231 47.8595 68.5348 47.4347C68.7053 46.7868 68.1607 46.1742 67.4961 46.2664C67.0604 46.3267 66.7034 45.9251 66.8152 45.5004C66.9856 44.8524 66.4411 44.2399 65.7765 44.332L65.7421 44.3368Z"
    fill="var(--color-typo-secondary)"
  />
  <path
    d="M131.76 29.3936C131.329 29.4904 131.124 29.983 131.359 30.3562L131.377 30.3855C131.734 30.9528 131.398 31.7 130.736 31.8107C130.302 31.8832 130.082 32.373 130.316 32.745C130.673 33.3123 130.337 34.0595 129.675 34.1701C129.241 34.2427 129.021 34.7325 129.255 35.1045C129.612 35.6718 129.276 36.419 128.614 36.5296C128.18 36.6021 127.96 37.092 128.194 37.4639C128.55 38.0313 128.214 38.7784 127.553 38.8891C127.119 38.9616 126.898 39.4514 127.132 39.8234L127.151 39.8527C127.504 40.4148 127.195 41.1569 126.546 41.3027L126.072 41.4093C125.985 41.4289 125.898 41.3742 125.879 41.2871C125.859 41.2 125.914 41.1135 126.001 41.0939L126.475 40.9872C126.906 40.8905 127.111 40.3978 126.877 40.0247L126.858 39.9953C126.501 39.428 126.837 38.6808 127.499 38.5702C127.933 38.4977 128.153 38.0078 127.919 37.6359C127.563 37.0685 127.899 36.3214 128.56 36.2107C128.994 36.1382 129.214 35.6483 128.981 35.2764C128.624 34.7091 128.96 33.9619 129.622 33.8513C130.055 33.7787 130.276 33.2889 130.042 32.9169C129.685 32.3496 130.021 31.6024 130.683 31.4918C131.117 31.4193 131.337 30.9294 131.103 30.5575L131.085 30.5281C130.731 29.9661 131.04 29.2239 131.689 29.0782L132.163 28.9716C132.25 28.952 132.337 29.0067 132.357 29.0938C132.376 29.1809 132.322 29.2674 132.234 29.287L131.76 29.3936Z"
    fill="var(--color-typo-secondary)"
  />
  <path
    d="M85.7139 19.0552C85.2905 18.9311 85.1171 18.4263 85.3752 18.069L85.6596 17.6752C85.7119 17.6027 85.6955 17.5017 85.623 17.4495C85.5504 17.3973 85.4492 17.4137 85.3969 17.4861L85.1126 17.8799C84.7238 18.4182 84.985 19.1786 85.6228 19.3654L85.6561 19.3752C86.0782 19.4988 86.2384 20.0114 85.9618 20.3529C85.5398 20.8737 85.7843 21.6555 86.4281 21.8441C86.8502 21.9678 87.0104 22.4804 86.7338 22.8218C86.3118 23.3426 86.5563 24.1245 87.2001 24.3131C87.6221 24.4367 87.7824 24.9493 87.5058 25.2907C87.0838 25.8116 87.3283 26.5934 87.9721 26.782C88.3941 26.9057 88.5544 27.4182 88.2778 27.7597C87.8558 28.2805 88.1002 29.0623 88.744 29.251L88.7773 29.2607C89.2008 29.3847 89.3741 29.8895 89.1161 30.2469L88.8317 30.6407C88.7794 30.7131 88.7958 30.8142 88.8683 30.8664C88.9409 30.9186 89.0421 30.9022 89.0943 30.8298L89.3787 30.436C89.7675 29.8977 89.5063 29.1373 88.8685 28.9505L88.8352 28.9407C88.4131 28.8171 88.2528 28.3045 88.5295 27.963C88.9515 27.4422 88.707 26.6604 88.0632 26.4718C87.6411 26.3481 87.4809 25.8355 87.7575 25.4941C88.1795 24.9733 87.935 24.1914 87.2912 24.0028C86.8691 23.8792 86.7089 23.3666 86.9855 23.0251C87.4075 22.5043 87.163 21.7225 86.5192 21.5339C86.0972 21.4102 85.9369 20.8977 86.2135 20.5562C86.6355 20.0354 86.3911 19.2535 85.7473 19.0649L85.7139 19.0552Z"
    fill="var(--color-typo-secondary)"
  />
  <path
    d="M140.8 62.9098C141.515 62.9098 142.095 62.3308 142.095 61.6165C142.095 60.9023 141.515 60.3233 140.8 60.3233C140.085 60.3233 139.505 60.9023 139.505 61.6165C139.505 62.3308 140.085 62.9098 140.8 62.9098Z"
    fill="var(--color-typo-secondary)"
  />
  <path
    d="M60.4952 91.3609C61.2105 91.3609 61.7904 90.7819 61.7904 90.0677C61.7904 89.3534 61.2105 88.7744 60.4952 88.7744C59.7799 88.7744 59.2 89.3534 59.2 90.0677C59.2 90.7819 59.7799 91.3609 60.4952 91.3609Z"
    fill="var(--color-typo-secondary)"
  />
  <path
    fill-rule="evenodd"
    clip-rule="evenodd"
    d="M111.981 39.6316C111.981 41.5957 110.386 43.188 108.419 43.188C108.082 43.188 107.757 43.1413 107.448 43.0542C107.739 43.7911 107.9 44.594 107.9 45.4343C107.9 46.6756 107.55 47.8354 106.944 48.8211C106.581 49.4125 106.125 49.9411 105.596 50.3871C104.466 51.3418 103.003 51.9173 101.406 51.9173C97.9999 51.9173 95.206 49.298 94.935 45.9664C94.4957 45.8837 94.1714 45.5939 94.1714 45.2491C94.1714 44.8934 94.5165 44.5963 94.9769 44.5247C95.3338 41.9867 97.1625 39.9203 99.5736 39.2132C100.155 39.0428 100.77 38.9513 101.406 38.9513C102.68 38.9513 103.869 39.3176 104.871 39.9504C104.862 39.8454 104.857 39.739 104.857 39.6316C104.857 37.6674 106.452 36.0752 108.419 36.0752C110.386 36.0752 111.981 37.6674 111.981 39.6316ZM98.9972 40.1152C97.209 40.924 95.9008 42.6052 95.6182 44.6146L95.5514 45.0897L95.0766 45.1636C94.9687 45.1803 94.8932 45.2173 94.8498 45.2491C94.8897 45.2783 94.9576 45.3126 95.0549 45.3309L95.5405 45.4223L95.5805 45.914C95.8244 48.9127 98.34 51.2707 101.406 51.2707C102.748 51.2707 103.984 50.8195 104.97 50.0608C104.077 49.5599 103.255 48.945 102.526 48.2359C102.671 48.0806 102.8 47.8996 102.907 47.6964C103.406 46.7449 103.222 45.6657 102.496 45.2859C101.912 44.9805 101.156 45.2203 100.622 45.8206C99.6261 44.1436 99.0388 42.1963 98.9972 40.1152ZM94.8115 45.2854C94.8115 45.2854 94.8119 45.2849 94.8124 45.2839C94.8121 45.2844 94.8115 45.2854 94.8115 45.2854Z"
    fill="var(--color-typo-secondary)"
  />
  <path
    fill-rule="evenodd"
    clip-rule="evenodd"
    d="M73.4476 70.0226L65.6761 85.218L73.4476 86.9049V96.5338L103.238 103L103.562 102.922V102.921L129.79 96.5338V85.9672L139.505 83.6015L129.79 70.0226L116.159 67.0638C114.601 58.9584 108.713 53.1194 102.256 53.6834C102.148 53.6928 102.041 53.704 101.933 53.7169L101.943 53.6955C97.2406 54.2823 89.8711 57.9319 87.0968 66.6986L73.4476 70.0226ZM73.7975 70.7602L66.6353 84.7645L95.1167 90.9465L102.279 76.9423L73.7975 70.7602ZM74.8927 70.3362L86.0345 72.7546C86.0684 71.8087 86.184 70.7413 86.4 69.5376C86.5321 68.8008 86.6943 68.094 86.8833 67.4162L74.8927 70.3362ZM116.28 67.7518C116.362 68.2657 116.427 68.7881 116.473 69.3178C116.591 70.6674 116.585 71.9903 116.465 73.2675L128.354 70.3724L116.28 67.7518ZM93.0262 74.0942C93.0248 74.1563 93.0237 74.2154 93.023 74.2715L92.3776 74.1314L92.3787 74.0794C92.3916 73.5167 92.434 72.7235 92.5518 71.7974C92.787 69.9494 93.3252 67.553 94.5454 65.4048C94.6337 65.2495 94.8313 65.195 94.9868 65.2831C95.1424 65.3712 95.197 65.5685 95.1088 65.7238C93.9461 67.7706 93.4239 70.0749 93.1943 71.8789C93.0798 72.7789 93.0387 73.5495 93.0262 74.0942ZM102.914 77.1219V102.268L74.0952 96.0127V87.0454L95.4666 91.6842L102.914 77.1219ZM129.143 96.026L103.562 102.256V77.0754L103.644 77.0555L112.952 90.0677L129.143 86.1249V96.026ZM113.225 89.3358L104.321 76.8905L129.518 70.7544L138.421 83.1997L113.225 89.3358Z"
    fill="var(--color-typo-secondary)"
  />
</svg>
