<svg
  width="200"
  height="120"
  viewBox="0 0 200 120"
  fill="none"
  xmlns="http://www.w3.org/2000/svg"
>
  <g clip-path="url(#clip0_1889_15823)">
    <path
      d="M0 4C0 1.79086 1.79086 0 4 0H196C198.209 0 200 1.79086 200 4V116C200 118.209 198.209 120 196 120H4C1.79086 120 0 118.209 0 116V4Z"
      fill="var(--color-bg-secondary)"
    />
    <path
      d="M24 32C24 29.7909 25.7909 28 28 28H199V116C199 117.657 197.657 119 196 119H24V32Z"
      fill="var(--color-bg-default)"
    />
    <rect x="43" y="67" width="50" height="2" fill="var(--color-bg-link)" />
    <path
      d="M50.994 59H49.8729V50.5303C49.7863 50.6169 49.6587 50.7171 49.4901 50.8311C49.326 50.9404 49.1391 51.0498 48.9295 51.1592C48.7244 51.2686 48.5057 51.3711 48.2733 51.4668C48.0454 51.5625 47.8221 51.6377 47.6033 51.6924V50.5576C47.8494 50.4893 48.1092 50.3981 48.3826 50.2842C48.6606 50.1657 48.9318 50.0358 49.1961 49.8945C49.465 49.7487 49.7179 49.5983 49.9549 49.4434C50.1919 49.2839 50.397 49.1289 50.5701 48.9785H50.994V59Z"
      fill="var(--color-bg-brand)"
    />
    <rect
      x="85"
      y="52"
      width="4"
      height="26"
      transform="rotate(90 85 52)"
      fill="var(--color-bg-link)"
    />
    <rect
      x="105"
      y="67"
      width="50"
      height="2"
      fill="var(--color-control-typo-disable)"
    />
    <path
      d="M113.378 51.7676C113.378 51.4668 113.331 51.2048 113.235 50.9814C113.144 50.7581 113.016 50.5736 112.852 50.4277C112.692 50.2773 112.503 50.1657 112.285 50.0928C112.066 50.0199 111.829 49.9834 111.574 49.9834C111.355 49.9834 111.141 50.013 110.931 50.0723C110.721 50.1315 110.516 50.2135 110.316 50.3184C110.12 50.4232 109.928 50.5485 109.742 50.6943C109.559 50.8402 109.388 51.002 109.229 51.1797V49.9766C109.543 49.6712 109.894 49.4388 110.282 49.2793C110.674 49.1152 111.15 49.0332 111.71 49.0332C112.111 49.0332 112.483 49.0924 112.825 49.2109C113.166 49.3249 113.463 49.4935 113.713 49.7168C113.964 49.9401 114.16 50.2158 114.301 50.5439C114.447 50.8721 114.52 51.248 114.52 51.6719C114.52 52.0592 114.474 52.4102 114.383 52.7246C114.297 53.0391 114.162 53.3353 113.98 53.6133C113.802 53.8913 113.577 54.1579 113.303 54.4131C113.03 54.6683 112.708 54.9281 112.339 55.1924C111.879 55.5205 111.498 55.8008 111.198 56.0332C110.901 56.2656 110.664 56.4844 110.487 56.6895C110.314 56.89 110.191 57.0928 110.118 57.2979C110.049 57.4984 110.015 57.7308 110.015 57.9951H114.896V59H108.846V58.5146C108.846 58.0954 108.892 57.7262 108.983 57.4072C109.074 57.0882 109.224 56.7852 109.434 56.498C109.644 56.2109 109.917 55.9238 110.254 55.6367C110.596 55.3496 111.013 55.026 111.505 54.666C111.861 54.4108 112.157 54.167 112.394 53.9346C112.636 53.7021 112.829 53.4697 112.975 53.2373C113.121 53.0049 113.223 52.7702 113.283 52.5332C113.346 52.2917 113.378 52.0365 113.378 51.7676Z"
      fill="var(--color-control-typo-disable)"
    />
    <rect
      width="4"
      height="26"
      transform="translate(148 52) rotate(90)"
      fill="var(--color-bg-ghost)"
    />
    <rect
      x="148"
      y="52"
      width="4"
      height="26"
      transform="rotate(90 148 52)"
      fill="var(--color-bg-ghost)"
    />
    <rect
      x="167"
      y="67"
      width="50"
      height="2"
      fill="var(--color-control-typo-disable)"
    />
    <path
      d="M176.616 56.2246C176.616 56.6667 176.531 57.07 176.363 57.4346C176.199 57.7946 175.964 58.1045 175.659 58.3643C175.358 58.6195 174.996 58.8177 174.572 58.959C174.148 59.1003 173.681 59.1709 173.17 59.1709C172.236 59.1709 171.493 58.9932 170.942 58.6377V57.4346C171.603 57.9541 172.359 58.2139 173.211 58.2139C173.553 58.2139 173.861 58.1706 174.134 58.084C174.412 57.9974 174.649 57.8721 174.845 57.708C175.046 57.5439 175.198 57.3457 175.303 57.1133C175.413 56.8809 175.467 56.6188 175.467 56.3271C175.467 55.0465 174.556 54.4062 172.733 54.4062H171.919V53.4561H172.692C174.305 53.4561 175.112 52.8545 175.112 51.6514C175.112 50.5394 174.497 49.9834 173.266 49.9834C172.573 49.9834 171.924 50.2158 171.318 50.6807V49.5938C171.942 49.2201 172.685 49.0332 173.546 49.0332C173.956 49.0332 174.328 49.0902 174.661 49.2041C174.993 49.318 175.278 49.4775 175.515 49.6826C175.752 49.8877 175.934 50.1338 176.062 50.4209C176.194 50.708 176.26 51.0247 176.26 51.3711C176.26 52.6608 175.608 53.4902 174.305 53.8594V53.8867C174.638 53.9232 174.945 54.0052 175.228 54.1328C175.511 54.2559 175.754 54.4176 175.959 54.6182C176.164 54.8187 176.324 55.0557 176.438 55.3291C176.556 55.598 176.616 55.8965 176.616 56.2246Z"
      fill="var(--color-control-typo-disable)"
    />
    <rect
      width="4"
      height="26"
      transform="translate(210 52) rotate(90)"
      fill="var(--color-bg-ghost)"
    />
    <rect
      x="210"
      y="52"
      width="4"
      height="26"
      transform="rotate(90 210 52)"
      fill="var(--color-bg-ghost)"
    />
    <rect x="43" y="92" width="164" height="34" fill="var(--color-bg-ghost)" />
  </g>
  <defs>
    <clipPath id="clip0_1889_15823">
      <rect width="200" height="120" fill="var(--color-bg-default)" />
    </clipPath>
  </defs>
</svg>
