<svg width="12" height="12" viewBox="0 0 12 12" fill="none" xmlns="http://www.w3.org/2000/svg">
  <path
    d="M6 5C7.19274 5 8.3171 4.82041 9.17955 4.49699C9.46618 4.3895 9.74738 4.25743 10 4.0948V9.5C10 10.3284 8.20914 11 6 11C3.79086 11 2 10.3284 2 9.5V4.0948C2.25262 4.25743 2.53382 4.3895 2.82045 4.49699C3.6829 4.82041 4.80726 5 6 5Z"
    fill="black"
  />
  <path
    d="M2 2.5C2 1.67157 3.79086 1 6 1C8.20914 1 10 1.67157 10 2.5C10 3.32843 8.20914 4 6 4C3.79086 4 2 3.32843 2 2.5Z"
    fill="black"
  />
</svg>
