<svg width="16" height="16" viewBox="0 0 16 16" fill="none" xmlns="http://www.w3.org/2000/svg">
  <path
    d="M8 7C9.85491 7 11.628 6.69052 13.0119 6.11392C13.3468 5.97436 13.6816 5.80976 14 5.6155V13.5C14 14.8807 11.3137 16 8 16C4.68629 16 2 14.8807 2 13.5V5.6155C2.31839 5.80976 2.65319 5.97436 2.98813 6.11392C4.37196 6.69052 6.14509 7 8 7Z"
    fill="black"
  />
  <path
    d="M2 2.5C2 1.11929 4.68629 0 8 0C11.3137 0 14 1.11929 14 2.5C14 3.88071 11.3137 5 8 5C4.68629 5 2 3.88071 2 2.5Z"
    fill="black"
  />
</svg>
