<svg width="24" height="24" viewBox="0 0 24 24" fill="none" xmlns="http://www.w3.org/2000/svg">
  <path
    d="M12 10C14.3137 10 16.4562 9.59168 18.0577 8.89103C18.8119 8.56106 19.4863 8.14869 20 7.64803V19.5C20 21.433 16.4183 23 12 23C7.58172 23 4 21.433 4 19.5L4 7.64803C4.51371 8.14869 5.1881 8.56106 5.94233 8.89103C7.54381 9.59168 9.6863 10 12 10Z"
    fill="black"
  />
  <path
    d="M4 4.5C4 2.567 7.58172 1 12 1C16.4183 1 20 2.567 20 4.5C20 6.433 16.4183 8 12 8C7.58172 8 4 6.433 4 4.5Z"
    fill="black"
  />
</svg>
