<svg viewBox="0 0 30 40" xmlns="http://www.w3.org/2000/svg"><path d="M28 0H2a2 2 0 00-2 2v36a2 2 0 002 2h26a2 2 0 002-2V2a2 2 0 00-2-2z"></path><path fill="#fff" d="M7 17h2v2H7v-2zm0 4h2v2H7v-2zm0 4h2v2H7v-2zm0 4h2v2H7v-2zm4-12h2v2h-2v-2zm0 4h2v2h-2v-2zm0 4h2v2h-2v-2zm0 4h2v2h-2v-2zm4-12h2v2h-2v-2zm0 4h2v2h-2v-2zm0 4h2v2h-2v-2zm0 4h2v2h-2v-2zm4-12h2v2h-2v-2zm0 4h2v2h-2v-2zm0 4h2v2h-2v-2zm0 4h2v2h-2v-2zM9 19h2v2H9v-2zm0 4h2v2H9v-2zm0 4h2v2H9v-2zm0 4h2v2H9v-2zm4-12h2v2h-2v-2zm0 4h2v2h-2v-2zm0 4h2v2h-2v-2zm0 4h2v2h-2v-2zm4-12h2v2h-2v-2zm0 4h2v2h-2v-2zm0 4h2v2h-2v-2zm0 4h2v2h-2v-2zm4-12h2v2h-2v-2zm0 4h2v2h-2v-2zm0 4h2v2h-2v-2zm0 4h2v2h-2v-2z" opacity=".6"></path><path fill="#fff" fill-rule="evenodd" d="M8.8 6v.24c.207-.16.473-.24.8-.24h.7c.587 0 1.017.127 1.29.38.273.247.41.653.41 1.22v1.8c0 .56-.14.967-.42 1.22-.273.253-.7.38-1.28.38H9.01v2H8V6h.8zm.85 1c-.22 0-.383.06-.49.18a.53.53 0 00-.16.37L9.01 10h1.24c.247 0 .433-.057.56-.17.127-.113.19-.273.19-.48v-1.7c0-.207-.063-.367-.19-.48-.127-.113-.313-.17-.56-.17h-.6zM14 6v.24c.207-.16.473-.24.8-.24h.6c.54 0 .94.127 1.2.38.267.253.4.66.4 1.22V11h-1V7.65c0-.2-.06-.357-.18-.47-.113-.12-.27-.18-.47-.18h-.7c-.22 0-.383.06-.49.18a.53.53 0 00-.16.37V11h-1V6h1zm6.25 5c.293 0 .543-.067.75-.2v.2c0 1 0 1-1 1h-1.5v1H21a1 1 0 001-1V6h-2.3c-.58 0-1.01.127-1.29.38-.273.253-.41.66-.41 1.22v1.8c0 .567.137.977.41 1.23.273.247.703.37 1.29.37h.55zm.59-1.17c-.107.113-.27.17-.49.17h-.6c-.247 0-.433-.057-.56-.17-.127-.113-.19-.273-.19-.48v-1.7c0-.207.063-.367.19-.48.127-.113.313-.17.56-.17H21v2.45c0 .133-.053.26-.16.38z" clip-rule="evenodd"></path></svg>