<svg viewBox="0 0 16 16" xmlns="http://www.w3.org/2000/svg">
  <path
    clip-rule="evenodd"
    d="M5.719 7.453L3.597 9.574a2 2 0 002.829 2.829l1.408-1.408c.42.112.855.154 1.286.128L7.133 13.11A3 3 0 012.89 8.867l2.121-2.121a3 3 0 014.83.828l-.264.263a.996.996 0 01-.587.286 2 2 0 00-3.271-.67zm1.027 1.8a2.995 2.995 0 01-.586-.827l.263-.263a.996.996 0 01.588-.286 2 2 0 003.271.67l2.121-2.121a2 2 0 00-2.828-2.829L8.166 5.005a4.018 4.018 0 00-1.286-.127L8.867 2.89a3 3 0 114.243 4.243l-2.121 2.12a3 3 0 01-4.243 0z"
  />
</svg>
