<svg viewBox="0 0 34 40" xmlns="http://www.w3.org/2000/svg">
  <path
    d="M31.7333 0H2.26667C1.01482 0 0 0.89543 0 2V38C0 39.1046 1.01482 40 2.26667 40H31.7333C32.9852 40 34 39.1046 34 38V2C34 0.89543 32.9852 0 31.7333 0Z"
  />
  <path
    opacity="0.6"
    fill-rule="evenodd"
    clip-rule="evenodd"
    d="M8 20H26V19H8V20ZM8 24H26V23H8V24ZM26 28H8V27H26V28ZM8 32H17V31H8V32Z"
    fill="white"
  />
  <path
    d="M22.35 6C22.2433 6 22.1567 6.03 22.09 6.09C22.03 6.14333 22 6.21333 22 6.3V7H23V8H22V11H23V12H20V11H21V8H20V7H21V6.1C21 5.76 21.0967 5.49333 21.29 5.3C21.4833 5.1 21.7333 5 22.04 5L24 5V6L22.35 6Z"
    fill="white"
  />
  <path
    d="M17.05 11.9996C16.71 11.9996 16.45 11.8896 16.27 11.6696C16.09 11.4496 16 11.1596 16 10.7996V7.9998H15V6.99961H16V6H17V6.99961H19V7.9998H17V10.6C17 10.7467 17.0367 10.85 17.11 10.91C17.1833 10.97 17.2967 11 17.45 11L19 11.0004V12L17.05 11.9996Z"
    fill="white"
  />
  <path
    d="M11 8.01V11H10V12H13V11H12V8.62C12.0067 8.48 12.0633 8.34333 12.17 8.21C12.2767 8.07 12.4367 8 12.65 8H14V7H12C11.6867 7 11.22 7.32 11 7.5V7H10V8.01H11Z"
    fill="white"
  />
</svg>
