<svg viewBox="0 0 21 28" xmlns="http://www.w3.org/2000/svg">
  <path
    d="M19.6 0H1.4C0.626801 0 0 0.626801 0 1.4V26.6C0 27.3732 0.626801 28 1.4 28H19.6C20.3732 28 21 27.3732 21 26.6V1.4C21 0.626801 20.3732 0 19.6 0Z"
  />
  <path
    fill-rule="evenodd"
    clip-rule="evenodd"
    d="M16.35 3C16.2433 3 16.1567 3.03 16.09 3.09C16.03 3.14333 16 3.21333 16 3.3V4H17V5H16V8H17V9H14V8H15V5H14V4H15V3.1C15 2.76 15.0967 2.49333 15.29 2.3C15.4833 2.1 15.7333 2 16.04 2H17.5V3L16.35 3ZM11.05 8.99961C10.71 8.99961 10.45 8.88961 10.27 8.66961C10.09 8.44961 10 8.15961 10 7.79961V4.9998H9.00002V3.99961H10V3H11V3.99961H13V4.9998H11V7.6C11 7.74667 11.0367 7.85 11.11 7.91C11.1833 7.97 11.2967 8 11.45 8L13 8.00039V9L11.05 8.99961ZM5 5.01V8H4V9H7V8H6V5.62C6.00667 5.48 6.06333 5.34333 6.17 5.21C6.27667 5.07 6.43667 5 6.65 5H8V4H6C5.68667 4 5.22 4.32 5 4.5V4H4V5.01H5Z"
    fill="#fff"
  />
  <g opacity="0.5">
    <path d="M3 14H18V13H3V14Z" fill="#fff" />
    <path d="M3 17H18V16H3V17Z" fill="#fff" />
    <path d="M18 20H3V19H18V20Z" fill="#fff" />
    <path d="M3 23H11V22H3V23Z" fill="#fff" />
  </g>
</svg>
