<svg viewBox="0 0 30 40" xmlns="http://www.w3.org/2000/svg">
  <path
    d="M28 0H2C0.89543 0 0 0.89543 0 2V38C0 39.1046 0.89543 40 2 40H28C29.1046 40 30 39.1046 30 38V2C30 0.89543 29.1046 0 28 0Z"
  />
  <path
    opacity="0.6"
    fill-rule="evenodd"
    clip-rule="evenodd"
    d="M7 20H23V19H7V20ZM7 24H23V23H7V24ZM23 28H7V27H23V28ZM7 32H12V31H7V32Z"
    fill="#fff"
  />
  <path
    d="M20.35 6C20.2433 6 20.1567 6.03 20.09 6.09C20.03 6.14333 20 6.21333 20 6.3V7H21V8H20V11H21V12H18V11H19V8H18V7H19V6.1C19 5.76 19.0967 5.49333 19.29 5.3C19.4833 5.1 19.7333 5 20.04 5H21.5V6L20.35 6Z"
    fill="#fff"
  />
  <path
    d="M15.05 11.9996C14.71 11.9996 14.45 11.8896 14.27 11.6696C14.09 11.4496 14 11.1596 14 10.7996V7.9998H13V6.99961H14V6H15V6.99961H17V7.9998H15V10.6C15 10.7467 15.0367 10.85 15.11 10.91C15.1833 10.97 15.2967 11 15.45 11L17 11.0004V12L15.05 11.9996Z"
    fill="#fff"
  />
  <path
    d="M9 8.01V11H8V12H11V11H10V8.62C10.0067 8.48 10.0633 8.34333 10.17 8.21C10.2767 8.07 10.4367 8 10.65 8H12V7H10C9.68667 7 9.22 7.32 9 7.5V7H8V8.01H9Z"
    fill="#fff"
  />
</svg>
