<svg viewBox="0 0 24 28" xmlns="http://www.w3.org/2000/svg">
  <rect width="24" height="28" rx="2" />
  <path
    fill-rule="evenodd"
    clip-rule="evenodd"
    d="M17.35 3C17.2433 3 17.1567 3.03 17.09 3.09C17.03 3.14333 17 3.21333 17 3.3V4H18V5H17V8H18V9H15V8H16V5H15V4H16V3.1C16 2.76 16.0967 2.49333 16.29 2.3C16.4833 2.1 16.7333 2 17.04 2H18.5V3L17.35 3ZM12.05 8.99961C11.71 8.99961 11.45 8.88961 11.27 8.66961C11.09 8.44961 11 8.15961 11 7.79961V4.9998H10V3.99961H11V3H12V3.99961H14V4.9998H12V7.6C12 7.74667 12.0367 7.85 12.11 7.91C12.1833 7.97 12.2967 8 12.45 8L14 8.00039V9L12.05 8.99961ZM6 5.01V8H5V9H8V8H7V5.62C7.00667 5.48 7.06333 5.34333 7.17 5.21C7.27667 5.07 7.43667 5 7.65 5H9V4H7C6.68667 4 6.22 4.32 6 4.5V4H5V5.01H6Z"
    fill="white"
  />
  <g opacity="0.5">
    <path d="M5 14H19V13H5V14Z" fill="white" />
    <path d="M5 17H19V16H5V17Z" fill="white" />
    <path d="M19 20H5V19H19V20Z" fill="white" />
    <path d="M5 23H12V22H5V23Z" fill="white" />
  </g>
</svg>
