<svg viewBox="0 0 21 28" xmlns="http://www.w3.org/2000/svg">
  <path
    d="M19.6 0H1.4A1.4 1.4 0 000 1.4v25.2A1.4 1.4 0 001.4 28h18.2a1.4 1.4 0 001.4-1.4V1.4A1.4 1.4 0 0019.6 0z"
  />
  <path
    fill="#fff"
    d="M3.5 13h14a.5.5 0 010 1h-14a.5.5 0 010-1zm0 3h9a.5.5 0 010 1h-9a.5.5 0 010-1zm0 3h11a.5.5 0 010 1h-11a.5.5 0 010-1zm0 3h7a.5.5 0 010 1h-7a.5.5 0 010-1z"
    opacity=".5"
  />
  <path
    fill="#fff"
    fill-rule="evenodd"
    d="M16.35 3a.374.374 0 00-.26.09.268.268 0 00-.09.21V4h1v1h-1v3h1v1h-3V8h1V5h-1V4h1v-.9c0-.34.097-.607.29-.8.193-.2.443-.3.75-.3h1.46v1h-1.15zm-5.3 6c-.34 0-.6-.11-.78-.33-.18-.22-.27-.51-.27-.87V5H9V4h1V3h1v1h2v1h-2v2.6c0 .147.037.25.11.31.073.06.187.09.34.09H13v1h-1.95zM5 5.01V8H4v1h3V8H6V5.62a.708.708 0 01.17-.41c.107-.14.267-.21.48-.21H8V4H6c-.313 0-.78.32-1 .5V4H4v1.01h1z"
    clip-rule="evenodd"
  />
</svg>
