<svg viewBox="0 0 21 28" xmlns="http://www.w3.org/2000/svg">
  <path
    d="M19.6 0H1.4C0.626801 0 0 0.626801 0 1.4V26.6C0 27.3732 0.626801 28 1.4 28H19.6C20.3732 28 21 27.3732 21 26.6V1.4C21 0.626801 20.3732 0 19.6 0Z"
  />
  <path
    opacity="0.6"
    fill-rule="evenodd"
    clip-rule="evenodd"
    d="M6 14C5.85778 14 5.5 14 5.5 14C5.5 14 5.5 14.3661 5.5 14.5V20.6667L7.5 19L13 24H15.5V14.5C15.5 14.3578 15.5 14 15.5 14C15.5 14 15.1339 14 15 14H6ZM5.5 23.5V22.3333L7.60819 20.5224L11.5 24H6C5.84938 24 5.5 24 5.5 24C5.5 24 5.5 23.6255 5.5 23.5ZM4.5 14.5V22V23.5V24C4.5 24.2762 4.5 25 4.5 25C4.5 25 5.2239 25 5.5 25H6H15H15.5C15.7464 25 16.5 25 16.5 25C16.5 25 16.5 24.3058 16.5 24V23.5V23V14.5C16.5 14.1158 16.5 13 16.5 13C16.5 13 15.4443 13 15 13H6C5.55575 13 4.5 13 4.5 13C4.5 13 4.5 14.1158 4.5 14.5ZM10.5 17.5C10.5 16.6716 11.1716 16 12 16C12.8284 16 13.5 16.6716 13.5 17.5C13.5 18.3284 12.8284 19 12 19C11.1716 19 10.5 18.3284 10.5 17.5ZM12 15C10.6193 15 9.5 16.1193 9.5 17.5C9.5 18.8807 10.6193 20 12 20C13.3807 20 14.5 18.8807 14.5 17.5C14.5 16.1193 13.3807 15 12 15Z"
    fill="#fff"
  />
  <path
    fill-rule="evenodd"
    clip-rule="evenodd"
    d="M6.5 3V2H5.5V3H6.5ZM5.4 9.91C5.34 9.97 5.25667 10 5.15 10H4V11H5.46C5.76667 11 6.01667 10.9 6.21 10.7C6.40333 10.5067 6.5 10.24 6.5 9.9V4H4.5V5H5.5V9.7C5.5 9.78667 5.46667 9.85667 5.4 9.91ZM8.3 4.24V4H7.5V11H8.51V9H9.8C10.38 9 10.8067 8.87333 11.08 8.62C11.36 8.36667 11.5 7.96 11.5 7.4V5.6C11.5 5.03333 11.3633 4.62667 11.09 4.38C10.8167 4.12667 10.3867 4 9.8 4H9.1C8.77333 4 8.50667 4.08 8.3 4.24ZM8.66 5.18C8.76667 5.06 8.93 5 9.15 5H9.75C9.99667 5 10.1833 5.05667 10.31 5.17C10.4367 5.28333 10.5 5.44333 10.5 5.65V7.35C10.5 7.55667 10.4367 7.71667 10.31 7.83C10.1833 7.94333 9.99667 8 9.75 8H8.51L8.5 5.55C8.5 5.41667 8.55333 5.29333 8.66 5.18ZM14.75 9C15.0433 9 15.2933 8.93333 15.5 8.8V9C15.5 10 15.5 10 14.5 10H13V11H15.5C16.0523 11 16.5 10.5523 16.5 10V4H14.2C13.62 4 13.19 4.12667 12.91 4.38C12.6367 4.63333 12.5 5.04 12.5 5.6V7.4C12.5 7.96667 12.6367 8.37667 12.91 8.63C13.1833 8.87667 13.6133 9 14.2 9H14.75ZM15.34 7.83C15.2333 7.94333 15.07 8 14.85 8H14.25C14.0033 8 13.8167 7.94333 13.69 7.83C13.5633 7.71667 13.5 7.55667 13.5 7.35V5.65C13.5 5.44333 13.5633 5.28333 13.69 5.17C13.8167 5.05667 14.0033 5 14.25 5H15.5V7.45C15.5 7.58333 15.4467 7.71 15.34 7.83Z"
    fill="#fff"
  />
</svg>
