<svg viewBox="0 0 21 28" xmlns="http://www.w3.org/2000/svg">
  <path
    d="M19.6 0H1.4A1.4 1.4 0 000 1.4v25.2A1.4 1.4 0 001.4 28h18.2a1.4 1.4 0 001.4-1.4V1.4A1.4 1.4 0 0019.6 0z"
  />
  <path
    fill="#fff"
    fill-rule="evenodd"
    d="M6.5 14a.5.5 0 00-.5.5v6.167L8 19l4.5 4h2a.5.5 0 00.5-.5v-8a.5.5 0 00-.5-.5h-8zM6 22.5v-.167l2.108-1.81L11 23H6.5a.5.5 0 01-.5-.5zm-1-8V23a1 1 0 001 1h9a1 1 0 001-1v-8.5a1.5 1.5 0 00-1.5-1.5h-8A1.5 1.5 0 005 14.5zm5 3a1.5 1.5 0 113 0 1.5 1.5 0 01-3 0zm1.5-2.5a2.5 2.5 0 100 5 2.5 2.5 0 000-5z"
    clip-rule="evenodd"
    opacity=".6"
  />
  <path
    fill="#fff"
    fill-rule="evenodd"
    d="M7 3V2H6v1h1zM5.9 9.91a.338.338 0 01-.25.09H4.5v1h1.46c.307 0 .557-.1.75-.3.193-.193.29-.46.29-.8V4H5v1h1v4.7a.256.256 0 01-.1.21zm2.9-5.67V4H8v7h1.01V9h1.29c.58 0 1.007-.127 1.28-.38.28-.253.42-.66.42-1.22V5.6c0-.567-.137-.973-.41-1.22-.273-.253-.703-.38-1.29-.38h-.7c-.327 0-.593.08-.8.24zm.36.94c.107-.12.27-.18.49-.18h.6c.247 0 .433.057.56.17.127.113.19.273.19.48v1.7c0 .207-.063.367-.19.48-.127.113-.313.17-.56.17H9.01L9 5.55a.53.53 0 01.16-.37zM15.25 9c.293 0 .543-.067.75-.2V9c0 1 0 1-1 1h-1.5v1H16a1 1 0 001-1V4h-2.3c-.58 0-1.01.127-1.29.38-.273.253-.41.66-.41 1.22v1.8c0 .567.137.977.41 1.23.273.247.703.37 1.29.37h.55zm.59-1.17c-.107.113-.27.17-.49.17h-.6c-.247 0-.433-.057-.56-.17-.127-.113-.19-.273-.19-.48v-1.7c0-.207.063-.367.19-.48.127-.113.313-.17.56-.17H16v2.45c0 .133-.053.26-.16.38z"
    clip-rule="evenodd"
  />
</svg>
