<svg viewBox="0 0 24 28" xmlns="http://www.w3.org/2000/svg">
  <rect width="24" height="28" rx="2" />
  <path
    opacity="0.6"
    fill-rule="evenodd"
    clip-rule="evenodd"
    d="M6.5 14C6.35778 14 6 14 6 14C6 14 6 14.3661 6 14.5V20.6667L9 18L15.5 24H18V14.5C18 14.3578 18 14 18 14C18 14 17.6339 14 17.5 14H6.5ZM6 23.5V22.3333L9 19.5224L14 24H6.5C6.34938 24 6 24 6 24C6 24 6 23.6255 6 23.5ZM5 14.5V22V23.5V24C5 24.2762 5 25 5 25C5 25 5.7239 25 6 25H6.5H17.5H18C18.2464 25 19 25 19 25C19 25 19 24.3058 19 24V23.5V23V14.5C19 14.1158 19 13 19 13C19 13 17.9443 13 17.5 13H6.5C6.05575 13 5 13 5 13C5 13 5 14.1158 5 14.5ZM13 17.5C13 16.6716 13.6716 16 14.5 16C15.3284 16 16 16.6716 16 17.5C16 18.3284 15.3284 19 14.5 19C13.6716 19 13 18.3284 13 17.5ZM14.5 15C13.1193 15 12 16.1193 12 17.5C12 18.8807 13.1193 20 14.5 20C15.8807 20 17 18.8807 17 17.5C17 16.1193 15.8807 15 14.5 15Z"
    fill="white"
  />
  <path
    fill-rule="evenodd"
    clip-rule="evenodd"
    d="M8 3V2H7V3H8ZM6.9 9.91C6.84 9.97 6.75667 10 6.65 10H5.5V11H6.96C7.26667 11 7.51667 10.9 7.71 10.7C7.90333 10.5067 8 10.24 8 9.9V4H6V5H7V9.7C7 9.78667 6.96667 9.85667 6.9 9.91ZM9.8 4.24V4H9V11H10.01V9H11.3C11.88 9 12.3067 8.87333 12.58 8.62C12.86 8.36667 13 7.96 13 7.4V5.6C13 5.03333 12.8633 4.62667 12.59 4.38C12.3167 4.12667 11.8867 4 11.3 4H10.6C10.2733 4 10.0067 4.08 9.8 4.24ZM10.16 5.18C10.2667 5.06 10.43 5 10.65 5H11.25C11.4967 5 11.6833 5.05667 11.81 5.17C11.9367 5.28333 12 5.44333 12 5.65V7.35C12 7.55667 11.9367 7.71667 11.81 7.83C11.6833 7.94333 11.4967 8 11.25 8H10.01L10 5.55C10 5.41667 10.0533 5.29333 10.16 5.18ZM16.25 9C16.5433 9 16.7933 8.93333 17 8.8V9C17 10 17 10 16 10H14.5V11H17C17.5523 11 18 10.5523 18 10V4H15.7C15.12 4 14.69 4.12667 14.41 4.38C14.1367 4.63333 14 5.04 14 5.6V7.4C14 7.96667 14.1367 8.37667 14.41 8.63C14.6833 8.87667 15.1133 9 15.7 9H16.25ZM16.84 7.83C16.7333 7.94333 16.57 8 16.35 8H15.75C15.5033 8 15.3167 7.94333 15.19 7.83C15.0633 7.71667 15 7.55667 15 7.35V5.65C15 5.44333 15.0633 5.28333 15.19 5.17C15.3167 5.05667 15.5033 5 15.75 5H17V7.45C17 7.58333 16.9467 7.71 16.84 7.83Z"
    fill="white"
  />
</svg>
