<svg viewBox="0 0 30 40" xmlns="http://www.w3.org/2000/svg"><path d="M28 0H2a2 2 0 00-2 2v36a2 2 0 002 2h26a2 2 0 002-2V2a2 2 0 00-2-2z"></path><path fill="#fff" fill-rule="evenodd" d="M8.5 18a.5.5 0 00-.5.5v9.167L10 25l5 5 4-3 3 2.25V18.5a.5.5 0 00-.5-.5h-13zM8 31.5v-2.167l2.108-2.81 4.798 4.797L19 28.25l3 2.25v1a.5.5 0 01-.5.5h-13a.5.5 0 01-.5-.5zm-1-13V32a1 1 0 001 1h14a1 1 0 001-1V18.5a1.5 1.5 0 00-1.5-1.5h-13A1.5 1.5 0 007 18.5zm9 4a1.5 1.5 0 113 0 1.5 1.5 0 01-3 0zm1.5-2.5a2.5 2.5 0 100 5 2.5 2.5 0 000-5z" clip-rule="evenodd" opacity=".6"></path><path fill="#fff" fill-rule="evenodd" d="M11 5V4h-1v1h1zm-1.1 6.91a.338.338 0 01-.25.09H8.5v1h1.46c.307 0 .557-.1.75-.3.193-.193.29-.46.29-.8V6H9v1h1v4.7a.256.256 0 01-.1.21zm2.9-5.67V6H12v7h1.01v-2h1.29c.58 0 1.007-.127 1.28-.38.28-.253.42-.66.42-1.22V7.6c0-.567-.137-.973-.41-1.22-.273-.253-.703-.38-1.29-.38h-.7c-.327 0-.593.08-.8.24zm.36.94c.107-.12.27-.18.49-.18h.6c.247 0 .433.057.56.17.127.113.19.273.19.48v1.7c0 .207-.063.367-.19.48-.127.113-.313.17-.56.17h-1.24L13 7.55a.53.53 0 01.16-.37zM19.25 11c.293 0 .543-.067.75-.2v.2c0 1 0 1-1 1h-1.5v1H20a1 1 0 001-1V6h-2.3c-.58 0-1.01.127-1.29.38-.273.253-.41.66-.41 1.22v1.8c0 .567.137.977.41 1.23.273.247.703.37 1.29.37h.55zm.59-1.17c-.107.113-.27.17-.49.17h-.6c-.247 0-.433-.057-.56-.17-.127-.113-.19-.273-.19-.48v-1.7c0-.207.063-.367.19-.48.127-.113.313-.17.56-.17H20v2.45c0 .133-.053.26-.16.38z" clip-rule="evenodd"></path></svg>