<svg viewBox="0 0 34 40" xmlns="http://www.w3.org/2000/svg">
  <path
    d="M32 0H2C0.89543 0 0 0.89543 0 2V38C0 39.1046 0.89543 40 2 40H32C33.1046 40 34 39.1046 34 38V2C34 0.89543 33.1046 0 32 0Z"
  />
  <path
    opacity="0.6"
    fill-rule="evenodd"
    clip-rule="evenodd"
    d="M9.5 18L9 18V18.5V27.6667L12 25L18 30L22 27L25 29.25C25 29.25 25 18.6417 25 18.5C25 18.3583 25 18 25 18C25 18 24.6344 18 24.5 18C24.3656 18 9.5 18 9.5 18ZM9 31.5V29.3333L12 26.5224L17.9062 31.3204L22 28.25L25 30.5V31.5C25 31.6406 25 32 25 32C25 32 24.6356 32 24.5 32H9.5C9.347 32 9 32 9 32C9 32 9 31.6231 9 31.5ZM8 18.5V29V31.5V32C8 32.2768 8.00001 33 8.00001 33C8.00001 33 8.72447 33 9 33H9.5H24.5H25C25.2822 33 26 33 26 33C26 33 26 32.2701 26 32V31.5V30C26 30 26 18.9254 26 18.5C26 18.0746 26 17 26 17C26 17 24.903 17 24.5 17C24.097 17 9.5 17 9.5 17C9 17 8 17 8 17C8 17 8 18 8 18.5ZM18 22.5C18 21.6716 18.6716 21 19.5 21C20.3284 21 21 21.6716 21 22.5C21 23.3284 20.3284 24 19.5 24C18.6716 24 18 23.3284 18 22.5ZM19.5 20C18.1193 20 17 21.1193 17 22.5C17 23.8807 18.1193 25 19.5 25C20.8807 25 22 23.8807 22 22.5C22 21.1193 20.8807 20 19.5 20Z"
    fill="white"
  />
  <path
    fill-rule="evenodd"
    clip-rule="evenodd"
    d="M13.5 6V5H12.5V6H13.5ZM12.4 12.91C12.34 12.97 12.2567 13 12.15 13H11V14H12.46C12.7667 14 13.0167 13.9 13.21 13.7C13.4033 13.5067 13.5 13.24 13.5 12.9V7H11.5V8H12.5V12.7C12.5 12.7867 12.4667 12.8567 12.4 12.91ZM15.3 7.24V7H14.5V14H15.51V12H16.8C17.38 12 17.8067 11.8733 18.08 11.62C18.36 11.3667 18.5 10.96 18.5 10.4V8.6C18.5 8.03333 18.3633 7.62667 18.09 7.38C17.8167 7.12667 17.3867 7 16.8 7H16.1C15.7733 7 15.5067 7.08 15.3 7.24ZM15.66 8.18C15.7667 8.06 15.93 8 16.15 8H16.75C16.9967 8 17.1833 8.05667 17.31 8.17C17.4367 8.28333 17.5 8.44333 17.5 8.65V10.35C17.5 10.5567 17.4367 10.7167 17.31 10.83C17.1833 10.9433 16.9967 11 16.75 11H15.51L15.5 8.55C15.5 8.41667 15.5533 8.29333 15.66 8.18ZM21.75 12C22.0433 12 22.2933 11.9333 22.5 11.8V12C22.5 13 22.5 13 21.5 13H20V14H22.5C23.0523 14 23.5 13.5523 23.5 13V7H21.2C20.62 7 20.19 7.12667 19.91 7.38C19.6367 7.63333 19.5 8.04 19.5 8.6V10.4C19.5 10.9667 19.6367 11.3767 19.91 11.63C20.1833 11.8767 20.6133 12 21.2 12H21.75ZM22.34 10.83C22.2333 10.9433 22.07 11 21.85 11H21.25C21.0033 11 20.8167 10.9433 20.69 10.83C20.5633 10.7167 20.5 10.5567 20.5 10.35V8.65C20.5 8.44333 20.5633 8.28333 20.69 8.17C20.8167 8.05667 21.0033 8 21.25 8H22.5V10.45C22.5 10.5833 22.4467 10.71 22.34 10.83Z"
    fill="white"
  />
</svg>
