<svg viewBox="0 0 30 40" xmlns="http://www.w3.org/2000/svg">
  <path
    d="M28 0H2C0.89543 0 0 0.89543 0 2V38C0 39.1046 0.89543 40 2 40H28C29.1046 40 30 39.1046 30 38V2C30 0.89543 29.1046 0 28 0Z"
  />
  <path
    opacity="0.6"
    fill-rule="evenodd"
    clip-rule="evenodd"
    d="M8.5 18L8 18V18.5V27.6667L10 25L15 30L19 27L22 29.25C22 29.25 22 18.6417 22 18.5C22 18.3583 22 18 22 18C22 18 21.6344 18 21.5 18C21.3656 18 8.5 18 8.5 18ZM8 31.5V29.3333L10.1082 26.5224L14.9062 31.3204L19 28.25L22 30.5V31.5C22 31.6406 22 32 22 32C22 32 21.6356 32 21.5 32H8.5C8.347 32 8 32 8 32C8 32 8 31.6231 8 31.5ZM7 18.5V29V31.5V32C7 32.2768 7.00001 33 7.00001 33C7.00001 33 7.72447 33 8 33H8.5H21.5H22C22.2822 33 23 33 23 33C23 33 23 32.2701 23 32V31.5V30C23 30 23 18.9254 23 18.5C23 18.0746 23 17 23 17C23 17 21.903 17 21.5 17C21.097 17 8.5 17 8.5 17C8 17 7 17 7 17C7 17 7 18 7 18.5ZM16 22.5C16 21.6716 16.6716 21 17.5 21C18.3284 21 19 21.6716 19 22.5C19 23.3284 18.3284 24 17.5 24C16.6716 24 16 23.3284 16 22.5ZM17.5 20C16.1193 20 15 21.1193 15 22.5C15 23.8807 16.1193 25 17.5 25C18.8807 25 20 23.8807 20 22.5C20 21.1193 18.8807 20 17.5 20Z"
    fill="#fff"
  />
  <path
    fill-rule="evenodd"
    clip-rule="evenodd"
    d="M11 6V5H10V6H11ZM9.9 12.91C9.84 12.97 9.75667 13 9.65 13H8.5V14H9.96C10.2667 14 10.5167 13.9 10.71 13.7C10.9033 13.5067 11 13.24 11 12.9V7H9V8H10V12.7C10 12.7867 9.96667 12.8567 9.9 12.91ZM12.8 7.24V7H12V14H13.01V12H14.3C14.88 12 15.3067 11.8733 15.58 11.62C15.86 11.3667 16 10.96 16 10.4V8.6C16 8.03333 15.8633 7.62667 15.59 7.38C15.3167 7.12667 14.8867 7 14.3 7H13.6C13.2733 7 13.0067 7.08 12.8 7.24ZM13.16 8.18C13.2667 8.06 13.43 8 13.65 8H14.25C14.4967 8 14.6833 8.05667 14.81 8.17C14.9367 8.28333 15 8.44333 15 8.65V10.35C15 10.5567 14.9367 10.7167 14.81 10.83C14.6833 10.9433 14.4967 11 14.25 11H13.01L13 8.55C13 8.41667 13.0533 8.29333 13.16 8.18ZM19.25 12C19.5433 12 19.7933 11.9333 20 11.8V12C20 13 20 13 19 13H17.5V14H20C20.5523 14 21 13.5523 21 13V7H18.7C18.12 7 17.69 7.12667 17.41 7.38C17.1367 7.63333 17 8.04 17 8.6V10.4C17 10.9667 17.1367 11.3767 17.41 11.63C17.6833 11.8767 18.1133 12 18.7 12H19.25ZM19.84 10.83C19.7333 10.9433 19.57 11 19.35 11H18.75C18.5033 11 18.3167 10.9433 18.19 10.83C18.0633 10.7167 18 10.5567 18 10.35V8.65C18 8.44333 18.0633 8.28333 18.19 8.17C18.3167 8.05667 18.5033 8 18.75 8H20V10.45C20 10.5833 19.9467 10.71 19.84 10.83Z"
    fill="#fff"
  />
</svg>
