<svg viewBox="0 0 16 16" xmlns="http://www.w3.org/2000/svg">
  <path
    d="M5.84615 6.54237C5.84615 7.80321 6.58389 9.08474 8 9.08474C9.41611 9.08474 10.1538 7.80321 10.1538 6.54237C10.1538 5.28153 10.1368 4 8 4C5.86324 4 5.84615 5.28153 5.84615 6.54237Z"
  />
  <path
    d="M12 14C12 11.7401 11.1283 10.2147 8.30775 10.2147H7.69236C5.38467 10.2147 4 11.1751 4 14H12Z"
  />
  <path
    d="M3.84965 6.73287C3.18686 6.26562 2.84615 5.39922 2.84615 4.54237C2.84615 3.28153 2.86324 2 5 2C5.57544 2 5.99715 2.09294 6.30619 2.25339C5.51654 2.51877 4.83699 3.01048 4.38254 3.81095C3.83666 4.77247 3.84284 5.90469 3.84578 6.4424C3.84597 6.47848 3.84615 6.51188 3.84615 6.54237C3.84615 6.60553 3.84731 6.66906 3.84965 6.73287Z"
  />
  <path
    d="M4.12959 8.23564C2.1614 8.38956 1 9.41289 1 12H2.23198C2.46935 11.079 2.90549 10.2502 3.61506 9.58695C3.87866 9.34054 4.16051 9.13551 4.45477 8.96571C4.3243 8.72974 4.21641 8.48491 4.12959 8.23564Z"
  />
  <path
    d="M13.7682 12H15C15 9.89779 14.2457 8.43113 11.87 8.2367C11.7823 8.4883 11.6732 8.73538 11.541 8.97338C11.9815 9.22751 12.3809 9.55198 12.7284 9.95634C13.2592 10.574 13.5811 11.2793 13.7682 12Z"
  />
  <path
    d="M12.1504 6.73286C12.8131 6.26561 13.1538 5.39922 13.1538 4.54237C13.1538 3.28153 13.1368 2 11 2C10.4246 2 10.0029 2.09294 9.69381 2.25339C10.4835 2.51877 11.163 3.01048 11.6175 3.81095C12.1633 4.77247 12.1572 5.90469 12.1542 6.4424C12.154 6.47848 12.1538 6.51188 12.1538 6.54237C12.1538 6.60553 12.1527 6.66905 12.1504 6.73286Z"
  />
</svg>
