<svg viewBox="0 0 12 12" xmlns="http://www.w3.org/2000/svg">
  <path
    d="M4 5C4 6.10457 4.89543 7 6 7C7.10457 7 8 6.10457 8 5C8 3.89543 7.10457 3 6 3C4.89543 3 4 3.89543 4 5Z"
  />
  <path d="M6 8C3.66667 8 3 9.17746 3 11H9C9 9.17746 8.33333 8 6 8Z" />
  <path
    d="M3.01121 4.73887C2.40723 4.39468 2 3.7449 2 3C2 1.89543 2.89543 1 4 1C4.7449 1 5.39468 1.40723 5.73887 2.01121C4.29035 2.13611 3.13611 3.29035 3.01121 4.73887Z"
  />
  <path
    d="M3.19101 6.05567C1.50837 6.30886 1 7.40848 1 9H2.34761C2.4759 8.6991 2.64724 8.41459 2.87344 8.15688C3.20642 7.77752 3.6167 7.50189 4.09186 7.31506C3.69085 6.98416 3.37728 6.55107 3.19101 6.05567Z"
  />
  <path
    d="M8.98879 4.73887C8.86389 3.29035 7.70965 2.13611 6.26113 2.01121C6.60532 1.40723 7.2551 1 8 1C9.10457 1 10 1.89543 10 3C10 3.7449 9.59277 4.39469 8.98879 4.73887Z"
  />
  <path
    d="M9.65239 9C9.5241 8.6991 9.35276 8.41459 9.12656 8.15688C8.79358 7.77752 8.3833 7.50189 7.90814 7.31506C8.30915 6.98416 8.62272 6.55107 8.80899 6.05567C10.4916 6.30886 11 7.40848 11 9H9.65239Z"
  />
</svg>
