<svg viewBox="0 0 24 24" xmlns="http://www.w3.org/2000/svg">
  <path
    d="M7.33423 10.8089C5.54084 10.6116 4.6087 8.74811 4.6087 6.91304C4.6087 4.97244 4.63284 3 7.65217 3C9.06938 3 9.82672 3.43454 10.2314 4.0964C9.96533 4.17349 9.71023 4.27197 9.46757 4.39433C8.695 4.7839 8.1529 5.36371 7.80373 6.03366C7.21328 7.16645 7.21567 8.5387 7.21718 9.39964L7.21731 9.52174C7.21731 9.94493 7.25513 10.3785 7.33423 10.8089Z"
  />
  <path
    d="M7.92105 12.5652H7.21747C3.9566 12.5652 2 14.0435 2 18.3913H4.86409C5.14015 17.1213 5.65128 16.2849 6.45167 15.4118C7.13436 14.6671 7.95148 14.167 8.84507 13.8561C8.64317 13.652 8.46097 13.4308 8.29917 13.1978C8.15861 12.9953 8.03277 12.7837 7.92105 12.5652Z"
  />
  <path
    d="M8.95644 9.52174C8.95644 11.4623 9.9989 13.4348 11.9999 13.4348C14.0009 13.4348 15.0434 11.4623 15.0434 9.52174C15.0434 7.58114 15.0192 5.6087 11.9999 5.6087C8.98059 5.6087 8.95644 7.58114 8.95644 9.52174Z"
  />
  <path
    d="M17.6521 21C17.6521 17.5217 16.4203 15.1739 12.4348 15.1739H11.5652C8.30435 15.1739 6.34775 16.6522 6.34775 21H17.6521Z"
  />
  <path
    d="M16.3478 3C14.9306 3 14.1733 3.43457 13.7686 4.09646C14.0346 4.17355 14.2896 4.272 14.5323 4.39433C15.3048 4.7839 15.8469 5.36371 16.1961 6.03366C16.7866 7.16645 16.7842 8.5387 16.7827 9.39964L16.7825 9.52174C16.7825 9.94495 16.7447 10.3786 16.6656 10.8089C18.4591 10.6118 19.3913 8.74816 19.3913 6.91304C19.3913 4.97244 19.3672 3 16.3478 3Z"
  />
  <path
    d="M17.9349 15.877C18.5458 16.7007 18.9215 17.3922 19.1379 18.3913H22C22 14.913 20.7682 12.5652 16.7827 12.5652H16.0788C15.9671 12.7837 15.8412 12.9953 15.7007 13.1978C15.5388 13.431 15.3564 13.6522 15.1544 13.8566C16.292 14.252 17.2291 14.9255 17.9349 15.877Z"
  />
</svg>
