<svg viewBox="0 0 30 40" xmlns="http://www.w3.org/2000/svg">
  <path
    d="M28 0H2C0.89543 0 0 0.89543 0 2V38C0 39.1046 0.89543 40 2 40H28C29.1046 40 30 39.1046 30 38V2C30 0.89543 29.1046 0 28 0Z"
  />
  <g opacity="0.6">
    <path
      d="M12.3636 33C10.3409 32.9773 9.32955 32.1136 9.32955 30.4091V27.8949C9.32955 26.7699 8.88636 26.179 8 26.1222V24.8778C8.88636 24.821 9.32955 24.2187 9.32955 23.071V20.625C9.32955 18.8977 10.3409 18.0227 12.3636 18V19.321C11.4602 19.3437 11.0085 19.8864 11.0085 20.9489V23.3523C11.0085 24.5 10.4432 25.2074 9.3125 25.4744V25.5C10.4432 25.75 11.0085 26.4517 11.0085 27.6051V29.983C11.0085 30.5909 11.108 31.0227 11.3068 31.2784C11.5114 31.5398 11.8636 31.6761 12.3636 31.6875V33Z"
      fill="#fff"
    />
    <path
      d="M22 26.1222C21.1193 26.179 20.679 26.7699 20.679 27.8949V30.4091C20.679 32.1136 19.6733 32.9773 17.6619 33V31.6875C18.1562 31.6761 18.5057 31.5398 18.7102 31.2784C18.9205 31.017 19.0256 30.5852 19.0256 29.983V27.6051C19.0256 26.4517 19.5852 25.75 20.7045 25.5V25.4744C19.5852 25.2074 19.0256 24.5 19.0256 23.3523V20.9489C19.0256 19.8864 18.571 19.3437 17.6619 19.321V18C19.6733 18.0227 20.679 18.8977 20.679 20.625V23.071C20.679 24.2187 21.1193 24.821 22 24.8778V26.1222Z"
      fill="#fff"
    />
  </g>
  <path
    fill-rule="evenodd"
    clip-rule="evenodd"
    d="M18.5 10.4C18.5 10.96 18.36 11.3667 18.08 11.62C17.8067 11.8733 17.38 12 16.8 12L16.2 12C15.62 12 15.19 11.8733 14.91 11.62C14.6367 11.3667 14.5 10.96 14.5 10.4V8.6C14.5 8.04 14.6367 7.63333 14.91 7.38C15.19 7.12667 15.62 7 16.2 7H16.8C17.38 7 17.8067 7.12667 18.08 7.38C18.36 7.63333 18.5 8.04 18.5 8.6V10.4ZM17.5 8.65C17.5 8.44333 17.4367 8.28333 17.31 8.17C17.1833 8.05667 16.9967 8 16.75 8H16.25C16.0033 8 15.8167 8.05667 15.69 8.17C15.5633 8.28333 15.5 8.44333 15.5 8.65V10.35C15.5 10.5567 15.5633 10.7167 15.69 10.83C15.8167 10.9433 16.0033 11 16.25 11H16.75C16.9967 11 17.1833 10.9433 17.31 10.83C17.4367 10.7167 17.5 10.5567 17.5 10.35V8.65Z"
    fill="#fff"
  />
  <path
    d="M13.5 10.75C13.5 11.17 13.37 11.4833 13.11 11.69C12.8567 11.8967 12.4867 12 12 12H10.5V11H11.95C12.13 11 12.2667 10.9633 12.36 10.89C12.4533 10.81 12.5 10.6967 12.5 10.55V10.45C12.5 10.15 12.3567 10 12.07 10H11.7C11.2333 10 11.0333 9.9 10.8 9.7C10.5733 9.49333 10.5 9.17 10.5 8.73V8.26C10.5 7.81333 10.5867 7.49333 10.84 7.3C11.0933 7.1 11.5067 7 12 7H13.5V8H12.05C11.8833 8 11.75 8.04 11.65 8.12C11.55 8.19333 11.5 8.30333 11.5 8.45V8.56C11.5 8.71333 11.5433 8.82667 11.63 8.9C11.7233 8.97333 11.84 9 11.98 9H12.13C12.5767 9 12.9167 9.12 13.15 9.34C13.3833 9.55333 13.5 9.87333 13.5 10.3V10.75Z"
    fill="#fff"
  />
  <path
    fill-rule="evenodd"
    clip-rule="evenodd"
    d="M20.5 7V7.24C20.7067 7.08 20.9733 7 21.3 7H21.9C22.44 7 22.84 7.12667 23.1 7.38C23.3667 7.63333 23.5 8.04 23.5 8.6V12H22.5V8.65C22.5 8.45 22.44 8.29333 22.32 8.18C22.2067 8.06 22.05 8 21.85 8H21.15C20.93 8 20.7667 8.06 20.66 8.18C20.5533 8.29333 20.5 8.41667 20.5 8.55V12H19.5V7H20.5Z"
    fill="#fff"
  />
  <path
    fill-rule="evenodd"
    clip-rule="evenodd"
    d="M9 6V5H8V6H9ZM7.9 12.91C7.84 12.97 7.75667 13 7.65 13H6.5V14H7.96C8.26667 14 8.51667 13.9 8.71 13.7C8.90333 13.5067 9 13.24 9 12.9V7H7V8H8V12.7C8 12.7867 7.96667 12.8567 7.9 12.91Z"
    fill="#fff"
  />
</svg>
