<svg viewBox="0 0 24 28" xmlns="http://www.w3.org/2000/svg">
  <rect width="24" height="28" rx="2" />
  <g opacity="0.6">
    <path
      d="M9.59585 23.8333C8.13499 23.8169 7.40456 23.1932 7.40456 21.9621V20.1463C7.40456 19.3338 7.08449 18.907 6.44434 18.866V17.9673C7.08449 17.9263 7.40456 17.4913 7.40456 16.6624V14.8958C7.40456 13.6484 8.13499 13.0164 9.59585 13V13.9541C8.94339 13.9705 8.61716 14.3624 8.61716 15.1297V16.8655C8.61716 17.6944 8.20886 18.2053 7.39225 18.3982V18.4167C8.20886 18.5972 8.61716 19.104 8.61716 19.937V21.6544C8.61716 22.0934 8.68897 22.4053 8.83259 22.59C8.98032 22.7787 9.23474 22.8772 9.59585 22.8854V23.8333Z"
      fill="white"
    />
    <path
      d="M16.5554 18.866C15.9194 18.907 15.6014 19.3338 15.6014 20.1463V21.9621C15.6014 23.1932 14.875 23.8169 13.4224 23.8333V22.8854C13.7794 22.8772 14.0318 22.7787 14.1795 22.59C14.3313 22.4012 14.4072 22.0893 14.4072 21.6544V19.937C14.4072 19.104 14.8114 18.5972 15.6198 18.4167V18.3982C14.8114 18.2053 14.4072 17.6944 14.4072 16.8655V15.1297C14.4072 14.3624 14.079 13.9705 13.4224 13.9541V13C14.875 13.0164 15.6014 13.6484 15.6014 14.8958V16.6624C15.6014 17.4913 15.9194 17.9263 16.5554 17.9673V18.866Z"
      fill="white"
    />
  </g>
  <path
    fill-rule="evenodd"
    clip-rule="evenodd"
    d="M15 7.4C15 7.96 14.86 8.36667 14.58 8.62C14.3067 8.87333 13.88 9 13.3 9L12.7 9C12.12 9 11.69 8.87333 11.41 8.62C11.1367 8.36667 11 7.96 11 7.4V5.6C11 5.04 11.1367 4.63333 11.41 4.38C11.69 4.12667 12.12 4 12.7 4H13.3C13.88 4 14.3067 4.12667 14.58 4.38C14.86 4.63333 15 5.04 15 5.6V7.4ZM14 5.65C14 5.44333 13.9367 5.28333 13.81 5.17C13.6833 5.05667 13.4967 5 13.25 5H12.75C12.5033 5 12.3167 5.05667 12.19 5.17C12.0633 5.28333 12 5.44333 12 5.65V7.35C12 7.55667 12.0633 7.71667 12.19 7.83C12.3167 7.94333 12.5033 8 12.75 8H13.25C13.4967 8 13.6833 7.94333 13.81 7.83C13.9367 7.71667 14 7.55667 14 7.35V5.65Z"
    fill="white"
  />
  <path
    d="M10 7.75C10 8.17 9.87 8.48333 9.61 8.69C9.35667 8.89667 8.98667 9 8.5 9H7V8H8.45C8.63 8 8.76667 7.96333 8.86 7.89C8.95333 7.81 9 7.69667 9 7.55V7.45C9 7.15 8.85667 7 8.57 7H8.2C7.73333 7 7.53333 6.9 7.3 6.7C7.07333 6.49333 7 6.17 7 5.73V5.26C7 4.81333 7.08667 4.49333 7.34 4.3C7.59333 4.1 8.00667 4 8.5 4H10V5H8.55C8.38333 5 8.25 5.04 8.15 5.12C8.05 5.19333 8 5.30333 8 5.45V5.56C8 5.71333 8.04333 5.82667 8.13 5.9C8.22333 5.97333 8.34 6 8.48 6H8.63C9.07667 6 9.41667 6.12 9.65 6.34C9.88333 6.55333 10 6.87333 10 7.3V7.75Z"
    fill="white"
  />
  <path
    fill-rule="evenodd"
    clip-rule="evenodd"
    d="M17 4V4.24C17.2067 4.08 17.4733 4 17.8 4H18.4C18.94 4 19.34 4.12667 19.6 4.38C19.8667 4.63333 20 5.04 20 5.6V9H19V5.65C19 5.45 18.94 5.29333 18.82 5.18C18.7067 5.06 18.55 5 18.35 5H17.65C17.43 5 17.2667 5.06 17.16 5.18C17.0533 5.29333 17 5.41667 17 5.55V9H16V4H17Z"
    fill="white"
  />
  <path
    fill-rule="evenodd"
    clip-rule="evenodd"
    d="M5.5 3V2H4.5V3H5.5ZM4.4 9.91C4.34 9.97 4.25667 10 4.15 10H3V11H4.46C4.76667 11 5.01667 10.9 5.21 10.7C5.40333 10.5067 5.5 10.24 5.5 9.9V4H3.5V5H4.5V9.7C4.5 9.78667 4.46667 9.85667 4.4 9.91Z"
    fill="white"
  />
</svg>
