<svg viewBox="0 0 21 28" xmlns="http://www.w3.org/2000/svg">
  <path
    d="M19.6 0H1.4C0.626801 0 0 0.626801 0 1.4V26.6C0 27.3732 0.626801 28 1.4 28H19.6C20.3732 28 21 27.3732 21 26.6V1.4C21 0.626801 20.3732 0 19.6 0Z"
  />
  <g opacity="0.6">
    <path
      d="M8.59585 23.8333C7.13499 23.8169 6.40456 23.1932 6.40456 21.9621V20.1463C6.40456 19.3338 6.08449 18.907 5.44434 18.866V17.9673C6.08449 17.9263 6.40456 17.4913 6.40456 16.6624V14.8958C6.40456 13.6484 7.13499 13.0164 8.59585 13V13.9541C7.94339 13.9705 7.61716 14.3624 7.61716 15.1297V16.8655C7.61716 17.6944 7.20886 18.2053 6.39225 18.3982V18.4167C7.20886 18.5972 7.61716 19.104 7.61716 19.937V21.6544C7.61716 22.0934 7.68897 22.4053 7.83259 22.59C7.98032 22.7787 8.23474 22.8772 8.59585 22.8854V23.8333Z"
      fill="#fff"
    />
    <path
      d="M15.5554 18.866C14.9194 18.907 14.6014 19.3338 14.6014 20.1463V21.9621C14.6014 23.1932 13.875 23.8169 12.4224 23.8333V22.8854C12.7794 22.8772 13.0318 22.7787 13.1795 22.59C13.3313 22.4012 13.4072 22.0893 13.4072 21.6544V19.937C13.4072 19.104 13.8114 18.5972 14.6198 18.4167V18.3982C13.8114 18.2053 13.4072 17.6944 13.4072 16.8655V15.1297C13.4072 14.3624 13.079 13.9705 12.4224 13.9541V13C13.875 13.0164 14.6014 13.6484 14.6014 14.8958V16.6624C14.6014 17.4913 14.9194 17.9263 15.5554 17.9673V18.866Z"
      fill="#fff"
    />
  </g>
  <path
    fill-rule="evenodd"
    clip-rule="evenodd"
    d="M14 7.4C14 7.96 13.86 8.36667 13.58 8.62C13.3067 8.87333 12.88 9 12.3 9L11.7 9C11.12 9 10.69 8.87333 10.41 8.62C10.1367 8.36667 10 7.96 10 7.4V5.6C10 5.04 10.1367 4.63333 10.41 4.38C10.69 4.12667 11.12 4 11.7 4H12.3C12.88 4 13.3067 4.12667 13.58 4.38C13.86 4.63333 14 5.04 14 5.6V7.4ZM13 5.65C13 5.44333 12.9367 5.28333 12.81 5.17C12.6833 5.05667 12.4967 5 12.25 5H11.75C11.5033 5 11.3167 5.05667 11.19 5.17C11.0633 5.28333 11 5.44333 11 5.65V7.35C11 7.55667 11.0633 7.71667 11.19 7.83C11.3167 7.94333 11.5033 8 11.75 8H12.25C12.4967 8 12.6833 7.94333 12.81 7.83C12.9367 7.71667 13 7.55667 13 7.35V5.65Z"
    fill="#fff"
  />
  <path
    d="M9 7.75C9 8.17 8.87 8.48333 8.61 8.69C8.35667 8.89667 7.98667 9 7.5 9H6V8H7.45C7.63 8 7.76667 7.96333 7.86 7.89C7.95333 7.81 8 7.69667 8 7.55V7.45C8 7.15 7.85667 7 7.57 7H7.2C6.73333 7 6.53333 6.9 6.3 6.7C6.07333 6.49333 6 6.17 6 5.73V5.26C6 4.81333 6.08667 4.49333 6.34 4.3C6.59333 4.1 7.00667 4 7.5 4H9V5H7.55C7.38333 5 7.25 5.04 7.15 5.12C7.05 5.19333 7 5.30333 7 5.45V5.56C7 5.71333 7.04333 5.82667 7.13 5.9C7.22333 5.97333 7.34 6 7.48 6H7.63C8.07667 6 8.41667 6.12 8.65 6.34C8.88333 6.55333 9 6.87333 9 7.3V7.75Z"
    fill="#fff"
  />
  <path
    fill-rule="evenodd"
    clip-rule="evenodd"
    d="M16 4V4.24C16.2067 4.08 16.4733 4 16.8 4H17.4C17.94 4 18.34 4.12667 18.6 4.38C18.8667 4.63333 19 5.04 19 5.6V9H18V5.65C18 5.45 17.94 5.29333 17.82 5.18C17.7067 5.06 17.55 5 17.35 5H16.65C16.43 5 16.2667 5.06 16.16 5.18C16.0533 5.29333 16 5.41667 16 5.55V9H15V4H16Z"
    fill="#fff"
  />
  <path
    fill-rule="evenodd"
    clip-rule="evenodd"
    d="M4.5 3V2H3.5V3H4.5ZM3.4 9.91C3.34 9.97 3.25667 10 3.15 10H2V11H3.46C3.76667 11 4.01667 10.9 4.21 10.7C4.40333 10.5067 4.5 10.24 4.5 9.9V4H2.5V5H3.5V9.7C3.5 9.78667 3.46667 9.85667 3.4 9.91Z"
    fill="#fff"
  />
</svg>
