<svg viewBox="0 0 34 40" xmlns="http://www.w3.org/2000/svg">
  <path
    d="M32 0H2C0.89543 0 0 0.89543 0 2V38C0 39.1046 0.89543 40 2 40H32C33.1046 40 34 39.1046 34 38V2C34 0.89543 33.1046 0 32 0Z"
  />
  <g opacity="0.6">
    <path
      d="M14.3636 33C12.3409 32.9773 11.3295 32.1136 11.3295 30.4091V27.8949C11.3295 26.7699 10.8864 26.179 10 26.1222V24.8778C10.8864 24.821 11.3295 24.2187 11.3295 23.071V20.625C11.3295 18.8977 12.3409 18.0227 14.3636 18V19.321C13.4602 19.3437 13.0085 19.8864 13.0085 20.9489V23.3523C13.0085 24.5 12.4432 25.2074 11.3125 25.4744V25.5C12.4432 25.75 13.0085 26.4517 13.0085 27.6051V29.983C13.0085 30.5909 13.108 31.0227 13.3068 31.2784C13.5114 31.5398 13.8636 31.6761 14.3636 31.6875V33Z"
      fill="white"
    />
    <path
      d="M24 26.1222C23.1193 26.179 22.679 26.7699 22.679 27.8949V30.4091C22.679 32.1136 21.6733 32.9773 19.6619 33V31.6875C20.1562 31.6761 20.5057 31.5398 20.7102 31.2784C20.9205 31.017 21.0256 30.5852 21.0256 29.983V27.6051C21.0256 26.4517 21.5852 25.75 22.7045 25.5V25.4744C21.5852 25.2074 21.0256 24.5 21.0256 23.3523V20.9489C21.0256 19.8864 20.571 19.3437 19.6619 19.321V18C21.6733 18.0227 22.679 18.8977 22.679 20.625V23.071C22.679 24.2187 23.1193 24.821 24 24.8778V26.1222Z"
      fill="white"
    />
  </g>
  <path
    fill-rule="evenodd"
    clip-rule="evenodd"
    d="M20 10.4C20 10.96 19.86 11.3667 19.58 11.62C19.3067 11.8733 18.88 12 18.3 12L17.7 12C17.12 12 16.69 11.8733 16.41 11.62C16.1367 11.3667 16 10.96 16 10.4V8.6C16 8.04 16.1367 7.63333 16.41 7.38C16.69 7.12667 17.12 7 17.7 7H18.3C18.88 7 19.3067 7.12667 19.58 7.38C19.86 7.63333 20 8.04 20 8.6V10.4ZM19 8.65C19 8.44333 18.9367 8.28333 18.81 8.17C18.6833 8.05667 18.4967 8 18.25 8H17.75C17.5033 8 17.3167 8.05667 17.19 8.17C17.0633 8.28333 17 8.44333 17 8.65V10.35C17 10.5567 17.0633 10.7167 17.19 10.83C17.3167 10.9433 17.5033 11 17.75 11H18.25C18.4967 11 18.6833 10.9433 18.81 10.83C18.9367 10.7167 19 10.5567 19 10.35V8.65Z"
    fill="white"
  />
  <path
    d="M15 10.75C15 11.17 14.87 11.4833 14.61 11.69C14.3567 11.8967 13.9867 12 13.5 12H12V11H13.45C13.63 11 13.7667 10.9633 13.86 10.89C13.9533 10.81 14 10.6967 14 10.55V10.45C14 10.15 13.8567 10 13.57 10H13.2C12.7333 10 12.5333 9.9 12.3 9.7C12.0733 9.49333 12 9.17 12 8.73V8.26C12 7.81333 12.0867 7.49333 12.34 7.3C12.5933 7.1 13.0067 7 13.5 7H15V8H13.55C13.3833 8 13.25 8.04 13.15 8.12C13.05 8.19333 13 8.30333 13 8.45V8.56C13 8.71333 13.0433 8.82667 13.13 8.9C13.2233 8.97333 13.34 9 13.48 9H13.63C14.0767 9 14.4167 9.12 14.65 9.34C14.8833 9.55333 15 9.87333 15 10.3V10.75Z"
    fill="white"
  />
  <path
    fill-rule="evenodd"
    clip-rule="evenodd"
    d="M22 7V7.24C22.2067 7.08 22.4733 7 22.8 7H23.4C23.94 7 24.34 7.12667 24.6 7.38C24.8667 7.63333 25 8.04 25 8.6V12H24V8.65C24 8.45 23.94 8.29333 23.82 8.18C23.7067 8.06 23.55 8 23.35 8H22.65C22.43 8 22.2667 8.06 22.16 8.18C22.0533 8.29333 22 8.41667 22 8.55V12H21V7H22Z"
    fill="white"
  />
  <path
    fill-rule="evenodd"
    clip-rule="evenodd"
    d="M10.5 6V5H9.5V6H10.5ZM9.4 12.91C9.34 12.97 9.25667 13 9.15 13H8V14H9.46C9.76667 14 10.0167 13.9 10.21 13.7C10.4033 13.5067 10.5 13.24 10.5 12.9V7H8.5V8H9.5V12.7C9.5 12.7867 9.46667 12.8567 9.4 12.91Z"
    fill="white"
  />
</svg>
