<svg viewBox="0 0 420 280">
  <path
    d="M197.078 10.5812L195.088 6.84608L193.589 7.66105L196.413 12.9612L205.241 7.70326L204.381 6.23169L197.078 10.5812Z"
  />
  <path
    d="M310.866 169.477L312.331 173.447L320.156 170.126L320.809 171.7L311.35 175.715L309.27 170.081L310.866 169.477Z"
  />
  <path
    d="M85.0422 224.261L88.7383 226.322L92.5203 218.71L94.0402 219.481L89.4684 228.683L84.2237 225.758L85.0422 224.261Z"
  />
  <path
    fillRule="evenodd"
    clipRule="evenodd"
    d="M176.488 219.731C173.875 204.933 172.798 184.976 172.596 167.503C172.132 167.062 171.874 166.436 171.785 165.777C171.285 162.055 171.029 157.377 171.058 152.383C164.901 155.441 157.641 158.53 150.248 160.755C142.516 163.083 134.572 164.487 127.562 163.882C120.697 163.289 116.643 162.279 114.193 161.033C112.951 160.402 112.096 159.697 111.501 158.934C110.904 158.169 110.611 157.398 110.422 156.708C110.179 155.821 110.488 155.04 110.96 154.454C111.414 153.892 112.063 153.441 112.714 153.086C113.71 152.542 114.886 152.127 115.873 151.852C115.876 151.456 115.938 151.024 116.097 150.596C116.433 149.688 117.18 148.88 118.473 148.53C118.854 148.427 119.383 148.347 119.979 148.272C120.43 148.216 120.957 148.157 121.542 148.092C121.748 148.069 121.961 148.045 122.18 148.021C123.875 147.83 126.007 147.574 128.407 147.144C133.212 146.283 139.06 144.732 144.555 141.651C155.851 135.317 161.691 130.549 165.645 126.81C166.638 125.871 167.515 124.994 168.337 124.164C168.473 124.027 168.608 123.891 168.741 123.756L168.747 123.75C169.415 123.074 170.056 122.426 170.692 121.811C172.23 120.324 173.773 118.996 175.761 117.789C178.826 115.928 181.105 114.738 182.719 114.005C183.526 113.639 184.175 113.384 184.678 113.216C184.929 113.132 185.164 113.063 185.376 113.015C189.564 111.386 194.462 110.788 198.811 111.286C203.518 111.281 207.988 111.188 213.912 109.761C220.165 108.254 228.08 105.25 239.578 99.2303C245.159 96.3083 249.651 92.2555 252.995 88.699C254.666 86.9226 256.044 85.2766 257.129 83.9606C257.27 83.7905 257.406 83.625 257.537 83.4651C257.911 83.0105 258.248 82.6004 258.542 82.2539C258.93 81.7955 259.285 81.3955 259.58 81.1326C260.579 80.2403 261.663 80.0555 262.608 80.2693C263.053 80.3701 263.449 80.5542 263.782 80.7679C264.551 80.0905 265.542 79.3319 266.541 78.7945C267.194 78.4428 267.926 78.1449 268.645 78.0719C269.393 77.9959 270.216 78.1634 270.827 78.8518C271.302 79.3867 271.787 80.0528 272.103 80.9707C272.417 81.8861 272.541 82.9871 272.392 84.3718C272.099 87.1047 270.732 91.0532 267.481 97.1287C264.157 103.341 258.562 109.097 252.626 113.989C246.678 118.89 240.324 122.973 235.412 125.825C226.272 131.132 216.986 133.353 212.563 133.937C212.561 133.985 212.561 134.033 212.561 134.081C212.6 144.677 214.763 155.886 215.855 160.883C216.037 161.715 215.961 162.571 215.651 163.322C215.732 163.397 215.802 163.487 215.856 163.59C223.435 177.92 224.423 186.727 225.23 193.912L225.23 193.913L225.231 193.914L225.231 193.915C225.42 195.597 225.598 197.191 225.85 198.745C228.703 199.352 232.239 198.694 235.556 197.63C238.512 196.682 241.14 195.466 242.756 194.719L242.764 194.715C243.069 194.574 243.337 194.45 243.565 194.347C247.846 192.421 252.426 189.76 256.741 187.252L256.895 187.163C261.213 184.653 265.305 182.28 268.436 181.087C268.685 180.993 268.961 181.001 269.203 181.11C269.445 181.219 269.634 181.42 269.728 181.669L276.909 200.704C277.002 200.953 276.993 201.228 276.884 201.47C276.774 201.712 276.573 201.9 276.324 201.994C274.671 202.614 272.998 202.476 271.793 202.217C271.288 202.108 270.849 201.974 270.507 201.855C270.317 202.089 270.1 202.327 269.864 202.566C269.358 203.081 268.717 203.654 267.969 204.271C266.473 205.505 264.5 206.95 262.203 208.508C257.608 211.626 251.663 215.232 245.515 218.556C239.371 221.878 232.995 224.935 227.541 226.944C224.816 227.948 222.294 228.701 220.129 229.089C218 229.471 216.073 229.528 214.627 228.996C212.988 228.392 211.024 226.867 209.004 224.692C208.138 223.759 207.247 222.691 206.352 221.497C208.161 240.046 208.478 258.74 207.471 277.341C207.442 277.871 207.004 278.287 206.473 278.287H184.56C184.007 278.287 183.56 277.839 183.56 277.287C183.56 276.734 183.753 276.12 183.98 275.571C184.218 274.997 184.541 274.385 184.893 273.803C185.442 272.897 186.122 271.968 186.745 271.336C186.174 267.972 184.598 260.312 182.789 251.52L182.264 248.967C180.143 238.647 177.817 227.261 176.488 219.731ZM178.457 219.383C175.926 205.046 174.843 185.735 174.61 168.58C181.732 171.473 199.866 173.628 214.169 165.057C214.22 165.026 214.27 164.995 214.319 164.962C221.496 178.67 222.433 186.983 223.231 194.064C223.451 196.017 223.661 197.877 223.988 199.73C224.054 200.106 224.329 200.412 224.696 200.517C228.249 201.54 232.545 200.696 236.167 199.534C239.254 198.544 242.013 197.267 243.619 196.523C243.916 196.386 244.173 196.267 244.386 196.171C248.762 194.202 253.418 191.496 257.699 189.009L257.9 188.892C261.831 186.607 265.4 184.543 268.219 183.334L274.646 200.372C273.794 200.502 272.943 200.418 272.214 200.262C271.718 200.155 271.299 200.018 271.007 199.909C270.862 199.855 270.749 199.808 270.676 199.776L270.635 199.758C270.619 199.75 270.606 199.744 270.596 199.74L270.585 199.735C270.471 199.678 270.352 199.645 270.232 199.635C269.844 199.599 269.454 199.794 269.259 200.159C269.147 200.368 268.892 200.702 268.438 201.164C267.997 201.613 267.413 202.137 266.697 202.728C265.266 203.908 263.349 205.314 261.081 206.853C256.547 209.929 250.66 213.5 244.564 216.797C238.464 220.095 232.181 223.104 226.85 225.067C224.183 226.05 221.782 226.76 219.776 227.12C217.736 227.486 216.248 227.461 215.318 227.119C214.123 226.679 212.419 225.431 210.47 223.331C208.544 221.258 206.453 218.433 204.464 214.964C200.488 208.025 196.955 198.56 195.969 187.468C195.92 186.918 195.434 186.512 194.884 186.56C194.334 186.609 193.928 187.095 193.977 187.645C194.991 199.052 198.623 208.793 202.729 215.958C203.144 216.682 203.564 217.38 203.987 218.052C206.078 237.372 206.528 256.875 205.524 276.287H185.848C186.037 275.842 186.3 275.341 186.604 274.839C187.254 273.767 187.995 272.845 188.442 272.49C188.724 272.265 188.864 271.906 188.807 271.55C188.318 268.471 186.659 260.406 184.757 251.161L184.223 248.565C182.1 238.235 179.781 226.88 178.457 219.383ZM160.348 155.035C154.987 146.073 155.896 142.323 158.375 135.347C155.048 137.728 150.889 140.392 145.533 143.395C139.771 146.626 133.684 148.23 128.759 149.112C126.294 149.554 124.112 149.816 122.404 150.008C122.176 150.034 121.958 150.058 121.75 150.081L121.742 150.082C121.166 150.146 120.662 150.202 120.229 150.257C119.624 150.333 119.225 150.398 118.996 150.46C118.337 150.639 118.087 150.979 117.972 151.291C117.834 151.662 117.861 152.088 117.931 152.344L118.209 153.357L117.182 153.585C116.193 153.804 114.762 154.246 113.673 154.841C113.122 155.141 112.734 155.441 112.517 155.71C112.319 155.955 112.326 156.086 112.351 156.18C112.498 156.716 112.698 157.216 113.078 157.704C113.46 158.194 114.067 158.726 115.099 159.251C117.197 160.317 120.937 161.302 127.734 161.889C134.387 162.464 142.056 161.133 149.671 158.84C153.297 157.749 156.896 156.444 160.348 155.035ZM226.006 107.848C226.672 109.601 228.157 113.719 229.641 119.287C230.619 122.953 230.641 125.044 230.408 126.223C231.733 125.579 233.072 124.871 234.408 124.096C239.26 121.279 245.516 117.256 251.354 112.445C257.204 107.625 262.572 102.065 265.717 96.1852C268.936 90.1691 270.153 86.4978 270.404 84.1584C270.527 83.0069 270.413 82.2085 270.211 81.6209C270.01 81.0358 269.7 80.5953 269.331 80.1793C269.267 80.1069 269.16 80.0299 268.847 80.0617C268.503 80.0965 268.04 80.2588 267.488 80.5558C266.395 81.144 265.243 82.1009 264.519 82.8106L263.769 83.5464L263.071 82.7603C262.895 82.5621 262.553 82.3074 262.166 82.22C261.842 82.1466 261.421 82.1697 260.912 82.6245C260.735 82.7825 260.462 83.0811 260.068 83.5464C259.785 83.8803 259.462 84.2728 259.093 84.7218L259.092 84.7229L259.09 84.7251C258.957 84.8871 258.818 85.0564 258.672 85.2329C257.579 86.559 256.168 88.2448 254.452 90.0691C251.025 93.714 246.358 97.9381 240.506 101.002C234.931 103.921 230.168 106.149 226.006 107.848Z"
  />
  <path
    d="M141.92 14.6284C140.575 14.411 139.849 12.9288 140.501 11.7325L141.22 10.4143C141.353 10.1719 141.263 9.86816 141.021 9.7359C140.779 9.60364 140.475 9.69294 140.343 9.93534L139.623 11.2535C138.64 13.0555 139.734 15.2882 141.761 15.6156L141.866 15.6327C143.208 15.8493 143.897 17.3605 143.181 18.5151C142.089 20.2761 143.14 22.5811 145.186 22.9116C146.527 23.1282 147.216 24.6394 146.5 25.794C145.408 27.555 146.459 29.8601 148.505 30.1905C149.846 30.4072 150.535 31.9184 149.819 33.0729C148.728 34.834 149.779 37.139 151.824 37.4694C153.165 37.6861 153.854 39.1973 153.139 40.3518C152.047 42.1129 153.098 44.4179 155.143 44.7484L155.249 44.7655C156.594 44.9828 157.321 46.465 156.668 47.6613L155.949 48.9795C155.817 49.2219 155.906 49.5257 156.148 49.6579C156.391 49.7902 156.694 49.7009 156.827 49.4585L157.546 48.1403C158.529 46.3383 157.435 44.1056 155.409 43.7783L155.303 43.7612C153.962 43.5445 153.273 42.0333 153.988 40.8788C155.08 39.1177 154.029 36.8127 151.984 36.4822C150.643 36.2656 149.953 34.7544 150.669 33.5998C151.761 31.8388 150.71 29.5338 148.664 29.2033C147.323 28.9867 146.634 27.4755 147.35 26.3209C148.442 24.5598 147.391 22.2548 145.345 21.9244C144.004 21.7077 143.315 20.1965 144.031 19.042C145.123 17.2809 144.071 14.9759 142.026 14.6455L141.92 14.6284Z"
  />
  <path
    d="M298.635 15.5318C298.153 14.2572 299.076 12.8887 300.438 12.8581L301.94 12.8244C302.216 12.8182 302.435 12.5894 302.428 12.3133C302.422 12.0373 302.193 11.8185 301.917 11.8247L300.416 11.8584C298.364 11.9044 296.974 13.9658 297.7 15.8856L297.738 15.9859C298.219 17.2564 297.252 18.6071 295.895 18.5622C293.824 18.4937 292.35 20.554 293.083 22.4919C293.564 23.7625 292.597 25.1132 291.239 25.0683C289.169 24.9998 287.694 27.0601 288.428 28.998C288.908 30.2685 287.942 31.6193 286.584 31.5744C284.513 31.5059 283.039 33.5661 283.772 35.5041C284.253 36.7746 283.287 38.1253 281.929 38.0804C279.858 38.0119 278.384 40.0722 279.117 42.0101L279.155 42.1104C279.637 43.3849 278.714 44.7534 277.352 44.784L275.851 44.8177C275.575 44.8239 275.356 45.0527 275.362 45.3288C275.368 45.6048 275.597 45.8236 275.873 45.8174L277.374 45.7837C279.427 45.7377 280.817 43.6763 280.09 41.7565L280.052 41.6562C279.572 40.3857 280.538 39.035 281.896 39.0799C283.967 39.1484 285.441 37.0881 284.708 35.1502C284.227 33.8796 285.193 32.5289 286.551 32.5738C288.622 32.6423 290.096 30.582 289.363 28.6441C288.882 27.3736 289.849 26.0228 291.206 26.0678C293.277 26.1363 294.751 24.076 294.018 22.1381C293.537 20.8675 294.504 19.5168 295.862 19.5617C297.932 19.6302 299.407 17.5699 298.673 15.632L298.635 15.5318Z"
  />
  <path
    d="M232.611 22.4245L231.417 26.5634C231.024 27.9295 229.838 28.9183 228.423 29.06C226.602 29.2425 225.075 30.5156 224.567 32.2747L223.374 36.4135C223.298 36.6789 223.451 36.956 223.716 37.0325C223.982 37.109 224.259 36.9559 224.335 36.6905L225.528 32.5516C225.922 31.1855 227.108 30.1968 228.523 30.055C230.344 29.8725 231.871 28.5994 232.378 26.8404L233.571 22.7015C233.648 22.4362 233.495 22.159 233.229 22.0826C232.964 22.0061 232.687 22.1592 232.611 22.4245Z"
  />
  <path
    fillRule="evenodd"
    clipRule="evenodd"
    d="M103.473 32.5571C104.854 32.5571 105.973 31.4378 105.973 30.0571C105.973 28.6764 104.854 27.5571 103.473 27.5571C102.092 27.5571 100.973 28.6764 100.973 30.0571C100.973 31.4378 102.092 32.5571 103.473 32.5571ZM103.473 31.5571C104.301 31.5571 104.973 30.8856 104.973 30.0571C104.973 29.2287 104.301 28.5571 103.473 28.5571C102.644 28.5571 101.973 29.2287 101.973 30.0571C101.973 30.8856 102.644 31.5571 103.473 31.5571Z"
  />
  <path
    fillRule="evenodd"
    clipRule="evenodd"
    d="M249.973 157.057C249.973 158.438 248.854 159.557 247.473 159.557C246.092 159.557 244.973 158.438 244.973 157.057C244.973 155.676 246.092 154.557 247.473 154.557C248.854 154.557 249.973 155.676 249.973 157.057ZM248.973 157.057C248.973 157.886 248.301 158.557 247.473 158.557C246.644 158.557 245.973 157.886 245.973 157.057C245.973 156.229 246.644 155.557 247.473 155.557C248.301 155.557 248.973 156.229 248.973 157.057Z"
  />
  <path
    fillRule="evenodd"
    clipRule="evenodd"
    d="M136.973 110.057C136.973 111.438 135.854 112.557 134.473 112.557C133.092 112.557 131.973 111.438 131.973 110.057C131.973 108.676 133.092 107.557 134.473 107.557C135.854 107.557 136.973 108.676 136.973 110.057ZM135.973 110.057C135.973 110.886 135.301 111.557 134.473 111.557C133.644 111.557 132.973 110.886 132.973 110.057C132.973 109.229 133.644 108.557 134.473 108.557C135.301 108.557 135.973 109.229 135.973 110.057Z"
  />
  <path
    fillRule="evenodd"
    clipRule="evenodd"
    d="M335.973 217.057C335.973 218.438 334.854 219.557 333.473 219.557C332.092 219.557 330.973 218.438 330.973 217.057C330.973 215.676 332.092 214.557 333.473 214.557C334.854 214.557 335.973 215.676 335.973 217.057ZM334.973 217.057C334.973 217.886 334.301 218.557 333.473 218.557C332.644 218.557 331.973 217.886 331.973 217.057C331.973 216.229 332.644 215.557 333.473 215.557C334.301 215.557 334.973 216.229 334.973 217.057Z"
  />
  <path
    fillRule="evenodd"
    clipRule="evenodd"
    d="M329.973 41.0571C329.973 42.4378 328.854 43.5571 327.473 43.5571C326.092 43.5571 324.973 42.4378 324.973 41.0571C324.973 39.6764 326.092 38.5571 327.473 38.5571C328.854 38.5571 329.973 39.6764 329.973 41.0571ZM328.973 41.0571C328.973 41.8856 328.301 42.5571 327.473 42.5571C326.644 42.5571 325.973 41.8856 325.973 41.0571C325.973 40.2287 326.644 39.5571 327.473 39.5571C328.301 39.5571 328.973 40.2287 328.973 41.0571Z"
  />
  <path
    fillRule="evenodd"
    clipRule="evenodd"
    d="M71.9729 152.057C71.9729 153.438 70.8536 154.557 69.4729 154.557C68.0922 154.557 66.9729 153.438 66.9729 152.057C66.9729 150.676 68.0922 149.557 69.4729 149.557C70.8536 149.557 71.9729 150.676 71.9729 152.057ZM70.9729 152.057C70.9729 152.886 70.3013 153.557 69.4729 153.557C68.6445 153.557 67.9729 152.886 67.9729 152.057C67.9729 151.229 68.6445 150.557 69.4729 150.557C70.3013 150.557 70.9729 151.229 70.9729 152.057Z"
  />
  <path
    d="M296.876 229.15L300.885 230.725C302.209 231.245 303.082 232.518 303.091 233.94C303.102 235.77 304.227 237.41 305.931 238.079L309.94 239.654C310.197 239.755 310.487 239.628 310.588 239.371C310.689 239.114 310.563 238.824 310.306 238.723L306.297 237.148C304.973 236.628 304.1 235.355 304.091 233.933C304.08 232.103 302.955 230.464 301.251 229.794L297.242 228.219C296.985 228.118 296.695 228.245 296.594 228.502C296.493 228.759 296.619 229.049 296.876 229.15Z"
  />
  <path
    d="M124.444 200.988L122.404 204.238C121.514 205.656 121.631 207.483 122.695 208.775C124.031 210.4 124.179 212.697 123.06 214.479L121.02 217.729C120.873 217.963 120.565 218.034 120.331 217.887C120.097 217.74 120.026 217.432 120.173 217.198L122.213 213.947C123.103 212.53 122.986 210.703 121.923 209.411C120.586 207.786 120.439 205.489 121.557 203.707L123.597 200.456C123.744 200.222 124.052 200.152 124.286 200.299C124.52 200.445 124.591 200.754 124.444 200.988Z"
  />
  <path
    d="M328.087 83.925L325.262 86.5233C324.031 87.6562 323.662 89.4499 324.348 90.9764C325.209 92.8956 324.746 95.1508 323.198 96.575L320.374 99.1733C320.17 99.3603 319.854 99.3471 319.667 99.1439C319.48 98.9406 319.493 98.6243 319.697 98.4374L322.521 95.8391C323.752 94.7062 324.121 92.9125 323.435 91.386C322.574 89.4668 323.037 87.2117 324.585 85.7874L327.41 83.1891C327.613 83.0021 327.929 83.0153 328.116 83.2185C328.303 83.4218 328.29 83.7381 328.087 83.925Z"
  />
  <path
    d="M55.1979 174.124L58.7223 175.643C60.2589 176.305 62.0469 175.91 63.1611 174.662C64.5618 173.092 66.8098 172.595 68.7417 173.427L72.2661 174.946C72.5197 175.056 72.6367 175.35 72.5274 175.603C72.4181 175.857 72.124 175.974 71.8704 175.865L68.346 174.346C66.8093 173.684 65.0213 174.079 63.9072 175.327C62.5064 176.897 60.2585 177.394 58.3265 176.562L54.8021 175.043C54.5485 174.933 54.4315 174.639 54.5408 174.386C54.6501 174.132 54.9443 174.015 55.1979 174.124Z"
  />
  <path
    d="M64.2877 84.0847C64.4075 85.4422 65.8335 86.2734 67.0738 85.7086L67.1713 85.6642C69.057 84.8055 71.2095 86.1415 71.2768 88.2124C71.321 89.5701 72.7322 90.446 73.9685 89.883C75.8542 89.0243 78.0066 90.3603 78.074 92.4312C78.1182 93.7889 79.5294 94.6648 80.7657 94.1018C82.6514 93.2431 84.8038 94.5791 84.8712 96.65C84.9154 98.0077 86.3265 98.8836 87.5628 98.3206C89.4485 97.4619 91.601 98.7979 91.6684 100.869C91.7125 102.227 93.1237 103.102 94.36 102.539L94.4576 102.495C96.3257 101.644 98.4737 102.896 98.6542 104.941L98.7862 106.437C98.8104 106.712 98.6071 106.955 98.3321 106.979C98.057 107.003 97.8143 106.8 97.79 106.525L97.658 105.029C97.5382 103.672 96.1122 102.84 94.872 103.405L94.7744 103.45C92.8887 104.308 90.7363 102.972 90.6689 100.901C90.6247 99.5436 89.2136 98.6678 87.9773 99.2307C86.0916 100.089 83.9391 98.7535 83.8717 96.6825C83.8276 95.3248 82.4164 94.4489 81.1801 95.0119C79.2944 95.8706 77.1419 94.5346 77.0745 92.4637C77.0304 91.106 75.6192 90.2301 74.3829 90.7931C72.4972 91.6518 70.3447 90.3158 70.2774 88.2449C70.2332 86.8872 68.822 86.0113 67.5857 86.5743L67.4882 86.6187C65.62 87.4694 63.472 86.2174 63.2916 84.1726L63.1596 82.6768C63.1353 82.4017 63.3386 82.159 63.6137 82.1348C63.8888 82.1105 64.1314 82.3138 64.1557 82.5889L64.2877 84.0847Z"
  />
  <path
    d="M360.156 125.946C360.743 124.717 362.37 124.438 363.334 125.401L364.396 126.462C364.591 126.658 364.908 126.658 365.103 126.462C365.298 126.267 365.298 125.95 365.103 125.755L364.041 124.694C362.589 123.243 360.138 123.663 359.253 125.515L359.207 125.612C358.621 126.838 356.977 127.073 356.071 126.061C354.689 124.517 352.181 124.876 351.288 126.746C350.702 127.971 349.058 128.207 348.152 127.195C346.77 125.651 344.262 126.01 343.369 127.879C342.783 129.105 341.139 129.341 340.233 128.328C338.85 126.785 336.343 127.144 335.449 129.013C334.864 130.239 333.219 130.474 332.313 129.462C330.931 127.918 328.423 128.278 327.53 130.147L327.484 130.244C326.896 131.473 325.269 131.752 324.305 130.789L323.243 129.728C323.048 129.532 322.731 129.533 322.536 129.728C322.341 129.923 322.341 130.24 322.536 130.435L323.599 131.496C325.051 132.948 327.501 132.527 328.386 130.675L328.432 130.578C329.018 129.353 330.662 129.117 331.568 130.129C332.95 131.673 335.458 131.314 336.352 129.444C336.937 128.219 338.581 127.983 339.488 128.995C340.87 130.539 343.377 130.18 344.271 128.311C344.857 127.085 346.501 126.85 347.407 127.862C348.789 129.405 351.297 129.046 352.19 127.177C352.776 125.951 354.42 125.716 355.326 126.728C356.708 128.272 359.216 127.913 360.109 126.043L360.156 125.946Z"
  />
  <path
    fillRule="evenodd"
    clipRule="evenodd"
    d="M214.973 80.0572C214.973 84.1993 211.839 87.5572 207.973 87.5572C207.137 87.5572 206.336 87.4003 205.593 87.1126C206.195 88.6427 206.525 90.3092 206.525 92.0529C206.525 96.1901 204.665 99.8927 201.735 102.37C199.383 104.359 196.342 105.557 193.021 105.557C185.936 105.557 180.125 100.101 179.561 93.1612C178.648 92.989 177.973 92.3853 177.973 91.6671C177.973 90.9262 178.691 90.3073 179.648 90.158C180.512 84.0069 185.519 79.1853 191.758 78.6067C192.173 78.5681 192.595 78.5484 193.021 78.5484C193.209 78.5484 193.396 78.5522 193.582 78.5598C194.466 78.596 195.327 78.717 196.159 78.915C197.956 79.3427 199.614 80.1297 201.053 81.1958C201 80.8245 200.973 80.4443 200.973 80.0572C200.973 75.915 204.107 72.5572 207.973 72.5572C211.839 72.5572 214.973 75.915 214.973 80.0572ZM199.82 101.334C198.197 100.36 196.698 99.202 195.35 97.8888C195.65 97.5654 195.919 97.1883 196.141 96.7648C197.179 94.7828 196.797 92.5348 195.287 91.7436C194.073 91.1074 192.499 91.607 191.389 92.8577C189.431 89.5557 188.233 85.7504 188.034 81.6825C184.641 83.3172 182.172 86.5682 181.629 90.4361L181.45 91.7102L181.554 92.9993C182.035 98.9093 186.986 103.557 193.021 103.557C195.564 103.557 197.915 102.732 199.82 101.334Z"
  />
</svg>
