<svg width="24" height="24" viewBox="0 0 24 24" fill="none" xmlns="http://www.w3.org/2000/svg">
  <path
    fill-rule="evenodd"
    clip-rule="evenodd"
    d="M2 12C2 17.5228 6.47715 22 12 22C17.5228 22 22 17.5228 22 12C22 6.47715 17.5228 2 12 2C6.47715 2 2 6.47715 2 12ZM13 19.9381V4.06189C16.9463 4.55399 20 7.92038 20 12C20 16.0796 16.9463 19.446 13 19.9381ZM4.06189 13C4.51314 16.6187 7.38128 19.4869 11 19.9381V13H4.06189ZM4.06189 11H11V4.06189C7.38128 4.51314 4.51314 7.38128 4.06189 11Z"
    fill="black"
  />
</svg>
