<svg width="12" height="12" viewBox="0 0 12 12" fill="none" xmlns="http://www.w3.org/2000/svg">
  <path
    fill-rule="evenodd"
    clip-rule="evenodd"
    d="M1 6C1 8.76142 3.23858 11 6 11C8.76142 11 11 8.76142 11 6C11 3.23858 8.76142 1 6 1C3.23858 1 1 3.23858 1 6ZM6.5 9.96905V2.03095C8.47316 2.277 10 3.96019 10 6C10 8.03981 8.47316 9.723 6.5 9.96905ZM2.03095 6.5C2.25657 8.30936 3.69064 9.74343 5.5 9.96905V6.5L2.03095 6.5ZM2.03095 5.5C2.25657 3.69064 3.69064 2.25657 5.5 2.03095V5.5H2.03095Z"
    fill="black"
  />
</svg>
