<svg viewBox="0 0 12 12" xmlns="http://www.w3.org/2000/svg">
  <path
    d="M8.00003 6C8.00003 7.10457 7.1046 8 6.00003 8C4.89546 8 4.00003 7.10457 4.00003 6C4.00003 4.89543 4.89546 4 6.00003 4C7.1046 4 8.00003 4.89543 8.00003 6Z"
  />
  <path
    d="M3.00003 6H1.50264C1.50264 5.802 1.52064 5.604 1.54464 5.412L0.278638 4.422C0.164638 4.332 0.128638 4.17 0.206638 4.038L1.40664 1.962C1.47864 1.83 1.63464 1.776 1.77264 1.83L3.26664 2.43C3.57864 2.196 3.91464 1.992 4.28064 1.842L4.50864 0.252C4.52664 0.108 4.65264 0 4.80264 0H7.20264C7.35264 0 7.47864 0.108 7.49664 0.252L7.72464 1.842C8.09064 1.992 8.42664 2.19 8.73864 2.43L10.2326 1.83C10.3646 1.782 10.5266 1.83 10.5986 1.962L11.7986 4.038C11.8706 4.17 11.8406 4.332 11.7266 4.422L10.4606 5.412C10.4846 5.604 10.5026 5.796 10.5026 6H9.00003C9.00003 4.34315 7.65688 3 6.00003 3C4.34318 3 3.00003 4.34315 3.00003 6Z"
  />
  <path
    d="M7.00003 10C7.00003 10.5523 6.55232 11 6.00003 11C5.44775 11 5.00003 10.5523 5.00003 10C5.00003 9.44771 5.44775 9 6.00003 9C6.55232 9 7.00003 9.44771 7.00003 10Z"
  />
  <path
    d="M2.00003 7H3.00003V9.13378C3.29893 9.30669 3.50003 9.62986 3.50003 10C3.50003 10.5523 3.05232 11 2.50003 11C1.94775 11 1.50003 10.5523 1.50003 10C1.50003 9.62986 1.70113 9.30669 2.00003 9.13378V7Z"
  />
  <path
    d="M9.50003 11C10.0523 11 10.5 10.5523 10.5 10C10.5 9.62986 10.2989 9.30669 10 9.13378V7H9.00003V9.13378C8.70113 9.30669 8.50003 9.62986 8.50003 10C8.50003 10.5523 8.94775 11 9.50003 11Z"
  />
</svg>
