<svg viewBox="0 0 16 16" xmlns="http://www.w3.org/2000/svg">
  <path
    d="M10 8C10 9.10457 9.10457 10 8 10C6.89543 10 6 9.10457 6 8C6 6.89543 6.89543 6 8 6C9.10457 6 10 6.89543 10 8Z"
  />
  <path
    d="M12.9533 7.34671C12.98 7.56003 13 7.77335 13 8H11C11 6.34315 9.65685 5 8 5C6.34315 5 5 6.34315 5 8H3.00002C3.00002 7.78001 3.02002 7.56003 3.04668 7.34671L1.64002 6.24671C1.51335 6.14671 1.47335 5.96671 1.56001 5.82004L2.89335 3.51337C2.97335 3.36671 3.14668 3.30671 3.30001 3.36671L4.96002 4.03337C5.30668 3.77337 5.68002 3.54671 6.08668 3.38004L6.34002 1.61337C6.36002 1.45337 6.50002 1.33337 6.66668 1.33337H9.33335C9.50002 1.33337 9.64002 1.45337 9.66002 1.61337L9.91335 3.38004C10.32 3.54671 10.6933 3.76671 11.04 4.03337L12.7 3.36671C12.8467 3.31337 13.0267 3.36671 13.1067 3.51337L14.44 5.82004C14.52 5.96671 14.4867 6.14671 14.36 6.24671L12.9533 7.34671Z"
  />
  <path
    d="M9.5 12.5C9.5 13.3284 8.82843 14 8 14C7.17157 14 6.5 13.3284 6.5 12.5C6.5 11.6716 7.17157 11 8 11C8.82843 11 9.5 11.6716 9.5 12.5Z"
  />
  <path
    d="M3 9H4V11.0854C4.5826 11.2913 5 11.8469 5 12.5C5 13.3284 4.32843 14 3.5 14C2.67157 14 2 13.3284 2 12.5C2 11.8469 2.4174 11.2913 3 11.0854V9Z"
  />
  <path
    d="M12.5 14C13.3284 14 14 13.3284 14 12.5C14 11.8469 13.5826 11.2913 13 11.0854V9H12V11.0854C11.4174 11.2913 11 11.8469 11 12.5C11 13.3284 11.6716 14 12.5 14Z"
  />
</svg>
