<svg viewBox="0 0 24 24" xmlns="http://www.w3.org/2000/svg">
  <path
    d="M15 12C15 13.6569 13.6569 15 12 15C10.3431 15 9 13.6569 9 12C9 10.3431 10.3431 9 12 9C13.6569 9 15 10.3431 15 12Z"
  />
  <path
    d="M19.5001 12C19.5001 11.66 19.4701 11.34 19.4301 11.02L21.5401 9.37C21.7301 9.22 21.7801 8.95 21.6601 8.73L19.6601 5.27C19.5401 5.05 19.2701 4.97 19.0501 5.05L16.5601 6.05C16.0401 5.65 15.4801 5.32 14.8701 5.07L14.4901 2.42C14.4601 2.18 14.2501 2 14.0001 2H10.0001C9.75008 2 9.54008 2.18 9.51008 2.42L9.13008 5.07C8.52008 5.32 7.96008 5.66 7.44008 6.05L4.95008 5.05C4.72008 4.96 4.46008 5.05 4.34008 5.27L2.34008 8.73C2.21008 8.95 2.27008 9.22 2.46008 9.37L4.57008 11.02C4.53008 11.34 4.50008 11.67 4.50008 12H7C7 9.23858 9.23858 7 12 7C14.7614 7 17 9.23858 17 12H19.5001Z"
  />
  <path
    d="M13 17H11V18.2676C10.4022 18.6134 10 19.2597 10 20C10 21.1046 10.8954 22 12 22C13.1046 22 14 21.1046 14 20C14 19.2597 13.5978 18.6134 13 18.2676V17Z"
  />
  <path
    d="M5 15H7V18.2676C7.5978 18.6134 8 19.2597 8 20C8 21.1046 7.10457 22 6 22C4.89543 22 4 21.1046 4 20C4 19.2597 4.4022 18.6134 5 18.2676V15Z"
  />
  <path
    d="M18 22C19.1046 22 20 21.1046 20 20C20 19.2597 19.5978 18.6134 19 18.2676V15H17V18.2676C16.4022 18.6134 16 19.2597 16 20C16 21.1046 16.8954 22 18 22Z"
  />
</svg>
