<svg viewBox="0 0 34 40" xmlns="http://www.w3.org/2000/svg">
  <path
    d="M32 0H2C0.89543 0 0 0.89543 0 2V38C0 39.1046 0.89543 40 2 40H32C33.1046 40 34 39.1046 34 38V2C34 0.89543 33.1046 0 32 0Z"
  />
  <path
    opacity="0.6"
    fill-rule="evenodd"
    clip-rule="evenodd"
    d="M10 17H9V18V33H10H24H25V18V17H18V18H24V32H10V18V17ZM12 17H14H15V18H17V19H15V20H17V21H15V22H17V23H15V24H17V25H15V26H16V30H13V26H14V24H12V23H14V22H12V21H14V20H12V19H14V18H12V17ZM15 27H14V29H15V27Z"
    fill="white"
  />
  <path d="M18 5V6H17V5H18Z" fill="white" />
  <path d="M15 8V7H18V11H19V12H15V11H17V8H15Z" fill="white" />
  <path d="M14 12H10V11L12.5 8H10V7H14V8L11.68 11H14V12Z" fill="white" />
  <path
    fill-rule="evenodd"
    clip-rule="evenodd"
    d="M20.8 7V7.24C21.0067 7.08 21.2733 7 21.6 7H22.3C22.8867 7 23.3167 7.12667 23.59 7.38C23.8633 7.62667 24 8.03333 24 8.6V10.4C24 10.96 23.86 11.3667 23.58 11.62C23.3067 11.8733 22.88 12 22.3 12H21.01V14H20V7H20.8ZM21.65 8C21.43 8 21.2667 8.06 21.16 8.18C21.0533 8.29333 21 8.41667 21 8.55L21.01 11H22.25C22.4967 11 22.6833 10.9433 22.81 10.83C22.9367 10.7167 23 10.5567 23 10.35V8.65C23 8.44333 22.9367 8.28333 22.81 8.17C22.6833 8.05667 22.4967 8 22.25 8H21.65Z"
    fill="white"
  />
</svg>
