<svg viewBox="0 0 24 28" xmlns="http://www.w3.org/2000/svg">
  <rect width="24" height="28" rx="2" />
  <path
    opacity="0.6"
    fill-rule="evenodd"
    clip-rule="evenodd"
    d="M6 12H5V13V25H6H18H19V13V12H14V13H18V24H6V13V12ZM7 12H9H10V13H12V14H10V15H12V16H10V17V18H11V22H8V18H9V17H7V16H9V15H7V14H9V13H7V12ZM10 19H9V21H10V19Z"
    fill="white"
  />
  <path d="M13 2V3H12V2H13Z" fill="white" />
  <path d="M10 5V4H13V8H14V9H10V8H12V5H10Z" fill="white" />
  <path d="M9 9H5V8L7.5 5H5V4H9V5L6.68 8H9V9Z" fill="white" />
  <path
    fill-rule="evenodd"
    clip-rule="evenodd"
    d="M15.8 4V4.24C16.0067 4.08 16.2733 4 16.6 4H17.3C17.8867 4 18.3167 4.12667 18.59 4.38C18.8633 4.62667 19 5.03333 19 5.6V7.4C19 7.96 18.86 8.36667 18.58 8.62C18.3067 8.87333 17.88 9 17.3 9H16.01V11H15V4H15.8ZM16.65 5C16.43 5 16.2667 5.06 16.16 5.18C16.0533 5.29333 16 5.41667 16 5.55L16.01 8H17.25C17.4967 8 17.6833 7.94333 17.81 7.83C17.9367 7.71667 18 7.55667 18 7.35V5.65C18 5.44333 17.9367 5.28333 17.81 5.17C17.6833 5.05667 17.4967 5 17.25 5H16.65Z"
    fill="white"
  />
</svg>
