<svg viewBox="0 0 30 40" xmlns="http://www.w3.org/2000/svg">
  <path
    d="M28 0H2C0.89543 0 0 0.89543 0 2V38C0 39.1046 0.89543 40 2 40H28C29.1046 40 30 39.1046 30 38V2C30 0.89543 29.1046 0 28 0Z"
  />
  <path
    opacity="0.6"
    fill-rule="evenodd"
    clip-rule="evenodd"
    d="M8 17H7V18V33H8H22H23V18V17H16V18H22V32H8V18V17ZM10 17H12H13V18H15V19H13V20H15V21H13V22H15V23H13V24H15V25H13V26H14V30H11V26H12V24H10V23H12V22H10V21H12V20H10V19H12V18H10V17ZM13 27H12V29H13V27Z"
    fill="#fff"
  />
  <path d="M15.6 5V6H14.6V5H15.6Z" fill="#fff" />
  <path d="M13.6 8V7H15.6V11H16.6V12H13.6V11H14.6V8H13.6Z" fill="#fff" />
  <path d="M12.6 12H8.60001V11L11.1 8H8.60001V7H12.6V8L10.28 11H12.6V12Z" fill="#fff" />
  <path
    fill-rule="evenodd"
    clip-rule="evenodd"
    d="M18.4 7V7.24C18.6067 7.08 18.8733 7 19.2 7H19.9C20.4867 7 20.9167 7.12667 21.19 7.38C21.4633 7.62667 21.6 8.03333 21.6 8.6V10.4C21.6 10.96 21.46 11.3667 21.18 11.62C20.9067 11.8733 20.48 12 19.9 12H18.61V14H17.6V7H18.4ZM19.25 8C19.03 8 18.8667 8.06 18.76 8.18C18.6533 8.29333 18.6 8.41667 18.6 8.55L18.61 11H19.85C20.0967 11 20.2833 10.9433 20.41 10.83C20.5367 10.7167 20.6 10.5567 20.6 10.35V8.65C20.6 8.44333 20.5367 8.28333 20.41 8.17C20.2833 8.05667 20.0967 8 19.85 8H19.25Z"
    fill="#fff"
  />
</svg>
