<svg viewBox="0 0 24 24" xmlns="http://www.w3.org/2000/svg">
  <path
    d="M21.5879 7.19117C21.3575 6.33435 20.6819 5.65894 19.8252 5.42822C18.2602 5 11.9998 5 11.9998 5C11.9998 5 5.73963 5 4.17456 5.41199C3.33435 5.64246 2.64234 6.33448 2.41187 7.19117C2 8.75611 2 12.0016 2 12.0016C2 12.0016 2 15.2634 2.41187 16.812C2.64258 17.6687 3.31787 18.3441 4.17469 18.5749C5.75611 19.0032 12 19.0032 12 19.0032C12 19.0032 18.2602 19.0032 19.8252 18.5912C20.682 18.3606 21.3575 17.6852 21.5882 16.8285C21.9999 15.2634 21.9999 12.0181 21.9999 12.0181C21.9999 12.0181 22.0164 8.75611 21.5879 7.19117ZM10.0066 14.9999V9.0033L15.2124 12.0016L10.0066 14.9999Z"
  />
</svg>
