<svg viewBox="0 0 16 16" xmlns="http://www.w3.org/2000/svg">
  <path
    d="M13.7528 5.3147C13.6145 4.80061 13.2092 4.39536 12.6951 4.25693C11.7561 4 7.99987 4 7.99987 4C7.99987 4 4.24378 4 3.30474 4.24719C2.80061 4.38547 2.3854 4.80069 2.24712 5.3147C2 6.25367 2 8.20096 2 8.20096C2 8.20096 2 10.1581 2.24712 11.0872C2.38555 11.6012 2.79072 12.0065 3.30481 12.1449C4.25367 12.4019 8.00001 12.4019 8.00001 12.4019C8.00001 12.4019 11.7561 12.4019 12.6951 12.1547C13.2092 12.0164 13.6145 11.6111 13.7529 11.0971C13.9999 10.1581 13.9999 8.21085 13.9999 8.21085C13.9999 8.21085 14.0098 6.25367 13.7528 5.3147ZM6.80396 9.99994V6.40198L9.92746 8.20096L6.80396 9.99994Z"
  />
</svg>
