<svg width="16" height="16" viewBox="0 0 16 16" fill="none" xmlns="http://www.w3.org/2000/svg">
  <path
    fill-rule="evenodd"
    clip-rule="evenodd"
    d="M5 0H11V2H10.0146L10.8804 6H13V8H3V6H5.1496L5.99231 2H5V0ZM7.82556 3L7.19354 6H8.83411L8.18475 3H7.82556Z"
    fill="black"
  />
  <path
    d="M0 11.8255V9.82552L0.772705 9.31673C1.51886 8.94365 2.38666 8.8981 3.16772 9.19101L5.53448 10.0786C5.79486 10.1762 6.08417 10.161 6.33282 10.0367L7.72314 9.34152C8.51239 8.94688 9.43542 8.91975 10.2465 9.26736L11.954 9.99915C12.2491 10.1256 12.587 10.1027 12.8624 9.93748L13.5441 9.52849C14.2898 9.08104 15.1855 8.98294 16 9.24304V11.4391L15.5348 11.2065C15.2289 11.0536 14.8662 11.0676 14.5731 11.2435L13.8914 11.6525C13.3163 11.9975 12.6503 12.1357 12 12.0598V14H10V11.3377L9.45868 11.1057C9.18829 10.9898 8.88062 10.9988 8.61755 11.1304L7.22729 11.8255C6.84113 12.0186 6.42242 12.1239 6 12.14V14H4V11.6391L2.46545 11.0637C2.20514 10.966 1.91583 10.9812 1.66718 11.1056L0 11.8255Z"
    fill="black"
  />
</svg>
