<svg width="12" height="12" viewBox="0 0 12 12" fill="none" xmlns="http://www.w3.org/2000/svg">
  <path
    fill-rule="evenodd"
    clip-rule="evenodd"
    d="M8 1H4V2H4.64856L3.79359 6H2V7H10V6H8.20641L7.35144 2H8V1ZM6.54259 3H5.45741L4.81617 6H7.18383L6.54259 3Z"
    fill="black"
  />
  <path
    d="M3 9.48007C2.90661 9.4274 2.82182 9.3737 2.74584 9.32557C2.7213 9.31002 2.69752 9.29496 2.67482 9.28081C2.36636 9.08841 2.12502 8.95947 1.79104 8.95947C1.58906 8.95947 1.31728 9.04393 1 9.20251V8.11422C1.25978 8.02061 1.52859 7.95947 1.79104 7.95947C2.42696 7.95947 2.87586 8.22763 3.20405 8.43233C3.56023 8.65449 3.72146 8.75366 3.92703 8.75366C4.11249 8.75366 4.24946 8.66818 4.5075 8.46427L4.55035 8.43016C4.77518 8.25055 5.13957 7.95947 5.64672 7.95947C6.14119 7.95947 6.50448 8.23879 6.73274 8.41429C6.75256 8.42953 6.77146 8.44407 6.78925 8.45749C7.04435 8.65004 7.21335 8.75366 7.45949 8.75366C7.69031 8.75366 7.81466 8.66541 8.03789 8.47563L8.07311 8.44552C8.29322 8.25685 8.64016 7.95947 9.19509 7.95947C9.70901 7.95947 10.1566 8.2182 10.4721 8.40053L10.5116 8.42334C10.7085 8.53681 10.8644 8.62269 11 8.6784V9.71966C10.6244 9.64352 10.2979 9.45483 10.0519 9.31261L10.0123 9.28979C9.64023 9.07537 9.41482 8.95947 9.19509 8.95947C9.12157 8.95947 9.06298 8.97183 9 9.003V11.0001H8V9.66495C7.8448 9.71893 7.66625 9.75366 7.45949 9.75366C6.85824 9.75366 6.45777 9.46018 6.18679 9.25564C5.88326 9.02653 5.78305 8.95947 5.64672 8.95947C5.51365 8.95947 5.40999 9.02564 5.12751 9.24887L5.11704 9.25714C4.88283 9.4423 4.52237 9.72729 4 9.75195L4 11.0002H3V9.48007Z"
    fill="black"
  />
</svg>
