<svg width="24" height="24" viewBox="0 0 24 24" fill="none" xmlns="http://www.w3.org/2000/svg">
  <path
    d="M3.00002 22C2.70002 22 2.50002 21.9 2.30002 21.7C2.00002 21.4 1.90002 21 2.10002 20.7L3.90002 15.4C3.30002 14.2 3.00002 12.8 3.00002 11.5C3.00002 7.9 5.00002 4.6 8.30002 3C9.60002 2.3 11.1 2 12.5 2H13C17.9 2.3 21.7 6.1 22 10.9V11.5C22 13 21.7 14.4 21 15.8C19.4 19 16.1 21 12.5 21C11.2 21 9.90002 20.7 8.70002 20.2L3.40002 22C3.20002 22 3.10002 22 3.00002 22Z"
    fill="black"
  />
</svg>
