<svg width="16" height="16" viewBox="0 0 16 16" fill="none" xmlns="http://www.w3.org/2000/svg">
  <path
    d="M2.00695 15C1.70488 15 1.5035 14.9 1.30212 14.7C1.00005 14.4 0.899361 14 1.10074 13.7L2.20833 10.3C1.80557 9.4 1.70488 8.6 1.70488 7.7C1.70488 5.2 3.11454 2.9 5.43041 1.7C6.33663 1.2 7.34353 1 8.35043 1H8.6525C12.076 1.2 14.7946 3.9 14.996 7.3V7.7C14.996 8.7 14.7946 9.8 14.2911 10.7C13.1836 13 10.8677 14.4 8.24974 14.4C7.34353 14.4 6.43732 14.2 5.63179 13.9L2.20833 15C2.20833 15 2.10764 15 2.00695 15Z"
    fill="black"
  />
</svg>
