<svg width="12" height="12" viewBox="0 0 12 12" fill="none" xmlns="http://www.w3.org/2000/svg">
  <path
    fill-rule="evenodd"
    clip-rule="evenodd"
    d="M6.46895 1C8.91428 1.14286 10.8562 3.07143 11 5.5V5.78571C11 6.5 10.8562 7.28571 10.4965 7.92857C9.70541 9.57143 8.05122 10.5714 6.18126 10.5714C5.53397 10.5714 4.88667 10.4286 4.3113 10.2143L1.86597 11H1.72213C1.50636 11 1.36252 10.9286 1.21868 10.7857C1.00291 10.5714 0.930993 10.2857 1.07484 10.0714L1.86597 7.64286C1.57829 7 1.50636 6.42857 1.50636 5.78571C1.50636 4 2.51327 2.35714 4.16746 1.5C4.81475 1.14286 5.53397 1 6.25318 1H6.46895Z"
    fill="black"
  />
</svg>
