<svg viewBox="0 0 24 28" xmlns="http://www.w3.org/2000/svg">
  <rect width="24" height="28" rx="2" />
  <g opacity="0.6">
    <path
      fill-rule="evenodd"
      clip-rule="evenodd"
      d="M10.5399 12H9.29155L8.92302 13.0234C8.44762 13.1779 8.01799 13.4404 7.66062 13.7833L6.62416 13.6037L6 14.7296L6.66698 15.5739C6.61452 15.8183 6.58684 16.0724 6.58684 16.3333C6.58684 16.5942 6.61452 16.8484 6.66698 17.0928L6.00004 17.9371L6.6242 19.0629L7.66062 18.8834C8.01799 19.2263 8.44762 19.4888 8.92302 19.6432L9.29155 20.6667H10.5399L10.9084 19.6432C11.3838 19.4888 11.8134 19.2263 12.1708 18.8834L13.2072 19.0629L13.8314 17.9371L13.1644 17.0928C13.2169 16.8484 13.2446 16.5942 13.2446 16.3333C13.2446 16.0724 13.2169 15.8183 13.1644 15.5738L13.8314 14.7296L13.2072 13.6038L12.1708 13.7833C11.8134 13.4404 11.3838 13.1779 10.9084 13.0234L10.5399 12ZM11.5801 16.3333C11.5801 17.2906 10.8349 18.0667 9.91569 18.0667C8.99645 18.0667 8.25126 17.2906 8.25126 16.3333C8.25126 15.376 8.99645 14.6 9.91569 14.6C10.8349 14.6 11.5801 15.376 11.5801 16.3333Z"
      fill="white"
    />
    <path
      fill-rule="evenodd"
      clip-rule="evenodd"
      d="M14.4929 18.0667H15.3251L15.6386 19.0461C16.0062 19.1629 16.3378 19.3657 16.6118 19.6319L17.5839 19.4247L18 20.1753L17.3421 20.9478C17.3837 21.136 17.4057 21.332 17.4057 21.5333C17.4057 21.7346 17.3837 21.9306 17.3421 22.1188L18 22.8914L17.5839 23.6419L16.6118 23.4348C16.3378 23.701 16.0062 23.9038 15.6386 24.0206L15.3251 25H14.4929L14.1794 24.0206C13.8118 23.9038 13.4802 23.701 13.2062 23.4348L12.2342 23.6419L11.8181 22.8914L12.4759 22.1188C12.4344 21.9306 12.4124 21.7347 12.4124 21.5333C12.4124 21.332 12.4344 21.136 12.4759 20.9478L11.8181 20.1753L12.2342 19.4247L13.2063 19.6319C13.4803 19.3656 13.8118 19.1629 14.1794 19.0461L14.4929 18.0667ZM15.7413 21.5333C15.7413 22.012 15.3687 22.4 14.909 22.4C14.4494 22.4 14.0768 22.012 14.0768 21.5333C14.0768 21.0547 14.4494 20.6667 14.909 20.6667C15.3687 20.6667 15.7413 21.0547 15.7413 21.5333Z"
      fill="white"
    />
  </g>
  <path
    fill-rule="evenodd"
    clip-rule="evenodd"
    d="M6.7 9C6.11333 9 5.68333 8.87667 5.41 8.63C5.13667 8.37667 5 7.96667 5 7.4V5.6C5 5.02667 5.12333 4.61667 5.37 4.37C5.61667 4.12333 6.02667 4 6.6 4H7.57C8.04333 4 8.4 4.13333 8.64 4.4C8.88667 4.66 9.01 5.04333 9.01 5.55V7H6.01V7.35C6.01 7.55667 6.07333 7.71667 6.2 7.83C6.32667 7.94333 6.51333 8 6.76 8H8.51V9H6.7ZM8.01 5.6C8.01 5.42667 7.95333 5.28333 7.84 5.17C7.72667 5.05667 7.58333 5 7.41 5H6.66C6.42 5 6.25 5.05667 6.15 5.17C6.05667 5.27667 6.01 5.43667 6.01 5.65V6H8.01V5.6Z"
    fill="white"
  />
  <path
    fill-rule="evenodd"
    clip-rule="evenodd"
    d="M16.69 9C16.1033 9 15.6733 8.87667 15.4 8.63C15.1267 8.37667 14.99 7.96667 14.99 7.4V5.6C14.99 5.02667 15.1133 4.61667 15.36 4.37C15.6067 4.12333 16.0167 4 16.59 4H17.56C18.0333 4 18.39 4.13333 18.63 4.4C18.8767 4.66 19 5.04333 19 5.55V7H16V7.35C16 7.55667 16.0633 7.71667 16.19 7.83C16.3167 7.94333 16.5033 8 16.75 8H18.5V9H16.69ZM18 5.6C18 5.42667 17.9433 5.28333 17.83 5.17C17.7167 5.05667 17.5733 5 17.4 5H16.65C16.41 5 16.24 5.05667 16.14 5.17C16.0467 5.27667 16 5.43667 16 5.65V6H18V5.6Z"
    fill="white"
  />
  <path
    d="M10 9H11V7.5L12 7L13 7.5V9H14V7H13V6H14V4H13V5.5L12 6L11 5.5V4H10V6H11V7H10V9Z"
    fill="white"
  />
</svg>
