<svg viewBox="0 0 34 40" xmlns="http://www.w3.org/2000/svg">
  <path
    d="M32 0H2C0.89543 0 0 0.89543 0 2V38C0 39.1046 0.89543 40 2 40H32C33.1046 40 34 39.1046 34 38V2C34 0.89543 33.1046 0 32 0Z"
  />
  <g opacity="0.6">
    <path
      fill-rule="evenodd"
      clip-rule="evenodd"
      d="M15.0532 17H13.3887L12.8974 18.3383C12.2635 18.5403 11.6907 18.8836 11.2142 19.332L9.83221 19.0972L9 20.5694L9.8893 21.6735C9.81936 21.9931 9.78246 22.3255 9.78246 22.6667C9.78246 23.0078 9.81936 23.3402 9.88931 23.6599L9.00005 24.7639L9.83227 26.2361L11.2142 26.0013C11.6907 26.4498 12.2635 26.793 12.8974 26.995L13.3887 28.3333H15.0532L15.5445 26.995C16.1784 26.793 16.7512 26.4498 17.2277 26.0014L18.6096 26.2361L19.4418 24.7639L18.5526 23.6599C18.6225 23.3402 18.6594 23.0079 18.6594 22.6667C18.6594 22.3255 18.6225 21.9931 18.5526 21.6735L19.4419 20.5695L18.6097 19.0972L17.2277 19.332C16.7512 18.8836 16.1784 18.5403 15.5445 18.3383L15.0532 17ZM16.4402 22.6667C16.4402 23.9185 15.4466 24.9333 14.2209 24.9333C12.9953 24.9333 12.0017 23.9185 12.0017 22.6667C12.0017 21.4148 12.9953 20.4 14.2209 20.4C15.4466 20.4 16.4402 21.4148 16.4402 22.6667Z"
      fill="white"
    />
    <path
      fill-rule="evenodd"
      clip-rule="evenodd"
      d="M20.3239 24.9333H21.4335L21.8515 26.2141C22.3416 26.3669 22.7838 26.632 23.1491 26.9801L24.4451 26.7093L25 27.6907L24.1228 28.701C24.1783 28.9471 24.2076 29.2034 24.2076 29.4667C24.2076 29.7299 24.1783 29.9862 24.1228 30.2323L25 31.2426L24.4452 32.2241L23.1491 31.9532C22.7838 32.3013 22.3417 32.5664 21.8515 32.7192L21.4335 34H20.3239L19.9059 32.7192C19.4158 32.5665 18.9737 32.3013 18.6083 31.9532L17.3123 32.2241L16.7575 31.2426L17.6346 30.2323C17.5791 29.9862 17.5498 29.7299 17.5498 29.4667C17.5498 29.2034 17.5791 28.9471 17.6346 28.701L16.7575 27.6907L17.3123 26.7092L18.6084 26.9801C18.9737 26.632 19.4158 26.3669 19.9059 26.2141L20.3239 24.9333ZM21.9883 29.4667C21.9883 30.0926 21.4915 30.6 20.8787 30.6C20.2659 30.6 19.7691 30.0926 19.7691 29.4667C19.7691 28.8407 20.2659 28.3333 20.8787 28.3333C21.4915 28.3333 21.9883 28.8407 21.9883 29.4667Z"
      fill="white"
    />
  </g>
  <path
    fill-rule="evenodd"
    clip-rule="evenodd"
    d="M11.7 12C11.1133 12 10.6833 11.8767 10.41 11.63C10.1367 11.3767 10 10.9667 10 10.4V8.6C10 8.02667 10.1233 7.61667 10.37 7.37C10.6167 7.12333 11.0267 7 11.6 7H12.57C13.0433 7 13.4 7.13333 13.64 7.4C13.8867 7.66 14.01 8.04333 14.01 8.55V10H11.01V10.35C11.01 10.5567 11.0733 10.7167 11.2 10.83C11.3267 10.9433 11.5133 11 11.76 11H13.51V12H11.7ZM13.01 8.6C13.01 8.42667 12.9533 8.28333 12.84 8.17C12.7267 8.05667 12.5833 8 12.41 8H11.66C11.42 8 11.25 8.05667 11.15 8.17C11.0567 8.27667 11.01 8.43667 11.01 8.65V9H13.01V8.6Z"
    fill="white"
  />
  <path
    fill-rule="evenodd"
    clip-rule="evenodd"
    d="M21.69 12C21.1033 12 20.6733 11.8767 20.4 11.63C20.1267 11.3767 19.99 10.9667 19.99 10.4V8.6C19.99 8.02667 20.1133 7.61667 20.36 7.37C20.6067 7.12333 21.0167 7 21.59 7H22.56C23.0333 7 23.39 7.13333 23.63 7.4C23.8767 7.66 24 8.04333 24 8.55V10H21V10.35C21 10.5567 21.0633 10.7167 21.19 10.83C21.3167 10.9433 21.5033 11 21.75 11H23.5V12H21.69ZM23 8.6C23 8.42667 22.9433 8.28333 22.83 8.17C22.7167 8.05667 22.5733 8 22.4 8H21.65C21.41 8 21.24 8.05667 21.14 8.17C21.0467 8.27667 21 8.43667 21 8.65V9H23V8.6Z"
    fill="white"
  />
  <path
    d="M15 12H16V10.5L17 10L18 10.5V12H19V10H18V9H19V7H18V8.5L17 9L16 8.5V7H15V9H16V10H15V12Z"
    fill="white"
  />
</svg>
