<svg viewBox="0 0 21 28" xmlns="http://www.w3.org/2000/svg">
  <path
    d="M19.6 0H1.4C0.626801 0 0 0.626801 0 1.4V26.6C0 27.3732 0.626801 28 1.4 28H19.6C20.3732 28 21 27.3732 21 26.6V1.4C21 0.626801 20.3732 0 19.6 0Z"
  />
  <g opacity="0.6">
    <path
      fill-rule="evenodd"
      clip-rule="evenodd"
      d="M9.53987 12H8.29155L7.92302 13.0234C7.44762 13.1779 7.01799 13.4404 6.66062 13.7833L5.62416 13.6037L5 14.7296L5.66698 15.5739C5.61452 15.8183 5.58684 16.0724 5.58684 16.3333C5.58684 16.5942 5.61452 16.8484 5.66698 17.0928L5.00004 17.9371L5.6242 19.0629L6.66062 18.8834C7.01799 19.2263 7.44762 19.4888 7.92302 19.6432L8.29155 20.6667H9.53987L9.9084 19.6432C10.3838 19.4888 10.8134 19.2263 11.1708 18.8834L12.2072 19.0629L12.8314 17.9371L12.1644 17.0928C12.2169 16.8484 12.2446 16.5942 12.2446 16.3333C12.2446 16.0724 12.2169 15.8183 12.1644 15.5738L12.8314 14.7296L12.2072 13.6038L11.1708 13.7833C10.8134 13.4404 10.3838 13.1779 9.9084 13.0234L9.53987 12ZM10.5801 16.3333C10.5801 17.2906 9.83493 18.0667 8.91569 18.0667C7.99645 18.0667 7.25126 17.2906 7.25126 16.3333C7.25126 15.376 7.99645 14.6 8.91569 14.6C9.83493 14.6 10.5801 15.376 10.5801 16.3333Z"
      fill="#fff"
    />
    <path
      fill-rule="evenodd"
      clip-rule="evenodd"
      d="M13.4929 18.0667H14.3251L14.6386 19.0461C15.0062 19.1629 15.3378 19.3657 15.6118 19.6319L16.5839 19.4247L17 20.1753L16.3421 20.9478C16.3837 21.136 16.4057 21.332 16.4057 21.5333C16.4057 21.7346 16.3837 21.9306 16.3421 22.1188L17 22.8914L16.5839 23.6419L15.6118 23.4348C15.3378 23.701 15.0062 23.9038 14.6386 24.0206L14.3251 25H13.4929L13.1794 24.0206C12.8118 23.9038 12.4802 23.701 12.2062 23.4348L11.2342 23.6419L10.8181 22.8914L11.4759 22.1188C11.4344 21.9306 11.4124 21.7347 11.4124 21.5333C11.4124 21.332 11.4344 21.136 11.4759 20.9478L10.8181 20.1753L11.2342 19.4247L12.2063 19.6319C12.4803 19.3656 12.8118 19.1629 13.1794 19.0461L13.4929 18.0667ZM14.7413 21.5333C14.7413 22.012 14.3687 22.4 13.909 22.4C13.4494 22.4 13.0768 22.012 13.0768 21.5333C13.0768 21.0547 13.4494 20.6667 13.909 20.6667C14.3687 20.6667 14.7413 21.0547 14.7413 21.5333Z"
      fill="#fff"
    />
  </g>
  <path
    fill-rule="evenodd"
    clip-rule="evenodd"
    d="M5.2 9C4.61333 9 4.18333 8.87667 3.91 8.63C3.63667 8.37667 3.5 7.96667 3.5 7.4V5.6C3.5 5.02667 3.62333 4.61667 3.87 4.37C4.11667 4.12333 4.52667 4 5.1 4H6.07C6.54333 4 6.9 4.13333 7.14 4.4C7.38667 4.66 7.51 5.04333 7.51 5.55V7H4.51V7.35C4.51 7.55667 4.57333 7.71667 4.7 7.83C4.82667 7.94333 5.01333 8 5.26 8H7.01V9H5.2ZM6.51 5.6C6.51 5.42667 6.45333 5.28333 6.34 5.17C6.22667 5.05667 6.08333 5 5.91 5H5.16C4.92 5 4.75 5.05667 4.65 5.17C4.55667 5.27667 4.51 5.43667 4.51 5.65V6H6.51V5.6Z"
    fill="#fff"
  />
  <path
    fill-rule="evenodd"
    clip-rule="evenodd"
    d="M15.19 9C14.6033 9 14.1733 8.87667 13.9 8.63C13.6267 8.37667 13.49 7.96667 13.49 7.4V5.6C13.49 5.02667 13.6133 4.61667 13.86 4.37C14.1067 4.12333 14.5167 4 15.09 4H16.06C16.5333 4 16.89 4.13333 17.13 4.4C17.3767 4.66 17.5 5.04333 17.5 5.55V7H14.5V7.35C14.5 7.55667 14.5633 7.71667 14.69 7.83C14.8167 7.94333 15.0033 8 15.25 8H17V9H15.19ZM16.5 5.6C16.5 5.42667 16.4433 5.28333 16.33 5.17C16.2167 5.05667 16.0733 5 15.9 5H15.15C14.91 5 14.74 5.05667 14.64 5.17C14.5467 5.27667 14.5 5.43667 14.5 5.65V6H16.5V5.6Z"
    fill="#fff"
  />
  <path
    d="M8.5 9H9.5V7.5L10.5 7L11.5 7.5V9H12.5V7H11.5V6H12.5V4H11.5V5.5L10.5 6L9.5 5.5V4H8.5V6H9.5V7H8.5V9Z"
    fill="#fff"
  />
</svg>
