<svg
  width="200"
  height="120"
  viewBox="0 0 200 120"
  fill="none"
  xmlns="http://www.w3.org/2000/svg"
>
  <path
    d="M0 4C0 1.79086 1.79086 0 4 0H196C198.209 0 200 1.79086 200 4V116C200 118.209 198.209 120 196 120H4C1.79086 120 0 118.209 0 116V4Z"
    fill="var(--color-bg-default)"
  />
  <circle cx="40" cy="60" r="16" fill="var(--color-bg-default)" />
  <path
    d="M52.2789 70.2031C53.9199 68.2287 55.0612 65.8882 55.6063 63.3795C56.1514 60.8708 56.0842 58.2677 55.4105 55.7904C54.7368 53.3131 53.4764 51.0346 51.7358 49.1475C49.9952 47.2604 47.8258 45.8202 45.4109 44.9489C42.996 44.0776 40.4068 43.8007 37.8623 44.1416C35.3178 44.4826 32.8929 45.4314 30.7926 46.9077C28.6923 48.3841 26.9785 50.3446 25.7962 52.6233C24.6139 54.9021 23.9978 57.4321 24 59.9994C24.0009 63.7314 25.316 67.344 27.7147 70.2031L27.6918 70.2225C27.7718 70.3185 27.8632 70.4007 27.9455 70.4956C28.0483 70.6133 28.1592 70.7241 28.2654 70.8384C28.5854 71.1857 28.9145 71.5194 29.2595 71.8325C29.3647 71.9284 29.4732 72.0176 29.5795 72.109C29.9451 72.4243 30.321 72.7237 30.7107 73.0025C30.7609 73.0368 30.8067 73.0814 30.8569 73.1168V73.1031C33.5331 74.9863 36.7256 75.997 39.998 75.997C43.2703 75.997 46.4628 74.9863 49.139 73.1031V73.1168C49.1893 73.0814 49.2338 73.0368 49.2853 73.0025C49.6737 72.7226 50.0508 72.4243 50.4165 72.109C50.5227 72.0176 50.6313 71.9273 50.7364 71.8325C51.0815 71.5182 51.4105 71.1857 51.7305 70.8384C51.8367 70.7241 51.9464 70.6133 52.0504 70.4956C52.1315 70.4007 52.2241 70.3185 52.3041 70.2214L52.2789 70.2031ZM39.9968 50.8584C41.0138 50.8584 42.0079 51.1599 42.8535 51.7249C43.699 52.2899 44.3581 53.0929 44.7473 54.0325C45.1364 54.972 45.2383 56.0059 45.0399 57.0033C44.8415 58.0007 44.3517 58.9169 43.6326 59.636C42.9135 60.3551 41.9974 60.8448 40.9999 61.0432C40.0025 61.2416 38.9687 61.1398 38.0291 60.7506C37.0896 60.3614 36.2865 59.7024 35.7215 58.8568C35.1565 58.0113 34.855 57.0171 34.855 56.0002C34.855 54.6365 35.3967 53.3286 36.361 52.3644C37.3253 51.4001 38.6331 50.8584 39.9968 50.8584ZM30.8638 70.2031C30.8836 68.7028 31.4933 67.2706 32.561 66.2164C33.6287 65.1622 35.0685 64.5707 36.5689 64.5699H43.4247C44.9251 64.5707 46.365 65.1622 47.4326 66.2164C48.5003 67.2706 49.11 68.7028 49.1299 70.2031C46.6239 72.4613 43.3702 73.711 39.9968 73.711C36.6235 73.711 33.3697 72.4613 30.8638 70.2031Z"
    fill="var(--color-bg-link)"
  />
  <rect x="68" y="46" width="112" height="12" fill="var(--color-typo-ghost)" />
  <rect x="68" y="62" width="56" height="12" fill="var(--color-bg-system)" />
</svg>
