<svg viewBox="0 0 16 16" xmlns="http://www.w3.org/2000/svg">
  <path
    d="M9 1a1 1 0 00-2 0v1a1 1 0 002 0V1zM13.657 3.757a1 1 0 00-1.414-1.414l-.707.707a1 1 0 001.414 1.414l.707-.707zM3.757 2.343a1 1 0 00-1.414 1.414l.707.707A1 1 0 004.464 3.05l-.707-.707zM1 7a1 1 0 000 2h1a1 1 0 000-2H1zM14 7a1 1 0 100 2h1a1 1 0 100-2h-1zM12.95 11.536a1 1 0 00-1.414 1.414l.707.707a1 1 0 001.414-1.414l-.707-.707zM4.464 11.536a1 1 0 00-1.414 0l-.707.707a1 1 0 001.414 1.414l.707-.707a1 1 0 000-1.414zM9 14a1 1 0 10-2 0v1a1 1 0 102 0v-1z"
  />
  <path fill-rule="evenodd" clip-rule="evenodd" d="M8 4a4 4 0 100 8 4 4 0 000-8z" />
</svg>
