<svg viewBox="0 0 24 24" xmlns="http://www.w3.org/2000/svg">
  <path
    d="M12 0a1 1 0 011 1v2a1 1 0 11-2 0V1a1 1 0 011-1zM0 12a1 1 0 011-1h2a1 1 0 110 2H1a1 1 0 01-1-1zM21 11a1 1 0 100 2h2a1 1 0 100-2h-2zM12 20a1 1 0 011 1v2a1 1 0 11-2 0v-2a1 1 0 011-1zM17.683 17.683a1 1 0 011.414 0l1.414 1.414a1 1 0 01-1.414 1.414l-1.414-1.414a1 1 0 010-1.414zM6.321 19.097a1 1 0 10-1.414-1.414l-1.414 1.414a1 1 0 101.414 1.414l1.414-1.414zM3.493 3.493a1 1 0 011.414 0l1.414 1.414a1 1 0 11-1.414 1.414L3.493 4.907a1 1 0 010-1.414zM20.511 4.907a1 1 0 00-1.414-1.414l-1.414 1.414a1 1 0 001.414 1.414l1.414-1.414zM12 18a6 6 0 100-12 6 6 0 000 12z"
  />
</svg>
