<svg viewBox="0 0 16 16" xmlns="http://www.w3.org/2000/svg">
  <path
    d="M9 1C9 0.447715 8.55228 0 8 0C7.44772 0 7 0.447715 7 1V2C7 2.55228 7.44772 3 8 3C8.55228 3 9 2.55228 9 2V1Z"
  />
  <path
    d="M13.6569 3.75736C14.0474 3.36683 14.0474 2.73367 13.6569 2.34314C13.2663 1.95262 12.6332 1.95262 12.2426 2.34315L11.5355 3.05025C11.145 3.44078 11.145 4.07394 11.5355 4.46447C11.9261 4.85499 12.5592 4.85499 12.9497 4.46447L13.6569 3.75736Z"
  />
  <path
    d="M3.75739 2.34317C3.36686 1.95265 2.7337 1.95265 2.34317 2.34317C1.95265 2.7337 1.95265 3.36686 2.34317 3.75739L3.05022 4.46443C3.44074 4.85495 4.0739 4.85495 4.46443 4.46443C4.85495 4.0739 4.85495 3.44074 4.46443 3.05022L3.75739 2.34317Z"
  />
  <path
    d="M1 7C0.447715 7 0 7.44772 0 8C0 8.55228 0.447715 9 1 9H2C2.55228 9 3 8.55228 3 8C3 7.44772 2.55228 7 2 7H1Z"
  />
  <path
    d="M14 7C13.4477 7 13 7.44772 13 8C13 8.55228 13.4477 9 14 9H15C15.5523 9 16 8.55228 16 8C16 7.44772 15.5523 7 15 7H14Z"
  />
  <path
    d="M12.9497 11.5355C12.5592 11.145 11.926 11.145 11.5355 11.5355C11.145 11.926 11.145 12.5592 11.5355 12.9497L12.2427 13.6569C12.6332 14.0474 13.2664 14.0474 13.6569 13.6569C14.0474 13.2664 14.0474 12.6332 13.6569 12.2427L12.9497 11.5355Z"
  />
  <path
    d="M4.46447 11.5355C4.07394 11.145 3.44078 11.145 3.05025 11.5355L2.34315 12.2426C1.95262 12.6332 1.95262 13.2663 2.34315 13.6569C2.73367 14.0474 3.36683 14.0474 3.75736 13.6569L4.46447 12.9497C4.85499 12.5592 4.85499 11.9261 4.46447 11.5355Z"
  />
  <path
    d="M9 14C9 13.4477 8.55228 13 8 13C7.44772 13 7 13.4477 7 14V15C7 15.5523 7.44772 16 8 16C8.55228 16 9 15.5523 9 15V14Z"
  />
  <path
    fill-rule="evenodd"
    clip-rule="evenodd"
    d="M8 4C5.79086 4 4 5.79086 4 8C4 10.2091 5.79086 12 8 12C10.2091 12 12 10.2091 12 8C12 5.79086 10.2091 4 8 4Z"
  />
</svg>
