<svg viewBox="0 0 12 12" xmlns="http://www.w3.org/2000/svg">
  <g clip-path="url(#clip0)">
    <path
      d="M2.46444 1.75736C2.26918 1.5621 1.9526 1.5621 1.75734 1.75736C1.56207 1.95262 1.56207 2.2692 1.75734 2.46447L2.46444 3.17157C2.6597 3.36684 2.97629 3.36684 3.17155 3.17157C3.36681 2.97631 3.36681 2.65973 3.17155 2.46447L2.46444 1.75736Z"
    />
    <path
      d="M0.5 5.5C0.223858 5.5 8.4292e-08 5.72386 0 6C8.4292e-08 6.27614 0.223858 6.5 0.5 6.5H1.49991C1.77605 6.5 1.99991 6.27614 1.99991 6C1.99991 5.72386 1.77605 5.5 1.49991 5.5H0.5Z"
    />
    <path
      d="M6.5 0.5C6.5 0.223857 6.27614 0 6 0C5.72386 0 5.5 0.223858 5.5 0.500001L5.5 1.5C5.5 1.77614 5.72386 2 6 2C6.27614 2 6.5 1.77614 6.5 1.5L6.5 0.5Z"
    />
    <path
      d="M1.75736 9.53556C1.5621 9.73083 1.5621 10.0474 1.75736 10.2427C1.95263 10.4379 2.26921 10.4379 2.46447 10.2427L3.17158 9.53556C3.36684 9.3403 3.36684 9.02372 3.17158 8.82846C2.97632 8.63319 2.65973 8.63319 2.46447 8.82846L1.75736 9.53556Z"
    />
    <path
      d="M8.82838 2.46454C8.63312 2.65981 8.63312 2.97639 8.82838 3.17165C9.02365 3.36691 9.34023 3.36691 9.53549 3.17165L10.2426 2.46454C10.4379 2.26928 10.4379 1.9527 10.2426 1.75744C10.0473 1.56218 9.73075 1.56218 9.53549 1.75744L8.82838 2.46454Z"
    />
    <path
      d="M6.5 10.5C6.5 10.2239 6.27614 10 6 10C5.72386 10 5.5 10.2239 5.5 10.5L5.5 11.5C5.5 11.7761 5.72386 12 6 12C6.27614 12 6.5 11.7761 6.5 11.5L6.5 10.5Z"
    />
    <path
      d="M10.5 5.5C10.2239 5.5 10 5.72386 10 6C10 6.27614 10.2239 6.5 10.5 6.5H11.5001C11.7762 6.5 12.0001 6.27614 12.0001 6C12.0001 5.72386 11.7762 5.5 11.5001 5.5H10.5Z"
    />
    <path
      d="M9.53551 8.82843C9.34025 8.63317 9.02367 8.63316 8.8284 8.82843C8.63314 9.02369 8.63314 9.34027 8.8284 9.53553L9.53551 10.2426C9.73077 10.4379 10.0474 10.4379 10.2426 10.2426C10.4379 10.0474 10.4379 9.7308 10.2426 9.53553L9.53551 8.82843Z"
    />
    <path
      fill-rule="evenodd"
      clip-rule="evenodd"
      d="M6.00005 3.5C4.61933 3.5 3.50005 4.61929 3.50005 6C3.50005 7.38071 4.61933 8.5 6.00005 8.5C7.38076 8.5 8.50005 7.38071 8.50005 6C8.50005 4.61929 7.38076 3.5 6.00005 3.5Z"
    />
  </g>
</svg>
