<svg viewBox="0 0 24 24" xmlns="http://www.w3.org/2000/svg">
  <path
    d="M13 3C13 2.44772 12.5523 2 12 2C11.4477 2 11 2.44772 11 3V5C11 5.55228 11.4477 6 12 6C12.5523 6 13 5.55228 13 5V3Z"
  />
  <path
    d="M19.0711 6.34314C19.4616 5.95262 19.4616 5.31946 19.0711 4.92893C18.6805 4.53841 18.0474 4.53841 17.6569 4.92893L16.2426 6.34315C15.8521 6.73367 15.8521 7.36684 16.2426 7.75736C16.6332 8.14788 17.2663 8.14788 17.6569 7.75736L19.0711 6.34314Z"
  />
  <path
    d="M6.34317 4.92896C5.95265 4.53844 5.31949 4.53844 4.92896 4.92896C4.53844 5.31949 4.53844 5.95265 4.92896 6.34317L6.34311 7.75732C6.73363 8.14785 7.3668 8.14785 7.75732 7.75732C8.14785 7.3668 8.14785 6.73363 7.75732 6.34311L6.34317 4.92896Z"
  />
  <path
    d="M3 11C2.44772 11 2 11.4477 2 12C2 12.5523 2.44772 13 3 13H5C5.55228 13 6 12.5523 6 12C6 11.4477 5.55228 11 5 11H3Z"
  />
  <path
    d="M19 11C18.4477 11 18 11.4477 18 12C18 12.5523 18.4477 13 19 13H21C21.5523 13 22 12.5523 22 12C22 11.4477 21.5523 11 21 11H19Z"
  />
  <path
    d="M17.6568 16.2426C17.2663 15.8521 16.6331 15.8521 16.2426 16.2426C15.8521 16.6331 15.8521 17.2663 16.2426 17.6568L17.6569 19.0711C18.0474 19.4616 18.6806 19.4616 19.0711 19.0711C19.4616 18.6806 19.4616 18.0474 19.0711 17.6569L17.6568 16.2426Z"
  />
  <path
    d="M7.75736 17.6569C8.14788 17.2663 8.14788 16.6332 7.75736 16.2426C7.36684 15.8521 6.73367 15.8521 6.34315 16.2426L4.92893 17.6569C4.53841 18.0474 4.53841 18.6805 4.92893 19.0711C5.31946 19.4616 5.95262 19.4616 6.34314 19.0711L7.75736 17.6569Z"
  />
  <path
    d="M13 19C13 18.4477 12.5523 18 12 18C11.4477 18 11 18.4477 11 19V21C11 21.5523 11.4477 22 12 22C12.5523 22 13 21.5523 13 21V19Z"
  />
  <path
    fill-rule="evenodd"
    clip-rule="evenodd"
    d="M12 8C9.79086 8 8 9.79086 8 12C8 14.2091 9.79086 16 12 16C14.2091 16 16 14.2091 16 12C16 9.79086 14.2091 8 12 8Z"
  />
</svg>
