<svg viewBox="0 0 12 12" xmlns="http://www.w3.org/2000/svg">
  <g clip-path="url(#clip0)">
    <path
      d="M2.464 1.757a.5.5 0 10-.707.707l.707.708a.5.5 0 10.708-.708l-.708-.707zM.5 5.5a.5.5 0 000 1h1a.5.5 0 000-1h-1zM6.5.5a.5.5 0 00-1 0v1a.5.5 0 001 0v-1zM1.757 9.536a.5.5 0 00.707.707l.708-.707a.5.5 0 10-.708-.708l-.707.708zM8.828 2.465a.5.5 0 00.707.707l.708-.707a.5.5 0 10-.708-.708l-.707.708zM6.5 10.5a.5.5 0 00-1 0v1a.5.5 0 001 0v-1zM10.5 5.5a.5.5 0 000 1h1a.5.5 0 000-1h-1zM9.536 8.828a.5.5 0 10-.708.708l.708.707a.5.5 0 10.707-.707l-.707-.708z"
    />
    <path fill-rule="evenodd" clip-rule="evenodd" d="M6 3.5a2.5 2.5 0 100 5 2.5 2.5 0 000-5z" />
  </g>
</svg>
