<svg
  width="200"
  height="120"
  viewBox="0 0 200 120"
  fill="none"
  xmlns="http://www.w3.org/2000/svg"
>
  <path
    d="M0 4C0 1.79086 1.79086 0 4 0H196C198.209 0 200 1.79086 200 4V116C200 118.209 198.209 120 196 120H4C1.79086 120 0 118.209 0 116V4Z"
    fill="var(--color-bg-secondary)"
  />
  <g clip-path="url(#clip0_1889_15922)">
    <path
      d="M16 55C16 52.7909 17.7909 51 20 51H180C182.209 51 184 52.7909 184 55V64C184 66.2091 182.209 68 180 68H20C17.7909 68 16 66.2091 16 64V55Z"
      fill="var(--color-bg-default)"
    />
    <path
      d="M24 57.7143H30V57H24V57.7143Z"
      fill="var(--color-control-typo-placeholder)"
    />
    <path
      d="M24 59.8571H30V59.1429H24V59.8571Z"
      fill="var(--color-control-typo-placeholder)"
    />
    <path
      d="M30 62H24V61.2857H30V62Z"
      fill="var(--color-control-typo-placeholder)"
    />
    <path
      d="M175.076 61.5514C175.487 61.0577 175.772 60.4726 175.909 59.8453C176.045 59.2181 176.028 58.5673 175.86 57.9479C175.691 57.3285 175.376 56.7588 174.94 56.287C174.505 55.8152 173.962 55.4551 173.358 55.2372C172.753 55.0194 172.105 54.9502 171.469 55.0354C170.832 55.1207 170.225 55.3579 169.7 55.727C169.174 56.0961 168.745 56.5863 168.449 57.156C168.154 57.7258 167.999 58.3583 168 59.0002C168 59.9333 168.329 60.8365 168.93 61.5514L168.924 61.5562C168.944 61.5802 168.967 61.6008 168.987 61.6245C169.013 61.6539 169.041 61.6816 169.067 61.7102C169.147 61.7971 169.23 61.8805 169.316 61.9588C169.342 61.9828 169.37 62.005 169.396 62.0279C169.488 62.1067 169.582 62.1816 169.679 62.2513C169.692 62.2599 169.703 62.271 169.716 62.2799V62.2764C170.385 62.7473 171.184 63 172.003 63C172.822 63 173.621 62.7473 174.29 62.2764V62.2799C174.303 62.271 174.314 62.2599 174.327 62.2513C174.424 62.1813 174.519 62.1067 174.61 62.0279C174.637 62.005 174.664 61.9825 174.69 61.9588C174.777 61.8802 174.859 61.7971 174.939 61.7102C174.966 61.6816 174.993 61.6539 175.019 61.6245C175.039 61.6008 175.062 61.5802 175.082 61.5559L175.076 61.5514ZM172.003 56.7147C172.257 56.7147 172.506 56.7901 172.718 56.9314C172.929 57.0727 173.094 57.2734 173.192 57.5084C173.289 57.7433 173.314 58.0018 173.265 58.2511C173.215 58.5005 173.093 58.7296 172.913 58.9094C172.733 59.0892 172.503 59.2116 172.254 59.2612C172.004 59.3108 171.746 59.2853 171.51 59.188C171.275 59.0907 171.074 58.926 170.933 58.7146C170.792 58.5031 170.716 58.2546 170.716 58.0003C170.716 57.6594 170.852 57.3324 171.093 57.0913C171.334 56.8502 171.662 56.7147 172.003 56.7147ZM169.718 61.5514C169.722 61.1763 169.875 60.8182 170.142 60.5546C170.409 60.291 170.77 60.1431 171.145 60.143H172.861C173.236 60.1431 173.596 60.291 173.864 60.5546C174.131 60.8182 174.283 61.1763 174.288 61.5514C173.661 62.116 172.847 62.4284 172.003 62.4284C171.159 62.4284 170.345 62.116 169.718 61.5514Z"
      fill="var(--color-control-typo-placeholder)"
    />
    <rect x="49" y="67" width="21" height="1" fill="var(--color-bg-link)" />
    <rect
      x="73"
      y="58"
      width="13"
      height="4"
      rx="2"
      fill="var(--color-bg-system)"
    />
    <rect
      x="92"
      y="58"
      width="13"
      height="4"
      rx="2"
      fill="var(--color-bg-system)"
    />
    <rect
      x="52"
      y="58"
      width="15"
      height="4"
      rx="2"
      fill="var(--color-control-typo-placeholder)"
    />
  </g>
  <defs>
    <clipPath id="clip0_1889_15922">
      <rect width="200" height="119" fill="var(--color-bg-default)" />
    </clipPath>
  </defs>
</svg>
