<svg viewBox="0 0 30 40" xmlns="http://www.w3.org/2000/svg">
  <path
    d="M28 0H2C0.89543 0 0 0.89543 0 2V38C0 39.1046 0.89543 40 2 40H28C29.1046 40 30 39.1046 30 38V2C30 0.89543 29.1046 0 28 0Z"
  />
  <path
    opacity="0.6"
    d="M23 24C23 23.0807 22.8189 22.1705 22.4672 21.3212C22.1154 20.4719 21.5998 19.7003 20.9497 19.0503C20.2997 18.4002 19.5281 17.8846 18.6788 17.5328C17.8295 17.1811 16.9193 17 16 17L16 24H23Z"
    fill="#fff"
  />
  <path
    opacity="0.6"
    d="M20 26C20 27.1867 19.6481 28.3467 18.9888 29.3334C18.3295 30.3201 17.3925 31.0892 16.2961 31.5433C15.1997 31.9974 13.9933 32.1162 12.8295 31.8847C11.6656 31.6532 10.5965 31.0818 9.75736 30.2426C8.91824 29.4035 8.3468 28.3344 8.11529 27.1705C7.88378 26.0067 8.0026 24.8003 8.45672 23.7039C8.91085 22.6075 9.67988 21.6705 10.6666 21.0112C11.6533 20.3519 12.8133 20 14 20L14 26H20Z"
    stroke="#fff"
  />
  <path
    fill-rule="evenodd"
    clip-rule="evenodd"
    d="M19.77 11.6696C19.95 11.8896 20.21 11.9996 20.55 11.9996L21.5 12V11.0004L20.95 11C20.7967 11 20.6833 10.97 20.61 10.91C20.5367 10.85 20.5 10.7467 20.5 10.6V7.9998H21.5V6.99961H20.5V6H19.5V6.99961H18.5V7.9998H19.5V10.7996C19.5 11.1596 19.59 11.4496 19.77 11.6696ZM9.3 7.24V7H8.5V14H9.51V12H10.8C11.38 12 11.8067 11.8733 12.08 11.62C12.36 11.3667 12.5 10.96 12.5 10.4V8.6C12.5 8.03333 12.3633 7.62667 12.09 7.38C11.8167 7.12667 11.3867 7 10.8 7H10.1C9.77333 7 9.50667 7.08 9.3 7.24ZM9.66 8.18C9.76667 8.06 9.93 8 10.15 8H10.75C10.9967 8 11.1833 8.05667 11.31 8.17C11.4367 8.28333 11.5 8.44333 11.5 8.65V10.35C11.5 10.5567 11.4367 10.7167 11.31 10.83C11.1833 10.9433 10.9967 11 10.75 11H9.51L9.5 8.55C9.5 8.41667 9.55333 8.29333 9.66 8.18ZM14.29 7.24V7H13.49V14H14.5V12H15.79C16.37 12 16.7967 11.8733 17.07 11.62C17.35 11.3667 17.49 10.96 17.49 10.4V8.6C17.49 8.03333 17.3533 7.62667 17.08 7.38C16.8067 7.12667 16.3767 7 15.79 7H15.09C14.7633 7 14.4967 7.08 14.29 7.24ZM14.65 8.18C14.7567 8.06 14.92 8 15.14 8H15.74C15.9867 8 16.1733 8.05667 16.3 8.17C16.4267 8.28333 16.49 8.44333 16.49 8.65V10.35C16.49 10.5567 16.4267 10.7167 16.3 10.83C16.1733 10.9433 15.9867 11 15.74 11H14.5L14.49 8.55C14.49 8.41667 14.5433 8.29333 14.65 8.18Z"
    fill="#fff"
  />
</svg>
