<svg
  width="200"
  height="120"
  viewBox="0 0 200 120"
  fill="none"
  xmlns="http://www.w3.org/2000/svg"
>
  <path
    d="M0 4C0 1.79086 1.79086 0 4 0H196C198.209 0 200 1.79086 200 4V116C200 118.209 198.209 120 196 120H4C1.79086 120 0 118.209 0 116V4Z"
    fill="var(--color-bg-default)"
  />
  <path
    d="M53.6667 35.5H23.3333C22.0447 35.5 21 36.5745 21 37.9V81.1C21 82.4255 22.0447 83.5 23.3333 83.5H53.6667C54.9553 83.5 56 82.4255 56 81.1V37.9C56 36.5745 54.9553 35.5 53.6667 35.5Z"
    fill="var(--color-bg-link)"
  />
  <circle cx="39" cy="59.5" r="8" fill="var(--color-bg-link)" />
  <mask id="path-4-inside-1_1730_8734" fill="var(--color-bg-default)">
    <path
      d="M39 53.5C40.2671 53.5 41.5016 53.9011 42.5267 54.6459C43.5518 55.3907 44.3148 56.4408 44.7063 57.6459C45.0979 58.851 45.0979 60.149 44.7063 61.3541C44.3148 62.5592 43.5518 63.6093 42.5267 64.3541C41.5016 65.0989 40.2671 65.5 39 65.5C37.7329 65.5 36.4984 65.0989 35.4733 64.3541C34.4482 63.6093 33.6852 62.5592 33.2937 61.3541C32.9021 60.149 32.9021 58.851 33.2937 57.6459L35.1768 58.2578C34.9144 59.0651 34.9144 59.9349 35.1768 60.7422C35.4391 61.5496 35.9503 62.2533 36.6371 62.7522C37.3239 63.2512 38.1511 63.52 39 63.52C39.8489 63.52 40.6761 63.2512 41.3629 62.7522C42.0497 62.2533 42.5609 61.5496 42.8232 60.7422C43.0856 59.9349 43.0856 59.0651 42.8232 58.2578C42.5609 57.4504 42.0497 56.7467 41.3629 56.2478C40.6761 55.7488 39.8489 55.48 39 55.48V53.5Z"
    />
  </mask>
  <path
    d="M39 53.5C40.2671 53.5 41.5016 53.9011 42.5267 54.6459C43.5518 55.3907 44.3148 56.4408 44.7063 57.6459C45.0979 58.851 45.0979 60.149 44.7063 61.3541C44.3148 62.5592 43.5518 63.6093 42.5267 64.3541C41.5016 65.0989 40.2671 65.5 39 65.5C37.7329 65.5 36.4984 65.0989 35.4733 64.3541C34.4482 63.6093 33.6852 62.5592 33.2937 61.3541C32.9021 60.149 32.9021 58.851 33.2937 57.6459L35.1768 58.2578C34.9144 59.0651 34.9144 59.9349 35.1768 60.7422C35.4391 61.5496 35.9503 62.2533 36.6371 62.7522C37.3239 63.2512 38.1511 63.52 39 63.52C39.8489 63.52 40.6761 63.2512 41.3629 62.7522C42.0497 62.2533 42.5609 61.5496 42.8232 60.7422C43.0856 59.9349 43.0856 59.0651 42.8232 58.2578C42.5609 57.4504 42.0497 56.7467 41.3629 56.2478C40.6761 55.7488 39.8489 55.48 39 55.48V53.5Z"
    stroke="var(--color-bg-default)"
    stroke-width="2"
    mask="url(#path-4-inside-1_1730_8734)"
  />
  <rect
    x="64"
    y="44"
    width="115"
    height="12"
    fill="var(--color-typo-primary)"
    fill-opacity="0.3"
  />
  <rect x="64" y="64" width="115" height="3.5" fill="var(--color-bg-system)" />
  <rect x="64" y="71.5" width="56" height="3.5" fill="var(--color-bg-system)" />
</svg>
