<svg
  width="200"
  height="120"
  viewBox="0 0 200 120"
  fill="none"
  xmlns="http://www.w3.org/2000/svg"
>
  <g clip-path="url(#clip0_2:3124)">
    <path
      d="M0 4C0 1.79086 1.79086 0 4 0H196C198.209 0 200 1.79086 200 4V116C200 118.209 198.209 120 196 120H4C1.79086 120 0 118.209 0 116V4Z"
      fill="var(--color-bg-default)"
    />
    <rect
      width="20"
      height="12"
      rx="2"
      transform="matrix(1 0 0 -1 49 52)"
      fill="var(--color-control-typo-placeholder)"
    />
    <rect
      width="20"
      height="12"
      rx="2"
      transform="matrix(1 0 0 -1 13 52)"
      fill="var(--color-control-typo-placeholder)"
    />
    <rect
      width="20"
      height="12"
      rx="2"
      transform="matrix(1 0 0 -1 85 52)"
      fill="var(--color-bg-link)"
    />
    <rect
      width="220"
      height="53"
      rx="2"
      transform="matrix(1 0 0 -1 13 19)"
      fill="var(--color-control-bg-ghost)"
    />
    <rect
      width="215"
      height="16"
      rx="2"
      transform="matrix(1 0 0 -1 13 82)"
      fill="var(--color-control-bg-ghost)"
    />
    <rect
      width="215"
      height="15"
      rx="2"
      transform="matrix(1 0 0 -1 13 108)"
      fill="var(--color-control-bg-ghost)"
    />
    <path
      fill-rule="evenodd"
      clip-rule="evenodd"
      d="M79.9748 46L76 49.9749L75.2928 49.2678L78.5606 46L75.2928 42.7323L76 42.0252L79.9748 46Z"
      fill="var(--color-typo-ghost)"
    />
    <path
      fill-rule="evenodd"
      clip-rule="evenodd"
      d="M43.9748 46L40 49.9749L39.2928 49.2678L42.5606 46L39.2928 42.7323L40 42.0252L43.9748 46Z"
      fill="var(--color-typo-ghost)"
    />
  </g>
  <defs>
    <clipPath id="clip0_2:3124">
      <rect width="200" height="120" fill="var(--color-bg-default)" />
    </clipPath>
  </defs>
</svg>
