<svg width="16" height="17" viewBox="0 0 16 17" fill="none" xmlns="http://www.w3.org/2000/svg">
  <path
    fill-rule="evenodd"
    clip-rule="evenodd"
    d="M0 13.8255V15.8255L1.66715 15.1056C1.91586 14.9812 2.20512 14.966 2.46548 15.0637L4.83227 15.9512C5.61336 16.2441 6.48114 16.1986 7.22728 15.8255L8.61754 15.1304C8.88064 14.9988 9.18831 14.9898 9.45868 15.1057L11.1661 15.8374C12.0516 16.2169 13.0654 16.1481 13.8914 15.6525L14.5731 15.2435C14.8662 15.0676 15.229 15.0536 15.5348 15.2065L16 15.4391V13.243C15.1855 12.9829 14.2898 13.081 13.5441 13.5285L12.8624 13.9375C12.587 14.1027 12.2491 14.1256 11.954 13.9991L10.2465 13.2674C9.43541 12.9198 8.5124 12.9469 7.72312 13.3415L6.33285 14.0367C6.08414 14.161 5.79488 14.1762 5.53451 14.0786L3.16773 13.191C2.38664 12.8981 1.51886 12.9437 0.77272 13.3167L0 13.8255Z"
    fill="black"
  />
  <path
    fill-rule="evenodd"
    clip-rule="evenodd"
    d="M5 1H11V3H10.0226L11.3083 9H15V11H1V9H4.69151L5.97723 3H5V1ZM6.73691 9H9.26294L8.19151 4H7.80834L6.73691 9Z"
    fill="black"
  />
</svg>
