<svg width="12" height="12" viewBox="0 0 12 12" fill="none" xmlns="http://www.w3.org/2000/svg">
  <path
    fill-rule="evenodd"
    clip-rule="evenodd"
    d="M8 1V2H7.36475L8.29602 7H10V8H2V7H3.70398L4.63525 2H4V1H8ZM5.42883 3H6.57117L7.26965 7H4.73035L5.42883 3Z"
    fill="black"
  />
  <path
    d="M11 9.99086V11C10.681 11.0283 10.3559 10.9686 10.05 10.8169L8.79419 10.1942L8.06317 10.6775C7.47876 11.0639 6.77356 11.0941 6.16449 10.7489L5.27002 10.242L4.9231 10.5173C4.27875 11.0285 3.44879 11.0761 2.76288 10.6226L2.0777 10.1696L1 10.7005V9.58575L1.72119 9.23044L1.73981 9.22305C2.03204 9.10713 2.34656 9.14848 2.60059 9.31647L3.31439 9.78842C3.62927 9.99661 3.98639 9.98395 4.30157 9.73389L4.6734 9.43887C4.97559 9.1991 5.3797 9.15471 5.7262 9.35109L6.65753 9.87892C6.93323 10.0352 7.23499 10.0263 7.5116 9.84335L8.26996 9.34195C8.54944 9.15714 8.89661 9.12878 9.20331 9.28085L10.4943 9.92105C10.6576 10.002 10.8297 10.0264 11 9.99086Z"
    fill="black"
  />
</svg>
