<svg
  width="200"
  height="120"
  viewBox="0 0 200 120"
  fill="none"
  xmlns="http://www.w3.org/2000/svg"
>
  <g clip-path="url(#clip0_2985_63979)">
    <rect width="200" height="120" rx="4" fill="var(--color-bg-secondary)" />
    <path
      d="M30 16C30 13.7909 31.7909 12 34 12H166C168.209 12 170 13.7909 170 16V38C170 40.2091 168.209 42 166 42H34C31.7909 42 30 40.2091 30 38V16Z"
      fill="var(--color-bg-default)"
    />
    <path
      d="M52.7727 25H51.3636C51.2803 24.5947 51.1345 24.2386 50.9261 23.9318C50.7216 23.625 50.4716 23.3674 50.1761 23.1591C49.8845 22.947 49.5606 22.7879 49.2045 22.6818C48.8485 22.5758 48.4773 22.5227 48.0909 22.5227C47.3864 22.5227 46.7481 22.7008 46.1761 23.0568C45.608 23.4129 45.1553 23.9375 44.8182 24.6307C44.4848 25.3239 44.3182 26.1742 44.3182 27.1818C44.3182 28.1894 44.4848 29.0398 44.8182 29.733C45.1553 30.4261 45.608 30.9508 46.1761 31.3068C46.7481 31.6629 47.3864 31.8409 48.0909 31.8409C48.4773 31.8409 48.8485 31.7879 49.2045 31.6818C49.5606 31.5758 49.8845 31.4186 50.1761 31.2102C50.4716 30.9981 50.7216 30.7386 50.9261 30.4318C51.1345 30.1212 51.2803 29.7652 51.3636 29.3636H52.7727C52.6667 29.9583 52.4735 30.4905 52.1932 30.9602C51.9129 31.4299 51.5644 31.8295 51.1477 32.1591C50.7311 32.4848 50.2633 32.733 49.7443 32.9034C49.2292 33.0739 48.678 33.1591 48.0909 33.1591C47.0985 33.1591 46.2159 32.9167 45.4432 32.4318C44.6705 31.947 44.0625 31.2576 43.6193 30.3636C43.1761 29.4697 42.9545 28.4091 42.9545 27.1818C42.9545 25.9545 43.1761 24.8939 43.6193 24C44.0625 23.1061 44.6705 22.4167 45.4432 21.9318C46.2159 21.447 47.0985 21.2045 48.0909 21.2045C48.678 21.2045 49.2292 21.2898 49.7443 21.4602C50.2633 21.6307 50.7311 21.8807 51.1477 22.2102C51.5644 22.536 51.9129 22.9337 52.1932 23.4034C52.4735 23.8693 52.6667 24.4015 52.7727 25ZM58.4134 33.1818C57.6255 33.1818 56.9342 32.9943 56.3395 32.6193C55.7486 32.2443 55.2865 31.7197 54.9531 31.0455C54.6236 30.3712 54.4588 29.5833 54.4588 28.6818C54.4588 27.7727 54.6236 26.9792 54.9531 26.3011C55.2865 25.6231 55.7486 25.0966 56.3395 24.7216C56.9342 24.3466 57.6255 24.1591 58.4134 24.1591C59.2012 24.1591 59.8906 24.3466 60.4815 24.7216C61.0762 25.0966 61.5384 25.6231 61.8679 26.3011C62.2012 26.9792 62.3679 27.7727 62.3679 28.6818C62.3679 29.5833 62.2012 30.3712 61.8679 31.0455C61.5384 31.7197 61.0762 32.2443 60.4815 32.6193C59.8906 32.9943 59.2012 33.1818 58.4134 33.1818ZM58.4134 31.9773C59.0118 31.9773 59.5043 31.8239 59.8906 31.517C60.277 31.2102 60.563 30.8068 60.7486 30.3068C60.9342 29.8068 61.027 29.2652 61.027 28.6818C61.027 28.0985 60.9342 27.5549 60.7486 27.0511C60.563 26.5473 60.277 26.1402 59.8906 25.8295C59.5043 25.5189 59.0118 25.3636 58.4134 25.3636C57.8149 25.3636 57.3224 25.5189 56.9361 25.8295C56.5497 26.1402 56.2637 26.5473 56.0781 27.0511C55.8925 27.5549 55.7997 28.0985 55.7997 28.6818C55.7997 29.2652 55.8925 29.8068 56.0781 30.3068C56.2637 30.8068 56.5497 31.2102 56.9361 31.517C57.3224 31.8239 57.8149 31.9773 58.4134 31.9773Z"
      fill="var(--color-bg-link)"
    />
    <path
      d="M30 50C30 47.7909 31.7909 46 34 46H166C168.209 46 170 47.7909 170 50V104C170 106.209 168.209 108 166 108H34C31.7909 108 30 106.209 30 104V50Z"
      fill="var(--color-bg-default)"
    />
    <path
      d="M52.7727 59H51.3636C51.2803 58.5947 51.1345 58.2386 50.9261 57.9318C50.7216 57.625 50.4716 57.3674 50.1761 57.1591C49.8845 56.947 49.5606 56.7879 49.2045 56.6818C48.8485 56.5758 48.4773 56.5227 48.0909 56.5227C47.3864 56.5227 46.7481 56.7008 46.1761 57.0568C45.608 57.4129 45.1553 57.9375 44.8182 58.6307C44.4848 59.3239 44.3182 60.1742 44.3182 61.1818C44.3182 62.1894 44.4848 63.0398 44.8182 63.733C45.1553 64.4261 45.608 64.9508 46.1761 65.3068C46.7481 65.6629 47.3864 65.8409 48.0909 65.8409C48.4773 65.8409 48.8485 65.7879 49.2045 65.6818C49.5606 65.5758 49.8845 65.4186 50.1761 65.2102C50.4716 64.9981 50.7216 64.7386 50.9261 64.4318C51.1345 64.1212 51.2803 63.7652 51.3636 63.3636H52.7727C52.6667 63.9583 52.4735 64.4905 52.1932 64.9602C51.9129 65.4299 51.5644 65.8295 51.1477 66.1591C50.7311 66.4848 50.2633 66.733 49.7443 66.9034C49.2292 67.0739 48.678 67.1591 48.0909 67.1591C47.0985 67.1591 46.2159 66.9167 45.4432 66.4318C44.6705 65.947 44.0625 65.2576 43.6193 64.3636C43.1761 63.4697 42.9545 62.4091 42.9545 61.1818C42.9545 59.9545 43.1761 58.8939 43.6193 58C44.0625 57.1061 44.6705 56.4167 45.4432 55.9318C46.2159 55.447 47.0985 55.2045 48.0909 55.2045C48.678 55.2045 49.2292 55.2898 49.7443 55.4602C50.2633 55.6307 50.7311 55.8807 51.1477 56.2102C51.5644 56.536 51.9129 56.9337 52.1932 57.4034C52.4735 57.8693 52.6667 58.4015 52.7727 59ZM58.4134 67.1818C57.6255 67.1818 56.9342 66.9943 56.3395 66.6193C55.7486 66.2443 55.2865 65.7197 54.9531 65.0455C54.6236 64.3712 54.4588 63.5833 54.4588 62.6818C54.4588 61.7727 54.6236 60.9792 54.9531 60.3011C55.2865 59.6231 55.7486 59.0966 56.3395 58.7216C56.9342 58.3466 57.6255 58.1591 58.4134 58.1591C59.2012 58.1591 59.8906 58.3466 60.4815 58.7216C61.0762 59.0966 61.5384 59.6231 61.8679 60.3011C62.2012 60.9792 62.3679 61.7727 62.3679 62.6818C62.3679 63.5833 62.2012 64.3712 61.8679 65.0455C61.5384 65.7197 61.0762 66.2443 60.4815 66.6193C59.8906 66.9943 59.2012 67.1818 58.4134 67.1818ZM58.4134 65.9773C59.0118 65.9773 59.5043 65.8239 59.8906 65.517C60.277 65.2102 60.563 64.8068 60.7486 64.3068C60.9342 63.8068 61.027 63.2652 61.027 62.6818C61.027 62.0985 60.9342 61.5549 60.7486 61.0511C60.563 60.5473 60.277 60.1402 59.8906 59.8295C59.5043 59.5189 59.0118 59.3636 58.4134 59.3636C57.8149 59.3636 57.3224 59.5189 56.9361 59.8295C56.5497 60.1402 56.2637 60.5473 56.0781 61.0511C55.8925 61.5549 55.7997 62.0985 55.7997 62.6818C55.7997 63.2652 55.8925 63.8068 56.0781 64.3068C56.2637 64.8068 56.5497 65.2102 56.9361 65.517C57.3224 65.8239 57.8149 65.9773 58.4134 65.9773Z"
      fill="var(--color-bg-link)"
    />
    <path
      d="M65.7557 61.75V67H64.4148V58.2727H65.7102V59.6364H65.8239C66.0284 59.1932 66.339 58.8371 66.7557 58.5682C67.1723 58.2955 67.7102 58.1591 68.3693 58.1591C68.9602 58.1591 69.4773 58.2803 69.9205 58.5227C70.3636 58.7614 70.7083 59.125 70.9545 59.6136C71.2008 60.0985 71.3239 60.7121 71.3239 61.4545V67H69.983V61.5455C69.983 60.8598 69.8049 60.3258 69.4489 59.9432C69.0928 59.5568 68.6042 59.3636 67.983 59.3636C67.5549 59.3636 67.1723 59.4564 66.8352 59.642C66.5019 59.8277 66.2386 60.0985 66.0455 60.4545C65.8523 60.8106 65.7557 61.2424 65.7557 61.75ZM79.956 60.2273L78.7514 60.5682C78.6757 60.3674 78.5639 60.1723 78.4162 59.983C78.2723 59.7898 78.0753 59.6307 77.8253 59.5057C77.5753 59.3807 77.2552 59.3182 76.8651 59.3182C76.331 59.3182 75.8859 59.4413 75.5298 59.6875C75.1776 59.9299 75.0014 60.2386 75.0014 60.6136C75.0014 60.947 75.1226 61.2102 75.3651 61.4034C75.6075 61.5966 75.9863 61.7576 76.5014 61.8864L77.7969 62.2045C78.5772 62.3939 79.1586 62.6837 79.5412 63.0739C79.9238 63.4602 80.1151 63.9583 80.1151 64.5682C80.1151 65.0682 79.9711 65.5152 79.6832 65.9091C79.3991 66.303 79.0014 66.6136 78.4901 66.8409C77.9787 67.0682 77.384 67.1818 76.706 67.1818C75.8158 67.1818 75.0791 66.9886 74.4957 66.6023C73.9124 66.2159 73.5431 65.6515 73.3878 64.9091L74.6605 64.5909C74.7817 65.0606 75.0109 65.4129 75.348 65.6477C75.6889 65.8826 76.134 66 76.6832 66C77.3082 66 77.8045 65.8674 78.1719 65.6023C78.5431 65.3333 78.7287 65.0114 78.7287 64.6364C78.7287 64.3333 78.6226 64.0795 78.4105 63.875C78.1984 63.6667 77.8726 63.5114 77.4332 63.4091L75.9787 63.0682C75.1795 62.8788 74.5923 62.5852 74.2173 62.1875C73.8461 61.786 73.6605 61.2841 73.6605 60.6818C73.6605 60.1894 73.7988 59.7538 74.0753 59.375C74.3556 58.9962 74.7363 58.6989 75.2173 58.483C75.7022 58.267 76.2514 58.1591 76.8651 58.1591C77.7287 58.1591 78.4067 58.3485 78.8991 58.7273C79.3954 59.1061 79.7476 59.6061 79.956 60.2273ZM85.929 58.2727V59.4091H81.4062V58.2727H85.929ZM82.7244 56.1818H84.0653V64.5C84.0653 64.8788 84.1203 65.1629 84.2301 65.3523C84.3438 65.5379 84.4877 65.6629 84.6619 65.7273C84.84 65.7879 85.0275 65.8182 85.2244 65.8182C85.3722 65.8182 85.4934 65.8106 85.5881 65.7955C85.6828 65.7765 85.7585 65.7614 85.8153 65.75L86.0881 66.9545C85.9972 66.9886 85.8703 67.0227 85.7074 67.0568C85.5445 67.0947 85.3381 67.1136 85.0881 67.1136C84.7093 67.1136 84.3381 67.0322 83.9744 66.8693C83.6146 66.7064 83.3153 66.4583 83.0767 66.125C82.8419 65.7917 82.7244 65.3712 82.7244 64.8636V56.1818ZM90.5142 67.2045C89.9612 67.2045 89.4593 67.1004 89.0085 66.892C88.5578 66.6799 88.1998 66.375 87.9347 65.9773C87.6695 65.5758 87.5369 65.0909 87.5369 64.5227C87.5369 64.0227 87.6354 63.6174 87.8324 63.3068C88.0294 62.9924 88.2926 62.7462 88.6222 62.5682C88.9517 62.3902 89.3153 62.2576 89.7131 62.1705C90.1146 62.0795 90.518 62.0076 90.9233 61.9545C91.4536 61.8864 91.8835 61.8352 92.2131 61.8011C92.5464 61.7633 92.7888 61.7008 92.9403 61.6136C93.0956 61.5265 93.1733 61.375 93.1733 61.1591V61.1136C93.1733 60.553 93.0199 60.1174 92.7131 59.8068C92.41 59.4962 91.9498 59.3409 91.3324 59.3409C90.6922 59.3409 90.1903 59.4811 89.8267 59.7614C89.4631 60.0417 89.2074 60.3409 89.0597 60.6591L87.7869 60.2045C88.0142 59.6742 88.3172 59.2614 88.696 58.9659C89.0786 58.6667 89.4953 58.4583 89.946 58.3409C90.4006 58.2197 90.8475 58.1591 91.2869 58.1591C91.5672 58.1591 91.8892 58.1932 92.2528 58.2614C92.6203 58.3258 92.9744 58.4602 93.3153 58.6648C93.66 58.8693 93.946 59.178 94.1733 59.5909C94.4006 60.0038 94.5142 60.5568 94.5142 61.25V67H93.1733V65.8182H93.1051C93.0142 66.0076 92.8627 66.2102 92.6506 66.4261C92.4384 66.642 92.1563 66.8258 91.804 66.9773C91.4517 67.1288 91.0218 67.2045 90.5142 67.2045ZM90.7188 66C91.2491 66 91.696 65.8958 92.0597 65.6875C92.4271 65.4792 92.7036 65.2102 92.8892 64.8807C93.0786 64.5511 93.1733 64.2045 93.1733 63.8409V62.6136C93.1165 62.6818 92.9915 62.7443 92.7983 62.8011C92.6089 62.8542 92.3892 62.9015 92.1392 62.9432C91.893 62.9811 91.6525 63.0152 91.4176 63.0455C91.1866 63.072 90.9991 63.0947 90.8551 63.1136C90.5066 63.1591 90.1809 63.233 89.8778 63.3352C89.5786 63.4337 89.3362 63.5833 89.1506 63.7841C88.9688 63.9811 88.8778 64.25 88.8778 64.5909C88.8778 65.0568 89.0502 65.4091 89.3949 65.6477C89.7434 65.8826 90.1847 66 90.7188 66Z"
      fill="var(--color-control-typo-ghost)"
      fill-opacity="0.6"
    />
    <path
      d="M52.7727 90H51.3636C51.2803 89.5947 51.1345 89.2386 50.9261 88.9318C50.7216 88.625 50.4716 88.3674 50.1761 88.1591C49.8845 87.947 49.5606 87.7879 49.2045 87.6818C48.8485 87.5758 48.4773 87.5227 48.0909 87.5227C47.3864 87.5227 46.7481 87.7008 46.1761 88.0568C45.608 88.4129 45.1553 88.9375 44.8182 89.6307C44.4848 90.3239 44.3182 91.1742 44.3182 92.1818C44.3182 93.1894 44.4848 94.0398 44.8182 94.733C45.1553 95.4261 45.608 95.9508 46.1761 96.3068C46.7481 96.6629 47.3864 96.8409 48.0909 96.8409C48.4773 96.8409 48.8485 96.7879 49.2045 96.6818C49.5606 96.5758 49.8845 96.4186 50.1761 96.2102C50.4716 95.9981 50.7216 95.7386 50.9261 95.4318C51.1345 95.1212 51.2803 94.7652 51.3636 94.3636H52.7727C52.6667 94.9583 52.4735 95.4905 52.1932 95.9602C51.9129 96.4299 51.5644 96.8295 51.1477 97.1591C50.7311 97.4848 50.2633 97.733 49.7443 97.9034C49.2292 98.0739 48.678 98.1591 48.0909 98.1591C47.0985 98.1591 46.2159 97.9167 45.4432 97.4318C44.6705 96.947 44.0625 96.2576 43.6193 95.3636C43.1761 94.4697 42.9545 93.4091 42.9545 92.1818C42.9545 90.9545 43.1761 89.8939 43.6193 89C44.0625 88.1061 44.6705 87.4167 45.4432 86.9318C46.2159 86.447 47.0985 86.2045 48.0909 86.2045C48.678 86.2045 49.2292 86.2898 49.7443 86.4602C50.2633 86.6307 50.7311 86.8807 51.1477 87.2102C51.5644 87.536 51.9129 87.9337 52.1932 88.4034C52.4735 88.8693 52.6667 89.4015 52.7727 90ZM58.4134 98.1818C57.6255 98.1818 56.9342 97.9943 56.3395 97.6193C55.7486 97.2443 55.2865 96.7197 54.9531 96.0455C54.6236 95.3712 54.4588 94.5833 54.4588 93.6818C54.4588 92.7727 54.6236 91.9792 54.9531 91.3011C55.2865 90.6231 55.7486 90.0966 56.3395 89.7216C56.9342 89.3466 57.6255 89.1591 58.4134 89.1591C59.2012 89.1591 59.8906 89.3466 60.4815 89.7216C61.0762 90.0966 61.5384 90.6231 61.8679 91.3011C62.2012 91.9792 62.3679 92.7727 62.3679 93.6818C62.3679 94.5833 62.2012 95.3712 61.8679 96.0455C61.5384 96.7197 61.0762 97.2443 60.4815 97.6193C59.8906 97.9943 59.2012 98.1818 58.4134 98.1818ZM58.4134 96.9773C59.0118 96.9773 59.5043 96.8239 59.8906 96.517C60.277 96.2102 60.563 95.8068 60.7486 95.3068C60.9342 94.8068 61.027 94.2652 61.027 93.6818C61.027 93.0985 60.9342 92.5549 60.7486 92.0511C60.563 91.5473 60.277 91.1402 59.8906 90.8295C59.5043 90.5189 59.0118 90.3636 58.4134 90.3636C57.8149 90.3636 57.3224 90.5189 56.9361 90.8295C56.5497 91.1402 56.2637 91.5473 56.0781 92.0511C55.8925 92.5549 55.7997 93.0985 55.7997 93.6818C55.7997 94.2652 55.8925 94.8068 56.0781 95.3068C56.2637 95.8068 56.5497 96.2102 56.9361 96.517C57.3224 96.8239 57.8149 96.9773 58.4134 96.9773Z"
      fill="var(--color-bg-link)"
    />
    <path
      d="M64.4148 98V89.2727H65.7102V90.6364H65.8239C66.0057 90.1705 66.2992 89.8087 66.7045 89.5511C67.1098 89.2898 67.5966 89.1591 68.1648 89.1591C68.7405 89.1591 69.2197 89.2898 69.6023 89.5511C69.9886 89.8087 70.2898 90.1705 70.5057 90.6364H70.5966C70.8201 90.1856 71.1553 89.8277 71.6023 89.5625C72.0492 89.2936 72.5852 89.1591 73.2102 89.1591C73.9905 89.1591 74.6288 89.4034 75.125 89.892C75.6212 90.3769 75.8693 91.1326 75.8693 92.1591V98H74.5284V92.1591C74.5284 91.5152 74.3523 91.0549 74 90.7784C73.6477 90.5019 73.233 90.3636 72.7557 90.3636C72.142 90.3636 71.6667 90.5492 71.3295 90.9205C70.9924 91.2879 70.8239 91.7538 70.8239 92.3182V98H69.4602V92.0227C69.4602 91.5265 69.2992 91.1269 68.9773 90.8239C68.6553 90.517 68.2405 90.3636 67.733 90.3636C67.3845 90.3636 67.0587 90.4564 66.7557 90.642C66.4564 90.8277 66.214 91.0852 66.0284 91.4148C65.8466 91.7405 65.7557 92.1174 65.7557 92.5455V98H64.4148ZM78.321 98V89.2727H79.6165V90.6364H79.7301C79.9119 90.1705 80.2055 89.8087 80.6108 89.5511C81.0161 89.2898 81.5028 89.1591 82.071 89.1591C82.6468 89.1591 83.1259 89.2898 83.5085 89.5511C83.8949 89.8087 84.196 90.1705 84.4119 90.6364H84.5028C84.7263 90.1856 85.0616 89.8277 85.5085 89.5625C85.9555 89.2936 86.4915 89.1591 87.1165 89.1591C87.8968 89.1591 88.535 89.4034 89.0312 89.892C89.5275 90.3769 89.7756 91.1326 89.7756 92.1591V98H88.4347V92.1591C88.4347 91.5152 88.2585 91.0549 87.9062 90.7784C87.554 90.5019 87.1392 90.3636 86.6619 90.3636C86.0483 90.3636 85.5729 90.5492 85.2358 90.9205C84.8987 91.2879 84.7301 91.7538 84.7301 92.3182V98H83.3665V92.0227C83.3665 91.5265 83.2055 91.1269 82.8835 90.8239C82.5616 90.517 82.1468 90.3636 81.6392 90.3636C81.2907 90.3636 80.965 90.4564 80.6619 90.642C80.3627 90.8277 80.1203 91.0852 79.9347 91.4148C79.7528 91.7405 79.6619 92.1174 79.6619 92.5455V98H78.321ZM97.7273 94.4318V89.2727H99.0682V98H97.7273V96.5227H97.6364C97.4318 96.9659 97.1136 97.3428 96.6818 97.6534C96.25 97.9602 95.7045 98.1136 95.0455 98.1136C94.5 98.1136 94.0152 97.9943 93.5909 97.7557C93.1667 97.5133 92.8333 97.1496 92.5909 96.6648C92.3485 96.1761 92.2273 95.5606 92.2273 94.8182V89.2727H93.5682V94.7273C93.5682 95.3636 93.7462 95.8712 94.1023 96.25C94.4621 96.6288 94.9205 96.8182 95.4773 96.8182C95.8106 96.8182 96.1496 96.733 96.4943 96.5625C96.8428 96.392 97.1345 96.1307 97.3693 95.7784C97.608 95.4261 97.7273 94.9773 97.7273 94.4318ZM102.865 92.75V98H101.524V89.2727H102.82V90.6364H102.933C103.138 90.1932 103.448 89.8371 103.865 89.5682C104.282 89.2955 104.82 89.1591 105.479 89.1591C106.07 89.1591 106.587 89.2803 107.03 89.5227C107.473 89.7614 107.818 90.125 108.064 90.6136C108.31 91.0985 108.433 91.7121 108.433 92.4545V98H107.092V92.5455C107.092 91.8598 106.914 91.3258 106.558 90.9432C106.202 90.5568 105.714 90.3636 105.092 90.3636C104.664 90.3636 104.282 90.4564 103.945 90.642C103.611 90.8277 103.348 91.0985 103.155 91.4545C102.962 91.8106 102.865 92.2424 102.865 92.75ZM110.884 98V89.2727H112.224V98H110.884ZM111.565 87.8182C111.304 87.8182 111.079 87.7292 110.889 87.5511C110.704 87.3731 110.611 87.1591 110.611 86.9091C110.611 86.6591 110.704 86.4451 110.889 86.267C111.079 86.089 111.304 86 111.565 86C111.827 86 112.05 86.089 112.236 86.267C112.425 86.4451 112.52 86.6591 112.52 86.9091C112.52 87.1591 112.425 87.3731 112.236 87.5511C112.05 87.7292 111.827 87.8182 111.565 87.8182ZM118.476 89.2727V90.4091H113.953V89.2727H118.476ZM115.271 87.1818H116.612V95.5C116.612 95.8788 116.667 96.1629 116.777 96.3523C116.891 96.5379 117.035 96.6629 117.209 96.7273C117.387 96.7879 117.574 96.8182 117.771 96.8182C117.919 96.8182 118.04 96.8106 118.135 96.7955C118.23 96.7765 118.305 96.7614 118.362 96.75L118.635 97.9545C118.544 97.9886 118.417 98.0227 118.254 98.0568C118.091 98.0947 117.885 98.1136 117.635 98.1136C117.256 98.1136 116.885 98.0322 116.521 97.8693C116.161 97.7064 115.862 97.4583 115.624 97.125C115.389 96.7917 115.271 96.3712 115.271 95.8636V87.1818ZM121.357 101.273C121.129 101.273 120.927 101.254 120.749 101.216C120.571 101.182 120.447 101.148 120.379 101.114L120.72 99.9318C121.046 100.015 121.334 100.045 121.584 100.023C121.834 100 122.055 99.8883 122.249 99.6875C122.446 99.4905 122.625 99.1705 122.788 98.7273L123.038 98.0455L119.811 89.2727H121.266L123.675 96.2273H123.766L126.175 89.2727H127.629L123.925 99.2727C123.758 99.7235 123.552 100.097 123.305 100.392C123.059 100.691 122.773 100.913 122.447 101.057C122.125 101.201 121.762 101.273 121.357 101.273Z"
      fill="var(--color-control-typo-ghost)"
      fill-opacity="0.6"
    />
    <path
      d="M65 36H64V18H65V36Z"
      fill="var(--color-control-typo-ghost)"
      fill-opacity="0.6"
    />
    <path
      fill-rule="evenodd"
      clip-rule="evenodd"
      d="M170 77H30V76H170V77Z"
      fill="var(--color-control-typo-ghost)"
      fill-opacity="0.08"
    />
  </g>
  <defs>
    <clipPath id="clip0_2985_63979">
      <rect width="200" height="120" rx="3" fill="var(--color-bg-default)" />
    </clipPath>
  </defs>
</svg>
