<svg viewBox="0 0 420 172">
  <path
    fillRule="evenodd"
    clipRule="evenodd"
    d="M404 2.5C404 3.88071 402.88 5 401.5 5C400.119 5 399 3.88071 399 2.5C399 1.11929 400.119 0 401.5 0C402.88 0 404 1.11929 404 2.5ZM403 2.5C403 3.32843 402.328 4 401.5 4C400.671 4 400 3.32843 400 2.5C400 1.67157 400.671 1 401.5 1C402.328 1 403 1.67157 403 2.5Z"
  />
  <path
    fillRule="evenodd"
    clipRule="evenodd"
    d="M26.0625 112C26.1187 113.011 26.2116 114.011 26.3406 115H25.9997C26.1803 139.209 47.2028 158 78.9997 158C111.158 158 132 138.364 132 110C132 109.146 131.982 108.304 131.946 107.474C131.982 106.657 132 105.832 132 105C132 78.0811 114.125 63 90.9997 63C77.0116 63 67.6245 68.4983 63.0129 76.9757L62.9997 77H61.5169L63.9997 53H125V19H33.9997L27.9997 97H28.3843L27.9997 102H60.9997C64.071 95.9478 70.8698 92 78.9997 92C88.3232 92 94.9 97.774 95.8744 107.446C94.8534 117.251 87.6914 124 77.9997 124C69.1471 124 61.445 118.762 59.9997 110H25.9997C26.0047 110.671 26.0257 111.338 26.0625 112ZM64.19 79H58.7821L62.1959 46H123V21H35.8517L30.1594 95H59.8197C63.5097 88.8144 70.7181 85 78.9997 85C84.5186 85 89.3178 86.8648 92.7342 90.4122C96.1452 93.9541 97.9997 98.987 97.9997 105C97.9997 117.116 89.6799 126 77.9997 126C68.9432 126 60.6728 120.899 58.3789 112H28.0663C29.353 133.85 48.8843 151 78.9997 151C94.6731 151 107.411 146.22 116.208 138.162C124.991 130.117 130 118.668 130 105C130 92.001 125.696 82.047 118.779 75.3413C111.85 68.6232 102.128 65 90.9997 65C77.55 65 68.9359 70.2526 64.7576 77.9538L64.19 79Z"
  />
  <path
    fillRule="evenodd"
    clipRule="evenodd"
    d="M395 113C395 97.9456 386.598 87.1831 371.022 83.1654C382.153 78.7411 389 69.5153 389 56C389 55.1872 388.971 54.3805 388.914 53.5807C388.971 52.7387 389 51.8784 389 51C389 31.2173 371.977 15 340 15C308.489 15 288.237 30.8686 287.053 56C287.022 56.6603 287.004 57.327 287 58H287.29C287.109 59.625 287.011 61.2923 287 63H321C321.361 53.6958 328.431 48 339 48C347.753 48 352.798 52.1347 353.81 58.511C353.815 58.4752 353.821 58.4393 353.826 58.4034C352.808 65.2617 347.346 70 338.5 70H321V100H338C347.897 100 354.535 104.152 355.785 111.41C355.793 111.369 355.8 111.328 355.807 111.287C354.579 118.402 347.578 123 338 123C326.799 123 320.18 117.853 320 109H283C283.029 109.673 283.072 110.339 283.128 111C283.215 112.015 283.332 113.015 283.481 114H283C284.174 140.738 306.57 158 339 158C371.971 158 395 141.667 395 118C395 117.134 394.972 116.282 394.917 115.445C394.972 114.639 395 113.824 395 113ZM285.136 111C286.188 122.837 291.685 132.554 300.511 139.451C309.883 146.775 323.125 151 339 151C355.178 151 368.742 146.99 378.203 140.247C387.624 133.531 393 124.107 393 113C393 104.991 390.503 98.4155 385.836 93.5292C381.152 88.6248 374.114 85.2475 364.732 83.982L363 83.7483V78.3957L364.566 78.0476C371.552 76.495 377.135 73.3809 380.969 68.9072C384.79 64.4479 387 58.4906 387 51C387 41.7273 383.029 33.3025 375.251 27.1502C367.44 20.9728 355.667 17 340 17C324.156 17 311.438 21.0947 302.702 28.1946C294.476 34.8793 289.628 44.3446 289.056 56H319.167C319.756 51.6778 321.749 48.0685 324.899 45.4686C328.472 42.5182 333.369 41 339 41C344.263 41 348.546 42.4006 351.534 45.1036C354.545 47.8277 356 51.657 356 56C356 60.5437 354.409 64.5972 351.311 67.5065C348.222 70.4079 343.82 72 338.5 72H323V93H338C343.791 93 348.769 94.3491 352.349 97.093C355.994 99.8866 358 103.988 358 109C358 113.852 355.829 117.925 352.184 120.734C348.578 123.513 343.618 125 338 125C332.123 125 327.18 123.653 323.639 120.898C320.523 118.474 318.654 115.085 318.141 111H285.136Z"
  />
  <path
    d="M209.098 67.3009C208.008 68.1186 208.054 69.7686 209.188 70.5245L209.277 70.5839C211.001 71.7333 211.001 74.2666 209.277 75.416C208.147 76.1695 208.147 77.8304 209.277 78.5839C211.001 79.7333 211.001 82.2666 209.277 83.416C208.147 84.1695 208.147 85.8304 209.277 86.5839C211.001 87.7333 211.001 90.2666 209.277 91.416C208.147 92.1695 208.147 93.8304 209.277 94.5839C211.001 95.7333 211.001 98.2666 209.277 99.416C208.147 100.17 208.147 101.83 209.277 102.584L209.366 102.643C211.074 103.782 211.143 106.267 209.501 107.499L208.3 108.4C208.079 108.566 207.765 108.521 207.6 108.3C207.434 108.079 207.479 107.766 207.7 107.6L208.901 106.699C209.991 105.881 209.945 104.231 208.812 103.475L208.722 103.416C206.998 102.267 206.998 99.7333 208.722 98.5839C209.853 97.8304 209.853 96.1695 208.722 95.416C206.998 94.2666 206.998 91.7333 208.722 90.5839C209.853 89.8304 209.853 88.1695 208.722 87.416C206.998 86.2666 206.998 83.7333 208.722 82.5839C209.853 81.8304 209.853 80.1695 208.722 79.416C206.998 78.2666 206.998 75.7333 208.722 74.5839C209.853 73.8304 209.853 72.1695 208.722 71.416L208.633 71.3565C206.925 70.2179 206.856 67.7326 208.498 66.5009L209.7 65.6C209.921 65.4343 210.234 65.4791 210.4 65.7C210.565 65.9209 210.521 66.2343 210.3 66.4L209.098 67.3009Z"
  />
  <path
    fillRule="evenodd"
    clipRule="evenodd"
    d="M193.711 114.484C190.105 107.219 188 96.6274 188 83C188 69.4235 190.103 59.3012 193.738 52.4968C197.412 45.6217 202.755 42 209 42C215.28 42 220.378 45.6636 223.789 52.5517C227.155 59.3481 229 69.4551 229 83C229 96.597 227.152 107.174 223.814 114.431C220.466 121.707 215.408 126 209 126C202.631 126 197.321 121.756 193.711 114.484ZM209 49C198.676 49 190.528 60.4163 190.024 85.507C190.528 110.793 198.676 124 209 124C219.323 124 226.534 110.792 226.978 85.5068C226.534 60.4163 219.323 49 209 49Z"
  />
  <path
    fillRule="evenodd"
    clipRule="evenodd"
    d="M151 83C151 83.8415 151.008 84.6768 151.026 85.5058C151.008 86.3302 151 87.1616 151 88C151 131.179 173.77 158 209 158C244.139 158 266 131.088 266 88C266 87.1602 265.991 86.3274 265.975 85.5016C265.991 84.6739 266 83.84 266 83C266 39.731 243.958 15 209 15C174.041 15 151 39.731 151 83ZM249.126 132.896C258.614 121.236 264 104.228 264 83C264 61.6845 258.57 45.1974 249.087 34.0715C239.637 22.9852 225.976 17 209 17C192.019 17 178.098 22.989 168.396 34.0902C158.668 45.2216 153 61.7056 153 83C153 104.255 158.604 121.259 168.324 132.911C178.013 144.525 191.933 151 209 151C226.013 151 239.675 144.509 249.126 132.896Z"
  />
  <path
    fillRule="evenodd"
    clipRule="evenodd"
    d="M397.736 154.041C398.112 153.598 398.794 153.718 398.996 154.263L401.572 161.232C401.784 161.805 401.312 162.413 400.733 162.311L393.351 161.009C392.772 160.907 392.536 160.174 392.932 159.708L397.736 154.041ZM398.576 155.838L397.592 155.664L397.071 158.619L398.055 158.792L398.576 155.838ZM396.897 159.603L397.882 159.777L397.708 160.762L396.723 160.588L396.897 159.603Z"
  />
  <path
    fillRule="evenodd"
    clipRule="evenodd"
    d="M130.5 68C131.881 68 133 66.8807 133 65.5C133 64.1193 131.881 63 130.5 63C129.119 63 128 64.1193 128 65.5C128 66.8807 129.119 68 130.5 68ZM130.5 67C131.328 67 132 66.3284 132 65.5C132 64.6716 131.328 64 130.5 64C129.671 64 129 64.6716 129 65.5C129 66.3284 129.671 67 130.5 67Z"
  />
  <path
    fillRule="evenodd"
    clipRule="evenodd"
    d="M287 159.5C287 160.881 285.88 162 284.5 162C283.119 162 282 160.881 282 159.5C282 158.119 283.119 157 284.5 157C285.88 157 287 158.119 287 159.5ZM286 159.5C286 160.328 285.328 161 284.5 161C283.671 161 283 160.328 283 159.5C283 158.672 283.671 158 284.5 158C285.328 158 286 158.672 286 159.5Z"
  />
  <path
    fillRule="evenodd"
    clipRule="evenodd"
    d="M304.5 87C305.88 87 307 85.8807 307 84.5C307 83.1193 305.88 82 304.5 82C303.119 82 302 83.1193 302 84.5C302 85.8807 303.119 87 304.5 87ZM304.5 86C305.328 86 306 85.3284 306 84.5C306 83.6716 305.328 83 304.5 83C303.671 83 303 83.6716 303 84.5C303 85.3284 303.671 86 304.5 86Z"
  />
  <path
    fillRule="evenodd"
    clipRule="evenodd"
    d="M192.5 9C193.88 9 195 7.88071 195 6.5C195 5.11929 193.88 4 192.5 4C191.119 4 190 5.11929 190 6.5C190 7.88071 191.119 9 192.5 9ZM192.5 8C193.328 8 194 7.32843 194 6.5C194 5.67157 193.328 5 192.5 5C191.671 5 191 5.67157 191 6.5C191 7.32843 191.671 8 192.5 8Z"
  />
  <path
    fillRule="evenodd"
    clipRule="evenodd"
    d="M18.9997 154.5C18.9997 155.881 17.8804 157 16.4997 157C15.119 157 13.9997 155.881 13.9997 154.5C13.9997 153.119 15.119 152 16.4997 152C17.8804 152 18.9997 153.119 18.9997 154.5ZM17.9997 154.5C17.9997 155.328 17.3281 156 16.4997 156C15.6713 156 14.9997 155.328 14.9997 154.5C14.9997 153.672 15.6713 153 16.4997 153C17.3281 153 17.9997 153.672 17.9997 154.5Z"
  />
  <path
    d="M122.699 2.09867C121.881 1.00846 120.231 1.05426 119.475 2.18814L119.416 2.27732C118.266 4.00135 115.733 4.00135 114.584 2.27732C113.83 1.14703 112.169 1.14703 111.416 2.27732C110.266 4.00135 107.733 4.00135 106.584 2.27732C105.83 1.14703 104.169 1.14703 103.416 2.27732C102.266 4.00135 99.7331 4.00135 98.5837 2.27732C97.8302 1.14703 96.1693 1.14703 95.4158 2.27732C94.2664 4.00135 91.7331 4.00135 90.5837 2.27732C89.8302 1.14703 88.1693 1.14703 87.4158 2.27732L87.3563 2.3665C86.2177 4.07446 83.7323 4.14345 82.5007 2.50127L81.5997 1.29997C81.4341 1.07906 81.4788 0.765657 81.6997 0.599972C81.9207 0.434286 82.2341 0.479058 82.3997 0.699972L83.3007 1.90127C84.1184 2.99148 85.7683 2.94569 86.5243 1.8118L86.5837 1.72262C87.7331 -0.00140238 90.2664 -0.0014019 91.4158 1.72262C92.1693 2.85291 93.8302 2.85291 94.5837 1.72262C95.7331 -0.0014019 98.2664 -0.0014019 99.4158 1.72262C100.169 2.85291 101.83 2.85291 102.584 1.72262C103.733 -0.0014019 106.266 -0.0014019 107.416 1.72262C108.169 2.85291 109.83 2.85291 110.584 1.72262C111.733 -0.0014019 114.266 -0.0014019 115.416 1.72262C116.169 2.85291 117.83 2.85291 118.584 1.72262L118.643 1.63344C119.782 -0.0745211 122.267 -0.143503 123.499 1.49867L124.4 2.69997C124.565 2.92089 124.521 3.23429 124.3 3.39997C124.079 3.56566 123.765 3.52089 123.6 3.29997L122.699 2.09867Z"
  />
  <path
    d="M356.475 168.188C357.231 167.054 358.881 167.008 359.699 168.099L360.6 169.3C360.766 169.521 361.079 169.566 361.3 169.4C361.521 169.234 361.565 168.921 361.4 168.7L360.499 167.499C359.267 165.856 356.782 165.925 355.643 167.633L355.584 167.723C354.83 168.853 353.169 168.853 352.416 167.723C351.266 165.999 348.733 165.999 347.584 167.723C346.83 168.853 345.169 168.853 344.416 167.723C343.266 165.999 340.733 165.999 339.584 167.723C338.83 168.853 337.169 168.853 336.416 167.723C335.266 165.999 332.733 165.999 331.584 167.723C330.83 168.853 329.169 168.853 328.416 167.723C327.266 165.999 324.733 165.999 323.584 167.723L323.524 167.812C322.768 168.946 321.118 168.991 320.301 167.901L319.4 166.7C319.234 166.479 318.921 166.434 318.7 166.6C318.479 166.766 318.434 167.079 318.6 167.3L319.501 168.501C320.732 170.143 323.218 170.074 324.356 168.367L324.416 168.277C325.169 167.147 326.83 167.147 327.584 168.277C328.733 170.001 331.266 170.001 332.416 168.277C333.169 167.147 334.83 167.147 335.584 168.277C336.733 170.001 339.266 170.001 340.416 168.277C341.169 167.147 342.83 167.147 343.584 168.277C344.733 170.001 347.266 170.001 348.416 168.277C349.169 167.147 350.83 167.147 351.584 168.277C352.733 170.001 355.266 170.001 356.416 168.277L356.475 168.188Z"
  />
  <path
    d="M14.7026 54.3744C13.5494 55.1006 13.4606 56.7488 14.5292 57.5946L14.6132 57.6611C16.2379 58.947 16.0315 61.472 14.2196 62.4771C13.0317 63.136 12.8964 64.7914 13.9616 65.6345C15.5862 66.9205 15.3799 69.4454 13.568 70.4505C12.3801 71.1094 12.2448 72.7648 13.3099 73.6079C14.9346 74.8939 14.7282 77.4188 12.9163 78.4239C11.7284 79.0829 11.5931 80.7382 12.6583 81.5813C14.2829 82.8673 14.0766 85.3922 12.2647 86.3973C11.0767 87.0563 10.9415 88.7116 12.0066 89.5547L12.0906 89.6213C13.7002 90.8952 13.5665 93.3779 11.8294 94.4717L10.5587 95.2718C10.3251 95.419 10.0164 95.3488 9.86922 95.1151C9.72208 94.8815 9.79223 94.5728 10.0259 94.4256L11.2966 93.6255C12.4498 92.8994 12.5386 91.2511 11.47 90.4054L11.386 90.3388C9.7613 89.0529 9.96766 86.5279 11.7796 85.5229C12.9675 84.8639 13.1028 83.2085 12.0376 82.3654C10.413 81.0795 10.6193 78.5545 12.4312 77.5494C13.6191 76.8905 13.7544 75.2351 12.6893 74.392C11.0646 73.106 11.271 70.5811 13.0829 69.576C14.2708 68.9171 14.4061 67.2617 13.3409 66.4186C11.7163 65.1326 11.9226 62.6077 13.7345 61.6026C14.9225 60.9437 15.0578 59.2883 13.9926 58.4452L13.9086 58.3787C12.299 57.1047 12.4327 54.622 14.1698 53.5282L15.4405 52.7281C15.6741 52.581 15.9828 52.6511 16.13 52.8848C16.2771 53.1185 16.207 53.4272 15.9733 53.5743L14.7026 54.3744Z"
  />
  <path
    d="M403.517 30.7829C404.853 30.5156 406.052 31.6499 405.859 32.999L405.647 34.4855C405.608 34.7589 405.798 35.0121 406.071 35.0512C406.344 35.0902 406.598 34.9003 406.637 34.6269L406.849 33.1404C407.139 31.1083 405.333 29.3997 403.32 29.8023L403.215 29.8233C401.883 30.0897 400.709 28.9153 400.975 27.5832C401.382 25.5514 399.59 23.7601 397.558 24.1664C396.226 24.4328 395.052 23.2584 395.318 21.9264C395.725 19.8946 393.933 18.1032 391.902 18.5096C390.57 18.776 389.395 17.6016 389.662 16.2695C390.068 14.2377 388.277 12.4464 386.245 12.8527C384.913 13.1191 383.738 11.9447 384.005 10.6127C384.411 8.58087 382.62 6.78952 380.588 7.19588L380.483 7.2169C379.146 7.48416 377.947 6.34984 378.14 5.00077L378.353 3.51424C378.392 3.24087 378.202 2.9876 377.928 2.94855C377.655 2.9095 377.402 3.09945 377.363 3.37282L377.15 4.85935C376.86 6.89144 378.666 8.60005 380.679 8.19748L380.784 8.17646C382.116 7.91005 383.29 9.08448 383.024 10.4165C382.618 12.4483 384.409 14.2397 386.441 13.8333C387.773 13.5669 388.947 14.7413 388.681 16.0734C388.275 18.1052 390.066 19.8965 392.098 19.4902C393.43 19.2238 394.604 20.3982 394.338 21.7302C393.931 23.762 395.723 25.5534 397.755 25.147C399.087 24.8806 400.261 26.055 399.995 27.3871C399.588 29.4189 401.38 31.2102 403.411 30.8039L403.517 30.7829Z"
  />
  <path
    d="M276.5 52V56.3074C276.5 57.7292 275.634 59.0077 274.314 59.5358C272.614 60.2157 271.5 61.8619 271.5 63.6926V68C271.5 68.2761 271.724 68.5 272 68.5C272.276 68.5 272.5 68.2761 272.5 68V63.6926C272.5 62.2708 273.365 60.9923 274.685 60.4642C276.385 59.7843 277.5 58.1381 277.5 56.3074V52C277.5 51.7239 277.276 51.5 277 51.5C276.724 51.5 276.5 51.7239 276.5 52Z"
  />
  <path
    d="M46.152 169.256L50.1347 170.896C50.39 171.002 50.5117 171.294 50.4065 171.549C50.3014 171.805 50.0091 171.926 49.7538 171.821L45.7711 170.18C44.0784 169.483 42.9808 167.825 42.9996 165.995C43.0142 164.573 42.1618 163.286 40.8472 162.744L36.8645 161.104C36.6092 160.998 36.4875 160.706 36.5927 160.451C36.6978 160.195 36.9901 160.074 37.2454 160.179L41.2281 161.82C42.9208 162.517 44.0184 164.175 43.9996 166.005C43.985 167.427 44.8374 168.714 46.152 169.256Z"
  />
  <path
    d="M413.5 105V109.307C413.5 110.729 412.634 112.008 411.314 112.536C409.614 113.216 408.5 114.862 408.5 116.693V121C408.5 121.276 408.724 121.5 409 121.5C409.276 121.5 409.5 121.276 409.5 121V116.693C409.5 115.271 410.365 113.992 411.685 113.464C413.385 112.784 414.5 111.138 414.5 109.307V105C414.5 104.724 414.276 104.5 414 104.5C413.724 104.5 413.5 104.724 413.5 105Z"
  />
  <path
    d="M248.501 155.472C248.42 156.891 247.483 158.118 246.135 158.57L242.051 159.94C241.789 160.028 241.648 160.311 241.736 160.573C241.823 160.835 242.107 160.976 242.369 160.888L246.453 159.518C248.188 158.936 249.395 157.356 249.499 155.528C249.58 154.109 250.517 152.882 251.865 152.43L255.949 151.06C256.211 150.972 256.352 150.689 256.264 150.427C256.176 150.165 255.893 150.024 255.631 150.112L251.547 151.482C249.811 152.064 248.605 153.644 248.501 155.472Z"
  />
  <path
    fillRule="evenodd"
    clipRule="evenodd"
    d="M10.2408 10.5427C10.4425 9.99719 11.124 9.87703 11.5001 10.3206L16.3049 15.9873C16.7003 16.4538 16.464 17.1863 15.885 17.2884L8.50345 18.59C7.92453 18.6921 7.45187 18.0845 7.66397 17.511L10.2408 10.5427ZM11.6448 11.9435L10.6599 12.1172L11.1809 15.0716L12.1657 14.898L11.6448 11.9435ZM11.3545 16.0564L12.3393 15.8828L12.513 16.8676L11.5282 17.0412L11.3545 16.0564Z"
  />
  <path
    fillRule="evenodd"
    clipRule="evenodd"
    d="M152.385 137.7C152.183 137.155 151.502 137.035 151.125 137.478L146.321 143.145C145.925 143.611 146.162 144.344 146.74 144.446L154.122 145.748C154.701 145.85 155.174 145.242 154.962 144.669L152.385 137.7ZM150.981 139.101L151.966 139.275L151.445 142.229L150.46 142.056L150.981 139.101ZM151.271 143.214L150.286 143.04L150.113 144.025L151.097 144.199L151.271 143.214Z"
  />
  <path
    fillRule="evenodd"
    clipRule="evenodd"
    d="M294.478 10.2634C294.68 9.71789 295.361 9.59773 295.737 10.0413L300.542 15.7081C300.937 16.1745 300.701 16.907 300.122 17.0091L292.741 18.3107C292.162 18.4128 291.689 17.8052 291.901 17.2317L294.478 10.2634ZM295.882 11.6642L294.897 11.8379L295.418 14.7923L296.403 14.6187L295.882 11.6642ZM295.592 15.7771L296.576 15.6035L296.75 16.5883L295.765 16.7619L295.592 15.7771Z"
  />
</svg>
