<svg
  width="813"
  height="230"
  viewBox="0 0 813 230"
  fill="none"
  xmlns="http://www.w3.org/2000/svg"
>
  <g filter="url(#filter0_dd_51_970)">
    <rect x="195" y="42" width="364" height="156" rx="4" fill="white" />
    <rect
      x="195.5"
      y="42.5"
      width="363"
      height="155"
      rx="3.5"
      stroke="#004269"
      stroke-opacity="0.28"
    />
    <g clip-path="url(#clip0_51_970)">
      <path
        d="M207.409 75.8182V71.75H208.159C208.417 71.5152 208.659 71.1837 208.886 70.7557C209.117 70.3239 209.312 69.7481 209.472 69.0284C209.634 68.3049 209.742 67.3864 209.795 66.2727L210.045 61.3636H216.955V71.75H218.295V75.7955H216.955V73H208.75V75.8182H207.409ZM209.841 71.75H215.614V62.6136H211.318L211.136 66.2727C211.091 67.1212 211.011 67.8902 210.898 68.5795C210.784 69.2652 210.638 69.8731 210.46 70.4034C210.282 70.9299 210.076 71.3788 209.841 71.75ZM223.788 73.1818C223 73.1818 222.309 72.9943 221.714 72.6193C221.124 72.2443 220.661 71.7197 220.328 71.0455C219.999 70.3712 219.834 69.5833 219.834 68.6818C219.834 67.7727 219.999 66.9792 220.328 66.3011C220.661 65.6231 221.124 65.0966 221.714 64.7216C222.309 64.3466 223 64.1591 223.788 64.1591C224.576 64.1591 225.266 64.3466 225.857 64.7216C226.451 65.0966 226.913 65.6231 227.243 66.3011C227.576 66.9792 227.743 67.7727 227.743 68.6818C227.743 69.5833 227.576 70.3712 227.243 71.0455C226.913 71.7197 226.451 72.2443 225.857 72.6193C225.266 72.9943 224.576 73.1818 223.788 73.1818ZM223.788 71.9773C224.387 71.9773 224.879 71.8239 225.266 71.517C225.652 71.2102 225.938 70.8068 226.124 70.3068C226.309 69.8068 226.402 69.2652 226.402 68.6818C226.402 68.0985 226.309 67.5549 226.124 67.0511C225.938 66.5473 225.652 66.1402 225.266 65.8295C224.879 65.5189 224.387 65.3636 223.788 65.3636C223.19 65.3636 222.697 65.5189 222.311 65.8295C221.925 66.1402 221.639 66.5473 221.453 67.0511C221.268 67.5549 221.175 68.0985 221.175 68.6818C221.175 69.2652 221.268 69.8068 221.453 70.3068C221.639 70.8068 221.925 71.2102 222.311 71.517C222.697 71.8239 223.19 71.9773 223.788 71.9773ZM236.267 61L236.949 61.8182C236.684 62.0758 236.377 62.2557 236.028 62.358C235.68 62.4602 235.286 62.5227 234.847 62.5455C234.407 62.5682 233.919 62.5909 233.381 62.6136C232.775 62.6364 232.273 62.7841 231.875 63.0568C231.477 63.3295 231.17 63.7235 230.955 64.2386C230.739 64.7538 230.6 65.3864 230.54 66.1364H230.653C230.949 65.5909 231.358 65.1894 231.881 64.9318C232.403 64.6742 232.964 64.5455 233.562 64.5455C234.244 64.5455 234.858 64.7045 235.403 65.0227C235.949 65.3409 236.381 65.8125 236.699 66.4375C237.017 67.0625 237.176 67.8333 237.176 68.75C237.176 69.6629 237.013 70.4508 236.688 71.1136C236.366 71.7765 235.913 72.2879 235.33 72.6477C234.75 73.0038 234.07 73.1818 233.29 73.1818C232.509 73.1818 231.826 72.9981 231.239 72.6307C230.652 72.2595 230.195 71.7102 229.869 70.983C229.544 70.2519 229.381 69.3485 229.381 68.2727V67.3409C229.381 65.3977 229.71 63.9242 230.369 62.9205C231.032 61.9167 232.028 61.3977 233.358 61.3636C233.828 61.3485 234.246 61.3447 234.614 61.3523C234.981 61.3598 235.301 61.3428 235.574 61.3011C235.847 61.2595 236.078 61.1591 236.267 61ZM233.29 71.9773C233.816 71.9773 234.269 71.8447 234.648 71.5795C235.03 71.3144 235.324 70.9413 235.528 70.4602C235.733 69.9754 235.835 69.4053 235.835 68.75C235.835 68.1136 235.731 67.572 235.523 67.125C235.318 66.678 235.025 66.3371 234.642 66.1023C234.259 65.8674 233.801 65.75 233.267 65.75C232.877 65.75 232.527 65.8163 232.216 65.9489C231.905 66.0814 231.64 66.2765 231.42 66.5341C231.201 66.7917 231.03 67.1061 230.909 67.4773C230.792 67.8485 230.729 68.2727 230.722 68.75C230.722 69.7273 230.951 70.5095 231.409 71.0966C231.867 71.6837 232.494 71.9773 233.29 71.9773ZM241.795 73.2045C241.242 73.2045 240.741 73.1004 240.29 72.892C239.839 72.6799 239.481 72.375 239.216 71.9773C238.951 71.5758 238.818 71.0909 238.818 70.5227C238.818 70.0227 238.917 69.6174 239.114 69.3068C239.311 68.9924 239.574 68.7462 239.903 68.5682C240.233 68.3902 240.597 68.2576 240.994 68.1705C241.396 68.0795 241.799 68.0076 242.205 67.9545C242.735 67.8864 243.165 67.8352 243.494 67.8011C243.828 67.7633 244.07 67.7008 244.222 67.6136C244.377 67.5265 244.455 67.375 244.455 67.1591V67.1136C244.455 66.553 244.301 66.1174 243.994 65.8068C243.691 65.4962 243.231 65.3409 242.614 65.3409C241.973 65.3409 241.472 65.4811 241.108 65.7614C240.744 66.0417 240.489 66.3409 240.341 66.6591L239.068 66.2045C239.295 65.6742 239.598 65.2614 239.977 64.9659C240.36 64.6667 240.777 64.4583 241.227 64.3409C241.682 64.2197 242.129 64.1591 242.568 64.1591C242.848 64.1591 243.17 64.1932 243.534 64.2614C243.902 64.3258 244.256 64.4602 244.597 64.6648C244.941 64.8693 245.227 65.178 245.455 65.5909C245.682 66.0038 245.795 66.5568 245.795 67.25V73H244.455V71.8182H244.386C244.295 72.0076 244.144 72.2102 243.932 72.4261C243.72 72.642 243.438 72.8258 243.085 72.9773C242.733 73.1288 242.303 73.2045 241.795 73.2045ZM242 72C242.53 72 242.977 71.8958 243.341 71.6875C243.708 71.4792 243.985 71.2102 244.17 70.8807C244.36 70.5511 244.455 70.2045 244.455 69.8409V68.6136C244.398 68.6818 244.273 68.7443 244.08 68.8011C243.89 68.8542 243.67 68.9015 243.42 68.9432C243.174 68.9811 242.934 69.0152 242.699 69.0455C242.468 69.072 242.28 69.0947 242.136 69.1136C241.788 69.1591 241.462 69.233 241.159 69.3352C240.86 69.4337 240.617 69.5833 240.432 69.7841C240.25 69.9811 240.159 70.25 240.159 70.5909C240.159 71.0568 240.331 71.4091 240.676 71.6477C241.025 71.8826 241.466 72 242 72ZM248.243 73V64.2727H251.811C252.75 64.2727 253.497 64.4848 254.05 64.9091C254.603 65.3333 254.879 65.8939 254.879 66.5909C254.879 67.1212 254.722 67.5322 254.408 67.8239C254.093 68.1117 253.69 68.3068 253.197 68.4091C253.519 68.4545 253.832 68.5682 254.135 68.75C254.442 68.9318 254.696 69.1818 254.896 69.5C255.097 69.8144 255.197 70.2008 255.197 70.6591C255.197 71.1061 255.084 71.5057 254.857 71.858C254.629 72.2102 254.304 72.4886 253.879 72.6932C253.455 72.8977 252.947 73 252.357 73H248.243ZM249.516 71.7727H252.357C252.819 71.7727 253.18 71.6629 253.442 71.4432C253.703 71.2235 253.834 70.9242 253.834 70.5455C253.834 70.0947 253.703 69.7405 253.442 69.483C253.18 69.2216 252.819 69.0909 252.357 69.0909H249.516V71.7727ZM249.516 67.9318H251.811C252.171 67.9318 252.48 67.8826 252.737 67.7841C252.995 67.6818 253.192 67.5379 253.328 67.3523C253.468 67.1629 253.538 66.9394 253.538 66.6818C253.538 66.3144 253.385 66.0265 253.078 65.8182C252.771 65.6061 252.349 65.5 251.811 65.5H249.516V67.9318ZM258.568 71.0227L262.773 64.2727H264.318V73H262.977V66.25L258.795 73H257.227V64.2727H258.568V71.0227ZM265.587 65.5227V64.2727H272.678V65.5227H269.814V73H268.473V65.5227H265.587ZM275.793 67.4318H278.293C279.315 67.4318 280.098 67.6913 280.639 68.2102C281.181 68.7292 281.452 69.3864 281.452 70.1818C281.452 70.7045 281.33 71.1799 281.088 71.608C280.846 72.0322 280.49 72.3712 280.02 72.625C279.55 72.875 278.974 73 278.293 73H274.634V64.2727H275.974V71.75H278.293C278.823 71.75 279.259 71.6098 279.599 71.3295C279.94 71.0492 280.111 70.6894 280.111 70.25C280.111 69.7879 279.94 69.411 279.599 69.1193C279.259 68.8277 278.823 68.6818 278.293 68.6818H275.793V67.4318Z"
        fill="#002033"
      />
    </g>
    <g clip-path="url(#clip1_51_970)">
      <path
        d="M215.25 108L211.25 102.659H209.818V108H208.409V96.3636H209.818V101.409H210.432L215.091 96.3636H216.773L212.068 101.477L216.932 108H215.25ZM221.476 108.182C220.688 108.182 219.997 107.994 219.402 107.619C218.811 107.244 218.349 106.72 218.016 106.045C217.686 105.371 217.521 104.583 217.521 103.682C217.521 102.773 217.686 101.979 218.016 101.301C218.349 100.623 218.811 100.097 219.402 99.7216C219.997 99.3466 220.688 99.1591 221.476 99.1591C222.264 99.1591 222.953 99.3466 223.544 99.7216C224.139 100.097 224.601 100.623 224.93 101.301C225.264 101.979 225.43 102.773 225.43 103.682C225.43 104.583 225.264 105.371 224.93 106.045C224.601 106.72 224.139 107.244 223.544 107.619C222.953 107.994 222.264 108.182 221.476 108.182ZM221.476 106.977C222.074 106.977 222.567 106.824 222.953 106.517C223.339 106.21 223.625 105.807 223.811 105.307C223.997 104.807 224.089 104.265 224.089 103.682C224.089 103.098 223.997 102.555 223.811 102.051C223.625 101.547 223.339 101.14 222.953 100.83C222.567 100.519 222.074 100.364 221.476 100.364C220.877 100.364 220.385 100.519 219.999 100.83C219.612 101.14 219.326 101.547 219.141 102.051C218.955 102.555 218.862 103.098 218.862 103.682C218.862 104.265 218.955 104.807 219.141 105.307C219.326 105.807 219.612 106.21 219.999 106.517C220.385 106.824 220.877 106.977 221.476 106.977ZM227.477 108V99.2727H234.341V108H233V100.523H228.818V108H227.477ZM238.131 106.023L242.335 99.2727H243.881V108H242.54V101.25L238.358 108H236.79V99.2727H238.131V106.023ZM246.337 111.273V99.2727H247.632V100.659H247.791C247.89 100.508 248.026 100.314 248.2 100.08C248.378 99.8409 248.632 99.6288 248.962 99.4432C249.295 99.2538 249.746 99.1591 250.314 99.1591C251.049 99.1591 251.696 99.3428 252.257 99.7102C252.818 100.078 253.255 100.598 253.57 101.273C253.884 101.947 254.041 102.742 254.041 103.659C254.041 104.583 253.884 105.384 253.57 106.062C253.255 106.737 252.82 107.259 252.263 107.631C251.706 107.998 251.064 108.182 250.337 108.182C249.776 108.182 249.327 108.089 248.99 107.903C248.653 107.714 248.393 107.5 248.212 107.261C248.03 107.019 247.89 106.818 247.791 106.659H247.678V111.273H246.337ZM247.655 103.636C247.655 104.295 247.751 104.877 247.945 105.381C248.138 105.881 248.42 106.273 248.791 106.557C249.162 106.837 249.617 106.977 250.155 106.977C250.715 106.977 251.183 106.83 251.558 106.534C251.937 106.235 252.221 105.833 252.411 105.33C252.604 104.822 252.7 104.258 252.7 103.636C252.7 103.023 252.606 102.47 252.416 101.977C252.231 101.481 251.948 101.089 251.57 100.801C251.195 100.509 250.723 100.364 250.155 100.364C249.609 100.364 249.151 100.502 248.78 100.778C248.409 101.051 248.128 101.434 247.939 101.926C247.75 102.415 247.655 102.985 247.655 103.636ZM259.632 108.182C258.844 108.182 258.153 107.994 257.558 107.619C256.967 107.244 256.505 106.72 256.172 106.045C255.842 105.371 255.678 104.583 255.678 103.682C255.678 102.773 255.842 101.979 256.172 101.301C256.505 100.623 256.967 100.097 257.558 99.7216C258.153 99.3466 258.844 99.1591 259.632 99.1591C260.42 99.1591 261.109 99.3466 261.7 99.7216C262.295 100.097 262.757 100.623 263.087 101.301C263.42 101.979 263.587 102.773 263.587 103.682C263.587 104.583 263.42 105.371 263.087 106.045C262.757 106.72 262.295 107.244 261.7 107.619C261.109 107.994 260.42 108.182 259.632 108.182ZM259.632 106.977C260.231 106.977 260.723 106.824 261.109 106.517C261.496 106.21 261.782 105.807 261.967 105.307C262.153 104.807 262.246 104.265 262.246 103.682C262.246 103.098 262.153 102.555 261.967 102.051C261.782 101.547 261.496 101.14 261.109 100.83C260.723 100.519 260.231 100.364 259.632 100.364C259.034 100.364 258.541 100.519 258.155 100.83C257.768 101.14 257.482 101.547 257.297 102.051C257.111 102.555 257.018 103.098 257.018 103.682C257.018 104.265 257.111 104.807 257.297 105.307C257.482 105.807 257.768 106.21 258.155 106.517C258.541 106.824 259.034 106.977 259.632 106.977ZM265.634 108V99.2727H269.202C270.141 99.2727 270.887 99.4848 271.44 99.9091C271.993 100.333 272.27 100.894 272.27 101.591C272.27 102.121 272.113 102.532 271.798 102.824C271.484 103.112 271.08 103.307 270.588 103.409C270.91 103.455 271.223 103.568 271.526 103.75C271.832 103.932 272.086 104.182 272.287 104.5C272.488 104.814 272.588 105.201 272.588 105.659C272.588 106.106 272.474 106.506 272.247 106.858C272.02 107.21 271.694 107.489 271.27 107.693C270.846 107.898 270.338 108 269.747 108H265.634ZM266.906 106.773H269.747C270.209 106.773 270.571 106.663 270.832 106.443C271.094 106.223 271.224 105.924 271.224 105.545C271.224 105.095 271.094 104.741 270.832 104.483C270.571 104.222 270.209 104.091 269.747 104.091H266.906V106.773ZM266.906 102.932H269.202C269.562 102.932 269.87 102.883 270.128 102.784C270.385 102.682 270.582 102.538 270.719 102.352C270.859 102.163 270.929 101.939 270.929 101.682C270.929 101.314 270.776 101.027 270.469 100.818C270.162 100.606 269.74 100.5 269.202 100.5H266.906V102.932ZM277.186 108.205C276.633 108.205 276.131 108.1 275.68 107.892C275.23 107.68 274.872 107.375 274.607 106.977C274.341 106.576 274.209 106.091 274.209 105.523C274.209 105.023 274.307 104.617 274.504 104.307C274.701 103.992 274.964 103.746 275.294 103.568C275.624 103.39 275.987 103.258 276.385 103.17C276.786 103.08 277.19 103.008 277.595 102.955C278.125 102.886 278.555 102.835 278.885 102.801C279.218 102.763 279.461 102.701 279.612 102.614C279.768 102.527 279.845 102.375 279.845 102.159V102.114C279.845 101.553 279.692 101.117 279.385 100.807C279.082 100.496 278.622 100.341 278.004 100.341C277.364 100.341 276.862 100.481 276.499 100.761C276.135 101.042 275.879 101.341 275.732 101.659L274.459 101.205C274.686 100.674 274.989 100.261 275.368 99.9659C275.75 99.6667 276.167 99.4583 276.618 99.3409C277.072 99.2197 277.519 99.1591 277.959 99.1591C278.239 99.1591 278.561 99.1932 278.925 99.2614C279.292 99.3258 279.646 99.4602 279.987 99.6648C280.332 99.8693 280.618 100.178 280.845 100.591C281.072 101.004 281.186 101.557 281.186 102.25V108H279.845V106.818H279.777C279.686 107.008 279.535 107.21 279.322 107.426C279.11 107.642 278.828 107.826 278.476 107.977C278.124 108.129 277.694 108.205 277.186 108.205ZM277.391 107C277.921 107 278.368 106.896 278.732 106.688C279.099 106.479 279.375 106.21 279.561 105.881C279.75 105.551 279.845 105.205 279.845 104.841V103.614C279.788 103.682 279.663 103.744 279.47 103.801C279.281 103.854 279.061 103.902 278.811 103.943C278.565 103.981 278.324 104.015 278.089 104.045C277.858 104.072 277.671 104.095 277.527 104.114C277.179 104.159 276.853 104.233 276.55 104.335C276.25 104.434 276.008 104.583 275.822 104.784C275.641 104.981 275.55 105.25 275.55 105.591C275.55 106.057 275.722 106.409 276.067 106.648C276.415 106.883 276.857 107 277.391 107ZM282.446 100.523V99.2727H289.537V100.523H286.673V108H285.332V100.523H282.446ZM292.652 102.432H295.152C296.175 102.432 296.957 102.691 297.499 103.21C298.04 103.729 298.311 104.386 298.311 105.182C298.311 105.705 298.19 106.18 297.947 106.608C297.705 107.032 297.349 107.371 296.879 107.625C296.41 107.875 295.834 108 295.152 108H291.493V99.2727H292.834V106.75H295.152C295.682 106.75 296.118 106.61 296.459 106.33C296.8 106.049 296.97 105.689 296.97 105.25C296.97 104.788 296.8 104.411 296.459 104.119C296.118 103.828 295.682 103.682 295.152 103.682H292.652V102.432Z"
        fill="#002033"
      />
    </g>
    <g clip-path="url(#clip2_51_970)">
      <path
        d="M208.409 143V131.364H212.477C213.288 131.364 213.956 131.504 214.483 131.784C215.009 132.061 215.402 132.434 215.659 132.903C215.917 133.369 216.045 133.886 216.045 134.455C216.045 134.955 215.956 135.367 215.778 135.693C215.604 136.019 215.373 136.277 215.085 136.466C214.801 136.655 214.492 136.795 214.159 136.886V137C214.515 137.023 214.873 137.148 215.233 137.375C215.593 137.602 215.894 137.928 216.136 138.352C216.379 138.777 216.5 139.295 216.5 139.909C216.5 140.492 216.367 141.017 216.102 141.483C215.837 141.949 215.419 142.318 214.847 142.591C214.275 142.864 213.53 143 212.614 143H208.409ZM209.818 141.75H212.614C213.534 141.75 214.188 141.572 214.574 141.216C214.964 140.856 215.159 140.42 215.159 139.909C215.159 139.515 215.059 139.152 214.858 138.818C214.657 138.481 214.371 138.212 214 138.011C213.629 137.807 213.189 137.705 212.682 137.705H209.818V141.75ZM209.818 136.477H212.432C212.856 136.477 213.239 136.394 213.58 136.227C213.924 136.061 214.197 135.826 214.398 135.523C214.602 135.22 214.705 134.864 214.705 134.455C214.705 133.943 214.527 133.509 214.17 133.153C213.814 132.794 213.25 132.614 212.477 132.614H209.818V136.477ZM219.793 137.432H222.293C223.315 137.432 224.098 137.691 224.639 138.21C225.181 138.729 225.452 139.386 225.452 140.182C225.452 140.705 225.33 141.18 225.088 141.608C224.846 142.032 224.49 142.371 224.02 142.625C223.55 142.875 222.974 143 222.293 143H218.634V134.273H219.974V141.75H222.293C222.823 141.75 223.259 141.61 223.599 141.33C223.94 141.049 224.111 140.689 224.111 140.25C224.111 139.788 223.94 139.411 223.599 139.119C223.259 138.828 222.823 138.682 222.293 138.682H219.793V137.432ZM226.838 143V134.273H228.179V143H226.838ZM230.634 146.273V134.273H231.929V135.659H232.088C232.187 135.508 232.323 135.314 232.497 135.08C232.675 134.841 232.929 134.629 233.259 134.443C233.592 134.254 234.043 134.159 234.611 134.159C235.346 134.159 235.993 134.343 236.554 134.71C237.115 135.078 237.552 135.598 237.866 136.273C238.181 136.947 238.338 137.742 238.338 138.659C238.338 139.583 238.181 140.384 237.866 141.062C237.552 141.737 237.116 142.259 236.56 142.631C236.003 142.998 235.361 143.182 234.634 143.182C234.073 143.182 233.624 143.089 233.287 142.903C232.95 142.714 232.69 142.5 232.509 142.261C232.327 142.019 232.187 141.818 232.088 141.659H231.974V146.273H230.634ZM231.952 138.636C231.952 139.295 232.048 139.877 232.241 140.381C232.435 140.881 232.717 141.273 233.088 141.557C233.459 141.837 233.914 141.977 234.452 141.977C235.012 141.977 235.48 141.83 235.855 141.534C236.234 141.235 236.518 140.833 236.707 140.33C236.901 139.822 236.997 139.258 236.997 138.636C236.997 138.023 236.902 137.47 236.713 136.977C236.527 136.481 236.245 136.089 235.866 135.801C235.491 135.509 235.02 135.364 234.452 135.364C233.906 135.364 233.448 135.502 233.077 135.778C232.705 136.051 232.425 136.434 232.236 136.926C232.046 137.415 231.952 137.985 231.952 138.636ZM244.043 143.182C243.202 143.182 242.476 142.996 241.866 142.625C241.26 142.25 240.793 141.727 240.463 141.057C240.137 140.383 239.974 139.598 239.974 138.705C239.974 137.811 240.137 137.023 240.463 136.341C240.793 135.655 241.251 135.121 241.838 134.739C242.429 134.352 243.118 134.159 243.906 134.159C244.361 134.159 244.81 134.235 245.253 134.386C245.696 134.538 246.099 134.784 246.463 135.125C246.827 135.462 247.116 135.909 247.332 136.466C247.548 137.023 247.656 137.708 247.656 138.523V139.091H240.929V137.932H246.293C246.293 137.439 246.194 137 245.997 136.614C245.804 136.227 245.527 135.922 245.168 135.699C244.812 135.475 244.391 135.364 243.906 135.364C243.372 135.364 242.91 135.496 242.52 135.761C242.134 136.023 241.836 136.364 241.628 136.784C241.42 137.205 241.315 137.655 241.315 138.136V138.909C241.315 139.568 241.429 140.127 241.656 140.585C241.887 141.04 242.207 141.386 242.616 141.625C243.026 141.86 243.501 141.977 244.043 141.977C244.395 141.977 244.713 141.928 244.997 141.83C245.285 141.727 245.533 141.576 245.741 141.375C245.95 141.17 246.111 140.917 246.224 140.614L247.52 140.977C247.384 141.417 247.154 141.803 246.832 142.136C246.51 142.466 246.113 142.723 245.639 142.909C245.166 143.091 244.634 143.182 244.043 143.182ZM249.151 140.773H250.582C250.613 141.167 250.791 141.466 251.116 141.67C251.446 141.875 251.874 141.977 252.401 141.977C252.938 141.977 253.399 141.867 253.781 141.648C254.164 141.424 254.355 141.064 254.355 140.568C254.355 140.277 254.283 140.023 254.139 139.807C253.995 139.587 253.793 139.417 253.531 139.295C253.27 139.174 252.961 139.114 252.605 139.114H251.105V137.909H252.605C253.139 137.909 253.533 137.788 253.787 137.545C254.045 137.303 254.173 137 254.173 136.636C254.173 136.246 254.035 135.934 253.759 135.699C253.482 135.46 253.09 135.341 252.582 135.341C252.071 135.341 251.645 135.456 251.304 135.688C250.963 135.915 250.783 136.208 250.764 136.568H249.355C249.37 136.098 249.514 135.684 249.787 135.324C250.06 134.96 250.431 134.676 250.901 134.472C251.37 134.263 251.908 134.159 252.514 134.159C253.128 134.159 253.66 134.267 254.111 134.483C254.565 134.695 254.916 134.985 255.162 135.352C255.412 135.716 255.537 136.129 255.537 136.591C255.537 137.083 255.399 137.481 255.122 137.784C254.846 138.087 254.499 138.303 254.082 138.432V138.523C254.412 138.545 254.698 138.652 254.94 138.841C255.187 139.027 255.378 139.271 255.514 139.574C255.651 139.873 255.719 140.205 255.719 140.568C255.719 141.098 255.577 141.561 255.293 141.955C255.009 142.345 254.618 142.648 254.122 142.864C253.626 143.076 253.06 143.182 252.423 143.182C251.806 143.182 251.253 143.081 250.764 142.881C250.276 142.676 249.887 142.394 249.599 142.034C249.315 141.67 249.166 141.25 249.151 140.773ZM260.17 143.205C259.617 143.205 259.116 143.1 258.665 142.892C258.214 142.68 257.856 142.375 257.591 141.977C257.326 141.576 257.193 141.091 257.193 140.523C257.193 140.023 257.292 139.617 257.489 139.307C257.686 138.992 257.949 138.746 258.278 138.568C258.608 138.39 258.972 138.258 259.369 138.17C259.771 138.08 260.174 138.008 260.58 137.955C261.11 137.886 261.54 137.835 261.869 137.801C262.203 137.763 262.445 137.701 262.597 137.614C262.752 137.527 262.83 137.375 262.83 137.159V137.114C262.83 136.553 262.676 136.117 262.369 135.807C262.066 135.496 261.606 135.341 260.989 135.341C260.348 135.341 259.847 135.481 259.483 135.761C259.119 136.042 258.864 136.341 258.716 136.659L257.443 136.205C257.67 135.674 257.973 135.261 258.352 134.966C258.735 134.667 259.152 134.458 259.602 134.341C260.057 134.22 260.504 134.159 260.943 134.159C261.223 134.159 261.545 134.193 261.909 134.261C262.277 134.326 262.631 134.46 262.972 134.665C263.316 134.869 263.602 135.178 263.83 135.591C264.057 136.004 264.17 136.557 264.17 137.25V143H262.83V141.818H262.761C262.67 142.008 262.519 142.21 262.307 142.426C262.095 142.642 261.813 142.826 261.46 142.977C261.108 143.129 260.678 143.205 260.17 143.205ZM260.375 142C260.905 142 261.352 141.896 261.716 141.688C262.083 141.479 262.36 141.21 262.545 140.881C262.735 140.551 262.83 140.205 262.83 139.841V138.614C262.773 138.682 262.648 138.744 262.455 138.801C262.265 138.854 262.045 138.902 261.795 138.943C261.549 138.981 261.309 139.015 261.074 139.045C260.843 139.072 260.655 139.095 260.511 139.114C260.163 139.159 259.837 139.233 259.534 139.335C259.235 139.434 258.992 139.583 258.807 139.784C258.625 139.981 258.534 140.25 258.534 140.591C258.534 141.057 258.706 141.409 259.051 141.648C259.4 141.883 259.841 142 260.375 142ZM265.43 135.523V134.273H272.521V135.523H269.658V143H268.317V135.523H265.43ZM275.636 137.432H278.136C279.159 137.432 279.941 137.691 280.483 138.21C281.025 138.729 281.295 139.386 281.295 140.182C281.295 140.705 281.174 141.18 280.932 141.608C280.689 142.032 280.333 142.371 279.864 142.625C279.394 142.875 278.818 143 278.136 143H274.477V134.273H275.818V141.75H278.136C278.667 141.75 279.102 141.61 279.443 141.33C279.784 141.049 279.955 140.689 279.955 140.25C279.955 139.788 279.784 139.411 279.443 139.119C279.102 138.828 278.667 138.682 278.136 138.682H275.636V137.432Z"
        fill="#002033"
      />
    </g>
    <g clip-path="url(#clip3_51_970)">
      <path
        d="M209.023 178.159V176.841H209.75C210.03 176.841 210.265 176.786 210.455 176.676C210.648 176.566 210.807 176.424 210.932 176.25C211.061 176.076 211.167 175.894 211.25 175.705L211.432 175.273L207.409 166.364H208.932L212.136 173.591L215.068 166.364H216.568L212.545 176.114C212.386 176.477 212.205 176.814 212 177.125C211.799 177.436 211.525 177.686 211.176 177.875C210.831 178.064 210.364 178.159 209.773 178.159H209.023ZM217.28 180.5V176.75H218.007C218.185 176.564 218.339 176.364 218.467 176.148C218.596 175.932 218.708 175.676 218.803 175.381C218.901 175.081 218.984 174.718 219.053 174.29C219.121 173.858 219.181 173.337 219.234 172.727L219.53 169.273H225.075V176.75H226.416V180.5H225.075V178H218.621V180.5H217.28ZM219.53 176.75H223.734V170.523H220.78L220.553 172.727C220.458 173.64 220.34 174.437 220.2 175.119C220.06 175.801 219.837 176.345 219.53 176.75ZM230.764 178.205C230.211 178.205 229.709 178.1 229.259 177.892C228.808 177.68 228.45 177.375 228.185 176.977C227.92 176.576 227.787 176.091 227.787 175.523C227.787 175.023 227.885 174.617 228.082 174.307C228.279 173.992 228.543 173.746 228.872 173.568C229.202 173.39 229.565 173.258 229.963 173.17C230.365 173.08 230.768 173.008 231.173 172.955C231.704 172.886 232.134 172.835 232.463 172.801C232.796 172.763 233.039 172.701 233.19 172.614C233.346 172.527 233.423 172.375 233.423 172.159V172.114C233.423 171.553 233.27 171.117 232.963 170.807C232.66 170.496 232.2 170.341 231.582 170.341C230.942 170.341 230.44 170.481 230.077 170.761C229.713 171.042 229.457 171.341 229.31 171.659L228.037 171.205C228.264 170.674 228.567 170.261 228.946 169.966C229.329 169.667 229.745 169.458 230.196 169.341C230.651 169.22 231.098 169.159 231.537 169.159C231.817 169.159 232.139 169.193 232.503 169.261C232.87 169.326 233.224 169.46 233.565 169.665C233.91 169.869 234.196 170.178 234.423 170.591C234.651 171.004 234.764 171.557 234.764 172.25V178H233.423V176.818H233.355C233.264 177.008 233.113 177.21 232.901 177.426C232.688 177.642 232.406 177.826 232.054 177.977C231.702 178.129 231.272 178.205 230.764 178.205ZM230.969 177C231.499 177 231.946 176.896 232.31 176.688C232.677 176.479 232.954 176.21 233.139 175.881C233.329 175.551 233.423 175.205 233.423 174.841V173.614C233.366 173.682 233.241 173.744 233.048 173.801C232.859 173.854 232.639 173.902 232.389 173.943C232.143 173.981 231.902 174.015 231.668 174.045C231.437 174.072 231.249 174.095 231.105 174.114C230.757 174.159 230.431 174.233 230.128 174.335C229.829 174.434 229.586 174.583 229.401 174.784C229.219 174.981 229.128 175.25 229.128 175.591C229.128 176.057 229.3 176.409 229.645 176.648C229.993 176.883 230.435 177 230.969 177ZM236.439 178V176.75H236.757C237.018 176.75 237.236 176.699 237.411 176.597C237.585 176.491 237.725 176.307 237.831 176.045C237.941 175.78 238.024 175.413 238.081 174.943C238.142 174.47 238.185 173.867 238.212 173.136L238.371 169.273H244.189V178H242.848V170.523H239.643L239.507 173.636C239.477 174.352 239.412 174.983 239.314 175.528C239.219 176.07 239.073 176.525 238.876 176.892C238.683 177.259 238.426 177.536 238.104 177.722C237.782 177.907 237.378 178 236.893 178H236.439ZM247.99 176.023L252.195 169.273H253.74V178H252.399V171.25L248.217 178H246.649V169.273H247.99V176.023ZM255.009 170.523V169.273H262.099V170.523H259.236V178H257.895V170.523H255.009ZM265.214 172.432H267.714C268.737 172.432 269.519 172.691 270.061 173.21C270.603 173.729 270.874 174.386 270.874 175.182C270.874 175.705 270.752 176.18 270.51 176.608C270.268 177.032 269.911 177.371 269.442 177.625C268.972 177.875 268.396 178 267.714 178H264.055V169.273H265.396V176.75H267.714C268.245 176.75 268.68 176.61 269.021 176.33C269.362 176.049 269.533 175.689 269.533 175.25C269.533 174.788 269.362 174.411 269.021 174.119C268.68 173.828 268.245 173.682 267.714 173.682H265.214V172.432Z"
        fill="#002033"
      />
    </g>
  </g>
  <rect
    x="195"
    width="40"
    height="40"
    rx="4"
    fill="#004269"
    fill-opacity="0.07"
  />
  <path
    d="M215 16C216.1 16 217 15.1 217 14C217 12.9 216.1 12 215 12C213.9 12 213 12.9 213 14C213 15.1 213.9 16 215 16ZM215 18C213.9 18 213 18.9 213 20C213 21.1 213.9 22 215 22C216.1 22 217 21.1 217 20C217 18.9 216.1 18 215 18ZM215 24C213.9 24 213 24.9 213 26C213 27.1 213.9 28 215 28C216.1 28 217 27.1 217 26C217 24.9 216.1 24 215 24Z"
    fill="#00395C"
    fill-opacity="0.8"
  />
  <defs>
    <filter
      id="filter0_dd_51_970"
      x="171"
      y="26"
      width="412"
      height="204"
      filterUnits="userSpaceOnUse"
      color-interpolation-filters="sRGB"
    >
      <feFlood flood-opacity="0" result="BackgroundImageFix" />
      <feColorMatrix
        in="SourceAlpha"
        type="matrix"
        values="0 0 0 0 0 0 0 0 0 0 0 0 0 0 0 0 0 0 127 0"
        result="hardAlpha"
      />
      <feOffset dy="8" />
      <feGaussianBlur stdDeviation="12" />
      <feColorMatrix
        type="matrix"
        values="0 0 0 0 0 0 0 0 0 0.12549 0 0 0 0 0.2 0 0 0 0.12 0"
      />
      <feBlend
        mode="normal"
        in2="BackgroundImageFix"
        result="effect1_dropShadow_51_970"
      />
      <feColorMatrix
        in="SourceAlpha"
        type="matrix"
        values="0 0 0 0 0 0 0 0 0 0 0 0 0 0 0 0 0 0 127 0"
        result="hardAlpha"
      />
      <feOffset dy="4" />
      <feGaussianBlur stdDeviation="2" />
      <feColorMatrix
        type="matrix"
        values="0 0 0 0 0 0 0 0 0 0.12549 0 0 0 0 0.2 0 0 0 0.04 0"
      />
      <feBlend
        mode="normal"
        in2="effect1_dropShadow_51_970"
        result="effect2_dropShadow_51_970"
      />
      <feBlend
        mode="normal"
        in="SourceGraphic"
        in2="effect2_dropShadow_51_970"
        result="shape"
      />
    </filter>
    <clipPath id="clip0_51_970">
      <rect
        width="340"
        height="19"
        fill="white"
        transform="translate(207 58)"
      />
    </clipPath>
    <clipPath id="clip1_51_970">
      <rect
        width="340"
        height="19"
        fill="white"
        transform="translate(207 93)"
      />
    </clipPath>
    <clipPath id="clip2_51_970">
      <rect
        width="340"
        height="19"
        fill="white"
        transform="translate(207 128)"
      />
    </clipPath>
    <clipPath id="clip3_51_970">
      <rect
        width="340"
        height="19"
        fill="white"
        transform="translate(207 163)"
      />
    </clipPath>
  </defs>
</svg>
