<svg width="411" height="230" viewBox="0 0 411 230" fill="currentcolor">
  <path
    d="M35.4091 75.8182V71.75H36.1591C36.4167 71.5152 36.6591 71.1837 36.8864 70.7557C37.1174 70.3239 37.3125 69.7481 37.4716 69.0284C37.6345 68.3049 37.7424 67.3864 37.7955 66.2727L38.0455 61.3636H44.9545V71.75H46.2955V75.7955H44.9545V73H36.75V75.8182H35.4091ZM37.8409 71.75H43.6136V62.6136H39.3182L39.1364 66.2727C39.0909 67.1212 39.0114 67.8902 38.8977 68.5795C38.7841 69.2652 38.6383 69.8731 38.4602 70.4034C38.2822 70.9299 38.0758 71.3788 37.8409 71.75ZM51.7884 73.1818C51.0005 73.1818 50.3092 72.9943 49.7145 72.6193C49.1236 72.2443 48.6615 71.7197 48.3281 71.0455C47.9986 70.3712 47.8338 69.5833 47.8338 68.6818C47.8338 67.7727 47.9986 66.9792 48.3281 66.3011C48.6615 65.6231 49.1236 65.0966 49.7145 64.7216C50.3092 64.3466 51.0005 64.1591 51.7884 64.1591C52.5762 64.1591 53.2656 64.3466 53.8565 64.7216C54.4512 65.0966 54.9134 65.6231 55.2429 66.3011C55.5762 66.9792 55.7429 67.7727 55.7429 68.6818C55.7429 69.5833 55.5762 70.3712 55.2429 71.0455C54.9134 71.7197 54.4512 72.2443 53.8565 72.6193C53.2656 72.9943 52.5762 73.1818 51.7884 73.1818ZM51.7884 71.9773C52.3868 71.9773 52.8793 71.8239 53.2656 71.517C53.652 71.2102 53.938 70.8068 54.1236 70.3068C54.3092 69.8068 54.402 69.2652 54.402 68.6818C54.402 68.0985 54.3092 67.5549 54.1236 67.0511C53.938 66.5473 53.652 66.1402 53.2656 65.8295C52.8793 65.5189 52.3868 65.3636 51.7884 65.3636C51.1899 65.3636 50.6974 65.5189 50.3111 65.8295C49.9247 66.1402 49.6387 66.5473 49.4531 67.0511C49.2675 67.5549 49.1747 68.0985 49.1747 68.6818C49.1747 69.2652 49.2675 69.8068 49.4531 70.3068C49.6387 70.8068 49.9247 71.2102 50.3111 71.517C50.6974 71.8239 51.1899 71.9773 51.7884 71.9773ZM64.267 61L64.9489 61.8182C64.6837 62.0758 64.3769 62.2557 64.0284 62.358C63.6799 62.4602 63.286 62.5227 62.8466 62.5455C62.4072 62.5682 61.9186 62.5909 61.3807 62.6136C60.7746 62.6364 60.2727 62.7841 59.875 63.0568C59.4773 63.3295 59.1705 63.7235 58.9545 64.2386C58.7386 64.7538 58.6004 65.3864 58.5398 66.1364H58.6534C58.9489 65.5909 59.358 65.1894 59.8807 64.9318C60.4034 64.6742 60.964 64.5455 61.5625 64.5455C62.2443 64.5455 62.858 64.7045 63.4034 65.0227C63.9489 65.3409 64.3807 65.8125 64.6989 66.4375C65.017 67.0625 65.1761 67.8333 65.1761 68.75C65.1761 69.6629 65.0133 70.4508 64.6875 71.1136C64.3655 71.7765 63.9129 72.2879 63.3295 72.6477C62.75 73.0038 62.0701 73.1818 61.2898 73.1818C60.5095 73.1818 59.8258 72.9981 59.2386 72.6307C58.6515 72.2595 58.1951 71.7102 57.8693 70.983C57.5436 70.2519 57.3807 69.3485 57.3807 68.2727V67.3409C57.3807 65.3977 57.7102 63.9242 58.3693 62.9205C59.0322 61.9167 60.0284 61.3977 61.358 61.3636C61.8277 61.3485 62.2462 61.3447 62.6136 61.3523C62.9811 61.3598 63.3011 61.3428 63.5739 61.3011C63.8466 61.2595 64.0777 61.1591 64.267 61ZM61.2898 71.9773C61.8163 71.9773 62.2689 71.8447 62.6477 71.5795C63.0303 71.3144 63.3239 70.9413 63.5284 70.4602C63.733 69.9754 63.8352 69.4053 63.8352 68.75C63.8352 68.1136 63.7311 67.572 63.5227 67.125C63.3182 66.678 63.0246 66.3371 62.642 66.1023C62.2595 65.8674 61.8011 65.75 61.267 65.75C60.8769 65.75 60.5265 65.8163 60.2159 65.9489C59.9053 66.0814 59.6402 66.2765 59.4205 66.5341C59.2008 66.7917 59.0303 67.1061 58.9091 67.4773C58.7917 67.8485 58.7292 68.2727 58.7216 68.75C58.7216 69.7273 58.9508 70.5095 59.4091 71.0966C59.8674 71.6837 60.4943 71.9773 61.2898 71.9773ZM69.7955 73.2045C69.2424 73.2045 68.7405 73.1004 68.2898 72.892C67.839 72.6799 67.4811 72.375 67.2159 71.9773C66.9508 71.5758 66.8182 71.0909 66.8182 70.5227C66.8182 70.0227 66.9167 69.6174 67.1136 69.3068C67.3106 68.9924 67.5739 68.7462 67.9034 68.5682C68.233 68.3902 68.5966 68.2576 68.9943 68.1705C69.3958 68.0795 69.7992 68.0076 70.2045 67.9545C70.7348 67.8864 71.1648 67.8352 71.4943 67.8011C71.8277 67.7633 72.0701 67.7008 72.2216 67.6136C72.3769 67.5265 72.4545 67.375 72.4545 67.1591V67.1136C72.4545 66.553 72.3011 66.1174 71.9943 65.8068C71.6913 65.4962 71.2311 65.3409 70.6136 65.3409C69.9735 65.3409 69.4716 65.4811 69.108 65.7614C68.7443 66.0417 68.4886 66.3409 68.3409 66.6591L67.0682 66.2045C67.2955 65.6742 67.5985 65.2614 67.9773 64.9659C68.3598 64.6667 68.7765 64.4583 69.2273 64.3409C69.6818 64.2197 70.1288 64.1591 70.5682 64.1591C70.8485 64.1591 71.1705 64.1932 71.5341 64.2614C71.9015 64.3258 72.2557 64.4602 72.5966 64.6648C72.9413 64.8693 73.2273 65.178 73.4545 65.5909C73.6818 66.0038 73.7955 66.5568 73.7955 67.25V73H72.4545V71.8182H72.3864C72.2955 72.0076 72.1439 72.2102 71.9318 72.4261C71.7197 72.642 71.4375 72.8258 71.0852 72.9773C70.733 73.1288 70.303 73.2045 69.7955 73.2045ZM70 72C70.5303 72 70.9773 71.8958 71.3409 71.6875C71.7083 71.4792 71.9848 71.2102 72.1705 70.8807C72.3598 70.5511 72.4545 70.2045 72.4545 69.8409V68.6136C72.3977 68.6818 72.2727 68.7443 72.0795 68.8011C71.8902 68.8542 71.6705 68.9015 71.4205 68.9432C71.1742 68.9811 70.9337 69.0152 70.6989 69.0455C70.4678 69.072 70.2803 69.0947 70.1364 69.1136C69.7879 69.1591 69.4621 69.233 69.1591 69.3352C68.8598 69.4337 68.6174 69.5833 68.4318 69.7841C68.25 69.9811 68.1591 70.25 68.1591 70.5909C68.1591 71.0568 68.3314 71.4091 68.6761 71.6477C69.0246 71.8826 69.4659 72 70 72ZM76.2429 73V64.2727H79.8111C80.7505 64.2727 81.4967 64.4848 82.0497 64.9091C82.6027 65.3333 82.8793 65.8939 82.8793 66.5909C82.8793 67.1212 82.7221 67.5322 82.4077 67.8239C82.0933 68.1117 81.6899 68.3068 81.1974 68.4091C81.5194 68.4545 81.8319 68.5682 82.1349 68.75C82.4418 68.9318 82.6955 69.1818 82.8963 69.5C83.0971 69.8144 83.1974 70.2008 83.1974 70.6591C83.1974 71.1061 83.0838 71.5057 82.8565 71.858C82.6293 72.2102 82.3035 72.4886 81.8793 72.6932C81.455 72.8977 80.9474 73 80.3565 73H76.2429ZM77.5156 71.7727H80.3565C80.8187 71.7727 81.1804 71.6629 81.4418 71.4432C81.7031 71.2235 81.8338 70.9242 81.8338 70.5455C81.8338 70.0947 81.7031 69.7405 81.4418 69.483C81.1804 69.2216 80.8187 69.0909 80.3565 69.0909H77.5156V71.7727ZM77.5156 67.9318H79.8111C80.1709 67.9318 80.4796 67.8826 80.7372 67.7841C80.9948 67.6818 81.1918 67.5379 81.3281 67.3523C81.4683 67.1629 81.5384 66.9394 81.5384 66.6818C81.5384 66.3144 81.3849 66.0265 81.0781 65.8182C80.7713 65.6061 80.349 65.5 79.8111 65.5H77.5156V67.9318ZM86.5682 71.0227L90.7727 64.2727H92.3182V73H90.9773V66.25L86.7955 73H85.2273V64.2727H86.5682V71.0227ZM93.5866 65.5227V64.2727H100.678V65.5227H97.8139V73H96.473V65.5227H93.5866ZM103.793 67.4318H106.293C107.315 67.4318 108.098 67.6913 108.639 68.2102C109.181 68.7292 109.452 69.3864 109.452 70.1818C109.452 70.7045 109.33 71.1799 109.088 71.608C108.846 72.0322 108.49 72.3712 108.02 72.625C107.55 72.875 106.974 73 106.293 73H102.634V64.2727H103.974V71.75H106.293C106.823 71.75 107.259 71.6098 107.599 71.3295C107.94 71.0492 108.111 70.6894 108.111 70.25C108.111 69.7879 107.94 69.411 107.599 69.1193C107.259 68.8277 106.823 68.6818 106.293 68.6818H103.793V67.4318Z"
  />
  <path
    d="M43.25 108L39.25 102.659H37.8182V108H36.4091V96.3636H37.8182V101.409H38.4318L43.0909 96.3636H44.7727L40.0682 101.477L44.9318 108H43.25ZM49.4759 108.182C48.688 108.182 47.9967 107.994 47.402 107.619C46.8111 107.244 46.349 106.72 46.0156 106.045C45.6861 105.371 45.5213 104.583 45.5213 103.682C45.5213 102.773 45.6861 101.979 46.0156 101.301C46.349 100.623 46.8111 100.097 47.402 99.7216C47.9967 99.3466 48.688 99.1591 49.4759 99.1591C50.2637 99.1591 50.9531 99.3466 51.544 99.7216C52.1387 100.097 52.6009 100.623 52.9304 101.301C53.2637 101.979 53.4304 102.773 53.4304 103.682C53.4304 104.583 53.2637 105.371 52.9304 106.045C52.6009 106.72 52.1387 107.244 51.544 107.619C50.9531 107.994 50.2637 108.182 49.4759 108.182ZM49.4759 106.977C50.0743 106.977 50.5668 106.824 50.9531 106.517C51.3395 106.21 51.6255 105.807 51.8111 105.307C51.9967 104.807 52.0895 104.265 52.0895 103.682C52.0895 103.098 51.9967 102.555 51.8111 102.051C51.6255 101.547 51.3395 101.14 50.9531 100.83C50.5668 100.519 50.0743 100.364 49.4759 100.364C48.8774 100.364 48.3849 100.519 47.9986 100.83C47.6122 101.14 47.3262 101.547 47.1406 102.051C46.955 102.555 46.8622 103.098 46.8622 103.682C46.8622 104.265 46.955 104.807 47.1406 105.307C47.3262 105.807 47.6122 106.21 47.9986 106.517C48.3849 106.824 48.8774 106.977 49.4759 106.977ZM55.4773 108V99.2727H62.3409V108H61V100.523H56.8182V108H55.4773ZM66.1307 106.023L70.3352 99.2727H71.8807V108H70.5398V101.25L66.358 108H64.7898V99.2727H66.1307V106.023ZM74.3366 111.273V99.2727H75.6321V100.659H75.7912C75.8897 100.508 76.026 100.314 76.2003 100.08C76.3783 99.8409 76.6321 99.6288 76.9616 99.4432C77.295 99.2538 77.7457 99.1591 78.3139 99.1591C79.0488 99.1591 79.6965 99.3428 80.2571 99.7102C80.8177 100.078 81.2552 100.598 81.5696 101.273C81.884 101.947 82.0412 102.742 82.0412 103.659C82.0412 104.583 81.884 105.384 81.5696 106.062C81.2552 106.737 80.8196 107.259 80.2628 107.631C79.706 107.998 79.0639 108.182 78.3366 108.182C77.776 108.182 77.3272 108.089 76.9901 107.903C76.6529 107.714 76.3935 107.5 76.2116 107.261C76.0298 107.019 75.8897 106.818 75.7912 106.659H75.6776V111.273H74.3366ZM75.6548 103.636C75.6548 104.295 75.7514 104.877 75.9446 105.381C76.1378 105.881 76.42 106.273 76.7912 106.557C77.1624 106.837 77.617 106.977 78.1548 106.977C78.7154 106.977 79.1832 106.83 79.5582 106.534C79.937 106.235 80.2211 105.833 80.4105 105.33C80.6037 104.822 80.7003 104.258 80.7003 103.636C80.7003 103.023 80.6056 102.47 80.4162 101.977C80.2306 101.481 79.9484 101.089 79.5696 100.801C79.1946 100.509 78.723 100.364 78.1548 100.364C77.6094 100.364 77.151 100.502 76.7798 100.778C76.4086 101.051 76.1283 101.434 75.9389 101.926C75.7495 102.415 75.6548 102.985 75.6548 103.636ZM87.6321 108.182C86.8442 108.182 86.1529 107.994 85.5582 107.619C84.9673 107.244 84.5052 106.72 84.1719 106.045C83.8423 105.371 83.6776 104.583 83.6776 103.682C83.6776 102.773 83.8423 101.979 84.1719 101.301C84.5052 100.623 84.9673 100.097 85.5582 99.7216C86.1529 99.3466 86.8442 99.1591 87.6321 99.1591C88.42 99.1591 89.1094 99.3466 89.7003 99.7216C90.295 100.097 90.7571 100.623 91.0866 101.301C91.42 101.979 91.5866 102.773 91.5866 103.682C91.5866 104.583 91.42 105.371 91.0866 106.045C90.7571 106.72 90.295 107.244 89.7003 107.619C89.1094 107.994 88.42 108.182 87.6321 108.182ZM87.6321 106.977C88.2306 106.977 88.723 106.824 89.1094 106.517C89.4957 106.21 89.7817 105.807 89.9673 105.307C90.1529 104.807 90.2457 104.265 90.2457 103.682C90.2457 103.098 90.1529 102.555 89.9673 102.051C89.7817 101.547 89.4957 101.14 89.1094 100.83C88.723 100.519 88.2306 100.364 87.6321 100.364C87.0336 100.364 86.5412 100.519 86.1548 100.83C85.7685 101.14 85.4825 101.547 85.2969 102.051C85.1113 102.555 85.0185 103.098 85.0185 103.682C85.0185 104.265 85.1113 104.807 85.2969 105.307C85.4825 105.807 85.7685 106.21 86.1548 106.517C86.5412 106.824 87.0336 106.977 87.6321 106.977ZM93.6335 108V99.2727H97.2017C98.1411 99.2727 98.8873 99.4848 99.4403 99.9091C99.9934 100.333 100.27 100.894 100.27 101.591C100.27 102.121 100.113 102.532 99.7983 102.824C99.4839 103.112 99.0805 103.307 98.5881 103.409C98.91 103.455 99.2225 103.568 99.5256 103.75C99.8324 103.932 100.086 104.182 100.287 104.5C100.488 104.814 100.588 105.201 100.588 105.659C100.588 106.106 100.474 106.506 100.247 106.858C100.02 107.21 99.6941 107.489 99.2699 107.693C98.8456 107.898 98.3381 108 97.7472 108H93.6335ZM94.9062 106.773H97.7472C98.2093 106.773 98.571 106.663 98.8324 106.443C99.0938 106.223 99.2244 105.924 99.2244 105.545C99.2244 105.095 99.0938 104.741 98.8324 104.483C98.571 104.222 98.2093 104.091 97.7472 104.091H94.9062V106.773ZM94.9062 102.932H97.2017C97.5616 102.932 97.8703 102.883 98.1278 102.784C98.3854 102.682 98.5824 102.538 98.7188 102.352C98.8589 102.163 98.929 101.939 98.929 101.682C98.929 101.314 98.7756 101.027 98.4688 100.818C98.1619 100.606 97.7396 100.5 97.2017 100.5H94.9062V102.932ZM105.186 108.205C104.633 108.205 104.131 108.1 103.68 107.892C103.23 107.68 102.872 107.375 102.607 106.977C102.341 106.576 102.209 106.091 102.209 105.523C102.209 105.023 102.307 104.617 102.504 104.307C102.701 103.992 102.964 103.746 103.294 103.568C103.624 103.39 103.987 103.258 104.385 103.17C104.786 103.08 105.19 103.008 105.595 102.955C106.125 102.886 106.555 102.835 106.885 102.801C107.218 102.763 107.461 102.701 107.612 102.614C107.768 102.527 107.845 102.375 107.845 102.159V102.114C107.845 101.553 107.692 101.117 107.385 100.807C107.082 100.496 106.622 100.341 106.004 100.341C105.364 100.341 104.862 100.481 104.499 100.761C104.135 101.042 103.879 101.341 103.732 101.659L102.459 101.205C102.686 100.674 102.989 100.261 103.368 99.9659C103.75 99.6667 104.167 99.4583 104.618 99.3409C105.072 99.2197 105.519 99.1591 105.959 99.1591C106.239 99.1591 106.561 99.1932 106.925 99.2614C107.292 99.3258 107.646 99.4602 107.987 99.6648C108.332 99.8693 108.618 100.178 108.845 100.591C109.072 101.004 109.186 101.557 109.186 102.25V108H107.845V106.818H107.777C107.686 107.008 107.535 107.21 107.322 107.426C107.11 107.642 106.828 107.826 106.476 107.977C106.124 108.129 105.694 108.205 105.186 108.205ZM105.391 107C105.921 107 106.368 106.896 106.732 106.688C107.099 106.479 107.375 106.21 107.561 105.881C107.75 105.551 107.845 105.205 107.845 104.841V103.614C107.788 103.682 107.663 103.744 107.47 103.801C107.281 103.854 107.061 103.902 106.811 103.943C106.565 103.981 106.324 104.015 106.089 104.045C105.858 104.072 105.671 104.095 105.527 104.114C105.179 104.159 104.853 104.233 104.55 104.335C104.25 104.434 104.008 104.583 103.822 104.784C103.641 104.981 103.55 105.25 103.55 105.591C103.55 106.057 103.722 106.409 104.067 106.648C104.415 106.883 104.857 107 105.391 107ZM110.446 100.523V99.2727H117.537V100.523H114.673V108H113.332V100.523H110.446ZM120.652 102.432H123.152C124.175 102.432 124.957 102.691 125.499 103.21C126.04 103.729 126.311 104.386 126.311 105.182C126.311 105.705 126.19 106.18 125.947 106.608C125.705 107.032 125.349 107.371 124.879 107.625C124.41 107.875 123.834 108 123.152 108H119.493V99.2727H120.834V106.75H123.152C123.682 106.75 124.118 106.61 124.459 106.33C124.8 106.049 124.97 105.689 124.97 105.25C124.97 104.788 124.8 104.411 124.459 104.119C124.118 103.828 123.682 103.682 123.152 103.682H120.652V102.432Z"
  />

  <path
    d="M36.4091 143V131.364H40.4773C41.2879 131.364 41.9564 131.504 42.483 131.784C43.0095 132.061 43.4015 132.434 43.6591 132.903C43.9167 133.369 44.0455 133.886 44.0455 134.455C44.0455 134.955 43.9564 135.367 43.7784 135.693C43.6042 136.019 43.3731 136.277 43.0852 136.466C42.8011 136.655 42.4924 136.795 42.1591 136.886V137C42.5152 137.023 42.8731 137.148 43.233 137.375C43.5928 137.602 43.8939 137.928 44.1364 138.352C44.3788 138.777 44.5 139.295 44.5 139.909C44.5 140.492 44.3674 141.017 44.1023 141.483C43.8371 141.949 43.4186 142.318 42.8466 142.591C42.2746 142.864 41.5303 143 40.6136 143H36.4091ZM37.8182 141.75H40.6136C41.5341 141.75 42.1875 141.572 42.5739 141.216C42.964 140.856 43.1591 140.42 43.1591 139.909C43.1591 139.515 43.0587 139.152 42.858 138.818C42.6572 138.481 42.3712 138.212 42 138.011C41.6288 137.807 41.1894 137.705 40.6818 137.705H37.8182V141.75ZM37.8182 136.477H40.4318C40.8561 136.477 41.2386 136.394 41.5795 136.227C41.9242 136.061 42.197 135.826 42.3977 135.523C42.6023 135.22 42.7045 134.864 42.7045 134.455C42.7045 133.943 42.5265 133.509 42.1705 133.153C41.8144 132.794 41.25 132.614 40.4773 132.614H37.8182V136.477ZM47.7926 137.432H50.2926C51.3153 137.432 52.0975 137.691 52.6392 138.21C53.1809 138.729 53.4517 139.386 53.4517 140.182C53.4517 140.705 53.3305 141.18 53.0881 141.608C52.8456 142.032 52.4896 142.371 52.0199 142.625C51.5502 142.875 50.9744 143 50.2926 143H46.6335V134.273H47.9744V141.75H50.2926C50.8229 141.75 51.2585 141.61 51.5994 141.33C51.9403 141.049 52.1108 140.689 52.1108 140.25C52.1108 139.788 51.9403 139.411 51.5994 139.119C51.2585 138.828 50.8229 138.682 50.2926 138.682H47.7926V137.432ZM54.8381 143V134.273H56.179V143H54.8381ZM58.6335 146.273V134.273H59.929V135.659H60.0881C60.1866 135.508 60.3229 135.314 60.4972 135.08C60.6752 134.841 60.929 134.629 61.2585 134.443C61.5919 134.254 62.0426 134.159 62.6108 134.159C63.3456 134.159 63.9934 134.343 64.554 134.71C65.1146 135.078 65.5521 135.598 65.8665 136.273C66.1809 136.947 66.3381 137.742 66.3381 138.659C66.3381 139.583 66.1809 140.384 65.8665 141.062C65.5521 141.737 65.1165 142.259 64.5597 142.631C64.0028 142.998 63.3608 143.182 62.6335 143.182C62.0729 143.182 61.6241 143.089 61.2869 142.903C60.9498 142.714 60.6903 142.5 60.5085 142.261C60.3267 142.019 60.1866 141.818 60.0881 141.659H59.9744V146.273H58.6335ZM59.9517 138.636C59.9517 139.295 60.0483 139.877 60.2415 140.381C60.4347 140.881 60.7169 141.273 61.0881 141.557C61.4593 141.837 61.9138 141.977 62.4517 141.977C63.0123 141.977 63.4801 141.83 63.8551 141.534C64.2339 141.235 64.518 140.833 64.7074 140.33C64.9006 139.822 64.9972 139.258 64.9972 138.636C64.9972 138.023 64.9025 137.47 64.7131 136.977C64.5275 136.481 64.2453 136.089 63.8665 135.801C63.4915 135.509 63.0199 135.364 62.4517 135.364C61.9063 135.364 61.4479 135.502 61.0767 135.778C60.7055 136.051 60.4252 136.434 60.2358 136.926C60.0464 137.415 59.9517 137.985 59.9517 138.636ZM72.0426 143.182C71.2017 143.182 70.4763 142.996 69.8665 142.625C69.2604 142.25 68.7926 141.727 68.4631 141.057C68.1373 140.383 67.9744 139.598 67.9744 138.705C67.9744 137.811 68.1373 137.023 68.4631 136.341C68.7926 135.655 69.2509 135.121 69.8381 134.739C70.429 134.352 71.1184 134.159 71.9062 134.159C72.3608 134.159 72.8097 134.235 73.2528 134.386C73.696 134.538 74.0994 134.784 74.4631 135.125C74.8267 135.462 75.1165 135.909 75.3324 136.466C75.5483 137.023 75.6562 137.708 75.6562 138.523V139.091H68.929V137.932H74.2926C74.2926 137.439 74.1941 137 73.9972 136.614C73.804 136.227 73.5275 135.922 73.1676 135.699C72.8116 135.475 72.3911 135.364 71.9062 135.364C71.3722 135.364 70.91 135.496 70.5199 135.761C70.1335 136.023 69.8362 136.364 69.6278 136.784C69.4195 137.205 69.3153 137.655 69.3153 138.136V138.909C69.3153 139.568 69.429 140.127 69.6562 140.585C69.8873 141.04 70.2074 141.386 70.6165 141.625C71.0256 141.86 71.5009 141.977 72.0426 141.977C72.3949 141.977 72.7131 141.928 72.9972 141.83C73.285 141.727 73.5331 141.576 73.7415 141.375C73.9498 141.17 74.1108 140.917 74.2244 140.614L75.5199 140.977C75.3835 141.417 75.1544 141.803 74.8324 142.136C74.5104 142.466 74.1127 142.723 73.6392 142.909C73.1657 143.091 72.6335 143.182 72.0426 143.182ZM77.1506 140.773H78.5824C78.6127 141.167 78.7907 141.466 79.1165 141.67C79.446 141.875 79.8741 141.977 80.4006 141.977C80.9384 141.977 81.3987 141.867 81.7812 141.648C82.1638 141.424 82.3551 141.064 82.3551 140.568C82.3551 140.277 82.2831 140.023 82.1392 139.807C81.9953 139.587 81.7926 139.417 81.5312 139.295C81.2699 139.174 80.9612 139.114 80.6051 139.114H79.1051V137.909H80.6051C81.1392 137.909 81.5331 137.788 81.7869 137.545C82.0445 137.303 82.1733 137 82.1733 136.636C82.1733 136.246 82.035 135.934 81.7585 135.699C81.482 135.46 81.09 135.341 80.5824 135.341C80.071 135.341 79.6449 135.456 79.304 135.688C78.9631 135.915 78.7831 136.208 78.7642 136.568H77.3551C77.3703 136.098 77.5142 135.684 77.7869 135.324C78.0597 134.96 78.4309 134.676 78.9006 134.472C79.3703 134.263 79.9081 134.159 80.5142 134.159C81.1278 134.159 81.66 134.267 82.1108 134.483C82.5653 134.695 82.9157 134.985 83.1619 135.352C83.4119 135.716 83.5369 136.129 83.5369 136.591C83.5369 137.083 83.3987 137.481 83.1222 137.784C82.8456 138.087 82.4991 138.303 82.0824 138.432V138.523C82.4119 138.545 82.6979 138.652 82.9403 138.841C83.1866 139.027 83.3778 139.271 83.5142 139.574C83.6506 139.873 83.7188 140.205 83.7188 140.568C83.7188 141.098 83.5767 141.561 83.2926 141.955C83.0085 142.345 82.6184 142.648 82.1222 142.864C81.6259 143.076 81.0597 143.182 80.4233 143.182C79.8059 143.182 79.2528 143.081 78.7642 142.881C78.2756 142.676 77.8873 142.394 77.5994 142.034C77.3153 141.67 77.1657 141.25 77.1506 140.773ZM88.1705 143.205C87.6174 143.205 87.1155 143.1 86.6648 142.892C86.214 142.68 85.8561 142.375 85.5909 141.977C85.3258 141.576 85.1932 141.091 85.1932 140.523C85.1932 140.023 85.2917 139.617 85.4886 139.307C85.6856 138.992 85.9489 138.746 86.2784 138.568C86.608 138.39 86.9716 138.258 87.3693 138.17C87.7708 138.08 88.1742 138.008 88.5795 137.955C89.1098 137.886 89.5398 137.835 89.8693 137.801C90.2027 137.763 90.4451 137.701 90.5966 137.614C90.7519 137.527 90.8295 137.375 90.8295 137.159V137.114C90.8295 136.553 90.6761 136.117 90.3693 135.807C90.0663 135.496 89.6061 135.341 88.9886 135.341C88.3485 135.341 87.8466 135.481 87.483 135.761C87.1193 136.042 86.8636 136.341 86.7159 136.659L85.4432 136.205C85.6705 135.674 85.9735 135.261 86.3523 134.966C86.7348 134.667 87.1515 134.458 87.6023 134.341C88.0568 134.22 88.5038 134.159 88.9432 134.159C89.2235 134.159 89.5455 134.193 89.9091 134.261C90.2765 134.326 90.6307 134.46 90.9716 134.665C91.3163 134.869 91.6023 135.178 91.8295 135.591C92.0568 136.004 92.1705 136.557 92.1705 137.25V143H90.8295V141.818H90.7614C90.6705 142.008 90.5189 142.21 90.3068 142.426C90.0947 142.642 89.8125 142.826 89.4602 142.977C89.108 143.129 88.678 143.205 88.1705 143.205ZM88.375 142C88.9053 142 89.3523 141.896 89.7159 141.688C90.0833 141.479 90.3598 141.21 90.5455 140.881C90.7348 140.551 90.8295 140.205 90.8295 139.841V138.614C90.7727 138.682 90.6477 138.744 90.4545 138.801C90.2652 138.854 90.0455 138.902 89.7955 138.943C89.5492 138.981 89.3087 139.015 89.0739 139.045C88.8428 139.072 88.6553 139.095 88.5114 139.114C88.1629 139.159 87.8371 139.233 87.5341 139.335C87.2348 139.434 86.9924 139.583 86.8068 139.784C86.625 139.981 86.5341 140.25 86.5341 140.591C86.5341 141.057 86.7064 141.409 87.0511 141.648C87.3996 141.883 87.8409 142 88.375 142ZM93.4304 135.523V134.273H100.521V135.523H97.6577V143H96.3168V135.523H93.4304ZM103.636 137.432H106.136C107.159 137.432 107.941 137.691 108.483 138.21C109.025 138.729 109.295 139.386 109.295 140.182C109.295 140.705 109.174 141.18 108.932 141.608C108.689 142.032 108.333 142.371 107.864 142.625C107.394 142.875 106.818 143 106.136 143H102.477V134.273H103.818V141.75H106.136C106.667 141.75 107.102 141.61 107.443 141.33C107.784 141.049 107.955 140.689 107.955 140.25C107.955 139.788 107.784 139.411 107.443 139.119C107.102 138.828 106.667 138.682 106.136 138.682H103.636V137.432Z"
  />

  <path
    d="M37.0227 178.159V176.841H37.75C38.0303 176.841 38.2652 176.786 38.4545 176.676C38.6477 176.566 38.8068 176.424 38.9318 176.25C39.0606 176.076 39.1667 175.894 39.25 175.705L39.4318 175.273L35.4091 166.364H36.9318L40.1364 173.591L43.0682 166.364H44.5682L40.5455 176.114C40.3864 176.477 40.2045 176.814 40 177.125C39.7992 177.436 39.5246 177.686 39.1761 177.875C38.8314 178.064 38.3636 178.159 37.7727 178.159H37.0227ZM45.2798 180.5V176.75H46.0071C46.1851 176.564 46.3385 176.364 46.4673 176.148C46.5961 175.932 46.7079 175.676 46.8026 175.381C46.901 175.081 46.9844 174.718 47.0526 174.29C47.1207 173.858 47.1813 173.337 47.2344 172.727L47.5298 169.273H53.0753V176.75H54.4162V180.5H53.0753V178H46.6207V180.5H45.2798ZM47.5298 176.75H51.7344V170.523H48.7798L48.5526 172.727C48.4579 173.64 48.3404 174.437 48.2003 175.119C48.0601 175.801 47.8366 176.345 47.5298 176.75ZM58.7642 178.205C58.2112 178.205 57.7093 178.1 57.2585 177.892C56.8078 177.68 56.4498 177.375 56.1847 176.977C55.9195 176.576 55.7869 176.091 55.7869 175.523C55.7869 175.023 55.8854 174.617 56.0824 174.307C56.2794 173.992 56.5426 173.746 56.8722 173.568C57.2017 173.39 57.5653 173.258 57.9631 173.17C58.3646 173.08 58.768 173.008 59.1733 172.955C59.7036 172.886 60.1335 172.835 60.4631 172.801C60.7964 172.763 61.0388 172.701 61.1903 172.614C61.3456 172.527 61.4233 172.375 61.4233 172.159V172.114C61.4233 171.553 61.2699 171.117 60.9631 170.807C60.66 170.496 60.1998 170.341 59.5824 170.341C58.9422 170.341 58.4403 170.481 58.0767 170.761C57.7131 171.042 57.4574 171.341 57.3097 171.659L56.0369 171.205C56.2642 170.674 56.5672 170.261 56.946 169.966C57.3286 169.667 57.7453 169.458 58.196 169.341C58.6506 169.22 59.0975 169.159 59.5369 169.159C59.8172 169.159 60.1392 169.193 60.5028 169.261C60.8703 169.326 61.2244 169.46 61.5653 169.665C61.91 169.869 62.196 170.178 62.4233 170.591C62.6506 171.004 62.7642 171.557 62.7642 172.25V178H61.4233V176.818H61.3551C61.2642 177.008 61.1127 177.21 60.9006 177.426C60.6884 177.642 60.4063 177.826 60.054 177.977C59.7017 178.129 59.2718 178.205 58.7642 178.205ZM58.9688 177C59.4991 177 59.946 176.896 60.3097 176.688C60.6771 176.479 60.9536 176.21 61.1392 175.881C61.3286 175.551 61.4233 175.205 61.4233 174.841V173.614C61.3665 173.682 61.2415 173.744 61.0483 173.801C60.8589 173.854 60.6392 173.902 60.3892 173.943C60.143 173.981 59.9025 174.015 59.6676 174.045C59.4366 174.072 59.2491 174.095 59.1051 174.114C58.7566 174.159 58.4309 174.233 58.1278 174.335C57.8286 174.434 57.5862 174.583 57.4006 174.784C57.2188 174.981 57.1278 175.25 57.1278 175.591C57.1278 176.057 57.3002 176.409 57.6449 176.648C57.9934 176.883 58.4347 177 58.9688 177ZM64.4389 178V176.75H64.7571C65.0185 176.75 65.2363 176.699 65.4105 176.597C65.5848 176.491 65.7249 176.307 65.831 176.045C65.9408 175.78 66.0241 175.413 66.081 174.943C66.1416 174.47 66.1851 173.867 66.2116 173.136L66.3707 169.273H72.1889V178H70.848V170.523H67.6435L67.5071 173.636C67.4768 174.352 67.4124 174.983 67.3139 175.528C67.2192 176.07 67.0734 176.525 66.8764 176.892C66.6832 177.259 66.4257 177.536 66.1037 177.722C65.7817 177.907 65.3783 178 64.8935 178H64.4389ZM75.9901 176.023L80.1946 169.273H81.7401V178H80.3991V171.25L76.2173 178H74.6491V169.273H75.9901V176.023ZM83.0085 170.523V169.273H90.0994V170.523H87.2358V178H85.8949V170.523H83.0085ZM93.2145 172.432H95.7145C96.7372 172.432 97.5194 172.691 98.0611 173.21C98.6027 173.729 98.8736 174.386 98.8736 175.182C98.8736 175.705 98.7524 176.18 98.5099 176.608C98.2675 177.032 97.9115 177.371 97.4418 177.625C96.9721 177.875 96.3963 178 95.7145 178H92.0554V169.273H93.3963V176.75H95.7145C96.2448 176.75 96.6804 176.61 97.0213 176.33C97.3622 176.049 97.5327 175.689 97.5327 175.25C97.5327 174.788 97.3622 174.411 97.0213 174.119C96.6804 173.828 96.2448 173.682 95.7145 173.682H93.2145V172.432Z"
  />

  <path
    d="M43 16C44.1 16 45 15.1 45 14C45 12.9 44.1 12 43 12C41.9 12 41 12.9 41 14C41 15.1 41.9 16 43 16ZM43 18C41.9 18 41 18.9 41 20C41 21.1 41.9 22 43 22C44.1 22 45 21.1 45 20C45 18.9 44.1 18 43 18ZM43 24C41.9 24 41 24.9 41 26C41 27.1 41.9 28 43 28C44.1 28 45 27.1 45 26C45 24.9 44.1 24 43 24Z"
  />
</svg>
