<svg
  width="818"
  height="413"
  viewBox="0 0 818 413"
  fill="none"
  xmlns="http://www.w3.org/2000/svg"
>
  <g clip-path="url(#clip0_55_840)">
    <g filter="url(#filter0_dd_55_840)">
      <rect x="191" y="58" width="364" height="339" rx="4" fill="white" />
      <rect
        x="191.5"
        y="58.5"
        width="363"
        height="338"
        rx="3.5"
        stroke="#004269"
        stroke-opacity="0.28"
      />
      <path
        d="M203.307 95.1136V92.0625H203.869C204.063 91.8864 204.244 91.6378 204.415 91.3168C204.588 90.9929 204.734 90.5611 204.854 90.0213C204.976 89.4787 205.057 88.7898 205.097 87.9545L205.284 84.2727H210.466V92.0625H211.472V95.0966H210.466V93H204.312V95.1136H203.307ZM205.131 92.0625H209.46V85.2102H206.239L206.102 87.9545C206.068 88.5909 206.009 89.1676 205.923 89.6847C205.838 90.1989 205.729 90.6548 205.595 91.0526C205.462 91.4474 205.307 91.7841 205.131 92.0625ZM213.669 93V84.2727H218.936V85.2102H214.725V88.1591H218.663V89.0966H214.725V92.0625H219.004V93H213.669ZM221.44 84.2727H222.48V91.142H222.565L227.338 84.2727H228.361V93H227.304V86.1477H227.219L222.463 93H221.44V84.2727ZM225.736 82.0909H226.673C226.673 82.5511 226.514 82.9276 226.196 83.2202C225.878 83.5128 225.446 83.6591 224.901 83.6591C224.364 83.6591 223.936 83.5128 223.618 83.2202C223.303 82.9276 223.145 82.5511 223.145 82.0909H224.082C224.082 82.3125 224.144 82.5071 224.266 82.6747C224.391 82.8423 224.602 82.9261 224.901 82.9261C225.199 82.9261 225.412 82.8423 225.54 82.6747C225.671 82.5071 225.736 82.3125 225.736 82.0909ZM238.098 87H237.041C236.979 86.696 236.87 86.429 236.713 86.1989C236.56 85.9688 236.372 85.7756 236.151 85.6193C235.932 85.4602 235.689 85.3409 235.422 85.2614C235.155 85.1818 234.877 85.142 234.587 85.142C234.059 85.142 233.58 85.2756 233.151 85.5426C232.725 85.8097 232.385 86.2031 232.132 86.723C231.882 87.2429 231.757 87.8807 231.757 88.6364C231.757 89.392 231.882 90.0298 232.132 90.5497C232.385 91.0696 232.725 91.4631 233.151 91.7301C233.58 91.9972 234.059 92.1307 234.587 92.1307C234.877 92.1307 235.155 92.0909 235.422 92.0114C235.689 91.9318 235.932 91.8139 236.151 91.6577C236.372 91.4986 236.56 91.304 236.713 91.0739C236.87 90.8409 236.979 90.5739 237.041 90.2727H238.098C238.019 90.7187 237.874 91.1179 237.664 91.4702C237.453 91.8224 237.192 92.1222 236.88 92.3693C236.567 92.6136 236.216 92.7997 235.827 92.9276C235.441 93.0554 235.027 93.1193 234.587 93.1193C233.843 93.1193 233.181 92.9375 232.601 92.5739C232.022 92.2102 231.566 91.6932 231.233 91.0227C230.901 90.3523 230.735 89.5568 230.735 88.6364C230.735 87.7159 230.901 86.9205 231.233 86.25C231.566 85.5795 232.022 85.0625 232.601 84.6989C233.181 84.3352 233.843 84.1534 234.587 84.1534C235.027 84.1534 235.441 84.2173 235.827 84.3452C236.216 84.473 236.567 84.6605 236.88 84.9077C237.192 85.152 237.453 85.4503 237.664 85.8026C237.874 86.152 238.019 86.5511 238.098 87ZM239.929 85.2102V84.2727H246.474V85.2102H243.73V93H242.673V85.2102H239.929ZM248.705 93V84.2727H251.756C252.364 84.2727 252.866 84.3778 253.261 84.5881C253.656 84.7955 253.95 85.0753 254.143 85.4276C254.336 85.777 254.433 86.1648 254.433 86.5909C254.433 86.9659 254.366 87.2756 254.232 87.5199C254.102 87.7642 253.928 87.9574 253.712 88.0994C253.499 88.2415 253.268 88.3466 253.018 88.4148V88.5C253.285 88.517 253.553 88.6108 253.823 88.7812C254.093 88.9517 254.319 89.196 254.501 89.5142C254.683 89.8324 254.773 90.2216 254.773 90.6818C254.773 91.1193 254.674 91.5128 254.475 91.8622C254.276 92.2116 253.962 92.4886 253.533 92.6932C253.104 92.8977 252.546 93 251.859 93H248.705ZM249.762 92.0625H251.859C252.549 92.0625 253.039 91.929 253.329 91.6619C253.621 91.392 253.768 91.0653 253.768 90.6818C253.768 90.3864 253.692 90.1136 253.542 89.8636C253.391 89.6108 253.177 89.4091 252.898 89.2585C252.62 89.1051 252.29 89.0284 251.91 89.0284H249.762V92.0625ZM249.762 88.108H251.722C252.04 88.108 252.327 88.0455 252.583 87.9205C252.842 87.7955 253.046 87.6193 253.197 87.392C253.35 87.1648 253.427 86.8977 253.427 86.5909C253.427 86.2074 253.293 85.8821 253.026 85.6151C252.759 85.3452 252.336 85.2102 251.756 85.2102H249.762V88.108ZM257.11 84.2727H258.15V91.142H258.235L263.008 84.2727H264.03V93H262.974V86.1477H262.888L258.133 93H257.11V84.2727ZM272.677 93H271.62V85.2102H269.762C269.291 85.2102 268.911 85.2827 268.624 85.4276C268.337 85.5696 268.129 85.7713 267.998 86.0327C267.867 86.294 267.802 86.5994 267.802 86.9489C267.802 87.2983 267.866 87.5994 267.994 87.8523C268.124 88.1023 268.332 88.2955 268.616 88.4318C268.903 88.5682 269.279 88.6364 269.745 88.6364H272.097V89.5909H269.711C269.035 89.5909 268.479 89.4787 268.045 89.2543C267.61 89.027 267.288 88.7145 267.077 88.3168C266.867 87.919 266.762 87.4631 266.762 86.9489C266.762 86.4347 266.867 85.9759 267.077 85.5724C267.288 85.169 267.612 84.8523 268.049 84.6222C268.487 84.3892 269.046 84.2727 269.728 84.2727H272.677V93ZM268.569 89.0795H269.762L267.649 93H266.421L268.569 89.0795Z"
        fill="#002033"
        fill-opacity="0.6"
      />
      <path
        fill-rule="evenodd"
        clip-rule="evenodd"
        d="M543 105H203V104H543V105Z"
        fill="#004269"
        fill-opacity="0.28"
      />
      <g clip-path="url(#clip1_55_840)">
        <path
          d="M203.409 130.818V126.75H204.159C204.417 126.515 204.659 126.184 204.886 125.756C205.117 125.324 205.312 124.748 205.472 124.028C205.634 123.305 205.742 122.386 205.795 121.273L206.045 116.364H212.955V126.75H214.295V130.795H212.955V128H204.75V130.818H203.409ZM205.841 126.75H211.614V117.614H207.318L207.136 121.273C207.091 122.121 207.011 122.89 206.898 123.58C206.784 124.265 206.638 124.873 206.46 125.403C206.282 125.93 206.076 126.379 205.841 126.75ZM219.788 128.182C219 128.182 218.309 127.994 217.714 127.619C217.124 127.244 216.661 126.72 216.328 126.045C215.999 125.371 215.834 124.583 215.834 123.682C215.834 122.773 215.999 121.979 216.328 121.301C216.661 120.623 217.124 120.097 217.714 119.722C218.309 119.347 219 119.159 219.788 119.159C220.576 119.159 221.266 119.347 221.857 119.722C222.451 120.097 222.913 120.623 223.243 121.301C223.576 121.979 223.743 122.773 223.743 123.682C223.743 124.583 223.576 125.371 223.243 126.045C222.913 126.72 222.451 127.244 221.857 127.619C221.266 127.994 220.576 128.182 219.788 128.182ZM219.788 126.977C220.387 126.977 220.879 126.824 221.266 126.517C221.652 126.21 221.938 125.807 222.124 125.307C222.309 124.807 222.402 124.265 222.402 123.682C222.402 123.098 222.309 122.555 222.124 122.051C221.938 121.547 221.652 121.14 221.266 120.83C220.879 120.519 220.387 120.364 219.788 120.364C219.19 120.364 218.697 120.519 218.311 120.83C217.925 121.14 217.639 121.547 217.453 122.051C217.268 122.555 217.175 123.098 217.175 123.682C217.175 124.265 217.268 124.807 217.453 125.307C217.639 125.807 217.925 126.21 218.311 126.517C218.697 126.824 219.19 126.977 219.788 126.977ZM232.267 116L232.949 116.818C232.684 117.076 232.377 117.256 232.028 117.358C231.68 117.46 231.286 117.523 230.847 117.545C230.407 117.568 229.919 117.591 229.381 117.614C228.775 117.636 228.273 117.784 227.875 118.057C227.477 118.33 227.17 118.723 226.955 119.239C226.739 119.754 226.6 120.386 226.54 121.136H226.653C226.949 120.591 227.358 120.189 227.881 119.932C228.403 119.674 228.964 119.545 229.562 119.545C230.244 119.545 230.858 119.705 231.403 120.023C231.949 120.341 232.381 120.812 232.699 121.438C233.017 122.062 233.176 122.833 233.176 123.75C233.176 124.663 233.013 125.451 232.688 126.114C232.366 126.777 231.913 127.288 231.33 127.648C230.75 128.004 230.07 128.182 229.29 128.182C228.509 128.182 227.826 127.998 227.239 127.631C226.652 127.259 226.195 126.71 225.869 125.983C225.544 125.252 225.381 124.348 225.381 123.273V122.341C225.381 120.398 225.71 118.924 226.369 117.92C227.032 116.917 228.028 116.398 229.358 116.364C229.828 116.348 230.246 116.345 230.614 116.352C230.981 116.36 231.301 116.343 231.574 116.301C231.847 116.259 232.078 116.159 232.267 116ZM229.29 126.977C229.816 126.977 230.269 126.845 230.648 126.58C231.03 126.314 231.324 125.941 231.528 125.46C231.733 124.975 231.835 124.405 231.835 123.75C231.835 123.114 231.731 122.572 231.523 122.125C231.318 121.678 231.025 121.337 230.642 121.102C230.259 120.867 229.801 120.75 229.267 120.75C228.877 120.75 228.527 120.816 228.216 120.949C227.905 121.081 227.64 121.277 227.42 121.534C227.201 121.792 227.03 122.106 226.909 122.477C226.792 122.848 226.729 123.273 226.722 123.75C226.722 124.727 226.951 125.509 227.409 126.097C227.867 126.684 228.494 126.977 229.29 126.977ZM237.795 128.205C237.242 128.205 236.741 128.1 236.29 127.892C235.839 127.68 235.481 127.375 235.216 126.977C234.951 126.576 234.818 126.091 234.818 125.523C234.818 125.023 234.917 124.617 235.114 124.307C235.311 123.992 235.574 123.746 235.903 123.568C236.233 123.39 236.597 123.258 236.994 123.17C237.396 123.08 237.799 123.008 238.205 122.955C238.735 122.886 239.165 122.835 239.494 122.801C239.828 122.763 240.07 122.701 240.222 122.614C240.377 122.527 240.455 122.375 240.455 122.159V122.114C240.455 121.553 240.301 121.117 239.994 120.807C239.691 120.496 239.231 120.341 238.614 120.341C237.973 120.341 237.472 120.481 237.108 120.761C236.744 121.042 236.489 121.341 236.341 121.659L235.068 121.205C235.295 120.674 235.598 120.261 235.977 119.966C236.36 119.667 236.777 119.458 237.227 119.341C237.682 119.22 238.129 119.159 238.568 119.159C238.848 119.159 239.17 119.193 239.534 119.261C239.902 119.326 240.256 119.46 240.597 119.665C240.941 119.869 241.227 120.178 241.455 120.591C241.682 121.004 241.795 121.557 241.795 122.25V128H240.455V126.818H240.386C240.295 127.008 240.144 127.21 239.932 127.426C239.72 127.642 239.438 127.826 239.085 127.977C238.733 128.129 238.303 128.205 237.795 128.205ZM238 127C238.53 127 238.977 126.896 239.341 126.688C239.708 126.479 239.985 126.21 240.17 125.881C240.36 125.551 240.455 125.205 240.455 124.841V123.614C240.398 123.682 240.273 123.744 240.08 123.801C239.89 123.854 239.67 123.902 239.42 123.943C239.174 123.981 238.934 124.015 238.699 124.045C238.468 124.072 238.28 124.095 238.136 124.114C237.788 124.159 237.462 124.233 237.159 124.335C236.86 124.434 236.617 124.583 236.432 124.784C236.25 124.981 236.159 125.25 236.159 125.591C236.159 126.057 236.331 126.409 236.676 126.648C237.025 126.883 237.466 127 238 127ZM244.243 128V119.273H247.811C248.75 119.273 249.497 119.485 250.05 119.909C250.603 120.333 250.879 120.894 250.879 121.591C250.879 122.121 250.722 122.532 250.408 122.824C250.093 123.112 249.69 123.307 249.197 123.409C249.519 123.455 249.832 123.568 250.135 123.75C250.442 123.932 250.696 124.182 250.896 124.5C251.097 124.814 251.197 125.201 251.197 125.659C251.197 126.106 251.084 126.506 250.857 126.858C250.629 127.21 250.304 127.489 249.879 127.693C249.455 127.898 248.947 128 248.357 128H244.243ZM245.516 126.773H248.357C248.819 126.773 249.18 126.663 249.442 126.443C249.703 126.223 249.834 125.924 249.834 125.545C249.834 125.095 249.703 124.741 249.442 124.483C249.18 124.222 248.819 124.091 248.357 124.091H245.516V126.773ZM245.516 122.932H247.811C248.171 122.932 248.48 122.883 248.737 122.784C248.995 122.682 249.192 122.538 249.328 122.352C249.468 122.163 249.538 121.939 249.538 121.682C249.538 121.314 249.385 121.027 249.078 120.818C248.771 120.606 248.349 120.5 247.811 120.5H245.516V122.932ZM254.568 126.023L258.773 119.273H260.318V128H258.977V121.25L254.795 128H253.227V119.273H254.568V126.023ZM261.587 120.523V119.273H268.678V120.523H265.814V128H264.473V120.523H261.587ZM271.793 122.432H274.293C275.315 122.432 276.098 122.691 276.639 123.21C277.181 123.729 277.452 124.386 277.452 125.182C277.452 125.705 277.33 126.18 277.088 126.608C276.846 127.032 276.49 127.371 276.02 127.625C275.55 127.875 274.974 128 274.293 128H270.634V119.273H271.974V126.75H274.293C274.823 126.75 275.259 126.61 275.599 126.33C275.94 126.049 276.111 125.689 276.111 125.25C276.111 124.788 275.94 124.411 275.599 124.119C275.259 123.828 274.823 123.682 274.293 123.682H271.793V122.432Z"
          fill="#002033"
        />
      </g>
      <g clip-path="url(#clip2_55_840)">
        <path
          d="M211.25 163L207.25 157.659H205.818V163H204.409V151.364H205.818V156.409H206.432L211.091 151.364H212.773L208.068 156.477L212.932 163H211.25ZM217.476 163.182C216.688 163.182 215.997 162.994 215.402 162.619C214.811 162.244 214.349 161.72 214.016 161.045C213.686 160.371 213.521 159.583 213.521 158.682C213.521 157.773 213.686 156.979 214.016 156.301C214.349 155.623 214.811 155.097 215.402 154.722C215.997 154.347 216.688 154.159 217.476 154.159C218.264 154.159 218.953 154.347 219.544 154.722C220.139 155.097 220.601 155.623 220.93 156.301C221.264 156.979 221.43 157.773 221.43 158.682C221.43 159.583 221.264 160.371 220.93 161.045C220.601 161.72 220.139 162.244 219.544 162.619C218.953 162.994 218.264 163.182 217.476 163.182ZM217.476 161.977C218.074 161.977 218.567 161.824 218.953 161.517C219.339 161.21 219.625 160.807 219.811 160.307C219.997 159.807 220.089 159.265 220.089 158.682C220.089 158.098 219.997 157.555 219.811 157.051C219.625 156.547 219.339 156.14 218.953 155.83C218.567 155.519 218.074 155.364 217.476 155.364C216.877 155.364 216.385 155.519 215.999 155.83C215.612 156.14 215.326 156.547 215.141 157.051C214.955 157.555 214.862 158.098 214.862 158.682C214.862 159.265 214.955 159.807 215.141 160.307C215.326 160.807 215.612 161.21 215.999 161.517C216.385 161.824 216.877 161.977 217.476 161.977ZM223.477 163V154.273H230.341V163H229V155.523H224.818V163H223.477ZM234.131 161.023L238.335 154.273H239.881V163H238.54V156.25L234.358 163H232.79V154.273H234.131V161.023ZM242.337 166.273V154.273H243.632V155.659H243.791C243.89 155.508 244.026 155.314 244.2 155.08C244.378 154.841 244.632 154.629 244.962 154.443C245.295 154.254 245.746 154.159 246.314 154.159C247.049 154.159 247.696 154.343 248.257 154.71C248.818 155.078 249.255 155.598 249.57 156.273C249.884 156.947 250.041 157.742 250.041 158.659C250.041 159.583 249.884 160.384 249.57 161.062C249.255 161.737 248.82 162.259 248.263 162.631C247.706 162.998 247.064 163.182 246.337 163.182C245.776 163.182 245.327 163.089 244.99 162.903C244.653 162.714 244.393 162.5 244.212 162.261C244.03 162.019 243.89 161.818 243.791 161.659H243.678V166.273H242.337ZM243.655 158.636C243.655 159.295 243.751 159.877 243.945 160.381C244.138 160.881 244.42 161.273 244.791 161.557C245.162 161.837 245.617 161.977 246.155 161.977C246.715 161.977 247.183 161.83 247.558 161.534C247.937 161.235 248.221 160.833 248.411 160.33C248.604 159.822 248.7 159.258 248.7 158.636C248.7 158.023 248.606 157.47 248.416 156.977C248.231 156.481 247.948 156.089 247.57 155.801C247.195 155.509 246.723 155.364 246.155 155.364C245.609 155.364 245.151 155.502 244.78 155.778C244.409 156.051 244.128 156.434 243.939 156.926C243.75 157.415 243.655 157.985 243.655 158.636ZM255.632 163.182C254.844 163.182 254.153 162.994 253.558 162.619C252.967 162.244 252.505 161.72 252.172 161.045C251.842 160.371 251.678 159.583 251.678 158.682C251.678 157.773 251.842 156.979 252.172 156.301C252.505 155.623 252.967 155.097 253.558 154.722C254.153 154.347 254.844 154.159 255.632 154.159C256.42 154.159 257.109 154.347 257.7 154.722C258.295 155.097 258.757 155.623 259.087 156.301C259.42 156.979 259.587 157.773 259.587 158.682C259.587 159.583 259.42 160.371 259.087 161.045C258.757 161.72 258.295 162.244 257.7 162.619C257.109 162.994 256.42 163.182 255.632 163.182ZM255.632 161.977C256.231 161.977 256.723 161.824 257.109 161.517C257.496 161.21 257.782 160.807 257.967 160.307C258.153 159.807 258.246 159.265 258.246 158.682C258.246 158.098 258.153 157.555 257.967 157.051C257.782 156.547 257.496 156.14 257.109 155.83C256.723 155.519 256.231 155.364 255.632 155.364C255.034 155.364 254.541 155.519 254.155 155.83C253.768 156.14 253.482 156.547 253.297 157.051C253.111 157.555 253.018 158.098 253.018 158.682C253.018 159.265 253.111 159.807 253.297 160.307C253.482 160.807 253.768 161.21 254.155 161.517C254.541 161.824 255.034 161.977 255.632 161.977ZM261.634 163V154.273H265.202C266.141 154.273 266.887 154.485 267.44 154.909C267.993 155.333 268.27 155.894 268.27 156.591C268.27 157.121 268.113 157.532 267.798 157.824C267.484 158.112 267.08 158.307 266.588 158.409C266.91 158.455 267.223 158.568 267.526 158.75C267.832 158.932 268.086 159.182 268.287 159.5C268.488 159.814 268.588 160.201 268.588 160.659C268.588 161.106 268.474 161.506 268.247 161.858C268.02 162.21 267.694 162.489 267.27 162.693C266.846 162.898 266.338 163 265.747 163H261.634ZM262.906 161.773H265.747C266.209 161.773 266.571 161.663 266.832 161.443C267.094 161.223 267.224 160.924 267.224 160.545C267.224 160.095 267.094 159.741 266.832 159.483C266.571 159.222 266.209 159.091 265.747 159.091H262.906V161.773ZM262.906 157.932H265.202C265.562 157.932 265.87 157.883 266.128 157.784C266.385 157.682 266.582 157.538 266.719 157.352C266.859 157.163 266.929 156.939 266.929 156.682C266.929 156.314 266.776 156.027 266.469 155.818C266.162 155.606 265.74 155.5 265.202 155.5H262.906V157.932ZM273.186 163.205C272.633 163.205 272.131 163.1 271.68 162.892C271.23 162.68 270.872 162.375 270.607 161.977C270.341 161.576 270.209 161.091 270.209 160.523C270.209 160.023 270.307 159.617 270.504 159.307C270.701 158.992 270.964 158.746 271.294 158.568C271.624 158.39 271.987 158.258 272.385 158.17C272.786 158.08 273.19 158.008 273.595 157.955C274.125 157.886 274.555 157.835 274.885 157.801C275.218 157.763 275.461 157.701 275.612 157.614C275.768 157.527 275.845 157.375 275.845 157.159V157.114C275.845 156.553 275.692 156.117 275.385 155.807C275.082 155.496 274.622 155.341 274.004 155.341C273.364 155.341 272.862 155.481 272.499 155.761C272.135 156.042 271.879 156.341 271.732 156.659L270.459 156.205C270.686 155.674 270.989 155.261 271.368 154.966C271.75 154.667 272.167 154.458 272.618 154.341C273.072 154.22 273.519 154.159 273.959 154.159C274.239 154.159 274.561 154.193 274.925 154.261C275.292 154.326 275.646 154.46 275.987 154.665C276.332 154.869 276.618 155.178 276.845 155.591C277.072 156.004 277.186 156.557 277.186 157.25V163H275.845V161.818H275.777C275.686 162.008 275.535 162.21 275.322 162.426C275.11 162.642 274.828 162.826 274.476 162.977C274.124 163.129 273.694 163.205 273.186 163.205ZM273.391 162C273.921 162 274.368 161.896 274.732 161.688C275.099 161.479 275.375 161.21 275.561 160.881C275.75 160.551 275.845 160.205 275.845 159.841V158.614C275.788 158.682 275.663 158.744 275.47 158.801C275.281 158.854 275.061 158.902 274.811 158.943C274.565 158.981 274.324 159.015 274.089 159.045C273.858 159.072 273.671 159.095 273.527 159.114C273.179 159.159 272.853 159.233 272.55 159.335C272.25 159.434 272.008 159.583 271.822 159.784C271.641 159.981 271.55 160.25 271.55 160.591C271.55 161.057 271.722 161.409 272.067 161.648C272.415 161.883 272.857 162 273.391 162ZM278.446 155.523V154.273H285.537V155.523H282.673V163H281.332V155.523H278.446ZM288.652 157.432H291.152C292.175 157.432 292.957 157.691 293.499 158.21C294.04 158.729 294.311 159.386 294.311 160.182C294.311 160.705 294.19 161.18 293.947 161.608C293.705 162.032 293.349 162.371 292.879 162.625C292.41 162.875 291.834 163 291.152 163H287.493V154.273H288.834V161.75H291.152C291.682 161.75 292.118 161.61 292.459 161.33C292.8 161.049 292.97 160.689 292.97 160.25C292.97 159.788 292.8 159.411 292.459 159.119C292.118 158.828 291.682 158.682 291.152 158.682H288.652V157.432Z"
          fill="#002033"
        />
      </g>
      <g clip-path="url(#clip3_55_840)">
        <path
          d="M204.409 198V186.364H208.477C209.288 186.364 209.956 186.504 210.483 186.784C211.009 187.061 211.402 187.434 211.659 187.903C211.917 188.369 212.045 188.886 212.045 189.455C212.045 189.955 211.956 190.367 211.778 190.693C211.604 191.019 211.373 191.277 211.085 191.466C210.801 191.655 210.492 191.795 210.159 191.886V192C210.515 192.023 210.873 192.148 211.233 192.375C211.593 192.602 211.894 192.928 212.136 193.352C212.379 193.777 212.5 194.295 212.5 194.909C212.5 195.492 212.367 196.017 212.102 196.483C211.837 196.949 211.419 197.318 210.847 197.591C210.275 197.864 209.53 198 208.614 198H204.409ZM205.818 196.75H208.614C209.534 196.75 210.188 196.572 210.574 196.216C210.964 195.856 211.159 195.42 211.159 194.909C211.159 194.515 211.059 194.152 210.858 193.818C210.657 193.481 210.371 193.212 210 193.011C209.629 192.807 209.189 192.705 208.682 192.705H205.818V196.75ZM205.818 191.477H208.432C208.856 191.477 209.239 191.394 209.58 191.227C209.924 191.061 210.197 190.826 210.398 190.523C210.602 190.22 210.705 189.864 210.705 189.455C210.705 188.943 210.527 188.509 210.17 188.153C209.814 187.794 209.25 187.614 208.477 187.614H205.818V191.477ZM215.793 192.432H218.293C219.315 192.432 220.098 192.691 220.639 193.21C221.181 193.729 221.452 194.386 221.452 195.182C221.452 195.705 221.33 196.18 221.088 196.608C220.846 197.032 220.49 197.371 220.02 197.625C219.55 197.875 218.974 198 218.293 198H214.634V189.273H215.974V196.75H218.293C218.823 196.75 219.259 196.61 219.599 196.33C219.94 196.049 220.111 195.689 220.111 195.25C220.111 194.788 219.94 194.411 219.599 194.119C219.259 193.828 218.823 193.682 218.293 193.682H215.793V192.432ZM222.838 198V189.273H224.179V198H222.838ZM226.634 201.273V189.273H227.929V190.659H228.088C228.187 190.508 228.323 190.314 228.497 190.08C228.675 189.841 228.929 189.629 229.259 189.443C229.592 189.254 230.043 189.159 230.611 189.159C231.346 189.159 231.993 189.343 232.554 189.71C233.115 190.078 233.552 190.598 233.866 191.273C234.181 191.947 234.338 192.742 234.338 193.659C234.338 194.583 234.181 195.384 233.866 196.062C233.552 196.737 233.116 197.259 232.56 197.631C232.003 197.998 231.361 198.182 230.634 198.182C230.073 198.182 229.624 198.089 229.287 197.903C228.95 197.714 228.69 197.5 228.509 197.261C228.327 197.019 228.187 196.818 228.088 196.659H227.974V201.273H226.634ZM227.952 193.636C227.952 194.295 228.048 194.877 228.241 195.381C228.435 195.881 228.717 196.273 229.088 196.557C229.459 196.837 229.914 196.977 230.452 196.977C231.012 196.977 231.48 196.83 231.855 196.534C232.234 196.235 232.518 195.833 232.707 195.33C232.901 194.822 232.997 194.258 232.997 193.636C232.997 193.023 232.902 192.47 232.713 191.977C232.527 191.481 232.245 191.089 231.866 190.801C231.491 190.509 231.02 190.364 230.452 190.364C229.906 190.364 229.448 190.502 229.077 190.778C228.705 191.051 228.425 191.434 228.236 191.926C228.046 192.415 227.952 192.985 227.952 193.636ZM240.043 198.182C239.202 198.182 238.476 197.996 237.866 197.625C237.26 197.25 236.793 196.727 236.463 196.057C236.137 195.383 235.974 194.598 235.974 193.705C235.974 192.811 236.137 192.023 236.463 191.341C236.793 190.655 237.251 190.121 237.838 189.739C238.429 189.352 239.118 189.159 239.906 189.159C240.361 189.159 240.81 189.235 241.253 189.386C241.696 189.538 242.099 189.784 242.463 190.125C242.827 190.462 243.116 190.909 243.332 191.466C243.548 192.023 243.656 192.708 243.656 193.523V194.091H236.929V192.932H242.293C242.293 192.439 242.194 192 241.997 191.614C241.804 191.227 241.527 190.922 241.168 190.699C240.812 190.475 240.391 190.364 239.906 190.364C239.372 190.364 238.91 190.496 238.52 190.761C238.134 191.023 237.836 191.364 237.628 191.784C237.42 192.205 237.315 192.655 237.315 193.136V193.909C237.315 194.568 237.429 195.127 237.656 195.585C237.887 196.04 238.207 196.386 238.616 196.625C239.026 196.86 239.501 196.977 240.043 196.977C240.395 196.977 240.713 196.928 240.997 196.83C241.285 196.727 241.533 196.576 241.741 196.375C241.95 196.17 242.111 195.917 242.224 195.614L243.52 195.977C243.384 196.417 243.154 196.803 242.832 197.136C242.51 197.466 242.113 197.723 241.639 197.909C241.166 198.091 240.634 198.182 240.043 198.182ZM245.151 195.773H246.582C246.613 196.167 246.791 196.466 247.116 196.67C247.446 196.875 247.874 196.977 248.401 196.977C248.938 196.977 249.399 196.867 249.781 196.648C250.164 196.424 250.355 196.064 250.355 195.568C250.355 195.277 250.283 195.023 250.139 194.807C249.995 194.587 249.793 194.417 249.531 194.295C249.27 194.174 248.961 194.114 248.605 194.114H247.105V192.909H248.605C249.139 192.909 249.533 192.788 249.787 192.545C250.045 192.303 250.173 192 250.173 191.636C250.173 191.246 250.035 190.934 249.759 190.699C249.482 190.46 249.09 190.341 248.582 190.341C248.071 190.341 247.645 190.456 247.304 190.688C246.963 190.915 246.783 191.208 246.764 191.568H245.355C245.37 191.098 245.514 190.684 245.787 190.324C246.06 189.96 246.431 189.676 246.901 189.472C247.37 189.263 247.908 189.159 248.514 189.159C249.128 189.159 249.66 189.267 250.111 189.483C250.565 189.695 250.916 189.985 251.162 190.352C251.412 190.716 251.537 191.129 251.537 191.591C251.537 192.083 251.399 192.481 251.122 192.784C250.846 193.087 250.499 193.303 250.082 193.432V193.523C250.412 193.545 250.698 193.652 250.94 193.841C251.187 194.027 251.378 194.271 251.514 194.574C251.651 194.873 251.719 195.205 251.719 195.568C251.719 196.098 251.577 196.561 251.293 196.955C251.009 197.345 250.618 197.648 250.122 197.864C249.626 198.076 249.06 198.182 248.423 198.182C247.806 198.182 247.253 198.081 246.764 197.881C246.276 197.676 245.887 197.394 245.599 197.034C245.315 196.67 245.166 196.25 245.151 195.773ZM256.17 198.205C255.617 198.205 255.116 198.1 254.665 197.892C254.214 197.68 253.856 197.375 253.591 196.977C253.326 196.576 253.193 196.091 253.193 195.523C253.193 195.023 253.292 194.617 253.489 194.307C253.686 193.992 253.949 193.746 254.278 193.568C254.608 193.39 254.972 193.258 255.369 193.17C255.771 193.08 256.174 193.008 256.58 192.955C257.11 192.886 257.54 192.835 257.869 192.801C258.203 192.763 258.445 192.701 258.597 192.614C258.752 192.527 258.83 192.375 258.83 192.159V192.114C258.83 191.553 258.676 191.117 258.369 190.807C258.066 190.496 257.606 190.341 256.989 190.341C256.348 190.341 255.847 190.481 255.483 190.761C255.119 191.042 254.864 191.341 254.716 191.659L253.443 191.205C253.67 190.674 253.973 190.261 254.352 189.966C254.735 189.667 255.152 189.458 255.602 189.341C256.057 189.22 256.504 189.159 256.943 189.159C257.223 189.159 257.545 189.193 257.909 189.261C258.277 189.326 258.631 189.46 258.972 189.665C259.316 189.869 259.602 190.178 259.83 190.591C260.057 191.004 260.17 191.557 260.17 192.25V198H258.83V196.818H258.761C258.67 197.008 258.519 197.21 258.307 197.426C258.095 197.642 257.813 197.826 257.46 197.977C257.108 198.129 256.678 198.205 256.17 198.205ZM256.375 197C256.905 197 257.352 196.896 257.716 196.688C258.083 196.479 258.36 196.21 258.545 195.881C258.735 195.551 258.83 195.205 258.83 194.841V193.614C258.773 193.682 258.648 193.744 258.455 193.801C258.265 193.854 258.045 193.902 257.795 193.943C257.549 193.981 257.309 194.015 257.074 194.045C256.843 194.072 256.655 194.095 256.511 194.114C256.163 194.159 255.837 194.233 255.534 194.335C255.235 194.434 254.992 194.583 254.807 194.784C254.625 194.981 254.534 195.25 254.534 195.591C254.534 196.057 254.706 196.409 255.051 196.648C255.4 196.883 255.841 197 256.375 197ZM261.43 190.523V189.273H268.521V190.523H265.658V198H264.317V190.523H261.43ZM271.636 192.432H274.136C275.159 192.432 275.941 192.691 276.483 193.21C277.025 193.729 277.295 194.386 277.295 195.182C277.295 195.705 277.174 196.18 276.932 196.608C276.689 197.032 276.333 197.371 275.864 197.625C275.394 197.875 274.818 198 274.136 198H270.477V189.273H271.818V196.75H274.136C274.667 196.75 275.102 196.61 275.443 196.33C275.784 196.049 275.955 195.689 275.955 195.25C275.955 194.788 275.784 194.411 275.443 194.119C275.102 193.828 274.667 193.682 274.136 193.682H271.636V192.432Z"
          fill="#002033"
        />
      </g>
      <g clip-path="url(#clip4_55_840)">
        <path
          d="M205.023 233.159V231.841H205.75C206.03 231.841 206.265 231.786 206.455 231.676C206.648 231.566 206.807 231.424 206.932 231.25C207.061 231.076 207.167 230.894 207.25 230.705L207.432 230.273L203.409 221.364H204.932L208.136 228.591L211.068 221.364H212.568L208.545 231.114C208.386 231.477 208.205 231.814 208 232.125C207.799 232.436 207.525 232.686 207.176 232.875C206.831 233.064 206.364 233.159 205.773 233.159H205.023ZM213.28 235.5V231.75H214.007C214.185 231.564 214.339 231.364 214.467 231.148C214.596 230.932 214.708 230.676 214.803 230.381C214.901 230.081 214.984 229.718 215.053 229.29C215.121 228.858 215.181 228.337 215.234 227.727L215.53 224.273H221.075V231.75H222.416V235.5H221.075V233H214.621V235.5H213.28ZM215.53 231.75H219.734V225.523H216.78L216.553 227.727C216.458 228.64 216.34 229.437 216.2 230.119C216.06 230.801 215.837 231.345 215.53 231.75ZM226.764 233.205C226.211 233.205 225.709 233.1 225.259 232.892C224.808 232.68 224.45 232.375 224.185 231.977C223.92 231.576 223.787 231.091 223.787 230.523C223.787 230.023 223.885 229.617 224.082 229.307C224.279 228.992 224.543 228.746 224.872 228.568C225.202 228.39 225.565 228.258 225.963 228.17C226.365 228.08 226.768 228.008 227.173 227.955C227.704 227.886 228.134 227.835 228.463 227.801C228.796 227.763 229.039 227.701 229.19 227.614C229.346 227.527 229.423 227.375 229.423 227.159V227.114C229.423 226.553 229.27 226.117 228.963 225.807C228.66 225.496 228.2 225.341 227.582 225.341C226.942 225.341 226.44 225.481 226.077 225.761C225.713 226.042 225.457 226.341 225.31 226.659L224.037 226.205C224.264 225.674 224.567 225.261 224.946 224.966C225.329 224.667 225.745 224.458 226.196 224.341C226.651 224.22 227.098 224.159 227.537 224.159C227.817 224.159 228.139 224.193 228.503 224.261C228.87 224.326 229.224 224.46 229.565 224.665C229.91 224.869 230.196 225.178 230.423 225.591C230.651 226.004 230.764 226.557 230.764 227.25V233H229.423V231.818H229.355C229.264 232.008 229.113 232.21 228.901 232.426C228.688 232.642 228.406 232.826 228.054 232.977C227.702 233.129 227.272 233.205 226.764 233.205ZM226.969 232C227.499 232 227.946 231.896 228.31 231.688C228.677 231.479 228.954 231.21 229.139 230.881C229.329 230.551 229.423 230.205 229.423 229.841V228.614C229.366 228.682 229.241 228.744 229.048 228.801C228.859 228.854 228.639 228.902 228.389 228.943C228.143 228.981 227.902 229.015 227.668 229.045C227.437 229.072 227.249 229.095 227.105 229.114C226.757 229.159 226.431 229.233 226.128 229.335C225.829 229.434 225.586 229.583 225.401 229.784C225.219 229.981 225.128 230.25 225.128 230.591C225.128 231.057 225.3 231.409 225.645 231.648C225.993 231.883 226.435 232 226.969 232ZM232.439 233V231.75H232.757C233.018 231.75 233.236 231.699 233.411 231.597C233.585 231.491 233.725 231.307 233.831 231.045C233.941 230.78 234.024 230.413 234.081 229.943C234.142 229.47 234.185 228.867 234.212 228.136L234.371 224.273H240.189V233H238.848V225.523H235.643L235.507 228.636C235.477 229.352 235.412 229.983 235.314 230.528C235.219 231.07 235.073 231.525 234.876 231.892C234.683 232.259 234.426 232.536 234.104 232.722C233.782 232.907 233.378 233 232.893 233H232.439ZM243.99 231.023L248.195 224.273H249.74V233H248.399V226.25L244.217 233H242.649V224.273H243.99V231.023ZM251.009 225.523V224.273H258.099V225.523H255.236V233H253.895V225.523H251.009ZM261.214 227.432H263.714C264.737 227.432 265.519 227.691 266.061 228.21C266.603 228.729 266.874 229.386 266.874 230.182C266.874 230.705 266.752 231.18 266.51 231.608C266.268 232.032 265.911 232.371 265.442 232.625C264.972 232.875 264.396 233 263.714 233H260.055V224.273H261.396V231.75H263.714C264.245 231.75 264.68 231.61 265.021 231.33C265.362 231.049 265.533 230.689 265.533 230.25C265.533 229.788 265.362 229.411 265.021 229.119C264.68 228.828 264.245 228.682 263.714 228.682H261.214V227.432Z"
          fill="#002033"
        />
      </g>
      <path
        d="M204.057 272V263.273H205.114V267.159H209.767V263.273H210.824V272H209.767V268.097H205.114V272H204.057ZM213.898 272H212.79L215.994 263.273H217.085L220.29 272H219.182L216.574 264.653H216.506L213.898 272ZM214.307 268.591H218.773V269.528H214.307V268.591ZM228.862 266H227.805C227.742 265.696 227.633 265.429 227.477 265.199C227.323 264.969 227.136 264.776 226.914 264.619C226.695 264.46 226.452 264.341 226.185 264.261C225.918 264.182 225.64 264.142 225.35 264.142C224.822 264.142 224.343 264.276 223.914 264.543C223.488 264.81 223.149 265.203 222.896 265.723C222.646 266.243 222.521 266.881 222.521 267.636C222.521 268.392 222.646 269.03 222.896 269.55C223.149 270.07 223.488 270.463 223.914 270.73C224.343 270.997 224.822 271.131 225.35 271.131C225.64 271.131 225.918 271.091 226.185 271.011C226.452 270.932 226.695 270.814 226.914 270.658C227.136 270.499 227.323 270.304 227.477 270.074C227.633 269.841 227.742 269.574 227.805 269.273H228.862C228.782 269.719 228.637 270.118 228.427 270.47C228.217 270.822 227.955 271.122 227.643 271.369C227.33 271.614 226.979 271.8 226.59 271.928C226.204 272.055 225.791 272.119 225.35 272.119C224.606 272.119 223.944 271.938 223.364 271.574C222.785 271.21 222.329 270.693 221.997 270.023C221.664 269.352 221.498 268.557 221.498 267.636C221.498 266.716 221.664 265.92 221.997 265.25C222.329 264.58 222.785 264.062 223.364 263.699C223.944 263.335 224.606 263.153 225.35 263.153C225.791 263.153 226.204 263.217 226.59 263.345C226.979 263.473 227.33 263.661 227.643 263.908C227.955 264.152 228.217 264.45 228.427 264.803C228.637 265.152 228.782 265.551 228.862 266ZM230.692 264.21V263.273H237.237V264.21H234.493V272H233.436V264.21H230.692ZM239.469 272V263.273H242.417C243.102 263.273 243.662 263.396 244.096 263.643C244.534 263.888 244.858 264.219 245.068 264.636C245.278 265.054 245.383 265.52 245.383 266.034C245.383 266.548 245.278 267.016 245.068 267.436C244.861 267.857 244.54 268.192 244.105 268.442C243.67 268.689 243.113 268.812 242.434 268.812H240.321V267.875H242.4C242.869 267.875 243.246 267.794 243.53 267.632C243.814 267.47 244.02 267.251 244.148 266.976C244.278 266.697 244.344 266.384 244.344 266.034C244.344 265.685 244.278 265.372 244.148 265.097C244.02 264.821 243.812 264.605 243.525 264.449C243.238 264.29 242.858 264.21 242.383 264.21H240.525V272H239.469ZM255.049 267.636C255.049 268.557 254.883 269.352 254.551 270.023C254.218 270.693 253.762 271.21 253.183 271.574C252.603 271.938 251.941 272.119 251.197 272.119C250.453 272.119 249.791 271.938 249.211 271.574C248.632 271.21 248.176 270.693 247.843 270.023C247.511 269.352 247.345 268.557 247.345 267.636C247.345 266.716 247.511 265.92 247.843 265.25C248.176 264.58 248.632 264.062 249.211 263.699C249.791 263.335 250.453 263.153 251.197 263.153C251.941 263.153 252.603 263.335 253.183 263.699C253.762 264.062 254.218 264.58 254.551 265.25C254.883 265.92 255.049 266.716 255.049 267.636ZM254.027 267.636C254.027 266.881 253.9 266.243 253.647 265.723C253.397 265.203 253.058 264.81 252.629 264.543C252.203 264.276 251.725 264.142 251.197 264.142C250.669 264.142 250.19 264.276 249.761 264.543C249.335 264.81 248.995 265.203 248.743 265.723C248.493 266.243 248.368 266.881 248.368 267.636C248.368 268.392 248.493 269.03 248.743 269.55C248.995 270.07 249.335 270.463 249.761 270.73C250.19 270.997 250.669 271.131 251.197 271.131C251.725 271.131 252.203 270.997 252.629 270.73C253.058 270.463 253.397 270.07 253.647 269.55C253.9 269.03 254.027 268.392 254.027 267.636ZM257.426 263.273H258.466V270.142H258.551L263.324 263.273H264.347V272H263.29V265.148H263.205L258.449 272H257.426V263.273ZM261.722 261.091H262.659C262.659 261.551 262.5 261.928 262.182 262.22C261.864 262.513 261.432 262.659 260.887 262.659C260.35 262.659 259.922 262.513 259.604 262.22C259.289 261.928 259.131 261.551 259.131 261.091H260.068C260.068 261.312 260.129 261.507 260.252 261.675C260.377 261.842 260.588 261.926 260.887 261.926C261.185 261.926 261.398 261.842 261.526 261.675C261.656 261.507 261.722 261.312 261.722 261.091ZM272.192 272L269.192 267.994H268.118V272H267.062V263.273H268.118V267.057H268.579L272.073 263.273H273.334L269.806 267.108L273.454 272H272.192ZM275.419 263.273H276.459V270.142H276.544L281.317 263.273H282.34V272H281.283V265.148H281.198L276.442 272H275.419V263.273ZM289.029 272V263.273H292.081C292.689 263.273 293.19 263.378 293.585 263.588C293.98 263.795 294.274 264.075 294.467 264.428C294.66 264.777 294.757 265.165 294.757 265.591C294.757 265.966 294.69 266.276 294.556 266.52C294.426 266.764 294.252 266.957 294.037 267.099C293.824 267.241 293.592 267.347 293.342 267.415V267.5C293.609 267.517 293.877 267.611 294.147 267.781C294.417 267.952 294.643 268.196 294.825 268.514C295.007 268.832 295.098 269.222 295.098 269.682C295.098 270.119 294.998 270.513 294.799 270.862C294.6 271.212 294.287 271.489 293.858 271.693C293.429 271.898 292.87 272 292.183 272H289.029ZM290.086 271.062H292.183C292.873 271.062 293.363 270.929 293.653 270.662C293.946 270.392 294.092 270.065 294.092 269.682C294.092 269.386 294.017 269.114 293.866 268.864C293.716 268.611 293.501 268.409 293.223 268.259C292.944 268.105 292.615 268.028 292.234 268.028H290.086V271.062ZM290.086 267.108H292.047C292.365 267.108 292.652 267.045 292.907 266.92C293.166 266.795 293.37 266.619 293.521 266.392C293.674 266.165 293.751 265.898 293.751 265.591C293.751 265.207 293.618 264.882 293.35 264.615C293.083 264.345 292.66 264.21 292.081 264.21H290.086V267.108ZM297.434 263.273H298.474V270.142H298.559L303.332 263.273H304.355V272H303.298V265.148H303.213L298.457 272H297.434V263.273ZM309.865 272.119C309.302 272.119 308.801 272.023 308.361 271.83C307.923 271.636 307.575 271.368 307.316 271.024C307.061 270.678 306.922 270.276 306.899 269.818H307.973C307.995 270.099 308.092 270.342 308.262 270.547C308.433 270.749 308.656 270.905 308.932 271.016C309.207 271.126 309.512 271.182 309.848 271.182C310.223 271.182 310.555 271.116 310.845 270.986C311.135 270.855 311.362 270.673 311.527 270.44C311.691 270.207 311.774 269.938 311.774 269.631C311.774 269.31 311.694 269.027 311.535 268.783C311.376 268.536 311.143 268.342 310.836 268.203C310.53 268.064 310.155 267.994 309.711 267.994H309.012V267.057H309.711C310.058 267.057 310.362 266.994 310.623 266.869C310.887 266.744 311.093 266.568 311.241 266.341C311.392 266.114 311.467 265.847 311.467 265.54C311.467 265.244 311.402 264.987 311.271 264.768C311.14 264.55 310.956 264.379 310.717 264.257C310.481 264.135 310.203 264.074 309.882 264.074C309.581 264.074 309.297 264.129 309.03 264.24C308.765 264.348 308.549 264.506 308.382 264.713C308.214 264.918 308.123 265.165 308.109 265.455H307.086C307.103 264.997 307.241 264.597 307.5 264.253C307.758 263.906 308.096 263.636 308.514 263.443C308.934 263.25 309.396 263.153 309.899 263.153C310.439 263.153 310.902 263.263 311.288 263.482C311.674 263.697 311.971 263.983 312.179 264.338C312.386 264.693 312.49 265.077 312.49 265.489C312.49 265.98 312.361 266.399 312.102 266.746C311.846 267.092 311.498 267.332 311.058 267.466V267.534C311.609 267.625 312.039 267.859 312.349 268.237C312.659 268.612 312.814 269.077 312.814 269.631C312.814 270.105 312.684 270.531 312.426 270.909C312.17 271.284 311.821 271.58 311.378 271.795C310.934 272.011 310.43 272.119 309.865 272.119ZM315.77 272.119V271.131H316.316C316.526 271.131 316.702 271.089 316.844 271.007C316.989 270.925 317.108 270.818 317.202 270.688C317.299 270.557 317.378 270.42 317.441 270.278L317.577 269.955L314.56 263.273H315.702L318.105 268.693L320.304 263.273H321.429L318.412 270.585C318.293 270.858 318.157 271.111 318.003 271.344C317.853 271.577 317.647 271.764 317.385 271.906C317.127 272.048 316.776 272.119 316.333 272.119H315.77ZM322.866 272H321.758L324.962 263.273H326.053L329.258 272H328.15L325.542 264.653H325.474L322.866 272ZM323.275 268.591H327.741V269.528H323.275V268.591ZM330.467 272V271.028H330.723C331.086 271.028 331.369 270.912 331.571 270.679C331.772 270.446 331.917 270.07 332.005 269.55C332.096 269.03 332.157 268.341 332.189 267.483L332.342 263.273H337.66V272H336.603V264.21H333.348L333.211 267.688C333.177 268.602 333.093 269.381 332.96 270.023C332.826 270.665 332.592 271.155 332.257 271.493C331.922 271.831 331.433 272 330.791 272H330.467ZM340.372 263.273H341.411V270.142H341.497L346.269 263.273H347.292V272H346.235V265.148H346.15L341.394 272H340.372V263.273ZM352.802 272.119C352.24 272.119 351.738 272.023 351.298 271.83C350.861 271.636 350.512 271.368 350.254 271.024C349.998 270.678 349.859 270.276 349.836 269.818H350.91C350.933 270.099 351.03 270.342 351.2 270.547C351.37 270.749 351.593 270.905 351.869 271.016C352.145 271.126 352.45 271.182 352.785 271.182C353.16 271.182 353.493 271.116 353.782 270.986C354.072 270.855 354.299 270.673 354.464 270.44C354.629 270.207 354.711 269.938 354.711 269.631C354.711 269.31 354.632 269.027 354.473 268.783C354.314 268.536 354.081 268.342 353.774 268.203C353.467 268.064 353.092 267.994 352.649 267.994H351.95V267.057H352.649C352.995 267.057 353.299 266.994 353.561 266.869C353.825 266.744 354.031 266.568 354.179 266.341C354.329 266.114 354.405 265.847 354.405 265.54C354.405 265.244 354.339 264.987 354.209 264.768C354.078 264.55 353.893 264.379 353.655 264.257C353.419 264.135 353.14 264.074 352.819 264.074C352.518 264.074 352.234 264.129 351.967 264.24C351.703 264.348 351.487 264.506 351.319 264.713C351.152 264.918 351.061 265.165 351.047 265.455H350.024C350.041 264.997 350.179 264.597 350.437 264.253C350.696 263.906 351.034 263.636 351.451 263.443C351.872 263.25 352.334 263.153 352.836 263.153C353.376 263.153 353.839 263.263 354.226 263.482C354.612 263.697 354.909 263.983 355.116 264.338C355.324 264.693 355.427 265.077 355.427 265.489C355.427 265.98 355.298 266.399 355.039 266.746C354.784 267.092 354.436 267.332 353.995 267.466V267.534C354.547 267.625 354.977 267.859 355.287 268.237C355.596 268.612 355.751 269.077 355.751 269.631C355.751 270.105 355.622 270.531 355.363 270.909C355.108 271.284 354.758 271.58 354.315 271.795C353.872 272.011 353.368 272.119 352.802 272.119ZM358.605 272H357.497L360.702 263.273H361.793L364.997 272H363.889L361.282 264.653H361.213L358.605 272ZM359.014 268.591H363.48V269.528H359.014V268.591ZM374.372 270.994L374.252 274.062H373.161V272H372.548V270.994H374.372ZM366.957 272V263.273H367.962V271.028H372.462V263.273H373.468V272H366.957ZM376.569 263.273H377.608V270.142H377.694L382.466 263.273H383.489V272H382.432V265.148H382.347L377.591 272H376.569V263.273ZM386.204 263.273H387.243V270.142H387.329L392.101 263.273H393.124V272H392.067V265.148H391.982L387.226 272H386.204V263.273Z"
        fill="#002033"
        fill-opacity="0.6"
      />
      <path
        fill-rule="evenodd"
        clip-rule="evenodd"
        d="M543 284H203V283H543V284Z"
        fill="#004269"
        fill-opacity="0.28"
      />
      <g clip-path="url(#clip5_55_840)">
        <path
          d="M203.773 296.614V295.364H212.5V296.614H208.841V307H207.432V296.614H203.773ZM216.773 307.182C215.985 307.182 215.294 306.994 214.699 306.619C214.108 306.244 213.646 305.72 213.312 305.045C212.983 304.371 212.818 303.583 212.818 302.682C212.818 301.773 212.983 300.979 213.312 300.301C213.646 299.623 214.108 299.097 214.699 298.722C215.294 298.347 215.985 298.159 216.773 298.159C217.561 298.159 218.25 298.347 218.841 298.722C219.436 299.097 219.898 299.623 220.227 300.301C220.561 300.979 220.727 301.773 220.727 302.682C220.727 303.583 220.561 304.371 220.227 305.045C219.898 305.72 219.436 306.244 218.841 306.619C218.25 306.994 217.561 307.182 216.773 307.182ZM216.773 305.977C217.371 305.977 217.864 305.824 218.25 305.517C218.636 305.21 218.922 304.807 219.108 304.307C219.294 303.807 219.386 303.265 219.386 302.682C219.386 302.098 219.294 301.555 219.108 301.051C218.922 300.547 218.636 300.14 218.25 299.83C217.864 299.519 217.371 299.364 216.773 299.364C216.174 299.364 215.682 299.519 215.295 299.83C214.909 300.14 214.623 300.547 214.438 301.051C214.252 301.555 214.159 302.098 214.159 302.682C214.159 303.265 214.252 303.807 214.438 304.307C214.623 304.807 214.909 305.21 215.295 305.517C215.682 305.824 216.174 305.977 216.773 305.977ZM222.001 307V305.75H222.32C222.581 305.75 222.799 305.699 222.973 305.597C223.147 305.491 223.287 305.307 223.393 305.045C223.503 304.78 223.587 304.413 223.643 303.943C223.704 303.47 223.748 302.867 223.774 302.136L223.933 298.273H229.751V307H228.411V299.523H225.206L225.07 302.636C225.039 303.352 224.975 303.983 224.876 304.528C224.782 305.07 224.636 305.525 224.439 305.892C224.246 306.259 223.988 306.536 223.666 306.722C223.344 306.907 222.941 307 222.456 307H222.001ZM244.121 305.75L243.962 309.5H242.575V307H241.439V305.75H244.121ZM232.212 298.273H233.553V305.75H236.848V298.273H238.189V305.75H241.484V298.273H242.825V307H232.212V298.273ZM247.412 305.023L251.616 298.273H253.162V307H251.821V300.25L247.639 307H246.071V298.273H247.412V305.023ZM261.459 302.023V303.273H256.641V302.023H261.459ZM256.959 298.273V307H255.618V298.273H256.959ZM262.482 298.273V307H261.141V298.273H262.482ZM267.499 307.205C266.946 307.205 266.444 307.1 265.993 306.892C265.542 306.68 265.184 306.375 264.919 305.977C264.654 305.576 264.521 305.091 264.521 304.523C264.521 304.023 264.62 303.617 264.817 303.307C265.014 302.992 265.277 302.746 265.607 302.568C265.936 302.39 266.3 302.258 266.697 302.17C267.099 302.08 267.502 302.008 267.908 301.955C268.438 301.886 268.868 301.835 269.197 301.801C269.531 301.763 269.773 301.701 269.925 301.614C270.08 301.527 270.158 301.375 270.158 301.159V301.114C270.158 300.553 270.004 300.117 269.697 299.807C269.394 299.496 268.934 299.341 268.317 299.341C267.677 299.341 267.175 299.481 266.811 299.761C266.447 300.042 266.192 300.341 266.044 300.659L264.771 300.205C264.999 299.674 265.302 299.261 265.68 298.966C266.063 298.667 266.48 298.458 266.93 298.341C267.385 298.22 267.832 298.159 268.271 298.159C268.552 298.159 268.874 298.193 269.237 298.261C269.605 298.326 269.959 298.46 270.3 298.665C270.644 298.869 270.93 299.178 271.158 299.591C271.385 300.004 271.499 300.557 271.499 301.25V307H270.158V305.818H270.089C269.999 306.008 269.847 306.21 269.635 306.426C269.423 306.642 269.141 306.826 268.788 306.977C268.436 307.129 268.006 307.205 267.499 307.205ZM267.703 306C268.233 306 268.68 305.896 269.044 305.688C269.411 305.479 269.688 305.21 269.874 304.881C270.063 304.551 270.158 304.205 270.158 303.841V302.614C270.101 302.682 269.976 302.744 269.783 302.801C269.593 302.854 269.374 302.902 269.124 302.943C268.877 302.981 268.637 303.015 268.402 303.045C268.171 303.072 267.983 303.095 267.839 303.114C267.491 303.159 267.165 303.233 266.862 303.335C266.563 303.434 266.321 303.583 266.135 303.784C265.953 303.981 265.862 304.25 265.862 304.591C265.862 305.057 266.035 305.409 266.379 305.648C266.728 305.883 267.169 306 267.703 306ZM277.673 307V305.75H277.991C278.253 305.75 278.471 305.699 278.645 305.597C278.819 305.491 278.959 305.307 279.065 305.045C279.175 304.78 279.259 304.413 279.315 303.943C279.376 303.47 279.42 302.867 279.446 302.136L279.605 298.273H285.423V307H284.082V299.523H280.878L280.741 302.636C280.711 303.352 280.647 303.983 280.548 304.528C280.454 305.07 280.308 305.525 280.111 305.892C279.918 306.259 279.66 306.536 279.338 306.722C279.016 306.907 278.613 307 278.128 307H277.673ZM289.224 305.023L293.429 298.273H294.974V307H293.634V300.25L289.452 307H287.884V298.273H289.224V305.023ZM303.271 302.023V303.273H298.453V302.023H303.271ZM298.771 298.273V307H297.43V298.273H298.771ZM304.294 298.273V307H302.953V298.273H304.294ZM308.084 305.023L312.288 298.273H313.834V307H312.493V300.25L308.311 307H306.743V298.273H308.084V305.023ZM317.631 305.023L321.835 298.273H323.381V307H322.04V300.25L317.858 307H316.29V298.273H317.631V305.023ZM320.949 295.364H322.199C322.199 295.977 321.987 296.479 321.562 296.869C321.138 297.259 320.563 297.455 319.835 297.455C319.119 297.455 318.549 297.259 318.125 296.869C317.705 296.479 317.494 295.977 317.494 295.364H318.744C318.744 295.659 318.826 295.919 318.989 296.142C319.155 296.366 319.438 296.477 319.835 296.477C320.233 296.477 320.517 296.366 320.688 296.142C320.862 295.919 320.949 295.659 320.949 295.364ZM326.814 307.091C326.534 307.091 326.293 306.991 326.092 306.79C325.892 306.589 325.791 306.348 325.791 306.068C325.791 305.788 325.892 305.547 326.092 305.347C326.293 305.146 326.534 305.045 326.814 305.045C327.094 305.045 327.335 305.146 327.536 305.347C327.736 305.547 327.837 305.788 327.837 306.068C327.837 306.254 327.789 306.424 327.695 306.58C327.604 306.735 327.481 306.86 327.325 306.955C327.174 307.045 327.003 307.091 326.814 307.091ZM331.22 307.091C330.94 307.091 330.699 306.991 330.499 306.79C330.298 306.589 330.197 306.348 330.197 306.068C330.197 305.788 330.298 305.547 330.499 305.347C330.699 305.146 330.94 305.045 331.22 305.045C331.5 305.045 331.741 305.146 331.942 305.347C332.143 305.547 332.243 305.788 332.243 306.068C332.243 306.254 332.196 306.424 332.101 306.58C332.01 306.735 331.887 306.86 331.732 306.955C331.58 307.045 331.41 307.091 331.22 307.091ZM335.626 307.091C335.346 307.091 335.106 306.991 334.905 306.79C334.704 306.589 334.604 306.348 334.604 306.068C334.604 305.788 334.704 305.547 334.905 305.347C335.106 305.146 335.346 305.045 335.626 305.045C335.907 305.045 336.147 305.146 336.348 305.347C336.549 305.547 336.649 305.788 336.649 306.068C336.649 306.254 336.602 306.424 336.507 306.58C336.416 306.735 336.293 306.86 336.138 306.955C335.986 307.045 335.816 307.091 335.626 307.091Z"
          fill="#002033"
        />
      </g>
      <g clip-path="url(#clip6_55_840)">
        <path
          d="M204.409 342V330.364H208.341C209.254 330.364 210 330.528 210.58 330.858C211.163 331.184 211.595 331.625 211.875 332.182C212.155 332.739 212.295 333.36 212.295 334.045C212.295 334.731 212.155 335.354 211.875 335.915C211.598 336.475 211.17 336.922 210.591 337.256C210.011 337.585 209.269 337.75 208.364 337.75H205.545V336.5H208.318C208.943 336.5 209.445 336.392 209.824 336.176C210.203 335.96 210.477 335.669 210.648 335.301C210.822 334.93 210.909 334.511 210.909 334.045C210.909 333.58 210.822 333.163 210.648 332.795C210.477 332.428 210.201 332.14 209.818 331.932C209.436 331.72 208.928 331.614 208.295 331.614H205.818V342H204.409ZM216.952 342.205C216.399 342.205 215.897 342.1 215.446 341.892C214.995 341.68 214.637 341.375 214.372 340.977C214.107 340.576 213.974 340.091 213.974 339.523C213.974 339.023 214.073 338.617 214.27 338.307C214.467 337.992 214.73 337.746 215.06 337.568C215.389 337.39 215.753 337.258 216.151 337.17C216.552 337.08 216.955 337.008 217.361 336.955C217.891 336.886 218.321 336.835 218.651 336.801C218.984 336.763 219.226 336.701 219.378 336.614C219.533 336.527 219.611 336.375 219.611 336.159V336.114C219.611 335.553 219.457 335.117 219.151 334.807C218.848 334.496 218.387 334.341 217.77 334.341C217.13 334.341 216.628 334.481 216.264 334.761C215.901 335.042 215.645 335.341 215.497 335.659L214.224 335.205C214.452 334.674 214.755 334.261 215.134 333.966C215.516 333.667 215.933 333.458 216.384 333.341C216.838 333.22 217.285 333.159 217.724 333.159C218.005 333.159 218.327 333.193 218.69 333.261C219.058 333.326 219.412 333.46 219.753 333.665C220.098 333.869 220.384 334.178 220.611 334.591C220.838 335.004 220.952 335.557 220.952 336.25V342H219.611V340.818H219.543C219.452 341.008 219.3 341.21 219.088 341.426C218.876 341.642 218.594 341.826 218.241 341.977C217.889 342.129 217.459 342.205 216.952 342.205ZM217.156 341C217.687 341 218.134 340.896 218.497 340.688C218.865 340.479 219.141 340.21 219.327 339.881C219.516 339.551 219.611 339.205 219.611 338.841V337.614C219.554 337.682 219.429 337.744 219.236 337.801C219.046 337.854 218.827 337.902 218.577 337.943C218.33 337.981 218.09 338.015 217.855 338.045C217.624 338.072 217.437 338.095 217.293 338.114C216.944 338.159 216.618 338.233 216.315 338.335C216.016 338.434 215.774 338.583 215.588 338.784C215.406 338.981 215.315 339.25 215.315 339.591C215.315 340.057 215.488 340.409 215.832 340.648C216.181 340.883 216.622 341 217.156 341ZM222.854 339.773H224.286C224.316 340.167 224.494 340.466 224.82 340.67C225.149 340.875 225.577 340.977 226.104 340.977C226.642 340.977 227.102 340.867 227.484 340.648C227.867 340.424 228.058 340.064 228.058 339.568C228.058 339.277 227.986 339.023 227.842 338.807C227.698 338.587 227.496 338.417 227.234 338.295C226.973 338.174 226.664 338.114 226.308 338.114H224.808V336.909H226.308C226.842 336.909 227.236 336.788 227.49 336.545C227.748 336.303 227.876 336 227.876 335.636C227.876 335.246 227.738 334.934 227.462 334.699C227.185 334.46 226.793 334.341 226.286 334.341C225.774 334.341 225.348 334.456 225.007 334.688C224.666 334.915 224.486 335.208 224.467 335.568H223.058C223.073 335.098 223.217 334.684 223.49 334.324C223.763 333.96 224.134 333.676 224.604 333.472C225.073 333.263 225.611 333.159 226.217 333.159C226.831 333.159 227.363 333.267 227.814 333.483C228.268 333.695 228.619 333.985 228.865 334.352C229.115 334.716 229.24 335.129 229.24 335.591C229.24 336.083 229.102 336.481 228.825 336.784C228.549 337.087 228.202 337.303 227.786 337.432V337.523C228.115 337.545 228.401 337.652 228.643 337.841C228.89 338.027 229.081 338.271 229.217 338.574C229.354 338.873 229.422 339.205 229.422 339.568C229.422 340.098 229.28 340.561 228.996 340.955C228.712 341.345 228.321 341.648 227.825 341.864C227.329 342.076 226.763 342.182 226.126 342.182C225.509 342.182 224.956 342.081 224.467 341.881C223.979 341.676 223.59 341.394 223.303 341.034C223.018 340.67 222.869 340.25 222.854 339.773ZM236.078 340.182L239.124 333.273H240.396L236.624 342H235.533L231.828 333.273H233.078L236.078 340.182ZM232.646 333.273V342H231.305V333.273H232.646ZM239.51 342V333.273H240.851V342H239.51ZM246.964 342.182C246.124 342.182 245.398 341.996 244.788 341.625C244.182 341.25 243.714 340.727 243.385 340.057C243.059 339.383 242.896 338.598 242.896 337.705C242.896 336.811 243.059 336.023 243.385 335.341C243.714 334.655 244.173 334.121 244.76 333.739C245.351 333.352 246.04 333.159 246.828 333.159C247.283 333.159 247.732 333.235 248.175 333.386C248.618 333.538 249.021 333.784 249.385 334.125C249.749 334.462 250.038 334.909 250.254 335.466C250.47 336.023 250.578 336.708 250.578 337.523V338.091H243.851V336.932H249.214C249.214 336.439 249.116 336 248.919 335.614C248.726 335.227 248.449 334.922 248.089 334.699C247.733 334.475 247.313 334.364 246.828 334.364C246.294 334.364 245.832 334.496 245.442 334.761C245.055 335.023 244.758 335.364 244.55 335.784C244.341 336.205 244.237 336.655 244.237 337.136V337.909C244.237 338.568 244.351 339.127 244.578 339.585C244.809 340.04 245.129 340.386 245.538 340.625C245.947 340.86 246.423 340.977 246.964 340.977C247.317 340.977 247.635 340.928 247.919 340.83C248.207 340.727 248.455 340.576 248.663 340.375C248.872 340.17 249.033 339.917 249.146 339.614L250.442 339.977C250.305 340.417 250.076 340.803 249.754 341.136C249.432 341.466 249.035 341.723 248.561 341.909C248.088 342.091 247.555 342.182 246.964 342.182ZM252.618 345.273V333.273H253.913V334.659H254.072C254.171 334.508 254.307 334.314 254.482 334.08C254.66 333.841 254.913 333.629 255.243 333.443C255.576 333.254 256.027 333.159 256.595 333.159C257.33 333.159 257.978 333.343 258.538 333.71C259.099 334.078 259.536 334.598 259.851 335.273C260.165 335.947 260.322 336.742 260.322 337.659C260.322 338.583 260.165 339.384 259.851 340.062C259.536 340.737 259.101 341.259 258.544 341.631C257.987 341.998 257.345 342.182 256.618 342.182C256.057 342.182 255.608 342.089 255.271 341.903C254.934 341.714 254.675 341.5 254.493 341.261C254.311 341.019 254.171 340.818 254.072 340.659H253.959V345.273H252.618ZM253.936 337.636C253.936 338.295 254.033 338.877 254.226 339.381C254.419 339.881 254.701 340.273 255.072 340.557C255.444 340.837 255.898 340.977 256.436 340.977C256.997 340.977 257.464 340.83 257.839 340.534C258.218 340.235 258.502 339.833 258.692 339.33C258.885 338.822 258.982 338.258 258.982 337.636C258.982 337.023 258.887 336.47 258.697 335.977C258.512 335.481 258.23 335.089 257.851 334.801C257.476 334.509 257.004 334.364 256.436 334.364C255.891 334.364 255.432 334.502 255.061 334.778C254.69 335.051 254.41 335.434 254.22 335.926C254.031 336.415 253.936 336.985 253.936 337.636ZM266.868 333.273H268.209V340.75H271.504V333.273H272.845V340.75H276.141V333.273H277.482V342H266.868V333.273ZM279.93 345.273V333.273H281.226V334.659H281.385C281.483 334.508 281.62 334.314 281.794 334.08C281.972 333.841 282.226 333.629 282.555 333.443C282.889 333.254 283.339 333.159 283.908 333.159C284.643 333.159 285.29 333.343 285.851 333.71C286.411 334.078 286.849 334.598 287.163 335.273C287.478 335.947 287.635 336.742 287.635 337.659C287.635 338.583 287.478 339.384 287.163 340.062C286.849 340.737 286.413 341.259 285.857 341.631C285.3 341.998 284.658 342.182 283.93 342.182C283.37 342.182 282.921 342.089 282.584 341.903C282.247 341.714 281.987 341.5 281.805 341.261C281.624 341.019 281.483 340.818 281.385 340.659H281.271V345.273H279.93ZM281.249 337.636C281.249 338.295 281.345 338.877 281.538 339.381C281.732 339.881 282.014 340.273 282.385 340.557C282.756 340.837 283.211 340.977 283.749 340.977C284.309 340.977 284.777 340.83 285.152 340.534C285.531 340.235 285.815 339.833 286.004 339.33C286.197 338.822 286.294 338.258 286.294 337.636C286.294 337.023 286.199 336.47 286.01 335.977C285.824 335.481 285.542 335.089 285.163 334.801C284.788 334.509 284.317 334.364 283.749 334.364C283.203 334.364 282.745 334.502 282.374 334.778C282.002 335.051 281.722 335.434 281.533 335.926C281.343 336.415 281.249 336.985 281.249 337.636ZM291.021 340.023L295.226 333.273H296.771V342H295.43V335.25L291.249 342H289.68V333.273H291.021V340.023ZM302.773 344.977V330.364H304.114V344.977H302.773ZM302.773 342.182C302.182 342.182 301.644 342.076 301.159 341.864C300.674 341.648 300.258 341.343 299.909 340.949C299.561 340.551 299.292 340.076 299.102 339.523C298.913 338.97 298.818 338.356 298.818 337.682C298.818 337 298.913 336.383 299.102 335.83C299.292 335.273 299.561 334.795 299.909 334.398C300.258 334 300.674 333.695 301.159 333.483C301.644 333.267 302.182 333.159 302.773 333.159H303.182V342.182H302.773ZM302.773 340.977H303V334.364H302.773C302.326 334.364 301.938 334.455 301.608 334.636C301.278 334.814 301.006 335.059 300.79 335.369C300.578 335.676 300.419 336.028 300.312 336.426C300.21 336.824 300.159 337.242 300.159 337.682C300.159 338.265 300.252 338.807 300.438 339.307C300.623 339.807 300.909 340.21 301.295 340.517C301.682 340.824 302.174 340.977 302.773 340.977ZM304.114 342.182H303.705V333.159H304.114C304.705 333.159 305.242 333.267 305.727 333.483C306.212 333.695 306.629 334 306.977 334.398C307.326 334.795 307.595 335.273 307.784 335.83C307.973 336.383 308.068 337 308.068 337.682C308.068 338.356 307.973 338.97 307.784 339.523C307.595 340.076 307.326 340.551 306.977 340.949C306.629 341.343 306.212 341.648 305.727 341.864C305.242 342.076 304.705 342.182 304.114 342.182ZM304.114 340.977C304.564 340.977 304.953 340.89 305.278 340.716C305.608 340.538 305.879 340.295 306.091 339.989C306.307 339.678 306.466 339.326 306.568 338.932C306.674 338.534 306.727 338.117 306.727 337.682C306.727 337.098 306.634 336.555 306.449 336.051C306.263 335.547 305.977 335.14 305.591 334.83C305.205 334.519 304.712 334.364 304.114 334.364H303.886V340.977H304.114ZM308.977 334.523V333.273H316.068V334.523H313.205V342H311.864V334.523H308.977ZM320.139 342.205C319.586 342.205 319.084 342.1 318.634 341.892C318.183 341.68 317.825 341.375 317.56 340.977C317.295 340.576 317.162 340.091 317.162 339.523C317.162 339.023 317.26 338.617 317.457 338.307C317.654 337.992 317.918 337.746 318.247 337.568C318.577 337.39 318.94 337.258 319.338 337.17C319.74 337.08 320.143 337.008 320.548 336.955C321.079 336.886 321.509 336.835 321.838 336.801C322.171 336.763 322.414 336.701 322.565 336.614C322.721 336.527 322.798 336.375 322.798 336.159V336.114C322.798 335.553 322.645 335.117 322.338 334.807C322.035 334.496 321.575 334.341 320.957 334.341C320.317 334.341 319.815 334.481 319.452 334.761C319.088 335.042 318.832 335.341 318.685 335.659L317.412 335.205C317.639 334.674 317.942 334.261 318.321 333.966C318.704 333.667 319.12 333.458 319.571 333.341C320.026 333.22 320.473 333.159 320.912 333.159C321.192 333.159 321.514 333.193 321.878 333.261C322.245 333.326 322.599 333.46 322.94 333.665C323.285 333.869 323.571 334.178 323.798 334.591C324.026 335.004 324.139 335.557 324.139 336.25V342H322.798V340.818H322.73C322.639 341.008 322.488 341.21 322.276 341.426C322.063 341.642 321.781 341.826 321.429 341.977C321.077 342.129 320.647 342.205 320.139 342.205ZM320.344 341C320.874 341 321.321 340.896 321.685 340.688C322.052 340.479 322.329 340.21 322.514 339.881C322.704 339.551 322.798 339.205 322.798 338.841V337.614C322.741 337.682 322.616 337.744 322.423 337.801C322.234 337.854 322.014 337.902 321.764 337.943C321.518 337.981 321.277 338.015 321.043 338.045C320.812 338.072 320.624 338.095 320.48 338.114C320.132 338.159 319.806 338.233 319.503 338.335C319.204 338.434 318.961 338.583 318.776 338.784C318.594 338.981 318.503 339.25 318.503 339.591C318.503 340.057 318.675 340.409 319.02 340.648C319.368 340.883 319.81 341 320.344 341ZM327.564 342.091C327.284 342.091 327.043 341.991 326.842 341.79C326.642 341.589 326.541 341.348 326.541 341.068C326.541 340.788 326.642 340.547 326.842 340.347C327.043 340.146 327.284 340.045 327.564 340.045C327.844 340.045 328.085 340.146 328.286 340.347C328.486 340.547 328.587 340.788 328.587 341.068C328.587 341.254 328.539 341.424 328.445 341.58C328.354 341.735 328.231 341.86 328.075 341.955C327.924 342.045 327.753 342.091 327.564 342.091ZM331.97 342.091C331.69 342.091 331.449 341.991 331.249 341.79C331.048 341.589 330.947 341.348 330.947 341.068C330.947 340.788 331.048 340.547 331.249 340.347C331.449 340.146 331.69 340.045 331.97 340.045C332.25 340.045 332.491 340.146 332.692 340.347C332.893 340.547 332.993 340.788 332.993 341.068C332.993 341.254 332.946 341.424 332.851 341.58C332.76 341.735 332.637 341.86 332.482 341.955C332.33 342.045 332.16 342.091 331.97 342.091ZM336.376 342.091C336.096 342.091 335.856 341.991 335.655 341.79C335.454 341.589 335.354 341.348 335.354 341.068C335.354 340.788 335.454 340.547 335.655 340.347C335.856 340.146 336.096 340.045 336.376 340.045C336.657 340.045 336.897 340.146 337.098 340.347C337.299 340.547 337.399 340.788 337.399 341.068C337.399 341.254 337.352 341.424 337.257 341.58C337.166 341.735 337.043 341.86 336.888 341.955C336.736 342.045 336.566 342.091 336.376 342.091Z"
          fill="#002033"
        />
      </g>
      <g clip-path="url(#clip7_55_840)">
        <path
          d="M214.295 375.659L214.136 379.75H212.682V377H211.864V375.659H214.295ZM204.409 377V365.364H205.75V375.705H211.75V365.364H213.091V377H204.409ZM216.243 377V368.273H219.811C220.75 368.273 221.497 368.485 222.05 368.909C222.603 369.333 222.879 369.894 222.879 370.591C222.879 371.121 222.722 371.532 222.408 371.824C222.093 372.112 221.69 372.307 221.197 372.409C221.519 372.455 221.832 372.568 222.135 372.75C222.442 372.932 222.696 373.182 222.896 373.5C223.097 373.814 223.197 374.201 223.197 374.659C223.197 375.106 223.084 375.506 222.857 375.858C222.629 376.21 222.304 376.489 221.879 376.693C221.455 376.898 220.947 377 220.357 377H216.243ZM217.516 375.773H220.357C220.819 375.773 221.18 375.663 221.442 375.443C221.703 375.223 221.834 374.924 221.834 374.545C221.834 374.095 221.703 373.741 221.442 373.483C221.18 373.222 220.819 373.091 220.357 373.091H217.516V375.773ZM217.516 371.932H219.811C220.171 371.932 220.48 371.883 220.737 371.784C220.995 371.682 221.192 371.538 221.328 371.352C221.468 371.163 221.538 370.939 221.538 370.682C221.538 370.314 221.385 370.027 221.078 369.818C220.771 369.606 220.349 369.5 219.811 369.5H217.516V371.932ZM228.886 377.182C228.045 377.182 227.32 376.996 226.71 376.625C226.104 376.25 225.636 375.727 225.307 375.057C224.981 374.383 224.818 373.598 224.818 372.705C224.818 371.811 224.981 371.023 225.307 370.341C225.636 369.655 226.095 369.121 226.682 368.739C227.273 368.352 227.962 368.159 228.75 368.159C229.205 368.159 229.653 368.235 230.097 368.386C230.54 368.538 230.943 368.784 231.307 369.125C231.67 369.462 231.96 369.909 232.176 370.466C232.392 371.023 232.5 371.708 232.5 372.523V373.091H225.773V371.932H231.136C231.136 371.439 231.038 371 230.841 370.614C230.648 370.227 230.371 369.922 230.011 369.699C229.655 369.475 229.235 369.364 228.75 369.364C228.216 369.364 227.754 369.496 227.364 369.761C226.977 370.023 226.68 370.364 226.472 370.784C226.263 371.205 226.159 371.655 226.159 372.136V372.909C226.159 373.568 226.273 374.127 226.5 374.585C226.731 375.04 227.051 375.386 227.46 375.625C227.869 375.86 228.345 375.977 228.886 375.977C229.239 375.977 229.557 375.928 229.841 375.83C230.129 375.727 230.377 375.576 230.585 375.375C230.794 375.17 230.955 374.917 231.068 374.614L232.364 374.977C232.227 375.417 231.998 375.803 231.676 376.136C231.354 376.466 230.956 376.723 230.483 376.909C230.009 377.091 229.477 377.182 228.886 377.182ZM233.727 369.523V368.273H240.818V369.523H237.955V377H236.614V369.523H233.727ZM242.298 377.091C242.018 377.091 241.777 376.991 241.577 376.79C241.376 376.589 241.276 376.348 241.276 376.068C241.276 375.788 241.376 375.547 241.577 375.347C241.777 375.146 242.018 375.045 242.298 375.045C242.579 375.045 242.819 375.146 243.02 375.347C243.221 375.547 243.321 375.788 243.321 376.068C243.321 376.254 243.274 376.424 243.179 376.58C243.088 376.735 242.965 376.86 242.81 376.955C242.658 377.045 242.488 377.091 242.298 377.091ZM246.705 377.091C246.424 377.091 246.184 376.991 245.983 376.79C245.782 376.589 245.682 376.348 245.682 376.068C245.682 375.788 245.782 375.547 245.983 375.347C246.184 375.146 246.424 375.045 246.705 375.045C246.985 375.045 247.225 375.146 247.426 375.347C247.627 375.547 247.727 375.788 247.727 376.068C247.727 376.254 247.68 376.424 247.585 376.58C247.494 376.735 247.371 376.86 247.216 376.955C247.064 377.045 246.894 377.091 246.705 377.091ZM251.111 377.091C250.83 377.091 250.59 376.991 250.389 376.79C250.188 376.589 250.088 376.348 250.088 376.068C250.088 375.788 250.188 375.547 250.389 375.347C250.59 375.146 250.83 375.045 251.111 375.045C251.391 375.045 251.632 375.146 251.832 375.347C252.033 375.547 252.134 375.788 252.134 376.068C252.134 376.254 252.086 376.424 251.991 376.58C251.901 376.735 251.777 376.86 251.622 376.955C251.471 377.045 251.3 377.091 251.111 377.091Z"
          fill="#002033"
        />
      </g>
    </g>
    <rect x="191" y="16" width="40" height="40" rx="4" fill="white" />
    <rect
      x="191"
      y="16"
      width="40"
      height="40"
      rx="4"
      fill="#004269"
      fill-opacity="0.07"
    />
    <path
      d="M211 32C212.1 32 213 31.1 213 30C213 28.9 212.1 28 211 28C209.9 28 209 28.9 209 30C209 31.1 209.9 32 211 32ZM211 34C209.9 34 209 34.9 209 36C209 37.1 209.9 38 211 38C212.1 38 213 37.1 213 36C213 34.9 212.1 34 211 34ZM211 40C209.9 40 209 40.9 209 42C209 43.1 209.9 44 211 44C212.1 44 213 43.1 213 42C213 40.9 212.1 40 211 40Z"
      fill="#00395C"
      fill-opacity="0.8"
    />
  </g>
  <defs>
    <filter
      id="filter0_dd_55_840"
      x="167"
      y="42"
      width="412"
      height="387"
      filterUnits="userSpaceOnUse"
      color-interpolation-filters="sRGB"
    >
      <feFlood flood-opacity="0" result="BackgroundImageFix" />
      <feColorMatrix
        in="SourceAlpha"
        type="matrix"
        values="0 0 0 0 0 0 0 0 0 0 0 0 0 0 0 0 0 0 127 0"
        result="hardAlpha"
      />
      <feOffset dy="8" />
      <feGaussianBlur stdDeviation="12" />
      <feColorMatrix
        type="matrix"
        values="0 0 0 0 0 0 0 0 0 0.12549 0 0 0 0 0.2 0 0 0 0.12 0"
      />
      <feBlend
        mode="normal"
        in2="BackgroundImageFix"
        result="effect1_dropShadow_55_840"
      />
      <feColorMatrix
        in="SourceAlpha"
        type="matrix"
        values="0 0 0 0 0 0 0 0 0 0 0 0 0 0 0 0 0 0 127 0"
        result="hardAlpha"
      />
      <feOffset dy="4" />
      <feGaussianBlur stdDeviation="2" />
      <feColorMatrix
        type="matrix"
        values="0 0 0 0 0 0 0 0 0 0.12549 0 0 0 0 0.2 0 0 0 0.04 0"
      />
      <feBlend
        mode="normal"
        in2="effect1_dropShadow_55_840"
        result="effect2_dropShadow_55_840"
      />
      <feBlend
        mode="normal"
        in="SourceGraphic"
        in2="effect2_dropShadow_55_840"
        result="shape"
      />
    </filter>
    <clipPath id="clip0_55_840">
      <rect width="818" height="413" fill="white" />
    </clipPath>
    <clipPath id="clip1_55_840">
      <rect
        width="340"
        height="19"
        fill="white"
        transform="translate(203 113)"
      />
    </clipPath>
    <clipPath id="clip2_55_840">
      <rect
        width="340"
        height="19"
        fill="white"
        transform="translate(203 148)"
      />
    </clipPath>
    <clipPath id="clip3_55_840">
      <rect
        width="340"
        height="19"
        fill="white"
        transform="translate(203 183)"
      />
    </clipPath>
    <clipPath id="clip4_55_840">
      <rect
        width="340"
        height="19"
        fill="white"
        transform="translate(203 218)"
      />
    </clipPath>
    <clipPath id="clip5_55_840">
      <rect
        width="340"
        height="19"
        fill="white"
        transform="translate(203 292)"
      />
    </clipPath>
    <clipPath id="clip6_55_840">
      <rect
        width="340"
        height="19"
        fill="white"
        transform="translate(203 327)"
      />
    </clipPath>
    <clipPath id="clip7_55_840">
      <rect
        width="340"
        height="19"
        fill="white"
        transform="translate(203 362)"
      />
    </clipPath>
  </defs>
</svg>
