<svg
  width="818"
  height="220"
  viewBox="0 0 818 220"
  fill="none"
  xmlns="http://www.w3.org/2000/svg"
>
  <g clip-path="url(#clip0_57_840)">
    <g filter="url(#filter0_dd_57_840)">
      <rect x="191" y="58" width="364" height="121" rx="4" fill="white" />
      <rect
        x="191.5"
        y="58.5"
        width="363"
        height="120"
        rx="3.5"
        stroke="#004269"
        stroke-opacity="0.28"
      />
      <g clip-path="url(#clip1_57_840)">
        <path
          d="M227.409 91.8182V87.75H228.159C228.417 87.5152 228.659 87.1837 228.886 86.7557C229.117 86.3239 229.312 85.7481 229.472 85.0284C229.634 84.3049 229.742 83.3864 229.795 82.2727L230.045 77.3636H236.955V87.75H238.295V91.7955H236.955V89H228.75V91.8182H227.409ZM229.841 87.75H235.614V78.6136H231.318L231.136 82.2727C231.091 83.1212 231.011 83.8902 230.898 84.5795C230.784 85.2652 230.638 85.8731 230.46 86.4034C230.282 86.9299 230.076 87.3788 229.841 87.75ZM243.788 89.1818C243 89.1818 242.309 88.9943 241.714 88.6193C241.124 88.2443 240.661 87.7197 240.328 87.0455C239.999 86.3712 239.834 85.5833 239.834 84.6818C239.834 83.7727 239.999 82.9792 240.328 82.3011C240.661 81.6231 241.124 81.0966 241.714 80.7216C242.309 80.3466 243 80.1591 243.788 80.1591C244.576 80.1591 245.266 80.3466 245.857 80.7216C246.451 81.0966 246.913 81.6231 247.243 82.3011C247.576 82.9792 247.743 83.7727 247.743 84.6818C247.743 85.5833 247.576 86.3712 247.243 87.0455C246.913 87.7197 246.451 88.2443 245.857 88.6193C245.266 88.9943 244.576 89.1818 243.788 89.1818ZM243.788 87.9773C244.387 87.9773 244.879 87.8239 245.266 87.517C245.652 87.2102 245.938 86.8068 246.124 86.3068C246.309 85.8068 246.402 85.2652 246.402 84.6818C246.402 84.0985 246.309 83.5549 246.124 83.0511C245.938 82.5473 245.652 82.1402 245.266 81.8295C244.879 81.5189 244.387 81.3636 243.788 81.3636C243.19 81.3636 242.697 81.5189 242.311 81.8295C241.925 82.1402 241.639 82.5473 241.453 83.0511C241.268 83.5549 241.175 84.0985 241.175 84.6818C241.175 85.2652 241.268 85.8068 241.453 86.3068C241.639 86.8068 241.925 87.2102 242.311 87.517C242.697 87.8239 243.19 87.9773 243.788 87.9773ZM256.267 77L256.949 77.8182C256.684 78.0758 256.377 78.2557 256.028 78.358C255.68 78.4602 255.286 78.5227 254.847 78.5455C254.407 78.5682 253.919 78.5909 253.381 78.6136C252.775 78.6364 252.273 78.7841 251.875 79.0568C251.477 79.3295 251.17 79.7235 250.955 80.2386C250.739 80.7538 250.6 81.3864 250.54 82.1364H250.653C250.949 81.5909 251.358 81.1894 251.881 80.9318C252.403 80.6742 252.964 80.5455 253.562 80.5455C254.244 80.5455 254.858 80.7045 255.403 81.0227C255.949 81.3409 256.381 81.8125 256.699 82.4375C257.017 83.0625 257.176 83.8333 257.176 84.75C257.176 85.6629 257.013 86.4508 256.688 87.1136C256.366 87.7765 255.913 88.2879 255.33 88.6477C254.75 89.0038 254.07 89.1818 253.29 89.1818C252.509 89.1818 251.826 88.9981 251.239 88.6307C250.652 88.2595 250.195 87.7102 249.869 86.983C249.544 86.2519 249.381 85.3485 249.381 84.2727V83.3409C249.381 81.3977 249.71 79.9242 250.369 78.9205C251.032 77.9167 252.028 77.3977 253.358 77.3636C253.828 77.3485 254.246 77.3447 254.614 77.3523C254.981 77.3598 255.301 77.3428 255.574 77.3011C255.847 77.2595 256.078 77.1591 256.267 77ZM253.29 87.9773C253.816 87.9773 254.269 87.8447 254.648 87.5795C255.03 87.3144 255.324 86.9413 255.528 86.4602C255.733 85.9754 255.835 85.4053 255.835 84.75C255.835 84.1136 255.731 83.572 255.523 83.125C255.318 82.678 255.025 82.3371 254.642 82.1023C254.259 81.8674 253.801 81.75 253.267 81.75C252.877 81.75 252.527 81.8163 252.216 81.9489C251.905 82.0814 251.64 82.2765 251.42 82.5341C251.201 82.7917 251.03 83.1061 250.909 83.4773C250.792 83.8485 250.729 84.2727 250.722 84.75C250.722 85.7273 250.951 86.5095 251.409 87.0966C251.867 87.6837 252.494 87.9773 253.29 87.9773ZM261.795 89.2045C261.242 89.2045 260.741 89.1004 260.29 88.892C259.839 88.6799 259.481 88.375 259.216 87.9773C258.951 87.5758 258.818 87.0909 258.818 86.5227C258.818 86.0227 258.917 85.6174 259.114 85.3068C259.311 84.9924 259.574 84.7462 259.903 84.5682C260.233 84.3902 260.597 84.2576 260.994 84.1705C261.396 84.0795 261.799 84.0076 262.205 83.9545C262.735 83.8864 263.165 83.8352 263.494 83.8011C263.828 83.7633 264.07 83.7008 264.222 83.6136C264.377 83.5265 264.455 83.375 264.455 83.1591V83.1136C264.455 82.553 264.301 82.1174 263.994 81.8068C263.691 81.4962 263.231 81.3409 262.614 81.3409C261.973 81.3409 261.472 81.4811 261.108 81.7614C260.744 82.0417 260.489 82.3409 260.341 82.6591L259.068 82.2045C259.295 81.6742 259.598 81.2614 259.977 80.9659C260.36 80.6667 260.777 80.4583 261.227 80.3409C261.682 80.2197 262.129 80.1591 262.568 80.1591C262.848 80.1591 263.17 80.1932 263.534 80.2614C263.902 80.3258 264.256 80.4602 264.597 80.6648C264.941 80.8693 265.227 81.178 265.455 81.5909C265.682 82.0038 265.795 82.5568 265.795 83.25V89H264.455V87.8182H264.386C264.295 88.0076 264.144 88.2102 263.932 88.4261C263.72 88.642 263.438 88.8258 263.085 88.9773C262.733 89.1288 262.303 89.2045 261.795 89.2045ZM262 88C262.53 88 262.977 87.8958 263.341 87.6875C263.708 87.4792 263.985 87.2102 264.17 86.8807C264.36 86.5511 264.455 86.2045 264.455 85.8409V84.6136C264.398 84.6818 264.273 84.7443 264.08 84.8011C263.89 84.8542 263.67 84.9015 263.42 84.9432C263.174 84.9811 262.934 85.0152 262.699 85.0455C262.468 85.072 262.28 85.0947 262.136 85.1136C261.788 85.1591 261.462 85.233 261.159 85.3352C260.86 85.4337 260.617 85.5833 260.432 85.7841C260.25 85.9811 260.159 86.25 260.159 86.5909C260.159 87.0568 260.331 87.4091 260.676 87.6477C261.025 87.8826 261.466 88 262 88ZM268.243 89V80.2727H271.811C272.75 80.2727 273.497 80.4848 274.05 80.9091C274.603 81.3333 274.879 81.8939 274.879 82.5909C274.879 83.1212 274.722 83.5322 274.408 83.8239C274.093 84.1117 273.69 84.3068 273.197 84.4091C273.519 84.4545 273.832 84.5682 274.135 84.75C274.442 84.9318 274.696 85.1818 274.896 85.5C275.097 85.8144 275.197 86.2008 275.197 86.6591C275.197 87.1061 275.084 87.5057 274.857 87.858C274.629 88.2102 274.304 88.4886 273.879 88.6932C273.455 88.8977 272.947 89 272.357 89H268.243ZM269.516 87.7727H272.357C272.819 87.7727 273.18 87.6629 273.442 87.4432C273.703 87.2235 273.834 86.9242 273.834 86.5455C273.834 86.0947 273.703 85.7405 273.442 85.483C273.18 85.2216 272.819 85.0909 272.357 85.0909H269.516V87.7727ZM269.516 83.9318H271.811C272.171 83.9318 272.48 83.8826 272.737 83.7841C272.995 83.6818 273.192 83.5379 273.328 83.3523C273.468 83.1629 273.538 82.9394 273.538 82.6818C273.538 82.3144 273.385 82.0265 273.078 81.8182C272.771 81.6061 272.349 81.5 271.811 81.5H269.516V83.9318ZM278.568 87.0227L282.773 80.2727H284.318V89H282.977V82.25L278.795 89H277.227V80.2727H278.568V87.0227ZM285.587 81.5227V80.2727H292.678V81.5227H289.814V89H288.473V81.5227H285.587ZM295.793 83.4318H298.293C299.315 83.4318 300.098 83.6913 300.639 84.2102C301.181 84.7292 301.452 85.3864 301.452 86.1818C301.452 86.7045 301.33 87.1799 301.088 87.608C300.846 88.0322 300.49 88.3712 300.02 88.625C299.55 88.875 298.974 89 298.293 89H294.634V80.2727H295.974V87.75H298.293C298.823 87.75 299.259 87.6098 299.599 87.3295C299.94 87.0492 300.111 86.6894 300.111 86.25C300.111 85.7879 299.94 85.411 299.599 85.1193C299.259 84.8277 298.823 84.6818 298.293 84.6818H295.793V83.4318Z"
          fill="#002033"
        />
      </g>
      <g clip-path="url(#clip2_57_840)">
        <path
          d="M235.25 124L231.25 118.659H229.818V124H228.409V112.364H229.818V117.409H230.432L235.091 112.364H236.773L232.068 117.477L236.932 124H235.25ZM241.476 124.182C240.688 124.182 239.997 123.994 239.402 123.619C238.811 123.244 238.349 122.72 238.016 122.045C237.686 121.371 237.521 120.583 237.521 119.682C237.521 118.773 237.686 117.979 238.016 117.301C238.349 116.623 238.811 116.097 239.402 115.722C239.997 115.347 240.688 115.159 241.476 115.159C242.264 115.159 242.953 115.347 243.544 115.722C244.139 116.097 244.601 116.623 244.93 117.301C245.264 117.979 245.43 118.773 245.43 119.682C245.43 120.583 245.264 121.371 244.93 122.045C244.601 122.72 244.139 123.244 243.544 123.619C242.953 123.994 242.264 124.182 241.476 124.182ZM241.476 122.977C242.074 122.977 242.567 122.824 242.953 122.517C243.339 122.21 243.625 121.807 243.811 121.307C243.997 120.807 244.089 120.265 244.089 119.682C244.089 119.098 243.997 118.555 243.811 118.051C243.625 117.547 243.339 117.14 242.953 116.83C242.567 116.519 242.074 116.364 241.476 116.364C240.877 116.364 240.385 116.519 239.999 116.83C239.612 117.14 239.326 117.547 239.141 118.051C238.955 118.555 238.862 119.098 238.862 119.682C238.862 120.265 238.955 120.807 239.141 121.307C239.326 121.807 239.612 122.21 239.999 122.517C240.385 122.824 240.877 122.977 241.476 122.977ZM247.477 124V115.273H254.341V124H253V116.523H248.818V124H247.477ZM258.131 122.023L262.335 115.273H263.881V124H262.54V117.25L258.358 124H256.79V115.273H258.131V122.023ZM266.337 127.273V115.273H267.632V116.659H267.791C267.89 116.508 268.026 116.314 268.2 116.08C268.378 115.841 268.632 115.629 268.962 115.443C269.295 115.254 269.746 115.159 270.314 115.159C271.049 115.159 271.696 115.343 272.257 115.71C272.818 116.078 273.255 116.598 273.57 117.273C273.884 117.947 274.041 118.742 274.041 119.659C274.041 120.583 273.884 121.384 273.57 122.062C273.255 122.737 272.82 123.259 272.263 123.631C271.706 123.998 271.064 124.182 270.337 124.182C269.776 124.182 269.327 124.089 268.99 123.903C268.653 123.714 268.393 123.5 268.212 123.261C268.03 123.019 267.89 122.818 267.791 122.659H267.678V127.273H266.337ZM267.655 119.636C267.655 120.295 267.751 120.877 267.945 121.381C268.138 121.881 268.42 122.273 268.791 122.557C269.162 122.837 269.617 122.977 270.155 122.977C270.715 122.977 271.183 122.83 271.558 122.534C271.937 122.235 272.221 121.833 272.411 121.33C272.604 120.822 272.7 120.258 272.7 119.636C272.7 119.023 272.606 118.47 272.416 117.977C272.231 117.481 271.948 117.089 271.57 116.801C271.195 116.509 270.723 116.364 270.155 116.364C269.609 116.364 269.151 116.502 268.78 116.778C268.409 117.051 268.128 117.434 267.939 117.926C267.75 118.415 267.655 118.985 267.655 119.636ZM279.632 124.182C278.844 124.182 278.153 123.994 277.558 123.619C276.967 123.244 276.505 122.72 276.172 122.045C275.842 121.371 275.678 120.583 275.678 119.682C275.678 118.773 275.842 117.979 276.172 117.301C276.505 116.623 276.967 116.097 277.558 115.722C278.153 115.347 278.844 115.159 279.632 115.159C280.42 115.159 281.109 115.347 281.7 115.722C282.295 116.097 282.757 116.623 283.087 117.301C283.42 117.979 283.587 118.773 283.587 119.682C283.587 120.583 283.42 121.371 283.087 122.045C282.757 122.72 282.295 123.244 281.7 123.619C281.109 123.994 280.42 124.182 279.632 124.182ZM279.632 122.977C280.231 122.977 280.723 122.824 281.109 122.517C281.496 122.21 281.782 121.807 281.967 121.307C282.153 120.807 282.246 120.265 282.246 119.682C282.246 119.098 282.153 118.555 281.967 118.051C281.782 117.547 281.496 117.14 281.109 116.83C280.723 116.519 280.231 116.364 279.632 116.364C279.034 116.364 278.541 116.519 278.155 116.83C277.768 117.14 277.482 117.547 277.297 118.051C277.111 118.555 277.018 119.098 277.018 119.682C277.018 120.265 277.111 120.807 277.297 121.307C277.482 121.807 277.768 122.21 278.155 122.517C278.541 122.824 279.034 122.977 279.632 122.977ZM285.634 124V115.273H289.202C290.141 115.273 290.887 115.485 291.44 115.909C291.993 116.333 292.27 116.894 292.27 117.591C292.27 118.121 292.113 118.532 291.798 118.824C291.484 119.112 291.08 119.307 290.588 119.409C290.91 119.455 291.223 119.568 291.526 119.75C291.832 119.932 292.086 120.182 292.287 120.5C292.488 120.814 292.588 121.201 292.588 121.659C292.588 122.106 292.474 122.506 292.247 122.858C292.02 123.21 291.694 123.489 291.27 123.693C290.846 123.898 290.338 124 289.747 124H285.634ZM286.906 122.773H289.747C290.209 122.773 290.571 122.663 290.832 122.443C291.094 122.223 291.224 121.924 291.224 121.545C291.224 121.095 291.094 120.741 290.832 120.483C290.571 120.222 290.209 120.091 289.747 120.091H286.906V122.773ZM286.906 118.932H289.202C289.562 118.932 289.87 118.883 290.128 118.784C290.385 118.682 290.582 118.538 290.719 118.352C290.859 118.163 290.929 117.939 290.929 117.682C290.929 117.314 290.776 117.027 290.469 116.818C290.162 116.606 289.74 116.5 289.202 116.5H286.906V118.932ZM297.186 124.205C296.633 124.205 296.131 124.1 295.68 123.892C295.23 123.68 294.872 123.375 294.607 122.977C294.341 122.576 294.209 122.091 294.209 121.523C294.209 121.023 294.307 120.617 294.504 120.307C294.701 119.992 294.964 119.746 295.294 119.568C295.624 119.39 295.987 119.258 296.385 119.17C296.786 119.08 297.19 119.008 297.595 118.955C298.125 118.886 298.555 118.835 298.885 118.801C299.218 118.763 299.461 118.701 299.612 118.614C299.768 118.527 299.845 118.375 299.845 118.159V118.114C299.845 117.553 299.692 117.117 299.385 116.807C299.082 116.496 298.622 116.341 298.004 116.341C297.364 116.341 296.862 116.481 296.499 116.761C296.135 117.042 295.879 117.341 295.732 117.659L294.459 117.205C294.686 116.674 294.989 116.261 295.368 115.966C295.75 115.667 296.167 115.458 296.618 115.341C297.072 115.22 297.519 115.159 297.959 115.159C298.239 115.159 298.561 115.193 298.925 115.261C299.292 115.326 299.646 115.46 299.987 115.665C300.332 115.869 300.618 116.178 300.845 116.591C301.072 117.004 301.186 117.557 301.186 118.25V124H299.845V122.818H299.777C299.686 123.008 299.535 123.21 299.322 123.426C299.11 123.642 298.828 123.826 298.476 123.977C298.124 124.129 297.694 124.205 297.186 124.205ZM297.391 123C297.921 123 298.368 122.896 298.732 122.688C299.099 122.479 299.375 122.21 299.561 121.881C299.75 121.551 299.845 121.205 299.845 120.841V119.614C299.788 119.682 299.663 119.744 299.47 119.801C299.281 119.854 299.061 119.902 298.811 119.943C298.565 119.981 298.324 120.015 298.089 120.045C297.858 120.072 297.671 120.095 297.527 120.114C297.179 120.159 296.853 120.233 296.55 120.335C296.25 120.434 296.008 120.583 295.822 120.784C295.641 120.981 295.55 121.25 295.55 121.591C295.55 122.057 295.722 122.409 296.067 122.648C296.415 122.883 296.857 123 297.391 123ZM302.446 116.523V115.273H309.537V116.523H306.673V124H305.332V116.523H302.446ZM312.652 118.432H315.152C316.175 118.432 316.957 118.691 317.499 119.21C318.04 119.729 318.311 120.386 318.311 121.182C318.311 121.705 318.19 122.18 317.947 122.608C317.705 123.032 317.349 123.371 316.879 123.625C316.41 123.875 315.834 124 315.152 124H311.493V115.273H312.834V122.75H315.152C315.682 122.75 316.118 122.61 316.459 122.33C316.8 122.049 316.97 121.689 316.97 121.25C316.97 120.788 316.8 120.411 316.459 120.119C316.118 119.828 315.682 119.682 315.152 119.682H312.652V118.432Z"
          fill="#002033"
        />
      </g>
      <g clip-path="url(#clip3_57_840)">
        <path
          d="M229.023 159.159V157.841H229.75C230.03 157.841 230.265 157.786 230.455 157.676C230.648 157.566 230.807 157.424 230.932 157.25C231.061 157.076 231.167 156.894 231.25 156.705L231.432 156.273L227.409 147.364H228.932L232.136 154.591L235.068 147.364H236.568L232.545 157.114C232.386 157.477 232.205 157.814 232 158.125C231.799 158.436 231.525 158.686 231.176 158.875C230.831 159.064 230.364 159.159 229.773 159.159H229.023ZM237.28 161.5V157.75H238.007C238.185 157.564 238.339 157.364 238.467 157.148C238.596 156.932 238.708 156.676 238.803 156.381C238.901 156.081 238.984 155.718 239.053 155.29C239.121 154.858 239.181 154.337 239.234 153.727L239.53 150.273H245.075V157.75H246.416V161.5H245.075V159H238.621V161.5H237.28ZM239.53 157.75H243.734V151.523H240.78L240.553 153.727C240.458 154.64 240.34 155.437 240.2 156.119C240.06 156.801 239.837 157.345 239.53 157.75ZM250.764 159.205C250.211 159.205 249.709 159.1 249.259 158.892C248.808 158.68 248.45 158.375 248.185 157.977C247.92 157.576 247.787 157.091 247.787 156.523C247.787 156.023 247.885 155.617 248.082 155.307C248.279 154.992 248.543 154.746 248.872 154.568C249.202 154.39 249.565 154.258 249.963 154.17C250.365 154.08 250.768 154.008 251.173 153.955C251.704 153.886 252.134 153.835 252.463 153.801C252.796 153.763 253.039 153.701 253.19 153.614C253.346 153.527 253.423 153.375 253.423 153.159V153.114C253.423 152.553 253.27 152.117 252.963 151.807C252.66 151.496 252.2 151.341 251.582 151.341C250.942 151.341 250.44 151.481 250.077 151.761C249.713 152.042 249.457 152.341 249.31 152.659L248.037 152.205C248.264 151.674 248.567 151.261 248.946 150.966C249.329 150.667 249.745 150.458 250.196 150.341C250.651 150.22 251.098 150.159 251.537 150.159C251.817 150.159 252.139 150.193 252.503 150.261C252.87 150.326 253.224 150.46 253.565 150.665C253.91 150.869 254.196 151.178 254.423 151.591C254.651 152.004 254.764 152.557 254.764 153.25V159H253.423V157.818H253.355C253.264 158.008 253.113 158.21 252.901 158.426C252.688 158.642 252.406 158.826 252.054 158.977C251.702 159.129 251.272 159.205 250.764 159.205ZM250.969 158C251.499 158 251.946 157.896 252.31 157.688C252.677 157.479 252.954 157.21 253.139 156.881C253.329 156.551 253.423 156.205 253.423 155.841V154.614C253.366 154.682 253.241 154.744 253.048 154.801C252.859 154.854 252.639 154.902 252.389 154.943C252.143 154.981 251.902 155.015 251.668 155.045C251.437 155.072 251.249 155.095 251.105 155.114C250.757 155.159 250.431 155.233 250.128 155.335C249.829 155.434 249.586 155.583 249.401 155.784C249.219 155.981 249.128 156.25 249.128 156.591C249.128 157.057 249.3 157.409 249.645 157.648C249.993 157.883 250.435 158 250.969 158ZM256.439 159V157.75H256.757C257.018 157.75 257.236 157.699 257.411 157.597C257.585 157.491 257.725 157.307 257.831 157.045C257.941 156.78 258.024 156.413 258.081 155.943C258.142 155.47 258.185 154.867 258.212 154.136L258.371 150.273H264.189V159H262.848V151.523H259.643L259.507 154.636C259.477 155.352 259.412 155.983 259.314 156.528C259.219 157.07 259.073 157.525 258.876 157.892C258.683 158.259 258.426 158.536 258.104 158.722C257.782 158.907 257.378 159 256.893 159H256.439ZM267.99 157.023L272.195 150.273H273.74V159H272.399V152.25L268.217 159H266.649V150.273H267.99V157.023ZM275.009 151.523V150.273H282.099V151.523H279.236V159H277.895V151.523H275.009ZM285.214 153.432H287.714C288.737 153.432 289.519 153.691 290.061 154.21C290.603 154.729 290.874 155.386 290.874 156.182C290.874 156.705 290.752 157.18 290.51 157.608C290.268 158.032 289.911 158.371 289.442 158.625C288.972 158.875 288.396 159 287.714 159H284.055V150.273H285.396V157.75H287.714C288.245 157.75 288.68 157.61 289.021 157.33C289.362 157.049 289.533 156.689 289.533 156.25C289.533 155.788 289.362 155.411 289.021 155.119C288.68 154.828 288.245 154.682 287.714 154.682H285.214V153.432Z"
          fill="#002033"
        />
      </g>
    </g>
    <rect x="191" y="16" width="40" height="40" rx="4" fill="white" />
    <rect
      x="191"
      y="16"
      width="40"
      height="40"
      rx="4"
      fill="#004269"
      fill-opacity="0.07"
    />
    <path
      d="M211 32C212.1 32 213 31.1 213 30C213 28.9 212.1 28 211 28C209.9 28 209 28.9 209 30C209 31.1 209.9 32 211 32ZM211 34C209.9 34 209 34.9 209 36C209 37.1 209.9 38 211 38C212.1 38 213 37.1 213 36C213 34.9 212.1 34 211 34ZM211 40C209.9 40 209 40.9 209 42C209 43.1 209.9 44 211 44C212.1 44 213 43.1 213 42C213 40.9 212.1 40 211 40Z"
      fill="#00395C"
      fill-opacity="0.8"
    />
    <path
      fill-rule="evenodd"
      clip-rule="evenodd"
      d="M210 147C209.448 147 209 147.448 209 148V149H205V150H206V159C206 160.105 206.895 161 208 161H214C215.105 161 216 160.105 216 159V150H217V149H213V148C213 147.448 212.552 147 212 147H210ZM209 152H210V158H209V152ZM213 152H212V158H213V152Z"
      fill="black"
    />
    <path
      d="M204 117C204 116.448 204.448 116 205 116H213C213.552 116 214 116.448 214 117V125C214 125.552 213.552 126 213 126H205C204.448 126 204 125.552 204 125V117Z"
      fill="black"
    />
    <path
      d="M209 112C208.448 112 208 112.448 208 113V114H215C215.552 114 216 114.448 216 115V122H217C217.552 122 218 121.552 218 121V113C218 112.448 217.552 112 217 112H209Z"
      fill="black"
    />
    <path d="M212 78H210V83H205V85H210V90H212V85H217V83H212V78Z" fill="black" />
  </g>
  <defs>
    <filter
      id="filter0_dd_57_840"
      x="167"
      y="42"
      width="412"
      height="169"
      filterUnits="userSpaceOnUse"
      color-interpolation-filters="sRGB"
    >
      <feFlood flood-opacity="0" result="BackgroundImageFix" />
      <feColorMatrix
        in="SourceAlpha"
        type="matrix"
        values="0 0 0 0 0 0 0 0 0 0 0 0 0 0 0 0 0 0 127 0"
        result="hardAlpha"
      />
      <feOffset dy="8" />
      <feGaussianBlur stdDeviation="12" />
      <feColorMatrix
        type="matrix"
        values="0 0 0 0 0 0 0 0 0 0.12549 0 0 0 0 0.2 0 0 0 0.12 0"
      />
      <feBlend
        mode="normal"
        in2="BackgroundImageFix"
        result="effect1_dropShadow_57_840"
      />
      <feColorMatrix
        in="SourceAlpha"
        type="matrix"
        values="0 0 0 0 0 0 0 0 0 0 0 0 0 0 0 0 0 0 127 0"
        result="hardAlpha"
      />
      <feOffset dy="4" />
      <feGaussianBlur stdDeviation="2" />
      <feColorMatrix
        type="matrix"
        values="0 0 0 0 0 0 0 0 0 0.12549 0 0 0 0 0.2 0 0 0 0.04 0"
      />
      <feBlend
        mode="normal"
        in2="effect1_dropShadow_57_840"
        result="effect2_dropShadow_57_840"
      />
      <feBlend
        mode="normal"
        in="SourceGraphic"
        in2="effect2_dropShadow_57_840"
        result="shape"
      />
    </filter>
    <clipPath id="clip0_57_840">
      <rect width="818" height="220" fill="white" />
    </clipPath>
    <clipPath id="clip1_57_840">
      <rect
        width="316"
        height="19"
        fill="white"
        transform="translate(227 74)"
      />
    </clipPath>
    <clipPath id="clip2_57_840">
      <rect
        width="316"
        height="19"
        fill="white"
        transform="translate(227 109)"
      />
    </clipPath>
    <clipPath id="clip3_57_840">
      <rect
        width="316"
        height="19"
        fill="white"
        transform="translate(227 144)"
      />
    </clipPath>
  </defs>
</svg>
