<svg
  width="200"
  height="120"
  viewBox="0 0 200 120"
  fill="none"
  xmlns="http://www.w3.org/2000/svg"
>
  <g clip-path="url(#clip0_1789_8756)">
    <rect width="200" height="120" rx="4" fill="var(--color-bg-default)" />
    <path
      d="M41 69H45V57H41V69ZM63 58C63 56.9 62.1 56 61 56H54.69L55.64 51.43L55.67 51.11C55.67 50.7 55.5 50.32 55.23 50.05L54.17 49L47.59 55.59C47.22 55.95 47 56.45 47 57V67C47 68.1 47.9 69 49 69H58C58.83 69 59.54 68.5 59.84 67.78L62.86 60.73C62.95 60.5 63 60.26 63 60V58.09L62.99 58.08L63 58Z"
      fill="var(--color-bg-link)"
    />
    <path
      d="M96.2048 49C95.6525 49 95.2048 49.4477 95.2048 50V51.1429C95.2048 51.6951 95.6525 52.1429 96.2048 52.1429H96.7698V58.4287L94.3949 62.2442L104.62 60.9835L103.03 58.4286L103.03 52.1429H103.595C104.147 52.1429 104.595 51.6951 104.595 51.1429V50C104.595 49.4477 104.147 49 103.595 49H96.2048Z"
      fill="var(--color-bg-link)"
    />
    <path
      fill-rule="evenodd"
      clip-rule="evenodd"
      d="M105.536 62.4539L93.3275 63.959L90.0865 69.1659C89.5889 69.9652 90.1637 71 91.1052 71H108.695C109.636 71 110.211 69.9652 109.714 69.1659L105.536 62.4539ZM96.9999 68C96.9999 69.1046 96.1044 70 94.9999 70C93.8953 70 92.9999 69.1046 92.9999 68C92.9999 66.8954 93.8953 66 94.9999 66C96.1044 66 96.9999 66.8954 96.9999 68ZM100.5 67C101.328 67 102 66.3284 102 65.5C102 64.6716 101.328 64 100.5 64C99.6715 64 98.9999 64.6716 98.9999 65.5C98.9999 66.3284 99.6715 67 100.5 67ZM104 69C104 69.5523 103.552 70 103 70C102.448 70 102 69.5523 102 69C102 68.4477 102.448 68 103 68C103.552 68 104 68.4477 104 69ZM105 67C105.552 67 106 66.5523 106 66C106 65.4477 105.552 65 105 65C104.448 65 104 65.4477 104 66C104 66.5523 104.448 67 105 67Z"
      fill="var(--color-bg-link)"
    />
    <path d="M145 57H143V59H145V57Z" fill="var(--color-bg-link)" />
    <path d="M151 57H153V59H151V57Z" fill="var(--color-bg-link)" />
    <path
      d="M152.026 60.7718C151.017 65.0764 144.982 65.0735 143.974 60.7778L142.026 61.2348C143.518 67.5897 152.483 67.589 153.974 61.2282L152.026 60.7718Z"
      fill="var(--color-bg-link)"
    />
    <path
      fill-rule="evenodd"
      clip-rule="evenodd"
      d="M160 60C160 66.6274 154.627 72 148 72C141.373 72 136 66.6274 136 60C136 53.3726 141.373 48 148 48C154.627 48 160 53.3726 160 60ZM158 60C158 65.5228 153.523 70 148 70C142.477 70 138 65.5228 138 60C138 54.4772 142.477 50 148 50C153.523 50 158 54.4772 158 60Z"
      fill="var(--color-bg-link)"
    />
  </g>
  <defs>
    <clipPath id="clip0_1789_8756">
      <rect width="200" height="120" rx="3" fill="var(--color-bg-default)" />
    </clipPath>
  </defs>
</svg>
