<svg viewBox="0 0 21 28" xmlns="http://www.w3.org/2000/svg">
  <path
    d="M19.6 0H1.4C0.626801 0 0 0.626801 0 1.4V26.6C0 27.3732 0.626801 28 1.4 28H19.6C20.3732 28 21 27.3732 21 26.6V1.4C21 0.626801 20.3732 0 19.6 0Z"
  />
  <path
    fill-rule="evenodd"
    clip-rule="evenodd"
    d="M15.27 8.66961C15.45 8.88961 15.71 8.99961 16.05 8.99961L17 9V8.00039L16.45 8C16.2967 8 16.1833 7.97 16.11 7.91C16.0367 7.85 16 7.74667 16 7.6V4.9998H17V3.99961H16V3H15V3.99961H14V4.9998H15V7.79961C15 8.15961 15.09 8.44961 15.27 8.66961ZM4.8 4.24V4H4V11H5.01V9H6.3C6.88 9 7.30667 8.87333 7.58 8.62C7.86 8.36667 8 7.96 8 7.4V5.6C8 5.03333 7.86333 4.62667 7.59 4.38C7.31667 4.12667 6.88667 4 6.3 4H5.6C5.27333 4 5.00667 4.08 4.8 4.24ZM5.16 5.18C5.26667 5.06 5.43 5 5.65 5H6.25C6.49667 5 6.68333 5.05667 6.81 5.17C6.93667 5.28333 7 5.44333 7 5.65V7.35C7 7.55667 6.93667 7.71667 6.81 7.83C6.68333 7.94333 6.49667 8 6.25 8H5.01L5 5.55C5 5.41667 5.05333 5.29333 5.16 5.18ZM9.79 4.24V4H8.99V11H10V9H11.29C11.87 9 12.2967 8.87333 12.57 8.62C12.85 8.36667 12.99 7.96 12.99 7.4V5.6C12.99 5.03333 12.8533 4.62667 12.58 4.38C12.3067 4.12667 11.8767 4 11.29 4H10.59C10.2633 4 9.99667 4.08 9.79 4.24ZM10.15 5.18C10.2567 5.06 10.42 5 10.64 5H11.24C11.4867 5 11.6733 5.05667 11.8 5.17C11.9267 5.28333 11.99 5.44333 11.99 5.65V7.35C11.99 7.55667 11.9267 7.71667 11.8 7.83C11.6733 7.94333 11.4867 8 11.24 8H10L9.99 5.55C9.99 5.41667 10.0433 5.29333 10.15 5.18Z"
    fill="#fff"
  />
  <path
    opacity="0.6"
    fill-rule="evenodd"
    clip-rule="evenodd"
    d="M12 17H17C17 14.2386 14.7614 12 12 12L12 17ZM10 13V19H16C16 19.3407 15.9716 19.6748 15.917 20C15.441 22.8377 12.973 25 10 25C6.68629 25 4 22.3137 4 19C4 16.027 6.16229 13.559 9 13.083C9.32521 13.0284 9.65929 13 10 13ZM9 20H14.9C14.4367 22.2822 12.419 24 10 24C7.23858 24 5 21.7614 5 19C5 16.581 6.71776 14.5633 9 14.1V20Z"
    fill="#fff"
  />
</svg>
