<svg viewBox="0 0 34 40" xmlns="http://www.w3.org/2000/svg">
  <path
    d="M32 0H2C0.89543 0 0 0.89543 0 2V38C0 39.1046 0.89543 40 2 40H32C33.1046 40 34 39.1046 34 38V2C34 0.89543 33.1046 0 32 0Z"
  />
  <path
    opacity="0.6"
    d="M25 24C25 23.0807 24.8189 22.1705 24.4672 21.3212C24.1154 20.4719 23.5998 19.7003 22.9497 19.0503C22.2997 18.4002 21.5281 17.8846 20.6788 17.5328C19.8295 17.1811 18.9193 17 18 17L18 24H25Z"
    fill="white"
  />
  <path
    opacity="0.6"
    d="M22 26C22 27.1867 21.6481 28.3467 20.9888 29.3334C20.3295 30.3201 19.3925 31.0892 18.2961 31.5433C17.1997 31.9974 15.9933 32.1162 14.8295 31.8847C13.6656 31.6532 12.5965 31.0818 11.7574 30.2426C10.9182 29.4035 10.3468 28.3344 10.1153 27.1705C9.88378 26.0067 10.0026 24.8003 10.4567 23.7039C10.9108 22.6075 11.6799 21.6705 12.6666 21.0112C13.6533 20.3519 14.8133 20 16 20L16 26H22Z"
    stroke="white"
  />
  <path
    fill-rule="evenodd"
    clip-rule="evenodd"
    d="M21.27 11.6696C21.45 11.8896 21.71 11.9996 22.05 11.9996L23 12V11.0004L22.45 11C22.2967 11 22.1833 10.97 22.11 10.91C22.0367 10.85 22 10.7467 22 10.6V7.9998H23V6.99961H22V6H21V6.99961H20V7.9998H21V10.7996C21 11.1596 21.09 11.4496 21.27 11.6696ZM10.8 7.24V7H10V14H11.01V12H12.3C12.88 12 13.3067 11.8733 13.58 11.62C13.86 11.3667 14 10.96 14 10.4V8.6C14 8.03333 13.8633 7.62667 13.59 7.38C13.3167 7.12667 12.8867 7 12.3 7H11.6C11.2733 7 11.0067 7.08 10.8 7.24ZM11.16 8.18C11.2667 8.06 11.43 8 11.65 8H12.25C12.4967 8 12.6833 8.05667 12.81 8.17C12.9367 8.28333 13 8.44333 13 8.65V10.35C13 10.5567 12.9367 10.7167 12.81 10.83C12.6833 10.9433 12.4967 11 12.25 11H11.01L11 8.55C11 8.41667 11.0533 8.29333 11.16 8.18ZM15.79 7.24V7H14.99V14H16V12H17.29C17.87 12 18.2967 11.8733 18.57 11.62C18.85 11.3667 18.99 10.96 18.99 10.4V8.6C18.99 8.03333 18.8533 7.62667 18.58 7.38C18.3067 7.12667 17.8767 7 17.29 7H16.59C16.2633 7 15.9967 7.08 15.79 7.24ZM16.15 8.18C16.2567 8.06 16.42 8 16.64 8H17.24C17.4867 8 17.6733 8.05667 17.8 8.17C17.9267 8.28333 17.99 8.44333 17.99 8.65V10.35C17.99 10.5567 17.9267 10.7167 17.8 10.83C17.6733 10.9433 17.4867 11 17.24 11H16L15.99 8.55C15.99 8.41667 16.0433 8.29333 16.15 8.18Z"
    fill="white"
  />
</svg>
