<svg viewBox="0 0 24 28" xmlns="http://www.w3.org/2000/svg">
  <rect width="24" height="28" rx="2" />
  <path
    fill-rule="evenodd"
    clip-rule="evenodd"
    d="M17.27 8.66961C17.45 8.88961 17.71 8.99961 18.05 8.99961L19 9V8.00039L18.45 8C18.2967 8 18.1833 7.97 18.11 7.91C18.0367 7.85 18 7.74667 18 7.6V4.9998H19V3.99961H18V3H17V3.99961H16V4.9998H17V7.79961C17 8.15961 17.09 8.44961 17.27 8.66961ZM6.8 4.24V4H6V11H7.01V9H8.3C8.88 9 9.30667 8.87333 9.58 8.62C9.86 8.36667 10 7.96 10 7.4V5.6C10 5.03333 9.86333 4.62667 9.59 4.38C9.31667 4.12667 8.88667 4 8.3 4H7.6C7.27333 4 7.00667 4.08 6.8 4.24ZM7.16 5.18C7.26667 5.06 7.43 5 7.65 5H8.25C8.49667 5 8.68333 5.05667 8.81 5.17C8.93667 5.28333 9 5.44333 9 5.65V7.35C9 7.55667 8.93667 7.71667 8.81 7.83C8.68333 7.94333 8.49667 8 8.25 8H7.01L7 5.55C7 5.41667 7.05333 5.29333 7.16 5.18ZM11.79 4.24V4H10.99V11H12V9H13.29C13.87 9 14.2967 8.87333 14.57 8.62C14.85 8.36667 14.99 7.96 14.99 7.4V5.6C14.99 5.03333 14.8533 4.62667 14.58 4.38C14.3067 4.12667 13.8767 4 13.29 4H12.59C12.2633 4 11.9967 4.08 11.79 4.24ZM12.15 5.18C12.2567 5.06 12.42 5 12.64 5H13.24C13.4867 5 13.6733 5.05667 13.8 5.17C13.9267 5.28333 13.99 5.44333 13.99 5.65V7.35C13.99 7.55667 13.9267 7.71667 13.8 7.83C13.6733 7.94333 13.4867 8 13.24 8H12L11.99 5.55C11.99 5.41667 12.0433 5.29333 12.15 5.18Z"
    fill="white"
  />
  <path
    opacity="0.6"
    fill-rule="evenodd"
    clip-rule="evenodd"
    d="M14 17H19C19 14.2386 16.7614 12 14 12L14 17ZM12 13V19H18C18 19.3407 17.9716 19.6748 17.917 20C17.441 22.8377 14.973 25 12 25C8.68629 25 6 22.3137 6 19C6 16.027 8.16229 13.559 11 13.083C11.3252 13.0284 11.6593 13 12 13ZM11 20H16.9C16.4367 22.2822 14.419 24 12 24C9.23858 24 7 21.7614 7 19C7 16.581 8.71776 14.5633 11 14.1V20Z"
    fill="white"
  />
</svg>
