<svg xmlns="http://www.w3.org/2000/svg" width="100" height="16" fill="none">
  <path
    fill="#002033"
    fill-opacity=".6"
    fill-rule="evenodd"
    d="M88.4 1.3c0-.8.6-1.3 1.4-1.3.8 0 1.4.5 1.4 1.3 0 .9-.6 1.4-1.4 1.4-.8 0-1.4-.5-1.4-1.4zm.3 3.4h2.2v10.7h-2.2V4.7zM75.9 1h2.3V8L83.7 1h2.5l-4.4 5.6 5.2 8.8h-2.6l-4-7-2.2 2.7v4.3h-2.3V1zm18.7 5.5v5.4c0 2.3.9 3.8 3.3 3.8.8 0 1.5-.2 2.1-.4l-.4-1.7-1.2.3c-1 0-1.5-.7-1.5-2V6.5h2.8V4.7h-2.8v-3H95l-.3 3-1.6.1v1.7h1.5z"
    clip-rule="evenodd"
  />
  <path
    fill="#0078D2"
    fill-rule="evenodd"
    d="M10.8 11.2c-.7.5-1.5.8-2.8.7-2.3-.1-3.6-1.8-3.6-3.8 0-2 1.4-3.8 3.6-3.8 1.3 0 2 .2 2.7.7L13 2A8.3 8.3 0 007.7.3 7.4 7.4 0 000 8.1c0 4.4 3.2 7.6 7.7 7.6 2 0 3.9-.4 5.2-1.5l-2.1-3zM69.2 8c0-2.2-1.9-4-5.4-4-1.8 0-3.1.3-3.9.6l.7 2.9c3.9-1.2 5.2.1 5 1.7 0 0-1.5-.8-3.2-.8-2.4 0-3.8 1.7-3.8 3.6 0 2.4 1.5 3.6 3.8 3.6a4 4 0 003.2-1.5v1.2h3.6V8.1zm-5.6 5c-.9 0-1.3-.5-1.3-1.3 0-.7.6-1.2 1.3-1.2.9 0 1.4.1 1.9.3h.1c0 1-.6 2.2-2 2.2zM13.3 9.9c0-3.4 2.6-5.8 6-5.8s6 2.4 6 5.8-2.6 5.8-6 5.8-6-2.4-6-5.8zm3.8 0c0 1.5.9 2.5 2.2 2.5 1.3 0 2.2-1.1 2.2-2.5s-.9-2.4-2.2-2.4c-1.3 0-2.2 1-2.2 2.4zm16.2-5.8c-1.3 0-2.5.7-3.3 1.7V4.4h-3.5v11H30V9a1.6 1.6 0 113.2 0v6.4h3.6V7.6c0-2-1.3-3.5-3.5-3.5zm20 6.6c0 1 .7 1.7 2 1.7.5 0 1-.2 1.5-.4l1 2.8c-.7.4-2.1 1-3.7 1-2.7 0-4.3-1.4-4.3-3.3v-11h3.5v3h3.4l-.2 3h-3.2v3.2zm5 3.7v.1zm-19-2.3L38 14.2c1.5 1 3.3 1.6 5.3 1.6 3 0 4.7-1.5 4.7-3.9 0-2.3-1.6-3-4.3-3.8-1-.3-1.3-.6-1.3-1a.8.8 0 01.6-.6c1-.2 2.4.3 3.6 1l1.2-2.1c-1.3-.8-3-1.4-4.7-1.4-2.8 0-4.7 1.5-4.7 4 0 2.2 1.7 3 4.4 3.7 1 .3 1.2.7 1.2.9 0 .2-.2.5-.6.6a7 7 0 01-4.2-1.1z"
    clip-rule="evenodd"
  />
  <path
    fill="url(#paint0_linear)"
    fill-rule="evenodd"
    d="M10.8 11.2c-.7.5-1.5.8-2.8.7-2.3-.1-3.6-1.8-3.6-3.8 0-2 1.4-3.8 3.6-3.8 1.3 0 2 .2 2.7.7L13 2A8.3 8.3 0 007.7.3 7.4 7.4 0 000 8.1c0 4.4 3.2 7.6 7.7 7.6 2 0 3.9-.4 5.2-1.5l-2.1-3zM69.2 8c0-2.2-1.9-4-5.4-4-1.8 0-3.1.3-3.9.6l.7 2.9c3.9-1.2 5.2.1 5 1.7 0 0-1.5-.8-3.2-.8-2.4 0-3.8 1.7-3.8 3.6 0 2.4 1.5 3.6 3.8 3.6a4 4 0 003.2-1.5v1.2h3.6V8.1zm-5.6 5c-.9 0-1.3-.5-1.3-1.3 0-.7.6-1.2 1.3-1.2.9 0 1.4.1 1.9.3h.1c0 1-.6 2.2-2 2.2zM13.3 9.9c0-3.4 2.6-5.8 6-5.8s6 2.4 6 5.8-2.6 5.8-6 5.8-6-2.4-6-5.8zm3.8 0c0 1.5.9 2.5 2.2 2.5 1.3 0 2.2-1.1 2.2-2.5s-.9-2.4-2.2-2.4c-1.3 0-2.2 1-2.2 2.4zm16.2-5.8c-1.3 0-2.5.7-3.3 1.7V4.4h-3.5v11H30V9a1.6 1.6 0 113.2 0v6.4h3.6V7.6c0-2-1.3-3.5-3.5-3.5zm20 6.6c0 1 .7 1.7 2 1.7.5 0 1-.2 1.5-.4l1 2.8c-.7.4-2.1 1-3.7 1-2.7 0-4.3-1.4-4.3-3.3v-11h3.5v3h3.4l-.2 3h-3.2v3.2zm5 3.7v.1zm-19-2.3L38 14.2c1.5 1 3.3 1.6 5.3 1.6 3 0 4.7-1.5 4.7-3.9 0-2.3-1.6-3-4.3-3.8-1-.3-1.3-.6-1.3-1a.8.8 0 01.6-.6c1-.2 2.4.3 3.6 1l1.2-2.1c-1.3-.8-3-1.4-4.7-1.4-2.8 0-4.7 1.5-4.7 4 0 2.2 1.7 3 4.4 3.7 1 .3 1.2.7 1.2.9 0 .2-.2.5-.6.6a7 7 0 01-4.2-1.1z"
    clip-rule="evenodd"
    style="mix-blend-mode:overlay"
  />
  <defs>
    <linearGradient
      id="paint0_linear"
      x1="51.5"
      x2="14.9"
      y1="-23.5"
      y2="38.7"
      gradientUnits="userSpaceOnUse"
    >
      <stop stop-color="#fff" stop-opacity=".6" />
      <stop offset="1" stop-color="#fff" stop-opacity="0" />
    </linearGradient>
  </defs>
</svg>
