<svg width="24" height="24" viewBox="0 0 24 24" fill="none" xmlns="http://www.w3.org/2000/svg">
  <path
    d="M4.5 13.7691C4.5 9.81808 7.81009 6.52937 12 6.52937C16.1899 6.52937 19.5 9.81808 19.5 13.7691C19.5 15.5041 18.8688 17.0993 17.8055 18.3525L19.7025 20C21.1332 18.3138 22 16.1415 22 13.7691C22 8.32639 17.4751 4 12 4C6.52493 4 2 8.32639 2 13.7691C2 16.1415 2.86684 18.3138 4.29754 20L6.19447 18.3525C5.13117 17.0993 4.5 15.5041 4.5 13.7691Z"
    fill="black"
  />
  <path
    d="M11.1651 15.8125C11.9334 16.3545 12.9764 16.1841 13.4948 15.4318C14.0132 14.6796 16.0148 8.77541 16.0148 8.77541C16.0148 8.77541 11.2311 12.7169 10.7127 13.4692C10.1943 14.2214 10.3968 15.2705 11.1651 15.8125Z"
    fill="black"
  />
</svg>
