<svg width="16" height="16" viewBox="0 0 16 16" fill="none" xmlns="http://www.w3.org/2000/svg">
  <path
    d="M2 8.72451C2 5.60041 4.64807 3 8 3C11.3519 3 14 5.60041 14 8.72451C14 10.0964 13.4951 11.3577 12.6444 12.3486L14.162 13.6514C15.3065 12.318 16 10.6004 16 8.72451C16 4.42092 12.3801 1 8 1C3.61994 1 0 4.42092 0 8.72451C0 10.6004 0.693472 12.318 1.83803 13.6514L3.35558 12.3486C2.50494 11.3577 2 10.0964 2 8.72451Z"
    fill="black"
  />
  <path
    d="M7.33206 10.3403C7.94668 10.7688 8.78113 10.6341 9.19586 10.0393C9.61058 9.44448 11.2119 4.77596 11.2119 4.77596C11.2119 4.77596 7.38485 7.89256 6.97013 8.48735C6.5554 9.08214 6.71744 9.91173 7.33206 10.3403Z"
    fill="black"
  />
</svg>
