<svg width="12" height="12" viewBox="0 0 12 12" fill="none" xmlns="http://www.w3.org/2000/svg">
  <path
    d="M1 6.99511C1 4.21328 3.26129 2 6 2C8.73871 2 11 4.21328 11 6.99511C11 8.20842 10.567 9.31839 9.85154 10.1808L10.6212 10.8192C11.4795 9.78461 12 8.45077 12 6.99511C12 3.65391 9.28387 1 6 1C2.71613 1 0 3.65391 0 6.99511C0 8.45077 0.520486 9.78461 1.37883 10.8192L2.14846 10.1808C1.43304 9.31839 1 8.20842 1 6.99511Z"
    fill="black"
  />
  <path
    d="M6.89688 7.77939C6.58583 8.22549 5.96 8.32656 5.49903 8.00515C5.03807 7.68373 4.91654 7.06155 5.22758 6.61545C5.53863 6.16936 8.40888 3.83191 8.40888 3.83191C8.40888 3.83191 7.20792 7.3333 6.89688 7.77939Z"
    fill="black"
  />
</svg>
