<svg viewBox="0 0 16 16" xmlns="http://www.w3.org/2000/svg">
  <path
    fill-rule="evenodd"
    clip-rule="evenodd"
    d="M13.9695 5.52804C13.9414 4.89044 13.8383 4.45209 13.6905 4.07225C13.5381 3.66906 13.3037 3.30809 12.9965 3.00801C12.6963 2.70326 12.3329 2.46646 11.9343 2.31647C11.5522 2.16877 11.1161 2.06566 10.4783 2.03754C9.83584 2.00705 9.63188 2 8.00234 2C6.3728 2 6.16883 2.00705 5.52872 2.03516C4.89099 2.06328 4.45255 2.16648 4.07274 2.31409C3.66938 2.46646 3.30834 2.70088 3.0082 3.00801C2.7034 3.30809 2.46664 3.67144 2.31653 4.06996C2.1688 4.45209 2.06567 4.88805 2.03755 5.52566C2.00705 6.16803 2 6.37196 2 8.00119C2 9.63042 2.00705 9.83435 2.03517 10.4743C2.06329 11.1119 2.16651 11.5503 2.31424 11.9301C2.46664 12.3333 2.7034 12.6943 3.0082 12.9944C3.30834 13.2991 3.67176 13.5359 4.07036 13.6859C4.45255 13.8336 4.88861 13.9367 5.52643 13.9648C6.16645 13.993 6.37051 14 8.00005 14C9.62959 14 9.83355 13.993 10.4737 13.9648C11.1114 13.9367 11.5498 13.8336 11.9296 13.6859C12.7363 13.3741 13.374 12.7365 13.6859 11.9301C13.8335 11.548 13.9367 11.1119 13.9648 10.4743C13.9929 9.83435 14 9.63042 14 8.00119C14 6.37196 13.9976 6.16803 13.9695 5.52804ZM12.8887 10.4275C12.8628 11.0135 12.7644 11.33 12.6823 11.541C12.4806 12.0637 12.0657 12.4786 11.5428 12.6803C11.3318 12.7623 11.0129 12.8608 10.4291 12.8865C9.796 12.9147 9.60614 12.9217 8.00472 12.9217C6.40329 12.9217 6.21105 12.9147 5.58028 12.8865C4.99412 12.8608 4.67759 12.7623 4.46657 12.6803C4.20636 12.5841 3.96952 12.4318 3.77727 12.2325C3.57798 12.0379 3.42557 11.8035 3.32941 11.5433C3.24734 11.3324 3.14888 11.0135 3.12315 10.4298C3.09494 9.7969 3.08798 9.60698 3.08798 8.00586C3.08798 6.40474 3.09494 6.21254 3.12315 5.58198C3.14888 4.99592 3.24734 4.67946 3.32941 4.46848C3.42557 4.20823 3.57798 3.97152 3.77965 3.77922C3.97419 3.57996 4.20865 3.42759 4.46895 3.33153C4.67997 3.24948 4.99888 3.15105 5.58266 3.12522C6.21572 3.09711 6.40568 3.09006 8.00701 3.09006C9.61081 3.09006 9.80067 3.09711 10.4314 3.12522C11.0176 3.15105 11.3341 3.24948 11.5452 3.33153C11.8054 3.42759 12.0422 3.57996 12.2345 3.77922C12.4337 3.97381 12.5862 4.20823 12.6823 4.46848C12.7644 4.67946 12.8628 4.99821 12.8887 5.58198C12.9168 6.21492 12.9238 6.40474 12.9238 8.00586C12.9238 9.60698 12.9168 9.79451 12.8887 10.4275ZM8.00233 4.91855C6.30016 4.91855 4.9191 6.29925 4.9191 8.00119C4.9191 9.70312 6.30016 11.0838 8.00233 11.0838C9.70459 11.0838 11.0856 9.70312 11.0856 8.00119C11.0856 6.29925 9.70459 4.91855 8.00233 4.91855ZM8.00233 10.0008C6.89805 10.0008 6.00231 9.10535 6.00231 8.00119C6.00231 6.89703 6.89805 6.00155 8.00233 6.00155C9.1067 6.00155 10.0023 6.89703 10.0023 8.00119C10.0023 9.10535 9.1067 10.0008 8.00233 10.0008ZM11.2075 5.51632C11.605 5.51632 11.9273 5.19408 11.9273 4.79667C11.9273 4.39916 11.605 4.07701 11.2075 4.07701C10.81 4.07701 10.4877 4.39916 10.4877 4.79667C10.4877 5.19408 10.81 5.51632 11.2075 5.51632Z"
  />
</svg>
