<svg viewBox="0 0 24 24" xmlns="http://www.w3.org/2000/svg">
  <path
    fill-rule="evenodd"
    clip-rule="evenodd"
    d="M21.9492 7.88007C21.9023 6.81739 21.7304 6.08681 21.4842 5.45375C21.2302 4.78177 20.8394 4.18015 20.3274 3.68002C19.8272 3.17211 19.2215 2.77744 18.5572 2.52745C17.9203 2.28128 17.1934 2.10943 16.1306 2.06257C15.0597 2.01175 14.7198 2 12.0039 2C9.28799 2 8.94805 2.01175 7.8812 2.05861C6.81831 2.10546 6.08759 2.27746 5.45456 2.52348C4.7823 2.77744 4.18057 3.16814 3.68034 3.68002C3.17233 4.18015 2.77774 4.78574 2.52755 5.44993C2.28133 6.08681 2.10945 6.81342 2.06259 7.8761C2.01175 8.94672 2 9.2866 2 12.002C2 14.7174 2.01175 15.0572 2.05862 16.1239C2.10548 17.1866 2.27751 17.9172 2.52373 18.5502C2.77774 19.2222 3.17233 19.8238 3.68034 20.3239C4.18057 20.8319 4.78627 21.2265 5.45059 21.4765C6.08759 21.7227 6.81434 21.8945 7.87738 21.9414C8.94408 21.9884 9.28418 22 12.0001 22C14.716 22 15.0559 21.9884 16.1228 21.9414C17.1857 21.8945 17.9164 21.7227 18.5494 21.4765C19.8938 20.9569 20.9567 19.8942 21.4764 18.5502C21.7225 17.9133 21.8945 17.1866 21.9414 16.1239C21.9882 15.0572 22 14.7174 22 12.002C22 9.2866 21.996 8.94672 21.9492 7.88007ZM20.1478 16.0458C20.1047 17.0225 19.9406 17.55 19.8039 17.9016C19.4677 18.7729 18.7761 19.4644 17.9046 19.8005C17.5529 19.9372 17.0216 20.1013 16.0484 20.1442C14.9933 20.1912 14.6769 20.2028 12.0079 20.2028C9.33882 20.2028 9.01842 20.1912 7.96714 20.1442C6.99019 20.1013 6.46264 19.9372 6.11094 19.8005C5.67727 19.6402 5.28253 19.3863 4.96212 19.0542C4.62996 18.7299 4.37596 18.3391 4.21568 17.9056C4.0789 17.5539 3.91481 17.0225 3.87191 16.0497C3.8249 14.9948 3.8133 14.6783 3.8133 12.0098C3.8133 9.34124 3.8249 9.02089 3.87191 7.96996C3.91481 6.99321 4.0789 6.46576 4.21568 6.11413C4.37596 5.68039 4.62996 5.28587 4.96609 4.96537C5.29031 4.63327 5.68109 4.37932 6.11491 4.21922C6.46661 4.08247 6.99813 3.91841 7.9711 3.87537C9.0262 3.82852 9.34279 3.81677 12.0117 3.81677C14.6847 3.81677 15.0011 3.82852 16.0524 3.87537C17.0293 3.91841 17.5569 4.08247 17.9086 4.21922C18.3423 4.37932 18.737 4.63327 19.0574 4.96537C19.3896 5.28968 19.6436 5.68039 19.8039 6.11413C19.9406 6.46576 20.1047 6.99702 20.1478 7.96996C20.1946 9.02486 20.2064 9.34124 20.2064 12.0098C20.2064 14.6783 20.1946 14.9909 20.1478 16.0458ZM12.0039 6.8641C9.16693 6.8641 6.86516 9.16527 6.86516 12.0018C6.86516 14.8384 9.16693 17.1396 12.0039 17.1396C14.841 17.1396 17.1426 14.8384 17.1426 12.0018C17.1426 9.16527 14.841 6.8641 12.0039 6.8641ZM12.0039 15.3346C10.1634 15.3346 8.67052 13.8421 8.67052 12.0018C8.67052 10.1616 10.1634 8.66911 12.0039 8.66911C13.8445 8.66911 15.3372 10.1616 15.3372 12.0018C15.3372 13.8421 13.8445 15.3346 12.0039 15.3346ZM17.3458 7.86036C18.0084 7.86036 18.5456 7.3233 18.5456 6.66093C18.5456 5.99842 18.0084 5.46151 17.3458 5.46151C16.6833 5.46151 16.1461 5.99842 16.1461 6.66093C16.1461 7.3233 16.6833 7.86036 17.3458 7.86036Z"
  />
</svg>
