<svg viewBox="0 0 24 28" xmlns="http://www.w3.org/2000/svg">
  <rect width="24" height="28" rx="2" />
  <g opacity="0.5">
    <path d="M5 14H19V13H5V14Z" fill="white" />
    <path d="M5 17H19V16H5V17Z" fill="white" />
    <path d="M19 20H5V19H19V20Z" fill="white" />
    <path d="M5 23H12V22H5V23Z" fill="white" />
  </g>
  <path
    d="M8 8.77C7.78 8.92333 7.51333 9 7.2 9H6.7C6.11333 9 5.68333 8.87667 5.41 8.63C5.13667 8.37667 5 7.96667 5 7.4V5.6C5 5.04 5.13667 4.63333 5.41 4.38C5.69 4.12667 6.18 4 6.76 4H8V2H9V9H8V8.77ZM7.35 8C7.57 8 7.73333 7.94333 7.84 7.83C7.94667 7.71 8 7.58333 8 7.45V5H6.75C6.50333 5 6.31667 5.05667 6.19 5.17C6.06333 5.28333 6 5.44333 6 5.65V7.35C6 7.55667 6.06333 7.71667 6.19 7.83C6.31667 7.94333 6.50333 8 6.75 8H7.35Z"
    fill="white"
  />
  <path
    d="M14 7.4C14 7.96 13.86 8.36667 13.58 8.62C13.3067 8.87333 12.88 9 12.3 9L11.7 9C11.12 9 10.69 8.87333 10.41 8.62C10.1367 8.36667 10 7.96 10 7.4V5.6C10 5.04 10.1367 4.63333 10.41 4.38C10.69 4.12667 11.12 4 11.7 4L12.3 4C12.88 4 13.3067 4.12667 13.58 4.38C13.86 4.63333 14 5.04 14 5.6V7.4ZM13 5.65C13 5.44333 12.9367 5.28333 12.81 5.17C12.6833 5.05667 12.4967 5 12.25 5H11.75C11.5033 5 11.3167 5.05667 11.19 5.17C11.0633 5.28333 11 5.44333 11 5.65V7.35C11 7.55667 11.0633 7.71667 11.19 7.83C11.3167 7.94333 11.5033 8 11.75 8H12.25C12.4967 8 12.6833 7.94333 12.81 7.83C12.9367 7.71667 13 7.55667 13 7.35V5.65Z"
    fill="white"
  />
  <path
    d="M16.71 9C16.1233 9 15.6933 8.87667 15.42 8.63C15.1467 8.37667 15.01 7.96667 15.01 7.4V5.6C15.01 5.04 15.1467 4.63333 15.42 4.38C15.7 4.12667 16.13 4 16.71 4H18V5H16.75C16.5033 5 16.3167 5.05667 16.19 5.17C16.0633 5.28333 16 5.44333 16 5.65V7.35C16 7.55667 16.0633 7.71667 16.19 7.83C16.3167 7.94333 16.5033 8 16.75 8H18V9H16.71Z"
    fill="white"
  />
</svg>
