<svg viewBox="0 0 34 40" xmlns="http://www.w3.org/2000/svg">
  <path
    d="M32 0H2C0.89543 0 0 0.89543 0 2V38C0 39.1046 0.89543 40 2 40H32C33.1046 40 34 39.1046 34 38V2C34 0.89543 33.1046 0 32 0Z"
    fill="#75ADEA"
  />
  <path
    opacity="0.6"
    fill-rule="evenodd"
    clip-rule="evenodd"
    d="M8 20H26V19H8V20ZM8 24H26V23H8V24ZM26 28H8V27H26V28ZM8 32H17V31H8V32Z"
    fill="white"
  />
  <path
    d="M13 11.77C12.78 11.9233 12.5133 12 12.2 12H11.7C11.1133 12 10.6833 11.8767 10.41 11.63C10.1367 11.3767 10 10.9667 10 10.4V8.6C10 8.04 10.1367 7.63333 10.41 7.38C10.69 7.12667 11.18 7 11.76 7H13V5H14V12H13V11.77ZM12.35 11C12.57 11 12.7333 10.9433 12.84 10.83C12.9467 10.71 13 10.5833 13 10.45V8H11.75C11.5033 8 11.3167 8.05667 11.19 8.17C11.0633 8.28333 11 8.44333 11 8.65V10.35C11 10.5567 11.0633 10.7167 11.19 10.83C11.3167 10.9433 11.5033 11 11.75 11H12.35Z"
    fill="white"
  />
  <path
    d="M19 10.4C19 10.96 18.86 11.3667 18.58 11.62C18.3067 11.8733 17.88 12 17.3 12L16.7 12C16.12 12 15.69 11.8733 15.41 11.62C15.1367 11.3667 15 10.96 15 10.4V8.6C15 8.04 15.1367 7.63333 15.41 7.38C15.69 7.12667 16.12 7 16.7 7L17.3 7C17.88 7 18.3067 7.12667 18.58 7.38C18.86 7.63333 19 8.04 19 8.6V10.4ZM18 8.65C18 8.44333 17.9367 8.28333 17.81 8.17C17.6833 8.05667 17.4967 8 17.25 8H16.75C16.5033 8 16.3167 8.05667 16.19 8.17C16.0633 8.28333 16 8.44333 16 8.65V10.35C16 10.5567 16.0633 10.7167 16.19 10.83C16.3167 10.9433 16.5033 11 16.75 11H17.25C17.4967 11 17.6833 10.9433 17.81 10.83C17.9367 10.7167 18 10.5567 18 10.35V8.65Z"
    fill="white"
  />
  <path
    d="M21.71 12C21.1233 12 20.6933 11.8767 20.42 11.63C20.1467 11.3767 20.01 10.9667 20.01 10.4V8.6C20.01 8.04 20.1467 7.63333 20.42 7.38C20.7 7.12667 21.13 7 21.71 7H23V8H21.75C21.5033 8 21.3167 8.05667 21.19 8.17C21.0633 8.28333 21 8.44333 21 8.65V10.35C21 10.5567 21.0633 10.7167 21.19 10.83C21.3167 10.9433 21.5033 11 21.75 11H23V12H21.71Z"
    fill="white"
  />
</svg>
