<svg viewBox="0 0 30 40" xmlns="http://www.w3.org/2000/svg">
  <path d="M28 0H2a2 2 0 00-2 2v36a2 2 0 002 2h26a2 2 0 002-2V2a2 2 0 00-2-2z" />
  <path
    fill="#fff"
    d="M7.5 19h15a.5.5 0 010 1h-15a.5.5 0 010-1zm0 3h9a.5.5 0 010 1h-9a.5.5 0 010-1zm0 3h11a.5.5 0 010 1h-11a.5.5 0 010-1zm0 6h13a.5.5 0 010 1h-13a.5.5 0 010-1zm0-3h7a.5.5 0 010 1h-7a.5.5 0 010-1z"
    opacity=".5"
  />
  <path
    fill="#fff"
    d="M11 11.77c-.22.153-.487.23-.8.23h-.5c-.587 0-1.017-.123-1.29-.37-.273-.253-.41-.663-.41-1.23V8.6c0-.56.137-.967.41-1.22.28-.253.77-.38 1.35-.38H11V5h1v7h-1v-.23zm-.65-.77c.22 0 .383-.057.49-.17a.565.565 0 00.16-.38V8H9.75c-.247 0-.433.057-.56.17-.127.113-.19.273-.19.48v1.7c0 .207.063.367.19.48.127.113.313.17.56.17h.6zM17 10.4c0 .56-.14.967-.42 1.22-.273.253-.7.38-1.28.38h-.6c-.58 0-1.01-.127-1.29-.38-.273-.253-.41-.66-.41-1.22V8.6c0-.56.137-.967.41-1.22.28-.253.71-.38 1.29-.38h.6c.58 0 1.007.127 1.28.38.28.253.42.66.42 1.22v1.8zm-1-1.75c0-.207-.063-.367-.19-.48-.127-.113-.313-.17-.56-.17h-.5c-.247 0-.433.057-.56.17-.127.113-.19.273-.19.48v1.7c0 .207.063.367.19.48.127.113.313.17.56.17h.5c.247 0 .433-.057.56-.17.127-.113.19-.273.19-.48v-1.7zM19.71 12c-.587 0-1.017-.123-1.29-.37-.273-.253-.41-.663-.41-1.23V8.6c0-.56.137-.967.41-1.22.28-.253.71-.38 1.29-.38H21v1h-1.25c-.247 0-.433.057-.56.17-.127.113-.19.273-.19.48v1.7c0 .207.063.367.19.48.127.113.313.17.56.17H21v1h-1.29z"
  />
</svg>
