<svg viewBox="0 0 30 40" xmlns="http://www.w3.org/2000/svg">
  <path
    d="M28 0H2C0.89543 0 0 0.89543 0 2V38C0 39.1046 0.89543 40 2 40H28C29.1046 40 30 39.1046 30 38V2C30 0.89543 29.1046 0 28 0Z"
  />
  <path
    opacity="0.6"
    fill-rule="evenodd"
    clip-rule="evenodd"
    d="M7 20H23V19H7V20ZM7 24H23V23H7V24ZM23 28H7V27H23V28ZM7 32H12V31H7V32Z"
    fill="#fff"
  />
  <path
    d="M11.5 11.77C11.28 11.9233 11.0133 12 10.7 12H10.2C9.61333 12 9.18333 11.8767 8.91 11.63C8.63667 11.3767 8.5 10.9667 8.5 10.4V8.6C8.5 8.04 8.63667 7.63333 8.91 7.38C9.19 7.12667 9.68 7 10.26 7H11.5V5H12.5V12H11.5V11.77ZM10.85 11C11.07 11 11.2333 10.9433 11.34 10.83C11.4467 10.71 11.5 10.5833 11.5 10.45V8H10.25C10.0033 8 9.81667 8.05667 9.69 8.17C9.56333 8.28333 9.5 8.44333 9.5 8.65V10.35C9.5 10.5567 9.56333 10.7167 9.69 10.83C9.81667 10.9433 10.0033 11 10.25 11H10.85Z"
    fill="#fff"
  />
  <path
    d="M17.5 10.4C17.5 10.96 17.36 11.3667 17.08 11.62C16.8067 11.8733 16.38 12 15.8 12L15.2 12C14.62 12 14.19 11.8733 13.91 11.62C13.6367 11.3667 13.5 10.96 13.5 10.4V8.6C13.5 8.04 13.6367 7.63333 13.91 7.38C14.19 7.12667 14.62 7 15.2 7L15.8 7C16.38 7 16.8067 7.12667 17.08 7.38C17.36 7.63333 17.5 8.04 17.5 8.6V10.4ZM16.5 8.65C16.5 8.44333 16.4367 8.28333 16.31 8.17C16.1833 8.05667 15.9967 8 15.75 8H15.25C15.0033 8 14.8167 8.05667 14.69 8.17C14.5633 8.28333 14.5 8.44333 14.5 8.65V10.35C14.5 10.5567 14.5633 10.7167 14.69 10.83C14.8167 10.9433 15.0033 11 15.25 11H15.75C15.9967 11 16.1833 10.9433 16.31 10.83C16.4367 10.7167 16.5 10.5567 16.5 10.35V8.65Z"
    fill="#fff"
  />
  <path
    d="M20.21 12C19.6233 12 19.1933 11.8767 18.92 11.63C18.6467 11.3767 18.51 10.9667 18.51 10.4V8.6C18.51 8.04 18.6467 7.63333 18.92 7.38C19.2 7.12667 19.63 7 20.21 7H21.5V8H20.25C20.0033 8 19.8167 8.05667 19.69 8.17C19.5633 8.28333 19.5 8.44333 19.5 8.65V10.35C19.5 10.5567 19.5633 10.7167 19.69 10.83C19.8167 10.9433 20.0033 11 20.25 11H21.5V12H20.21Z"
    fill="#fff"
  />
</svg>
