<svg
  width="200"
  height="120"
  viewBox="0 0 200 120"
  fill="none"
  xmlns="http://www.w3.org/2000/svg"
>
  <g clip-path="url(#clip0_1789_8793)">
    <path
      d="M0 5C0 2.79086 1.79086 1 4 1H196C198.209 1 200 2.79086 200 5V117C200 119.209 198.209 121 196 121H4C1.79086 121 0 119.209 0 117V5Z"
      fill="var(--color-bg-default)"
    />
    <mask id="path-2-inside-1_1789_8793" fill="var(--color-bg-default)">
      <path
        d="M103.804 73.8039C100.806 74.6071 97.6305 74.4407 94.733 73.3285C91.8354 72.2162 89.3644 70.2152 87.674 67.6122C85.9836 65.0092 85.1606 61.9379 85.3231 58.8385C85.4855 55.739 86.625 52.7705 88.5782 50.3585C90.5314 47.9465 93.1981 46.2147 96.1961 45.4114C99.194 44.6081 102.369 44.7745 105.267 45.8868C108.164 46.9991 110.635 49.0001 112.326 51.6031C114.016 54.2061 114.839 57.2774 114.677 60.3768L110.86 60.1768C110.98 57.8834 110.371 55.6108 109.12 53.6847C107.87 51.7587 106.041 50.2781 103.897 49.455C101.753 48.632 99.4036 48.5089 97.1853 49.1033C94.967 49.6977 92.9938 50.9791 91.5485 52.7638C90.1033 54.5486 89.2601 56.7451 89.1399 59.0385C89.0197 61.3319 89.6287 63.6045 90.8795 65.5305C92.1303 67.4566 93.9587 68.9372 96.1027 69.7602C98.2467 70.5832 100.596 70.7064 102.815 70.112L103.804 73.8039Z"
      />
    </mask>
    <path
      d="M103.804 73.8039C100.806 74.6071 97.6305 74.4407 94.733 73.3285C91.8354 72.2162 89.3644 70.2152 87.674 67.6122C85.9836 65.0092 85.1606 61.9379 85.3231 58.8385C85.4855 55.739 86.625 52.7705 88.5782 50.3585C90.5314 47.9465 93.1981 46.2147 96.1961 45.4114C99.194 44.6081 102.369 44.7745 105.267 45.8868C108.164 46.9991 110.635 49.0001 112.326 51.6031C114.016 54.2061 114.839 57.2774 114.677 60.3768L110.86 60.1768C110.98 57.8834 110.371 55.6108 109.12 53.6847C107.87 51.7587 106.041 50.2781 103.897 49.455C101.753 48.632 99.4036 48.5089 97.1853 49.1033C94.967 49.6977 92.9938 50.9791 91.5485 52.7638C90.1033 54.5486 89.2601 56.7451 89.1399 59.0385C89.0197 61.3319 89.6287 63.6045 90.8795 65.5305C92.1303 67.4566 93.9587 68.9372 96.1027 69.7602C98.2467 70.5832 100.596 70.7064 102.815 70.112L103.804 73.8039Z"
      stroke="var(--color-control-bg-ghost)"
      stroke-width="8"
      mask="url(#path-2-inside-1_1789_8793)"
    />
    <mask id="path-3-inside-2_1789_8793" fill="var(--color-bg-default)">
      <path
        d="M100 45C103.168 45 106.254 46.0028 108.817 47.8647C111.379 49.7267 113.287 52.3521 114.266 55.3647C115.245 58.3774 115.245 61.6226 114.266 64.6353C113.287 67.6479 111.379 70.2733 108.817 72.1353C106.254 73.9972 103.168 75 100 75C96.8323 75 93.7459 73.9972 91.1832 72.1353C88.6205 70.2733 86.713 67.6479 85.7342 64.6353C84.7553 61.6226 84.7553 58.3774 85.7342 55.3647L89.5726 56.6119C88.8571 58.814 88.8571 61.186 89.5726 63.3881C90.2881 65.5901 91.6823 67.5091 93.5555 68.8701C95.4287 70.231 97.6846 70.964 100 70.964C102.315 70.964 104.571 70.231 106.444 68.8701C108.318 67.5092 109.712 65.5901 110.427 63.3881C111.143 61.186 111.143 58.814 110.427 56.6119C109.712 54.4099 108.318 52.4908 106.445 51.1299C104.571 49.769 102.315 49.036 100 49.036V45Z"
      />
    </mask>
    <path
      d="M100 45C103.168 45 106.254 46.0028 108.817 47.8647C111.379 49.7267 113.287 52.3521 114.266 55.3647C115.245 58.3774 115.245 61.6226 114.266 64.6353C113.287 67.6479 111.379 70.2733 108.817 72.1353C106.254 73.9972 103.168 75 100 75C96.8323 75 93.7459 73.9972 91.1832 72.1353C88.6205 70.2733 86.713 67.6479 85.7342 64.6353C84.7553 61.6226 84.7553 58.3774 85.7342 55.3647L89.5726 56.6119C88.8571 58.814 88.8571 61.186 89.5726 63.3881C90.2881 65.5901 91.6823 67.5091 93.5555 68.8701C95.4287 70.231 97.6846 70.964 100 70.964C102.315 70.964 104.571 70.231 106.444 68.8701C108.318 67.5092 109.712 65.5901 110.427 63.3881C111.143 61.186 111.143 58.814 110.427 56.6119C109.712 54.4099 108.318 52.4908 106.445 51.1299C104.571 49.769 102.315 49.036 100 49.036V45Z"
      stroke="var(--color-bg-link)"
      stroke-width="8"
      mask="url(#path-3-inside-2_1789_8793)"
    />
  </g>
  <defs>
    <clipPath id="clip0_1789_8793">
      <rect width="200" height="120" fill="var(--color-bg-default)" />
    </clipPath>
  </defs>
</svg>
