<svg viewBox="0 0 16 16" xmlns="http://www.w3.org/2000/svg">
  <path
    clip-rule="evenodd"
    d="M1.086 13.196L2.5 14.61l1.57-1.57.002.002 1.67-1.669-.003-.002 5.127-5.127.002.002L12.7 4.413V4.41l1.82-1.82-1.414-1.415-2.299 2.299A8.503 8.503 0 008 3C4.364 3 1.258 5.28 0 8.5a8.712 8.712 0 002.388 3.394l-1.302 1.302zm3.482-3.482l4.664-4.665A3.6 3.6 0 008 4.833c-2.007 0-3.636 1.643-3.636 3.667 0 .425.072.834.204 1.214zM8 14a8.5 8.5 0 01-2.948-.524l1.579-1.579c.423.174.885.27 1.369.27 2.007 0 3.636-1.643 3.636-3.667 0-.478-.09-.934-.255-1.352l2.129-2.13A8.712 8.712 0 0116 8.5c-1.258 3.22-4.364 5.5-8 5.5z"
  />
</svg>
