<svg
  width="200"
  height="120"
  viewBox="0 0 200 120"
  fill="none"
  xmlns="http://www.w3.org/2000/svg"
>
  <path
    d="M0 4C0 1.79086 1.79086 0 4 0H196C198.209 0 200 1.79086 200 4V116C200 118.209 198.209 120 196 120H4C1.79086 120 0 118.209 0 116V4Z"
    fill="var(--color-bg-secondary)"
  />
  <rect
    x="20"
    y="40"
    width="160"
    height="40"
    rx="4"
    fill="var(--color-bg-default)"
  />
  <g opacity="0.5">
    <path
      d="M32.7106 60L35.357 57.3536L34.6499 56.6465L30.7963 60.5L34.6499 64.3536L35.357 63.6465L32.7106 61H40V60H32.7106Z"
      fill="var(--color-control-typo-ghost)"
    />
  </g>
  <path
    d="M69.1758 66H68.0547V57.5303C67.9681 57.6169 67.8405 57.7171 67.6719 57.8311C67.5078 57.9404 67.321 58.0498 67.1113 58.1592C66.9062 58.2686 66.6875 58.3711 66.4551 58.4668C66.2272 58.5625 66.0039 58.6377 65.7852 58.6924V57.5576C66.0312 57.4893 66.291 57.3981 66.5645 57.2842C66.8424 57.1657 67.1136 57.0358 67.3779 56.8945C67.6468 56.7487 67.8997 56.5983 68.1367 56.4434C68.3737 56.2839 68.5788 56.1289 68.752 55.9785H69.1758V66Z"
    fill="var(--color-control-typo-ghost)"
  />
  <rect
    x="84"
    y="44"
    width="32"
    height="32"
    rx="4"
    fill="var(--color-control-bg-ghost)"
  />
  <path
    d="M101.504 58.7676C101.504 58.4668 101.456 58.2048 101.36 57.9814C101.269 57.7581 101.142 57.5736 100.978 57.4277C100.818 57.2773 100.629 57.1657 100.41 57.0928C100.191 57.0199 99.9544 56.9834 99.6992 56.9834C99.4805 56.9834 99.2663 57.013 99.0566 57.0723C98.847 57.1315 98.6419 57.2135 98.4414 57.3184C98.2454 57.4232 98.054 57.5485 97.8672 57.6943C97.6849 57.8402 97.514 58.002 97.3545 58.1797V56.9766C97.6689 56.6712 98.0199 56.4388 98.4072 56.2793C98.7992 56.1152 99.2754 56.0332 99.8359 56.0332C100.237 56.0332 100.608 56.0924 100.95 56.2109C101.292 56.3249 101.588 56.4935 101.839 56.7168C102.09 56.9401 102.285 57.2158 102.427 57.5439C102.573 57.8721 102.646 58.248 102.646 58.6719C102.646 59.0592 102.6 59.4102 102.509 59.7246C102.422 60.0391 102.288 60.3353 102.105 60.6133C101.928 60.8913 101.702 61.1579 101.429 61.4131C101.155 61.6683 100.834 61.9281 100.465 62.1924C100.005 62.5205 99.624 62.8008 99.3232 63.0332C99.027 63.2656 98.79 63.4844 98.6123 63.6895C98.4391 63.89 98.3161 64.0928 98.2432 64.2979C98.1748 64.4984 98.1406 64.7308 98.1406 64.9951H103.021V66H96.9717V65.5146C96.9717 65.0954 97.0173 64.7262 97.1084 64.4072C97.1995 64.0882 97.3499 63.7852 97.5596 63.498C97.7692 63.2109 98.0426 62.9238 98.3799 62.6367C98.7217 62.3496 99.1387 62.026 99.6309 61.666C99.9863 61.4108 100.283 61.167 100.52 60.9346C100.761 60.7021 100.955 60.4697 101.101 60.2373C101.246 60.0049 101.349 59.7702 101.408 59.5332C101.472 59.2917 101.504 59.0365 101.504 58.7676Z"
    fill="var(--color-control-typo-ghost)"
  />
  <path
    d="M128.972 66.1504C128.762 66.1504 128.582 66.0752 128.432 65.9248C128.286 65.7744 128.213 65.5944 128.213 65.3848C128.213 65.1751 128.286 64.9951 128.432 64.8447C128.582 64.6898 128.762 64.6123 128.972 64.6123C129.186 64.6123 129.368 64.6898 129.519 64.8447C129.669 64.9951 129.744 65.1751 129.744 65.3848C129.744 65.5944 129.669 65.7744 129.519 65.9248C129.368 66.0752 129.186 66.1504 128.972 66.1504ZM132.007 66.1504C131.797 66.1504 131.617 66.0752 131.467 65.9248C131.321 65.7744 131.248 65.5944 131.248 65.3848C131.248 65.1751 131.321 64.9951 131.467 64.8447C131.617 64.6898 131.797 64.6123 132.007 64.6123C132.221 64.6123 132.403 64.6898 132.554 64.8447C132.704 64.9951 132.779 65.1751 132.779 65.3848C132.779 65.5944 132.704 65.7744 132.554 65.9248C132.403 66.0752 132.221 66.1504 132.007 66.1504ZM135.042 66.1504C134.832 66.1504 134.652 66.0752 134.502 65.9248C134.356 65.7744 134.283 65.5944 134.283 65.3848C134.283 65.1751 134.356 64.9951 134.502 64.8447C134.652 64.6898 134.832 64.6123 135.042 64.6123C135.256 64.6123 135.438 64.6898 135.589 64.8447C135.739 64.9951 135.814 65.1751 135.814 65.3848C135.814 65.5944 135.739 65.7744 135.589 65.9248C135.438 66.0752 135.256 66.1504 135.042 66.1504Z"
    fill="var(--color-control-typo-ghost)"
  />
  <path
    d="M167.289 60L164.643 62.6464L165.35 63.3535L169.204 59.5L165.35 55.6464L164.643 56.3535L167.289 59L160 59L160 60L167.289 60Z"
    fill="var(--color-control-typo-ghost)"
  />
</svg>
