<svg viewBox="0 0 16 16" xmlns="http://www.w3.org/2000/svg">
  <path
    fill-rule="evenodd"
    clip-rule="evenodd"
    d="M5 0a1 1 0 100 2v2a2 2 0 00-2 2v7a2 2 0 001 1.732V15a1 1 0 001 1h6a1 1 0 001-1v-.268A2 2 0 0013 13V6a2 2 0 00-2-2V2a1 1 0 100-2H5zm4 2v2H7V2h2zm0 10.42c0 .132-.026.25-.072.352A2 2 0 0010 11c0-.5-.25-.875-.5-1.25S9 9 9 8.5a7.249 7.249 0 00-.95.746A3.08 3.08 0 018 7.5C7 8 6 9.5 6 11a2 2 0 001.072 1.772A.856.856 0 017 12.42c0-.199.18-.42.388-.675.281-.346.612-.752.612-1.245 1 1 1 1.608 1 1.92z"
  />
</svg>
