<svg width="12" height="12" viewBox="0 0 12 12" fill="none" xmlns="http://www.w3.org/2000/svg">
  <path
    fill-rule="evenodd"
    clip-rule="evenodd"
    d="M4.5 1C4.22385 1 4 1.22386 4 1.5C4 1.77614 4.22385 2 4.5 2V3H4C3.44772 3 3 3.44771 3 4V10C3 10.5523 3.44772 11 4 11H8C8.55228 11 9 10.5523 9 10V4C9 3.44771 8.55228 3 8 3H7.5V2C7.77615 2 8 1.77614 8 1.5C8 1.22386 7.77615 1 7.5 1H4.5ZM6.5 3V2H5.5V3H6.5ZM6 8.5C6.82843 8.5 7.5 7.82843 7.5 7C7.5 6.17157 6.82843 5.5 6 5.5C5.17157 5.5 4.5 6.17157 4.5 7C4.5 7.82843 5.17157 8.5 6 8.5Z"
    fill="black"
  />
</svg>
