<svg viewBox="0 0 24 37" xmlns="http://www.w3.org/2000/svg">
  <path
    fill-rule="evenodd"
    clip-rule="evenodd"
    d="M4.70313 17.4453C4.8886 17.1671 5.20083 17 5.53518 17H18.4648C18.7992 17 19.1114 17.1671 19.2969 17.4453L22.8321 22.7481C22.9416 22.9123 23 23.1054 23 23.3028V32C23 32.5523 22.5523 33 22 33H2C1.44772 33 1 32.5523 1 32V23.3028C1 23.1054 1.05844 22.9123 1.16795 22.7481L4.70313 17.4453ZM6 19H18L20.5 23H18C17.4477 23 17 23.4477 17 24V26C17 26.5523 16.5523 27 16 27H8C7.44772 27 7 26.5523 7 26V24C7 23.4477 6.55228 23 6 23H3.5L6 19Z"
  />
</svg>
