<svg viewBox="0 0 16 16" xmlns="http://www.w3.org/2000/svg">
  <path
    fill-rule="evenodd"
    clip-rule="evenodd"
    d="M3.56619 2C3.21493 2 2.88942 2.1843 2.7087 2.4855L0.142507 6.76249C0.0492578 6.9179 0 7.09574 0 7.27698V13C0 13.5523 0.447715 14 1 14H15C15.5523 14 16 13.5523 16 13V7.27698C16 7.09574 15.9507 6.9179 15.8575 6.76249L13.2913 2.4855C13.1106 2.1843 12.7851 2 12.4338 2H3.56619ZM13.5 7L12 4H4L2.5 7H4C4.55228 7 5 7.44772 5 8V9C5 9.55228 5.44772 10 6 10H10C10.5523 10 11 9.55228 11 9V8C11 7.44772 11.4477 7 12 7H13.5Z"
  />
</svg>
