<svg viewBox="0 0 12 12" xmlns="http://www.w3.org/2000/svg">
  <path
    fill-rule="evenodd"
    clip-rule="evenodd"
    d="M1.72361 2.55279C1.893 2.214 2.23926 2 2.61803 2H9.38197C9.76074 2 10.107 2.214 10.2764 2.55279L11.8944 5.78885C11.9639 5.92771 12 6.08082 12 6.23607V10C12 10.5523 11.5523 11 11 11H1C0.447715 11 0 10.5523 0 10V6.23607C0 6.08082 0.036145 5.92771 0.105573 5.78885L1.72361 2.55279ZM3 3H9L10.5 6H9C8.44771 6 8 6.44772 8 7C8 7.55228 7.55228 8 7 8H5C4.44772 8 4 7.55228 4 7C4 6.44772 3.55228 6 3 6H1.5L3 3Z"
  />
</svg>
