<svg viewBox="0 0 24 24" xmlns="http://www.w3.org/2000/svg">
  <path
    fill-rule="evenodd"
    clip-rule="evenodd"
    d="M4.70313 4.4453C4.8886 4.1671 5.20083 4 5.53518 4H18.4648C18.7992 4 19.1114 4.1671 19.2969 4.4453L22.8321 9.74808C22.9416 9.91234 23 10.1054 23 10.3028V19C23 19.5523 22.5523 20 22 20H2C1.44772 20 1 19.5523 1 19V10.3028C1 10.1054 1.05844 9.91234 1.16795 9.74808L4.70313 4.4453ZM6 6H18L20.5 10H18C17.4477 10 17 10.4477 17 11V13C17 13.5523 16.5523 14 16 14H8C7.44772 14 7 13.5523 7 13V11C7 10.4477 6.55228 10 6 10H3.5L6 6Z"
  />
</svg>
