<svg
  width="200"
  height="120"
  viewBox="0 0 200 120"
  fill="none"
  xmlns="http://www.w3.org/2000/svg"
>
  <rect
    x="20"
    y="28"
    width="160"
    height="22"
    rx="4"
    fill="var(--color-bg-default)"
  />
  <g clip-path="url(#clip0_2425_26122)">
    <path
      d="M20.5 32C20.5 30.067 22.067 28.5 24 28.5H106.5V49.5H24C22.067 49.5 20.5 47.933 20.5 46V32Z"
      stroke="var(--color-bg-border)"
    />
    <path
      d="M49 37L53.5 42L58 37H49Z"
      fill="var(--color-control-typo-placeholder)"
      fill-opacity="0.35"
    />
  </g>
  <rect
    x="67.5"
    y="28.5"
    width="91"
    height="21"
    stroke="var(--color-bg-border)"
  />
  <path
    d="M79.0586 36.7402H77.0371V43H76.2168V36.7402H74.2002V35.998H79.0586V36.7402ZM86.8174 40.7002H83.2871C83.3001 41.2568 83.4499 41.6865 83.7363 41.9893C84.0228 42.292 84.4167 42.4434 84.918 42.4434C85.4811 42.4434 85.9987 42.2578 86.4707 41.8867V42.6387C86.0312 42.9577 85.4502 43.1172 84.7275 43.1172C84.0212 43.1172 83.4661 42.891 83.0625 42.4385C82.6589 41.9827 82.457 41.3431 82.457 40.5195C82.457 39.7415 82.6768 39.1084 83.1162 38.6201C83.5589 38.1286 84.1074 37.8828 84.7617 37.8828C85.416 37.8828 85.9222 38.0944 86.2803 38.5176C86.6383 38.9408 86.8174 39.5283 86.8174 40.2803V40.7002ZM85.9971 40.0215C85.9938 39.5592 85.8815 39.1995 85.6602 38.9424C85.4421 38.6852 85.1377 38.5566 84.7471 38.5566C84.3695 38.5566 84.0488 38.6917 83.7852 38.9619C83.5215 39.2321 83.3587 39.5853 83.2969 40.0215H85.9971ZM94.4297 38L92.75 40.5293L94.4004 43H93.4678L92.4863 41.3789C92.4245 41.278 92.3512 41.151 92.2666 40.998H92.2471C92.2308 41.0273 92.1543 41.1543 92.0176 41.3789L91.0166 43H90.0938L91.7979 40.5488L90.167 38H91.0996L92.0664 39.709C92.138 39.8359 92.208 39.9661 92.2764 40.0996H92.2959L93.5459 38H94.4297ZM100.431 42.9512C100.242 43.0553 99.9928 43.1074 99.6836 43.1074C98.8079 43.1074 98.3701 42.6191 98.3701 41.6426V38.6836H97.5107V38H98.3701V36.7793L99.1709 36.5205V38H100.431V38.6836H99.1709V41.501C99.1709 41.8363 99.2279 42.0755 99.3418 42.2188C99.4557 42.362 99.6445 42.4336 99.9082 42.4336C100.11 42.4336 100.284 42.3783 100.431 42.2676V42.9512Z"
    fill="var(--color-control-typo-placeholder)"
  />
  <path
    d="M158 28H176C178.209 28 180 29.7909 180 32V46C180 48.2091 178.209 50 176 50H158V28Z"
    fill="var(--color-bg-link)"
  />
  <path
    fill-rule="evenodd"
    clip-rule="evenodd"
    d="M170.453 41.1599C169.775 41.6865 168.924 42 168 42C165.791 42 164 40.2091 164 38C164 35.7909 165.791 34 168 34C170.209 34 172 35.7909 172 38C172 38.9244 171.686 39.7755 171.16 40.4528L174.004 43.2969L173.297 44.004L170.453 41.1599ZM171 38C171 39.6569 169.657 41 168 41C166.343 41 165 39.6569 165 38C165 36.3431 166.343 35 168 35C169.657 35 171 36.3431 171 38Z"
    fill="var(--color-bg-default)"
  />
  <rect
    x="20"
    y="70"
    width="160"
    height="22"
    rx="4"
    fill="var(--color-bg-default)"
  />
  <path
    d="M32 77C32 77.5523 31.5523 78 31 78C30.4477 78 30 77.5523 30 77C30 76.4477 30.4477 76 31 76C31.5523 76 32 76.4477 32 77Z"
    fill="var(--color-control-typo-ghost)"
  />
  <path
    d="M32 81C32 81.5523 31.5523 82 31 82C30.4477 82 30 81.5523 30 81C30 80.4477 30.4477 80 31 80C31.5523 80 32 80.4477 32 81Z"
    fill="var(--color-control-typo-ghost)"
  />
  <path
    d="M31 86C31.5523 86 32 85.5523 32 85C32 84.4477 31.5523 84 31 84C30.4477 84 30 84.4477 30 85C30 85.5523 30.4477 86 31 86Z"
    fill="var(--color-control-typo-ghost)"
  />
  <g clip-path="url(#clip1_2425_26122)">
    <rect
      x="42.5"
      y="69.5"
      width="115"
      height="23"
      stroke="var(--color-bg-border)"
    />
    <path
      d="M140 79L144.5 84L149 79H140Z"
      fill="var(--color-control-typo-placeholder)"
    />
  </g>
  <path
    d="M158 70H176C178.209 70 180 71.7909 180 74V88C180 90.2091 178.209 92 176 92H158V70Z"
    fill="var(--color-control-bg-ghost-hover)"
  />
  <path
    d="M164 79L165 84H173L174 79L171 80L169 76L167 80L164 79Z"
    fill="var(--color-control-typo-ghost)"
  />
  <path
    d="M173 85.0067H165V86.0067H173V85.0067Z"
    fill="var(--color-control-typo-ghost)"
  />
  <rect
    x="20.5"
    y="70.5"
    width="159"
    height="21"
    rx="3.5"
    stroke="var(--color-bg-border)"
  />
  <defs>
    <clipPath id="clip0_2425_26122">
      <rect
        width="47"
        height="22"
        fill="var(--color-bg-default)"
        transform="translate(20 28)"
      />
    </clipPath>
    <clipPath id="clip1_2425_26122">
      <rect
        width="116"
        height="22"
        fill="var(--color-bg-default)"
        transform="translate(42 70)"
      />
    </clipPath>
  </defs>
</svg>
