<svg width="12" height="12" viewBox="0 0 12 12" fill="none" xmlns="http://www.w3.org/2000/svg">
  <path
    fill-rule="evenodd"
    clip-rule="evenodd"
    d="M11 6C11 8.76142 8.76142 11 6 11C3.23858 11 1 8.76142 1 6C1 3.23858 3.23858 1 6 1C8.76142 1 11 3.23858 11 6ZM5.5 9.96905V2.03095C3.52684 2.277 2 3.96019 2 6C2 8.03981 3.52684 9.723 5.5 9.96905ZM9.96905 6.5C9.74343 8.30936 8.30936 9.74343 6.5 9.96905V6.5L9.96905 6.5ZM9.96905 5.5C9.74343 3.69064 8.30936 2.25657 6.5 2.03095V5.5H9.96905Z"
    fill="black"
  />
</svg>
