<svg width="24" height="24" viewBox="0 0 24 24" fill="none" xmlns="http://www.w3.org/2000/svg">
  <path
    fill-rule="evenodd"
    clip-rule="evenodd"
    d="M22 12C22 17.5228 17.5228 22 12 22C6.47715 22 2 17.5228 2 12C2 6.47715 6.47715 2 12 2C17.5228 2 22 6.47715 22 12ZM11 19.9381V4.06189C7.05369 4.55399 4 7.92038 4 12C4 16.0796 7.05369 19.446 11 19.9381ZM19.9381 13C19.4869 16.6187 16.6187 19.4869 13 19.9381V13H19.9381ZM19.9381 11H13V4.06189C16.6187 4.51314 19.4869 7.38128 19.9381 11Z"
    fill="black"
  />
</svg>
