<svg viewBox="0 0 24 24" xmlns="http://www.w3.org/2000/svg">
  <path
    fill-rule="evenodd"
    clip-rule="evenodd"
    d="M2.0008 11.7983C6.11445 11.751 8.41685 11.4818 9.94934 9.94927C11.4818 8.41678 11.7511 6.11438 11.7984 2.00073C6.43518 2.1072 2.10727 6.43511 2.0008 11.7983ZM12.3957 2.00638C12.4431 6.11649 12.7128 8.41748 14.2446 9.94927C15.7531 11.4577 18.0075 11.7422 22.0008 11.7959C21.8944 6.49809 17.6688 2.21108 12.3957 2.00638ZM21.9951 12.398C18.0053 12.4519 15.7524 12.7368 14.2446 14.2446C12.7369 15.7523 12.4519 18.0052 12.3981 21.995C17.6061 21.7916 21.7917 17.6061 21.9951 12.398ZM11.796 22.0007C11.7423 18.0074 11.4578 15.753 9.94934 14.2446C8.41755 12.7128 6.11656 12.4431 2.00645 12.3956C2.21115 17.6688 6.49818 21.8943 11.796 22.0007Z"
  />
</svg>
