<svg viewBox="0 0 16 16" xmlns="http://www.w3.org/2000/svg">
  <path
    fill-rule="evenodd"
    clip-rule="evenodd"
    d="M2 7.87737C4.46769 7.84898 5.84885 7.68746 6.76815 6.76815C7.68746 5.84885 7.84898 4.46769 7.87737 2C4.66008 2.06387 2.06387 4.66008 2 7.87737ZM8.23566 2.00339C8.26413 4.46895 8.42592 5.84927 9.34481 6.76815C10.2497 7.67303 11.602 7.84372 13.9976 7.87591C13.9337 4.69786 11.3989 2.12618 8.23566 2.00339ZM13.9941 8.2371C11.6008 8.2694 10.2493 8.44036 9.34481 9.34481C8.44036 10.2493 8.2694 11.6008 8.2371 13.9941C11.3613 13.8721 13.8721 11.3613 13.9941 8.2371ZM7.87593 13.9976C7.84372 11.602 7.67303 10.2497 6.76815 9.34481C5.84927 8.42592 4.46895 8.26413 2.00339 8.23566C2.12618 11.3989 4.69788 13.9337 7.87593 13.9976Z"
  />
</svg>
