<svg viewBox="0 0 24 28" xmlns="http://www.w3.org/2000/svg">
  <rect width="24" height="28" rx="2" />
  <path
    opacity="0.5"
    d="M18 20H15V22H18V20ZM6 20V22H9V20H6ZM10 20V22H14V20H10ZM18 19V17H15V19H18ZM6 19H9V17H6V19ZM10 19H14V17H10V19ZM18 16V14H6V16H9V14H10V16H14V14H15V16H18ZM5 13H19V23H5V13Z"
    fill="white"
  />
  <path
    fill-rule="evenodd"
    clip-rule="evenodd"
    d="M7.7 9C7.11333 9 6.68333 8.87667 6.41 8.63C6.13667 8.37667 6 7.96667 6 7.4V5.6C6 5.04 6.13667 4.63333 6.41 4.38C6.69 4.12667 7.12 4 7.7 4H8.99V5H7.74C7.49333 5 7.30667 5.05667 7.18 5.17C7.05333 5.28333 6.99 5.44333 6.99 5.65V7.35C6.99 7.55667 7.05333 7.71667 7.18 7.83C7.30667 7.94333 7.49333 8 7.74 8H8.99V9H7.7ZM14 4H15V7H16V4H17V7L16 9H15L14 7V4ZM12.61 8.69C12.87 8.48333 13 8.17 13 7.75V7.3C13 6.87333 12.8833 6.55333 12.65 6.34C12.4167 6.12 12.0767 6 11.63 6H11.48C11.34 6 11.2233 5.97333 11.13 5.9C11.0433 5.82667 11 5.71333 11 5.56V5.45C11 5.30333 11.05 5.19333 11.15 5.12C11.25 5.04 11.3833 5 11.55 5H13V4H11.5C11.0067 4 10.5933 4.1 10.34 4.3C10.0867 4.49333 10 4.81333 10 5.26V5.73C10 6.17 10.0733 6.49333 10.3 6.7C10.5333 6.9 10.7333 7 11.2 7H11.57C11.8567 7 12 7.15 12 7.45V7.55C12 7.69667 11.9533 7.81 11.86 7.89C11.7667 7.96333 11.63 8 11.45 8H10V9H11.5C11.9867 9 12.3567 8.89667 12.61 8.69Z"
    fill="white"
  />
</svg>
