<svg viewBox="0 0 30 40" xmlns="http://www.w3.org/2000/svg">
  <path
    d="M28 0H2C0.89543 0 0 0.89543 0 2V38C0 39.1046 0.89543 40 2 40H28C29.1046 40 30 39.1046 30 38V2C30 0.89543 29.1046 0 28 0Z"
  />
  <path
    opacity="0.6"
    fill-rule="evenodd"
    clip-rule="evenodd"
    d="M8 19H14V21.5H8V19ZM7 22.5V21.5V19V18H8H14H15H18H19H22H23V19V21.5V22.5V25V26V28.5V29.5V32V33H22H19H18H15H14H8H7V32V29.5V28.5V26V25V22.5ZM22 21.5V19H19V21.5H22ZM19 22.5H22V25H19V22.5ZM18 21.5V19H15V21.5H18ZM15 22.5H18V25H15V22.5ZM14 22.5V25H8V22.5H14ZM18 32H15V29.5H18V32ZM14 32V29.5H8V32H14ZM18 28.5H15V26H18V28.5ZM14 28.5V26H8V28.5H14ZM22 28.5V26H19V28.5H22ZM19 29.5H22V32H19V29.5Z"
    fill="#fff"
  />
  <path
    fill-rule="evenodd"
    clip-rule="evenodd"
    d="M10.7 12C10.1133 12 9.68333 11.8767 9.41 11.63C9.13667 11.3767 9 10.9667 9 10.4V8.6C9 8.04 9.13667 7.63333 9.41 7.38C9.69 7.12667 10.12 7 10.7 7H11.99V8H10.74C10.4933 8 10.3067 8.05667 10.18 8.17C10.0533 8.28333 9.99 8.44333 9.99 8.65V10.35C9.99 10.5567 10.0533 10.7167 10.18 10.83C10.3067 10.9433 10.4933 11 10.74 11H11.99V12H10.7ZM17 7H18V10H19V7H20V10L19 12H18L17 10V7ZM15.61 11.69C15.87 11.4833 16 11.17 16 10.75V10.3C16 9.87333 15.8833 9.55333 15.65 9.34C15.4167 9.12 15.0767 9 14.63 9H14.48C14.34 9 14.2233 8.97333 14.13 8.9C14.0433 8.82667 14 8.71333 14 8.56V8.45C14 8.30333 14.05 8.19333 14.15 8.12C14.25 8.04 14.3833 8 14.55 8H16V7H14.5C14.0067 7 13.5933 7.1 13.34 7.3C13.0867 7.49333 13 7.81333 13 8.26V8.73C13 9.17 13.0733 9.49333 13.3 9.7C13.5333 9.9 13.7333 10 14.2 10H14.57C14.8567 10 15 10.15 15 10.45V10.55C15 10.6967 14.9533 10.81 14.86 10.89C14.7667 10.9633 14.63 11 14.45 11H13V12H14.5C14.9867 12 15.3567 11.8967 15.61 11.69Z"
    fill="#fff"
  />
</svg>
