<svg viewBox="0 0 21 28" xmlns="http://www.w3.org/2000/svg">
  <path
    d="M19.6 0H1.4C0.626801 0 0 0.626801 0 1.4V26.6C0 27.3732 0.626801 28 1.4 28H19.6C20.3732 28 21 27.3732 21 26.6V1.4C21 0.626801 20.3732 0 19.6 0Z"
  />
  <path
    opacity="0.5"
    d="M16 20H13V22H16V20ZM5 20V22H8V20H5ZM9 20V22H12V20H9ZM16 19V17H13V19H16ZM5 19H8V17H5V19ZM9 19H12V17H9V19ZM16 16V14H5V16H8V14H9V16H12V14H13V16H16ZM4 13H17V23H4V13Z"
    fill="#fff"
  />
  <path
    fill-rule="evenodd"
    clip-rule="evenodd"
    d="M6.7 9C6.11333 9 5.68333 8.87667 5.41 8.63C5.13667 8.37667 5 7.96667 5 7.4V5.6C5 5.04 5.13667 4.63333 5.41 4.38C5.69 4.12667 6.12 4 6.7 4H7.99V5H6.74C6.49333 5 6.30667 5.05667 6.18 5.17C6.05333 5.28333 5.99 5.44333 5.99 5.65V7.35C5.99 7.55667 6.05333 7.71667 6.18 7.83C6.30667 7.94333 6.49333 8 6.74 8H7.99V9H6.7ZM13 4H14V7H15V4H16V7L15 9H14L13 7V4ZM11.61 8.69C11.87 8.48333 12 8.17 12 7.75V7.3C12 6.87333 11.8833 6.55333 11.65 6.34C11.4167 6.12 11.0767 6 10.63 6H10.48C10.34 6 10.2233 5.97333 10.13 5.9C10.0433 5.82667 10 5.71333 10 5.56V5.45C10 5.30333 10.05 5.19333 10.15 5.12C10.25 5.04 10.3833 5 10.55 5H12V4H10.5C10.0067 4 9.59333 4.1 9.34 4.3C9.08667 4.49333 9 4.81333 9 5.26V5.73C9 6.17 9.07333 6.49333 9.3 6.7C9.53333 6.9 9.73333 7 10.2 7H10.57C10.8567 7 11 7.15 11 7.45V7.55C11 7.69667 10.9533 7.81 10.86 7.89C10.7667 7.96333 10.63 8 10.45 8H9V9H10.5C10.9867 9 11.3567 8.89667 11.61 8.69Z"
    fill="#fff"
  />
</svg>
