<svg viewBox="0 0 34 40" xmlns="http://www.w3.org/2000/svg">
  <path
    d="M32 0H2C0.89543 0 0 0.89543 0 2V38C0 39.1046 0.89543 40 2 40H32C33.1046 40 34 39.1046 34 38V2C34 0.89543 33.1046 0 32 0Z"
  />
  <path
    opacity="0.6"
    fill-rule="evenodd"
    clip-rule="evenodd"
    d="M9 19H15V21.5H9V19ZM8 22.5V21.5V19V18H9H15H16H20H21H25H26V19V21.5V22.5V25V26V28.5V29.5V32V33H25H21H20H16H15H9H8V32V29.5V28.5V26V25V22.5ZM25 21.5V19H21V21.5H25ZM21 22.5H25V25H21V22.5ZM20 21.5V19H16V21.5H20ZM16 22.5H20V25H16V22.5ZM15 22.5V25H9V22.5H15ZM20 32H16V29.5H20V32ZM15 32V29.5H9V32H15ZM20 28.5H16V26H20V28.5ZM15 28.5V26H9V28.5H15ZM25 28.5V26H21V28.5H25ZM21 29.5H25V32H21V29.5Z"
    fill="white"
  />
  <path
    fill-rule="evenodd"
    clip-rule="evenodd"
    d="M12.7 12C12.1133 12 11.6833 11.8767 11.41 11.63C11.1367 11.3767 11 10.9667 11 10.4V8.6C11 8.04 11.1367 7.63333 11.41 7.38C11.69 7.12667 12.12 7 12.7 7H13.99V8H12.74C12.4933 8 12.3067 8.05667 12.18 8.17C12.0533 8.28333 11.99 8.44333 11.99 8.65V10.35C11.99 10.5567 12.0533 10.7167 12.18 10.83C12.3067 10.9433 12.4933 11 12.74 11H13.99V12H12.7ZM19 7H20V10H21V7H22V10L21 12H20L19 10V7ZM17.61 11.69C17.87 11.4833 18 11.17 18 10.75V10.3C18 9.87333 17.8833 9.55333 17.65 9.34C17.4167 9.12 17.0767 9 16.63 9H16.48C16.34 9 16.2233 8.97333 16.13 8.9C16.0433 8.82667 16 8.71333 16 8.56V8.45C16 8.30333 16.05 8.19333 16.15 8.12C16.25 8.04 16.3833 8 16.55 8H18V7H16.5C16.0067 7 15.5933 7.1 15.34 7.3C15.0867 7.49333 15 7.81333 15 8.26V8.73C15 9.17 15.0733 9.49333 15.3 9.7C15.5333 9.9 15.7333 10 16.2 10H16.57C16.8567 10 17 10.15 17 10.45V10.55C17 10.6967 16.9533 10.81 16.86 10.89C16.7667 10.9633 16.63 11 16.45 11H15V12H16.5C16.9867 12 17.3567 11.8967 17.61 11.69Z"
    fill="white"
  />
</svg>
