<svg viewBox="0 0 24 24" xmlns="http://www.w3.org/2000/svg">
  <path
    d="M4.875 2.5C3.56332 2.5 2.5 3.56332 2.5 4.875V19.125C2.5 20.4367 3.56332 21.5 4.875 21.5H19.125C20.4367 21.5 21.5 20.4367 21.5 19.125V8.23376C21.5 7.60387 21.2498 6.99978 20.8044 6.55438L17.4456 3.19562C17.0002 2.75022 16.3961 2.5 15.7662 2.5H4.875ZM4.4 4.4V8.2H15.8V4.4H4.4ZM12 17.7C13.574 17.7 14.85 16.424 14.85 14.85C14.85 13.276 13.574 12 12 12C10.426 12 9.15 13.276 9.15 14.85C9.15 16.424 10.426 17.7 12 17.7Z"
  />
</svg>
