<svg
  width="200"
  height="120"
  viewBox="0 0 200 120"
  fill="none"
  xmlns="http://www.w3.org/2000/svg"
>
  <path
    d="M0 4C0 1.79086 1.79086 0 4 0H196C198.209 0 200 1.79086 200 4V116C200 118.209 198.209 120 196 120H4C1.79086 120 0 118.209 0 116V4Z"
    fill="var(--color-bg-default)"
  />
  <rect
    x="108"
    y="41"
    width="39"
    height="39"
    rx="4"
    fill="var(--color-bg-link)"
  />
  <path
    d="M128 48C128.552 48 129 48.4477 129 49V51C129 51.5523 128.552 52 128 52C127.448 52 127 51.5523 127 51V49C127 48.4477 127.448 48 128 48Z"
    fill="var(--color-bg-default)"
  />
  <path
    d="M116 60C116 59.4477 116.448 59 117 59H119C119.552 59 120 59.4477 120 60C120 60.5523 119.552 61 119 61H117C116.448 61 116 60.5523 116 60Z"
    fill="var(--color-bg-default)"
  />
  <path
    d="M137 59C136.448 59 136 59.4477 136 60C136 60.5523 136.448 61 137 61H139C139.552 61 140 60.5523 140 60C140 59.4477 139.552 59 139 59H137Z"
    fill="var(--color-bg-default)"
  />
  <path
    d="M128 68C128.552 68 129 68.4477 129 69V71C129 71.5523 128.552 72 128 72C127.448 72 127 71.5523 127 71V69C127 68.4477 127.448 68 128 68Z"
    fill="var(--color-bg-default)"
  />
  <path
    d="M133.683 65.6829C134.073 65.2924 134.707 65.2924 135.097 65.6829L136.511 67.0972C136.902 67.4877 136.902 68.1209 136.511 68.5114C136.121 68.9019 135.488 68.9019 135.097 68.5114L133.683 67.0971C133.292 66.7066 133.292 66.0734 133.683 65.6829Z"
    fill="var(--color-bg-default)"
  />
  <path
    d="M122.321 67.0971C122.712 66.7066 122.712 66.0734 122.321 65.6829C121.931 65.2924 121.298 65.2924 120.907 65.6829L119.493 67.0971C119.102 67.4876 119.102 68.1208 119.493 68.5113C119.883 68.9019 120.517 68.9019 120.907 68.5113L122.321 67.0971Z"
    fill="var(--color-bg-default)"
  />
  <path
    d="M119.493 51.4928C119.883 51.1023 120.517 51.1023 120.907 51.4928L122.321 52.907C122.712 53.2975 122.712 53.9307 122.321 54.3212C121.931 54.7117 121.298 54.7117 120.907 54.3212L119.493 52.9071C119.102 52.5165 119.102 51.8834 119.493 51.4928Z"
    fill="var(--color-bg-default)"
  />
  <path
    d="M136.511 52.9071C136.902 52.5165 136.902 51.8834 136.511 51.4928C136.121 51.1023 135.488 51.1023 135.097 51.4928L133.683 52.9071C133.292 53.2976 133.292 53.9307 133.683 54.3213C134.073 54.7118 134.707 54.7118 135.097 54.3213L136.511 52.9071Z"
    fill="var(--color-bg-default)"
  />
  <path
    d="M128 66C131.314 66 134 63.3137 134 60C134 56.6863 131.314 54 128 54C124.686 54 122 56.6863 122 60C122 63.3137 124.686 66 128 66Z"
    fill="var(--color-bg-default)"
  />
  <rect
    x="53"
    y="41"
    width="39"
    height="39"
    rx="4"
    fill="var(--color-control-bg-ghost)"
  />
  <path
    d="M82.8738 61.5933C81.6426 62.4786 80.1322 63 78.5 63C74.3579 63 71 59.6421 71 55.5C71 53.3309 71.9208 51.377 73.3928 50.0076C73.2625 50.0025 73.1315 50 73 50C67.4772 50 63 54.4772 63 60C63 65.5228 67.4772 70 73 70C77.9806 70 82.1107 66.3589 82.8738 61.5933Z"
    fill="var(--color-typo-ghost)"
  />
</svg>
