<svg viewBox="0 0 34 40" xmlns="http://www.w3.org/2000/svg">
  <path
    d="M31.7333 0H2.26667C1.01482 0 0 0.89543 0 2V38C0 39.1046 1.01482 40 2.26667 40H31.7333C32.9852 40 34 39.1046 34 38V2C34 0.89543 32.9852 0 31.7333 0Z"
  />
  <path
    d="M20 16.64C20 17.2 19.9733 17.62 19.92 17.9C19.8667 18.1667 19.7467 18.44 19.56 18.72L17.04 21V23H15V20.5L17.92 17.58C17.9733 17.3933 18 17.14 18 16.82V16.3C18 15.8867 17.88 15.5667 17.64 15.34C17.4 15.1133 17.0333 15 16.54 15H13V13H16.3C18.54 13 20 14 20 16V16.64ZM17 25V27H15V25H17Z"
    fill="white"
  />
</svg>
