<svg
  width="200"
  height="120"
  viewBox="0 0 200 120"
  fill="none"
  xmlns="http://www.w3.org/2000/svg"
>
  <path
    d="M0 4C0 1.79086 1.79086 0 4 0H196C198.209 0 200 1.79086 200 4V116C200 118.209 198.209 120 196 120H4C1.79086 120 0 118.209 0 116V4Z"
    fill="var(--color-bg-default)"
  />
  <rect x="64" y="22" width="101" height="7" fill="var(--color-bg-ghost)" />
  <rect
    x="43"
    y="22"
    width="41"
    height="2"
    transform="rotate(90 43 22)"
    fill="var(--color-bg-success)"
  />
  <rect
    x="43"
    y="56"
    width="41"
    height="2"
    transform="rotate(90 43 56)"
    fill="var(--color-bg-warning)"
  />
  <rect x="64" y="56" width="101" height="7" fill="var(--color-bg-ghost)" />
  <rect x="64" y="90" width="101" height="7" fill="var(--color-bg-ghost)" />
  <circle cx="42" cy="26" r="7" fill="var(--color-bg-success)" />
  <circle cx="42" cy="60" r="7" fill="var(--color-bg-warning)" />
  <circle cx="42" cy="94" r="7" fill="var(--color-bg-alert)" />
</svg>
