<svg width="200" height="120" viewBox="0 0 200 120" fill="none" xmlns="http://www.w3.org/2000/svg">
  <path
    d="M0 4C0 1.79086 1.79086 0 4 0H196C198.209 0 200 1.79086 200 4V116C200 118.209 198.209 120 196 120H4C1.79086 120 0 118.209 0 116V4Z"
    fill="white"
  />
  <rect x="64" y="22" width="101" height="7" fill="#002033" fill-opacity="0.08" />
  <rect x="43" y="22" width="41" height="2" transform="rotate(90 43 22)" fill="#22C38E" />
  <rect x="43" y="56" width="41" height="2" transform="rotate(90 43 56)" fill="#F38B00" />
  <rect x="64" y="56" width="101" height="7" fill="#002033" fill-opacity="0.08" />
  <rect x="64" y="90" width="101" height="7" fill="#002033" fill-opacity="0.08" />
  <circle cx="42" cy="26" r="7" fill="#22C38E" />
  <circle cx="42" cy="60" r="7" fill="#F38B00" />
  <circle cx="42" cy="94" r="7" fill="#EB5757" />
</svg>
