<svg viewBox="0 0 21 28" xmlns="http://www.w3.org/2000/svg"><path d="M19.6 0H1.4A1.4 1.4 0 000 1.4v25.2A1.4 1.4 0 001.4 28h18.2a1.4 1.4 0 001.4-1.4V1.4A1.4 1.4 0 0019.6 0z"></path><path fill="#fff" fill-rule="evenodd" d="M17 12v13H4V12h13zm-3 12h2v-2h-2v2zm0-3h2v-2h-2v2zm-1-2v5.056H8V19h5zm0-1H8v-5.056h5V18zm1 0h2v-2h-2v2zm0-3h2v-2h-2v2zm-7 1v2H5v-2h2zm-2 5v-2h2v2H5zm0 1v2h2v-2H5zm2-7v-2H5v2h2z" clip-rule="evenodd" opacity=".7"></path><path fill="#fff" d="M16 3V2h-1v1h1zM14 4v1h1v3h-1v1h3V8h-1V4h-2z"></path><path fill="#fff" fill-rule="evenodd" d="M8.95 9a.659.659 0 01-.29-.08.818.818 0 01-.26-.22.73.73 0 01-.61.3H6.45c-.507 0-.877-.1-1.11-.3C5.113 8.493 5 8.143 5 7.65v-.1C5 6.517 5.487 6 6.46 6H8v-.35c0-.207-.063-.367-.19-.48-.127-.113-.313-.17-.56-.17H5.5V4h1.8c.58 0 1.007.127 1.28.38.28.253.42.66.42 1.22V8c0 .1.037.177.11.23.08.047.21.07.39.07V9h-.55zM7.54 8c.2 0 .327-.047.38-.14A.72.72 0 008 7.5V7H6.6a.583.583 0 00-.599.554c.008.146.048.255.119.326.08.08.207.12.38.12h1.04z" clip-rule="evenodd"></path><path fill="#fff" d="M11 4h-1v3l1 2h1l1-2V4h-1v3h-1V4z"></path></svg>