<svg viewBox="0 0 34 40" xmlns="http://www.w3.org/2000/svg">
  <path
    d="M32 0H2C0.89543 0 0 0.89543 0 2V38C0 39.1046 0.89543 40 2 40H32C33.1046 40 34 39.1046 34 38V2C34 0.89543 33.1046 0 32 0Z"
  />
  <path
    opacity="0.6"
    fill-rule="evenodd"
    clip-rule="evenodd"
    d="M25 17V33H9V17H25ZM22.1765 17.8889H24.0588V18.8824H22.1765V17.8889ZM22.1765 32.1111H24.0588V31.1176H22.1765V32.1111ZM22.1765 30.1765H24.0588V28.2941H22.1765V30.1765ZM22.1765 27.3529H24.0588V25.4706H22.1765V27.3529ZM21.2353 25.4706V32.1111H12.7647V25.4706H21.2353ZM21.2353 24.5294H12.7647V17.8889H21.2353V24.5294ZM22.1765 24.5294H24.0588V22.6471H22.1765V24.5294ZM22.1765 21.7059H24.0588V19.8235H22.1765V21.7059ZM11.8235 22.6471V24.5294H9.94118V22.6471H11.8235ZM9.94118 27.3529V25.4706H11.8235V27.3529H9.94118ZM9.94118 28.2941V30.1765H11.8235V28.2941H9.94118ZM9.94118 32.1111V31.1176H11.8235V32.1111H9.94118ZM11.8235 21.7059V19.8235H9.94118V21.7059H11.8235ZM9.94118 17.8889V18.8824H11.8235V17.8889H9.94118Z"
    fill="white"
  />
  <path d="M22 6V5H21V6H22Z" fill="white" />
  <path d="M20 7V8H21V11H20V12H23V11H22V7H20Z" fill="white" />
  <path
    fill-rule="evenodd"
    clip-rule="evenodd"
    d="M14.95 12C14.8633 12 14.7667 11.9733 14.66 11.92C14.56 11.8667 14.4733 11.7933 14.4 11.7C14.2467 11.9 14.0433 12 13.79 12H12.45C11.9433 12 11.5733 11.9 11.34 11.7C11.1133 11.4933 11 11.1433 11 10.65V10.55C11 9.51667 11.4867 9 12.46 9H14V8.65C14 8.44333 13.9367 8.28333 13.81 8.17C13.6833 8.05667 13.4967 8 13.25 8H11.5V7H13.3C13.88 7 14.3067 7.12667 14.58 7.38C14.86 7.63333 15 8.04 15 8.6V11C15 11.1 15.0367 11.1767 15.11 11.23C15.19 11.2767 15.32 11.3 15.5 11.3V12H14.95ZM13.54 11C13.74 11 13.8667 10.9533 13.92 10.86C13.9733 10.7667 14 10.6467 14 10.5V10H12.6C12.4267 10 12.2833 10.0567 12.17 10.17C12.0668 10.2732 12.0106 10.4012 12.0014 10.554C12.009 10.6999 12.0486 10.8086 12.12 10.88C12.2 10.96 12.3267 11 12.5 11H13.54Z"
    fill="white"
  />
  <path d="M17 7H16V10L17 12H18L19 10V7H18V10H17V7Z" fill="white" />
</svg>
