<svg viewBox="0 0 24 28" xmlns="http://www.w3.org/2000/svg">
  <rect width="24" height="28" rx="2" />
  <path
    opacity="0.6"
    fill-rule="evenodd"
    clip-rule="evenodd"
    d="M19 12V25H5V12H19ZM16 24H18V22H16V24ZM16 21H18V19H16V21ZM15 19V24.0556H9V19H15ZM15 18H9V12.9444H15V18ZM16 18H18V16H16V18ZM16 15H18V13H16V15ZM8 16V18H6V16H8ZM6 21V19H8V21H6ZM6 22V24H8V22H6ZM8 15V13H6V15H8Z"
    fill="white"
  />
  <path d="M17 3V2H16V3H17Z" fill="white" />
  <path d="M15 4V5H16V8H15V9H18V8H17V4H15Z" fill="white" />
  <path
    fill-rule="evenodd"
    clip-rule="evenodd"
    d="M9.95 9C9.86333 9 9.76667 8.97333 9.66 8.92C9.56 8.86667 9.47333 8.79333 9.4 8.7C9.24667 8.9 9.04333 9 8.79 9H7.45C6.94333 9 6.57333 8.9 6.34 8.7C6.11333 8.49333 6 8.14333 6 7.65V7.55C6 6.51667 6.48667 6 7.46 6H9V5.65C9 5.44333 8.93667 5.28333 8.81 5.17C8.68333 5.05667 8.49667 5 8.25 5H6.5V4H8.3C8.88 4 9.30667 4.12667 9.58 4.38C9.86 4.63333 10 5.04 10 5.6V8C10 8.1 10.0367 8.17667 10.11 8.23C10.19 8.27667 10.32 8.3 10.5 8.3V9H9.95ZM8.54 8C8.74 8 8.86667 7.95333 8.92 7.86C8.97333 7.76667 9 7.64667 9 7.5V7H7.6C7.42667 7 7.28333 7.05667 7.17 7.17C7.06685 7.27315 7.01064 7.40115 7.00137 7.55401C7.00901 7.69989 7.04856 7.80856 7.12 7.88C7.2 7.96 7.32667 8 7.5 8H8.54Z"
    fill="white"
  />
  <path d="M12 4H11V7L12 9H13L14 7V4H13V7H12V4Z" fill="white" />
</svg>
