<svg viewBox="0 0 30 40" xmlns="http://www.w3.org/2000/svg">
  <path
    d="M28 0H2C0.89543 0 0 0.89543 0 2V38C0 39.1046 0.89543 40 2 40H28C29.1046 40 30 39.1046 30 38V2C30 0.89543 29.1046 0 28 0Z"
  />
  <path
    opacity="0.6"
    fill-rule="evenodd"
    clip-rule="evenodd"
    d="M23 17V33H7V17H23ZM20.1765 17.8889H22.0588V18.8824H20.1765V17.8889ZM20.1765 32.1111H22.0588V31.1176H20.1765V32.1111ZM20.1765 30.1765H22.0588V28.2941H20.1765V30.1765ZM20.1765 27.3529H22.0588V25.4706H20.1765V27.3529ZM19.2353 25.4706V32.1111H10.7647V25.4706H19.2353ZM19.2353 24.5294H10.7647V17.8889H19.2353V24.5294ZM20.1765 24.5294H22.0588V22.6471H20.1765V24.5294ZM20.1765 21.7059H22.0588V19.8235H20.1765V21.7059ZM9.82353 22.6471V24.5294H7.94118V22.6471H9.82353ZM7.94118 27.3529V25.4706H9.82353V27.3529H7.94118ZM7.94118 28.2941V30.1765H9.82353V28.2941H7.94118ZM7.94118 32.1111V31.1176H9.82353V32.1111H7.94118ZM9.82353 21.7059V19.8235H7.94118V21.7059H9.82353ZM7.94118 17.8889V18.8824H9.82353V17.8889H7.94118Z"
    fill="#fff"
  />
  <path d="M20 6V5H19V6H20Z" fill="#fff" />
  <path d="M18 7V8H19V11H18V12H21V11H20V7H18Z" fill="#fff" />
  <path
    fill-rule="evenodd"
    clip-rule="evenodd"
    d="M12.95 12C12.8633 12 12.7667 11.9733 12.66 11.92C12.56 11.8667 12.4733 11.7933 12.4 11.7C12.2467 11.9 12.0433 12 11.79 12H10.45C9.94333 12 9.57333 11.9 9.34 11.7C9.11333 11.4933 9 11.1433 9 10.65V10.55C9 9.51667 9.48667 9 10.46 9H12V8.65C12 8.44333 11.9367 8.28333 11.81 8.17C11.6833 8.05667 11.4967 8 11.25 8H9.5V7H11.3C11.88 7 12.3067 7.12667 12.58 7.38C12.86 7.63333 13 8.04 13 8.6V11C13 11.1 13.0367 11.1767 13.11 11.23C13.19 11.2767 13.32 11.3 13.5 11.3V12H12.95ZM11.54 11C11.74 11 11.8667 10.9533 11.92 10.86C11.9733 10.7667 12 10.6467 12 10.5V10H10.6C10.4267 10 10.2833 10.0567 10.17 10.17C10.0668 10.2732 10.0106 10.4012 10.0014 10.554C10.009 10.6999 10.0486 10.8086 10.12 10.88C10.2 10.96 10.3267 11 10.5 11H11.54Z"
    fill="#fff"
  />
  <path d="M15 7H14V10L15 12H16L17 10V7H16V10H15V7Z" fill="#fff" />
</svg>
