<svg viewBox="0 0 30 40" xmlns="http://www.w3.org/2000/svg">
  <path d="M28 0H2a2 2 0 00-2 2v36a2 2 0 002 2h26a2 2 0 002-2V2a2 2 0 00-2-2z" />
  <path
    fill="#fff"
    fill-rule="evenodd"
    d="M24 18v17H7V18h17zm-3 .944h2V20h-2v-1.056zm0 15.112h2V33h-2v1.056zM21 32h2v-2h-2v2zm0-3h2v-2h-2v2zm-1-2v7.056h-9V27h9zm0-1h-9v-7.056h9V26zm1 0h2v-2h-2v2zm0-3h2v-2h-2v2zm-11 1v2H8v-2h2zm-2 5v-2h2v2H8zm0 1v2h2v-2H8zm0 4.056V33h2v1.056H8zM10 23v-2H8v2h2zm-2-4.056V20h2v-1.056H8z"
    clip-rule="evenodd"
    opacity=".7"
  />
  <path fill="#fff" d="M20 6V5h-1v1h1zM18 7v1h1v3h-1v1h3v-1h-1V7h-2z" />
  <path
    fill="#fff"
    fill-rule="evenodd"
    d="M12.95 12a.66.66 0 01-.29-.08.818.818 0 01-.26-.22.73.73 0 01-.61.3h-1.34c-.507 0-.877-.1-1.11-.3-.227-.207-.34-.557-.34-1.05v-.1C9 9.517 9.487 9 10.46 9H12v-.35c0-.207-.063-.367-.19-.48-.127-.113-.313-.17-.56-.17H9.5V7h1.8c.58 0 1.007.127 1.28.38.28.253.42.66.42 1.22V11c0 .1.037.177.11.23.08.047.21.07.39.07v.7h-.55zm-1.41-1c.2 0 .327-.047.38-.14a.72.72 0 00.08-.36V10h-1.4a.583.583 0 00-.599.554c.008.146.048.255.119.326.08.08.207.12.38.12h1.04z"
    clip-rule="evenodd"
  />
  <path fill="#fff" d="M15 7h-1v3l1 2h1l1-2V7h-1v3h-1V7z" />
</svg>
