<svg
  width="200"
  height="120"
  viewBox="0 0 200 120"
  fill="none"
  xmlns="http://www.w3.org/2000/svg"
>
  <path
    d="M0 4C0 1.79086 1.79086 0 4 0H196C198.209 0 200 1.79086 200 4V116C200 118.209 198.209 120 196 120H4C1.79086 120 0 118.209 0 116V4Z"
    fill="var(--color-bg-default)"
  />
  <rect
    x="34.5"
    y="34.5"
    width="15"
    height="15"
    rx="3.5"
    stroke="var(--color-control-bg-border-default)"
  />
  <rect
    x="34.5"
    y="70.5"
    width="15"
    height="15"
    rx="3.5"
    stroke="var(--color-control-bg-border-default)"
  />
  <rect
    x="72"
    y="34"
    width="16"
    height="16"
    rx="4"
    fill="var(--color-control-bg-ghost)"
  />
  <path
    fill-rule="evenodd"
    clip-rule="evenodd"
    d="M76.2284 40.9284L75.2 42.1541L79.4898 45.7537L85.6606 38.3997L84.4349 37.3713L79.2926 43.4996L76.2284 40.9284Z"
    fill="var(--color-control-typo-disable)"
  />
  <rect
    x="110"
    y="34"
    width="16"
    height="16"
    rx="4"
    fill="var(--color-control-bg-ghost)"
  />
  <rect
    x="110.5"
    y="34.5"
    width="15"
    height="15"
    rx="3.5"
    stroke="var(--color-control-bg-border-default)"
  />
  <path
    fill-rule="evenodd"
    clip-rule="evenodd"
    d="M114.228 40.9284L113.2 42.1541L117.49 45.7537L123.661 38.3997L122.435 37.3713L117.293 43.4996L114.228 40.9284Z"
    fill="var(--color-control-typo-ghost)"
  />
  <rect
    x="148"
    y="34"
    width="16"
    height="16"
    rx="4"
    fill="var(--color-bg-link)"
  />
  <path
    fill-rule="evenodd"
    clip-rule="evenodd"
    d="M152.028 41.1284L151 42.354L155.29 45.9536L161.461 38.5996L160.235 37.5712L155.093 43.6995L152.028 41.1284Z"
    fill="var(--color-bg-default)"
  />
  <rect
    x="148"
    y="70"
    width="16"
    height="16"
    rx="4"
    fill="var(--color-bg-link)"
  />
  <path d="M152.5 77H159.5V79H152.5V77Z" fill="var(--color-bg-default)" />
  <rect
    x="110"
    y="70"
    width="16"
    height="16"
    rx="4"
    fill="var(--color-control-bg-ghost)"
  />
  <rect
    x="110.5"
    y="70.5"
    width="15"
    height="15"
    rx="3.5"
    stroke="var(--color-control-bg-border-default)"
  />
  <path
    d="M114.5 77H121.5V79H114.5V77Z"
    fill="var(--color-control-typo-ghost)"
  />
  <path
    d="M115 77.5H121V78.5H115V77.5Z"
    stroke="var(--color-control-bg-border-default)"
  />
  <rect
    x="72"
    y="70"
    width="16"
    height="16"
    rx="4"
    fill="var(--color-control-bg-ghost)"
  />
  <path
    d="M76.5 77H83.5V79H76.5V77Z"
    fill="var(--color-control-typo-disable)"
  />
</svg>
