<svg viewBox="0 0 12 12" xmlns="http://www.w3.org/2000/svg">
  <path
    d="M2.818 4.94L.89 6.866a3 3 0 104.243 4.243l1.22-1.22-.707-.708-1.22 1.22a2 2 0 11-2.829-2.828l1.928-1.928-.707-.707zM11.11 5.133L9.182 7.06l-.707-.707 1.928-1.929a2 2 0 00-2.829-2.828l-1.22 1.221-.708-.707L6.867.89a3 3 0 114.243 4.243zM5.651 3.484L3.936.883l-.603.603 1.715 2.6.603-.602zM2.339 2.381l1.81 1.206-.604.603-1.81-1.206.604-.603zM7.786 8.454l1.81 1.206.602-.603L8.39 7.851l-.603.603zM6.317 8.484l1.793 2.641.603-.603L6.92 7.881l-.603.603z"
  />
</svg>
