<svg
  width="200"
  height="120"
  viewBox="0 0 200 120"
  fill="none"
  xmlns="http://www.w3.org/2000/svg"
>
  <path
    d="M0 4C0 1.79086 1.79086 0 4 0H196C198.209 0 200 1.79086 200 4V116C200 118.209 198.209 120 196 120H4C1.79086 120 0 118.209 0 116V4Z"
    fill="var(--color-bg-default)"
  />
  <circle cx="70" cy="60" r="18" fill="var(--color-bg-default)" />
  <path
    d="M83.8138 71.4785C85.6599 69.2573 86.9438 66.6242 87.5571 63.8019C88.1703 60.9796 88.0948 58.0512 87.3368 55.2642C86.5789 52.4773 85.1609 49.9139 83.2028 47.7909C81.2446 45.6679 78.804 44.0477 76.0873 43.0675C73.3705 42.0872 70.4577 41.7757 67.5951 42.1593C64.7326 42.5429 62.0045 43.6103 59.6417 45.2712C57.2789 46.9321 55.3509 49.1376 54.0207 51.7013C52.6906 54.2649 51.9975 57.1112 52 59.9993C52.001 64.1979 53.4805 68.262 56.179 71.4785L56.1533 71.5003C56.2433 71.6083 56.3461 71.7008 56.4387 71.8075C56.5544 71.9399 56.6791 72.0646 56.7986 72.1932C57.1586 72.5839 57.5288 72.9593 57.917 73.3115C58.0352 73.4195 58.1574 73.5198 58.2769 73.6226C58.6882 73.9774 59.1112 74.3142 59.5495 74.6278C59.6061 74.6664 59.6575 74.7165 59.714 74.7564V74.7409C62.7247 76.8596 66.3163 77.9967 69.9977 77.9967C73.6791 77.9967 77.2707 76.8596 80.2814 74.7409V74.7564C80.3379 74.7165 80.3881 74.6664 80.4459 74.6278C80.883 74.3129 81.3072 73.9774 81.7185 73.6226C81.8381 73.5198 81.9602 73.4182 82.0784 73.3115C82.4667 72.958 82.8369 72.5839 83.1968 72.1932C83.3163 72.0646 83.4397 71.9399 83.5567 71.8075C83.648 71.7008 83.7521 71.6083 83.8421 71.499L83.8138 71.4785ZM69.9964 49.7156C71.1405 49.7156 72.2589 50.0549 73.2102 50.6905C74.1614 51.3261 74.9028 52.2296 75.3407 53.2866C75.7785 54.3435 75.893 55.5066 75.6698 56.6287C75.4466 57.7508 74.8957 58.7815 74.0867 59.5905C73.2777 60.3995 72.247 60.9504 71.1249 61.1736C70.0028 61.3968 68.8398 61.2823 67.7828 60.8444C66.7258 60.4066 65.8224 59.6652 65.1867 58.7139C64.5511 57.7627 64.2119 56.6443 64.2119 55.5002C64.2119 53.966 64.8213 52.4947 65.9061 51.4099C66.9909 50.3251 68.4623 49.7156 69.9964 49.7156ZM59.7218 71.4785C59.7441 69.7906 60.43 68.1794 61.6311 66.9934C62.8323 65.8074 64.4521 65.142 66.14 65.1411H73.8528C75.5408 65.142 77.1606 65.8074 78.3617 66.9934C79.5629 68.1794 80.2488 69.7906 80.2711 71.4785C77.4519 74.0189 73.7914 75.4249 69.9964 75.4249C66.2014 75.4249 62.541 74.0189 59.7218 71.4785Z"
    fill="var(--color-control-typo-placeholder)"
  />
  <rect
    x="112"
    y="42"
    width="36"
    height="36"
    rx="4"
    fill="var(--color-control-typo-placeholder)"
  />
  <path
    d="M129.996 49.7156C131.14 49.7156 132.259 50.0549 133.21 50.6905C134.161 51.3261 134.903 52.2296 135.341 53.2866C135.778 54.3435 135.893 55.5066 135.67 56.6287C135.447 57.7508 134.896 58.7815 134.087 59.5905C133.278 60.3995 132.247 60.9504 131.125 61.1736C130.003 61.3968 128.84 61.2823 127.783 60.8444C126.726 60.4066 125.822 59.6652 125.187 58.7139C124.551 57.7627 124.212 56.6443 124.212 55.5002C124.212 53.966 124.821 52.4947 125.906 51.4099C126.991 50.3251 128.462 49.7156 129.996 49.7156Z"
    fill="var(--color-bg-default)"
  />
  <path
    d="M119.312 75.75C119.335 74.0622 120.43 68.1794 121.631 66.9934C122.832 65.8074 124.452 65.142 126.14 65.1411H133.853C135.541 65.142 137.161 65.8074 138.362 66.9934C139.563 68.1794 140.665 74.0622 140.688 75.75H119.312Z"
    fill="var(--color-bg-default)"
  />
</svg>
