<svg
  width="200"
  height="120"
  viewBox="0 0 200 120"
  fill="none"
  xmlns="http://www.w3.org/2000/svg"
>
  <g clip-path="url(#clip0_2606_49313)">
    <circle cx="129" cy="60" r="20" fill="var(--color-bg-default)" />
    <circle cx="129" cy="60" r="18" fill="#DEE4E8" />
    <circle cx="110" cy="60" r="20" fill="var(--color-bg-default)" />
    <circle cx="110" cy="60" r="18" fill="#DEE4E8" />
    <circle cx="91" cy="60" r="20" fill="var(--color-bg-default)" />
    <circle cx="91" cy="60" r="18" fill="#DEE4E8" />
    <circle cx="72" cy="60" r="20" fill="var(--color-bg-default)" />
    <path
      d="M85.8429 71.4785C87.6907 69.2573 88.9758 66.6242 89.5896 63.8019C90.2034 60.9796 90.1278 58.0512 89.3691 55.2642C88.6105 52.4773 87.1912 49.9139 85.2313 47.7909C83.2714 45.6679 80.8285 44.0477 78.1093 43.0675C75.3901 42.0872 72.4746 41.7757 69.6094 42.1593C66.7442 42.5429 64.0136 43.6103 61.6487 45.2712C59.2837 46.9321 57.3539 49.1376 56.0226 51.7013C54.6912 54.2649 53.9975 57.1112 54 59.9993C54.001 64.1979 55.4819 68.262 58.1829 71.4785L58.1571 71.5003C58.2472 71.6083 58.3501 71.7008 58.4428 71.8075C58.5585 71.9399 58.6834 72.0646 58.803 72.1932C59.1633 72.5839 59.5338 72.9593 59.9224 73.3115C60.0408 73.4195 60.163 73.5198 60.2826 73.6226C60.6944 73.9774 61.1177 74.3142 61.5564 74.6278C61.613 74.6664 61.6645 74.7165 61.7211 74.7564V74.7409C64.7345 76.8596 68.3294 77.9967 72.0142 77.9967C75.6989 77.9967 79.2938 76.8596 82.3072 74.7409V74.7564C82.3638 74.7165 82.414 74.6664 82.4719 74.6278C82.9094 74.3129 83.334 73.9774 83.7457 73.6226C83.8653 73.5198 83.9876 73.4182 84.1059 73.3115C84.4945 72.958 84.8651 72.5839 85.2253 72.1932C85.345 72.0646 85.4685 71.9399 85.5856 71.8075C85.6769 71.7008 85.7811 71.6083 85.8712 71.499L85.8429 71.4785ZM72.0129 49.7156C73.158 49.7156 74.2774 50.0549 75.2295 50.6905C76.1817 51.3261 76.9238 52.2296 77.362 53.2866C77.8002 54.3435 77.9149 55.5066 77.6915 56.6287C77.4681 57.7508 76.9166 58.7815 76.1069 59.5905C75.2972 60.3995 74.2655 60.9504 73.1424 61.1736C72.0193 61.3968 70.8552 61.2823 69.7972 60.8444C68.7392 60.4066 67.835 59.6652 67.1988 58.7139C66.5626 57.7627 66.223 56.6443 66.223 55.5002C66.223 53.966 66.833 52.4947 67.9188 51.4099C69.0046 50.3251 70.4773 49.7156 72.0129 49.7156ZM61.7288 71.4785C61.7511 69.7906 62.4377 68.1794 63.6399 66.9934C64.8422 65.8074 66.4634 65.142 68.153 65.1411H75.8728C77.5623 65.142 79.1836 65.8074 80.3858 66.9934C81.5881 68.1794 82.2746 69.7906 82.2969 71.4785C79.4751 74.0189 75.8113 75.4249 72.0129 75.4249C68.2144 75.4249 64.5506 74.0189 61.7288 71.4785Z"
      fill="var(--color-bg-link)"
    />
  </g>
  <defs>
    <clipPath id="clip0_2606_49313">
      <rect width="200" height="120" fill="var(--color-bg-default)" />
    </clipPath>
  </defs>
</svg>
