<svg viewBox="0 0 24 24" xmlns="http://www.w3.org/2000/svg">
  <path
    d="M20.3424 2H12.4907C12.0545 2 11.6183 2.17448 11.3566 2.43621L2.45802 11.422C1.84733 12.0327 1.84733 13.0796 2.45802 13.6903L10.3097 21.542C10.9204 22.1527 11.9673 22.1527 12.578 21.542L21.5638 12.5562C21.8255 12.2944 22 11.8582 22 11.422V3.57034C22 2.69793 21.3021 2 20.3424 2ZM16.7655 8.97928C15.8059 8.97928 15.0207 8.19411 15.0207 7.23446C15.0207 6.27481 15.8059 5.48964 16.7655 5.48964C17.7252 5.48964 18.5104 6.27481 18.5104 7.23446C18.5104 8.19411 17.7252 8.97928 16.7655 8.97928Z"
  />
</svg>
