<svg viewBox="0 0 16 16" xmlns="http://www.w3.org/2000/svg">
  <path
    d="M13.8397 1H8.34351C8.03817 1 7.73282 1.12214 7.54962 1.30534L1.32061 7.59542C0.89313 8.0229 0.89313 8.75572 1.32061 9.18321L6.81679 14.6794C7.24428 15.1069 7.9771 15.1069 8.40458 14.6794L14.6947 8.38931C14.8779 8.20611 15 7.90076 15 7.59542V2.09924C15 1.48855 14.5115 1 13.8397 1ZM11.3359 5.8855C10.6641 5.8855 10.1145 5.33588 10.1145 4.66412C10.1145 3.99237 10.6641 3.44275 11.3359 3.44275C12.0076 3.44275 12.5573 3.99237 12.5573 4.66412C12.5573 5.33588 12.0076 5.8855 11.3359 5.8855Z"
  />
</svg>
