<svg viewBox="0 0 12 12" xmlns="http://www.w3.org/2000/svg">
  <path
    d="M10.1712 1H6.24537C6.02726 1 5.80916 1.08724 5.6783 1.2181L1.22901 5.71101C0.923664 6.01636 0.923664 6.5398 1.22901 6.84515L5.15485 10.771C5.4602 11.0763 5.98364 11.0763 6.28899 10.771L10.7819 6.27808C10.9128 6.14722 11 5.92912 11 5.71101V1.78517C11 1.34896 10.651 1 10.1712 1ZM8.38277 4.48964C7.90294 4.48964 7.51036 4.09706 7.51036 3.61723C7.51036 3.1374 7.90294 2.74482 8.38277 2.74482C8.8626 2.74482 9.25518 3.1374 9.25518 3.61723C9.25518 4.09706 8.8626 4.48964 8.38277 4.48964Z"
  />
</svg>
