<svg viewBox="0 0 21 28" xmlns="http://www.w3.org/2000/svg">
  <path
    d="M19.6 0H1.4C0.626801 0 0 0.626801 0 1.4V26.6C0 27.3732 0.626801 28 1.4 28H19.6C20.3732 28 21 27.3732 21 26.6V1.4C21 0.626801 20.3732 0 19.6 0Z"
  />
  <path d="M14 7H16.5V9H17.5V7H18V6H17.5V4.5H16.5V6H15L16 2H15L14 5.87V7Z" fill="#fff" />
  <path
    d="M5.5 4.38195C5.23462 4.14443 4.88418 4 4.5 4C4.24718 4 4.00897 4.06255 3.8 4.17301V4H3V9H4V5.5C4 5.22386 4.22386 5 4.5 5C4.77614 5 5 5.22386 5 5.5V9H6V5.5C6 5.22386 6.22386 5 6.5 5C6.77614 5 7 5.22386 7 5.5V9H8V5.41L7.99721 5.40771C7.94953 4.62226 7.29744 4 6.5 4C6.11582 4 5.76538 4.14443 5.5 4.38195Z"
    fill="#fff"
  />
  <path
    fill-rule="evenodd"
    clip-rule="evenodd"
    d="M9.8 4.24V4H9V11H10.01V9H11.3C11.88 9 12.3067 8.87333 12.58 8.62C12.86 8.36667 13 7.96 13 7.4V5.6C13 5.03333 12.8633 4.62667 12.59 4.38C12.3167 4.12667 11.8867 4 11.3 4H10.6C10.2733 4 10.0067 4.08 9.8 4.24ZM10.16 5.18C10.2667 5.06 10.43 5 10.65 5H11.25C11.4967 5 11.6833 5.05667 11.81 5.17C11.9367 5.28333 12 5.44333 12 5.65V7.35C12 7.55667 11.9367 7.71667 11.81 7.83C11.6833 7.94333 11.4967 8 11.25 8H10.01L10 5.55C10 5.41667 10.0533 5.29333 10.16 5.18Z"
    fill="#fff"
  />
  <path
    opacity="0.6"
    fill-rule="evenodd"
    clip-rule="evenodd"
    d="M17 12V25H4V12H17ZM14 24H16V22H14V24ZM14 21H16V19H14V21ZM13 19V24.0556H8V19H13ZM13 18H8V12.9444H13V18ZM14 18H16V16H14V18ZM14 15H16V13H14V15ZM7 16V18H5V16H7ZM5 21V19H7V21H5ZM5 22V24H7V22H5ZM7 15V13H5V15H7Z"
    fill="#fff"
  />
</svg>
