<svg viewBox="0 0 24 28" xmlns="http://www.w3.org/2000/svg">
  <rect width="24" height="28" rx="2" />
  <path
    d="M16 7H18.5V9H19.5V7H20V6H19.5V4.5H18.5V6H17L18 2H17L16 5.87V7Z"
    fill="white"
  />
  <path
    d="M7.5 4.38195C7.23462 4.14443 6.88418 4 6.5 4C6.24718 4 6.00897 4.06255 5.8 4.17301V4H5V9H6V5.5C6 5.22386 6.22386 5 6.5 5C6.77614 5 7 5.22386 7 5.5V9H8V5.5C8 5.22386 8.22386 5 8.5 5C8.77614 5 9 5.22386 9 5.5V9H10V5.41L9.99721 5.40771C9.94953 4.62226 9.29744 4 8.5 4C8.11582 4 7.76538 4.14443 7.5 4.38195Z"
    fill="white"
  />
  <path
    fill-rule="evenodd"
    clip-rule="evenodd"
    d="M11.8 4.24V4H11V11H12.01V9H13.3C13.88 9 14.3067 8.87333 14.58 8.62C14.86 8.36667 15 7.96 15 7.4V5.6C15 5.03333 14.8633 4.62667 14.59 4.38C14.3167 4.12667 13.8867 4 13.3 4H12.6C12.2733 4 12.0067 4.08 11.8 4.24ZM12.16 5.18C12.2667 5.06 12.43 5 12.65 5H13.25C13.4967 5 13.6833 5.05667 13.81 5.17C13.9367 5.28333 14 5.44333 14 5.65V7.35C14 7.55667 13.9367 7.71667 13.81 7.83C13.6833 7.94333 13.4967 8 13.25 8H12.01L12 5.55C12 5.41667 12.0533 5.29333 12.16 5.18Z"
    fill="white"
  />
  <path
    opacity="0.6"
    fill-rule="evenodd"
    clip-rule="evenodd"
    d="M19 12V25H5V12H19ZM16 24H18V22H16V24ZM16 21H18V19H16V21ZM15 19V24.0556H9V19H15ZM15 18H9V12.9444H15V18ZM16 18H18V16H16V18ZM16 15H18V13H16V15ZM8 16V18H6V16H8ZM6 21V19H8V21H6ZM6 22V24H8V22H6ZM8 15V13H6V15H8Z"
    fill="white"
  />
</svg>
