<svg viewBox="0 0 30 40" xmlns="http://www.w3.org/2000/svg">
  <path
    d="M28 0H2C0.89543 0 0 0.89543 0 2V38C0 39.1046 0.89543 40 2 40H28C29.1046 40 30 39.1046 30 38V2C30 0.89543 29.1046 0 28 0Z"
  />
  <path d="M18.5 10H21V12H22V10H22.5V9H22V7.5H21V9H19.5L20.5 5H19.5L18.5 8.87V10Z" fill="#fff" />
  <path
    d="M10 7.38195C9.73462 7.14443 9.38418 7 9 7C8.74718 7 8.50897 7.06255 8.3 7.17301V7H7.5V12H8.5V8.5C8.5 8.22386 8.72386 8 9 8C9.27614 8 9.5 8.22386 9.5 8.5V12H10.5V8.5C10.5 8.22386 10.7239 8 11 8C11.2761 8 11.5 8.22386 11.5 8.5V12H12.5V8.41L12.4972 8.40771C12.4495 7.62226 11.7974 7 11 7C10.6158 7 10.2654 7.14443 10 7.38195Z"
    fill="#fff"
  />
  <path
    fill-rule="evenodd"
    clip-rule="evenodd"
    d="M14.3 7.24V7H13.5V14H14.51V12H15.8C16.38 12 16.8067 11.8733 17.08 11.62C17.36 11.3667 17.5 10.96 17.5 10.4V8.6C17.5 8.03333 17.3633 7.62667 17.09 7.38C16.8167 7.12667 16.3867 7 15.8 7H15.1C14.7733 7 14.5067 7.08 14.3 7.24ZM14.66 8.18C14.7667 8.06 14.93 8 15.15 8H15.75C15.9967 8 16.1833 8.05667 16.31 8.17C16.4367 8.28333 16.5 8.44333 16.5 8.65V10.35C16.5 10.5567 16.4367 10.7167 16.31 10.83C16.1833 10.9433 15.9967 11 15.75 11H14.51L14.5 8.55C14.5 8.41667 14.5533 8.29333 14.66 8.18Z"
    fill="#fff"
  />
  <path
    opacity="0.6"
    fill-rule="evenodd"
    clip-rule="evenodd"
    d="M23 17V33H7V17H23ZM20.1765 17.8889H22.0588V18.8824H20.1765V17.8889ZM20.1765 32.1111H22.0588V31.1176H20.1765V32.1111ZM20.1765 30.1765H22.0588V28.2941H20.1765V30.1765ZM20.1765 27.3529H22.0588V25.4706H20.1765V27.3529ZM19.2353 25.4706V32.1111H10.7647V25.4706H19.2353ZM19.2353 24.5294H10.7647V17.8889H19.2353V24.5294ZM20.1765 24.5294H22.0588V22.6471H20.1765V24.5294ZM20.1765 21.7059H22.0588V19.8235H20.1765V21.7059ZM9.82353 22.6471V24.5294H7.94118V22.6471H9.82353ZM7.94118 27.3529V25.4706H9.82353V27.3529H7.94118ZM7.94118 28.2941V30.1765H9.82353V28.2941H7.94118ZM7.94118 32.1111V31.1176H9.82353V32.1111H7.94118ZM9.82353 21.7059V19.8235H7.94118V21.7059H9.82353ZM7.94118 17.8889V18.8824H9.82353V17.8889H7.94118Z"
    fill="#fff"
  />
</svg>
