<svg width="12" height="12" viewBox="0 0 12 12" fill="none" xmlns="http://www.w3.org/2000/svg">
  <path
    d="M6.25653 6.4668C6.17465 6.48846 6.08868 6.5 6 6.5C5.44772 6.5 5 6.05229 5 5.5C5 5.36877 5.02527 5.24345 5.07123 5.12863L3.84085 3.73958L4.22644 3.35399L5.60953 4.5791C5.72949 4.52817 5.86145 4.5 6 4.5C6.55228 4.5 7 4.94771 7 5.5C7 5.5959 6.98651 5.68864 6.9613 5.77644L7.60199 6.34395L6.83081 7.11513L6.25653 6.4668Z"
    fill="black"
  />
  <path
    fill-rule="evenodd"
    clip-rule="evenodd"
    d="M8 9.53224C9.48172 8.79588 10.5 7.26686 10.5 5.5C10.5 3.01472 8.48529 1 6 1C3.51471 1 1.5 3.01472 1.5 5.5C1.5 7.26686 2.51828 8.79588 4 9.53224V10H3V11H9V10H8V9.53224ZM9.5 5.5C9.5 7.433 7.93298 9 6 9C4.06702 9 2.5 7.433 2.5 5.5C2.5 3.567 4.06702 2 6 2C7.93298 2 9.5 3.567 9.5 5.5Z"
    fill="black"
  />
</svg>
