<svg width="16" height="16" viewBox="0 0 16 16" fill="none" xmlns="http://www.w3.org/2000/svg">
  <path
    d="M8.07465 7.99726C8.05 7.99907 8.02511 8 8 8C7.44772 8 7 7.55228 7 7C7 6.92489 7.00828 6.85171 7.02398 6.78133L5.60462 5.13873L6.13869 4.60466L7.78126 6.024C7.85166 6.00829 7.92486 6 8 6C8.55228 6 9 6.44772 9 7C9 7.02514 8.99907 7.05005 8.99725 7.07472L10.0683 8.00023L9.00019 9.06836L8.07465 7.99726Z"
    fill="black"
  />
  <path
    fill-rule="evenodd"
    clip-rule="evenodd"
    d="M10 12.6586C12.3304 11.8349 14 9.61244 14 7C14 3.68629 11.3137 1 8 1C4.68629 1 2 3.68629 2 7C2 9.61244 3.66962 11.8349 6 12.6586V13H4V15H12V13H10V12.6586ZM12 7C12 9.20914 10.2091 11 8 11C5.79086 11 4 9.20914 4 7C4 4.79086 5.79086 3 8 3C10.2091 3 12 4.79086 12 7Z"
    fill="black"
  />
</svg>
