<svg viewBox="0 0 21 28" xmlns="http://www.w3.org/2000/svg">
  <path
    d="M19.6 0H1.4C0.626801 0 0 0.626801 0 1.4V26.6C0 27.3732 0.626801 28 1.4 28H19.6C20.3732 28 21 27.3732 21 26.6V1.4C21 0.626801 20.3732 0 19.6 0Z"
  />
  <path
    opacity="0.6"
    fill-rule="evenodd"
    clip-rule="evenodd"
    d="M6 14C5.85778 14 5.5 14 5.5 14C5.5 14 5.5 14.3661 5.5 14.5V20.6667L7.5 19L13 24H15.5V14.5C15.5 14.3578 15.5 14 15.5 14C15.5 14 15.1339 14 15 14H6ZM5.5 23.5V22.3333L7.60819 20.5224L11.5 24H6C5.84938 24 5.5 24 5.5 24C5.5 24 5.5 23.6255 5.5 23.5ZM4.5 14.5V22V23.5V24C4.5 24.2762 4.5 25 4.5 25C4.5 25 5.2239 25 5.5 25H6H15H15.5C15.7464 25 16.5 25 16.5 25C16.5 25 16.5 24.3058 16.5 24V23.5V23V14.5C16.5 14.1158 16.5 13 16.5 13C16.5 13 15.4443 13 15 13H6C5.55575 13 4.5 13 4.5 13C4.5 13 4.5 14.1158 4.5 14.5ZM10.5 17.5C10.5 16.6716 11.1716 16 12 16C12.8284 16 13.5 16.6716 13.5 17.5C13.5 18.3284 12.8284 19 12 19C11.1716 19 10.5 18.3284 10.5 17.5ZM12 15C10.6193 15 9.5 16.1193 9.5 17.5C9.5 18.8807 10.6193 20 12 20C13.3807 20 14.5 18.8807 14.5 17.5C14.5 16.1193 13.3807 15 12 15Z"
    fill="#fff"
  />
  <path d="M11.5 3V2H10.5V3H11.5Z" fill="#fff" />
  <path d="M9.5 4V5H10.5V8H9.5V9H12.5V8H11.5V4H9.5Z" fill="#fff" />
  <path
    d="M15.85 3C15.7433 3 15.6567 3.03 15.59 3.09C15.53 3.14333 15.5 3.21333 15.5 3.3V4H16.5V5H15.5V8H16.5V9H13.5V8H14.5V5H13.5V4H14.5V3.1C14.5 2.76 14.5967 2.49333 14.79 2.3C14.9833 2.1 15.2333 2 15.54 2H17V3L15.85 3Z"
    fill="#fff"
  />
  <path
    fill-rule="evenodd"
    clip-rule="evenodd"
    d="M7.5 8.8C7.29333 8.93333 7.04333 9 6.75 9H6.2C5.61333 9 5.18333 8.87667 4.91 8.63C4.63667 8.37667 4.5 7.96667 4.5 7.4V5.6C4.5 5.04 4.63667 4.63333 4.91 4.38C5.19 4.12667 5.62 4 6.2 4H8.5V10C8.5 10.5523 8.05228 11 7.5 11H5V10H6.5C7.34 10 7.5 10 7.5 9V8.8ZM6.85 8C7.07 8 7.23333 7.94333 7.34 7.83C7.44667 7.71 7.5 7.58333 7.5 7.45V5H6.25C6.00333 5 5.81667 5.05667 5.69 5.17C5.56333 5.28333 5.5 5.44333 5.5 5.65V7.35C5.5 7.55667 5.56333 7.71667 5.69 7.83C5.81667 7.94333 6.00333 8 6.25 8H6.85Z"
    fill="#fff"
  />
</svg>
