<svg viewBox="0 0 30 40" xmlns="http://www.w3.org/2000/svg">
  <path
    d="M28 0H2C0.89543 0 0 0.89543 0 2V38C0 39.1046 0.89543 40 2 40H28C29.1046 40 30 39.1046 30 38V2C30 0.89543 29.1046 0 28 0Z"
  />
  <path
    opacity="0.6"
    fill-rule="evenodd"
    clip-rule="evenodd"
    d="M8.5 18L8 18V18.5V27.6667L10 25L15 30L19 27L22 29.25C22 29.25 22 18.6417 22 18.5C22 18.3583 22 18 22 18C22 18 21.6344 18 21.5 18C21.3656 18 8.5 18 8.5 18ZM8 31.5V29.3333L10.1082 26.5224L14.9062 31.3204L19 28.25L22 30.5V31.5C22 31.6406 22 32 22 32C22 32 21.6356 32 21.5 32H8.5C8.347 32 8 32 8 32C8 32 8 31.6231 8 31.5ZM7 18.5V29V31.5V32C7 32.2768 7.00001 33 7.00001 33C7.00001 33 7.72447 33 8 33H8.5H21.5H22C22.2822 33 23 33 23 33C23 33 23 32.2701 23 32V31.5V30C23 30 23 18.9254 23 18.5C23 18.0746 23 17 23 17C23 17 21.903 17 21.5 17C21.097 17 8.5 17 8.5 17C8 17 7 17 7 17C7 17 7 18 7 18.5ZM16 22.5C16 21.6716 16.6716 21 17.5 21C18.3284 21 19 21.6716 19 22.5C19 23.3284 18.3284 24 17.5 24C16.6716 24 16 23.3284 16 22.5ZM17.5 20C16.1193 20 15 21.1193 15 22.5C15 23.8807 16.1193 25 17.5 25C18.8807 25 20 23.8807 20 22.5C20 21.1193 18.8807 20 17.5 20Z"
    fill="#fff"
  />
  <path d="M16 6V5H15V6H16Z" fill="#fff" />
  <path d="M14 7V8H15V11H14V12H17V11H16V7H14Z" fill="#fff" />
  <path
    d="M20.35 6C20.2433 6 20.1567 6.03 20.09 6.09C20.03 6.14333 20 6.21333 20 6.3V7H21V8H20V11H21V12H18V11H19V8H18V7H19V6.1C19 5.76 19.0967 5.49333 19.29 5.3C19.4833 5.1 19.7333 5 20.04 5H21.5V6L20.35 6Z"
    fill="#fff"
  />
  <path
    fill-rule="evenodd"
    clip-rule="evenodd"
    d="M12 11.8C11.7933 11.9333 11.5433 12 11.25 12H10.7C10.1133 12 9.68333 11.8767 9.41 11.63C9.13667 11.3767 9 10.9667 9 10.4V8.6C9 8.04 9.13667 7.63333 9.41 7.38C9.69 7.12667 10.12 7 10.7 7H13V13C13 13.5523 12.5523 14 12 14H9.5V13H11C11.84 13 12 13 12 12V11.8ZM11.35 11C11.57 11 11.7333 10.9433 11.84 10.83C11.9467 10.71 12 10.5833 12 10.45V8H10.75C10.5033 8 10.3167 8.05667 10.19 8.17C10.0633 8.28333 10 8.44333 10 8.65V10.35C10 10.5567 10.0633 10.7167 10.19 10.83C10.3167 10.9433 10.5033 11 10.75 11H11.35Z"
    fill="#fff"
  />
</svg>
