<svg viewBox="0 0 30 40" xmlns="http://www.w3.org/2000/svg">
  <path d="M28 0H2a2 2 0 00-2 2v36a2 2 0 002 2h26a2 2 0 002-2V2a2 2 0 00-2-2z" />
  <path
    fill="#fff"
    fill-rule="evenodd"
    d="M8.5 18a.5.5 0 00-.5.5v9.167L10 25l5 5 4-3 3 2.25V18.5a.5.5 0 00-.5-.5h-13zM8 31.5v-2.167l2.108-2.81 4.798 4.797L19 28.25l3 2.25v1a.5.5 0 01-.5.5h-13a.5.5 0 01-.5-.5zm-1-13V32a1 1 0 001 1h14a1 1 0 001-1V18.5a1.5 1.5 0 00-1.5-1.5h-13A1.5 1.5 0 007 18.5zm9 4a1.5 1.5 0 113 0 1.5 1.5 0 01-3 0zm1.5-2.5a2.5 2.5 0 100 5 2.5 2.5 0 000-5z"
    clip-rule="evenodd"
    opacity=".6"
  />
  <path
    fill="#fff"
    d="M16 5V4h-1v1h1zM14 6v1h1v3h-1v1h3v-1h-1V6h-2zM20.35 5a.374.374 0 00-.26.09.268.268 0 00-.09.21V6h1v1h-1v3h1v1h-3v-1h1V7h-1V6h1v-.9c0-.34.097-.607.29-.8.193-.2.443-.3.75-.3h1.46v1h-1.15z"
  />
  <path
    fill="#fff"
    fill-rule="evenodd"
    d="M12 10.8c-.207.133-.457.2-.75.2h-.55c-.587 0-1.017-.123-1.29-.37C9.137 10.377 9 9.967 9 9.4V7.6c0-.56.137-.967.41-1.22.28-.253.71-.38 1.29-.38H13v6a1 1 0 01-1 1H9.5v-1H11c.84 0 1 0 1-1v-.2zm-.65-.8c.22 0 .383-.057.49-.17a.565.565 0 00.16-.38V7h-1.25c-.247 0-.433.057-.56.17-.127.113-.19.273-.19.48v1.7c0 .207.063.367.19.48.127.113.313.17.56.17h.6z"
    clip-rule="evenodd"
  />
</svg>
