<svg viewBox="0 0 34 40" xmlns="http://www.w3.org/2000/svg">
  <path
    d="M32 0H2C0.89543 0 0 0.89543 0 2V38C0 39.1046 0.89543 40 2 40H32C33.1046 40 34 39.1046 34 38V2C34 0.89543 33.1046 0 32 0Z"
  />
  <path
    opacity="0.6"
    fill-rule="evenodd"
    clip-rule="evenodd"
    d="M9.5 18L9 18V18.5V27.6667L12 25L18 30L22 27L25 29.25C25 29.25 25 18.6417 25 18.5C25 18.3583 25 18 25 18C25 18 24.6344 18 24.5 18C24.3656 18 9.5 18 9.5 18ZM9 31.5V29.3333L12 26.5224L17.9062 31.3204L22 28.25L25 30.5V31.5C25 31.6406 25 32 25 32C25 32 24.6356 32 24.5 32H9.5C9.347 32 9 32 9 32C9 32 9 31.6231 9 31.5ZM8 18.5V29V31.5V32C8 32.2768 8.00001 33 8.00001 33C8.00001 33 8.72447 33 9 33H9.5H24.5H25C25.2822 33 26 33 26 33C26 33 26 32.2701 26 32V31.5V30C26 30 26 18.9254 26 18.5C26 18.0746 26 17 26 17C26 17 24.903 17 24.5 17C24.097 17 9.5 17 9.5 17C9 17 8 17 8 17C8 17 8 18 8 18.5ZM18 22.5C18 21.6716 18.6716 21 19.5 21C20.3284 21 21 21.6716 21 22.5C21 23.3284 20.3284 24 19.5 24C18.6716 24 18 23.3284 18 22.5ZM19.5 20C18.1193 20 17 21.1193 17 22.5C17 23.8807 18.1193 25 19.5 25C20.8807 25 22 23.8807 22 22.5C22 21.1193 20.8807 20 19.5 20Z"
    fill="white"
  />
  <path d="M18 6V5H17V6H18Z" fill="white" />
  <path d="M16 7V8H17V11H16V12H19V11H18V7H16Z" fill="white" />
  <path
    d="M22.35 6C22.2433 6 22.1567 6.03 22.09 6.09C22.03 6.14333 22 6.21333 22 6.3V7H23V8H22V11H23V12H20V11H21V8H20V7H21V6.1C21 5.76 21.0967 5.49333 21.29 5.3C21.4833 5.1 21.7333 5 22.04 5H23.5V6L22.35 6Z"
    fill="white"
  />
  <path
    fill-rule="evenodd"
    clip-rule="evenodd"
    d="M14 11.8C13.7933 11.9333 13.5433 12 13.25 12H12.7C12.1133 12 11.6833 11.8767 11.41 11.63C11.1367 11.3767 11 10.9667 11 10.4V8.6C11 8.04 11.1367 7.63333 11.41 7.38C11.69 7.12667 12.12 7 12.7 7H15V13C15 13.5523 14.5523 14 14 14H11.5V13H13C13.84 13 14 13 14 12V11.8ZM13.35 11C13.57 11 13.7333 10.9433 13.84 10.83C13.9467 10.71 14 10.5833 14 10.45V8H12.75C12.5033 8 12.3167 8.05667 12.19 8.17C12.0633 8.28333 12 8.44333 12 8.65V10.35C12 10.5567 12.0633 10.7167 12.19 10.83C12.3167 10.9433 12.5033 11 12.75 11H13.35Z"
    fill="white"
  />
</svg>
