<svg viewBox="0 0 24 28" xmlns="http://www.w3.org/2000/svg">
  <rect width="24" height="28" rx="2" />
  <path d="M13 3V2H12V3H13Z" fill="white" />
  <path d="M11 4V5H12V8H11V9H14V8H13V4H11Z" fill="white" />
  <path
    d="M17.35 3C17.2433 3 17.1567 3.03 17.09 3.09C17.03 3.14333 17 3.21333 17 3.3V4H18V5H17V8H18V9H15V8H16V5H15V4H16V3.1C16 2.76 16.0967 2.49333 16.29 2.3C16.4833 2.1 16.7333 2 17.04 2H18.5V3L17.35 3Z"
    fill="white"
  />
  <path
    fill-rule="evenodd"
    clip-rule="evenodd"
    d="M9 8.8C8.79333 8.93333 8.54333 9 8.25 9H7.7C7.11333 9 6.68333 8.87667 6.41 8.63C6.13667 8.37667 6 7.96667 6 7.4V5.6C6 5.04 6.13667 4.63333 6.41 4.38C6.69 4.12667 7.12 4 7.7 4H10V10C10 10.5523 9.55228 11 9 11H6.5V10H8C8.84 10 9 10 9 9V8.8ZM8.35 8C8.57 8 8.73333 7.94333 8.84 7.83C8.94667 7.71 9 7.58333 9 7.45V5H7.75C7.50333 5 7.31667 5.05667 7.19 5.17C7.06333 5.28333 7 5.44333 7 5.65V7.35C7 7.55667 7.06333 7.71667 7.19 7.83C7.31667 7.94333 7.50333 8 7.75 8H8.35Z"
    fill="white"
  />
  <path
    opacity="0.6"
    fill-rule="evenodd"
    clip-rule="evenodd"
    d="M6.5 14C6.35778 14 6 14 6 14C6 14 6 14.3661 6 14.5V20.6667L9 18L15.5 24H18V14.5C18 14.3578 18 14 18 14C18 14 17.6339 14 17.5 14H6.5ZM6 23.5V22.3333L9 19.5224L14 24H6.5C6.34938 24 6 24 6 24C6 24 6 23.6255 6 23.5ZM5 14.5V22V23.5V24C5 24.2762 5 25 5 25C5 25 5.7239 25 6 25H6.5H17.5H18C18.2464 25 19 25 19 25C19 25 19 24.3058 19 24V23.5V23V14.5C19 14.1158 19 13 19 13C19 13 17.9443 13 17.5 13H6.5C6.05575 13 5 13 5 13C5 13 5 14.1158 5 14.5ZM13 17.5C13 16.6716 13.6716 16 14.5 16C15.3284 16 16 16.6716 16 17.5C16 18.3284 15.3284 19 14.5 19C13.6716 19 13 18.3284 13 17.5ZM14.5 15C13.1193 15 12 16.1193 12 17.5C12 18.8807 13.1193 20 14.5 20C15.8807 20 17 18.8807 17 17.5C17 16.1193 15.8807 15 14.5 15Z"
    fill="white"
  />
</svg>
