<svg viewBox="0 0 12 12" xmlns="http://www.w3.org/2000/svg">
  <path
    d="M10.46 6.588c.025-.192.043-.384.043-.588 0-.204-.018-.396-.042-.588l1.266-.99a.303.303 0 00.072-.384l-1.2-2.076a.302.302 0 00-.366-.132l-1.494.6a4.384 4.384 0 00-1.014-.588L7.497.252A.293.293 0 007.203 0h-2.4a.293.293 0 00-.294.252l-.228 1.59a4.61 4.61 0 00-1.014.588l-1.494-.6a.293.293 0 00-.366.132l-1.2 2.076a.296.296 0 00.072.384l1.266.99c-.024.192-.042.39-.042.588 0 .198.018.396.042.588l-1.266.99a.303.303 0 00-.072.384l1.2 2.076c.072.132.234.18.366.132l1.494-.6c.312.24.648.438 1.014.588l.228 1.59a.293.293 0 00.294.252h2.4c.15 0 .276-.108.294-.252l.228-1.59a4.61 4.61 0 001.014-.588l1.494.6c.138.054.294 0 .366-.132l1.2-2.076a.303.303 0 00-.072-.384l-1.266-.99zM6.004 8.1c-1.158 0-2.1-.942-2.1-2.1 0-1.158.942-2.1 2.1-2.1 1.158 0 2.1.942 2.1 2.1 0 1.158-.942 2.1-2.1 2.1z"
  />
</svg>
