<svg viewBox="0 0 24 28" xmlns="http://www.w3.org/2000/svg">
  <rect width="24" height="28" rx="2" />
  <path
    opacity="0.5"
    d="M18 20H15V22H18V20ZM6 20V22H9V20H6ZM10 20V22H14V20H10ZM18 19V17H15V19H18ZM6 19H9V17H6V19ZM10 19H14V17H10V19ZM18 16V14H6V16H9V14H10V16H14V14H15V16H18ZM5 13H19V23H5V13Z"
    fill="white"
  />
  <path
    d="M7 9H6V7H7V6H6V4H7V5.5L8 6L9 5.5V4H10V6H9V7H10V9H9V7.5L8 7L7 7.5V9Z"
    fill="white"
  />
  <path
    d="M12.92 9C12.6933 9 12.3931 8.92 12.2198 8.76C12.0531 8.6 12 8.34667 12 8V3H11V2H13V7.7C13 7.80667 13.0267 7.88333 13.08 7.93C13.1333 7.97667 13.2233 8 13.35 8H14V9H12.92Z"
    fill="white"
  />
  <path
    d="M18 7.75C18 8.17 17.87 8.48333 17.61 8.69C17.3567 8.89667 16.9867 9 16.5 9H15V8H16.45C16.63 8 16.7667 7.96333 16.86 7.89C16.9533 7.81 17 7.69667 17 7.55V7.45C17 7.15 16.8567 7 16.57 7H16.2C15.7333 7 15.5333 6.9 15.3 6.7C15.0733 6.49333 15 6.17 15 5.73V5.26C15 4.81333 15.0867 4.49333 15.34 4.3C15.5933 4.1 16.0067 4 16.5 4H18V5H16.55C16.3833 5 16.25 5.04 16.15 5.12C16.05 5.19333 16 5.30333 16 5.45V5.56C16 5.71333 16.0433 5.82667 16.13 5.9C16.2233 5.97333 16.34 6 16.48 6H16.63C17.0767 6 17.4167 6.12 17.65 6.34C17.8833 6.55333 18 6.87333 18 7.3V7.75Z"
    fill="white"
  />
</svg>
