<svg viewBox="0 0 34 40" xmlns="http://www.w3.org/2000/svg">
  <path
    d="M32 0H2C0.89543 0 0 0.89543 0 2V38C0 39.1046 0.89543 40 2 40H32C33.1046 40 34 39.1046 34 38V2C34 0.89543 33.1046 0 32 0Z"
  />
  <path
    opacity="0.6"
    fill-rule="evenodd"
    clip-rule="evenodd"
    d="M9 19H15V21.5H9V19ZM8 22.5V21.5V19V18H9H15H16H20H21H25H26V19V21.5V22.5V25V26V28.5V29.5V32V33H25H21H20H16H15H9H8V32V29.5V28.5V26V25V22.5ZM25 21.5V19H21V21.5H25ZM21 22.5H25V25H21V22.5ZM20 21.5V19H16V21.5H20ZM16 22.5H20V25H16V22.5ZM15 22.5V25H9V22.5H15ZM20 32H16V29.5H20V32ZM15 32V29.5H9V32H15ZM20 28.5H16V26H20V28.5ZM15 28.5V26H9V28.5H15ZM25 28.5V26H21V28.5H25ZM21 29.5H25V32H21V29.5Z"
    fill="white"
  />
  <path
    d="M12 12H11V10H12V9H11V7H12V8.5L13 9L14 8.5V7H15V9H14V10H15V12H14V10.5L13 10L12 10.5V12Z"
    fill="white"
  />
  <path
    d="M17.92 12C17.6933 12 17.3931 11.92 17.2198 11.76C17.0531 11.6 17 11.3467 17 11V6H16V5H18V10.7C18 10.8067 18.0267 10.8833 18.08 10.93C18.1333 10.9767 18.2233 11 18.35 11H19V12H17.92Z"
    fill="white"
  />
  <path
    d="M23 10.75C23 11.17 22.87 11.4833 22.61 11.69C22.3567 11.8967 21.9867 12 21.5 12H20V11H21.45C21.63 11 21.7667 10.9633 21.86 10.89C21.9533 10.81 22 10.6967 22 10.55V10.45C22 10.15 21.8567 10 21.57 10H21.2C20.7333 10 20.5333 9.9 20.3 9.7C20.0733 9.49333 20 9.17 20 8.73V8.26C20 7.81333 20.0867 7.49333 20.34 7.3C20.5933 7.1 21.0067 7 21.5 7H23V8H21.55C21.3833 8 21.25 8.04 21.15 8.12C21.05 8.19333 21 8.30333 21 8.45V8.56C21 8.71333 21.0433 8.82667 21.13 8.9C21.2233 8.97333 21.34 9 21.48 9H21.63C22.0767 9 22.4167 9.12 22.65 9.34C22.8833 9.55333 23 9.87333 23 10.3V10.75Z"
    fill="white"
  />
</svg>
