<svg viewBox="0 0 21 28" xmlns="http://www.w3.org/2000/svg">
  <path
    d="M19.6 0H1.4A1.4 1.4 0 000 1.4v25.2A1.4 1.4 0 001.4 28h18.2a1.4 1.4 0 001.4-1.4V1.4A1.4 1.4 0 0019.6 0z"
  />
  <path
    fill="#fff"
    d="M16 20h-3v2h3v-2zM5 20v2h3v-2H5zm4 0v2h3v-2H9zm7-1v-2h-3v2h3zM5 19h3v-2H5v2zm4 0h3v-2H9v2zm7-3v-2H5v2h3v-2h1v2h3v-2h1v2h3zM4 13h13v10H4V13z"
    opacity=".5"
  />
  <path
    fill="#fff"
    d="M5 9H4V7h1V6H4V4h1v1.5L6 6l1-.5V4h1v2H7v1h1v2H7V7.5L6 7l-1 .5V9zM10.92 9c-.227 0-.527-.08-.7-.24C10.053 8.6 10 8.347 10 8V3H9V2h2v5.7c0 .107.027.183.08.23.053.047.143.07.27.07H12v1h-1.08zM16 7.75c0 .42-.13.733-.39.94-.253.207-.623.31-1.11.31H13V8h1.45c.18 0 .317-.037.41-.11a.424.424 0 00.14-.34v-.1c0-.3-.143-.45-.43-.45h-.37c-.467 0-.667-.1-.9-.3-.227-.207-.3-.53-.3-.97v-.47c0-.447.087-.767.34-.96.253-.2.667-.3 1.16-.3H16v1h-1.45c-.167 0-.3.04-.4.12-.1.073-.15.183-.15.33v.11c0 .153.043.267.13.34.093.073.21.1.35.1h.15c.447 0 .787.12 1.02.34.233.213.35.533.35.96v.45z"
  />
</svg>
