<svg viewBox="0 0 30 40" xmlns="http://www.w3.org/2000/svg">
  <path
    d="M28 0H2C0.89543 0 0 0.89543 0 2V38C0 39.1046 0.89543 40 2 40H28C29.1046 40 30 39.1046 30 38V2C30 0.89543 29.1046 0 28 0Z"
  />
  <path
    opacity="0.6"
    fill-rule="evenodd"
    clip-rule="evenodd"
    d="M8 19H14V21.5H8V19ZM7 22.5V21.5V19V18H8H14H15H18H19H22H23V19V21.5V22.5V25V26V28.5V29.5V32V33H22H19H18H15H14H8H7V32V29.5V28.5V26V25V22.5ZM22 21.5V19H19V21.5H22ZM19 22.5H22V25H19V22.5ZM18 21.5V19H15V21.5H18ZM15 22.5H18V25H15V22.5ZM14 22.5V25H8V22.5H14ZM18 32H15V29.5H18V32ZM14 32V29.5H8V32H14ZM18 28.5H15V26H18V28.5ZM14 28.5V26H8V28.5H14ZM22 28.5V26H19V28.5H22ZM19 29.5H22V32H19V29.5Z"
    fill="#fff"
  />
  <path
    d="M10 12H9V10H10V9H9V7H10V8.5L11 9L12 8.5V7H13V9H12V10H13V12H12V10.5L11 10L10 10.5V12Z"
    fill="#fff"
  />
  <path
    d="M15.92 12C15.6933 12 15.3931 11.92 15.2198 11.76C15.0531 11.6 15 11.3467 15 11V6H14V5H16V10.7C16 10.8067 16.0267 10.8833 16.08 10.93C16.1333 10.9767 16.2233 11 16.35 11H17V12H15.92Z"
    fill="#fff"
  />
  <path
    d="M21 10.75C21 11.17 20.87 11.4833 20.61 11.69C20.3567 11.8967 19.9867 12 19.5 12H18V11H19.45C19.63 11 19.7667 10.9633 19.86 10.89C19.9533 10.81 20 10.6967 20 10.55V10.45C20 10.15 19.8567 10 19.57 10H19.2C18.7333 10 18.5333 9.9 18.3 9.7C18.0733 9.49333 18 9.17 18 8.73V8.26C18 7.81333 18.0867 7.49333 18.34 7.3C18.5933 7.1 19.0067 7 19.5 7H21V8H19.55C19.3833 8 19.25 8.04 19.15 8.12C19.05 8.19333 19 8.30333 19 8.45V8.56C19 8.71333 19.0433 8.82667 19.13 8.9C19.2233 8.97333 19.34 9 19.48 9H19.63C20.0767 9 20.4167 9.12 20.65 9.34C20.8833 9.55333 21 9.87333 21 10.3V10.75Z"
    fill="#fff"
  />
</svg>
