<svg viewBox="0 0 16 16" xmlns="http://www.w3.org/2000/svg">
  <path
    d="M11.429 11.606c0-.923 1.285-2.418 1.285-2.418S14 10.692 14 11.606c0 .766-.574 1.385-1.286 1.385-.71 0-1.285-.619-1.285-1.385z"
  />
  <path
    d="M5.353 1l5.828 6.268c.334.36.334.95 0 1.31l-3.857 4.154a.846.846 0 01-.608.268.822.822 0 01-.609-.277L2.251 8.57a.97.97 0 010-1.301l3.556-3.822-1.362-1.468L5.353 1zm1.363 3.425l-2.82 3.037h5.64l-2.82-3.037z"
    fill-rule="evenodd"
    clip-rule="evenodd"
  />
  <path d="M16 14H0v2h16v-2z" />
</svg>
