<svg width="12" height="12" viewBox="0 0 12 12" fill="none" xmlns="http://www.w3.org/2000/svg">
  <path
    fill-rule="evenodd"
    clip-rule="evenodd"
    d="M5.00009 1L9.24271 5.24264L9.23532 5.25002L9.53561 5.5503C9.92618 5.94083 9.92618 6.57399 9.53561 6.96452L6.70718 9.79295C6.31668 10.1835 5.6835 10.1835 5.293 9.79295L2.46457 6.96452C2.07401 6.57399 2.07401 5.94083 2.46457 5.5503L5.293 2.72188L5.30045 2.71453L4.293 1.70711L5.00009 1ZM6.00009 3.42899L8.57111 6H3.42907L6.00009 3.42899Z"
    fill="black"
  />
  <path
    d="M10 10C10.5523 10 11 9.55229 11 9C11 8.44772 10.5523 8 10 8C9.44773 8 9.00002 8.44772 9.00002 9C9.00002 9.55229 9.44773 10 10 10Z"
    fill="black"
  />
  <path d="M12 11H0V12H12V11Z" fill="black" />
</svg>
