<svg width="12" height="12" viewBox="0 0 12 12" fill="none" xmlns="http://www.w3.org/2000/svg">
  <path
    d="M8.504 5.85C9.168 5.36667 9.6 4.65 9.6 3.91667C9.6 2.30833 8.344 1 6.8 1H2V11H7.4C8.832 11 10 9.78333 10 8.29167C10 7.20833 9.384 6.28333 8.504 5.85ZM4 2.66667H6.39626C7.06026 2.66667 7.59626 3.225 7.59626 3.91667C7.59626 4.60833 7.06026 5.16667 6.39626 5.16667H4V2.66667ZM6.5999 9.33333H4V6.83333H6.6C7.264 6.83333 7.7999 7.39167 7.7999 8.08333C7.7999 8.775 7.2639 9.33333 6.5999 9.33333Z"
    fill="black"
  />
</svg>
